{
    "header": {
      "keySignatures": [
        {
          "key": "Eb",
          "scale": "major",
          "ticks": 0
        }
      ],
      "meta": [
        {
          "text": "Ludwig van Beethoven",
          "ticks": 0,
          "type": "text"
        }
      ],
      "name": "Symphony No.5 in Cm, 1st movement",
      "ppq": 480,
      "tempos": [
        {
          "bpm": 120,
          "ticks": 0
        }
      ],
      "timeSignatures": [
        {
          "ticks": 0,
          "timeSignature": [
            4,
            4
          ],
          "measures": 0
        }
      ]
    },
    "tracks": [
      {
        "channel": 0,
        "controlChanges": {
          "7": [
            {
              "number": 7,
              "ticks": 0,
              "time": 0,
              "value": 0.4015748031496063
            },
            {
              "number": 7,
              "ticks": 0,
              "time": 0,
              "value": 0.4015748031496063
            }
          ],
          "10": [
            {
              "number": 10,
              "ticks": 0,
              "time": 0,
              "value": 0.5826771653543307
            },
            {
              "number": 10,
              "ticks": 0,
              "time": 0,
              "value": 0.5826771653543307
            }
          ],
          "64": [
            {
              "number": 64,
              "ticks": 0,
              "time": 0,
              "value": 0
            },
            {
              "number": 64,
              "ticks": 0,
              "time": 0,
              "value": 0
            }
          ],
          "121": [
            {
              "number": 121,
              "ticks": 0,
              "time": 0,
              "value": 0
            },
            {
              "number": 121,
              "ticks": 0,
              "time": 0,
              "value": 0
            }
          ]
        },
        "pitchBends": [],
        "instrument": {
          "family": "pipe",
          "number": 73,
          "name": "flute"
        },
        "name": "Symphony No.5 in Cm, 1st movement",
        "notes": [
          {
            "duration": 0.22604166666666714,
            "durationTicks": 217,
            "midi": 91,
            "name": "G6",
            "ticks": 17520,
            "time": 18.25,
            "velocity": 0.4251968503937008
          },
          {
            "duration": 0.22604166666666714,
            "durationTicks": 217,
            "midi": 86,
            "name": "D6",
            "ticks": 17520,
            "time": 18.25,
            "velocity": 0.4251968503937008
          },
          {
            "duration": 0.22604166666666714,
            "durationTicks": 217,
            "midi": 91,
            "name": "G6",
            "ticks": 17760,
            "time": 18.5,
            "velocity": 0.5433070866141733
          },
          {
            "duration": 0.22604166666666714,
            "durationTicks": 217,
            "midi": 86,
            "name": "D6",
            "ticks": 17760,
            "time": 18.5,
            "velocity": 0.5433070866141733
          },
          {
            "duration": 0.22604166666666714,
            "durationTicks": 217,
            "midi": 89,
            "name": "F6",
            "ticks": 18000,
            "time": 18.75,
            "velocity": 0.5826771653543307
          },
          {
            "duration": 0.22604166666666714,
            "durationTicks": 217,
            "midi": 86,
            "name": "D6",
            "ticks": 18000,
            "time": 18.75,
            "velocity": 0.5826771653543307
          },
          {
            "duration": 0.451041666666665,
            "durationTicks": 433,
            "midi": 87,
            "name": "D#6",
            "ticks": 18240,
            "time": 19,
            "velocity": 0.7244094488188977
          },
          {
            "duration": 0.451041666666665,
            "durationTicks": 433,
            "midi": 84,
            "name": "C6",
            "ticks": 18240,
            "time": 19,
            "velocity": 0.7244094488188977
          },
          {
            "duration": 0.451041666666665,
            "durationTicks": 433,
            "midi": 84,
            "name": "C6",
            "ticks": 19200,
            "time": 20,
            "velocity": 0.6929133858267716
          },
          {
            "duration": 0.451041666666665,
            "durationTicks": 433,
            "midi": 84,
            "name": "C6",
            "ticks": 19200,
            "time": 20,
            "velocity": 0.6929133858267716
          },
          {
            "duration": 0.451041666666665,
            "durationTicks": 433,
            "midi": 91,
            "name": "G6",
            "ticks": 20160,
            "time": 21,
            "velocity": 0.7007874015748031
          },
          {
            "duration": 0.451041666666665,
            "durationTicks": 433,
            "midi": 83,
            "name": "B5",
            "ticks": 20160,
            "time": 21,
            "velocity": 0.7007874015748031
          },
          {
            "duration": 0.22604166666666714,
            "durationTicks": 217,
            "midi": 80,
            "name": "G#5",
            "ticks": 21600,
            "time": 22.5,
            "velocity": 0.6692913385826772
          },
          {
            "duration": 0.22604166666666714,
            "durationTicks": 217,
            "midi": 80,
            "name": "G#5",
            "ticks": 21600,
            "time": 22.5,
            "velocity": 0.6692913385826772
          },
          {
            "duration": 0.22604166666666714,
            "durationTicks": 217,
            "midi": 80,
            "name": "G#5",
            "ticks": 21840,
            "time": 22.75,
            "velocity": 0.7874015748031497
          },
          {
            "duration": 0.22604166666666714,
            "durationTicks": 217,
            "midi": 80,
            "name": "G#5",
            "ticks": 21840,
            "time": 22.75,
            "velocity": 0.7874015748031497
          },
          {
            "duration": 0.22604166666666714,
            "durationTicks": 217,
            "midi": 80,
            "name": "G#5",
            "ticks": 22080,
            "time": 23,
            "velocity": 0.7637795275590551
          },
          {
            "duration": 0.22604166666666714,
            "durationTicks": 217,
            "midi": 80,
            "name": "G#5",
            "ticks": 22080,
            "time": 23,
            "velocity": 0.7637795275590551
          },
          {
            "duration": 2.5,
            "durationTicks": 2400,
            "midi": 77,
            "name": "F5",
            "ticks": 22320,
            "time": 23.25,
            "velocity": 0.7165354330708661
          },
          {
            "duration": 2.5,
            "durationTicks": 2400,
            "midi": 77,
            "name": "F5",
            "ticks": 22320,
            "time": 23.25,
            "velocity": 0.7165354330708661
          },
          {
            "duration": 0.45104166666666856,
            "durationTicks": 433,
            "midi": 84,
            "name": "C6",
            "ticks": 38160,
            "time": 39.75,
            "velocity": 1
          },
          {
            "duration": 0.45104166666666856,
            "durationTicks": 433,
            "midi": 84,
            "name": "C6",
            "ticks": 38160,
            "time": 39.75,
            "velocity": 1
          },
          {
            "duration": 0.45104166666666856,
            "durationTicks": 433,
            "midi": 84,
            "name": "C6",
            "ticks": 39120,
            "time": 40.75,
            "velocity": 0.8188976377952756
          },
          {
            "duration": 0.45104166666666856,
            "durationTicks": 433,
            "midi": 84,
            "name": "C6",
            "ticks": 39120,
            "time": 40.75,
            "velocity": 0.8188976377952756
          },
          {
            "duration": 0.45104166666666856,
            "durationTicks": 433,
            "midi": 84,
            "name": "C6",
            "ticks": 40080,
            "time": 41.75,
            "velocity": 0.7874015748031497
          },
          {
            "duration": 0.45104166666666856,
            "durationTicks": 433,
            "midi": 84,
            "name": "C6",
            "ticks": 40080,
            "time": 41.75,
            "velocity": 0.7874015748031497
          },
          {
            "duration": 0.45104166666666856,
            "durationTicks": 433,
            "midi": 84,
            "name": "C6",
            "ticks": 41040,
            "time": 42.75,
            "velocity": 0.8188976377952756
          },
          {
            "duration": 0.45104166666666856,
            "durationTicks": 433,
            "midi": 84,
            "name": "C6",
            "ticks": 41040,
            "time": 42.75,
            "velocity": 0.8188976377952756
          },
          {
            "duration": 0.45104166666666856,
            "durationTicks": 433,
            "midi": 86,
            "name": "D6",
            "ticks": 42000,
            "time": 43.75,
            "velocity": 0.8031496062992126
          },
          {
            "duration": 0.45104166666666856,
            "durationTicks": 433,
            "midi": 83,
            "name": "B5",
            "ticks": 42000,
            "time": 43.75,
            "velocity": 0.8031496062992126
          },
          {
            "duration": 3.8999999999999986,
            "durationTicks": 3744,
            "midi": 87,
            "name": "D#6",
            "ticks": 42960,
            "time": 44.75,
            "velocity": 0.7165354330708661
          },
          {
            "duration": 3.8999999999999986,
            "durationTicks": 3744,
            "midi": 84,
            "name": "C6",
            "ticks": 42960,
            "time": 44.75,
            "velocity": 0.7165354330708661
          },
          {
            "duration": 3.4510416666666686,
            "durationTicks": 3313,
            "midi": 89,
            "name": "F6",
            "ticks": 46800,
            "time": 48.75,
            "velocity": 0.8110236220472441
          },
          {
            "duration": 3.4510416666666686,
            "durationTicks": 3313,
            "midi": 86,
            "name": "D6",
            "ticks": 46800,
            "time": 48.75,
            "velocity": 0.8110236220472441
          },
          {
            "duration": 0.45104166666666856,
            "durationTicks": 433,
            "midi": 87,
            "name": "D#6",
            "ticks": 50160,
            "time": 52.25,
            "velocity": 0.7401574803149606
          },
          {
            "duration": 0.45104166666666856,
            "durationTicks": 433,
            "midi": 84,
            "name": "C6",
            "ticks": 50160,
            "time": 52.25,
            "velocity": 0.7401574803149606
          },
          {
            "duration": 3.8999999999999986,
            "durationTicks": 3744,
            "midi": 87,
            "name": "D#6",
            "ticks": 50640,
            "time": 52.75,
            "velocity": 0.9291338582677166
          },
          {
            "duration": 3.8999999999999986,
            "durationTicks": 3744,
            "midi": 84,
            "name": "C6",
            "ticks": 50640,
            "time": 52.75,
            "velocity": 0.9291338582677166
          },
          {
            "duration": 0.45104166666666856,
            "durationTicks": 433,
            "midi": 90,
            "name": "F#6",
            "ticks": 54480,
            "time": 56.75,
            "velocity": 0.9606299212598425
          },
          {
            "duration": 0.45104166666666856,
            "durationTicks": 433,
            "midi": 81,
            "name": "A5",
            "ticks": 54480,
            "time": 56.75,
            "velocity": 0.9606299212598425
          },
          {
            "duration": 0.45104166666666856,
            "durationTicks": 433,
            "midi": 82,
            "name": "A#5",
            "ticks": 56400,
            "time": 58.75,
            "velocity": 0.7952755905511811
          },
          {
            "duration": 0.45104166666666856,
            "durationTicks": 433,
            "midi": 82,
            "name": "A#5",
            "ticks": 56400,
            "time": 58.75,
            "velocity": 0.7952755905511811
          },
          {
            "duration": 0.5093750000000057,
            "durationTicks": 489,
            "midi": 82,
            "name": "A#5",
            "ticks": 68880,
            "time": 71.75,
            "velocity": 0.5905511811023622
          },
          {
            "duration": 0.5093750000000057,
            "durationTicks": 489,
            "midi": 82,
            "name": "A#5",
            "ticks": 68880,
            "time": 71.75,
            "velocity": 0.5905511811023622
          },
          {
            "duration": 0.5093750000000057,
            "durationTicks": 489,
            "midi": 87,
            "name": "D#6",
            "ticks": 69360,
            "time": 72.25,
            "velocity": 0.6299212598425197
          },
          {
            "duration": 0.5093750000000057,
            "durationTicks": 489,
            "midi": 87,
            "name": "D#6",
            "ticks": 69360,
            "time": 72.25,
            "velocity": 0.6299212598425197
          },
          {
            "duration": 0.5093750000000057,
            "durationTicks": 489,
            "midi": 86,
            "name": "D6",
            "ticks": 69840,
            "time": 72.75,
            "velocity": 0.6535433070866141
          },
          {
            "duration": 0.5093750000000057,
            "durationTicks": 489,
            "midi": 86,
            "name": "D6",
            "ticks": 69840,
            "time": 72.75,
            "velocity": 0.6535433070866141
          },
          {
            "duration": 0.5093750000000057,
            "durationTicks": 489,
            "midi": 87,
            "name": "D#6",
            "ticks": 70320,
            "time": 73.25,
            "velocity": 0.6692913385826772
          },
          {
            "duration": 0.5093750000000057,
            "durationTicks": 489,
            "midi": 87,
            "name": "D#6",
            "ticks": 70320,
            "time": 73.25,
            "velocity": 0.6692913385826772
          },
          {
            "duration": 0.5093750000000057,
            "durationTicks": 489,
            "midi": 89,
            "name": "F6",
            "ticks": 70800,
            "time": 73.75,
            "velocity": 0.6850393700787402
          },
          {
            "duration": 0.5093750000000057,
            "durationTicks": 489,
            "midi": 89,
            "name": "F6",
            "ticks": 70800,
            "time": 73.75,
            "velocity": 0.6850393700787402
          },
          {
            "duration": 0.4749999999999943,
            "durationTicks": 456,
            "midi": 84,
            "name": "C6",
            "ticks": 71280,
            "time": 74.25,
            "velocity": 0.6141732283464567
          },
          {
            "duration": 0.4749999999999943,
            "durationTicks": 456,
            "midi": 84,
            "name": "C6",
            "ticks": 71280,
            "time": 74.25,
            "velocity": 0.6141732283464567
          },
          {
            "duration": 0.5093750000000057,
            "durationTicks": 489,
            "midi": 84,
            "name": "C6",
            "ticks": 71760,
            "time": 74.75,
            "velocity": 0.6692913385826772
          },
          {
            "duration": 0.5093750000000057,
            "durationTicks": 489,
            "midi": 84,
            "name": "C6",
            "ticks": 71760,
            "time": 74.75,
            "velocity": 0.6692913385826772
          },
          {
            "duration": 0.4749999999999943,
            "durationTicks": 456,
            "midi": 82,
            "name": "A#5",
            "ticks": 72240,
            "time": 75.25,
            "velocity": 0.5984251968503937
          },
          {
            "duration": 0.4749999999999943,
            "durationTicks": 456,
            "midi": 82,
            "name": "A#5",
            "ticks": 72240,
            "time": 75.25,
            "velocity": 0.5984251968503937
          },
          {
            "duration": 0.5093750000000057,
            "durationTicks": 489,
            "midi": 87,
            "name": "D#6",
            "ticks": 88080,
            "time": 91.75,
            "velocity": 0.7637795275590551
          },
          {
            "duration": 0.5093750000000057,
            "durationTicks": 489,
            "midi": 87,
            "name": "D#6",
            "ticks": 88080,
            "time": 91.75,
            "velocity": 0.7637795275590551
          },
          {
            "duration": 0.5093750000000057,
            "durationTicks": 489,
            "midi": 89,
            "name": "F6",
            "ticks": 88560,
            "time": 92.25,
            "velocity": 0.84251968503937
          },
          {
            "duration": 0.5093750000000057,
            "durationTicks": 489,
            "midi": 89,
            "name": "F6",
            "ticks": 88560,
            "time": 92.25,
            "velocity": 0.84251968503937
          },
          {
            "duration": 0.5093750000000057,
            "durationTicks": 489,
            "midi": 90,
            "name": "F#6",
            "ticks": 89040,
            "time": 92.75,
            "velocity": 0.7086614173228346
          },
          {
            "duration": 0.5093750000000057,
            "durationTicks": 489,
            "midi": 90,
            "name": "F#6",
            "ticks": 89040,
            "time": 92.75,
            "velocity": 0.7086614173228346
          },
          {
            "duration": 0.5093750000000057,
            "durationTicks": 489,
            "midi": 89,
            "name": "F6",
            "ticks": 89520,
            "time": 93.25,
            "velocity": 0.7244094488188977
          },
          {
            "duration": 0.5093750000000057,
            "durationTicks": 489,
            "midi": 89,
            "name": "F6",
            "ticks": 89520,
            "time": 93.25,
            "velocity": 0.7244094488188977
          },
          {
            "duration": 0.5,
            "durationTicks": 480,
            "midi": 90,
            "name": "F#6",
            "ticks": 90000,
            "time": 93.75,
            "velocity": 0.8188976377952756
          },
          {
            "duration": 0.5,
            "durationTicks": 480,
            "midi": 90,
            "name": "F#6",
            "ticks": 90000,
            "time": 93.75,
            "velocity": 0.8188976377952756
          },
          {
            "duration": 0.4749999999999943,
            "durationTicks": 456,
            "midi": 90,
            "name": "F#6",
            "ticks": 90480,
            "time": 94.25,
            "velocity": 0.7480314960629921
          },
          {
            "duration": 0.4749999999999943,
            "durationTicks": 456,
            "midi": 90,
            "name": "F#6",
            "ticks": 90480,
            "time": 94.25,
            "velocity": 0.7480314960629921
          },
          {
            "duration": 1.4510416666666686,
            "durationTicks": 1393,
            "midi": 89,
            "name": "F6",
            "ticks": 90960,
            "time": 94.75,
            "velocity": 0.8661417322834646
          },
          {
            "duration": 1.4510416666666686,
            "durationTicks": 1393,
            "midi": 82,
            "name": "A#5",
            "ticks": 90960,
            "time": 94.75,
            "velocity": 0.8661417322834646
          },
          {
            "duration": 0.45104166666666856,
            "durationTicks": 433,
            "midi": 89,
            "name": "F6",
            "ticks": 92400,
            "time": 96.25,
            "velocity": 0.8503937007874016
          },
          {
            "duration": 0.45104166666666856,
            "durationTicks": 433,
            "midi": 82,
            "name": "A#5",
            "ticks": 92400,
            "time": 96.25,
            "velocity": 0.8503937007874016
          },
          {
            "duration": 0.45104166666666856,
            "durationTicks": 433,
            "midi": 91,
            "name": "G6",
            "ticks": 92880,
            "time": 96.75,
            "velocity": 0.9448818897637795
          },
          {
            "duration": 0.45104166666666856,
            "durationTicks": 433,
            "midi": 82,
            "name": "A#5",
            "ticks": 92880,
            "time": 96.75,
            "velocity": 0.9448818897637795
          },
          {
            "duration": 0.45104166666666856,
            "durationTicks": 433,
            "midi": 89,
            "name": "F6",
            "ticks": 93840,
            "time": 97.75,
            "velocity": 0.7874015748031497
          },
          {
            "duration": 0.45104166666666856,
            "durationTicks": 433,
            "midi": 82,
            "name": "A#5",
            "ticks": 93840,
            "time": 97.75,
            "velocity": 0.7874015748031497
          },
          {
            "duration": 0.45104166666666856,
            "durationTicks": 433,
            "midi": 87,
            "name": "D#6",
            "ticks": 94800,
            "time": 98.75,
            "velocity": 0.8031496062992126
          },
          {
            "duration": 0.45104166666666856,
            "durationTicks": 433,
            "midi": 82,
            "name": "A#5",
            "ticks": 94800,
            "time": 98.75,
            "velocity": 0.8031496062992126
          },
          {
            "duration": 0.45104166666666856,
            "durationTicks": 433,
            "midi": 87,
            "name": "D#6",
            "ticks": 95760,
            "time": 99.75,
            "velocity": 0.7795275590551181
          },
          {
            "duration": 0.45104166666666856,
            "durationTicks": 433,
            "midi": 84,
            "name": "C6",
            "ticks": 95760,
            "time": 99.75,
            "velocity": 0.7795275590551181
          },
          {
            "duration": 0.45104166666666856,
            "durationTicks": 433,
            "midi": 87,
            "name": "D#6",
            "ticks": 96720,
            "time": 100.75,
            "velocity": 0.7874015748031497
          },
          {
            "duration": 0.45104166666666856,
            "durationTicks": 433,
            "midi": 82,
            "name": "A#5",
            "ticks": 96720,
            "time": 100.75,
            "velocity": 0.7874015748031497
          },
          {
            "duration": 0.45104166666666856,
            "durationTicks": 433,
            "midi": 86,
            "name": "D6",
            "ticks": 97680,
            "time": 101.75,
            "velocity": 0.8188976377952756
          },
          {
            "duration": 0.45104166666666856,
            "durationTicks": 433,
            "midi": 82,
            "name": "A#5",
            "ticks": 97680,
            "time": 101.75,
            "velocity": 0.8188976377952756
          },
          {
            "duration": 1.9000000000000057,
            "durationTicks": 1824,
            "midi": 89,
            "name": "F6",
            "ticks": 98640,
            "time": 102.75,
            "velocity": 0.84251968503937
          },
          {
            "duration": 1.9000000000000057,
            "durationTicks": 1824,
            "midi": 82,
            "name": "A#5",
            "ticks": 98640,
            "time": 102.75,
            "velocity": 0.84251968503937
          },
          {
            "duration": 0.45104166666666856,
            "durationTicks": 433,
            "midi": 91,
            "name": "G6",
            "ticks": 100560,
            "time": 104.75,
            "velocity": 0.9212598425196851
          },
          {
            "duration": 0.45104166666666856,
            "durationTicks": 433,
            "midi": 82,
            "name": "A#5",
            "ticks": 100560,
            "time": 104.75,
            "velocity": 0.9212598425196851
          },
          {
            "duration": 0.45104166666666856,
            "durationTicks": 433,
            "midi": 91,
            "name": "G6",
            "ticks": 101040,
            "time": 105.25,
            "velocity": 0.8976377952755905
          },
          {
            "duration": 0.45104166666666856,
            "durationTicks": 433,
            "midi": 82,
            "name": "A#5",
            "ticks": 101040,
            "time": 105.25,
            "velocity": 0.8976377952755905
          },
          {
            "duration": 0.45104166666666856,
            "durationTicks": 433,
            "midi": 86,
            "name": "D6",
            "ticks": 102000,
            "time": 106.25,
            "velocity": 0.7795275590551181
          },
          {
            "duration": 0.45104166666666856,
            "durationTicks": 433,
            "midi": 82,
            "name": "A#5",
            "ticks": 102000,
            "time": 106.25,
            "velocity": 0.7795275590551181
          },
          {
            "duration": 0.45104166666666856,
            "durationTicks": 433,
            "midi": 87,
            "name": "D#6",
            "ticks": 102960,
            "time": 107.25,
            "velocity": 0.7952755905511811
          },
          {
            "duration": 0.45104166666666856,
            "durationTicks": 433,
            "midi": 82,
            "name": "A#5",
            "ticks": 102960,
            "time": 107.25,
            "velocity": 0.7952755905511811
          },
          {
            "duration": 0.45104166666666856,
            "durationTicks": 433,
            "midi": 87,
            "name": "D#6",
            "ticks": 103920,
            "time": 108.25,
            "velocity": 0.8346456692913385
          },
          {
            "duration": 0.45104166666666856,
            "durationTicks": 433,
            "midi": 80,
            "name": "G#5",
            "ticks": 103920,
            "time": 108.25,
            "velocity": 0.8346456692913385
          },
          {
            "duration": 0.45104166666666856,
            "durationTicks": 433,
            "midi": 87,
            "name": "D#6",
            "ticks": 104880,
            "time": 109.25,
            "velocity": 0.8031496062992126
          },
          {
            "duration": 0.45104166666666856,
            "durationTicks": 433,
            "midi": 82,
            "name": "A#5",
            "ticks": 104880,
            "time": 109.25,
            "velocity": 0.8031496062992126
          },
          {
            "duration": 0.45104166666666856,
            "durationTicks": 433,
            "midi": 86,
            "name": "D6",
            "ticks": 105840,
            "time": 110.25,
            "velocity": 0.7795275590551181
          },
          {
            "duration": 0.45104166666666856,
            "durationTicks": 433,
            "midi": 82,
            "name": "A#5",
            "ticks": 105840,
            "time": 110.25,
            "velocity": 0.7795275590551181
          },
          {
            "duration": 0.22604166666666003,
            "durationTicks": 217,
            "midi": 87,
            "name": "D#6",
            "ticks": 106320,
            "time": 110.75,
            "velocity": 0.8740157480314961
          },
          {
            "duration": 0.22604166666666003,
            "durationTicks": 217,
            "midi": 82,
            "name": "A#5",
            "ticks": 106320,
            "time": 110.75,
            "velocity": 0.8740157480314961
          },
          {
            "duration": 0.22604166666666003,
            "durationTicks": 217,
            "midi": 91,
            "name": "G6",
            "ticks": 106560,
            "time": 111,
            "velocity": 0.9921259842519685
          },
          {
            "duration": 0.22604166666666003,
            "durationTicks": 217,
            "midi": 91,
            "name": "G6",
            "ticks": 106560,
            "time": 111,
            "velocity": 0.9921259842519685
          },
          {
            "duration": 0.22604166666666003,
            "durationTicks": 217,
            "midi": 91,
            "name": "G6",
            "ticks": 106800,
            "time": 111.25,
            "velocity": 0.9133858267716536
          },
          {
            "duration": 0.22604166666666003,
            "durationTicks": 217,
            "midi": 91,
            "name": "G6",
            "ticks": 106800,
            "time": 111.25,
            "velocity": 0.9133858267716536
          },
          {
            "duration": 0.22604166666666003,
            "durationTicks": 217,
            "midi": 91,
            "name": "G6",
            "ticks": 107040,
            "time": 111.5,
            "velocity": 0.937007874015748
          },
          {
            "duration": 0.22604166666666003,
            "durationTicks": 217,
            "midi": 91,
            "name": "G6",
            "ticks": 107040,
            "time": 111.5,
            "velocity": 0.937007874015748
          },
          {
            "duration": 0.22604166666666003,
            "durationTicks": 217,
            "midi": 87,
            "name": "D#6",
            "ticks": 107280,
            "time": 111.75,
            "velocity": 0.7952755905511811
          },
          {
            "duration": 0.22604166666666003,
            "durationTicks": 217,
            "midi": 87,
            "name": "D#6",
            "ticks": 107280,
            "time": 111.75,
            "velocity": 0.7952755905511811
          },
          {
            "duration": 0.22604166666666003,
            "durationTicks": 217,
            "midi": 82,
            "name": "A#5",
            "ticks": 107520,
            "time": 112,
            "velocity": 0.7480314960629921
          },
          {
            "duration": 0.22604166666666003,
            "durationTicks": 217,
            "midi": 82,
            "name": "A#5",
            "ticks": 107520,
            "time": 112,
            "velocity": 0.7480314960629921
          },
          {
            "duration": 0.22604166666666003,
            "durationTicks": 217,
            "midi": 82,
            "name": "A#5",
            "ticks": 107760,
            "time": 112.25,
            "velocity": 0.8661417322834646
          },
          {
            "duration": 0.22604166666666003,
            "durationTicks": 217,
            "midi": 82,
            "name": "A#5",
            "ticks": 107760,
            "time": 112.25,
            "velocity": 0.8661417322834646
          },
          {
            "duration": 0.22604166666666003,
            "durationTicks": 217,
            "midi": 82,
            "name": "A#5",
            "ticks": 108000,
            "time": 112.5,
            "velocity": 0.889763779527559
          },
          {
            "duration": 0.22604166666666003,
            "durationTicks": 217,
            "midi": 82,
            "name": "A#5",
            "ticks": 108000,
            "time": 112.5,
            "velocity": 0.889763779527559
          },
          {
            "duration": 0.22604166666666003,
            "durationTicks": 217,
            "midi": 79,
            "name": "G5",
            "ticks": 108240,
            "time": 112.75,
            "velocity": 0.7874015748031497
          },
          {
            "duration": 0.22604166666666003,
            "durationTicks": 217,
            "midi": 79,
            "name": "G5",
            "ticks": 108240,
            "time": 112.75,
            "velocity": 0.7874015748031497
          },
          {
            "duration": 0.22604166666666003,
            "durationTicks": 217,
            "midi": 75,
            "name": "D#5",
            "ticks": 108480,
            "time": 113,
            "velocity": 0.7637795275590551
          },
          {
            "duration": 0.22604166666666003,
            "durationTicks": 217,
            "midi": 75,
            "name": "D#5",
            "ticks": 108480,
            "time": 113,
            "velocity": 0.7637795275590551
          },
          {
            "duration": 0.22604166666666003,
            "durationTicks": 217,
            "midi": 75,
            "name": "D#5",
            "ticks": 108720,
            "time": 113.25,
            "velocity": 0.8661417322834646
          },
          {
            "duration": 0.22604166666666003,
            "durationTicks": 217,
            "midi": 75,
            "name": "D#5",
            "ticks": 108720,
            "time": 113.25,
            "velocity": 0.8661417322834646
          },
          {
            "duration": 0.22604166666666003,
            "durationTicks": 217,
            "midi": 75,
            "name": "D#5",
            "ticks": 108960,
            "time": 113.5,
            "velocity": 0.8582677165354331
          },
          {
            "duration": 0.22604166666666003,
            "durationTicks": 217,
            "midi": 75,
            "name": "D#5",
            "ticks": 108960,
            "time": 113.5,
            "velocity": 0.8582677165354331
          },
          {
            "duration": 1.22604166666666,
            "durationTicks": 1177,
            "midi": 70,
            "name": "A#4",
            "ticks": 109200,
            "time": 113.75,
            "velocity": 0.7637795275590551
          },
          {
            "duration": 1.22604166666666,
            "durationTicks": 1177,
            "midi": 70,
            "name": "A#4",
            "ticks": 109200,
            "time": 113.75,
            "velocity": 0.7637795275590551
          },
          {
            "duration": 0.22604166666666003,
            "durationTicks": 217,
            "midi": 91,
            "name": "G6",
            "ticks": 110400,
            "time": 115,
            "velocity": 1
          },
          {
            "duration": 0.22604166666666003,
            "durationTicks": 217,
            "midi": 91,
            "name": "G6",
            "ticks": 110400,
            "time": 115,
            "velocity": 1
          },
          {
            "duration": 0.22604166666666003,
            "durationTicks": 217,
            "midi": 91,
            "name": "G6",
            "ticks": 110640,
            "time": 115.25,
            "velocity": 0.937007874015748
          },
          {
            "duration": 0.22604166666666003,
            "durationTicks": 217,
            "midi": 91,
            "name": "G6",
            "ticks": 110640,
            "time": 115.25,
            "velocity": 0.937007874015748
          },
          {
            "duration": 0.22604166666666003,
            "durationTicks": 217,
            "midi": 91,
            "name": "G6",
            "ticks": 110880,
            "time": 115.5,
            "velocity": 0.9133858267716536
          },
          {
            "duration": 0.22604166666666003,
            "durationTicks": 217,
            "midi": 91,
            "name": "G6",
            "ticks": 110880,
            "time": 115.5,
            "velocity": 0.9133858267716536
          },
          {
            "duration": 0.22604166666666003,
            "durationTicks": 217,
            "midi": 87,
            "name": "D#6",
            "ticks": 111120,
            "time": 115.75,
            "velocity": 0.8188976377952756
          },
          {
            "duration": 0.22604166666666003,
            "durationTicks": 217,
            "midi": 87,
            "name": "D#6",
            "ticks": 111120,
            "time": 115.75,
            "velocity": 0.8188976377952756
          },
          {
            "duration": 0.22604166666666003,
            "durationTicks": 217,
            "midi": 82,
            "name": "A#5",
            "ticks": 111360,
            "time": 116,
            "velocity": 0.7637795275590551
          },
          {
            "duration": 0.22604166666666003,
            "durationTicks": 217,
            "midi": 82,
            "name": "A#5",
            "ticks": 111360,
            "time": 116,
            "velocity": 0.7637795275590551
          },
          {
            "duration": 0.22604166666666003,
            "durationTicks": 217,
            "midi": 82,
            "name": "A#5",
            "ticks": 111600,
            "time": 116.25,
            "velocity": 0.8582677165354331
          },
          {
            "duration": 0.22604166666666003,
            "durationTicks": 217,
            "midi": 82,
            "name": "A#5",
            "ticks": 111600,
            "time": 116.25,
            "velocity": 0.8582677165354331
          },
          {
            "duration": 0.22604166666666003,
            "durationTicks": 217,
            "midi": 82,
            "name": "A#5",
            "ticks": 111840,
            "time": 116.5,
            "velocity": 0.905511811023622
          },
          {
            "duration": 0.22604166666666003,
            "durationTicks": 217,
            "midi": 82,
            "name": "A#5",
            "ticks": 111840,
            "time": 116.5,
            "velocity": 0.905511811023622
          },
          {
            "duration": 0.22604166666666003,
            "durationTicks": 217,
            "midi": 79,
            "name": "G5",
            "ticks": 112080,
            "time": 116.75,
            "velocity": 0.7952755905511811
          },
          {
            "duration": 0.22604166666666003,
            "durationTicks": 217,
            "midi": 79,
            "name": "G5",
            "ticks": 112080,
            "time": 116.75,
            "velocity": 0.7952755905511811
          },
          {
            "duration": 0.22604166666666003,
            "durationTicks": 217,
            "midi": 75,
            "name": "D#5",
            "ticks": 112320,
            "time": 117,
            "velocity": 0.7952755905511811
          },
          {
            "duration": 0.22604166666666003,
            "durationTicks": 217,
            "midi": 75,
            "name": "D#5",
            "ticks": 112320,
            "time": 117,
            "velocity": 0.7952755905511811
          },
          {
            "duration": 0.22604166666666003,
            "durationTicks": 217,
            "midi": 75,
            "name": "D#5",
            "ticks": 112560,
            "time": 117.25,
            "velocity": 0.8818897637795275
          },
          {
            "duration": 0.22604166666666003,
            "durationTicks": 217,
            "midi": 75,
            "name": "D#5",
            "ticks": 112560,
            "time": 117.25,
            "velocity": 0.8818897637795275
          },
          {
            "duration": 0.22604166666666003,
            "durationTicks": 217,
            "midi": 75,
            "name": "D#5",
            "ticks": 112800,
            "time": 117.5,
            "velocity": 0.8661417322834646
          },
          {
            "duration": 0.22604166666666003,
            "durationTicks": 217,
            "midi": 75,
            "name": "D#5",
            "ticks": 112800,
            "time": 117.5,
            "velocity": 0.8661417322834646
          },
          {
            "duration": 1.4510416666666686,
            "durationTicks": 1393,
            "midi": 70,
            "name": "A#4",
            "ticks": 113040,
            "time": 117.75,
            "velocity": 0.7559055118110236
          },
          {
            "duration": 1.4510416666666686,
            "durationTicks": 1393,
            "midi": 70,
            "name": "A#4",
            "ticks": 113040,
            "time": 117.75,
            "velocity": 0.7559055118110236
          },
          {
            "duration": 0.22604166666666003,
            "durationTicks": 217,
            "midi": 82,
            "name": "A#5",
            "ticks": 115200,
            "time": 120,
            "velocity": 0.8031496062992126
          },
          {
            "duration": 0.22604166666666003,
            "durationTicks": 217,
            "midi": 82,
            "name": "A#5",
            "ticks": 115200,
            "time": 120,
            "velocity": 0.8031496062992126
          },
          {
            "duration": 0.22604166666666003,
            "durationTicks": 217,
            "midi": 82,
            "name": "A#5",
            "ticks": 115440,
            "time": 120.25,
            "velocity": 0.84251968503937
          },
          {
            "duration": 0.22604166666666003,
            "durationTicks": 217,
            "midi": 82,
            "name": "A#5",
            "ticks": 115440,
            "time": 120.25,
            "velocity": 0.84251968503937
          },
          {
            "duration": 0.22604166666666003,
            "durationTicks": 217,
            "midi": 82,
            "name": "A#5",
            "ticks": 115680,
            "time": 120.5,
            "velocity": 0.8976377952755905
          },
          {
            "duration": 0.22604166666666003,
            "durationTicks": 217,
            "midi": 82,
            "name": "A#5",
            "ticks": 115680,
            "time": 120.5,
            "velocity": 0.8976377952755905
          },
          {
            "duration": 0.45104166666666856,
            "durationTicks": 433,
            "midi": 82,
            "name": "A#5",
            "ticks": 115920,
            "time": 120.75,
            "velocity": 0.8661417322834646
          },
          {
            "duration": 0.45104166666666856,
            "durationTicks": 433,
            "midi": 82,
            "name": "A#5",
            "ticks": 115920,
            "time": 120.75,
            "velocity": 0.8661417322834646
          },
          {
            "duration": 0.22604166666666003,
            "durationTicks": 217,
            "midi": 86,
            "name": "D6",
            "ticks": 117120,
            "time": 122,
            "velocity": 0.8110236220472441
          },
          {
            "duration": 0.22604166666666003,
            "durationTicks": 217,
            "midi": 77,
            "name": "F5",
            "ticks": 117120,
            "time": 122,
            "velocity": 0.8110236220472441
          },
          {
            "duration": 0.22604166666666003,
            "durationTicks": 217,
            "midi": 86,
            "name": "D6",
            "ticks": 117360,
            "time": 122.25,
            "velocity": 0.905511811023622
          },
          {
            "duration": 0.22604166666666003,
            "durationTicks": 217,
            "midi": 77,
            "name": "F5",
            "ticks": 117360,
            "time": 122.25,
            "velocity": 0.905511811023622
          },
          {
            "duration": 0.22604166666666003,
            "durationTicks": 217,
            "midi": 86,
            "name": "D6",
            "ticks": 117600,
            "time": 122.5,
            "velocity": 0.905511811023622
          },
          {
            "duration": 0.22604166666666003,
            "durationTicks": 217,
            "midi": 77,
            "name": "F5",
            "ticks": 117600,
            "time": 122.5,
            "velocity": 0.905511811023622
          },
          {
            "duration": 0.45104166666666856,
            "durationTicks": 433,
            "midi": 87,
            "name": "D#6",
            "ticks": 117840,
            "time": 122.75,
            "velocity": 0.9291338582677166
          },
          {
            "duration": 0.45104166666666856,
            "durationTicks": 433,
            "midi": 79,
            "name": "G5",
            "ticks": 117840,
            "time": 122.75,
            "velocity": 0.9291338582677166
          },
          {
            "duration": 0.22604166666667425,
            "durationTicks": 217,
            "midi": 91,
            "name": "G6",
            "ticks": 138240,
            "time": 144,
            "velocity": 0.4330708661417323
          },
          {
            "duration": 0.22604166666667425,
            "durationTicks": 217,
            "midi": 86,
            "name": "D6",
            "ticks": 138240,
            "time": 144,
            "velocity": 0.4330708661417323
          },
          {
            "duration": 0.22604166666667425,
            "durationTicks": 217,
            "midi": 91,
            "name": "G6",
            "ticks": 138480,
            "time": 144.25,
            "velocity": 0.5196850393700787
          },
          {
            "duration": 0.22604166666667425,
            "durationTicks": 217,
            "midi": 86,
            "name": "D6",
            "ticks": 138480,
            "time": 144.25,
            "velocity": 0.5196850393700787
          },
          {
            "duration": 0.22604166666667425,
            "durationTicks": 217,
            "midi": 89,
            "name": "F6",
            "ticks": 138720,
            "time": 144.5,
            "velocity": 0.5748031496062992
          },
          {
            "duration": 0.22604166666667425,
            "durationTicks": 217,
            "midi": 86,
            "name": "D6",
            "ticks": 138720,
            "time": 144.5,
            "velocity": 0.5748031496062992
          },
          {
            "duration": 0.45104166666666856,
            "durationTicks": 433,
            "midi": 87,
            "name": "D#6",
            "ticks": 138960,
            "time": 144.75,
            "velocity": 0.7322834645669292
          },
          {
            "duration": 0.45104166666666856,
            "durationTicks": 433,
            "midi": 84,
            "name": "C6",
            "ticks": 138960,
            "time": 144.75,
            "velocity": 0.7322834645669292
          },
          {
            "duration": 0.45104166666666856,
            "durationTicks": 433,
            "midi": 84,
            "name": "C6",
            "ticks": 139920,
            "time": 145.75,
            "velocity": 0.7165354330708661
          },
          {
            "duration": 0.45104166666666856,
            "durationTicks": 433,
            "midi": 91,
            "name": "G6",
            "ticks": 140880,
            "time": 146.75,
            "velocity": 0.7086614173228346
          },
          {
            "duration": 0.45104166666666856,
            "durationTicks": 433,
            "midi": 83,
            "name": "B5",
            "ticks": 140880,
            "time": 146.75,
            "velocity": 0.7086614173228346
          },
          {
            "duration": 0.22604166666667425,
            "durationTicks": 217,
            "midi": 80,
            "name": "G#5",
            "ticks": 142320,
            "time": 148.25,
            "velocity": 0.6929133858267716
          },
          {
            "duration": 0.22604166666667425,
            "durationTicks": 217,
            "midi": 80,
            "name": "G#5",
            "ticks": 142320,
            "time": 148.25,
            "velocity": 0.6929133858267716
          },
          {
            "duration": 0.22604166666667425,
            "durationTicks": 217,
            "midi": 80,
            "name": "G#5",
            "ticks": 142560,
            "time": 148.5,
            "velocity": 0.7716535433070866
          },
          {
            "duration": 0.22604166666667425,
            "durationTicks": 217,
            "midi": 80,
            "name": "G#5",
            "ticks": 142560,
            "time": 148.5,
            "velocity": 0.7716535433070866
          },
          {
            "duration": 0.22604166666667425,
            "durationTicks": 217,
            "midi": 80,
            "name": "G#5",
            "ticks": 142800,
            "time": 148.75,
            "velocity": 0.7559055118110236
          },
          {
            "duration": 0.22604166666667425,
            "durationTicks": 217,
            "midi": 80,
            "name": "G#5",
            "ticks": 142800,
            "time": 148.75,
            "velocity": 0.7559055118110236
          },
          {
            "duration": 2.5,
            "durationTicks": 2400,
            "midi": 77,
            "name": "F5",
            "ticks": 143040,
            "time": 149,
            "velocity": 0.7244094488188977
          },
          {
            "duration": 2.5,
            "durationTicks": 2400,
            "midi": 77,
            "name": "F5",
            "ticks": 143040,
            "time": 149,
            "velocity": 0.7244094488188977
          },
          {
            "duration": 0.45104166666666856,
            "durationTicks": 433,
            "midi": 84,
            "name": "C6",
            "ticks": 158880,
            "time": 165.5,
            "velocity": 1
          },
          {
            "duration": 0.45104166666666856,
            "durationTicks": 433,
            "midi": 84,
            "name": "C6",
            "ticks": 158880,
            "time": 165.5,
            "velocity": 1
          },
          {
            "duration": 0.45104166666666856,
            "durationTicks": 433,
            "midi": 84,
            "name": "C6",
            "ticks": 159840,
            "time": 166.5,
            "velocity": 0.7795275590551181
          },
          {
            "duration": 0.45104166666666856,
            "durationTicks": 433,
            "midi": 84,
            "name": "C6",
            "ticks": 159840,
            "time": 166.5,
            "velocity": 0.7795275590551181
          },
          {
            "duration": 0.45104166666666856,
            "durationTicks": 433,
            "midi": 84,
            "name": "C6",
            "ticks": 160800,
            "time": 167.5,
            "velocity": 0.8031496062992126
          },
          {
            "duration": 0.45104166666666856,
            "durationTicks": 433,
            "midi": 84,
            "name": "C6",
            "ticks": 160800,
            "time": 167.5,
            "velocity": 0.8031496062992126
          },
          {
            "duration": 0.45104166666666856,
            "durationTicks": 433,
            "midi": 84,
            "name": "C6",
            "ticks": 161760,
            "time": 168.5,
            "velocity": 0.7952755905511811
          },
          {
            "duration": 0.45104166666666856,
            "durationTicks": 433,
            "midi": 84,
            "name": "C6",
            "ticks": 161760,
            "time": 168.5,
            "velocity": 0.7952755905511811
          },
          {
            "duration": 0.45104166666666856,
            "durationTicks": 433,
            "midi": 86,
            "name": "D6",
            "ticks": 162720,
            "time": 169.5,
            "velocity": 0.8188976377952756
          },
          {
            "duration": 0.45104166666666856,
            "durationTicks": 433,
            "midi": 83,
            "name": "B5",
            "ticks": 162720,
            "time": 169.5,
            "velocity": 0.8188976377952756
          },
          {
            "duration": 3.9000000000000057,
            "durationTicks": 3744,
            "midi": 87,
            "name": "D#6",
            "ticks": 163680,
            "time": 170.5,
            "velocity": 0.7165354330708661
          },
          {
            "duration": 3.9000000000000057,
            "durationTicks": 3744,
            "midi": 84,
            "name": "C6",
            "ticks": 163680,
            "time": 170.5,
            "velocity": 0.7165354330708661
          },
          {
            "duration": 3.4510416666666686,
            "durationTicks": 3313,
            "midi": 89,
            "name": "F6",
            "ticks": 167520,
            "time": 174.5,
            "velocity": 0.8031496062992126
          },
          {
            "duration": 3.4510416666666686,
            "durationTicks": 3313,
            "midi": 86,
            "name": "D6",
            "ticks": 167520,
            "time": 174.5,
            "velocity": 0.8031496062992126
          },
          {
            "duration": 0.45104166666666856,
            "durationTicks": 433,
            "midi": 87,
            "name": "D#6",
            "ticks": 170880,
            "time": 178,
            "velocity": 0.6850393700787402
          },
          {
            "duration": 0.45104166666666856,
            "durationTicks": 433,
            "midi": 84,
            "name": "C6",
            "ticks": 170880,
            "time": 178,
            "velocity": 0.6850393700787402
          },
          {
            "duration": 3.9000000000000057,
            "durationTicks": 3744,
            "midi": 87,
            "name": "D#6",
            "ticks": 171360,
            "time": 178.5,
            "velocity": 0.8661417322834646
          },
          {
            "duration": 3.9000000000000057,
            "durationTicks": 3744,
            "midi": 84,
            "name": "C6",
            "ticks": 171360,
            "time": 178.5,
            "velocity": 0.8661417322834646
          },
          {
            "duration": 0.45104166666666856,
            "durationTicks": 433,
            "midi": 90,
            "name": "F#6",
            "ticks": 175200,
            "time": 182.5,
            "velocity": 0.9448818897637795
          },
          {
            "duration": 0.45104166666666856,
            "durationTicks": 433,
            "midi": 81,
            "name": "A5",
            "ticks": 175200,
            "time": 182.5,
            "velocity": 0.9448818897637795
          },
          {
            "duration": 0.45104166666666856,
            "durationTicks": 433,
            "midi": 82,
            "name": "A#5",
            "ticks": 177120,
            "time": 184.5,
            "velocity": 0.8110236220472441
          },
          {
            "duration": 0.45104166666666856,
            "durationTicks": 433,
            "midi": 82,
            "name": "A#5",
            "ticks": 177120,
            "time": 184.5,
            "velocity": 0.8110236220472441
          },
          {
            "duration": 0.5093750000000057,
            "durationTicks": 489,
            "midi": 82,
            "name": "A#5",
            "ticks": 189600,
            "time": 197.5,
            "velocity": 0.6377952755905512
          },
          {
            "duration": 0.5093750000000057,
            "durationTicks": 489,
            "midi": 82,
            "name": "A#5",
            "ticks": 189600,
            "time": 197.5,
            "velocity": 0.6377952755905512
          },
          {
            "duration": 0.5093750000000057,
            "durationTicks": 489,
            "midi": 87,
            "name": "D#6",
            "ticks": 190080,
            "time": 198,
            "velocity": 0.6929133858267716
          },
          {
            "duration": 0.5093750000000057,
            "durationTicks": 489,
            "midi": 87,
            "name": "D#6",
            "ticks": 190080,
            "time": 198,
            "velocity": 0.6929133858267716
          },
          {
            "duration": 0.5093750000000057,
            "durationTicks": 489,
            "midi": 86,
            "name": "D6",
            "ticks": 190560,
            "time": 198.5,
            "velocity": 0.6614173228346457
          },
          {
            "duration": 0.5093750000000057,
            "durationTicks": 489,
            "midi": 86,
            "name": "D6",
            "ticks": 190560,
            "time": 198.5,
            "velocity": 0.6614173228346457
          },
          {
            "duration": 0.5093750000000057,
            "durationTicks": 489,
            "midi": 87,
            "name": "D#6",
            "ticks": 191040,
            "time": 199,
            "velocity": 0.7007874015748031
          },
          {
            "duration": 0.5093750000000057,
            "durationTicks": 489,
            "midi": 87,
            "name": "D#6",
            "ticks": 191040,
            "time": 199,
            "velocity": 0.7007874015748031
          },
          {
            "duration": 0.5093750000000057,
            "durationTicks": 489,
            "midi": 89,
            "name": "F6",
            "ticks": 191520,
            "time": 199.5,
            "velocity": 0.7007874015748031
          },
          {
            "duration": 0.5093750000000057,
            "durationTicks": 489,
            "midi": 89,
            "name": "F6",
            "ticks": 191520,
            "time": 199.5,
            "velocity": 0.7007874015748031
          },
          {
            "duration": 0.4749999999999943,
            "durationTicks": 456,
            "midi": 84,
            "name": "C6",
            "ticks": 192000,
            "time": 200,
            "velocity": 0.5984251968503937
          },
          {
            "duration": 0.4749999999999943,
            "durationTicks": 456,
            "midi": 84,
            "name": "C6",
            "ticks": 192000,
            "time": 200,
            "velocity": 0.5984251968503937
          },
          {
            "duration": 0.5093750000000057,
            "durationTicks": 489,
            "midi": 84,
            "name": "C6",
            "ticks": 192480,
            "time": 200.5,
            "velocity": 0.6771653543307087
          },
          {
            "duration": 0.5093750000000057,
            "durationTicks": 489,
            "midi": 84,
            "name": "C6",
            "ticks": 192480,
            "time": 200.5,
            "velocity": 0.6771653543307087
          },
          {
            "duration": 0.4749999999999943,
            "durationTicks": 456,
            "midi": 82,
            "name": "A#5",
            "ticks": 192960,
            "time": 201,
            "velocity": 0.6456692913385826
          },
          {
            "duration": 0.4749999999999943,
            "durationTicks": 456,
            "midi": 82,
            "name": "A#5",
            "ticks": 192960,
            "time": 201,
            "velocity": 0.6456692913385826
          },
          {
            "duration": 0.5093750000000057,
            "durationTicks": 489,
            "midi": 87,
            "name": "D#6",
            "ticks": 208800,
            "time": 217.5,
            "velocity": 0.7401574803149606
          },
          {
            "duration": 0.5093750000000057,
            "durationTicks": 489,
            "midi": 87,
            "name": "D#6",
            "ticks": 208800,
            "time": 217.5,
            "velocity": 0.7401574803149606
          },
          {
            "duration": 0.5093750000000057,
            "durationTicks": 489,
            "midi": 89,
            "name": "F6",
            "ticks": 209280,
            "time": 218,
            "velocity": 0.7795275590551181
          },
          {
            "duration": 0.5093750000000057,
            "durationTicks": 489,
            "midi": 89,
            "name": "F6",
            "ticks": 209280,
            "time": 218,
            "velocity": 0.7795275590551181
          },
          {
            "duration": 0.5093750000000057,
            "durationTicks": 489,
            "midi": 90,
            "name": "F#6",
            "ticks": 209760,
            "time": 218.5,
            "velocity": 0.6929133858267716
          },
          {
            "duration": 0.5093750000000057,
            "durationTicks": 489,
            "midi": 90,
            "name": "F#6",
            "ticks": 209760,
            "time": 218.5,
            "velocity": 0.6929133858267716
          },
          {
            "duration": 0.5093750000000057,
            "durationTicks": 489,
            "midi": 89,
            "name": "F6",
            "ticks": 210240,
            "time": 219,
            "velocity": 0.6929133858267716
          },
          {
            "duration": 0.5093750000000057,
            "durationTicks": 489,
            "midi": 89,
            "name": "F6",
            "ticks": 210240,
            "time": 219,
            "velocity": 0.6929133858267716
          },
          {
            "duration": 0.5,
            "durationTicks": 480,
            "midi": 90,
            "name": "F#6",
            "ticks": 210720,
            "time": 219.5,
            "velocity": 0.7874015748031497
          },
          {
            "duration": 0.5,
            "durationTicks": 480,
            "midi": 90,
            "name": "F#6",
            "ticks": 210720,
            "time": 219.5,
            "velocity": 0.7874015748031497
          },
          {
            "duration": 0.4749999999999943,
            "durationTicks": 456,
            "midi": 90,
            "name": "F#6",
            "ticks": 211200,
            "time": 220,
            "velocity": 0.7559055118110236
          },
          {
            "duration": 0.4749999999999943,
            "durationTicks": 456,
            "midi": 90,
            "name": "F#6",
            "ticks": 211200,
            "time": 220,
            "velocity": 0.7559055118110236
          },
          {
            "duration": 1.4510416666666686,
            "durationTicks": 1393,
            "midi": 89,
            "name": "F6",
            "ticks": 211680,
            "time": 220.5,
            "velocity": 0.8503937007874016
          },
          {
            "duration": 1.4510416666666686,
            "durationTicks": 1393,
            "midi": 82,
            "name": "A#5",
            "ticks": 211680,
            "time": 220.5,
            "velocity": 0.8503937007874016
          },
          {
            "duration": 0.45104166666666856,
            "durationTicks": 433,
            "midi": 89,
            "name": "F6",
            "ticks": 213120,
            "time": 222,
            "velocity": 0.9212598425196851
          },
          {
            "duration": 0.45104166666666856,
            "durationTicks": 433,
            "midi": 82,
            "name": "A#5",
            "ticks": 213120,
            "time": 222,
            "velocity": 0.9212598425196851
          },
          {
            "duration": 0.45104166666666856,
            "durationTicks": 433,
            "midi": 91,
            "name": "G6",
            "ticks": 213600,
            "time": 222.5,
            "velocity": 0.9448818897637795
          },
          {
            "duration": 0.45104166666666856,
            "durationTicks": 433,
            "midi": 82,
            "name": "A#5",
            "ticks": 213600,
            "time": 222.5,
            "velocity": 0.9448818897637795
          },
          {
            "duration": 0.45104166666666856,
            "durationTicks": 433,
            "midi": 89,
            "name": "F6",
            "ticks": 214560,
            "time": 223.5,
            "velocity": 0.8188976377952756
          },
          {
            "duration": 0.45104166666666856,
            "durationTicks": 433,
            "midi": 82,
            "name": "A#5",
            "ticks": 214560,
            "time": 223.5,
            "velocity": 0.8188976377952756
          },
          {
            "duration": 0.45104166666666856,
            "durationTicks": 433,
            "midi": 87,
            "name": "D#6",
            "ticks": 215520,
            "time": 224.5,
            "velocity": 0.8031496062992126
          },
          {
            "duration": 0.45104166666666856,
            "durationTicks": 433,
            "midi": 82,
            "name": "A#5",
            "ticks": 215520,
            "time": 224.5,
            "velocity": 0.8031496062992126
          },
          {
            "duration": 0.45104166666666856,
            "durationTicks": 433,
            "midi": 87,
            "name": "D#6",
            "ticks": 216480,
            "time": 225.5,
            "velocity": 0.7874015748031497
          },
          {
            "duration": 0.45104166666666856,
            "durationTicks": 433,
            "midi": 84,
            "name": "C6",
            "ticks": 216480,
            "time": 225.5,
            "velocity": 0.7874015748031497
          },
          {
            "duration": 0.45104166666666856,
            "durationTicks": 433,
            "midi": 87,
            "name": "D#6",
            "ticks": 217440,
            "time": 226.5,
            "velocity": 0.7716535433070866
          },
          {
            "duration": 0.45104166666666856,
            "durationTicks": 433,
            "midi": 82,
            "name": "A#5",
            "ticks": 217440,
            "time": 226.5,
            "velocity": 0.7716535433070866
          },
          {
            "duration": 0.45104166666666856,
            "durationTicks": 433,
            "midi": 86,
            "name": "D6",
            "ticks": 218400,
            "time": 227.5,
            "velocity": 0.7559055118110236
          },
          {
            "duration": 0.45104166666666856,
            "durationTicks": 433,
            "midi": 82,
            "name": "A#5",
            "ticks": 218400,
            "time": 227.5,
            "velocity": 0.7559055118110236
          },
          {
            "duration": 1.9000000000000057,
            "durationTicks": 1824,
            "midi": 89,
            "name": "F6",
            "ticks": 219360,
            "time": 228.5,
            "velocity": 0.8267716535433071
          },
          {
            "duration": 1.9000000000000057,
            "durationTicks": 1824,
            "midi": 82,
            "name": "A#5",
            "ticks": 219360,
            "time": 228.5,
            "velocity": 0.8267716535433071
          },
          {
            "duration": 0.45104166666666856,
            "durationTicks": 433,
            "midi": 91,
            "name": "G6",
            "ticks": 221280,
            "time": 230.5,
            "velocity": 0.9212598425196851
          },
          {
            "duration": 0.45104166666666856,
            "durationTicks": 433,
            "midi": 82,
            "name": "A#5",
            "ticks": 221280,
            "time": 230.5,
            "velocity": 0.9212598425196851
          },
          {
            "duration": 0.45104166666666856,
            "durationTicks": 433,
            "midi": 91,
            "name": "G6",
            "ticks": 221760,
            "time": 231,
            "velocity": 0.9212598425196851
          },
          {
            "duration": 0.45104166666666856,
            "durationTicks": 433,
            "midi": 82,
            "name": "A#5",
            "ticks": 221760,
            "time": 231,
            "velocity": 0.9212598425196851
          },
          {
            "duration": 0.45104166666666856,
            "durationTicks": 433,
            "midi": 86,
            "name": "D6",
            "ticks": 222720,
            "time": 232,
            "velocity": 0.7874015748031497
          },
          {
            "duration": 0.45104166666666856,
            "durationTicks": 433,
            "midi": 82,
            "name": "A#5",
            "ticks": 222720,
            "time": 232,
            "velocity": 0.7874015748031497
          },
          {
            "duration": 0.45104166666666856,
            "durationTicks": 433,
            "midi": 87,
            "name": "D#6",
            "ticks": 223680,
            "time": 233,
            "velocity": 0.8031496062992126
          },
          {
            "duration": 0.45104166666666856,
            "durationTicks": 433,
            "midi": 82,
            "name": "A#5",
            "ticks": 223680,
            "time": 233,
            "velocity": 0.8031496062992126
          },
          {
            "duration": 0.45104166666666856,
            "durationTicks": 433,
            "midi": 87,
            "name": "D#6",
            "ticks": 224640,
            "time": 234,
            "velocity": 0.7952755905511811
          },
          {
            "duration": 0.45104166666666856,
            "durationTicks": 433,
            "midi": 80,
            "name": "G#5",
            "ticks": 224640,
            "time": 234,
            "velocity": 0.7952755905511811
          },
          {
            "duration": 0.45104166666666856,
            "durationTicks": 433,
            "midi": 87,
            "name": "D#6",
            "ticks": 225600,
            "time": 235,
            "velocity": 0.8110236220472441
          },
          {
            "duration": 0.45104166666666856,
            "durationTicks": 433,
            "midi": 82,
            "name": "A#5",
            "ticks": 225600,
            "time": 235,
            "velocity": 0.8110236220472441
          },
          {
            "duration": 0.45104166666666856,
            "durationTicks": 433,
            "midi": 86,
            "name": "D6",
            "ticks": 226560,
            "time": 236,
            "velocity": 0.8110236220472441
          },
          {
            "duration": 0.45104166666666856,
            "durationTicks": 433,
            "midi": 82,
            "name": "A#5",
            "ticks": 226560,
            "time": 236,
            "velocity": 0.8110236220472441
          },
          {
            "duration": 0.22604166666667425,
            "durationTicks": 217,
            "midi": 87,
            "name": "D#6",
            "ticks": 227040,
            "time": 236.5,
            "velocity": 0.9133858267716536
          },
          {
            "duration": 0.22604166666667425,
            "durationTicks": 217,
            "midi": 82,
            "name": "A#5",
            "ticks": 227040,
            "time": 236.5,
            "velocity": 0.9133858267716536
          },
          {
            "duration": 0.22604166666667425,
            "durationTicks": 217,
            "midi": 91,
            "name": "G6",
            "ticks": 227280,
            "time": 236.75,
            "velocity": 1
          },
          {
            "duration": 0.22604166666667425,
            "durationTicks": 217,
            "midi": 91,
            "name": "G6",
            "ticks": 227280,
            "time": 236.75,
            "velocity": 1
          },
          {
            "duration": 0.22604166666667425,
            "durationTicks": 217,
            "midi": 91,
            "name": "G6",
            "ticks": 227520,
            "time": 237,
            "velocity": 0.8818897637795275
          },
          {
            "duration": 0.22604166666667425,
            "durationTicks": 217,
            "midi": 91,
            "name": "G6",
            "ticks": 227520,
            "time": 237,
            "velocity": 0.8818897637795275
          },
          {
            "duration": 0.22604166666667425,
            "durationTicks": 217,
            "midi": 91,
            "name": "G6",
            "ticks": 227760,
            "time": 237.25,
            "velocity": 0.889763779527559
          },
          {
            "duration": 0.22604166666667425,
            "durationTicks": 217,
            "midi": 91,
            "name": "G6",
            "ticks": 227760,
            "time": 237.25,
            "velocity": 0.889763779527559
          },
          {
            "duration": 0.22604166666667425,
            "durationTicks": 217,
            "midi": 87,
            "name": "D#6",
            "ticks": 228000,
            "time": 237.5,
            "velocity": 0.7952755905511811
          },
          {
            "duration": 0.22604166666667425,
            "durationTicks": 217,
            "midi": 87,
            "name": "D#6",
            "ticks": 228000,
            "time": 237.5,
            "velocity": 0.7952755905511811
          },
          {
            "duration": 0.22604166666667425,
            "durationTicks": 217,
            "midi": 82,
            "name": "A#5",
            "ticks": 228240,
            "time": 237.75,
            "velocity": 0.7716535433070866
          },
          {
            "duration": 0.22604166666667425,
            "durationTicks": 217,
            "midi": 82,
            "name": "A#5",
            "ticks": 228240,
            "time": 237.75,
            "velocity": 0.7716535433070866
          },
          {
            "duration": 0.22604166666667425,
            "durationTicks": 217,
            "midi": 82,
            "name": "A#5",
            "ticks": 228480,
            "time": 238,
            "velocity": 0.8740157480314961
          },
          {
            "duration": 0.22604166666667425,
            "durationTicks": 217,
            "midi": 82,
            "name": "A#5",
            "ticks": 228480,
            "time": 238,
            "velocity": 0.8740157480314961
          },
          {
            "duration": 0.22604166666667425,
            "durationTicks": 217,
            "midi": 82,
            "name": "A#5",
            "ticks": 228720,
            "time": 238.25,
            "velocity": 0.889763779527559
          },
          {
            "duration": 0.22604166666667425,
            "durationTicks": 217,
            "midi": 82,
            "name": "A#5",
            "ticks": 228720,
            "time": 238.25,
            "velocity": 0.889763779527559
          },
          {
            "duration": 0.22604166666667425,
            "durationTicks": 217,
            "midi": 79,
            "name": "G5",
            "ticks": 228960,
            "time": 238.5,
            "velocity": 0.8031496062992126
          },
          {
            "duration": 0.22604166666667425,
            "durationTicks": 217,
            "midi": 79,
            "name": "G5",
            "ticks": 228960,
            "time": 238.5,
            "velocity": 0.8031496062992126
          },
          {
            "duration": 0.22604166666667425,
            "durationTicks": 217,
            "midi": 75,
            "name": "D#5",
            "ticks": 229200,
            "time": 238.75,
            "velocity": 0.7637795275590551
          },
          {
            "duration": 0.22604166666667425,
            "durationTicks": 217,
            "midi": 75,
            "name": "D#5",
            "ticks": 229200,
            "time": 238.75,
            "velocity": 0.7637795275590551
          },
          {
            "duration": 0.22604166666667425,
            "durationTicks": 217,
            "midi": 75,
            "name": "D#5",
            "ticks": 229440,
            "time": 239,
            "velocity": 0.8661417322834646
          },
          {
            "duration": 0.22604166666667425,
            "durationTicks": 217,
            "midi": 75,
            "name": "D#5",
            "ticks": 229440,
            "time": 239,
            "velocity": 0.8661417322834646
          },
          {
            "duration": 0.22604166666667425,
            "durationTicks": 217,
            "midi": 75,
            "name": "D#5",
            "ticks": 229680,
            "time": 239.25,
            "velocity": 0.8818897637795275
          },
          {
            "duration": 0.22604166666667425,
            "durationTicks": 217,
            "midi": 75,
            "name": "D#5",
            "ticks": 229680,
            "time": 239.25,
            "velocity": 0.8818897637795275
          },
          {
            "duration": 1.2260416666666742,
            "durationTicks": 1177,
            "midi": 70,
            "name": "A#4",
            "ticks": 229920,
            "time": 239.5,
            "velocity": 0.7637795275590551
          },
          {
            "duration": 1.2260416666666742,
            "durationTicks": 1177,
            "midi": 70,
            "name": "A#4",
            "ticks": 229920,
            "time": 239.5,
            "velocity": 0.7637795275590551
          },
          {
            "duration": 0.22604166666667425,
            "durationTicks": 217,
            "midi": 91,
            "name": "G6",
            "ticks": 231120,
            "time": 240.75,
            "velocity": 1
          },
          {
            "duration": 0.22604166666667425,
            "durationTicks": 217,
            "midi": 91,
            "name": "G6",
            "ticks": 231120,
            "time": 240.75,
            "velocity": 1
          },
          {
            "duration": 0.22604166666667425,
            "durationTicks": 217,
            "midi": 91,
            "name": "G6",
            "ticks": 231360,
            "time": 241,
            "velocity": 0.905511811023622
          },
          {
            "duration": 0.22604166666667425,
            "durationTicks": 217,
            "midi": 91,
            "name": "G6",
            "ticks": 231360,
            "time": 241,
            "velocity": 0.905511811023622
          },
          {
            "duration": 0.22604166666667425,
            "durationTicks": 217,
            "midi": 91,
            "name": "G6",
            "ticks": 231600,
            "time": 241.25,
            "velocity": 0.8740157480314961
          },
          {
            "duration": 0.22604166666667425,
            "durationTicks": 217,
            "midi": 91,
            "name": "G6",
            "ticks": 231600,
            "time": 241.25,
            "velocity": 0.8740157480314961
          },
          {
            "duration": 0.22604166666667425,
            "durationTicks": 217,
            "midi": 87,
            "name": "D#6",
            "ticks": 231840,
            "time": 241.5,
            "velocity": 0.8110236220472441
          },
          {
            "duration": 0.22604166666667425,
            "durationTicks": 217,
            "midi": 87,
            "name": "D#6",
            "ticks": 231840,
            "time": 241.5,
            "velocity": 0.8110236220472441
          },
          {
            "duration": 0.22604166666667425,
            "durationTicks": 217,
            "midi": 82,
            "name": "A#5",
            "ticks": 232080,
            "time": 241.75,
            "velocity": 0.7480314960629921
          },
          {
            "duration": 0.22604166666667425,
            "durationTicks": 217,
            "midi": 82,
            "name": "A#5",
            "ticks": 232080,
            "time": 241.75,
            "velocity": 0.7480314960629921
          },
          {
            "duration": 0.22604166666667425,
            "durationTicks": 217,
            "midi": 82,
            "name": "A#5",
            "ticks": 232320,
            "time": 242,
            "velocity": 0.889763779527559
          },
          {
            "duration": 0.22604166666667425,
            "durationTicks": 217,
            "midi": 82,
            "name": "A#5",
            "ticks": 232320,
            "time": 242,
            "velocity": 0.889763779527559
          },
          {
            "duration": 0.22604166666667425,
            "durationTicks": 217,
            "midi": 82,
            "name": "A#5",
            "ticks": 232560,
            "time": 242.25,
            "velocity": 0.8740157480314961
          },
          {
            "duration": 0.22604166666667425,
            "durationTicks": 217,
            "midi": 82,
            "name": "A#5",
            "ticks": 232560,
            "time": 242.25,
            "velocity": 0.8740157480314961
          },
          {
            "duration": 0.22604166666667425,
            "durationTicks": 217,
            "midi": 79,
            "name": "G5",
            "ticks": 232800,
            "time": 242.5,
            "velocity": 0.7952755905511811
          },
          {
            "duration": 0.22604166666667425,
            "durationTicks": 217,
            "midi": 79,
            "name": "G5",
            "ticks": 232800,
            "time": 242.5,
            "velocity": 0.7952755905511811
          },
          {
            "duration": 0.22604166666667425,
            "durationTicks": 217,
            "midi": 75,
            "name": "D#5",
            "ticks": 233040,
            "time": 242.75,
            "velocity": 0.8031496062992126
          },
          {
            "duration": 0.22604166666667425,
            "durationTicks": 217,
            "midi": 75,
            "name": "D#5",
            "ticks": 233040,
            "time": 242.75,
            "velocity": 0.8031496062992126
          },
          {
            "duration": 0.22604166666667425,
            "durationTicks": 217,
            "midi": 75,
            "name": "D#5",
            "ticks": 233280,
            "time": 243,
            "velocity": 0.8818897637795275
          },
          {
            "duration": 0.22604166666667425,
            "durationTicks": 217,
            "midi": 75,
            "name": "D#5",
            "ticks": 233280,
            "time": 243,
            "velocity": 0.8818897637795275
          },
          {
            "duration": 0.22604166666667425,
            "durationTicks": 217,
            "midi": 75,
            "name": "D#5",
            "ticks": 233520,
            "time": 243.25,
            "velocity": 0.8976377952755905
          },
          {
            "duration": 0.22604166666667425,
            "durationTicks": 217,
            "midi": 75,
            "name": "D#5",
            "ticks": 233520,
            "time": 243.25,
            "velocity": 0.8976377952755905
          },
          {
            "duration": 1.4510416666666686,
            "durationTicks": 1393,
            "midi": 70,
            "name": "A#4",
            "ticks": 233760,
            "time": 243.5,
            "velocity": 0.7795275590551181
          },
          {
            "duration": 1.4510416666666686,
            "durationTicks": 1393,
            "midi": 70,
            "name": "A#4",
            "ticks": 233760,
            "time": 243.5,
            "velocity": 0.7795275590551181
          },
          {
            "duration": 0.22604166666667425,
            "durationTicks": 217,
            "midi": 82,
            "name": "A#5",
            "ticks": 235920,
            "time": 245.75,
            "velocity": 0.8031496062992126
          },
          {
            "duration": 0.22604166666667425,
            "durationTicks": 217,
            "midi": 82,
            "name": "A#5",
            "ticks": 235920,
            "time": 245.75,
            "velocity": 0.8031496062992126
          },
          {
            "duration": 0.22604166666667425,
            "durationTicks": 217,
            "midi": 82,
            "name": "A#5",
            "ticks": 236160,
            "time": 246,
            "velocity": 0.889763779527559
          },
          {
            "duration": 0.22604166666667425,
            "durationTicks": 217,
            "midi": 82,
            "name": "A#5",
            "ticks": 236160,
            "time": 246,
            "velocity": 0.889763779527559
          },
          {
            "duration": 0.22604166666667425,
            "durationTicks": 217,
            "midi": 82,
            "name": "A#5",
            "ticks": 236400,
            "time": 246.25,
            "velocity": 0.84251968503937
          },
          {
            "duration": 0.22604166666667425,
            "durationTicks": 217,
            "midi": 82,
            "name": "A#5",
            "ticks": 236400,
            "time": 246.25,
            "velocity": 0.84251968503937
          },
          {
            "duration": 0.45104166666666856,
            "durationTicks": 433,
            "midi": 82,
            "name": "A#5",
            "ticks": 236640,
            "time": 246.5,
            "velocity": 0.8661417322834646
          },
          {
            "duration": 0.45104166666666856,
            "durationTicks": 433,
            "midi": 82,
            "name": "A#5",
            "ticks": 236640,
            "time": 246.5,
            "velocity": 0.8661417322834646
          },
          {
            "duration": 0.22604166666667425,
            "durationTicks": 217,
            "midi": 86,
            "name": "D6",
            "ticks": 237840,
            "time": 247.75,
            "velocity": 0.7874015748031497
          },
          {
            "duration": 0.22604166666667425,
            "durationTicks": 217,
            "midi": 77,
            "name": "F5",
            "ticks": 237840,
            "time": 247.75,
            "velocity": 0.7874015748031497
          },
          {
            "duration": 0.22604166666667425,
            "durationTicks": 217,
            "midi": 86,
            "name": "D6",
            "ticks": 238080,
            "time": 248,
            "velocity": 0.8740157480314961
          },
          {
            "duration": 0.22604166666667425,
            "durationTicks": 217,
            "midi": 77,
            "name": "F5",
            "ticks": 238080,
            "time": 248,
            "velocity": 0.8740157480314961
          },
          {
            "duration": 0.22604166666667425,
            "durationTicks": 217,
            "midi": 86,
            "name": "D6",
            "ticks": 238320,
            "time": 248.25,
            "velocity": 0.9212598425196851
          },
          {
            "duration": 0.22604166666667425,
            "durationTicks": 217,
            "midi": 77,
            "name": "F5",
            "ticks": 238320,
            "time": 248.25,
            "velocity": 0.9212598425196851
          },
          {
            "duration": 0.45104166666666856,
            "durationTicks": 433,
            "midi": 87,
            "name": "D#6",
            "ticks": 238560,
            "time": 248.5,
            "velocity": 0.937007874015748
          },
          {
            "duration": 0.45104166666666856,
            "durationTicks": 433,
            "midi": 79,
            "name": "G5",
            "ticks": 238560,
            "time": 248.5,
            "velocity": 0.937007874015748
          },
          {
            "duration": 0.22604166666667425,
            "durationTicks": 217,
            "midi": 86,
            "name": "D6",
            "ticks": 269040,
            "time": 280.25,
            "velocity": 0.3937007874015748
          },
          {
            "duration": 0.22604166666667425,
            "durationTicks": 217,
            "midi": 86,
            "name": "D6",
            "ticks": 269040,
            "time": 280.25,
            "velocity": 0.3937007874015748
          },
          {
            "duration": 0.22604166666667425,
            "durationTicks": 217,
            "midi": 86,
            "name": "D6",
            "ticks": 269280,
            "time": 280.5,
            "velocity": 0.4881889763779528
          },
          {
            "duration": 0.22604166666667425,
            "durationTicks": 217,
            "midi": 86,
            "name": "D6",
            "ticks": 269280,
            "time": 280.5,
            "velocity": 0.4881889763779528
          },
          {
            "duration": 0.22604166666667425,
            "durationTicks": 217,
            "midi": 84,
            "name": "C6",
            "ticks": 269520,
            "time": 280.75,
            "velocity": 0.4645669291338583
          },
          {
            "duration": 0.22604166666667425,
            "durationTicks": 217,
            "midi": 84,
            "name": "C6",
            "ticks": 269520,
            "time": 280.75,
            "velocity": 0.4645669291338583
          },
          {
            "duration": 0.8999999999999773,
            "durationTicks": 864,
            "midi": 82,
            "name": "A#5",
            "ticks": 269760,
            "time": 281,
            "velocity": 0.44881889763779526
          },
          {
            "duration": 0.8999999999999773,
            "durationTicks": 864,
            "midi": 82,
            "name": "A#5",
            "ticks": 269760,
            "time": 281,
            "velocity": 0.44881889763779526
          },
          {
            "duration": 0.22604166666667425,
            "durationTicks": 217,
            "midi": 81,
            "name": "A5",
            "ticks": 270720,
            "time": 282,
            "velocity": 0.4645669291338583
          },
          {
            "duration": 0.22604166666667425,
            "durationTicks": 217,
            "midi": 81,
            "name": "A5",
            "ticks": 270720,
            "time": 282,
            "velocity": 0.4645669291338583
          },
          {
            "duration": 0.22604166666667425,
            "durationTicks": 217,
            "midi": 86,
            "name": "D6",
            "ticks": 270960,
            "time": 282.25,
            "velocity": 0.5433070866141733
          },
          {
            "duration": 0.22604166666667425,
            "durationTicks": 217,
            "midi": 86,
            "name": "D6",
            "ticks": 270960,
            "time": 282.25,
            "velocity": 0.5433070866141733
          },
          {
            "duration": 0.22604166666667425,
            "durationTicks": 217,
            "midi": 86,
            "name": "D6",
            "ticks": 271200,
            "time": 282.5,
            "velocity": 0.4645669291338583
          },
          {
            "duration": 0.22604166666667425,
            "durationTicks": 217,
            "midi": 86,
            "name": "D6",
            "ticks": 271200,
            "time": 282.5,
            "velocity": 0.4645669291338583
          },
          {
            "duration": 0.22604166666667425,
            "durationTicks": 217,
            "midi": 84,
            "name": "C6",
            "ticks": 271440,
            "time": 282.75,
            "velocity": 0.41732283464566927
          },
          {
            "duration": 0.22604166666667425,
            "durationTicks": 217,
            "midi": 84,
            "name": "C6",
            "ticks": 271440,
            "time": 282.75,
            "velocity": 0.41732283464566927
          },
          {
            "duration": 0.8999999999999773,
            "durationTicks": 864,
            "midi": 82,
            "name": "A#5",
            "ticks": 271680,
            "time": 283,
            "velocity": 0.48031496062992124
          },
          {
            "duration": 0.8999999999999773,
            "durationTicks": 864,
            "midi": 82,
            "name": "A#5",
            "ticks": 271680,
            "time": 283,
            "velocity": 0.48031496062992124
          },
          {
            "duration": 0.8999999999999773,
            "durationTicks": 864,
            "midi": 81,
            "name": "A5",
            "ticks": 272640,
            "time": 284,
            "velocity": 0.4330708661417323
          },
          {
            "duration": 0.8999999999999773,
            "durationTicks": 864,
            "midi": 81,
            "name": "A5",
            "ticks": 272640,
            "time": 284,
            "velocity": 0.4330708661417323
          },
          {
            "duration": 1.2260416666666742,
            "durationTicks": 1177,
            "midi": 82,
            "name": "A#5",
            "ticks": 273600,
            "time": 285,
            "velocity": 0.48031496062992124
          },
          {
            "duration": 1.2260416666666742,
            "durationTicks": 1177,
            "midi": 82,
            "name": "A#5",
            "ticks": 273600,
            "time": 285,
            "velocity": 0.48031496062992124
          },
          {
            "duration": 0.22604166666667425,
            "durationTicks": 217,
            "midi": 79,
            "name": "G5",
            "ticks": 274800,
            "time": 286.25,
            "velocity": 0.4645669291338583
          },
          {
            "duration": 0.22604166666667425,
            "durationTicks": 217,
            "midi": 79,
            "name": "G5",
            "ticks": 274800,
            "time": 286.25,
            "velocity": 0.4645669291338583
          },
          {
            "duration": 0.22604166666667425,
            "durationTicks": 217,
            "midi": 81,
            "name": "A5",
            "ticks": 275040,
            "time": 286.5,
            "velocity": 0.49606299212598426
          },
          {
            "duration": 0.22604166666667425,
            "durationTicks": 217,
            "midi": 81,
            "name": "A5",
            "ticks": 275040,
            "time": 286.5,
            "velocity": 0.49606299212598426
          },
          {
            "duration": 0.22604166666667425,
            "durationTicks": 217,
            "midi": 82,
            "name": "A#5",
            "ticks": 275280,
            "time": 286.75,
            "velocity": 0.49606299212598426
          },
          {
            "duration": 0.22604166666667425,
            "durationTicks": 217,
            "midi": 82,
            "name": "A#5",
            "ticks": 275280,
            "time": 286.75,
            "velocity": 0.49606299212598426
          },
          {
            "duration": 0.45104166666664014,
            "durationTicks": 433,
            "midi": 84,
            "name": "C6",
            "ticks": 275520,
            "time": 287,
            "velocity": 0.5275590551181102
          },
          {
            "duration": 0.45104166666664014,
            "durationTicks": 433,
            "midi": 84,
            "name": "C6",
            "ticks": 275520,
            "time": 287,
            "velocity": 0.5275590551181102
          },
          {
            "duration": 0.22604166666667425,
            "durationTicks": 217,
            "midi": 78,
            "name": "F#5",
            "ticks": 276720,
            "time": 288.25,
            "velocity": 0.4251968503937008
          },
          {
            "duration": 0.22604166666667425,
            "durationTicks": 217,
            "midi": 78,
            "name": "F#5",
            "ticks": 276720,
            "time": 288.25,
            "velocity": 0.4251968503937008
          },
          {
            "duration": 0.22604166666667425,
            "durationTicks": 217,
            "midi": 81,
            "name": "A5",
            "ticks": 276960,
            "time": 288.5,
            "velocity": 0.5275590551181102
          },
          {
            "duration": 0.22604166666667425,
            "durationTicks": 217,
            "midi": 81,
            "name": "A5",
            "ticks": 276960,
            "time": 288.5,
            "velocity": 0.5275590551181102
          },
          {
            "duration": 0.22604166666667425,
            "durationTicks": 217,
            "midi": 82,
            "name": "A#5",
            "ticks": 277200,
            "time": 288.75,
            "velocity": 0.48031496062992124
          },
          {
            "duration": 0.22604166666667425,
            "durationTicks": 217,
            "midi": 82,
            "name": "A#5",
            "ticks": 277200,
            "time": 288.75,
            "velocity": 0.48031496062992124
          },
          {
            "duration": 0.45104166666664014,
            "durationTicks": 433,
            "midi": 84,
            "name": "C6",
            "ticks": 277440,
            "time": 289,
            "velocity": 0.48031496062992124
          },
          {
            "duration": 0.45104166666664014,
            "durationTicks": 433,
            "midi": 84,
            "name": "C6",
            "ticks": 277440,
            "time": 289,
            "velocity": 0.48031496062992124
          },
          {
            "duration": 0.22604166666667425,
            "durationTicks": 217,
            "midi": 81,
            "name": "A5",
            "ticks": 278640,
            "time": 290.25,
            "velocity": 0.4251968503937008
          },
          {
            "duration": 0.22604166666667425,
            "durationTicks": 217,
            "midi": 81,
            "name": "A5",
            "ticks": 278640,
            "time": 290.25,
            "velocity": 0.4251968503937008
          },
          {
            "duration": 0.22604166666667425,
            "durationTicks": 217,
            "midi": 82,
            "name": "A#5",
            "ticks": 278880,
            "time": 290.5,
            "velocity": 0.5275590551181102
          },
          {
            "duration": 0.22604166666667425,
            "durationTicks": 217,
            "midi": 82,
            "name": "A#5",
            "ticks": 278880,
            "time": 290.5,
            "velocity": 0.5275590551181102
          },
          {
            "duration": 0.22604166666667425,
            "durationTicks": 217,
            "midi": 84,
            "name": "C6",
            "ticks": 279120,
            "time": 290.75,
            "velocity": 0.5039370078740157
          },
          {
            "duration": 0.22604166666667425,
            "durationTicks": 217,
            "midi": 84,
            "name": "C6",
            "ticks": 279120,
            "time": 290.75,
            "velocity": 0.5039370078740157
          },
          {
            "duration": 0.45104166666664014,
            "durationTicks": 433,
            "midi": 86,
            "name": "D6",
            "ticks": 279360,
            "time": 291,
            "velocity": 0.5039370078740157
          },
          {
            "duration": 0.45104166666664014,
            "durationTicks": 433,
            "midi": 86,
            "name": "D6",
            "ticks": 279360,
            "time": 291,
            "velocity": 0.5039370078740157
          },
          {
            "duration": 0.22604166666667425,
            "durationTicks": 217,
            "midi": 79,
            "name": "G5",
            "ticks": 280560,
            "time": 292.25,
            "velocity": 0.4566929133858268
          },
          {
            "duration": 0.22604166666667425,
            "durationTicks": 217,
            "midi": 79,
            "name": "G5",
            "ticks": 280560,
            "time": 292.25,
            "velocity": 0.4566929133858268
          },
          {
            "duration": 0.22604166666667425,
            "durationTicks": 217,
            "midi": 82,
            "name": "A#5",
            "ticks": 280800,
            "time": 292.5,
            "velocity": 0.5275590551181102
          },
          {
            "duration": 0.22604166666667425,
            "durationTicks": 217,
            "midi": 82,
            "name": "A#5",
            "ticks": 280800,
            "time": 292.5,
            "velocity": 0.5275590551181102
          },
          {
            "duration": 0.22604166666667425,
            "durationTicks": 217,
            "midi": 84,
            "name": "C6",
            "ticks": 281040,
            "time": 292.75,
            "velocity": 0.5354330708661418
          },
          {
            "duration": 0.22604166666667425,
            "durationTicks": 217,
            "midi": 84,
            "name": "C6",
            "ticks": 281040,
            "time": 292.75,
            "velocity": 0.5354330708661418
          },
          {
            "duration": 0.45104166666664014,
            "durationTicks": 433,
            "midi": 86,
            "name": "D6",
            "ticks": 281280,
            "time": 293,
            "velocity": 0.49606299212598426
          },
          {
            "duration": 0.45104166666664014,
            "durationTicks": 433,
            "midi": 86,
            "name": "D6",
            "ticks": 281280,
            "time": 293,
            "velocity": 0.49606299212598426
          },
          {
            "duration": 0.22604166666667425,
            "durationTicks": 217,
            "midi": 82,
            "name": "A#5",
            "ticks": 282480,
            "time": 294.25,
            "velocity": 0.5118110236220472
          },
          {
            "duration": 0.22604166666667425,
            "durationTicks": 217,
            "midi": 82,
            "name": "A#5",
            "ticks": 282480,
            "time": 294.25,
            "velocity": 0.5118110236220472
          },
          {
            "duration": 0.22604166666667425,
            "durationTicks": 217,
            "midi": 84,
            "name": "C6",
            "ticks": 282720,
            "time": 294.5,
            "velocity": 0.6141732283464567
          },
          {
            "duration": 0.22604166666667425,
            "durationTicks": 217,
            "midi": 84,
            "name": "C6",
            "ticks": 282720,
            "time": 294.5,
            "velocity": 0.6141732283464567
          },
          {
            "duration": 0.22604166666667425,
            "durationTicks": 217,
            "midi": 86,
            "name": "D6",
            "ticks": 282960,
            "time": 294.75,
            "velocity": 0.6771653543307087
          },
          {
            "duration": 0.22604166666667425,
            "durationTicks": 217,
            "midi": 86,
            "name": "D6",
            "ticks": 282960,
            "time": 294.75,
            "velocity": 0.6771653543307087
          },
          {
            "duration": 1.8999999999999773,
            "durationTicks": 1824,
            "midi": 87,
            "name": "D#6",
            "ticks": 283200,
            "time": 295,
            "velocity": 0.8188976377952756
          },
          {
            "duration": 1.8999999999999773,
            "durationTicks": 1824,
            "midi": 81,
            "name": "A5",
            "ticks": 283200,
            "time": 295,
            "velocity": 0.8188976377952756
          },
          {
            "duration": 0.45104166666664014,
            "durationTicks": 433,
            "midi": 87,
            "name": "D#6",
            "ticks": 285120,
            "time": 297,
            "velocity": 0.7559055118110236
          },
          {
            "duration": 0.45104166666664014,
            "durationTicks": 433,
            "midi": 81,
            "name": "A5",
            "ticks": 285120,
            "time": 297,
            "velocity": 0.7559055118110236
          },
          {
            "duration": 0.22604166666667425,
            "durationTicks": 217,
            "midi": 88,
            "name": "E6",
            "ticks": 286320,
            "time": 298.25,
            "velocity": 0.6771653543307087
          },
          {
            "duration": 0.22604166666667425,
            "durationTicks": 217,
            "midi": 79,
            "name": "G5",
            "ticks": 286320,
            "time": 298.25,
            "velocity": 0.6771653543307087
          },
          {
            "duration": 0.22604166666667425,
            "durationTicks": 217,
            "midi": 88,
            "name": "E6",
            "ticks": 286560,
            "time": 298.5,
            "velocity": 0.7401574803149606
          },
          {
            "duration": 0.22604166666667425,
            "durationTicks": 217,
            "midi": 79,
            "name": "G5",
            "ticks": 286560,
            "time": 298.5,
            "velocity": 0.7401574803149606
          },
          {
            "duration": 0.22604166666667425,
            "durationTicks": 217,
            "midi": 88,
            "name": "E6",
            "ticks": 286800,
            "time": 298.75,
            "velocity": 0.7480314960629921
          },
          {
            "duration": 0.22604166666667425,
            "durationTicks": 217,
            "midi": 79,
            "name": "G5",
            "ticks": 286800,
            "time": 298.75,
            "velocity": 0.7480314960629921
          },
          {
            "duration": 1.8999999999999773,
            "durationTicks": 1824,
            "midi": 88,
            "name": "E6",
            "ticks": 287040,
            "time": 299,
            "velocity": 0.8110236220472441
          },
          {
            "duration": 1.8999999999999773,
            "durationTicks": 1824,
            "midi": 79,
            "name": "G5",
            "ticks": 287040,
            "time": 299,
            "velocity": 0.8110236220472441
          },
          {
            "duration": 0.45104166666664014,
            "durationTicks": 433,
            "midi": 88,
            "name": "E6",
            "ticks": 288960,
            "time": 301,
            "velocity": 0.7874015748031497
          },
          {
            "duration": 0.45104166666664014,
            "durationTicks": 433,
            "midi": 79,
            "name": "G5",
            "ticks": 288960,
            "time": 301,
            "velocity": 0.7874015748031497
          },
          {
            "duration": 0.22604166666667425,
            "durationTicks": 217,
            "midi": 86,
            "name": "D6",
            "ticks": 290160,
            "time": 302.25,
            "velocity": 0.7322834645669292
          },
          {
            "duration": 0.22604166666667425,
            "durationTicks": 217,
            "midi": 82,
            "name": "A#5",
            "ticks": 290160,
            "time": 302.25,
            "velocity": 0.7322834645669292
          },
          {
            "duration": 0.22604166666667425,
            "durationTicks": 217,
            "midi": 86,
            "name": "D6",
            "ticks": 290400,
            "time": 302.5,
            "velocity": 0.8346456692913385
          },
          {
            "duration": 0.22604166666667425,
            "durationTicks": 217,
            "midi": 82,
            "name": "A#5",
            "ticks": 290400,
            "time": 302.5,
            "velocity": 0.8346456692913385
          },
          {
            "duration": 0.22604166666667425,
            "durationTicks": 217,
            "midi": 86,
            "name": "D6",
            "ticks": 290640,
            "time": 302.75,
            "velocity": 0.7952755905511811
          },
          {
            "duration": 0.22604166666667425,
            "durationTicks": 217,
            "midi": 82,
            "name": "A#5",
            "ticks": 290640,
            "time": 302.75,
            "velocity": 0.7952755905511811
          },
          {
            "duration": 0.45104166666664014,
            "durationTicks": 433,
            "midi": 86,
            "name": "D6",
            "ticks": 290880,
            "time": 303,
            "velocity": 0.8188976377952756
          },
          {
            "duration": 0.45104166666664014,
            "durationTicks": 433,
            "midi": 82,
            "name": "A#5",
            "ticks": 290880,
            "time": 303,
            "velocity": 0.8188976377952756
          },
          {
            "duration": 0.22604166666667425,
            "durationTicks": 217,
            "midi": 85,
            "name": "C#6",
            "ticks": 292320,
            "time": 304.5,
            "velocity": 0.7401574803149606
          },
          {
            "duration": 0.22604166666667425,
            "durationTicks": 217,
            "midi": 73,
            "name": "C#5",
            "ticks": 292320,
            "time": 304.5,
            "velocity": 0.7401574803149606
          },
          {
            "duration": 0.22604166666667425,
            "durationTicks": 217,
            "midi": 85,
            "name": "C#6",
            "ticks": 292560,
            "time": 304.75,
            "velocity": 0.8110236220472441
          },
          {
            "duration": 0.22604166666667425,
            "durationTicks": 217,
            "midi": 73,
            "name": "C#5",
            "ticks": 292560,
            "time": 304.75,
            "velocity": 0.8110236220472441
          },
          {
            "duration": 0.45104166666664014,
            "durationTicks": 433,
            "midi": 85,
            "name": "C#6",
            "ticks": 292800,
            "time": 305,
            "velocity": 0.8188976377952756
          },
          {
            "duration": 0.45104166666664014,
            "durationTicks": 433,
            "midi": 73,
            "name": "C#5",
            "ticks": 292800,
            "time": 305,
            "velocity": 0.8188976377952756
          },
          {
            "duration": 0.22604166666667425,
            "durationTicks": 217,
            "midi": 86,
            "name": "D6",
            "ticks": 293280,
            "time": 305.5,
            "velocity": 0.8503937007874016
          },
          {
            "duration": 0.22604166666667425,
            "durationTicks": 217,
            "midi": 74,
            "name": "D5",
            "ticks": 293280,
            "time": 305.5,
            "velocity": 0.8503937007874016
          },
          {
            "duration": 0.22604166666667425,
            "durationTicks": 217,
            "midi": 86,
            "name": "D6",
            "ticks": 293520,
            "time": 305.75,
            "velocity": 0.8267716535433071
          },
          {
            "duration": 0.22604166666667425,
            "durationTicks": 217,
            "midi": 74,
            "name": "D5",
            "ticks": 293520,
            "time": 305.75,
            "velocity": 0.8267716535433071
          },
          {
            "duration": 0.45104166666664014,
            "durationTicks": 433,
            "midi": 86,
            "name": "D6",
            "ticks": 293760,
            "time": 306,
            "velocity": 0.8031496062992126
          },
          {
            "duration": 0.45104166666664014,
            "durationTicks": 433,
            "midi": 74,
            "name": "D5",
            "ticks": 293760,
            "time": 306,
            "velocity": 0.8031496062992126
          },
          {
            "duration": 0.22604166666667425,
            "durationTicks": 217,
            "midi": 86,
            "name": "D6",
            "ticks": 300960,
            "time": 313.5,
            "velocity": 0.7874015748031497
          },
          {
            "duration": 0.22604166666667425,
            "durationTicks": 217,
            "midi": 86,
            "name": "D6",
            "ticks": 301200,
            "time": 313.75,
            "velocity": 0.8740157480314961
          },
          {
            "duration": 0.45104166666664014,
            "durationTicks": 433,
            "midi": 91,
            "name": "G6",
            "ticks": 301440,
            "time": 314,
            "velocity": 1
          },
          {
            "duration": 0.45104166666664014,
            "durationTicks": 433,
            "midi": 86,
            "name": "D6",
            "ticks": 301440,
            "time": 314,
            "velocity": 1
          },
          {
            "duration": 0.22604166666667425,
            "durationTicks": 217,
            "midi": 86,
            "name": "D6",
            "ticks": 308640,
            "time": 321.5,
            "velocity": 0.84251968503937
          },
          {
            "duration": 0.22604166666667425,
            "durationTicks": 217,
            "midi": 83,
            "name": "B5",
            "ticks": 308640,
            "time": 321.5,
            "velocity": 0.84251968503937
          },
          {
            "duration": 0.22604166666667425,
            "durationTicks": 217,
            "midi": 86,
            "name": "D6",
            "ticks": 308880,
            "time": 321.75,
            "velocity": 0.8976377952755905
          },
          {
            "duration": 0.22604166666667425,
            "durationTicks": 217,
            "midi": 83,
            "name": "B5",
            "ticks": 308880,
            "time": 321.75,
            "velocity": 0.8976377952755905
          },
          {
            "duration": 0.22604166666667425,
            "durationTicks": 217,
            "midi": 88,
            "name": "E6",
            "ticks": 309120,
            "time": 322,
            "velocity": 0.968503937007874
          },
          {
            "duration": 0.22604166666667425,
            "durationTicks": 217,
            "midi": 84,
            "name": "C6",
            "ticks": 309120,
            "time": 322,
            "velocity": 0.968503937007874
          },
          {
            "duration": 0.22604166666667425,
            "durationTicks": 217,
            "midi": 84,
            "name": "C6",
            "ticks": 309360,
            "time": 322.25,
            "velocity": 0.7874015748031497
          },
          {
            "duration": 0.22604166666667425,
            "durationTicks": 217,
            "midi": 84,
            "name": "C6",
            "ticks": 309600,
            "time": 322.5,
            "velocity": 0.8740157480314961
          },
          {
            "duration": 0.22604166666667425,
            "durationTicks": 217,
            "midi": 84,
            "name": "C6",
            "ticks": 309840,
            "time": 322.75,
            "velocity": 0.8818897637795275
          },
          {
            "duration": 1.0197916666666629,
            "durationTicks": 979,
            "midi": 77,
            "name": "F5",
            "ticks": 310080,
            "time": 323,
            "velocity": 0.7165354330708661
          },
          {
            "duration": 1.0197916666666629,
            "durationTicks": 979,
            "midi": 77,
            "name": "F5",
            "ticks": 310080,
            "time": 323,
            "velocity": 0.7165354330708661
          },
          {
            "duration": 0.9489583333333371,
            "durationTicks": 911,
            "midi": 79,
            "name": "G5",
            "ticks": 311040,
            "time": 324,
            "velocity": 0.7165354330708661
          },
          {
            "duration": 0.9489583333333371,
            "durationTicks": 911,
            "midi": 79,
            "name": "G5",
            "ticks": 311040,
            "time": 324,
            "velocity": 0.7165354330708661
          },
          {
            "duration": 1.0197916666666629,
            "durationTicks": 979,
            "midi": 77,
            "name": "F5",
            "ticks": 313920,
            "time": 327,
            "velocity": 0.8503937007874016
          },
          {
            "duration": 1.0197916666666629,
            "durationTicks": 979,
            "midi": 77,
            "name": "F5",
            "ticks": 313920,
            "time": 327,
            "velocity": 0.8503937007874016
          },
          {
            "duration": 0.9489583333333371,
            "durationTicks": 911,
            "midi": 79,
            "name": "G5",
            "ticks": 314880,
            "time": 328,
            "velocity": 0.9133858267716536
          },
          {
            "duration": 0.9489583333333371,
            "durationTicks": 911,
            "midi": 79,
            "name": "G5",
            "ticks": 314880,
            "time": 328,
            "velocity": 0.9133858267716536
          },
          {
            "duration": 1.0197916666666629,
            "durationTicks": 979,
            "midi": 77,
            "name": "F5",
            "ticks": 317760,
            "time": 331,
            "velocity": 0.8503937007874016
          },
          {
            "duration": 1.0197916666666629,
            "durationTicks": 979,
            "midi": 77,
            "name": "F5",
            "ticks": 317760,
            "time": 331,
            "velocity": 0.8503937007874016
          },
          {
            "duration": 0.9489583333333371,
            "durationTicks": 911,
            "midi": 78,
            "name": "F#5",
            "ticks": 318720,
            "time": 332,
            "velocity": 0.889763779527559
          },
          {
            "duration": 0.9489583333333371,
            "durationTicks": 911,
            "midi": 78,
            "name": "F#5",
            "ticks": 318720,
            "time": 332,
            "velocity": 0.889763779527559
          },
          {
            "duration": 1.0197916666666629,
            "durationTicks": 979,
            "midi": 81,
            "name": "A5",
            "ticks": 321600,
            "time": 335,
            "velocity": 0.937007874015748
          },
          {
            "duration": 1.0197916666666629,
            "durationTicks": 979,
            "midi": 81,
            "name": "A5",
            "ticks": 321600,
            "time": 335,
            "velocity": 0.937007874015748
          },
          {
            "duration": 0.9489583333333371,
            "durationTicks": 911,
            "midi": 82,
            "name": "A#5",
            "ticks": 322560,
            "time": 336,
            "velocity": 1
          },
          {
            "duration": 0.9489583333333371,
            "durationTicks": 911,
            "midi": 82,
            "name": "A#5",
            "ticks": 322560,
            "time": 336,
            "velocity": 1
          },
          {
            "duration": 0.8999999999999773,
            "durationTicks": 864,
            "midi": 83,
            "name": "B5",
            "ticks": 324480,
            "time": 338,
            "velocity": 0.952755905511811
          },
          {
            "duration": 0.8999999999999773,
            "durationTicks": 864,
            "midi": 83,
            "name": "B5",
            "ticks": 324480,
            "time": 338,
            "velocity": 0.952755905511811
          },
          {
            "duration": 0.8999999999999773,
            "durationTicks": 864,
            "midi": 85,
            "name": "C#6",
            "ticks": 326400,
            "time": 340,
            "velocity": 0.9606299212598425
          },
          {
            "duration": 0.8999999999999773,
            "durationTicks": 864,
            "midi": 85,
            "name": "C#6",
            "ticks": 326400,
            "time": 340,
            "velocity": 0.9606299212598425
          },
          {
            "duration": 0.8999999999999773,
            "durationTicks": 864,
            "midi": 85,
            "name": "C#6",
            "ticks": 328320,
            "time": 342,
            "velocity": 0.47244094488188976
          },
          {
            "duration": 0.8999999999999773,
            "durationTicks": 864,
            "midi": 85,
            "name": "C#6",
            "ticks": 328320,
            "time": 342,
            "velocity": 0.47244094488188976
          },
          {
            "duration": 0.8999999999999773,
            "durationTicks": 864,
            "midi": 85,
            "name": "C#6",
            "ticks": 330240,
            "time": 344,
            "velocity": 0.4409448818897638
          },
          {
            "duration": 0.8999999999999773,
            "durationTicks": 864,
            "midi": 85,
            "name": "C#6",
            "ticks": 330240,
            "time": 344,
            "velocity": 0.4409448818897638
          },
          {
            "duration": 0.8999999999999773,
            "durationTicks": 864,
            "midi": 85,
            "name": "C#6",
            "ticks": 332160,
            "time": 346,
            "velocity": 0.47244094488188976
          },
          {
            "duration": 0.8999999999999773,
            "durationTicks": 864,
            "midi": 85,
            "name": "C#6",
            "ticks": 332160,
            "time": 346,
            "velocity": 0.47244094488188976
          },
          {
            "duration": 0.8999999999999773,
            "durationTicks": 864,
            "midi": 86,
            "name": "D6",
            "ticks": 334080,
            "time": 348,
            "velocity": 0.3937007874015748
          },
          {
            "duration": 0.8999999999999773,
            "durationTicks": 864,
            "midi": 86,
            "name": "D6",
            "ticks": 334080,
            "time": 348,
            "velocity": 0.3937007874015748
          },
          {
            "duration": 0.8999999999999773,
            "durationTicks": 864,
            "midi": 86,
            "name": "D6",
            "ticks": 336000,
            "time": 350,
            "velocity": 0.4094488188976378
          },
          {
            "duration": 0.8999999999999773,
            "durationTicks": 864,
            "midi": 86,
            "name": "D6",
            "ticks": 336000,
            "time": 350,
            "velocity": 0.4094488188976378
          },
          {
            "duration": 0.8999999999999773,
            "durationTicks": 864,
            "midi": 86,
            "name": "D6",
            "ticks": 337920,
            "time": 352,
            "velocity": 0.4094488188976378
          },
          {
            "duration": 0.8999999999999773,
            "durationTicks": 864,
            "midi": 86,
            "name": "D6",
            "ticks": 337920,
            "time": 352,
            "velocity": 0.4094488188976378
          },
          {
            "duration": 0.8999999999999773,
            "durationTicks": 864,
            "midi": 86,
            "name": "D6",
            "ticks": 339840,
            "time": 354,
            "velocity": 0.4330708661417323
          },
          {
            "duration": 0.8999999999999773,
            "durationTicks": 864,
            "midi": 86,
            "name": "D6",
            "ticks": 339840,
            "time": 354,
            "velocity": 0.4330708661417323
          },
          {
            "duration": 0.22604166666667425,
            "durationTicks": 217,
            "midi": 86,
            "name": "D6",
            "ticks": 341040,
            "time": 355.25,
            "velocity": 0.8031496062992126
          },
          {
            "duration": 0.22604166666667425,
            "durationTicks": 217,
            "midi": 86,
            "name": "D6",
            "ticks": 341280,
            "time": 355.5,
            "velocity": 0.8740157480314961
          },
          {
            "duration": 0.22604166666667425,
            "durationTicks": 217,
            "midi": 86,
            "name": "D6",
            "ticks": 341520,
            "time": 355.75,
            "velocity": 0.889763779527559
          },
          {
            "duration": 0.8999999999999773,
            "durationTicks": 864,
            "midi": 86,
            "name": "D6",
            "ticks": 341760,
            "time": 356,
            "velocity": 0.905511811023622
          },
          {
            "duration": 0.8999999999999773,
            "durationTicks": 864,
            "midi": 83,
            "name": "B5",
            "ticks": 341760,
            "time": 356,
            "velocity": 0.905511811023622
          },
          {
            "duration": 0.8999999999999773,
            "durationTicks": 864,
            "midi": 86,
            "name": "D6",
            "ticks": 342720,
            "time": 357,
            "velocity": 0.8818897637795275
          },
          {
            "duration": 0.8999999999999773,
            "durationTicks": 864,
            "midi": 84,
            "name": "C6",
            "ticks": 342720,
            "time": 357,
            "velocity": 0.8818897637795275
          },
          {
            "duration": 1.8999999999999773,
            "durationTicks": 1824,
            "midi": 86,
            "name": "D6",
            "ticks": 343680,
            "time": 358,
            "velocity": 0.8976377952755905
          },
          {
            "duration": 1.8999999999999773,
            "durationTicks": 1824,
            "midi": 81,
            "name": "A5",
            "ticks": 343680,
            "time": 358,
            "velocity": 0.8976377952755905
          },
          {
            "duration": 0.8999999999999773,
            "durationTicks": 864,
            "midi": 86,
            "name": "D6",
            "ticks": 345600,
            "time": 360,
            "velocity": 0.4015748031496063
          },
          {
            "duration": 0.8999999999999773,
            "durationTicks": 864,
            "midi": 86,
            "name": "D6",
            "ticks": 347520,
            "time": 362,
            "velocity": 0.3858267716535433
          },
          {
            "duration": 0.8999999999999773,
            "durationTicks": 864,
            "midi": 86,
            "name": "D6",
            "ticks": 347520,
            "time": 362,
            "velocity": 0.3858267716535433
          },
          {
            "duration": 0.8999999999999773,
            "durationTicks": 864,
            "midi": 86,
            "name": "D6",
            "ticks": 349440,
            "time": 364,
            "velocity": 0.3543307086614173
          },
          {
            "duration": 0.8999999999999773,
            "durationTicks": 864,
            "midi": 86,
            "name": "D6",
            "ticks": 349440,
            "time": 364,
            "velocity": 0.3543307086614173
          },
          {
            "duration": 0.8999999999999773,
            "durationTicks": 864,
            "midi": 86,
            "name": "D6",
            "ticks": 351360,
            "time": 366,
            "velocity": 0.3779527559055118
          },
          {
            "duration": 0.8999999999999773,
            "durationTicks": 864,
            "midi": 86,
            "name": "D6",
            "ticks": 351360,
            "time": 366,
            "velocity": 0.3779527559055118
          },
          {
            "duration": 0.22604166666667425,
            "durationTicks": 217,
            "midi": 92,
            "name": "G#6",
            "ticks": 353520,
            "time": 368.25,
            "velocity": 0.8267716535433071
          },
          {
            "duration": 0.22604166666667425,
            "durationTicks": 217,
            "midi": 80,
            "name": "G#5",
            "ticks": 353520,
            "time": 368.25,
            "velocity": 0.8267716535433071
          },
          {
            "duration": 0.22604166666667425,
            "durationTicks": 217,
            "midi": 92,
            "name": "G#6",
            "ticks": 353760,
            "time": 368.5,
            "velocity": 0.8346456692913385
          },
          {
            "duration": 0.22604166666667425,
            "durationTicks": 217,
            "midi": 80,
            "name": "G#5",
            "ticks": 353760,
            "time": 368.5,
            "velocity": 0.8346456692913385
          },
          {
            "duration": 0.22604166666667425,
            "durationTicks": 217,
            "midi": 92,
            "name": "G#6",
            "ticks": 354000,
            "time": 368.75,
            "velocity": 0.8740157480314961
          },
          {
            "duration": 0.22604166666667425,
            "durationTicks": 217,
            "midi": 80,
            "name": "G#5",
            "ticks": 354000,
            "time": 368.75,
            "velocity": 0.8740157480314961
          },
          {
            "duration": 1.2260416666666742,
            "durationTicks": 1177,
            "midi": 89,
            "name": "F6",
            "ticks": 354240,
            "time": 369,
            "velocity": 0.7874015748031497
          },
          {
            "duration": 1.2260416666666742,
            "durationTicks": 1177,
            "midi": 77,
            "name": "F5",
            "ticks": 354240,
            "time": 369,
            "velocity": 0.7874015748031497
          },
          {
            "duration": 0.22604166666667425,
            "durationTicks": 217,
            "midi": 92,
            "name": "G#6",
            "ticks": 355440,
            "time": 370.25,
            "velocity": 0.9606299212598425
          },
          {
            "duration": 0.22604166666667425,
            "durationTicks": 217,
            "midi": 80,
            "name": "G#5",
            "ticks": 355440,
            "time": 370.25,
            "velocity": 0.9606299212598425
          },
          {
            "duration": 0.22604166666667425,
            "durationTicks": 217,
            "midi": 92,
            "name": "G#6",
            "ticks": 355680,
            "time": 370.5,
            "velocity": 0.8582677165354331
          },
          {
            "duration": 0.22604166666667425,
            "durationTicks": 217,
            "midi": 80,
            "name": "G#5",
            "ticks": 355680,
            "time": 370.5,
            "velocity": 0.8582677165354331
          },
          {
            "duration": 0.22604166666667425,
            "durationTicks": 217,
            "midi": 92,
            "name": "G#6",
            "ticks": 355920,
            "time": 370.75,
            "velocity": 0.889763779527559
          },
          {
            "duration": 0.22604166666667425,
            "durationTicks": 217,
            "midi": 80,
            "name": "G#5",
            "ticks": 355920,
            "time": 370.75,
            "velocity": 0.889763779527559
          },
          {
            "duration": 1.2260416666666742,
            "durationTicks": 1177,
            "midi": 89,
            "name": "F6",
            "ticks": 356160,
            "time": 371,
            "velocity": 0.7952755905511811
          },
          {
            "duration": 1.2260416666666742,
            "durationTicks": 1177,
            "midi": 77,
            "name": "F5",
            "ticks": 356160,
            "time": 371,
            "velocity": 0.7952755905511811
          },
          {
            "duration": 0.22604166666667425,
            "durationTicks": 217,
            "midi": 92,
            "name": "G#6",
            "ticks": 357360,
            "time": 372.25,
            "velocity": 0.952755905511811
          },
          {
            "duration": 0.22604166666667425,
            "durationTicks": 217,
            "midi": 80,
            "name": "G#5",
            "ticks": 357360,
            "time": 372.25,
            "velocity": 0.952755905511811
          },
          {
            "duration": 0.22604166666667425,
            "durationTicks": 217,
            "midi": 92,
            "name": "G#6",
            "ticks": 357600,
            "time": 372.5,
            "velocity": 0.9212598425196851
          },
          {
            "duration": 0.22604166666667425,
            "durationTicks": 217,
            "midi": 80,
            "name": "G#5",
            "ticks": 357600,
            "time": 372.5,
            "velocity": 0.9212598425196851
          },
          {
            "duration": 0.22604166666667425,
            "durationTicks": 217,
            "midi": 92,
            "name": "G#6",
            "ticks": 357840,
            "time": 372.75,
            "velocity": 0.905511811023622
          },
          {
            "duration": 0.22604166666667425,
            "durationTicks": 217,
            "midi": 80,
            "name": "G#5",
            "ticks": 357840,
            "time": 372.75,
            "velocity": 0.905511811023622
          },
          {
            "duration": 0.22604166666667425,
            "durationTicks": 217,
            "midi": 89,
            "name": "F6",
            "ticks": 358080,
            "time": 373,
            "velocity": 0.7952755905511811
          },
          {
            "duration": 0.22604166666667425,
            "durationTicks": 217,
            "midi": 77,
            "name": "F5",
            "ticks": 358080,
            "time": 373,
            "velocity": 0.7952755905511811
          },
          {
            "duration": 0.22604166666667425,
            "durationTicks": 217,
            "midi": 92,
            "name": "G#6",
            "ticks": 358320,
            "time": 373.25,
            "velocity": 0.937007874015748
          },
          {
            "duration": 0.22604166666667425,
            "durationTicks": 217,
            "midi": 80,
            "name": "G#5",
            "ticks": 358320,
            "time": 373.25,
            "velocity": 0.937007874015748
          },
          {
            "duration": 0.22604166666667425,
            "durationTicks": 217,
            "midi": 92,
            "name": "G#6",
            "ticks": 358560,
            "time": 373.5,
            "velocity": 0.8976377952755905
          },
          {
            "duration": 0.22604166666667425,
            "durationTicks": 217,
            "midi": 80,
            "name": "G#5",
            "ticks": 358560,
            "time": 373.5,
            "velocity": 0.8976377952755905
          },
          {
            "duration": 0.22604166666667425,
            "durationTicks": 217,
            "midi": 92,
            "name": "G#6",
            "ticks": 358800,
            "time": 373.75,
            "velocity": 0.8818897637795275
          },
          {
            "duration": 0.22604166666667425,
            "durationTicks": 217,
            "midi": 80,
            "name": "G#5",
            "ticks": 358800,
            "time": 373.75,
            "velocity": 0.8818897637795275
          },
          {
            "duration": 0.22604166666667425,
            "durationTicks": 217,
            "midi": 89,
            "name": "F6",
            "ticks": 359040,
            "time": 374,
            "velocity": 0.7795275590551181
          },
          {
            "duration": 0.22604166666667425,
            "durationTicks": 217,
            "midi": 77,
            "name": "F5",
            "ticks": 359040,
            "time": 374,
            "velocity": 0.7795275590551181
          },
          {
            "duration": 0.22604166666667425,
            "durationTicks": 217,
            "midi": 92,
            "name": "G#6",
            "ticks": 359280,
            "time": 374.25,
            "velocity": 0.9448818897637795
          },
          {
            "duration": 0.22604166666667425,
            "durationTicks": 217,
            "midi": 80,
            "name": "G#5",
            "ticks": 359280,
            "time": 374.25,
            "velocity": 0.9448818897637795
          },
          {
            "duration": 0.22604166666667425,
            "durationTicks": 217,
            "midi": 92,
            "name": "G#6",
            "ticks": 359520,
            "time": 374.5,
            "velocity": 0.889763779527559
          },
          {
            "duration": 0.22604166666667425,
            "durationTicks": 217,
            "midi": 80,
            "name": "G#5",
            "ticks": 359520,
            "time": 374.5,
            "velocity": 0.889763779527559
          },
          {
            "duration": 0.22604166666667425,
            "durationTicks": 217,
            "midi": 92,
            "name": "G#6",
            "ticks": 359760,
            "time": 374.75,
            "velocity": 0.8740157480314961
          },
          {
            "duration": 0.22604166666667425,
            "durationTicks": 217,
            "midi": 80,
            "name": "G#5",
            "ticks": 359760,
            "time": 374.75,
            "velocity": 0.8740157480314961
          },
          {
            "duration": 0.22604166666667425,
            "durationTicks": 217,
            "midi": 89,
            "name": "F6",
            "ticks": 360000,
            "time": 375,
            "velocity": 0.8110236220472441
          },
          {
            "duration": 0.22604166666667425,
            "durationTicks": 217,
            "midi": 77,
            "name": "F5",
            "ticks": 360000,
            "time": 375,
            "velocity": 0.8110236220472441
          },
          {
            "duration": 0.22604166666667425,
            "durationTicks": 217,
            "midi": 91,
            "name": "G6",
            "ticks": 360240,
            "time": 375.25,
            "velocity": 0.9291338582677166
          },
          {
            "duration": 0.22604166666667425,
            "durationTicks": 217,
            "midi": 79,
            "name": "G5",
            "ticks": 360240,
            "time": 375.25,
            "velocity": 0.9291338582677166
          },
          {
            "duration": 0.22604166666667425,
            "durationTicks": 217,
            "midi": 91,
            "name": "G6",
            "ticks": 360480,
            "time": 375.5,
            "velocity": 0.9133858267716536
          },
          {
            "duration": 0.22604166666667425,
            "durationTicks": 217,
            "midi": 79,
            "name": "G5",
            "ticks": 360480,
            "time": 375.5,
            "velocity": 0.9133858267716536
          },
          {
            "duration": 0.22604166666667425,
            "durationTicks": 217,
            "midi": 91,
            "name": "G6",
            "ticks": 360720,
            "time": 375.75,
            "velocity": 0.8818897637795275
          },
          {
            "duration": 0.22604166666667425,
            "durationTicks": 217,
            "midi": 79,
            "name": "G5",
            "ticks": 360720,
            "time": 375.75,
            "velocity": 0.8818897637795275
          },
          {
            "duration": 1.5,
            "durationTicks": 1440,
            "midi": 91,
            "name": "G6",
            "ticks": 360960,
            "time": 376,
            "velocity": 0.8661417322834646
          },
          {
            "duration": 1.5,
            "durationTicks": 1440,
            "midi": 87,
            "name": "D#6",
            "ticks": 360960,
            "time": 376,
            "velocity": 0.8661417322834646
          },
          {
            "duration": 0.22604166666667425,
            "durationTicks": 217,
            "midi": 91,
            "name": "G6",
            "ticks": 362640,
            "time": 377.75,
            "velocity": 0.7795275590551181
          },
          {
            "duration": 0.22604166666667425,
            "durationTicks": 217,
            "midi": 89,
            "name": "F6",
            "ticks": 362640,
            "time": 377.75,
            "velocity": 0.7795275590551181
          },
          {
            "duration": 0.22604166666667425,
            "durationTicks": 217,
            "midi": 91,
            "name": "G6",
            "ticks": 362880,
            "time": 378,
            "velocity": 0.8661417322834646
          },
          {
            "duration": 0.22604166666667425,
            "durationTicks": 217,
            "midi": 89,
            "name": "F6",
            "ticks": 362880,
            "time": 378,
            "velocity": 0.8661417322834646
          },
          {
            "duration": 0.22604166666667425,
            "durationTicks": 217,
            "midi": 91,
            "name": "G6",
            "ticks": 363120,
            "time": 378.25,
            "velocity": 0.905511811023622
          },
          {
            "duration": 0.22604166666667425,
            "durationTicks": 217,
            "midi": 89,
            "name": "F6",
            "ticks": 363120,
            "time": 378.25,
            "velocity": 0.905511811023622
          },
          {
            "duration": 2.5,
            "durationTicks": 2400,
            "midi": 91,
            "name": "G6",
            "ticks": 363360,
            "time": 378.5,
            "velocity": 0.8740157480314961
          },
          {
            "duration": 2.5,
            "durationTicks": 2400,
            "midi": 86,
            "name": "D6",
            "ticks": 363360,
            "time": 378.5,
            "velocity": 0.8740157480314961
          },
          {
            "duration": 1.8999999999999773,
            "durationTicks": 1824,
            "midi": 65,
            "name": "F4",
            "ticks": 372480,
            "time": 388,
            "velocity": 0.2992125984251969
          },
          {
            "duration": 1.8999999999999773,
            "durationTicks": 1824,
            "midi": 65,
            "name": "F4",
            "ticks": 372480,
            "time": 388,
            "velocity": 0.2992125984251969
          },
          {
            "duration": 0.45104166666664014,
            "durationTicks": 433,
            "midi": 63,
            "name": "D#4",
            "ticks": 374400,
            "time": 390,
            "velocity": 0.4409448818897638
          },
          {
            "duration": 0.45104166666664014,
            "durationTicks": 433,
            "midi": 63,
            "name": "D#4",
            "ticks": 374400,
            "time": 390,
            "velocity": 0.4409448818897638
          },
          {
            "duration": 0.8999999999999773,
            "durationTicks": 864,
            "midi": 84,
            "name": "C6",
            "ticks": 379200,
            "time": 395,
            "velocity": 0.5118110236220472
          },
          {
            "duration": 0.8999999999999773,
            "durationTicks": 864,
            "midi": 78,
            "name": "F#5",
            "ticks": 379200,
            "time": 395,
            "velocity": 0.5118110236220472
          },
          {
            "duration": 0.45104166666664014,
            "durationTicks": 433,
            "midi": 83,
            "name": "B5",
            "ticks": 380160,
            "time": 396,
            "velocity": 0.7086614173228346
          },
          {
            "duration": 0.45104166666664014,
            "durationTicks": 433,
            "midi": 79,
            "name": "G5",
            "ticks": 380160,
            "time": 396,
            "velocity": 0.7086614173228346
          },
          {
            "duration": 0.45104166666664014,
            "durationTicks": 433,
            "midi": 84,
            "name": "C6",
            "ticks": 398880,
            "time": 415.5,
            "velocity": 0.8346456692913385
          },
          {
            "duration": 0.45104166666664014,
            "durationTicks": 433,
            "midi": 84,
            "name": "C6",
            "ticks": 398880,
            "time": 415.5,
            "velocity": 0.8346456692913385
          },
          {
            "duration": 0.45104166666664014,
            "durationTicks": 433,
            "midi": 84,
            "name": "C6",
            "ticks": 399840,
            "time": 416.5,
            "velocity": 0.7952755905511811
          },
          {
            "duration": 0.45104166666664014,
            "durationTicks": 433,
            "midi": 84,
            "name": "C6",
            "ticks": 399840,
            "time": 416.5,
            "velocity": 0.7952755905511811
          },
          {
            "duration": 0.45104166666664014,
            "durationTicks": 433,
            "midi": 84,
            "name": "C6",
            "ticks": 400800,
            "time": 417.5,
            "velocity": 0.8031496062992126
          },
          {
            "duration": 0.45104166666664014,
            "durationTicks": 433,
            "midi": 84,
            "name": "C6",
            "ticks": 400800,
            "time": 417.5,
            "velocity": 0.8031496062992126
          },
          {
            "duration": 0.45104166666664014,
            "durationTicks": 433,
            "midi": 84,
            "name": "C6",
            "ticks": 401760,
            "time": 418.5,
            "velocity": 0.7795275590551181
          },
          {
            "duration": 0.45104166666664014,
            "durationTicks": 433,
            "midi": 84,
            "name": "C6",
            "ticks": 401760,
            "time": 418.5,
            "velocity": 0.7795275590551181
          },
          {
            "duration": 0.45104166666664014,
            "durationTicks": 433,
            "midi": 86,
            "name": "D6",
            "ticks": 402720,
            "time": 419.5,
            "velocity": 0.7952755905511811
          },
          {
            "duration": 0.45104166666664014,
            "durationTicks": 433,
            "midi": 83,
            "name": "B5",
            "ticks": 402720,
            "time": 419.5,
            "velocity": 0.7952755905511811
          },
          {
            "duration": 3.8999999999999773,
            "durationTicks": 3744,
            "midi": 87,
            "name": "D#6",
            "ticks": 403680,
            "time": 420.5,
            "velocity": 0.6850393700787402
          },
          {
            "duration": 3.8999999999999773,
            "durationTicks": 3744,
            "midi": 84,
            "name": "C6",
            "ticks": 403680,
            "time": 420.5,
            "velocity": 0.6850393700787402
          },
          {
            "duration": 3.45104166666664,
            "durationTicks": 3313,
            "midi": 89,
            "name": "F6",
            "ticks": 407520,
            "time": 424.5,
            "velocity": 0.8188976377952756
          },
          {
            "duration": 3.45104166666664,
            "durationTicks": 3313,
            "midi": 86,
            "name": "D6",
            "ticks": 407520,
            "time": 424.5,
            "velocity": 0.8188976377952756
          },
          {
            "duration": 0.45104166666664014,
            "durationTicks": 433,
            "midi": 87,
            "name": "D#6",
            "ticks": 410880,
            "time": 428,
            "velocity": 0.7007874015748031
          },
          {
            "duration": 0.45104166666664014,
            "durationTicks": 433,
            "midi": 84,
            "name": "C6",
            "ticks": 410880,
            "time": 428,
            "velocity": 0.7007874015748031
          },
          {
            "duration": 3.8999999999999773,
            "durationTicks": 3744,
            "midi": 90,
            "name": "F#6",
            "ticks": 411360,
            "time": 428.5,
            "velocity": 0.952755905511811
          },
          {
            "duration": 3.8999999999999773,
            "durationTicks": 3744,
            "midi": 84,
            "name": "C6",
            "ticks": 411360,
            "time": 428.5,
            "velocity": 0.952755905511811
          },
          {
            "duration": 0.45104166666664014,
            "durationTicks": 433,
            "midi": 90,
            "name": "F#6",
            "ticks": 415200,
            "time": 432.5,
            "velocity": 0.8976377952755905
          },
          {
            "duration": 0.45104166666664014,
            "durationTicks": 433,
            "midi": 84,
            "name": "C6",
            "ticks": 415200,
            "time": 432.5,
            "velocity": 0.8976377952755905
          },
          {
            "duration": 0.45104166666664014,
            "durationTicks": 433,
            "midi": 91,
            "name": "G6",
            "ticks": 417120,
            "time": 434.5,
            "velocity": 0.7795275590551181
          },
          {
            "duration": 0.45104166666664014,
            "durationTicks": 433,
            "midi": 79,
            "name": "G5",
            "ticks": 417120,
            "time": 434.5,
            "velocity": 0.7795275590551181
          },
          {
            "duration": 0.5093749999999773,
            "durationTicks": 489,
            "midi": 79,
            "name": "G5",
            "ticks": 425760,
            "time": 443.5,
            "velocity": 0.5984251968503937
          },
          {
            "duration": 0.5093749999999773,
            "durationTicks": 489,
            "midi": 79,
            "name": "G5",
            "ticks": 425760,
            "time": 443.5,
            "velocity": 0.5984251968503937
          },
          {
            "duration": 0.5093749999999773,
            "durationTicks": 489,
            "midi": 84,
            "name": "C6",
            "ticks": 426240,
            "time": 444,
            "velocity": 0.6535433070866141
          },
          {
            "duration": 0.5093749999999773,
            "durationTicks": 489,
            "midi": 84,
            "name": "C6",
            "ticks": 426240,
            "time": 444,
            "velocity": 0.6535433070866141
          },
          {
            "duration": 0.5093749999999773,
            "durationTicks": 489,
            "midi": 83,
            "name": "B5",
            "ticks": 426720,
            "time": 444.5,
            "velocity": 0.6377952755905512
          },
          {
            "duration": 0.5093749999999773,
            "durationTicks": 489,
            "midi": 83,
            "name": "B5",
            "ticks": 426720,
            "time": 444.5,
            "velocity": 0.6377952755905512
          },
          {
            "duration": 0.5093749999999773,
            "durationTicks": 489,
            "midi": 84,
            "name": "C6",
            "ticks": 427200,
            "time": 445,
            "velocity": 0.6692913385826772
          },
          {
            "duration": 0.5093749999999773,
            "durationTicks": 489,
            "midi": 84,
            "name": "C6",
            "ticks": 427200,
            "time": 445,
            "velocity": 0.6692913385826772
          },
          {
            "duration": 0.5093749999999773,
            "durationTicks": 489,
            "midi": 86,
            "name": "D6",
            "ticks": 427680,
            "time": 445.5,
            "velocity": 0.7007874015748031
          },
          {
            "duration": 0.5093749999999773,
            "durationTicks": 489,
            "midi": 86,
            "name": "D6",
            "ticks": 427680,
            "time": 445.5,
            "velocity": 0.7007874015748031
          },
          {
            "duration": 0.47500000000002274,
            "durationTicks": 456,
            "midi": 81,
            "name": "A5",
            "ticks": 428160,
            "time": 446,
            "velocity": 0.6062992125984252
          },
          {
            "duration": 0.47500000000002274,
            "durationTicks": 456,
            "midi": 81,
            "name": "A5",
            "ticks": 428160,
            "time": 446,
            "velocity": 0.6062992125984252
          },
          {
            "duration": 0.5093749999999773,
            "durationTicks": 489,
            "midi": 81,
            "name": "A5",
            "ticks": 428640,
            "time": 446.5,
            "velocity": 0.6141732283464567
          },
          {
            "duration": 0.5093749999999773,
            "durationTicks": 489,
            "midi": 81,
            "name": "A5",
            "ticks": 428640,
            "time": 446.5,
            "velocity": 0.6141732283464567
          },
          {
            "duration": 0.47500000000002274,
            "durationTicks": 456,
            "midi": 79,
            "name": "G5",
            "ticks": 429120,
            "time": 447,
            "velocity": 0.5433070866141733
          },
          {
            "duration": 0.47500000000002274,
            "durationTicks": 456,
            "midi": 79,
            "name": "G5",
            "ticks": 429120,
            "time": 447,
            "velocity": 0.5433070866141733
          },
          {
            "duration": 0.5093749999999773,
            "durationTicks": 489,
            "midi": 79,
            "name": "G5",
            "ticks": 433440,
            "time": 451.5,
            "velocity": 0.6614173228346457
          },
          {
            "duration": 0.5093749999999773,
            "durationTicks": 489,
            "midi": 79,
            "name": "G5",
            "ticks": 433440,
            "time": 451.5,
            "velocity": 0.6614173228346457
          },
          {
            "duration": 0.5093749999999773,
            "durationTicks": 489,
            "midi": 84,
            "name": "C6",
            "ticks": 433920,
            "time": 452,
            "velocity": 0.7716535433070866
          },
          {
            "duration": 0.5093749999999773,
            "durationTicks": 489,
            "midi": 84,
            "name": "C6",
            "ticks": 433920,
            "time": 452,
            "velocity": 0.7716535433070866
          },
          {
            "duration": 0.5093749999999773,
            "durationTicks": 489,
            "midi": 83,
            "name": "B5",
            "ticks": 434400,
            "time": 452.5,
            "velocity": 0.6692913385826772
          },
          {
            "duration": 0.5093749999999773,
            "durationTicks": 489,
            "midi": 83,
            "name": "B5",
            "ticks": 434400,
            "time": 452.5,
            "velocity": 0.6692913385826772
          },
          {
            "duration": 0.5093749999999773,
            "durationTicks": 489,
            "midi": 84,
            "name": "C6",
            "ticks": 434880,
            "time": 453,
            "velocity": 0.6771653543307087
          },
          {
            "duration": 0.5093749999999773,
            "durationTicks": 489,
            "midi": 84,
            "name": "C6",
            "ticks": 434880,
            "time": 453,
            "velocity": 0.6771653543307087
          },
          {
            "duration": 0.5093749999999773,
            "durationTicks": 489,
            "midi": 86,
            "name": "D6",
            "ticks": 435360,
            "time": 453.5,
            "velocity": 0.7007874015748031
          },
          {
            "duration": 0.5093749999999773,
            "durationTicks": 489,
            "midi": 86,
            "name": "D6",
            "ticks": 435360,
            "time": 453.5,
            "velocity": 0.7007874015748031
          },
          {
            "duration": 0.47500000000002274,
            "durationTicks": 456,
            "midi": 81,
            "name": "A5",
            "ticks": 435840,
            "time": 454,
            "velocity": 0.6062992125984252
          },
          {
            "duration": 0.47500000000002274,
            "durationTicks": 456,
            "midi": 81,
            "name": "A5",
            "ticks": 435840,
            "time": 454,
            "velocity": 0.6062992125984252
          },
          {
            "duration": 0.5093749999999773,
            "durationTicks": 489,
            "midi": 81,
            "name": "A5",
            "ticks": 436320,
            "time": 454.5,
            "velocity": 0.6456692913385826
          },
          {
            "duration": 0.5093749999999773,
            "durationTicks": 489,
            "midi": 81,
            "name": "A5",
            "ticks": 436320,
            "time": 454.5,
            "velocity": 0.6456692913385826
          },
          {
            "duration": 0.47500000000002274,
            "durationTicks": 456,
            "midi": 79,
            "name": "G5",
            "ticks": 436800,
            "time": 455,
            "velocity": 0.5905511811023622
          },
          {
            "duration": 0.47500000000002274,
            "durationTicks": 456,
            "midi": 79,
            "name": "G5",
            "ticks": 436800,
            "time": 455,
            "velocity": 0.5905511811023622
          },
          {
            "duration": 0.5093749999999773,
            "durationTicks": 489,
            "midi": 82,
            "name": "A#5",
            "ticks": 439200,
            "time": 457.5,
            "velocity": 0.7244094488188977
          },
          {
            "duration": 0.5093749999999773,
            "durationTicks": 489,
            "midi": 82,
            "name": "A#5",
            "ticks": 439200,
            "time": 457.5,
            "velocity": 0.7244094488188977
          },
          {
            "duration": 0.5093749999999773,
            "durationTicks": 489,
            "midi": 84,
            "name": "C6",
            "ticks": 439680,
            "time": 458,
            "velocity": 0.7952755905511811
          },
          {
            "duration": 0.5093749999999773,
            "durationTicks": 489,
            "midi": 84,
            "name": "C6",
            "ticks": 439680,
            "time": 458,
            "velocity": 0.7952755905511811
          },
          {
            "duration": 0.5093749999999773,
            "durationTicks": 489,
            "midi": 82,
            "name": "A#5",
            "ticks": 440160,
            "time": 458.5,
            "velocity": 0.6141732283464567
          },
          {
            "duration": 0.5093749999999773,
            "durationTicks": 489,
            "midi": 82,
            "name": "A#5",
            "ticks": 440160,
            "time": 458.5,
            "velocity": 0.6141732283464567
          },
          {
            "duration": 0.47500000000002274,
            "durationTicks": 456,
            "midi": 81,
            "name": "A5",
            "ticks": 440640,
            "time": 459,
            "velocity": 0.5511811023622047
          },
          {
            "duration": 0.47500000000002274,
            "durationTicks": 456,
            "midi": 81,
            "name": "A5",
            "ticks": 440640,
            "time": 459,
            "velocity": 0.5511811023622047
          },
          {
            "duration": 0.5093749999999773,
            "durationTicks": 489,
            "midi": 84,
            "name": "C6",
            "ticks": 443040,
            "time": 461.5,
            "velocity": 0.7086614173228346
          },
          {
            "duration": 0.5093749999999773,
            "durationTicks": 489,
            "midi": 84,
            "name": "C6",
            "ticks": 443040,
            "time": 461.5,
            "velocity": 0.7086614173228346
          },
          {
            "duration": 0.5093749999999773,
            "durationTicks": 489,
            "midi": 86,
            "name": "D6",
            "ticks": 443520,
            "time": 462,
            "velocity": 0.7244094488188977
          },
          {
            "duration": 0.5093749999999773,
            "durationTicks": 489,
            "midi": 86,
            "name": "D6",
            "ticks": 443520,
            "time": 462,
            "velocity": 0.7244094488188977
          },
          {
            "duration": 0.5093749999999773,
            "durationTicks": 489,
            "midi": 84,
            "name": "C6",
            "ticks": 444000,
            "time": 462.5,
            "velocity": 0.5984251968503937
          },
          {
            "duration": 0.5093749999999773,
            "durationTicks": 489,
            "midi": 84,
            "name": "C6",
            "ticks": 444000,
            "time": 462.5,
            "velocity": 0.5984251968503937
          },
          {
            "duration": 0.47500000000002274,
            "durationTicks": 456,
            "midi": 83,
            "name": "B5",
            "ticks": 444480,
            "time": 463,
            "velocity": 0.5590551181102362
          },
          {
            "duration": 0.47500000000002274,
            "durationTicks": 456,
            "midi": 83,
            "name": "B5",
            "ticks": 444480,
            "time": 463,
            "velocity": 0.5590551181102362
          },
          {
            "duration": 0.5093749999999773,
            "durationTicks": 489,
            "midi": 92,
            "name": "G#6",
            "ticks": 451680,
            "time": 470.5,
            "velocity": 0.8031496062992126
          },
          {
            "duration": 0.5093749999999773,
            "durationTicks": 489,
            "midi": 92,
            "name": "G#6",
            "ticks": 451680,
            "time": 470.5,
            "velocity": 0.8031496062992126
          },
          {
            "duration": 0.5093749999999773,
            "durationTicks": 489,
            "midi": 91,
            "name": "G6",
            "ticks": 452160,
            "time": 471,
            "velocity": 0.8031496062992126
          },
          {
            "duration": 0.5093749999999773,
            "durationTicks": 489,
            "midi": 91,
            "name": "G6",
            "ticks": 452160,
            "time": 471,
            "velocity": 0.8031496062992126
          },
          {
            "duration": 0.5093749999999773,
            "durationTicks": 489,
            "midi": 90,
            "name": "F#6",
            "ticks": 452640,
            "time": 471.5,
            "velocity": 0.6220472440944882
          },
          {
            "duration": 0.5093749999999773,
            "durationTicks": 489,
            "midi": 90,
            "name": "F#6",
            "ticks": 452640,
            "time": 471.5,
            "velocity": 0.6220472440944882
          },
          {
            "duration": 0.47500000000002274,
            "durationTicks": 456,
            "midi": 91,
            "name": "G6",
            "ticks": 453120,
            "time": 472,
            "velocity": 0.5748031496062992
          },
          {
            "duration": 0.47500000000002274,
            "durationTicks": 456,
            "midi": 91,
            "name": "G6",
            "ticks": 453120,
            "time": 472,
            "velocity": 0.5748031496062992
          },
          {
            "duration": 0.5093749999999773,
            "durationTicks": 489,
            "midi": 93,
            "name": "A6",
            "ticks": 453600,
            "time": 472.5,
            "velocity": 0.5984251968503937
          },
          {
            "duration": 0.5093749999999773,
            "durationTicks": 489,
            "midi": 93,
            "name": "A6",
            "ticks": 453600,
            "time": 472.5,
            "velocity": 0.5984251968503937
          },
          {
            "duration": 0.5093749999999773,
            "durationTicks": 489,
            "midi": 91,
            "name": "G6",
            "ticks": 454080,
            "time": 473,
            "velocity": 0.5511811023622047
          },
          {
            "duration": 0.5093749999999773,
            "durationTicks": 489,
            "midi": 91,
            "name": "G6",
            "ticks": 454080,
            "time": 473,
            "velocity": 0.5511811023622047
          },
          {
            "duration": 0.5093749999999773,
            "durationTicks": 489,
            "midi": 90,
            "name": "F#6",
            "ticks": 454560,
            "time": 473.5,
            "velocity": 0.5275590551181102
          },
          {
            "duration": 0.5093749999999773,
            "durationTicks": 489,
            "midi": 90,
            "name": "F#6",
            "ticks": 454560,
            "time": 473.5,
            "velocity": 0.5275590551181102
          },
          {
            "duration": 0.47500000000002274,
            "durationTicks": 456,
            "midi": 91,
            "name": "G6",
            "ticks": 455040,
            "time": 474,
            "velocity": 0.5354330708661418
          },
          {
            "duration": 0.47500000000002274,
            "durationTicks": 456,
            "midi": 91,
            "name": "G6",
            "ticks": 455040,
            "time": 474,
            "velocity": 0.5354330708661418
          },
          {
            "duration": 0.5093749999999773,
            "durationTicks": 489,
            "midi": 93,
            "name": "A6",
            "ticks": 455520,
            "time": 474.5,
            "velocity": 0.7086614173228346
          },
          {
            "duration": 0.5093749999999773,
            "durationTicks": 489,
            "midi": 93,
            "name": "A6",
            "ticks": 455520,
            "time": 474.5,
            "velocity": 0.7086614173228346
          },
          {
            "duration": 0.5093749999999773,
            "durationTicks": 489,
            "midi": 91,
            "name": "G6",
            "ticks": 456000,
            "time": 475,
            "velocity": 0.6850393700787402
          },
          {
            "duration": 0.5093749999999773,
            "durationTicks": 489,
            "midi": 91,
            "name": "G6",
            "ticks": 456000,
            "time": 475,
            "velocity": 0.6850393700787402
          },
          {
            "duration": 0.5093749999999773,
            "durationTicks": 489,
            "midi": 90,
            "name": "F#6",
            "ticks": 456480,
            "time": 475.5,
            "velocity": 0.6377952755905512
          },
          {
            "duration": 0.5093749999999773,
            "durationTicks": 489,
            "midi": 90,
            "name": "F#6",
            "ticks": 456480,
            "time": 475.5,
            "velocity": 0.6377952755905512
          },
          {
            "duration": 0.5093749999999773,
            "durationTicks": 489,
            "midi": 91,
            "name": "G6",
            "ticks": 456960,
            "time": 476,
            "velocity": 0.6456692913385826
          },
          {
            "duration": 0.5093749999999773,
            "durationTicks": 489,
            "midi": 91,
            "name": "G6",
            "ticks": 456960,
            "time": 476,
            "velocity": 0.6456692913385826
          },
          {
            "duration": 0.5093749999999773,
            "durationTicks": 489,
            "midi": 90,
            "name": "F#6",
            "ticks": 457440,
            "time": 476.5,
            "velocity": 0.7716535433070866
          },
          {
            "duration": 0.5093749999999773,
            "durationTicks": 489,
            "midi": 90,
            "name": "F#6",
            "ticks": 457440,
            "time": 476.5,
            "velocity": 0.7716535433070866
          },
          {
            "duration": 0.5093749999999773,
            "durationTicks": 489,
            "midi": 91,
            "name": "G6",
            "ticks": 457920,
            "time": 477,
            "velocity": 0.7795275590551181
          },
          {
            "duration": 0.5093749999999773,
            "durationTicks": 489,
            "midi": 91,
            "name": "G6",
            "ticks": 457920,
            "time": 477,
            "velocity": 0.7795275590551181
          },
          {
            "duration": 0.5093749999999773,
            "durationTicks": 489,
            "midi": 90,
            "name": "F#6",
            "ticks": 458400,
            "time": 477.5,
            "velocity": 0.7559055118110236
          },
          {
            "duration": 0.5093749999999773,
            "durationTicks": 489,
            "midi": 90,
            "name": "F#6",
            "ticks": 458400,
            "time": 477.5,
            "velocity": 0.7559055118110236
          },
          {
            "duration": 0.47500000000002274,
            "durationTicks": 456,
            "midi": 91,
            "name": "G6",
            "ticks": 458880,
            "time": 478,
            "velocity": 0.7795275590551181
          },
          {
            "duration": 1.4510416666666401,
            "durationTicks": 1393,
            "midi": 91,
            "name": "G6",
            "ticks": 459360,
            "time": 478.5,
            "velocity": 0.8818897637795275
          },
          {
            "duration": 1.4510416666666401,
            "durationTicks": 1393,
            "midi": 89,
            "name": "F6",
            "ticks": 459360,
            "time": 478.5,
            "velocity": 0.8818897637795275
          },
          {
            "duration": 0.45104166666664014,
            "durationTicks": 433,
            "midi": 91,
            "name": "G6",
            "ticks": 460800,
            "time": 480,
            "velocity": 0.9133858267716536
          },
          {
            "duration": 0.45104166666664014,
            "durationTicks": 433,
            "midi": 89,
            "name": "F6",
            "ticks": 460800,
            "time": 480,
            "velocity": 0.9133858267716536
          },
          {
            "duration": 0.45104166666664014,
            "durationTicks": 433,
            "midi": 91,
            "name": "G6",
            "ticks": 461280,
            "time": 480.5,
            "velocity": 0.8740157480314961
          },
          {
            "duration": 0.45104166666664014,
            "durationTicks": 433,
            "midi": 88,
            "name": "E6",
            "ticks": 461280,
            "time": 480.5,
            "velocity": 0.8740157480314961
          },
          {
            "duration": 0.45104166666664014,
            "durationTicks": 433,
            "midi": 91,
            "name": "G6",
            "ticks": 462240,
            "time": 481.5,
            "velocity": 0.7874015748031497
          },
          {
            "duration": 0.45104166666664014,
            "durationTicks": 433,
            "midi": 83,
            "name": "B5",
            "ticks": 462240,
            "time": 481.5,
            "velocity": 0.7874015748031497
          },
          {
            "duration": 0.45104166666664014,
            "durationTicks": 433,
            "midi": 91,
            "name": "G6",
            "ticks": 463200,
            "time": 482.5,
            "velocity": 0.7874015748031497
          },
          {
            "duration": 0.45104166666664014,
            "durationTicks": 433,
            "midi": 84,
            "name": "C6",
            "ticks": 463200,
            "time": 482.5,
            "velocity": 0.7874015748031497
          },
          {
            "duration": 0.45104166666664014,
            "durationTicks": 433,
            "midi": 93,
            "name": "A6",
            "ticks": 464160,
            "time": 483.5,
            "velocity": 0.7716535433070866
          },
          {
            "duration": 0.45104166666664014,
            "durationTicks": 433,
            "midi": 84,
            "name": "C6",
            "ticks": 464160,
            "time": 483.5,
            "velocity": 0.7716535433070866
          },
          {
            "duration": 0.45104166666664014,
            "durationTicks": 433,
            "midi": 91,
            "name": "G6",
            "ticks": 465120,
            "time": 484.5,
            "velocity": 0.7795275590551181
          },
          {
            "duration": 0.45104166666664014,
            "durationTicks": 433,
            "midi": 88,
            "name": "E6",
            "ticks": 465120,
            "time": 484.5,
            "velocity": 0.7795275590551181
          },
          {
            "duration": 0.2541666666666629,
            "durationTicks": 244,
            "midi": 91,
            "name": "G6",
            "ticks": 466080,
            "time": 485.5,
            "velocity": 0.8110236220472441
          },
          {
            "duration": 0.47500000000002274,
            "durationTicks": 456,
            "midi": 83,
            "name": "B5",
            "ticks": 466080,
            "time": 485.5,
            "velocity": 0.8031496062992126
          },
          {
            "duration": 0.2541666666666629,
            "durationTicks": 244,
            "midi": 91,
            "name": "G6",
            "ticks": 466080,
            "time": 485.5,
            "velocity": 0.8110236220472441
          },
          {
            "duration": 0.2541666666666629,
            "durationTicks": 244,
            "midi": 90,
            "name": "F#6",
            "ticks": 466320,
            "time": 485.75,
            "velocity": 0.7637795275590551
          },
          {
            "duration": 0.2541666666666629,
            "durationTicks": 244,
            "midi": 90,
            "name": "F#6",
            "ticks": 466320,
            "time": 485.75,
            "velocity": 0.7637795275590551
          },
          {
            "duration": 0.2541666666666629,
            "durationTicks": 244,
            "midi": 91,
            "name": "G6",
            "ticks": 466560,
            "time": 486,
            "velocity": 0.905511811023622
          },
          {
            "duration": 0.2541666666666629,
            "durationTicks": 244,
            "midi": 91,
            "name": "G6",
            "ticks": 466560,
            "time": 486,
            "velocity": 0.905511811023622
          },
          {
            "duration": 0.23645833333335986,
            "durationTicks": 227,
            "midi": 90,
            "name": "F#6",
            "ticks": 466800,
            "time": 486.25,
            "velocity": 0.84251968503937
          },
          {
            "duration": 0.23645833333335986,
            "durationTicks": 227,
            "midi": 90,
            "name": "F#6",
            "ticks": 466800,
            "time": 486.25,
            "velocity": 0.84251968503937
          },
          {
            "duration": 1.8999999999999773,
            "durationTicks": 1824,
            "midi": 91,
            "name": "G6",
            "ticks": 467040,
            "time": 486.5,
            "velocity": 0.937007874015748
          },
          {
            "duration": 1.8999999999999773,
            "durationTicks": 1824,
            "midi": 89,
            "name": "F6",
            "ticks": 467040,
            "time": 486.5,
            "velocity": 0.937007874015748
          },
          {
            "duration": 0.45104166666664014,
            "durationTicks": 433,
            "midi": 91,
            "name": "G6",
            "ticks": 468960,
            "time": 488.5,
            "velocity": 0.905511811023622
          },
          {
            "duration": 0.45104166666664014,
            "durationTicks": 433,
            "midi": 88,
            "name": "E6",
            "ticks": 468960,
            "time": 488.5,
            "velocity": 0.905511811023622
          },
          {
            "duration": 0.45104166666664014,
            "durationTicks": 433,
            "midi": 91,
            "name": "G6",
            "ticks": 469440,
            "time": 489,
            "velocity": 0.9212598425196851
          },
          {
            "duration": 0.45104166666664014,
            "durationTicks": 433,
            "midi": 88,
            "name": "E6",
            "ticks": 469440,
            "time": 489,
            "velocity": 0.9212598425196851
          },
          {
            "duration": 0.45104166666664014,
            "durationTicks": 433,
            "midi": 91,
            "name": "G6",
            "ticks": 470400,
            "time": 490,
            "velocity": 0.8110236220472441
          },
          {
            "duration": 0.45104166666664014,
            "durationTicks": 433,
            "midi": 83,
            "name": "B5",
            "ticks": 470400,
            "time": 490,
            "velocity": 0.8110236220472441
          },
          {
            "duration": 0.45104166666664014,
            "durationTicks": 433,
            "midi": 91,
            "name": "G6",
            "ticks": 471360,
            "time": 491,
            "velocity": 0.7637795275590551
          },
          {
            "duration": 0.45104166666664014,
            "durationTicks": 433,
            "midi": 84,
            "name": "C6",
            "ticks": 471360,
            "time": 491,
            "velocity": 0.7637795275590551
          },
          {
            "duration": 0.45104166666664014,
            "durationTicks": 433,
            "midi": 89,
            "name": "F6",
            "ticks": 472320,
            "time": 492,
            "velocity": 0.7716535433070866
          },
          {
            "duration": 0.45104166666664014,
            "durationTicks": 433,
            "midi": 86,
            "name": "D6",
            "ticks": 472320,
            "time": 492,
            "velocity": 0.7716535433070866
          },
          {
            "duration": 0.45104166666664014,
            "durationTicks": 433,
            "midi": 91,
            "name": "G6",
            "ticks": 473280,
            "time": 493,
            "velocity": 0.7874015748031497
          },
          {
            "duration": 0.45104166666664014,
            "durationTicks": 433,
            "midi": 88,
            "name": "E6",
            "ticks": 473280,
            "time": 493,
            "velocity": 0.7874015748031497
          },
          {
            "duration": 0.45104166666664014,
            "durationTicks": 433,
            "midi": 91,
            "name": "G6",
            "ticks": 474240,
            "time": 494,
            "velocity": 0.8110236220472441
          },
          {
            "duration": 0.45104166666664014,
            "durationTicks": 433,
            "midi": 86,
            "name": "D6",
            "ticks": 474240,
            "time": 494,
            "velocity": 0.8110236220472441
          },
          {
            "duration": 0.22604166666667425,
            "durationTicks": 217,
            "midi": 84,
            "name": "C6",
            "ticks": 474720,
            "time": 494.5,
            "velocity": 0.7086614173228346
          },
          {
            "duration": 0.22604166666667425,
            "durationTicks": 217,
            "midi": 88,
            "name": "E6",
            "ticks": 474960,
            "time": 494.75,
            "velocity": 0.9606299212598425
          },
          {
            "duration": 0.22604166666667425,
            "durationTicks": 217,
            "midi": 88,
            "name": "E6",
            "ticks": 474960,
            "time": 494.75,
            "velocity": 0.9606299212598425
          },
          {
            "duration": 0.22604166666667425,
            "durationTicks": 217,
            "midi": 88,
            "name": "E6",
            "ticks": 475200,
            "time": 495,
            "velocity": 0.9133858267716536
          },
          {
            "duration": 0.22604166666667425,
            "durationTicks": 217,
            "midi": 88,
            "name": "E6",
            "ticks": 475200,
            "time": 495,
            "velocity": 0.9133858267716536
          },
          {
            "duration": 0.22604166666667425,
            "durationTicks": 217,
            "midi": 88,
            "name": "E6",
            "ticks": 475440,
            "time": 495.25,
            "velocity": 0.905511811023622
          },
          {
            "duration": 0.22604166666667425,
            "durationTicks": 217,
            "midi": 88,
            "name": "E6",
            "ticks": 475440,
            "time": 495.25,
            "velocity": 0.905511811023622
          },
          {
            "duration": 0.22604166666667425,
            "durationTicks": 217,
            "midi": 84,
            "name": "C6",
            "ticks": 475680,
            "time": 495.5,
            "velocity": 0.8188976377952756
          },
          {
            "duration": 0.22604166666667425,
            "durationTicks": 217,
            "midi": 84,
            "name": "C6",
            "ticks": 475680,
            "time": 495.5,
            "velocity": 0.8188976377952756
          },
          {
            "duration": 0.22604166666667425,
            "durationTicks": 217,
            "midi": 79,
            "name": "G5",
            "ticks": 475920,
            "time": 495.75,
            "velocity": 0.7637795275590551
          },
          {
            "duration": 0.22604166666667425,
            "durationTicks": 217,
            "midi": 79,
            "name": "G5",
            "ticks": 475920,
            "time": 495.75,
            "velocity": 0.7637795275590551
          },
          {
            "duration": 0.22604166666667425,
            "durationTicks": 217,
            "midi": 79,
            "name": "G5",
            "ticks": 476160,
            "time": 496,
            "velocity": 0.9133858267716536
          },
          {
            "duration": 0.22604166666667425,
            "durationTicks": 217,
            "midi": 79,
            "name": "G5",
            "ticks": 476160,
            "time": 496,
            "velocity": 0.9133858267716536
          },
          {
            "duration": 0.22604166666667425,
            "durationTicks": 217,
            "midi": 79,
            "name": "G5",
            "ticks": 476400,
            "time": 496.25,
            "velocity": 0.889763779527559
          },
          {
            "duration": 0.22604166666667425,
            "durationTicks": 217,
            "midi": 79,
            "name": "G5",
            "ticks": 476400,
            "time": 496.25,
            "velocity": 0.889763779527559
          },
          {
            "duration": 0.22604166666667425,
            "durationTicks": 217,
            "midi": 76,
            "name": "E5",
            "ticks": 476640,
            "time": 496.5,
            "velocity": 0.7952755905511811
          },
          {
            "duration": 0.22604166666667425,
            "durationTicks": 217,
            "midi": 76,
            "name": "E5",
            "ticks": 476640,
            "time": 496.5,
            "velocity": 0.7952755905511811
          },
          {
            "duration": 0.22604166666667425,
            "durationTicks": 217,
            "midi": 72,
            "name": "C5",
            "ticks": 476880,
            "time": 496.75,
            "velocity": 0.7716535433070866
          },
          {
            "duration": 0.22604166666667425,
            "durationTicks": 217,
            "midi": 72,
            "name": "C5",
            "ticks": 476880,
            "time": 496.75,
            "velocity": 0.7716535433070866
          },
          {
            "duration": 0.22604166666667425,
            "durationTicks": 217,
            "midi": 72,
            "name": "C5",
            "ticks": 477120,
            "time": 497,
            "velocity": 0.8582677165354331
          },
          {
            "duration": 0.22604166666667425,
            "durationTicks": 217,
            "midi": 72,
            "name": "C5",
            "ticks": 477120,
            "time": 497,
            "velocity": 0.8582677165354331
          },
          {
            "duration": 0.22604166666667425,
            "durationTicks": 217,
            "midi": 72,
            "name": "C5",
            "ticks": 477360,
            "time": 497.25,
            "velocity": 0.8661417322834646
          },
          {
            "duration": 0.22604166666667425,
            "durationTicks": 217,
            "midi": 72,
            "name": "C5",
            "ticks": 477360,
            "time": 497.25,
            "velocity": 0.8661417322834646
          },
          {
            "duration": 1.2260416666666742,
            "durationTicks": 1177,
            "midi": 67,
            "name": "G4",
            "ticks": 477600,
            "time": 497.5,
            "velocity": 0.7480314960629921
          },
          {
            "duration": 1.2260416666666742,
            "durationTicks": 1177,
            "midi": 67,
            "name": "G4",
            "ticks": 477600,
            "time": 497.5,
            "velocity": 0.7480314960629921
          },
          {
            "duration": 0.22604166666667425,
            "durationTicks": 217,
            "midi": 88,
            "name": "E6",
            "ticks": 478800,
            "time": 498.75,
            "velocity": 1
          },
          {
            "duration": 0.22604166666667425,
            "durationTicks": 217,
            "midi": 88,
            "name": "E6",
            "ticks": 478800,
            "time": 498.75,
            "velocity": 1
          },
          {
            "duration": 0.22604166666667425,
            "durationTicks": 217,
            "midi": 88,
            "name": "E6",
            "ticks": 479040,
            "time": 499,
            "velocity": 0.937007874015748
          },
          {
            "duration": 0.22604166666667425,
            "durationTicks": 217,
            "midi": 88,
            "name": "E6",
            "ticks": 479040,
            "time": 499,
            "velocity": 0.937007874015748
          },
          {
            "duration": 0.22604166666667425,
            "durationTicks": 217,
            "midi": 88,
            "name": "E6",
            "ticks": 479280,
            "time": 499.25,
            "velocity": 0.9448818897637795
          },
          {
            "duration": 0.22604166666667425,
            "durationTicks": 217,
            "midi": 88,
            "name": "E6",
            "ticks": 479280,
            "time": 499.25,
            "velocity": 0.9448818897637795
          },
          {
            "duration": 0.22604166666667425,
            "durationTicks": 217,
            "midi": 84,
            "name": "C6",
            "ticks": 479520,
            "time": 499.5,
            "velocity": 0.8110236220472441
          },
          {
            "duration": 0.22604166666667425,
            "durationTicks": 217,
            "midi": 84,
            "name": "C6",
            "ticks": 479520,
            "time": 499.5,
            "velocity": 0.8110236220472441
          },
          {
            "duration": 0.22604166666667425,
            "durationTicks": 217,
            "midi": 79,
            "name": "G5",
            "ticks": 479760,
            "time": 499.75,
            "velocity": 0.7559055118110236
          },
          {
            "duration": 0.22604166666667425,
            "durationTicks": 217,
            "midi": 79,
            "name": "G5",
            "ticks": 479760,
            "time": 499.75,
            "velocity": 0.7559055118110236
          },
          {
            "duration": 0.22604166666667425,
            "durationTicks": 217,
            "midi": 79,
            "name": "G5",
            "ticks": 480000,
            "time": 500,
            "velocity": 0.905511811023622
          },
          {
            "duration": 0.22604166666667425,
            "durationTicks": 217,
            "midi": 79,
            "name": "G5",
            "ticks": 480000,
            "time": 500,
            "velocity": 0.905511811023622
          },
          {
            "duration": 0.22604166666667425,
            "durationTicks": 217,
            "midi": 79,
            "name": "G5",
            "ticks": 480240,
            "time": 500.25,
            "velocity": 0.8661417322834646
          },
          {
            "duration": 0.22604166666667425,
            "durationTicks": 217,
            "midi": 79,
            "name": "G5",
            "ticks": 480240,
            "time": 500.25,
            "velocity": 0.8661417322834646
          },
          {
            "duration": 0.22604166666667425,
            "durationTicks": 217,
            "midi": 76,
            "name": "E5",
            "ticks": 480480,
            "time": 500.5,
            "velocity": 0.7874015748031497
          },
          {
            "duration": 0.22604166666667425,
            "durationTicks": 217,
            "midi": 76,
            "name": "E5",
            "ticks": 480480,
            "time": 500.5,
            "velocity": 0.7874015748031497
          },
          {
            "duration": 0.22604166666667425,
            "durationTicks": 217,
            "midi": 72,
            "name": "C5",
            "ticks": 480720,
            "time": 500.75,
            "velocity": 0.7952755905511811
          },
          {
            "duration": 0.22604166666667425,
            "durationTicks": 217,
            "midi": 72,
            "name": "C5",
            "ticks": 480720,
            "time": 500.75,
            "velocity": 0.7952755905511811
          },
          {
            "duration": 0.22604166666667425,
            "durationTicks": 217,
            "midi": 72,
            "name": "C5",
            "ticks": 480960,
            "time": 501,
            "velocity": 0.8661417322834646
          },
          {
            "duration": 0.22604166666667425,
            "durationTicks": 217,
            "midi": 72,
            "name": "C5",
            "ticks": 480960,
            "time": 501,
            "velocity": 0.8661417322834646
          },
          {
            "duration": 0.22604166666667425,
            "durationTicks": 217,
            "midi": 72,
            "name": "C5",
            "ticks": 481200,
            "time": 501.25,
            "velocity": 0.9133858267716536
          },
          {
            "duration": 0.22604166666667425,
            "durationTicks": 217,
            "midi": 72,
            "name": "C5",
            "ticks": 481200,
            "time": 501.25,
            "velocity": 0.9133858267716536
          },
          {
            "duration": 0.22604166666667425,
            "durationTicks": 217,
            "midi": 67,
            "name": "G4",
            "ticks": 481440,
            "time": 501.5,
            "velocity": 0.7795275590551181
          },
          {
            "duration": 0.22604166666667425,
            "durationTicks": 217,
            "midi": 67,
            "name": "G4",
            "ticks": 481440,
            "time": 501.5,
            "velocity": 0.7795275590551181
          },
          {
            "duration": 0.22604166666667425,
            "durationTicks": 217,
            "midi": 79,
            "name": "G5",
            "ticks": 481680,
            "time": 501.75,
            "velocity": 1
          },
          {
            "duration": 0.22604166666667425,
            "durationTicks": 217,
            "midi": 74,
            "name": "D5",
            "ticks": 481680,
            "time": 501.75,
            "velocity": 1
          },
          {
            "duration": 0.22604166666667425,
            "durationTicks": 217,
            "midi": 79,
            "name": "G5",
            "ticks": 481920,
            "time": 502,
            "velocity": 0.9291338582677166
          },
          {
            "duration": 0.22604166666667425,
            "durationTicks": 217,
            "midi": 74,
            "name": "D5",
            "ticks": 481920,
            "time": 502,
            "velocity": 0.9291338582677166
          },
          {
            "duration": 0.22604166666667425,
            "durationTicks": 217,
            "midi": 79,
            "name": "G5",
            "ticks": 482160,
            "time": 502.25,
            "velocity": 0.8740157480314961
          },
          {
            "duration": 0.22604166666667425,
            "durationTicks": 217,
            "midi": 74,
            "name": "D5",
            "ticks": 482160,
            "time": 502.25,
            "velocity": 0.8740157480314961
          },
          {
            "duration": 0.45104166666664014,
            "durationTicks": 433,
            "midi": 79,
            "name": "G5",
            "ticks": 482400,
            "time": 502.5,
            "velocity": 0.8818897637795275
          },
          {
            "duration": 0.45104166666664014,
            "durationTicks": 433,
            "midi": 76,
            "name": "E5",
            "ticks": 482400,
            "time": 502.5,
            "velocity": 0.8818897637795275
          },
          {
            "duration": 0.22604166666667425,
            "durationTicks": 217,
            "midi": 79,
            "name": "G5",
            "ticks": 483600,
            "time": 503.75,
            "velocity": 0.7795275590551181
          },
          {
            "duration": 0.22604166666667425,
            "durationTicks": 217,
            "midi": 74,
            "name": "D5",
            "ticks": 483600,
            "time": 503.75,
            "velocity": 0.7795275590551181
          },
          {
            "duration": 0.22604166666667425,
            "durationTicks": 217,
            "midi": 79,
            "name": "G5",
            "ticks": 483840,
            "time": 504,
            "velocity": 0.8661417322834646
          },
          {
            "duration": 0.22604166666667425,
            "durationTicks": 217,
            "midi": 74,
            "name": "D5",
            "ticks": 483840,
            "time": 504,
            "velocity": 0.8661417322834646
          },
          {
            "duration": 0.22604166666667425,
            "durationTicks": 217,
            "midi": 79,
            "name": "G5",
            "ticks": 484080,
            "time": 504.25,
            "velocity": 0.905511811023622
          },
          {
            "duration": 0.22604166666667425,
            "durationTicks": 217,
            "midi": 74,
            "name": "D5",
            "ticks": 484080,
            "time": 504.25,
            "velocity": 0.905511811023622
          },
          {
            "duration": 0.45104166666664014,
            "durationTicks": 433,
            "midi": 79,
            "name": "G5",
            "ticks": 484320,
            "time": 504.5,
            "velocity": 0.8740157480314961
          },
          {
            "duration": 0.45104166666664014,
            "durationTicks": 433,
            "midi": 76,
            "name": "E5",
            "ticks": 484320,
            "time": 504.5,
            "velocity": 0.8740157480314961
          },
          {
            "duration": 0.22604166666667425,
            "durationTicks": 217,
            "midi": 83,
            "name": "B5",
            "ticks": 485520,
            "time": 505.75,
            "velocity": 0.8188976377952756
          },
          {
            "duration": 0.22604166666667425,
            "durationTicks": 217,
            "midi": 74,
            "name": "D5",
            "ticks": 485520,
            "time": 505.75,
            "velocity": 0.8188976377952756
          },
          {
            "duration": 0.22604166666667425,
            "durationTicks": 217,
            "midi": 83,
            "name": "B5",
            "ticks": 485760,
            "time": 506,
            "velocity": 0.8976377952755905
          },
          {
            "duration": 0.22604166666667425,
            "durationTicks": 217,
            "midi": 74,
            "name": "D5",
            "ticks": 485760,
            "time": 506,
            "velocity": 0.8976377952755905
          },
          {
            "duration": 0.22604166666667425,
            "durationTicks": 217,
            "midi": 83,
            "name": "B5",
            "ticks": 486000,
            "time": 506.25,
            "velocity": 0.889763779527559
          },
          {
            "duration": 0.22604166666667425,
            "durationTicks": 217,
            "midi": 74,
            "name": "D5",
            "ticks": 486000,
            "time": 506.25,
            "velocity": 0.889763779527559
          },
          {
            "duration": 0.22604166666667425,
            "durationTicks": 217,
            "midi": 84,
            "name": "C6",
            "ticks": 486240,
            "time": 506.5,
            "velocity": 0.9133858267716536
          },
          {
            "duration": 0.22604166666667425,
            "durationTicks": 217,
            "midi": 76,
            "name": "E5",
            "ticks": 486240,
            "time": 506.5,
            "velocity": 0.9133858267716536
          },
          {
            "duration": 0.22604166666667425,
            "durationTicks": 217,
            "midi": 84,
            "name": "C6",
            "ticks": 486480,
            "time": 506.75,
            "velocity": 0.889763779527559
          },
          {
            "duration": 0.22604166666667425,
            "durationTicks": 217,
            "midi": 72,
            "name": "C5",
            "ticks": 486480,
            "time": 506.75,
            "velocity": 0.889763779527559
          },
          {
            "duration": 0.22604166666667425,
            "durationTicks": 217,
            "midi": 84,
            "name": "C6",
            "ticks": 486720,
            "time": 507,
            "velocity": 0.8740157480314961
          },
          {
            "duration": 0.22604166666667425,
            "durationTicks": 217,
            "midi": 72,
            "name": "C5",
            "ticks": 486720,
            "time": 507,
            "velocity": 0.8740157480314961
          },
          {
            "duration": 0.22604166666667425,
            "durationTicks": 217,
            "midi": 84,
            "name": "C6",
            "ticks": 486960,
            "time": 507.25,
            "velocity": 0.8582677165354331
          },
          {
            "duration": 0.22604166666667425,
            "durationTicks": 217,
            "midi": 72,
            "name": "C5",
            "ticks": 486960,
            "time": 507.25,
            "velocity": 0.8582677165354331
          },
          {
            "duration": 1.2260416666666742,
            "durationTicks": 1177,
            "midi": 84,
            "name": "C6",
            "ticks": 487200,
            "time": 507.5,
            "velocity": 0.8661417322834646
          },
          {
            "duration": 1.2260416666666742,
            "durationTicks": 1177,
            "midi": 72,
            "name": "C5",
            "ticks": 487200,
            "time": 507.5,
            "velocity": 0.8661417322834646
          },
          {
            "duration": 0.22604166666667425,
            "durationTicks": 217,
            "midi": 84,
            "name": "C6",
            "ticks": 488400,
            "time": 508.75,
            "velocity": 0.8818897637795275
          },
          {
            "duration": 0.22604166666667425,
            "durationTicks": 217,
            "midi": 72,
            "name": "C5",
            "ticks": 488400,
            "time": 508.75,
            "velocity": 0.8818897637795275
          },
          {
            "duration": 0.22604166666667425,
            "durationTicks": 217,
            "midi": 84,
            "name": "C6",
            "ticks": 488640,
            "time": 509,
            "velocity": 0.905511811023622
          },
          {
            "duration": 0.22604166666667425,
            "durationTicks": 217,
            "midi": 72,
            "name": "C5",
            "ticks": 488640,
            "time": 509,
            "velocity": 0.905511811023622
          },
          {
            "duration": 0.22604166666667425,
            "durationTicks": 217,
            "midi": 84,
            "name": "C6",
            "ticks": 488880,
            "time": 509.25,
            "velocity": 0.8818897637795275
          },
          {
            "duration": 0.22604166666667425,
            "durationTicks": 217,
            "midi": 72,
            "name": "C5",
            "ticks": 488880,
            "time": 509.25,
            "velocity": 0.8818897637795275
          },
          {
            "duration": 1.2260416666666742,
            "durationTicks": 1177,
            "midi": 84,
            "name": "C6",
            "ticks": 489120,
            "time": 509.5,
            "velocity": 0.8818897637795275
          },
          {
            "duration": 1.2260416666666742,
            "durationTicks": 1177,
            "midi": 72,
            "name": "C5",
            "ticks": 489120,
            "time": 509.5,
            "velocity": 0.8818897637795275
          },
          {
            "duration": 0.22604166666667425,
            "durationTicks": 217,
            "midi": 84,
            "name": "C6",
            "ticks": 490320,
            "time": 510.75,
            "velocity": 0.8976377952755905
          },
          {
            "duration": 0.22604166666667425,
            "durationTicks": 217,
            "midi": 72,
            "name": "C5",
            "ticks": 490320,
            "time": 510.75,
            "velocity": 0.8976377952755905
          },
          {
            "duration": 0.22604166666667425,
            "durationTicks": 217,
            "midi": 84,
            "name": "C6",
            "ticks": 490560,
            "time": 511,
            "velocity": 0.8818897637795275
          },
          {
            "duration": 0.22604166666667425,
            "durationTicks": 217,
            "midi": 72,
            "name": "C5",
            "ticks": 490560,
            "time": 511,
            "velocity": 0.8818897637795275
          },
          {
            "duration": 0.22604166666667425,
            "durationTicks": 217,
            "midi": 84,
            "name": "C6",
            "ticks": 490800,
            "time": 511.25,
            "velocity": 0.905511811023622
          },
          {
            "duration": 0.22604166666667425,
            "durationTicks": 217,
            "midi": 72,
            "name": "C5",
            "ticks": 490800,
            "time": 511.25,
            "velocity": 0.905511811023622
          },
          {
            "duration": 1.2260416666666742,
            "durationTicks": 1177,
            "midi": 84,
            "name": "C6",
            "ticks": 491040,
            "time": 511.5,
            "velocity": 0.8818897637795275
          },
          {
            "duration": 1.2260416666666742,
            "durationTicks": 1177,
            "midi": 72,
            "name": "C5",
            "ticks": 491040,
            "time": 511.5,
            "velocity": 0.8818897637795275
          },
          {
            "duration": 0.22604166666667425,
            "durationTicks": 217,
            "midi": 84,
            "name": "C6",
            "ticks": 492240,
            "time": 512.75,
            "velocity": 0.8740157480314961
          },
          {
            "duration": 0.22604166666667425,
            "durationTicks": 217,
            "midi": 72,
            "name": "C5",
            "ticks": 492240,
            "time": 512.75,
            "velocity": 0.8740157480314961
          },
          {
            "duration": 0.22604166666667425,
            "durationTicks": 217,
            "midi": 84,
            "name": "C6",
            "ticks": 492480,
            "time": 513,
            "velocity": 0.8740157480314961
          },
          {
            "duration": 0.22604166666667425,
            "durationTicks": 217,
            "midi": 72,
            "name": "C5",
            "ticks": 492480,
            "time": 513,
            "velocity": 0.8740157480314961
          },
          {
            "duration": 0.22604166666667425,
            "durationTicks": 217,
            "midi": 84,
            "name": "C6",
            "ticks": 492720,
            "time": 513.25,
            "velocity": 0.8661417322834646
          },
          {
            "duration": 0.22604166666667425,
            "durationTicks": 217,
            "midi": 72,
            "name": "C5",
            "ticks": 492720,
            "time": 513.25,
            "velocity": 0.8661417322834646
          },
          {
            "duration": 0.8999999999999773,
            "durationTicks": 864,
            "midi": 84,
            "name": "C6",
            "ticks": 492960,
            "time": 513.5,
            "velocity": 0.889763779527559
          },
          {
            "duration": 0.8999999999999773,
            "durationTicks": 864,
            "midi": 72,
            "name": "C5",
            "ticks": 492960,
            "time": 513.5,
            "velocity": 0.889763779527559
          },
          {
            "duration": 3.8999999999999773,
            "durationTicks": 3744,
            "midi": 85,
            "name": "C#6",
            "ticks": 493920,
            "time": 514.5,
            "velocity": 0.9448818897637795
          },
          {
            "duration": 3.8999999999999773,
            "durationTicks": 3744,
            "midi": 80,
            "name": "G#5",
            "ticks": 493920,
            "time": 514.5,
            "velocity": 0.9448818897637795
          },
          {
            "duration": 0.451041666666697,
            "durationTicks": 433,
            "midi": 85,
            "name": "C#6",
            "ticks": 497760,
            "time": 518.5,
            "velocity": 0.905511811023622
          },
          {
            "duration": 0.451041666666697,
            "durationTicks": 433,
            "midi": 80,
            "name": "G#5",
            "ticks": 497760,
            "time": 518.5,
            "velocity": 0.905511811023622
          },
          {
            "duration": 0.22604166666667425,
            "durationTicks": 217,
            "midi": 87,
            "name": "D#6",
            "ticks": 501840,
            "time": 522.75,
            "velocity": 0.7874015748031497
          },
          {
            "duration": 0.22604166666667425,
            "durationTicks": 217,
            "midi": 84,
            "name": "C6",
            "ticks": 501840,
            "time": 522.75,
            "velocity": 0.7874015748031497
          },
          {
            "duration": 0.22604166666667425,
            "durationTicks": 217,
            "midi": 87,
            "name": "D#6",
            "ticks": 502080,
            "time": 523,
            "velocity": 0.8818897637795275
          },
          {
            "duration": 0.22604166666667425,
            "durationTicks": 217,
            "midi": 84,
            "name": "C6",
            "ticks": 502080,
            "time": 523,
            "velocity": 0.8818897637795275
          },
          {
            "duration": 0.22604166666667425,
            "durationTicks": 217,
            "midi": 87,
            "name": "D#6",
            "ticks": 502320,
            "time": 523.25,
            "velocity": 0.8582677165354331
          },
          {
            "duration": 0.22604166666667425,
            "durationTicks": 217,
            "midi": 84,
            "name": "C6",
            "ticks": 502320,
            "time": 523.25,
            "velocity": 0.8582677165354331
          },
          {
            "duration": 3.8999999999999773,
            "durationTicks": 3744,
            "midi": 87,
            "name": "D#6",
            "ticks": 502560,
            "time": 523.5,
            "velocity": 0.889763779527559
          },
          {
            "duration": 3.8999999999999773,
            "durationTicks": 3744,
            "midi": 84,
            "name": "C6",
            "ticks": 502560,
            "time": 523.5,
            "velocity": 0.889763779527559
          },
          {
            "duration": 0.451041666666697,
            "durationTicks": 433,
            "midi": 87,
            "name": "D#6",
            "ticks": 506400,
            "time": 527.5,
            "velocity": 0.8818897637795275
          },
          {
            "duration": 0.451041666666697,
            "durationTicks": 433,
            "midi": 84,
            "name": "C6",
            "ticks": 506400,
            "time": 527.5,
            "velocity": 0.8818897637795275
          },
          {
            "duration": 0.22604166666667425,
            "durationTicks": 217,
            "midi": 84,
            "name": "C6",
            "ticks": 507600,
            "time": 528.75,
            "velocity": 0.7716535433070866
          },
          {
            "duration": 0.22604166666667425,
            "durationTicks": 217,
            "midi": 84,
            "name": "C6",
            "ticks": 507840,
            "time": 529,
            "velocity": 0.8503937007874016
          },
          {
            "duration": 0.22604166666667425,
            "durationTicks": 217,
            "midi": 84,
            "name": "C6",
            "ticks": 508080,
            "time": 529.25,
            "velocity": 0.889763779527559
          },
          {
            "duration": 0.451041666666697,
            "durationTicks": 433,
            "midi": 87,
            "name": "D#6",
            "ticks": 508320,
            "time": 529.5,
            "velocity": 0.968503937007874
          },
          {
            "duration": 1.8999999999999773,
            "durationTicks": 1824,
            "midi": 89,
            "name": "F6",
            "ticks": 512160,
            "time": 533.5,
            "velocity": 0.6929133858267716
          },
          {
            "duration": 1.8999999999999773,
            "durationTicks": 1824,
            "midi": 83,
            "name": "B5",
            "ticks": 512160,
            "time": 533.5,
            "velocity": 0.6929133858267716
          },
          {
            "duration": 1.8999999999999773,
            "durationTicks": 1824,
            "midi": 89,
            "name": "F6",
            "ticks": 516000,
            "time": 537.5,
            "velocity": 0.7559055118110236
          },
          {
            "duration": 1.8999999999999773,
            "durationTicks": 1824,
            "midi": 83,
            "name": "B5",
            "ticks": 516000,
            "time": 537.5,
            "velocity": 0.7559055118110236
          },
          {
            "duration": 0.451041666666697,
            "durationTicks": 433,
            "midi": 87,
            "name": "D#6",
            "ticks": 519840,
            "time": 541.5,
            "velocity": 0.7086614173228346
          },
          {
            "duration": 0.451041666666697,
            "durationTicks": 433,
            "midi": 87,
            "name": "D#6",
            "ticks": 519840,
            "time": 541.5,
            "velocity": 0.7086614173228346
          },
          {
            "duration": 0.451041666666697,
            "durationTicks": 433,
            "midi": 89,
            "name": "F6",
            "ticks": 520320,
            "time": 542,
            "velocity": 0.8503937007874016
          },
          {
            "duration": 0.451041666666697,
            "durationTicks": 433,
            "midi": 89,
            "name": "F6",
            "ticks": 520320,
            "time": 542,
            "velocity": 0.8503937007874016
          },
          {
            "duration": 0.451041666666697,
            "durationTicks": 433,
            "midi": 86,
            "name": "D6",
            "ticks": 520800,
            "time": 542.5,
            "velocity": 0.7401574803149606
          },
          {
            "duration": 0.451041666666697,
            "durationTicks": 433,
            "midi": 86,
            "name": "D6",
            "ticks": 520800,
            "time": 542.5,
            "velocity": 0.7401574803149606
          },
          {
            "duration": 0.451041666666697,
            "durationTicks": 433,
            "midi": 87,
            "name": "D#6",
            "ticks": 521280,
            "time": 543,
            "velocity": 0.8031496062992126
          },
          {
            "duration": 0.451041666666697,
            "durationTicks": 433,
            "midi": 87,
            "name": "D#6",
            "ticks": 521280,
            "time": 543,
            "velocity": 0.8031496062992126
          },
          {
            "duration": 0.451041666666697,
            "durationTicks": 433,
            "midi": 84,
            "name": "C6",
            "ticks": 521760,
            "time": 543.5,
            "velocity": 0.6850393700787402
          },
          {
            "duration": 0.451041666666697,
            "durationTicks": 433,
            "midi": 84,
            "name": "C6",
            "ticks": 521760,
            "time": 543.5,
            "velocity": 0.6850393700787402
          },
          {
            "duration": 0.451041666666697,
            "durationTicks": 433,
            "midi": 86,
            "name": "D6",
            "ticks": 522240,
            "time": 544,
            "velocity": 0.7716535433070866
          },
          {
            "duration": 0.451041666666697,
            "durationTicks": 433,
            "midi": 86,
            "name": "D6",
            "ticks": 522240,
            "time": 544,
            "velocity": 0.7716535433070866
          },
          {
            "duration": 0.451041666666697,
            "durationTicks": 433,
            "midi": 82,
            "name": "A#5",
            "ticks": 522720,
            "time": 544.5,
            "velocity": 0.7086614173228346
          },
          {
            "duration": 0.451041666666697,
            "durationTicks": 433,
            "midi": 82,
            "name": "A#5",
            "ticks": 522720,
            "time": 544.5,
            "velocity": 0.7086614173228346
          },
          {
            "duration": 0.451041666666697,
            "durationTicks": 433,
            "midi": 84,
            "name": "C6",
            "ticks": 523200,
            "time": 545,
            "velocity": 0.8110236220472441
          },
          {
            "duration": 0.451041666666697,
            "durationTicks": 433,
            "midi": 84,
            "name": "C6",
            "ticks": 523200,
            "time": 545,
            "velocity": 0.8110236220472441
          },
          {
            "duration": 0.451041666666697,
            "durationTicks": 433,
            "midi": 80,
            "name": "G#5",
            "ticks": 523680,
            "time": 545.5,
            "velocity": 0.6929133858267716
          },
          {
            "duration": 0.451041666666697,
            "durationTicks": 433,
            "midi": 80,
            "name": "G#5",
            "ticks": 523680,
            "time": 545.5,
            "velocity": 0.6929133858267716
          },
          {
            "duration": 0.451041666666697,
            "durationTicks": 433,
            "midi": 82,
            "name": "A#5",
            "ticks": 524160,
            "time": 546,
            "velocity": 0.8267716535433071
          },
          {
            "duration": 0.451041666666697,
            "durationTicks": 433,
            "midi": 82,
            "name": "A#5",
            "ticks": 524160,
            "time": 546,
            "velocity": 0.8267716535433071
          },
          {
            "duration": 0.451041666666697,
            "durationTicks": 433,
            "midi": 79,
            "name": "G5",
            "ticks": 524640,
            "time": 546.5,
            "velocity": 0.6929133858267716
          },
          {
            "duration": 0.451041666666697,
            "durationTicks": 433,
            "midi": 79,
            "name": "G5",
            "ticks": 524640,
            "time": 546.5,
            "velocity": 0.6929133858267716
          },
          {
            "duration": 0.451041666666697,
            "durationTicks": 433,
            "midi": 80,
            "name": "G#5",
            "ticks": 525120,
            "time": 547,
            "velocity": 0.8267716535433071
          },
          {
            "duration": 0.451041666666697,
            "durationTicks": 433,
            "midi": 80,
            "name": "G#5",
            "ticks": 525120,
            "time": 547,
            "velocity": 0.8267716535433071
          },
          {
            "duration": 0.451041666666697,
            "durationTicks": 433,
            "midi": 77,
            "name": "F5",
            "ticks": 525600,
            "time": 547.5,
            "velocity": 0.7244094488188977
          },
          {
            "duration": 0.451041666666697,
            "durationTicks": 433,
            "midi": 77,
            "name": "F5",
            "ticks": 525600,
            "time": 547.5,
            "velocity": 0.7244094488188977
          },
          {
            "duration": 0.451041666666697,
            "durationTicks": 433,
            "midi": 79,
            "name": "G5",
            "ticks": 526080,
            "time": 548,
            "velocity": 0.8267716535433071
          },
          {
            "duration": 0.451041666666697,
            "durationTicks": 433,
            "midi": 79,
            "name": "G5",
            "ticks": 526080,
            "time": 548,
            "velocity": 0.8267716535433071
          },
          {
            "duration": 0.451041666666697,
            "durationTicks": 433,
            "midi": 79,
            "name": "G5",
            "ticks": 526560,
            "time": 548.5,
            "velocity": 0.7952755905511811
          },
          {
            "duration": 0.451041666666697,
            "durationTicks": 433,
            "midi": 79,
            "name": "G5",
            "ticks": 526560,
            "time": 548.5,
            "velocity": 0.7952755905511811
          },
          {
            "duration": 0.451041666666697,
            "durationTicks": 433,
            "midi": 79,
            "name": "G5",
            "ticks": 527040,
            "time": 549,
            "velocity": 0.7952755905511811
          },
          {
            "duration": 0.451041666666697,
            "durationTicks": 433,
            "midi": 79,
            "name": "G5",
            "ticks": 527040,
            "time": 549,
            "velocity": 0.7952755905511811
          },
          {
            "duration": 0.451041666666697,
            "durationTicks": 433,
            "midi": 79,
            "name": "G5",
            "ticks": 527520,
            "time": 549.5,
            "velocity": 0.7637795275590551
          },
          {
            "duration": 0.451041666666697,
            "durationTicks": 433,
            "midi": 79,
            "name": "G5",
            "ticks": 527520,
            "time": 549.5,
            "velocity": 0.7637795275590551
          },
          {
            "duration": 0.451041666666697,
            "durationTicks": 433,
            "midi": 79,
            "name": "G5",
            "ticks": 528000,
            "time": 550,
            "velocity": 0.7716535433070866
          },
          {
            "duration": 0.451041666666697,
            "durationTicks": 433,
            "midi": 79,
            "name": "G5",
            "ticks": 528000,
            "time": 550,
            "velocity": 0.7716535433070866
          },
          {
            "duration": 0.451041666666697,
            "durationTicks": 433,
            "midi": 79,
            "name": "G5",
            "ticks": 528480,
            "time": 550.5,
            "velocity": 0.7480314960629921
          },
          {
            "duration": 0.451041666666697,
            "durationTicks": 433,
            "midi": 79,
            "name": "G5",
            "ticks": 528480,
            "time": 550.5,
            "velocity": 0.7480314960629921
          },
          {
            "duration": 0.451041666666697,
            "durationTicks": 433,
            "midi": 84,
            "name": "C6",
            "ticks": 528960,
            "time": 551,
            "velocity": 0.8582677165354331
          },
          {
            "duration": 0.451041666666697,
            "durationTicks": 433,
            "midi": 84,
            "name": "C6",
            "ticks": 529440,
            "time": 551.5,
            "velocity": 0.7716535433070866
          },
          {
            "duration": 0.451041666666697,
            "durationTicks": 433,
            "midi": 84,
            "name": "C6",
            "ticks": 529920,
            "time": 552,
            "velocity": 0.7716535433070866
          },
          {
            "duration": 0.451041666666697,
            "durationTicks": 433,
            "midi": 84,
            "name": "C6",
            "ticks": 530400,
            "time": 552.5,
            "velocity": 0.8110236220472441
          },
          {
            "duration": 0.451041666666697,
            "durationTicks": 433,
            "midi": 89,
            "name": "F6",
            "ticks": 530880,
            "time": 553,
            "velocity": 0.8582677165354331
          },
          {
            "duration": 0.451041666666697,
            "durationTicks": 433,
            "midi": 83,
            "name": "B5",
            "ticks": 530880,
            "time": 553,
            "velocity": 0.8582677165354331
          },
          {
            "duration": 0.451041666666697,
            "durationTicks": 433,
            "midi": 89,
            "name": "F6",
            "ticks": 531360,
            "time": 553.5,
            "velocity": 0.8031496062992126
          },
          {
            "duration": 0.451041666666697,
            "durationTicks": 433,
            "midi": 84,
            "name": "C6",
            "ticks": 531360,
            "time": 553.5,
            "velocity": 0.8031496062992126
          },
          {
            "duration": 0.451041666666697,
            "durationTicks": 433,
            "midi": 89,
            "name": "F6",
            "ticks": 531840,
            "time": 554,
            "velocity": 0.7244094488188977
          },
          {
            "duration": 0.451041666666697,
            "durationTicks": 433,
            "midi": 83,
            "name": "B5",
            "ticks": 531840,
            "time": 554,
            "velocity": 0.7244094488188977
          },
          {
            "duration": 0.451041666666697,
            "durationTicks": 433,
            "midi": 89,
            "name": "F6",
            "ticks": 532320,
            "time": 554.5,
            "velocity": 0.7952755905511811
          },
          {
            "duration": 0.451041666666697,
            "durationTicks": 433,
            "midi": 84,
            "name": "C6",
            "ticks": 532320,
            "time": 554.5,
            "velocity": 0.7952755905511811
          },
          {
            "duration": 0.451041666666697,
            "durationTicks": 433,
            "midi": 89,
            "name": "F6",
            "ticks": 532800,
            "time": 555,
            "velocity": 0.7716535433070866
          },
          {
            "duration": 0.451041666666697,
            "durationTicks": 433,
            "midi": 86,
            "name": "D6",
            "ticks": 532800,
            "time": 555,
            "velocity": 0.7716535433070866
          },
          {
            "duration": 1.8999999999999773,
            "durationTicks": 1824,
            "midi": 87,
            "name": "D#6",
            "ticks": 533280,
            "time": 555.5,
            "velocity": 0.7007874015748031
          },
          {
            "duration": 1.8999999999999773,
            "durationTicks": 1824,
            "midi": 84,
            "name": "C6",
            "ticks": 533280,
            "time": 555.5,
            "velocity": 0.7007874015748031
          },
          {
            "duration": 1.8999999999999773,
            "durationTicks": 1824,
            "midi": 89,
            "name": "F6",
            "ticks": 535200,
            "time": 557.5,
            "velocity": 0.8031496062992126
          },
          {
            "duration": 1.8999999999999773,
            "durationTicks": 1824,
            "midi": 84,
            "name": "C6",
            "ticks": 535200,
            "time": 557.5,
            "velocity": 0.8031496062992126
          },
          {
            "duration": 1.8999999999999773,
            "durationTicks": 1824,
            "midi": 91,
            "name": "G6",
            "ticks": 537120,
            "time": 559.5,
            "velocity": 0.8110236220472441
          },
          {
            "duration": 1.8999999999999773,
            "durationTicks": 1824,
            "midi": 84,
            "name": "C6",
            "ticks": 537120,
            "time": 559.5,
            "velocity": 0.8110236220472441
          },
          {
            "duration": 1.8999999999999773,
            "durationTicks": 1824,
            "midi": 89,
            "name": "F6",
            "ticks": 539040,
            "time": 561.5,
            "velocity": 0.7244094488188977
          },
          {
            "duration": 1.8999999999999773,
            "durationTicks": 1824,
            "midi": 84,
            "name": "C6",
            "ticks": 539040,
            "time": 561.5,
            "velocity": 0.7244094488188977
          },
          {
            "duration": 0.8999999999999773,
            "durationTicks": 864,
            "midi": 89,
            "name": "F6",
            "ticks": 540960,
            "time": 563.5,
            "velocity": 0.8031496062992126
          },
          {
            "duration": 0.8999999999999773,
            "durationTicks": 864,
            "midi": 86,
            "name": "D6",
            "ticks": 540960,
            "time": 563.5,
            "velocity": 0.8031496062992126
          },
          {
            "duration": 0.8999999999999773,
            "durationTicks": 864,
            "midi": 91,
            "name": "G6",
            "ticks": 541920,
            "time": 564.5,
            "velocity": 0.84251968503937
          },
          {
            "duration": 0.8999999999999773,
            "durationTicks": 864,
            "midi": 86,
            "name": "D6",
            "ticks": 541920,
            "time": 564.5,
            "velocity": 0.84251968503937
          },
          {
            "duration": 0.22500000000002274,
            "durationTicks": 216,
            "midi": 91,
            "name": "G6",
            "ticks": 542880,
            "time": 565.5,
            "velocity": 0.7952755905511811
          },
          {
            "duration": 0.22500000000002274,
            "durationTicks": 216,
            "midi": 87,
            "name": "D#6",
            "ticks": 542880,
            "time": 565.5,
            "velocity": 0.7952755905511811
          },
          {
            "duration": 0.22500000000002274,
            "durationTicks": 216,
            "midi": 92,
            "name": "G#6",
            "ticks": 543840,
            "time": 566.5,
            "velocity": 0.7086614173228346
          },
          {
            "duration": 0.22500000000002274,
            "durationTicks": 216,
            "midi": 87,
            "name": "D#6",
            "ticks": 543840,
            "time": 566.5,
            "velocity": 0.7086614173228346
          },
          {
            "duration": 0.22500000000002274,
            "durationTicks": 216,
            "midi": 92,
            "name": "G#6",
            "ticks": 544800,
            "time": 567.5,
            "velocity": 0.7086614173228346
          },
          {
            "duration": 0.22500000000002274,
            "durationTicks": 216,
            "midi": 86,
            "name": "D6",
            "ticks": 544800,
            "time": 567.5,
            "velocity": 0.7086614173228346
          },
          {
            "duration": 0.22500000000002274,
            "durationTicks": 216,
            "midi": 92,
            "name": "G#6",
            "ticks": 545760,
            "time": 568.5,
            "velocity": 0.7007874015748031
          },
          {
            "duration": 0.22500000000002274,
            "durationTicks": 216,
            "midi": 86,
            "name": "D6",
            "ticks": 545760,
            "time": 568.5,
            "velocity": 0.7007874015748031
          },
          {
            "duration": 0.22500000000002274,
            "durationTicks": 216,
            "midi": 91,
            "name": "G6",
            "ticks": 546720,
            "time": 569.5,
            "velocity": 0.6850393700787402
          },
          {
            "duration": 0.22500000000002274,
            "durationTicks": 216,
            "midi": 86,
            "name": "D6",
            "ticks": 546720,
            "time": 569.5,
            "velocity": 0.6850393700787402
          },
          {
            "duration": 0.22500000000002274,
            "durationTicks": 216,
            "midi": 91,
            "name": "G6",
            "ticks": 547680,
            "time": 570.5,
            "velocity": 0.7007874015748031
          },
          {
            "duration": 0.22500000000002274,
            "durationTicks": 216,
            "midi": 86,
            "name": "D6",
            "ticks": 547680,
            "time": 570.5,
            "velocity": 0.7007874015748031
          },
          {
            "duration": 0.8999999999999773,
            "durationTicks": 864,
            "midi": 84,
            "name": "C6",
            "ticks": 548640,
            "time": 571.5,
            "velocity": 0.6771653543307087
          },
          {
            "duration": 0.8999999999999773,
            "durationTicks": 864,
            "midi": 84,
            "name": "C6",
            "ticks": 548640,
            "time": 571.5,
            "velocity": 0.6771653543307087
          },
          {
            "duration": 0.22500000000002274,
            "durationTicks": 216,
            "midi": 86,
            "name": "D6",
            "ticks": 549600,
            "time": 572.5,
            "velocity": 0.8110236220472441
          },
          {
            "duration": 0.22500000000002274,
            "durationTicks": 216,
            "midi": 86,
            "name": "D6",
            "ticks": 549600,
            "time": 572.5,
            "velocity": 0.8110236220472441
          },
          {
            "duration": 0.22500000000002274,
            "durationTicks": 216,
            "midi": 87,
            "name": "D#6",
            "ticks": 550080,
            "time": 573,
            "velocity": 0.7952755905511811
          },
          {
            "duration": 0.22500000000002274,
            "durationTicks": 216,
            "midi": 87,
            "name": "D#6",
            "ticks": 550080,
            "time": 573,
            "velocity": 0.7952755905511811
          },
          {
            "duration": 0.5093749999999773,
            "durationTicks": 489,
            "midi": 89,
            "name": "F6",
            "ticks": 550560,
            "time": 573.5,
            "velocity": 0.8346456692913385
          },
          {
            "duration": 0.5093749999999773,
            "durationTicks": 489,
            "midi": 89,
            "name": "F6",
            "ticks": 550560,
            "time": 573.5,
            "velocity": 0.8346456692913385
          },
          {
            "duration": 0.47500000000002274,
            "durationTicks": 456,
            "midi": 86,
            "name": "D6",
            "ticks": 551040,
            "time": 574,
            "velocity": 0.8188976377952756
          },
          {
            "duration": 0.47500000000002274,
            "durationTicks": 456,
            "midi": 86,
            "name": "D6",
            "ticks": 551040,
            "time": 574,
            "velocity": 0.8188976377952756
          },
          {
            "duration": 0.22500000000002274,
            "durationTicks": 216,
            "midi": 89,
            "name": "F6",
            "ticks": 553440,
            "time": 576.5,
            "velocity": 0.8346456692913385
          },
          {
            "duration": 0.22500000000002274,
            "durationTicks": 216,
            "midi": 77,
            "name": "F5",
            "ticks": 553440,
            "time": 576.5,
            "velocity": 0.8346456692913385
          },
          {
            "duration": 0.22500000000002274,
            "durationTicks": 216,
            "midi": 91,
            "name": "G6",
            "ticks": 553920,
            "time": 577,
            "velocity": 0.84251968503937
          },
          {
            "duration": 0.22500000000002274,
            "durationTicks": 216,
            "midi": 79,
            "name": "G5",
            "ticks": 553920,
            "time": 577,
            "velocity": 0.84251968503937
          },
          {
            "duration": 0.5093749999999773,
            "durationTicks": 489,
            "midi": 92,
            "name": "G#6",
            "ticks": 554400,
            "time": 577.5,
            "velocity": 0.7952755905511811
          },
          {
            "duration": 0.5093749999999773,
            "durationTicks": 489,
            "midi": 80,
            "name": "G#5",
            "ticks": 554400,
            "time": 577.5,
            "velocity": 0.7952755905511811
          },
          {
            "duration": 0.47500000000002274,
            "durationTicks": 456,
            "midi": 89,
            "name": "F6",
            "ticks": 554880,
            "time": 578,
            "velocity": 0.7401574803149606
          },
          {
            "duration": 0.47500000000002274,
            "durationTicks": 456,
            "midi": 77,
            "name": "F5",
            "ticks": 554880,
            "time": 578,
            "velocity": 0.7401574803149606
          },
          {
            "duration": 0.22500000000002274,
            "durationTicks": 216,
            "midi": 84,
            "name": "C6",
            "ticks": 557280,
            "time": 580.5,
            "velocity": 0.6535433070866141
          },
          {
            "duration": 0.22500000000002274,
            "durationTicks": 216,
            "midi": 81,
            "name": "A5",
            "ticks": 557280,
            "time": 580.5,
            "velocity": 0.6535433070866141
          },
          {
            "duration": 0.22500000000002274,
            "durationTicks": 216,
            "midi": 86,
            "name": "D6",
            "ticks": 557760,
            "time": 581,
            "velocity": 0.8031496062992126
          },
          {
            "duration": 0.22500000000002274,
            "durationTicks": 216,
            "midi": 83,
            "name": "B5",
            "ticks": 557760,
            "time": 581,
            "velocity": 0.8031496062992126
          },
          {
            "duration": 0.5093749999999773,
            "durationTicks": 489,
            "midi": 87,
            "name": "D#6",
            "ticks": 558240,
            "time": 581.5,
            "velocity": 0.7795275590551181
          },
          {
            "duration": 0.5,
            "durationTicks": 480,
            "midi": 84,
            "name": "C6",
            "ticks": 558240,
            "time": 581.5,
            "velocity": 0.7795275590551181
          },
          {
            "duration": 0.47500000000002274,
            "durationTicks": 456,
            "midi": 79,
            "name": "G5",
            "ticks": 558720,
            "time": 582,
            "velocity": 0.7007874015748031
          },
          {
            "duration": 0.22500000000002274,
            "durationTicks": 216,
            "midi": 84,
            "name": "C6",
            "ticks": 561120,
            "time": 584.5,
            "velocity": 0.7795275590551181
          },
          {
            "duration": 0.22500000000002274,
            "durationTicks": 216,
            "midi": 81,
            "name": "A5",
            "ticks": 561120,
            "time": 584.5,
            "velocity": 0.7795275590551181
          },
          {
            "duration": 0.22500000000002274,
            "durationTicks": 216,
            "midi": 86,
            "name": "D6",
            "ticks": 561600,
            "time": 585,
            "velocity": 0.8188976377952756
          },
          {
            "duration": 0.22500000000002274,
            "durationTicks": 216,
            "midi": 83,
            "name": "B5",
            "ticks": 561600,
            "time": 585,
            "velocity": 0.8188976377952756
          },
          {
            "duration": 0.5093749999999773,
            "durationTicks": 489,
            "midi": 87,
            "name": "D#6",
            "ticks": 562080,
            "time": 585.5,
            "velocity": 0.7874015748031497
          },
          {
            "duration": 0.5093749999999773,
            "durationTicks": 489,
            "midi": 84,
            "name": "C6",
            "ticks": 562080,
            "time": 585.5,
            "velocity": 0.7874015748031497
          },
          {
            "duration": 0.5093749999999773,
            "durationTicks": 489,
            "midi": 86,
            "name": "D6",
            "ticks": 562560,
            "time": 586,
            "velocity": 0.7244094488188977
          },
          {
            "duration": 0.5093749999999773,
            "durationTicks": 489,
            "midi": 82,
            "name": "A#5",
            "ticks": 562560,
            "time": 586,
            "velocity": 0.7244094488188977
          },
          {
            "duration": 0.5093749999999773,
            "durationTicks": 489,
            "midi": 84,
            "name": "C6",
            "ticks": 563040,
            "time": 586.5,
            "velocity": 0.7322834645669292
          },
          {
            "duration": 0.5093749999999773,
            "durationTicks": 489,
            "midi": 80,
            "name": "G#5",
            "ticks": 563040,
            "time": 586.5,
            "velocity": 0.7322834645669292
          },
          {
            "duration": 0.5093749999999773,
            "durationTicks": 489,
            "midi": 82,
            "name": "A#5",
            "ticks": 563520,
            "time": 587,
            "velocity": 0.7086614173228346
          },
          {
            "duration": 0.5093749999999773,
            "durationTicks": 489,
            "midi": 79,
            "name": "G5",
            "ticks": 563520,
            "time": 587,
            "velocity": 0.7086614173228346
          },
          {
            "duration": 0.5093749999999773,
            "durationTicks": 489,
            "midi": 80,
            "name": "G#5",
            "ticks": 564000,
            "time": 587.5,
            "velocity": 0.7165354330708661
          },
          {
            "duration": 0.5093749999999773,
            "durationTicks": 489,
            "midi": 77,
            "name": "F5",
            "ticks": 564000,
            "time": 587.5,
            "velocity": 0.7165354330708661
          },
          {
            "duration": 0.47500000000002274,
            "durationTicks": 456,
            "midi": 79,
            "name": "G5",
            "ticks": 564480,
            "time": 588,
            "velocity": 0.6692913385826772
          },
          {
            "duration": 0.47500000000002274,
            "durationTicks": 456,
            "midi": 75,
            "name": "D#5",
            "ticks": 564480,
            "time": 588,
            "velocity": 0.6692913385826772
          },
          {
            "duration": 0.5093749999999773,
            "durationTicks": 489,
            "midi": 80,
            "name": "G#5",
            "ticks": 565920,
            "time": 589.5,
            "velocity": 0.905511811023622
          },
          {
            "duration": 0.5093749999999773,
            "durationTicks": 489,
            "midi": 77,
            "name": "F5",
            "ticks": 565920,
            "time": 589.5,
            "velocity": 0.905511811023622
          },
          {
            "duration": 0.47500000000002274,
            "durationTicks": 456,
            "midi": 79,
            "name": "G5",
            "ticks": 566400,
            "time": 590,
            "velocity": 0.8346456692913385
          },
          {
            "duration": 0.47500000000002274,
            "durationTicks": 456,
            "midi": 75,
            "name": "D#5",
            "ticks": 566400,
            "time": 590,
            "velocity": 0.8346456692913385
          },
          {
            "duration": 0.5093749999999773,
            "durationTicks": 489,
            "midi": 92,
            "name": "G#6",
            "ticks": 566880,
            "time": 590.5,
            "velocity": 0.9763779527559056
          },
          {
            "duration": 0.5093749999999773,
            "durationTicks": 489,
            "midi": 89,
            "name": "F6",
            "ticks": 566880,
            "time": 590.5,
            "velocity": 0.9763779527559056
          },
          {
            "duration": 0.47500000000002274,
            "durationTicks": 456,
            "midi": 91,
            "name": "G6",
            "ticks": 567360,
            "time": 591,
            "velocity": 0.984251968503937
          },
          {
            "duration": 0.47500000000002274,
            "durationTicks": 456,
            "midi": 87,
            "name": "D#6",
            "ticks": 567360,
            "time": 591,
            "velocity": 0.984251968503937
          },
          {
            "duration": 0.451041666666697,
            "durationTicks": 433,
            "midi": 91,
            "name": "G6",
            "ticks": 568320,
            "time": 592,
            "velocity": 0.7086614173228346
          },
          {
            "duration": 0.451041666666697,
            "durationTicks": 433,
            "midi": 84,
            "name": "C6",
            "ticks": 568320,
            "time": 592,
            "velocity": 0.7086614173228346
          },
          {
            "duration": 0.451041666666697,
            "durationTicks": 433,
            "midi": 91,
            "name": "G6",
            "ticks": 569280,
            "time": 593,
            "velocity": 0.6614173228346457
          },
          {
            "duration": 0.451041666666697,
            "durationTicks": 433,
            "midi": 86,
            "name": "D6",
            "ticks": 569280,
            "time": 593,
            "velocity": 0.6614173228346457
          },
          {
            "duration": 0.5093749999999773,
            "durationTicks": 489,
            "midi": 80,
            "name": "G#5",
            "ticks": 572640,
            "time": 596.5,
            "velocity": 0.5511811023622047
          },
          {
            "duration": 0.5093749999999773,
            "durationTicks": 489,
            "midi": 80,
            "name": "G#5",
            "ticks": 572640,
            "time": 596.5,
            "velocity": 0.5511811023622047
          },
          {
            "duration": 0.47500000000002274,
            "durationTicks": 456,
            "midi": 79,
            "name": "G5",
            "ticks": 573120,
            "time": 597,
            "velocity": 0.4881889763779528
          },
          {
            "duration": 0.47500000000002274,
            "durationTicks": 456,
            "midi": 79,
            "name": "G5",
            "ticks": 573120,
            "time": 597,
            "velocity": 0.4881889763779528
          },
          {
            "duration": 0.5093749999999773,
            "durationTicks": 489,
            "midi": 92,
            "name": "G#6",
            "ticks": 574560,
            "time": 598.5,
            "velocity": 0.9606299212598425
          },
          {
            "duration": 0.5093749999999773,
            "durationTicks": 489,
            "midi": 89,
            "name": "F6",
            "ticks": 574560,
            "time": 598.5,
            "velocity": 0.9606299212598425
          },
          {
            "duration": 0.47500000000002274,
            "durationTicks": 456,
            "midi": 91,
            "name": "G6",
            "ticks": 575040,
            "time": 599,
            "velocity": 0.952755905511811
          },
          {
            "duration": 0.47500000000002274,
            "durationTicks": 456,
            "midi": 87,
            "name": "D#6",
            "ticks": 575040,
            "time": 599,
            "velocity": 0.952755905511811
          },
          {
            "duration": 0.451041666666697,
            "durationTicks": 433,
            "midi": 91,
            "name": "G6",
            "ticks": 576000,
            "time": 600,
            "velocity": 0.6771653543307087
          },
          {
            "duration": 0.451041666666697,
            "durationTicks": 433,
            "midi": 87,
            "name": "D#6",
            "ticks": 576000,
            "time": 600,
            "velocity": 0.6771653543307087
          },
          {
            "duration": 0.451041666666697,
            "durationTicks": 433,
            "midi": 91,
            "name": "G6",
            "ticks": 576960,
            "time": 601,
            "velocity": 0.6771653543307087
          },
          {
            "duration": 0.451041666666697,
            "durationTicks": 433,
            "midi": 86,
            "name": "D6",
            "ticks": 576960,
            "time": 601,
            "velocity": 0.6771653543307087
          },
          {
            "duration": 0.451041666666697,
            "durationTicks": 433,
            "midi": 84,
            "name": "C6",
            "ticks": 577440,
            "time": 601.5,
            "velocity": 0.6220472440944882
          },
          {
            "duration": 0.22604166666667425,
            "durationTicks": 217,
            "midi": 91,
            "name": "G6",
            "ticks": 578640,
            "time": 602.75,
            "velocity": 0.6850393700787402
          },
          {
            "duration": 0.22604166666667425,
            "durationTicks": 217,
            "midi": 86,
            "name": "D6",
            "ticks": 578640,
            "time": 602.75,
            "velocity": 0.6850393700787402
          },
          {
            "duration": 0.22604166666667425,
            "durationTicks": 217,
            "midi": 91,
            "name": "G6",
            "ticks": 578880,
            "time": 603,
            "velocity": 0.7716535433070866
          },
          {
            "duration": 0.22604166666667425,
            "durationTicks": 217,
            "midi": 86,
            "name": "D6",
            "ticks": 578880,
            "time": 603,
            "velocity": 0.7716535433070866
          },
          {
            "duration": 0.22604166666667425,
            "durationTicks": 217,
            "midi": 91,
            "name": "G6",
            "ticks": 579120,
            "time": 603.25,
            "velocity": 0.7637795275590551
          },
          {
            "duration": 0.22604166666667425,
            "durationTicks": 217,
            "midi": 86,
            "name": "D6",
            "ticks": 579120,
            "time": 603.25,
            "velocity": 0.7637795275590551
          },
          {
            "duration": 3.8999999999999773,
            "durationTicks": 3744,
            "midi": 91,
            "name": "G6",
            "ticks": 579360,
            "time": 603.5,
            "velocity": 0.7795275590551181
          },
          {
            "duration": 1.451041666666697,
            "durationTicks": 1393,
            "midi": 86,
            "name": "D6",
            "ticks": 579360,
            "time": 603.5,
            "velocity": 0.9763779527559056
          },
          {
            "duration": 0.5093749999999773,
            "durationTicks": 489,
            "midi": 87,
            "name": "D#6",
            "ticks": 580800,
            "time": 605,
            "velocity": 0.937007874015748
          },
          {
            "duration": 0.5093749999999773,
            "durationTicks": 489,
            "midi": 89,
            "name": "F6",
            "ticks": 581280,
            "time": 605.5,
            "velocity": 1
          },
          {
            "duration": 0.5093749999999773,
            "durationTicks": 489,
            "midi": 86,
            "name": "D6",
            "ticks": 581760,
            "time": 606,
            "velocity": 0.8188976377952756
          },
          {
            "duration": 0.5093749999999773,
            "durationTicks": 489,
            "midi": 87,
            "name": "D#6",
            "ticks": 582240,
            "time": 606.5,
            "velocity": 0.8503937007874016
          },
          {
            "duration": 0.47500000000002274,
            "durationTicks": 456,
            "midi": 89,
            "name": "F6",
            "ticks": 582720,
            "time": 607,
            "velocity": 0.9448818897637795
          },
          {
            "duration": 0.451041666666697,
            "durationTicks": 433,
            "midi": 91,
            "name": "G6",
            "ticks": 583200,
            "time": 607.5,
            "velocity": 0.7795275590551181
          },
          {
            "duration": 0.451041666666697,
            "durationTicks": 433,
            "midi": 87,
            "name": "D#6",
            "ticks": 583200,
            "time": 607.5,
            "velocity": 0.7795275590551181
          },
          {
            "duration": 0.22604166666667425,
            "durationTicks": 217,
            "midi": 91,
            "name": "G6",
            "ticks": 584400,
            "time": 608.75,
            "velocity": 0.7007874015748031
          },
          {
            "duration": 0.22604166666667425,
            "durationTicks": 217,
            "midi": 79,
            "name": "G5",
            "ticks": 584400,
            "time": 608.75,
            "velocity": 0.7007874015748031
          },
          {
            "duration": 0.22604166666667425,
            "durationTicks": 217,
            "midi": 91,
            "name": "G6",
            "ticks": 584640,
            "time": 609,
            "velocity": 0.7322834645669292
          },
          {
            "duration": 0.22604166666667425,
            "durationTicks": 217,
            "midi": 79,
            "name": "G5",
            "ticks": 584640,
            "time": 609,
            "velocity": 0.7322834645669292
          },
          {
            "duration": 0.22604166666667425,
            "durationTicks": 217,
            "midi": 91,
            "name": "G6",
            "ticks": 584880,
            "time": 609.25,
            "velocity": 0.7716535433070866
          },
          {
            "duration": 0.22604166666667425,
            "durationTicks": 217,
            "midi": 79,
            "name": "G5",
            "ticks": 584880,
            "time": 609.25,
            "velocity": 0.7716535433070866
          },
          {
            "duration": 0.22604166666667425,
            "durationTicks": 217,
            "midi": 91,
            "name": "G6",
            "ticks": 585120,
            "time": 609.5,
            "velocity": 0.7795275590551181
          },
          {
            "duration": 0.22604166666667425,
            "durationTicks": 217,
            "midi": 79,
            "name": "G5",
            "ticks": 585120,
            "time": 609.5,
            "velocity": 0.7795275590551181
          },
          {
            "duration": 0.22604166666667425,
            "durationTicks": 217,
            "midi": 91,
            "name": "G6",
            "ticks": 585360,
            "time": 609.75,
            "velocity": 0.7716535433070866
          },
          {
            "duration": 0.22604166666667425,
            "durationTicks": 217,
            "midi": 79,
            "name": "G5",
            "ticks": 585360,
            "time": 609.75,
            "velocity": 0.7716535433070866
          },
          {
            "duration": 0.22604166666667425,
            "durationTicks": 217,
            "midi": 91,
            "name": "G6",
            "ticks": 585600,
            "time": 610,
            "velocity": 0.7795275590551181
          },
          {
            "duration": 0.22604166666667425,
            "durationTicks": 217,
            "midi": 79,
            "name": "G5",
            "ticks": 585600,
            "time": 610,
            "velocity": 0.7795275590551181
          },
          {
            "duration": 0.22604166666667425,
            "durationTicks": 217,
            "midi": 91,
            "name": "G6",
            "ticks": 585840,
            "time": 610.25,
            "velocity": 0.7716535433070866
          },
          {
            "duration": 0.22604166666667425,
            "durationTicks": 217,
            "midi": 79,
            "name": "G5",
            "ticks": 585840,
            "time": 610.25,
            "velocity": 0.7716535433070866
          },
          {
            "duration": 0.22604166666667425,
            "durationTicks": 217,
            "midi": 91,
            "name": "G6",
            "ticks": 586080,
            "time": 610.5,
            "velocity": 0.7716535433070866
          },
          {
            "duration": 0.22604166666667425,
            "durationTicks": 217,
            "midi": 79,
            "name": "G5",
            "ticks": 586080,
            "time": 610.5,
            "velocity": 0.7716535433070866
          },
          {
            "duration": 0.22604166666667425,
            "durationTicks": 217,
            "midi": 91,
            "name": "G6",
            "ticks": 586320,
            "time": 610.75,
            "velocity": 0.7480314960629921
          },
          {
            "duration": 0.22604166666667425,
            "durationTicks": 217,
            "midi": 79,
            "name": "G5",
            "ticks": 586320,
            "time": 610.75,
            "velocity": 0.7480314960629921
          },
          {
            "duration": 0.22604166666667425,
            "durationTicks": 217,
            "midi": 91,
            "name": "G6",
            "ticks": 586560,
            "time": 611,
            "velocity": 0.7795275590551181
          },
          {
            "duration": 0.22604166666667425,
            "durationTicks": 217,
            "midi": 79,
            "name": "G5",
            "ticks": 586560,
            "time": 611,
            "velocity": 0.7795275590551181
          },
          {
            "duration": 0.22604166666667425,
            "durationTicks": 217,
            "midi": 91,
            "name": "G6",
            "ticks": 586800,
            "time": 611.25,
            "velocity": 0.7795275590551181
          },
          {
            "duration": 0.22604166666667425,
            "durationTicks": 217,
            "midi": 79,
            "name": "G5",
            "ticks": 586800,
            "time": 611.25,
            "velocity": 0.7795275590551181
          },
          {
            "duration": 1.5,
            "durationTicks": 1440,
            "midi": 91,
            "name": "G6",
            "ticks": 587040,
            "time": 611.5,
            "velocity": 0.9133858267716536
          },
          {
            "duration": 1.5,
            "durationTicks": 1440,
            "midi": 87,
            "name": "D#6",
            "ticks": 587040,
            "time": 611.5,
            "velocity": 0.9133858267716536
          },
          {
            "duration": 0.22604166666667425,
            "durationTicks": 217,
            "midi": 91,
            "name": "G6",
            "ticks": 588720,
            "time": 613.25,
            "velocity": 0.8031496062992126
          },
          {
            "duration": 0.22604166666667425,
            "durationTicks": 217,
            "midi": 89,
            "name": "F6",
            "ticks": 588720,
            "time": 613.25,
            "velocity": 0.8031496062992126
          },
          {
            "duration": 0.22604166666667425,
            "durationTicks": 217,
            "midi": 91,
            "name": "G6",
            "ticks": 588960,
            "time": 613.5,
            "velocity": 0.889763779527559
          },
          {
            "duration": 0.22604166666667425,
            "durationTicks": 217,
            "midi": 89,
            "name": "F6",
            "ticks": 588960,
            "time": 613.5,
            "velocity": 0.889763779527559
          },
          {
            "duration": 0.22604166666667425,
            "durationTicks": 217,
            "midi": 91,
            "name": "G6",
            "ticks": 589200,
            "time": 613.75,
            "velocity": 0.889763779527559
          },
          {
            "duration": 0.22604166666667425,
            "durationTicks": 217,
            "midi": 89,
            "name": "F6",
            "ticks": 589200,
            "time": 613.75,
            "velocity": 0.889763779527559
          },
          {
            "duration": 2.5,
            "durationTicks": 2400,
            "midi": 91,
            "name": "G6",
            "ticks": 589440,
            "time": 614,
            "velocity": 0.8661417322834646
          },
          {
            "duration": 2.5,
            "durationTicks": 2400,
            "midi": 86,
            "name": "D6",
            "ticks": 589440,
            "time": 614,
            "velocity": 0.8661417322834646
          },
          {
            "duration": 0.22604166666667425,
            "durationTicks": 217,
            "midi": 86,
            "name": "D6",
            "ticks": 599760,
            "time": 624.75,
            "velocity": 0.7637795275590551
          },
          {
            "duration": 0.22604166666667425,
            "durationTicks": 217,
            "midi": 83,
            "name": "B5",
            "ticks": 599760,
            "time": 624.75,
            "velocity": 0.7637795275590551
          },
          {
            "duration": 0.22604166666667425,
            "durationTicks": 217,
            "midi": 86,
            "name": "D6",
            "ticks": 600000,
            "time": 625,
            "velocity": 0.8661417322834646
          },
          {
            "duration": 0.22604166666667425,
            "durationTicks": 217,
            "midi": 83,
            "name": "B5",
            "ticks": 600000,
            "time": 625,
            "velocity": 0.8661417322834646
          },
          {
            "duration": 0.22604166666667425,
            "durationTicks": 217,
            "midi": 86,
            "name": "D6",
            "ticks": 600240,
            "time": 625.25,
            "velocity": 0.8503937007874016
          },
          {
            "duration": 0.22604166666667425,
            "durationTicks": 217,
            "midi": 83,
            "name": "B5",
            "ticks": 600240,
            "time": 625.25,
            "velocity": 0.8503937007874016
          },
          {
            "duration": 0.451041666666697,
            "durationTicks": 433,
            "midi": 87,
            "name": "D#6",
            "ticks": 600480,
            "time": 625.5,
            "velocity": 0.8976377952755905
          },
          {
            "duration": 0.451041666666697,
            "durationTicks": 433,
            "midi": 84,
            "name": "C6",
            "ticks": 600480,
            "time": 625.5,
            "velocity": 0.8976377952755905
          },
          {
            "duration": 0.22604166666667425,
            "durationTicks": 217,
            "midi": 86,
            "name": "D6",
            "ticks": 601680,
            "time": 626.75,
            "velocity": 0.7795275590551181
          },
          {
            "duration": 0.22604166666667425,
            "durationTicks": 217,
            "midi": 83,
            "name": "B5",
            "ticks": 601680,
            "time": 626.75,
            "velocity": 0.7795275590551181
          },
          {
            "duration": 0.22604166666667425,
            "durationTicks": 217,
            "midi": 86,
            "name": "D6",
            "ticks": 601920,
            "time": 627,
            "velocity": 0.8818897637795275
          },
          {
            "duration": 0.22604166666667425,
            "durationTicks": 217,
            "midi": 83,
            "name": "B5",
            "ticks": 601920,
            "time": 627,
            "velocity": 0.8818897637795275
          },
          {
            "duration": 0.22604166666667425,
            "durationTicks": 217,
            "midi": 86,
            "name": "D6",
            "ticks": 602160,
            "time": 627.25,
            "velocity": 0.8818897637795275
          },
          {
            "duration": 0.22604166666667425,
            "durationTicks": 217,
            "midi": 83,
            "name": "B5",
            "ticks": 602160,
            "time": 627.25,
            "velocity": 0.8818897637795275
          },
          {
            "duration": 0.451041666666697,
            "durationTicks": 433,
            "midi": 87,
            "name": "D#6",
            "ticks": 602400,
            "time": 627.5,
            "velocity": 0.952755905511811
          },
          {
            "duration": 0.451041666666697,
            "durationTicks": 433,
            "midi": 84,
            "name": "C6",
            "ticks": 602400,
            "time": 627.5,
            "velocity": 0.952755905511811
          },
          {
            "duration": 0.22604166666667425,
            "durationTicks": 217,
            "midi": 86,
            "name": "D6",
            "ticks": 603600,
            "time": 628.75,
            "velocity": 0.8188976377952756
          },
          {
            "duration": 0.22604166666667425,
            "durationTicks": 217,
            "midi": 83,
            "name": "B5",
            "ticks": 603600,
            "time": 628.75,
            "velocity": 0.8188976377952756
          },
          {
            "duration": 0.22604166666667425,
            "durationTicks": 217,
            "midi": 86,
            "name": "D6",
            "ticks": 603840,
            "time": 629,
            "velocity": 0.8582677165354331
          },
          {
            "duration": 0.22604166666667425,
            "durationTicks": 217,
            "midi": 83,
            "name": "B5",
            "ticks": 603840,
            "time": 629,
            "velocity": 0.8582677165354331
          },
          {
            "duration": 0.22604166666667425,
            "durationTicks": 217,
            "midi": 86,
            "name": "D6",
            "ticks": 604080,
            "time": 629.25,
            "velocity": 0.8818897637795275
          },
          {
            "duration": 0.22604166666667425,
            "durationTicks": 217,
            "midi": 83,
            "name": "B5",
            "ticks": 604080,
            "time": 629.25,
            "velocity": 0.8818897637795275
          },
          {
            "duration": 0.451041666666697,
            "durationTicks": 433,
            "midi": 87,
            "name": "D#6",
            "ticks": 604320,
            "time": 629.5,
            "velocity": 0.937007874015748
          },
          {
            "duration": 0.451041666666697,
            "durationTicks": 433,
            "midi": 84,
            "name": "C6",
            "ticks": 604320,
            "time": 629.5,
            "velocity": 0.937007874015748
          },
          {
            "duration": 0.451041666666697,
            "durationTicks": 433,
            "midi": 91,
            "name": "G6",
            "ticks": 604800,
            "time": 630,
            "velocity": 0.984251968503937
          },
          {
            "duration": 0.451041666666697,
            "durationTicks": 433,
            "midi": 86,
            "name": "D6",
            "ticks": 604800,
            "time": 630,
            "velocity": 0.984251968503937
          },
          {
            "duration": 0.451041666666697,
            "durationTicks": 433,
            "midi": 91,
            "name": "G6",
            "ticks": 605280,
            "time": 630.5,
            "velocity": 0.9133858267716536
          },
          {
            "duration": 0.451041666666697,
            "durationTicks": 433,
            "midi": 87,
            "name": "D#6",
            "ticks": 605280,
            "time": 630.5,
            "velocity": 0.9133858267716536
          },
          {
            "duration": 0.451041666666697,
            "durationTicks": 433,
            "midi": 91,
            "name": "G6",
            "ticks": 605760,
            "time": 631,
            "velocity": 0.9212598425196851
          },
          {
            "duration": 0.451041666666697,
            "durationTicks": 433,
            "midi": 86,
            "name": "D6",
            "ticks": 605760,
            "time": 631,
            "velocity": 0.9212598425196851
          },
          {
            "duration": 0.451041666666697,
            "durationTicks": 433,
            "midi": 91,
            "name": "G6",
            "ticks": 606240,
            "time": 631.5,
            "velocity": 0.905511811023622
          },
          {
            "duration": 0.451041666666697,
            "durationTicks": 433,
            "midi": 87,
            "name": "D#6",
            "ticks": 606240,
            "time": 631.5,
            "velocity": 0.905511811023622
          },
          {
            "duration": 0.451041666666697,
            "durationTicks": 433,
            "midi": 91,
            "name": "G6",
            "ticks": 606720,
            "time": 632,
            "velocity": 0.8740157480314961
          },
          {
            "duration": 0.451041666666697,
            "durationTicks": 433,
            "midi": 86,
            "name": "D6",
            "ticks": 606720,
            "time": 632,
            "velocity": 0.8740157480314961
          },
          {
            "duration": 0.451041666666697,
            "durationTicks": 433,
            "midi": 91,
            "name": "G6",
            "ticks": 607200,
            "time": 632.5,
            "velocity": 0.9133858267716536
          },
          {
            "duration": 0.451041666666697,
            "durationTicks": 433,
            "midi": 87,
            "name": "D#6",
            "ticks": 607200,
            "time": 632.5,
            "velocity": 0.9133858267716536
          },
          {
            "duration": 0.451041666666697,
            "durationTicks": 433,
            "midi": 91,
            "name": "G6",
            "ticks": 607680,
            "time": 633,
            "velocity": 0.937007874015748
          },
          {
            "duration": 0.451041666666697,
            "durationTicks": 433,
            "midi": 86,
            "name": "D6",
            "ticks": 607680,
            "time": 633,
            "velocity": 0.937007874015748
          },
          {
            "duration": 0.451041666666697,
            "durationTicks": 433,
            "midi": 91,
            "name": "G6",
            "ticks": 608160,
            "time": 633.5,
            "velocity": 0.889763779527559
          },
          {
            "duration": 0.451041666666697,
            "durationTicks": 433,
            "midi": 87,
            "name": "D#6",
            "ticks": 608160,
            "time": 633.5,
            "velocity": 0.889763779527559
          },
          {
            "duration": 0.451041666666697,
            "durationTicks": 433,
            "midi": 83,
            "name": "B5",
            "ticks": 609120,
            "time": 634.5,
            "velocity": 0.7716535433070866
          },
          {
            "duration": 0.451041666666697,
            "durationTicks": 433,
            "midi": 79,
            "name": "G5",
            "ticks": 609120,
            "time": 634.5,
            "velocity": 0.7716535433070866
          },
          {
            "duration": 0.451041666666697,
            "durationTicks": 433,
            "midi": 84,
            "name": "C6",
            "ticks": 610080,
            "time": 635.5,
            "velocity": 0.8031496062992126
          },
          {
            "duration": 0.451041666666697,
            "durationTicks": 433,
            "midi": 79,
            "name": "G5",
            "ticks": 610080,
            "time": 635.5,
            "velocity": 0.8031496062992126
          }
        ],
        "endOfTrackTicks": 610513
      },
      {
        "channel": 1,
        "controlChanges": {
          "7": [
            {
              "number": 7,
              "ticks": 0,
              "time": 0,
              "value": 0.48031496062992124
            }
          ],
          "10": [
            {
              "number": 10,
              "ticks": 0,
              "time": 0,
              "value": 0.5669291338582677
            }
          ],
          "64": [
            {
              "number": 64,
              "ticks": 0,
              "time": 0,
              "value": 0
            }
          ],
          "121": [
            {
              "number": 121,
              "ticks": 0,
              "time": 0,
              "value": 0
            }
          ]
        },
        "pitchBends": [],
        "instrument": {
          "family": "reed",
          "number": 68,
          "name": "oboe"
        },
        "name": "",
        "notes": [
          {
            "duration": 0.22604166666666714,
            "durationTicks": 217,
            "midi": 74,
            "name": "D5",
            "ticks": 17520,
            "time": 18.25,
            "velocity": 0.4409448818897638
          },
          {
            "duration": 0.22604166666666714,
            "durationTicks": 217,
            "midi": 79,
            "name": "G5",
            "ticks": 17520,
            "time": 18.25,
            "velocity": 0.4409448818897638
          },
          {
            "duration": 0.22604166666666714,
            "durationTicks": 217,
            "midi": 74,
            "name": "D5",
            "ticks": 17760,
            "time": 18.5,
            "velocity": 0.5118110236220472
          },
          {
            "duration": 0.22604166666666714,
            "durationTicks": 217,
            "midi": 79,
            "name": "G5",
            "ticks": 17760,
            "time": 18.5,
            "velocity": 0.5118110236220472
          },
          {
            "duration": 0.22604166666666714,
            "durationTicks": 217,
            "midi": 74,
            "name": "D5",
            "ticks": 18000,
            "time": 18.75,
            "velocity": 0.5748031496062992
          },
          {
            "duration": 0.22604166666666714,
            "durationTicks": 217,
            "midi": 77,
            "name": "F5",
            "ticks": 18000,
            "time": 18.75,
            "velocity": 0.5748031496062992
          },
          {
            "duration": 0.451041666666665,
            "durationTicks": 433,
            "midi": 72,
            "name": "C5",
            "ticks": 18240,
            "time": 19,
            "velocity": 0.7244094488188977
          },
          {
            "duration": 0.451041666666665,
            "durationTicks": 433,
            "midi": 75,
            "name": "D#5",
            "ticks": 18240,
            "time": 19,
            "velocity": 0.7244094488188977
          },
          {
            "duration": 0.451041666666665,
            "durationTicks": 433,
            "midi": 72,
            "name": "C5",
            "ticks": 19200,
            "time": 20,
            "velocity": 0.6456692913385826
          },
          {
            "duration": 0.451041666666665,
            "durationTicks": 433,
            "midi": 78,
            "name": "F#5",
            "ticks": 19200,
            "time": 20,
            "velocity": 0.6456692913385826
          },
          {
            "duration": 0.451041666666665,
            "durationTicks": 433,
            "midi": 71,
            "name": "B4",
            "ticks": 20160,
            "time": 21,
            "velocity": 0.7086614173228346
          },
          {
            "duration": 0.451041666666665,
            "durationTicks": 433,
            "midi": 79,
            "name": "G5",
            "ticks": 20160,
            "time": 21,
            "velocity": 0.7086614173228346
          },
          {
            "duration": 0.22604166666666714,
            "durationTicks": 217,
            "midi": 80,
            "name": "G#5",
            "ticks": 21600,
            "time": 22.5,
            "velocity": 0.6614173228346457
          },
          {
            "duration": 0.22604166666666714,
            "durationTicks": 217,
            "midi": 80,
            "name": "G#5",
            "ticks": 21840,
            "time": 22.75,
            "velocity": 0.7637795275590551
          },
          {
            "duration": 0.22604166666666714,
            "durationTicks": 217,
            "midi": 80,
            "name": "G#5",
            "ticks": 22080,
            "time": 23,
            "velocity": 0.7716535433070866
          },
          {
            "duration": 2.5,
            "durationTicks": 2400,
            "midi": 77,
            "name": "F5",
            "ticks": 22320,
            "time": 23.25,
            "velocity": 0.7322834645669292
          },
          {
            "duration": 0.22604166666666714,
            "durationTicks": 217,
            "midi": 77,
            "name": "F5",
            "ticks": 31680,
            "time": 33,
            "velocity": 0.4409448818897638
          },
          {
            "duration": 0.22604166666666714,
            "durationTicks": 217,
            "midi": 77,
            "name": "F5",
            "ticks": 31920,
            "time": 33.25,
            "velocity": 0.49606299212598426
          },
          {
            "duration": 0.22604166666666714,
            "durationTicks": 217,
            "midi": 77,
            "name": "F5",
            "ticks": 32160,
            "time": 33.5,
            "velocity": 0.4566929133858268
          },
          {
            "duration": 0.45104166666666856,
            "durationTicks": 433,
            "midi": 75,
            "name": "D#5",
            "ticks": 32400,
            "time": 33.75,
            "velocity": 0.4645669291338583
          },
          {
            "duration": 1.4510416666666686,
            "durationTicks": 1393,
            "midi": 75,
            "name": "D#5",
            "ticks": 35280,
            "time": 36.75,
            "velocity": 0.4251968503937008
          },
          {
            "duration": 1.4510416666666686,
            "durationTicks": 1393,
            "midi": 79,
            "name": "G5",
            "ticks": 35280,
            "time": 36.75,
            "velocity": 0.4251968503937008
          },
          {
            "duration": 0.45104166666666856,
            "durationTicks": 433,
            "midi": 77,
            "name": "F5",
            "ticks": 37200,
            "time": 38.75,
            "velocity": 0.5433070866141733
          },
          {
            "duration": 0.45104166666666856,
            "durationTicks": 433,
            "midi": 80,
            "name": "G#5",
            "ticks": 37200,
            "time": 38.75,
            "velocity": 0.5433070866141733
          },
          {
            "duration": 0.45104166666666856,
            "durationTicks": 433,
            "midi": 76,
            "name": "E5",
            "ticks": 38160,
            "time": 39.75,
            "velocity": 0.5354330708661418
          },
          {
            "duration": 0.45104166666666856,
            "durationTicks": 433,
            "midi": 79,
            "name": "G5",
            "ticks": 38160,
            "time": 39.75,
            "velocity": 0.5354330708661418
          },
          {
            "duration": 0.45104166666666856,
            "durationTicks": 433,
            "midi": 77,
            "name": "F5",
            "ticks": 39120,
            "time": 40.75,
            "velocity": 0.5039370078740157
          },
          {
            "duration": 0.45104166666666856,
            "durationTicks": 433,
            "midi": 80,
            "name": "G#5",
            "ticks": 39120,
            "time": 40.75,
            "velocity": 0.5039370078740157
          },
          {
            "duration": 0.45104166666666856,
            "durationTicks": 433,
            "midi": 79,
            "name": "G5",
            "ticks": 40080,
            "time": 41.75,
            "velocity": 0.49606299212598426
          },
          {
            "duration": 0.45104166666666856,
            "durationTicks": 433,
            "midi": 82,
            "name": "A#5",
            "ticks": 40080,
            "time": 41.75,
            "velocity": 0.49606299212598426
          },
          {
            "duration": 0.45104166666666856,
            "durationTicks": 433,
            "midi": 77,
            "name": "F5",
            "ticks": 41040,
            "time": 42.75,
            "velocity": 0.5196850393700787
          },
          {
            "duration": 0.45104166666666856,
            "durationTicks": 433,
            "midi": 80,
            "name": "G#5",
            "ticks": 41040,
            "time": 42.75,
            "velocity": 0.5196850393700787
          },
          {
            "duration": 0.45104166666666856,
            "durationTicks": 433,
            "midi": 77,
            "name": "F5",
            "ticks": 42000,
            "time": 43.75,
            "velocity": 0.4409448818897638
          },
          {
            "duration": 0.45104166666666856,
            "durationTicks": 433,
            "midi": 80,
            "name": "G#5",
            "ticks": 42000,
            "time": 43.75,
            "velocity": 0.4409448818897638
          },
          {
            "duration": 3.8999999999999986,
            "durationTicks": 3744,
            "midi": 75,
            "name": "D#5",
            "ticks": 42960,
            "time": 44.75,
            "velocity": 0.7007874015748031
          },
          {
            "duration": 3.8999999999999986,
            "durationTicks": 3744,
            "midi": 79,
            "name": "G5",
            "ticks": 42960,
            "time": 44.75,
            "velocity": 0.7007874015748031
          },
          {
            "duration": 3.4510416666666686,
            "durationTicks": 3313,
            "midi": 77,
            "name": "F5",
            "ticks": 46800,
            "time": 48.75,
            "velocity": 0.7637795275590551
          },
          {
            "duration": 3.4510416666666686,
            "durationTicks": 3313,
            "midi": 79,
            "name": "G5",
            "ticks": 46800,
            "time": 48.75,
            "velocity": 0.7637795275590551
          },
          {
            "duration": 0.45104166666666856,
            "durationTicks": 433,
            "midi": 75,
            "name": "D#5",
            "ticks": 50160,
            "time": 52.25,
            "velocity": 0.7795275590551181
          },
          {
            "duration": 0.45104166666666856,
            "durationTicks": 433,
            "midi": 79,
            "name": "G5",
            "ticks": 50160,
            "time": 52.25,
            "velocity": 0.7795275590551181
          },
          {
            "duration": 3.8999999999999986,
            "durationTicks": 3744,
            "midi": 75,
            "name": "D#5",
            "ticks": 50640,
            "time": 52.75,
            "velocity": 0.84251968503937
          },
          {
            "duration": 3.8999999999999986,
            "durationTicks": 3744,
            "midi": 78,
            "name": "F#5",
            "ticks": 50640,
            "time": 52.75,
            "velocity": 0.84251968503937
          },
          {
            "duration": 0.45104166666666856,
            "durationTicks": 433,
            "midi": 75,
            "name": "D#5",
            "ticks": 54480,
            "time": 56.75,
            "velocity": 0.889763779527559
          },
          {
            "duration": 0.45104166666666856,
            "durationTicks": 433,
            "midi": 78,
            "name": "F#5",
            "ticks": 54480,
            "time": 56.75,
            "velocity": 0.889763779527559
          },
          {
            "duration": 0.45104166666666856,
            "durationTicks": 433,
            "midi": 70,
            "name": "A#4",
            "ticks": 56400,
            "time": 58.75,
            "velocity": 0.8031496062992126
          },
          {
            "duration": 0.45104166666666856,
            "durationTicks": 433,
            "midi": 77,
            "name": "F5",
            "ticks": 56400,
            "time": 58.75,
            "velocity": 0.8031496062992126
          },
          {
            "duration": 1.9000000000000057,
            "durationTicks": 1824,
            "midi": 84,
            "name": "C6",
            "ticks": 81360,
            "time": 84.75,
            "velocity": 0.4330708661417323
          },
          {
            "duration": 1.9000000000000057,
            "durationTicks": 1824,
            "midi": 82,
            "name": "A#5",
            "ticks": 83280,
            "time": 86.75,
            "velocity": 0.5196850393700787
          },
          {
            "duration": 4.451041666666669,
            "durationTicks": 4273,
            "midi": 81,
            "name": "A5",
            "ticks": 85200,
            "time": 88.75,
            "velocity": 0.6377952755905512
          },
          {
            "duration": 0.45104166666666856,
            "durationTicks": 433,
            "midi": 81,
            "name": "A5",
            "ticks": 89520,
            "time": 93.25,
            "velocity": 0.6692913385826772
          },
          {
            "duration": 0.45104166666666856,
            "durationTicks": 433,
            "midi": 81,
            "name": "A5",
            "ticks": 90000,
            "time": 93.75,
            "velocity": 0.7401574803149606
          },
          {
            "duration": 0.45104166666666856,
            "durationTicks": 433,
            "midi": 81,
            "name": "A5",
            "ticks": 90480,
            "time": 94.25,
            "velocity": 0.7637795275590551
          },
          {
            "duration": 1.4510416666666686,
            "durationTicks": 1393,
            "midi": 77,
            "name": "F5",
            "ticks": 90960,
            "time": 94.75,
            "velocity": 0.8740157480314961
          },
          {
            "duration": 1.4510416666666686,
            "durationTicks": 1393,
            "midi": 80,
            "name": "G#5",
            "ticks": 90960,
            "time": 94.75,
            "velocity": 0.8740157480314961
          },
          {
            "duration": 0.45104166666666856,
            "durationTicks": 433,
            "midi": 77,
            "name": "F5",
            "ticks": 92400,
            "time": 96.25,
            "velocity": 0.889763779527559
          },
          {
            "duration": 0.45104166666666856,
            "durationTicks": 433,
            "midi": 80,
            "name": "G#5",
            "ticks": 92400,
            "time": 96.25,
            "velocity": 0.889763779527559
          },
          {
            "duration": 0.45104166666666856,
            "durationTicks": 433,
            "midi": 75,
            "name": "D#5",
            "ticks": 92880,
            "time": 96.75,
            "velocity": 0.9133858267716536
          },
          {
            "duration": 0.45104166666666856,
            "durationTicks": 433,
            "midi": 79,
            "name": "G5",
            "ticks": 92880,
            "time": 96.75,
            "velocity": 0.9133858267716536
          },
          {
            "duration": 0.45104166666666856,
            "durationTicks": 433,
            "midi": 80,
            "name": "G#5",
            "ticks": 93840,
            "time": 97.75,
            "velocity": 0.8110236220472441
          },
          {
            "duration": 0.45104166666666856,
            "durationTicks": 433,
            "midi": 75,
            "name": "D#5",
            "ticks": 94800,
            "time": 98.75,
            "velocity": 0.7874015748031497
          },
          {
            "duration": 0.45104166666666856,
            "durationTicks": 433,
            "midi": 82,
            "name": "A#5",
            "ticks": 94800,
            "time": 98.75,
            "velocity": 0.7874015748031497
          },
          {
            "duration": 0.45104166666666856,
            "durationTicks": 433,
            "midi": 75,
            "name": "D#5",
            "ticks": 95760,
            "time": 99.75,
            "velocity": 0.8188976377952756
          },
          {
            "duration": 0.45104166666666856,
            "durationTicks": 433,
            "midi": 84,
            "name": "C6",
            "ticks": 95760,
            "time": 99.75,
            "velocity": 0.8188976377952756
          },
          {
            "duration": 0.45104166666666856,
            "durationTicks": 433,
            "midi": 75,
            "name": "D#5",
            "ticks": 96720,
            "time": 100.75,
            "velocity": 0.7952755905511811
          },
          {
            "duration": 0.45104166666666856,
            "durationTicks": 433,
            "midi": 79,
            "name": "G5",
            "ticks": 96720,
            "time": 100.75,
            "velocity": 0.7952755905511811
          },
          {
            "duration": 0.45104166666666856,
            "durationTicks": 433,
            "midi": 74,
            "name": "D5",
            "ticks": 97680,
            "time": 101.75,
            "velocity": 0.7716535433070866
          },
          {
            "duration": 0.45104166666666856,
            "durationTicks": 433,
            "midi": 77,
            "name": "F5",
            "ticks": 97680,
            "time": 101.75,
            "velocity": 0.7716535433070866
          },
          {
            "duration": 1.9000000000000057,
            "durationTicks": 1824,
            "midi": 77,
            "name": "F5",
            "ticks": 98640,
            "time": 102.75,
            "velocity": 0.7874015748031497
          },
          {
            "duration": 1.9000000000000057,
            "durationTicks": 1824,
            "midi": 80,
            "name": "G#5",
            "ticks": 98640,
            "time": 102.75,
            "velocity": 0.7874015748031497
          },
          {
            "duration": 0.45104166666666856,
            "durationTicks": 433,
            "midi": 75,
            "name": "D#5",
            "ticks": 100560,
            "time": 104.75,
            "velocity": 0.8346456692913385
          },
          {
            "duration": 0.45104166666666856,
            "durationTicks": 433,
            "midi": 79,
            "name": "G5",
            "ticks": 100560,
            "time": 104.75,
            "velocity": 0.8346456692913385
          },
          {
            "duration": 0.45104166666666856,
            "durationTicks": 433,
            "midi": 75,
            "name": "D#5",
            "ticks": 101040,
            "time": 105.25,
            "velocity": 0.937007874015748
          },
          {
            "duration": 0.45104166666666856,
            "durationTicks": 433,
            "midi": 79,
            "name": "G5",
            "ticks": 101040,
            "time": 105.25,
            "velocity": 0.937007874015748
          },
          {
            "duration": 0.45104166666666856,
            "durationTicks": 433,
            "midi": 74,
            "name": "D5",
            "ticks": 102000,
            "time": 106.25,
            "velocity": 0.8188976377952756
          },
          {
            "duration": 0.45104166666666856,
            "durationTicks": 433,
            "midi": 77,
            "name": "F5",
            "ticks": 102000,
            "time": 106.25,
            "velocity": 0.8188976377952756
          },
          {
            "duration": 0.45104166666666856,
            "durationTicks": 433,
            "midi": 75,
            "name": "D#5",
            "ticks": 102960,
            "time": 107.25,
            "velocity": 0.8031496062992126
          },
          {
            "duration": 0.45104166666666856,
            "durationTicks": 433,
            "midi": 79,
            "name": "G5",
            "ticks": 102960,
            "time": 107.25,
            "velocity": 0.8031496062992126
          },
          {
            "duration": 0.45104166666666856,
            "durationTicks": 433,
            "midi": 75,
            "name": "D#5",
            "ticks": 103920,
            "time": 108.25,
            "velocity": 0.7952755905511811
          },
          {
            "duration": 0.45104166666666856,
            "durationTicks": 433,
            "midi": 77,
            "name": "F5",
            "ticks": 103920,
            "time": 108.25,
            "velocity": 0.7952755905511811
          },
          {
            "duration": 0.45104166666666856,
            "durationTicks": 433,
            "midi": 75,
            "name": "D#5",
            "ticks": 104880,
            "time": 109.25,
            "velocity": 0.8188976377952756
          },
          {
            "duration": 0.45104166666666856,
            "durationTicks": 433,
            "midi": 79,
            "name": "G5",
            "ticks": 104880,
            "time": 109.25,
            "velocity": 0.8188976377952756
          },
          {
            "duration": 0.45104166666666856,
            "durationTicks": 433,
            "midi": 74,
            "name": "D5",
            "ticks": 105840,
            "time": 110.25,
            "velocity": 0.8110236220472441
          },
          {
            "duration": 0.45104166666666856,
            "durationTicks": 433,
            "midi": 77,
            "name": "F5",
            "ticks": 105840,
            "time": 110.25,
            "velocity": 0.8110236220472441
          },
          {
            "duration": 0.22604166666666003,
            "durationTicks": 217,
            "midi": 75,
            "name": "D#5",
            "ticks": 106320,
            "time": 110.75,
            "velocity": 0.9291338582677166
          },
          {
            "duration": 0.22604166666666003,
            "durationTicks": 217,
            "midi": 79,
            "name": "G5",
            "ticks": 106320,
            "time": 110.75,
            "velocity": 0.9291338582677166
          },
          {
            "duration": 0.22604166666666003,
            "durationTicks": 217,
            "midi": 79,
            "name": "G5",
            "ticks": 106560,
            "time": 111,
            "velocity": 0.9212598425196851
          },
          {
            "duration": 0.22604166666666003,
            "durationTicks": 217,
            "midi": 79,
            "name": "G5",
            "ticks": 106800,
            "time": 111.25,
            "velocity": 0.889763779527559
          },
          {
            "duration": 0.22604166666666003,
            "durationTicks": 217,
            "midi": 79,
            "name": "G5",
            "ticks": 107040,
            "time": 111.5,
            "velocity": 0.8740157480314961
          },
          {
            "duration": 0.22604166666666003,
            "durationTicks": 217,
            "midi": 75,
            "name": "D#5",
            "ticks": 107280,
            "time": 111.75,
            "velocity": 0.7952755905511811
          },
          {
            "duration": 0.22604166666666003,
            "durationTicks": 217,
            "midi": 82,
            "name": "A#5",
            "ticks": 107520,
            "time": 112,
            "velocity": 1
          },
          {
            "duration": 0.22604166666666003,
            "durationTicks": 217,
            "midi": 82,
            "name": "A#5",
            "ticks": 107760,
            "time": 112.25,
            "velocity": 0.9133858267716536
          },
          {
            "duration": 0.22604166666666003,
            "durationTicks": 217,
            "midi": 82,
            "name": "A#5",
            "ticks": 108000,
            "time": 112.5,
            "velocity": 0.8740157480314961
          },
          {
            "duration": 0.22604166666666003,
            "durationTicks": 217,
            "midi": 79,
            "name": "G5",
            "ticks": 108240,
            "time": 112.75,
            "velocity": 0.8110236220472441
          },
          {
            "duration": 0.22604166666666003,
            "durationTicks": 217,
            "midi": 75,
            "name": "D#5",
            "ticks": 108480,
            "time": 113,
            "velocity": 0.8110236220472441
          },
          {
            "duration": 0.22604166666666003,
            "durationTicks": 217,
            "midi": 75,
            "name": "D#5",
            "ticks": 108720,
            "time": 113.25,
            "velocity": 0.8188976377952756
          },
          {
            "duration": 0.22604166666666003,
            "durationTicks": 217,
            "midi": 75,
            "name": "D#5",
            "ticks": 108960,
            "time": 113.5,
            "velocity": 0.905511811023622
          },
          {
            "duration": 1.22604166666666,
            "durationTicks": 1177,
            "midi": 70,
            "name": "A#4",
            "ticks": 109200,
            "time": 113.75,
            "velocity": 0.8110236220472441
          },
          {
            "duration": 0.22604166666666003,
            "durationTicks": 217,
            "midi": 79,
            "name": "G5",
            "ticks": 110400,
            "time": 115,
            "velocity": 1
          },
          {
            "duration": 0.22604166666666003,
            "durationTicks": 217,
            "midi": 79,
            "name": "G5",
            "ticks": 110640,
            "time": 115.25,
            "velocity": 0.9448818897637795
          },
          {
            "duration": 0.22604166666666003,
            "durationTicks": 217,
            "midi": 79,
            "name": "G5",
            "ticks": 110880,
            "time": 115.5,
            "velocity": 0.8818897637795275
          },
          {
            "duration": 0.22604166666666003,
            "durationTicks": 217,
            "midi": 75,
            "name": "D#5",
            "ticks": 111120,
            "time": 115.75,
            "velocity": 0.7795275590551181
          },
          {
            "duration": 0.22604166666666003,
            "durationTicks": 217,
            "midi": 82,
            "name": "A#5",
            "ticks": 111360,
            "time": 116,
            "velocity": 1
          },
          {
            "duration": 0.22604166666666003,
            "durationTicks": 217,
            "midi": 82,
            "name": "A#5",
            "ticks": 111600,
            "time": 116.25,
            "velocity": 0.8976377952755905
          },
          {
            "duration": 0.22604166666666003,
            "durationTicks": 217,
            "midi": 82,
            "name": "A#5",
            "ticks": 111840,
            "time": 116.5,
            "velocity": 0.905511811023622
          },
          {
            "duration": 0.22604166666666003,
            "durationTicks": 217,
            "midi": 79,
            "name": "G5",
            "ticks": 112080,
            "time": 116.75,
            "velocity": 0.8110236220472441
          },
          {
            "duration": 0.22604166666666003,
            "durationTicks": 217,
            "midi": 75,
            "name": "D#5",
            "ticks": 112320,
            "time": 117,
            "velocity": 0.7480314960629921
          },
          {
            "duration": 0.22604166666666003,
            "durationTicks": 217,
            "midi": 75,
            "name": "D#5",
            "ticks": 112560,
            "time": 117.25,
            "velocity": 0.8740157480314961
          },
          {
            "duration": 0.22604166666666003,
            "durationTicks": 217,
            "midi": 75,
            "name": "D#5",
            "ticks": 112800,
            "time": 117.5,
            "velocity": 0.8976377952755905
          },
          {
            "duration": 1.4510416666666686,
            "durationTicks": 1393,
            "midi": 70,
            "name": "A#4",
            "ticks": 113040,
            "time": 117.75,
            "velocity": 0.8110236220472441
          },
          {
            "duration": 0.22604166666666003,
            "durationTicks": 217,
            "midi": 74,
            "name": "D5",
            "ticks": 115200,
            "time": 120,
            "velocity": 0.7874015748031497
          },
          {
            "duration": 0.22604166666666003,
            "durationTicks": 217,
            "midi": 77,
            "name": "F5",
            "ticks": 115200,
            "time": 120,
            "velocity": 0.7874015748031497
          },
          {
            "duration": 0.22604166666666003,
            "durationTicks": 217,
            "midi": 74,
            "name": "D5",
            "ticks": 115440,
            "time": 120.25,
            "velocity": 0.8740157480314961
          },
          {
            "duration": 0.22604166666666003,
            "durationTicks": 217,
            "midi": 77,
            "name": "F5",
            "ticks": 115440,
            "time": 120.25,
            "velocity": 0.8740157480314961
          },
          {
            "duration": 0.22604166666666003,
            "durationTicks": 217,
            "midi": 74,
            "name": "D5",
            "ticks": 115680,
            "time": 120.5,
            "velocity": 0.889763779527559
          },
          {
            "duration": 0.22604166666666003,
            "durationTicks": 217,
            "midi": 77,
            "name": "F5",
            "ticks": 115680,
            "time": 120.5,
            "velocity": 0.889763779527559
          },
          {
            "duration": 0.45104166666666856,
            "durationTicks": 433,
            "midi": 75,
            "name": "D#5",
            "ticks": 115920,
            "time": 120.75,
            "velocity": 0.9212598425196851
          },
          {
            "duration": 0.45104166666666856,
            "durationTicks": 433,
            "midi": 79,
            "name": "G5",
            "ticks": 115920,
            "time": 120.75,
            "velocity": 0.9212598425196851
          },
          {
            "duration": 0.22604166666666003,
            "durationTicks": 217,
            "midi": 77,
            "name": "F5",
            "ticks": 117120,
            "time": 122,
            "velocity": 0.7874015748031497
          },
          {
            "duration": 0.22604166666666003,
            "durationTicks": 217,
            "midi": 82,
            "name": "A#5",
            "ticks": 117120,
            "time": 122,
            "velocity": 0.7874015748031497
          },
          {
            "duration": 0.22604166666666003,
            "durationTicks": 217,
            "midi": 77,
            "name": "F5",
            "ticks": 117360,
            "time": 122.25,
            "velocity": 0.8661417322834646
          },
          {
            "duration": 0.22604166666666003,
            "durationTicks": 217,
            "midi": 82,
            "name": "A#5",
            "ticks": 117360,
            "time": 122.25,
            "velocity": 0.8661417322834646
          },
          {
            "duration": 0.22604166666666003,
            "durationTicks": 217,
            "midi": 77,
            "name": "F5",
            "ticks": 117600,
            "time": 122.5,
            "velocity": 0.8582677165354331
          },
          {
            "duration": 0.22604166666666003,
            "durationTicks": 217,
            "midi": 82,
            "name": "A#5",
            "ticks": 117600,
            "time": 122.5,
            "velocity": 0.8582677165354331
          },
          {
            "duration": 0.45104166666666856,
            "durationTicks": 433,
            "midi": 75,
            "name": "D#5",
            "ticks": 117840,
            "time": 122.75,
            "velocity": 0.7952755905511811
          },
          {
            "duration": 0.45104166666666856,
            "durationTicks": 433,
            "midi": 79,
            "name": "G5",
            "ticks": 117840,
            "time": 122.75,
            "velocity": 0.7952755905511811
          },
          {
            "duration": 0.22604166666667425,
            "durationTicks": 217,
            "midi": 74,
            "name": "D5",
            "ticks": 138240,
            "time": 144,
            "velocity": 0.4330708661417323
          },
          {
            "duration": 0.22604166666667425,
            "durationTicks": 217,
            "midi": 79,
            "name": "G5",
            "ticks": 138240,
            "time": 144,
            "velocity": 0.4330708661417323
          },
          {
            "duration": 0.22604166666667425,
            "durationTicks": 217,
            "midi": 74,
            "name": "D5",
            "ticks": 138480,
            "time": 144.25,
            "velocity": 0.5354330708661418
          },
          {
            "duration": 0.22604166666667425,
            "durationTicks": 217,
            "midi": 79,
            "name": "G5",
            "ticks": 138480,
            "time": 144.25,
            "velocity": 0.5354330708661418
          },
          {
            "duration": 0.22604166666667425,
            "durationTicks": 217,
            "midi": 74,
            "name": "D5",
            "ticks": 138720,
            "time": 144.5,
            "velocity": 0.6062992125984252
          },
          {
            "duration": 0.22604166666667425,
            "durationTicks": 217,
            "midi": 77,
            "name": "F5",
            "ticks": 138720,
            "time": 144.5,
            "velocity": 0.6062992125984252
          },
          {
            "duration": 0.45104166666666856,
            "durationTicks": 433,
            "midi": 72,
            "name": "C5",
            "ticks": 138960,
            "time": 144.75,
            "velocity": 0.6929133858267716
          },
          {
            "duration": 0.45104166666666856,
            "durationTicks": 433,
            "midi": 75,
            "name": "D#5",
            "ticks": 138960,
            "time": 144.75,
            "velocity": 0.6929133858267716
          },
          {
            "duration": 0.45104166666666856,
            "durationTicks": 433,
            "midi": 72,
            "name": "C5",
            "ticks": 139920,
            "time": 145.75,
            "velocity": 0.7007874015748031
          },
          {
            "duration": 0.45104166666666856,
            "durationTicks": 433,
            "midi": 78,
            "name": "F#5",
            "ticks": 139920,
            "time": 145.75,
            "velocity": 0.7007874015748031
          },
          {
            "duration": 0.45104166666666856,
            "durationTicks": 433,
            "midi": 71,
            "name": "B4",
            "ticks": 140880,
            "time": 146.75,
            "velocity": 0.6850393700787402
          },
          {
            "duration": 0.45104166666666856,
            "durationTicks": 433,
            "midi": 79,
            "name": "G5",
            "ticks": 140880,
            "time": 146.75,
            "velocity": 0.6850393700787402
          },
          {
            "duration": 0.22604166666667425,
            "durationTicks": 217,
            "midi": 80,
            "name": "G#5",
            "ticks": 142320,
            "time": 148.25,
            "velocity": 0.6771653543307087
          },
          {
            "duration": 0.22604166666667425,
            "durationTicks": 217,
            "midi": 80,
            "name": "G#5",
            "ticks": 142560,
            "time": 148.5,
            "velocity": 0.7480314960629921
          },
          {
            "duration": 0.22604166666667425,
            "durationTicks": 217,
            "midi": 80,
            "name": "G#5",
            "ticks": 142800,
            "time": 148.75,
            "velocity": 0.8031496062992126
          },
          {
            "duration": 2.5,
            "durationTicks": 2400,
            "midi": 77,
            "name": "F5",
            "ticks": 143040,
            "time": 149,
            "velocity": 0.7480314960629921
          },
          {
            "duration": 0.22604166666667425,
            "durationTicks": 217,
            "midi": 77,
            "name": "F5",
            "ticks": 152400,
            "time": 158.75,
            "velocity": 0.4330708661417323
          },
          {
            "duration": 0.22604166666667425,
            "durationTicks": 217,
            "midi": 77,
            "name": "F5",
            "ticks": 152640,
            "time": 159,
            "velocity": 0.4566929133858268
          },
          {
            "duration": 0.22604166666667425,
            "durationTicks": 217,
            "midi": 77,
            "name": "F5",
            "ticks": 152880,
            "time": 159.25,
            "velocity": 0.4566929133858268
          },
          {
            "duration": 0.45104166666666856,
            "durationTicks": 433,
            "midi": 75,
            "name": "D#5",
            "ticks": 153120,
            "time": 159.5,
            "velocity": 0.4330708661417323
          },
          {
            "duration": 1.4510416666666686,
            "durationTicks": 1393,
            "midi": 75,
            "name": "D#5",
            "ticks": 156000,
            "time": 162.5,
            "velocity": 0.4330708661417323
          },
          {
            "duration": 1.4510416666666686,
            "durationTicks": 1393,
            "midi": 79,
            "name": "G5",
            "ticks": 156000,
            "time": 162.5,
            "velocity": 0.4330708661417323
          },
          {
            "duration": 0.45104166666666856,
            "durationTicks": 433,
            "midi": 77,
            "name": "F5",
            "ticks": 157920,
            "time": 164.5,
            "velocity": 0.4881889763779528
          },
          {
            "duration": 0.45104166666666856,
            "durationTicks": 433,
            "midi": 80,
            "name": "G#5",
            "ticks": 157920,
            "time": 164.5,
            "velocity": 0.4881889763779528
          },
          {
            "duration": 0.45104166666666856,
            "durationTicks": 433,
            "midi": 76,
            "name": "E5",
            "ticks": 158880,
            "time": 165.5,
            "velocity": 0.49606299212598426
          },
          {
            "duration": 0.45104166666666856,
            "durationTicks": 433,
            "midi": 79,
            "name": "G5",
            "ticks": 158880,
            "time": 165.5,
            "velocity": 0.49606299212598426
          },
          {
            "duration": 0.45104166666666856,
            "durationTicks": 433,
            "midi": 77,
            "name": "F5",
            "ticks": 159840,
            "time": 166.5,
            "velocity": 0.49606299212598426
          },
          {
            "duration": 0.45104166666666856,
            "durationTicks": 433,
            "midi": 80,
            "name": "G#5",
            "ticks": 159840,
            "time": 166.5,
            "velocity": 0.49606299212598426
          },
          {
            "duration": 0.45104166666666856,
            "durationTicks": 433,
            "midi": 79,
            "name": "G5",
            "ticks": 160800,
            "time": 167.5,
            "velocity": 0.47244094488188976
          },
          {
            "duration": 0.45104166666666856,
            "durationTicks": 433,
            "midi": 82,
            "name": "A#5",
            "ticks": 160800,
            "time": 167.5,
            "velocity": 0.47244094488188976
          },
          {
            "duration": 0.45104166666666856,
            "durationTicks": 433,
            "midi": 77,
            "name": "F5",
            "ticks": 161760,
            "time": 168.5,
            "velocity": 0.48031496062992124
          },
          {
            "duration": 0.45104166666666856,
            "durationTicks": 433,
            "midi": 80,
            "name": "G#5",
            "ticks": 161760,
            "time": 168.5,
            "velocity": 0.48031496062992124
          },
          {
            "duration": 0.45104166666666856,
            "durationTicks": 433,
            "midi": 77,
            "name": "F5",
            "ticks": 162720,
            "time": 169.5,
            "velocity": 0.5196850393700787
          },
          {
            "duration": 0.45104166666666856,
            "durationTicks": 433,
            "midi": 80,
            "name": "G#5",
            "ticks": 162720,
            "time": 169.5,
            "velocity": 0.5196850393700787
          },
          {
            "duration": 3.9000000000000057,
            "durationTicks": 3744,
            "midi": 75,
            "name": "D#5",
            "ticks": 163680,
            "time": 170.5,
            "velocity": 0.6850393700787402
          },
          {
            "duration": 3.9000000000000057,
            "durationTicks": 3744,
            "midi": 79,
            "name": "G5",
            "ticks": 163680,
            "time": 170.5,
            "velocity": 0.6850393700787402
          },
          {
            "duration": 3.4510416666666686,
            "durationTicks": 3313,
            "midi": 77,
            "name": "F5",
            "ticks": 167520,
            "time": 174.5,
            "velocity": 0.7637795275590551
          },
          {
            "duration": 3.4510416666666686,
            "durationTicks": 3313,
            "midi": 79,
            "name": "G5",
            "ticks": 167520,
            "time": 174.5,
            "velocity": 0.7637795275590551
          },
          {
            "duration": 0.45104166666666856,
            "durationTicks": 433,
            "midi": 75,
            "name": "D#5",
            "ticks": 170880,
            "time": 178,
            "velocity": 0.7401574803149606
          },
          {
            "duration": 0.45104166666666856,
            "durationTicks": 433,
            "midi": 79,
            "name": "G5",
            "ticks": 170880,
            "time": 178,
            "velocity": 0.7401574803149606
          },
          {
            "duration": 3.9000000000000057,
            "durationTicks": 3744,
            "midi": 75,
            "name": "D#5",
            "ticks": 171360,
            "time": 178.5,
            "velocity": 0.8110236220472441
          },
          {
            "duration": 3.9000000000000057,
            "durationTicks": 3744,
            "midi": 78,
            "name": "F#5",
            "ticks": 171360,
            "time": 178.5,
            "velocity": 0.8110236220472441
          },
          {
            "duration": 0.45104166666666856,
            "durationTicks": 433,
            "midi": 75,
            "name": "D#5",
            "ticks": 175200,
            "time": 182.5,
            "velocity": 0.8976377952755905
          },
          {
            "duration": 0.45104166666666856,
            "durationTicks": 433,
            "midi": 78,
            "name": "F#5",
            "ticks": 175200,
            "time": 182.5,
            "velocity": 0.8976377952755905
          },
          {
            "duration": 0.45104166666666856,
            "durationTicks": 433,
            "midi": 70,
            "name": "A#4",
            "ticks": 177120,
            "time": 184.5,
            "velocity": 0.7716535433070866
          },
          {
            "duration": 0.45104166666666856,
            "durationTicks": 433,
            "midi": 77,
            "name": "F5",
            "ticks": 177120,
            "time": 184.5,
            "velocity": 0.7716535433070866
          },
          {
            "duration": 1.9000000000000057,
            "durationTicks": 1824,
            "midi": 84,
            "name": "C6",
            "ticks": 202080,
            "time": 210.5,
            "velocity": 0.4251968503937008
          },
          {
            "duration": 1.9000000000000057,
            "durationTicks": 1824,
            "midi": 82,
            "name": "A#5",
            "ticks": 204000,
            "time": 212.5,
            "velocity": 0.5196850393700787
          },
          {
            "duration": 4.451041666666669,
            "durationTicks": 4273,
            "midi": 81,
            "name": "A5",
            "ticks": 205920,
            "time": 214.5,
            "velocity": 0.6220472440944882
          },
          {
            "duration": 0.45104166666666856,
            "durationTicks": 433,
            "midi": 81,
            "name": "A5",
            "ticks": 210240,
            "time": 219,
            "velocity": 0.6456692913385826
          },
          {
            "duration": 0.45104166666666856,
            "durationTicks": 433,
            "midi": 81,
            "name": "A5",
            "ticks": 210720,
            "time": 219.5,
            "velocity": 0.7874015748031497
          },
          {
            "duration": 0.45104166666666856,
            "durationTicks": 433,
            "midi": 81,
            "name": "A5",
            "ticks": 211200,
            "time": 220,
            "velocity": 0.7559055118110236
          },
          {
            "duration": 1.4510416666666686,
            "durationTicks": 1393,
            "midi": 77,
            "name": "F5",
            "ticks": 211680,
            "time": 220.5,
            "velocity": 0.8346456692913385
          },
          {
            "duration": 1.4510416666666686,
            "durationTicks": 1393,
            "midi": 80,
            "name": "G#5",
            "ticks": 211680,
            "time": 220.5,
            "velocity": 0.8346456692913385
          },
          {
            "duration": 0.45104166666666856,
            "durationTicks": 433,
            "midi": 77,
            "name": "F5",
            "ticks": 213120,
            "time": 222,
            "velocity": 0.889763779527559
          },
          {
            "duration": 0.45104166666666856,
            "durationTicks": 433,
            "midi": 80,
            "name": "G#5",
            "ticks": 213120,
            "time": 222,
            "velocity": 0.889763779527559
          },
          {
            "duration": 0.45104166666666856,
            "durationTicks": 433,
            "midi": 75,
            "name": "D#5",
            "ticks": 213600,
            "time": 222.5,
            "velocity": 0.8740157480314961
          },
          {
            "duration": 0.45104166666666856,
            "durationTicks": 433,
            "midi": 79,
            "name": "G5",
            "ticks": 213600,
            "time": 222.5,
            "velocity": 0.8740157480314961
          },
          {
            "duration": 0.45104166666666856,
            "durationTicks": 433,
            "midi": 80,
            "name": "G#5",
            "ticks": 214560,
            "time": 223.5,
            "velocity": 0.7952755905511811
          },
          {
            "duration": 0.45104166666666856,
            "durationTicks": 433,
            "midi": 75,
            "name": "D#5",
            "ticks": 215520,
            "time": 224.5,
            "velocity": 0.8110236220472441
          },
          {
            "duration": 0.45104166666666856,
            "durationTicks": 433,
            "midi": 82,
            "name": "A#5",
            "ticks": 215520,
            "time": 224.5,
            "velocity": 0.8110236220472441
          },
          {
            "duration": 0.45104166666666856,
            "durationTicks": 433,
            "midi": 75,
            "name": "D#5",
            "ticks": 216480,
            "time": 225.5,
            "velocity": 0.7874015748031497
          },
          {
            "duration": 0.45104166666666856,
            "durationTicks": 433,
            "midi": 84,
            "name": "C6",
            "ticks": 216480,
            "time": 225.5,
            "velocity": 0.7874015748031497
          },
          {
            "duration": 0.45104166666666856,
            "durationTicks": 433,
            "midi": 75,
            "name": "D#5",
            "ticks": 217440,
            "time": 226.5,
            "velocity": 0.7874015748031497
          },
          {
            "duration": 0.45104166666666856,
            "durationTicks": 433,
            "midi": 79,
            "name": "G5",
            "ticks": 217440,
            "time": 226.5,
            "velocity": 0.7874015748031497
          },
          {
            "duration": 0.45104166666666856,
            "durationTicks": 433,
            "midi": 74,
            "name": "D5",
            "ticks": 218400,
            "time": 227.5,
            "velocity": 0.8110236220472441
          },
          {
            "duration": 0.45104166666666856,
            "durationTicks": 433,
            "midi": 77,
            "name": "F5",
            "ticks": 218400,
            "time": 227.5,
            "velocity": 0.8110236220472441
          },
          {
            "duration": 1.9000000000000057,
            "durationTicks": 1824,
            "midi": 77,
            "name": "F5",
            "ticks": 219360,
            "time": 228.5,
            "velocity": 0.7874015748031497
          },
          {
            "duration": 1.9000000000000057,
            "durationTicks": 1824,
            "midi": 80,
            "name": "G#5",
            "ticks": 219360,
            "time": 228.5,
            "velocity": 0.7874015748031497
          },
          {
            "duration": 0.45104166666666856,
            "durationTicks": 433,
            "midi": 75,
            "name": "D#5",
            "ticks": 221280,
            "time": 230.5,
            "velocity": 0.8582677165354331
          },
          {
            "duration": 0.45104166666666856,
            "durationTicks": 433,
            "midi": 79,
            "name": "G5",
            "ticks": 221280,
            "time": 230.5,
            "velocity": 0.8582677165354331
          },
          {
            "duration": 0.45104166666666856,
            "durationTicks": 433,
            "midi": 75,
            "name": "D#5",
            "ticks": 221760,
            "time": 231,
            "velocity": 0.8661417322834646
          },
          {
            "duration": 0.45104166666666856,
            "durationTicks": 433,
            "midi": 79,
            "name": "G5",
            "ticks": 221760,
            "time": 231,
            "velocity": 0.8661417322834646
          },
          {
            "duration": 0.45104166666666856,
            "durationTicks": 433,
            "midi": 74,
            "name": "D5",
            "ticks": 222720,
            "time": 232,
            "velocity": 0.7952755905511811
          },
          {
            "duration": 0.45104166666666856,
            "durationTicks": 433,
            "midi": 77,
            "name": "F5",
            "ticks": 222720,
            "time": 232,
            "velocity": 0.7952755905511811
          },
          {
            "duration": 0.45104166666666856,
            "durationTicks": 433,
            "midi": 75,
            "name": "D#5",
            "ticks": 223680,
            "time": 233,
            "velocity": 0.7952755905511811
          },
          {
            "duration": 0.45104166666666856,
            "durationTicks": 433,
            "midi": 79,
            "name": "G5",
            "ticks": 223680,
            "time": 233,
            "velocity": 0.7952755905511811
          },
          {
            "duration": 0.45104166666666856,
            "durationTicks": 433,
            "midi": 75,
            "name": "D#5",
            "ticks": 224640,
            "time": 234,
            "velocity": 0.8031496062992126
          },
          {
            "duration": 0.45104166666666856,
            "durationTicks": 433,
            "midi": 77,
            "name": "F5",
            "ticks": 224640,
            "time": 234,
            "velocity": 0.8031496062992126
          },
          {
            "duration": 0.45104166666666856,
            "durationTicks": 433,
            "midi": 75,
            "name": "D#5",
            "ticks": 225600,
            "time": 235,
            "velocity": 0.7874015748031497
          },
          {
            "duration": 0.45104166666666856,
            "durationTicks": 433,
            "midi": 79,
            "name": "G5",
            "ticks": 225600,
            "time": 235,
            "velocity": 0.7874015748031497
          },
          {
            "duration": 0.45104166666666856,
            "durationTicks": 433,
            "midi": 74,
            "name": "D5",
            "ticks": 226560,
            "time": 236,
            "velocity": 0.7952755905511811
          },
          {
            "duration": 0.45104166666666856,
            "durationTicks": 433,
            "midi": 77,
            "name": "F5",
            "ticks": 226560,
            "time": 236,
            "velocity": 0.7952755905511811
          },
          {
            "duration": 0.22604166666667425,
            "durationTicks": 217,
            "midi": 75,
            "name": "D#5",
            "ticks": 227040,
            "time": 236.5,
            "velocity": 0.9763779527559056
          },
          {
            "duration": 0.22604166666667425,
            "durationTicks": 217,
            "midi": 79,
            "name": "G5",
            "ticks": 227040,
            "time": 236.5,
            "velocity": 0.9763779527559056
          },
          {
            "duration": 0.22604166666667425,
            "durationTicks": 217,
            "midi": 79,
            "name": "G5",
            "ticks": 227280,
            "time": 236.75,
            "velocity": 0.9291338582677166
          },
          {
            "duration": 0.22604166666667425,
            "durationTicks": 217,
            "midi": 79,
            "name": "G5",
            "ticks": 227520,
            "time": 237,
            "velocity": 0.84251968503937
          },
          {
            "duration": 0.22604166666667425,
            "durationTicks": 217,
            "midi": 79,
            "name": "G5",
            "ticks": 227760,
            "time": 237.25,
            "velocity": 0.9133858267716536
          },
          {
            "duration": 0.22604166666667425,
            "durationTicks": 217,
            "midi": 75,
            "name": "D#5",
            "ticks": 228000,
            "time": 237.5,
            "velocity": 0.7952755905511811
          },
          {
            "duration": 0.22604166666667425,
            "durationTicks": 217,
            "midi": 82,
            "name": "A#5",
            "ticks": 228240,
            "time": 237.75,
            "velocity": 1
          },
          {
            "duration": 0.22604166666667425,
            "durationTicks": 217,
            "midi": 82,
            "name": "A#5",
            "ticks": 228480,
            "time": 238,
            "velocity": 0.9291338582677166
          },
          {
            "duration": 0.22604166666667425,
            "durationTicks": 217,
            "midi": 82,
            "name": "A#5",
            "ticks": 228720,
            "time": 238.25,
            "velocity": 0.8740157480314961
          },
          {
            "duration": 0.22604166666667425,
            "durationTicks": 217,
            "midi": 79,
            "name": "G5",
            "ticks": 228960,
            "time": 238.5,
            "velocity": 0.8188976377952756
          },
          {
            "duration": 0.22604166666667425,
            "durationTicks": 217,
            "midi": 75,
            "name": "D#5",
            "ticks": 229200,
            "time": 238.75,
            "velocity": 0.7874015748031497
          },
          {
            "duration": 0.22604166666667425,
            "durationTicks": 217,
            "midi": 75,
            "name": "D#5",
            "ticks": 229440,
            "time": 239,
            "velocity": 0.8503937007874016
          },
          {
            "duration": 0.22604166666667425,
            "durationTicks": 217,
            "midi": 75,
            "name": "D#5",
            "ticks": 229680,
            "time": 239.25,
            "velocity": 0.905511811023622
          },
          {
            "duration": 1.2260416666666742,
            "durationTicks": 1177,
            "midi": 70,
            "name": "A#4",
            "ticks": 229920,
            "time": 239.5,
            "velocity": 0.7952755905511811
          },
          {
            "duration": 0.22604166666667425,
            "durationTicks": 217,
            "midi": 79,
            "name": "G5",
            "ticks": 231120,
            "time": 240.75,
            "velocity": 1
          },
          {
            "duration": 0.22604166666667425,
            "durationTicks": 217,
            "midi": 79,
            "name": "G5",
            "ticks": 231360,
            "time": 241,
            "velocity": 0.889763779527559
          },
          {
            "duration": 0.22604166666667425,
            "durationTicks": 217,
            "midi": 79,
            "name": "G5",
            "ticks": 231600,
            "time": 241.25,
            "velocity": 0.9133858267716536
          },
          {
            "duration": 0.22604166666667425,
            "durationTicks": 217,
            "midi": 75,
            "name": "D#5",
            "ticks": 231840,
            "time": 241.5,
            "velocity": 0.7795275590551181
          },
          {
            "duration": 0.22604166666667425,
            "durationTicks": 217,
            "midi": 82,
            "name": "A#5",
            "ticks": 232080,
            "time": 241.75,
            "velocity": 1
          },
          {
            "duration": 0.22604166666667425,
            "durationTicks": 217,
            "midi": 82,
            "name": "A#5",
            "ticks": 232320,
            "time": 242,
            "velocity": 0.9291338582677166
          },
          {
            "duration": 0.22604166666667425,
            "durationTicks": 217,
            "midi": 82,
            "name": "A#5",
            "ticks": 232560,
            "time": 242.25,
            "velocity": 0.8503937007874016
          },
          {
            "duration": 0.22604166666667425,
            "durationTicks": 217,
            "midi": 79,
            "name": "G5",
            "ticks": 232800,
            "time": 242.5,
            "velocity": 0.8346456692913385
          },
          {
            "duration": 0.22604166666667425,
            "durationTicks": 217,
            "midi": 75,
            "name": "D#5",
            "ticks": 233040,
            "time": 242.75,
            "velocity": 0.7952755905511811
          },
          {
            "duration": 0.22604166666667425,
            "durationTicks": 217,
            "midi": 75,
            "name": "D#5",
            "ticks": 233280,
            "time": 243,
            "velocity": 0.8503937007874016
          },
          {
            "duration": 0.22604166666667425,
            "durationTicks": 217,
            "midi": 75,
            "name": "D#5",
            "ticks": 233520,
            "time": 243.25,
            "velocity": 0.889763779527559
          },
          {
            "duration": 1.4510416666666686,
            "durationTicks": 1393,
            "midi": 70,
            "name": "A#4",
            "ticks": 233760,
            "time": 243.5,
            "velocity": 0.7795275590551181
          },
          {
            "duration": 0.22604166666667425,
            "durationTicks": 217,
            "midi": 74,
            "name": "D5",
            "ticks": 235920,
            "time": 245.75,
            "velocity": 0.7795275590551181
          },
          {
            "duration": 0.22604166666667425,
            "durationTicks": 217,
            "midi": 77,
            "name": "F5",
            "ticks": 235920,
            "time": 245.75,
            "velocity": 0.7795275590551181
          },
          {
            "duration": 0.22604166666667425,
            "durationTicks": 217,
            "midi": 74,
            "name": "D5",
            "ticks": 236160,
            "time": 246,
            "velocity": 0.889763779527559
          },
          {
            "duration": 0.22604166666667425,
            "durationTicks": 217,
            "midi": 77,
            "name": "F5",
            "ticks": 236160,
            "time": 246,
            "velocity": 0.889763779527559
          },
          {
            "duration": 0.22604166666667425,
            "durationTicks": 217,
            "midi": 74,
            "name": "D5",
            "ticks": 236400,
            "time": 246.25,
            "velocity": 0.8582677165354331
          },
          {
            "duration": 0.22604166666667425,
            "durationTicks": 217,
            "midi": 77,
            "name": "F5",
            "ticks": 236400,
            "time": 246.25,
            "velocity": 0.8582677165354331
          },
          {
            "duration": 0.45104166666666856,
            "durationTicks": 433,
            "midi": 75,
            "name": "D#5",
            "ticks": 236640,
            "time": 246.5,
            "velocity": 0.905511811023622
          },
          {
            "duration": 0.45104166666666856,
            "durationTicks": 433,
            "midi": 79,
            "name": "G5",
            "ticks": 236640,
            "time": 246.5,
            "velocity": 0.905511811023622
          },
          {
            "duration": 0.22604166666667425,
            "durationTicks": 217,
            "midi": 77,
            "name": "F5",
            "ticks": 237840,
            "time": 247.75,
            "velocity": 0.8031496062992126
          },
          {
            "duration": 0.22604166666667425,
            "durationTicks": 217,
            "midi": 82,
            "name": "A#5",
            "ticks": 237840,
            "time": 247.75,
            "velocity": 0.8031496062992126
          },
          {
            "duration": 0.22604166666667425,
            "durationTicks": 217,
            "midi": 77,
            "name": "F5",
            "ticks": 238080,
            "time": 248,
            "velocity": 0.889763779527559
          },
          {
            "duration": 0.22604166666667425,
            "durationTicks": 217,
            "midi": 82,
            "name": "A#5",
            "ticks": 238080,
            "time": 248,
            "velocity": 0.889763779527559
          },
          {
            "duration": 0.22604166666667425,
            "durationTicks": 217,
            "midi": 77,
            "name": "F5",
            "ticks": 238320,
            "time": 248.25,
            "velocity": 0.889763779527559
          },
          {
            "duration": 0.22604166666667425,
            "durationTicks": 217,
            "midi": 82,
            "name": "A#5",
            "ticks": 238320,
            "time": 248.25,
            "velocity": 0.889763779527559
          },
          {
            "duration": 0.45104166666666856,
            "durationTicks": 433,
            "midi": 75,
            "name": "D#5",
            "ticks": 238560,
            "time": 248.5,
            "velocity": 0.8110236220472441
          },
          {
            "duration": 0.45104166666666856,
            "durationTicks": 433,
            "midi": 79,
            "name": "G5",
            "ticks": 238560,
            "time": 248.5,
            "velocity": 0.8110236220472441
          },
          {
            "duration": 0.22604166666667425,
            "durationTicks": 217,
            "midi": 78,
            "name": "F#5",
            "ticks": 269040,
            "time": 280.25,
            "velocity": 0.47244094488188976
          },
          {
            "duration": 0.22604166666667425,
            "durationTicks": 217,
            "midi": 78,
            "name": "F#5",
            "ticks": 269280,
            "time": 280.5,
            "velocity": 0.4645669291338583
          },
          {
            "duration": 0.22604166666667425,
            "durationTicks": 217,
            "midi": 81,
            "name": "A5",
            "ticks": 269520,
            "time": 280.75,
            "velocity": 0.5118110236220472
          },
          {
            "duration": 0.8999999999999773,
            "durationTicks": 864,
            "midi": 79,
            "name": "G5",
            "ticks": 269760,
            "time": 281,
            "velocity": 0.4330708661417323
          },
          {
            "duration": 0.22604166666667425,
            "durationTicks": 217,
            "midi": 78,
            "name": "F#5",
            "ticks": 270720,
            "time": 282,
            "velocity": 0.4409448818897638
          },
          {
            "duration": 0.22604166666667425,
            "durationTicks": 217,
            "midi": 78,
            "name": "F#5",
            "ticks": 270960,
            "time": 282.25,
            "velocity": 0.5039370078740157
          },
          {
            "duration": 0.22604166666667425,
            "durationTicks": 217,
            "midi": 78,
            "name": "F#5",
            "ticks": 271200,
            "time": 282.5,
            "velocity": 0.4645669291338583
          },
          {
            "duration": 0.22604166666667425,
            "durationTicks": 217,
            "midi": 81,
            "name": "A5",
            "ticks": 271440,
            "time": 282.75,
            "velocity": 0.5354330708661418
          },
          {
            "duration": 0.8999999999999773,
            "durationTicks": 864,
            "midi": 79,
            "name": "G5",
            "ticks": 271680,
            "time": 283,
            "velocity": 0.44881889763779526
          },
          {
            "duration": 0.8999999999999773,
            "durationTicks": 864,
            "midi": 78,
            "name": "F#5",
            "ticks": 272640,
            "time": 284,
            "velocity": 0.47244094488188976
          },
          {
            "duration": 1.2260416666666742,
            "durationTicks": 1177,
            "midi": 79,
            "name": "G5",
            "ticks": 273600,
            "time": 285,
            "velocity": 0.49606299212598426
          },
          {
            "duration": 0.45104166666664014,
            "durationTicks": 433,
            "midi": 72,
            "name": "C5",
            "ticks": 275520,
            "time": 287,
            "velocity": 0.4015748031496063
          },
          {
            "duration": 0.45104166666664014,
            "durationTicks": 433,
            "midi": 78,
            "name": "F#5",
            "ticks": 275520,
            "time": 287,
            "velocity": 0.4015748031496063
          },
          {
            "duration": 0.45104166666664014,
            "durationTicks": 433,
            "midi": 72,
            "name": "C5",
            "ticks": 277440,
            "time": 289,
            "velocity": 0.4330708661417323
          },
          {
            "duration": 0.45104166666664014,
            "durationTicks": 433,
            "midi": 78,
            "name": "F#5",
            "ticks": 277440,
            "time": 289,
            "velocity": 0.4330708661417323
          },
          {
            "duration": 0.45104166666664014,
            "durationTicks": 433,
            "midi": 67,
            "name": "G4",
            "ticks": 279360,
            "time": 291,
            "velocity": 0.4330708661417323
          },
          {
            "duration": 0.45104166666664014,
            "durationTicks": 433,
            "midi": 79,
            "name": "G5",
            "ticks": 279360,
            "time": 291,
            "velocity": 0.4330708661417323
          },
          {
            "duration": 0.45104166666664014,
            "durationTicks": 433,
            "midi": 74,
            "name": "D5",
            "ticks": 281280,
            "time": 293,
            "velocity": 0.4015748031496063
          },
          {
            "duration": 0.45104166666664014,
            "durationTicks": 433,
            "midi": 79,
            "name": "G5",
            "ticks": 281280,
            "time": 293,
            "velocity": 0.4015748031496063
          },
          {
            "duration": 0.22604166666667425,
            "durationTicks": 217,
            "midi": 79,
            "name": "G5",
            "ticks": 282480,
            "time": 294.25,
            "velocity": 0.47244094488188976
          },
          {
            "duration": 0.22604166666667425,
            "durationTicks": 217,
            "midi": 81,
            "name": "A5",
            "ticks": 282720,
            "time": 294.5,
            "velocity": 0.7007874015748031
          },
          {
            "duration": 0.22604166666667425,
            "durationTicks": 217,
            "midi": 82,
            "name": "A#5",
            "ticks": 282960,
            "time": 294.75,
            "velocity": 0.6929133858267716
          },
          {
            "duration": 1.8999999999999773,
            "durationTicks": 1824,
            "midi": 78,
            "name": "F#5",
            "ticks": 283200,
            "time": 295,
            "velocity": 0.7480314960629921
          },
          {
            "duration": 1.8999999999999773,
            "durationTicks": 1824,
            "midi": 81,
            "name": "A5",
            "ticks": 283200,
            "time": 295,
            "velocity": 0.7480314960629921
          },
          {
            "duration": 0.45104166666664014,
            "durationTicks": 433,
            "midi": 78,
            "name": "F#5",
            "ticks": 285120,
            "time": 297,
            "velocity": 0.7401574803149606
          },
          {
            "duration": 0.45104166666664014,
            "durationTicks": 433,
            "midi": 81,
            "name": "A5",
            "ticks": 285120,
            "time": 297,
            "velocity": 0.7401574803149606
          },
          {
            "duration": 0.22604166666667425,
            "durationTicks": 217,
            "midi": 79,
            "name": "G5",
            "ticks": 286320,
            "time": 298.25,
            "velocity": 0.6535433070866141
          },
          {
            "duration": 0.22604166666667425,
            "durationTicks": 217,
            "midi": 82,
            "name": "A#5",
            "ticks": 286320,
            "time": 298.25,
            "velocity": 0.6535433070866141
          },
          {
            "duration": 0.22604166666667425,
            "durationTicks": 217,
            "midi": 79,
            "name": "G5",
            "ticks": 286560,
            "time": 298.5,
            "velocity": 0.7480314960629921
          },
          {
            "duration": 0.22604166666667425,
            "durationTicks": 217,
            "midi": 82,
            "name": "A#5",
            "ticks": 286560,
            "time": 298.5,
            "velocity": 0.7480314960629921
          },
          {
            "duration": 0.22604166666667425,
            "durationTicks": 217,
            "midi": 79,
            "name": "G5",
            "ticks": 286800,
            "time": 298.75,
            "velocity": 0.7874015748031497
          },
          {
            "duration": 0.22604166666667425,
            "durationTicks": 217,
            "midi": 82,
            "name": "A#5",
            "ticks": 286800,
            "time": 298.75,
            "velocity": 0.7874015748031497
          },
          {
            "duration": 1.8999999999999773,
            "durationTicks": 1824,
            "midi": 79,
            "name": "G5",
            "ticks": 287040,
            "time": 299,
            "velocity": 0.7559055118110236
          },
          {
            "duration": 1.8999999999999773,
            "durationTicks": 1824,
            "midi": 82,
            "name": "A#5",
            "ticks": 287040,
            "time": 299,
            "velocity": 0.7559055118110236
          },
          {
            "duration": 0.45104166666664014,
            "durationTicks": 433,
            "midi": 79,
            "name": "G5",
            "ticks": 288960,
            "time": 301,
            "velocity": 0.7559055118110236
          },
          {
            "duration": 0.45104166666664014,
            "durationTicks": 433,
            "midi": 82,
            "name": "A#5",
            "ticks": 288960,
            "time": 301,
            "velocity": 0.7559055118110236
          },
          {
            "duration": 0.22604166666667425,
            "durationTicks": 217,
            "midi": 79,
            "name": "G5",
            "ticks": 290160,
            "time": 302.25,
            "velocity": 0.7086614173228346
          },
          {
            "duration": 0.22604166666667425,
            "durationTicks": 217,
            "midi": 82,
            "name": "A#5",
            "ticks": 290160,
            "time": 302.25,
            "velocity": 0.7086614173228346
          },
          {
            "duration": 0.22604166666667425,
            "durationTicks": 217,
            "midi": 79,
            "name": "G5",
            "ticks": 290400,
            "time": 302.5,
            "velocity": 0.7952755905511811
          },
          {
            "duration": 0.22604166666667425,
            "durationTicks": 217,
            "midi": 82,
            "name": "A#5",
            "ticks": 290400,
            "time": 302.5,
            "velocity": 0.7952755905511811
          },
          {
            "duration": 0.22604166666667425,
            "durationTicks": 217,
            "midi": 79,
            "name": "G5",
            "ticks": 290640,
            "time": 302.75,
            "velocity": 0.8503937007874016
          },
          {
            "duration": 0.22604166666667425,
            "durationTicks": 217,
            "midi": 82,
            "name": "A#5",
            "ticks": 290640,
            "time": 302.75,
            "velocity": 0.8503937007874016
          },
          {
            "duration": 0.45104166666664014,
            "durationTicks": 433,
            "midi": 79,
            "name": "G5",
            "ticks": 290880,
            "time": 303,
            "velocity": 0.8346456692913385
          },
          {
            "duration": 0.45104166666664014,
            "durationTicks": 433,
            "midi": 82,
            "name": "A#5",
            "ticks": 290880,
            "time": 303,
            "velocity": 0.8346456692913385
          },
          {
            "duration": 0.22604166666667425,
            "durationTicks": 217,
            "midi": 79,
            "name": "G5",
            "ticks": 292320,
            "time": 304.5,
            "velocity": 0.7637795275590551
          },
          {
            "duration": 0.22604166666667425,
            "durationTicks": 217,
            "midi": 82,
            "name": "A#5",
            "ticks": 292320,
            "time": 304.5,
            "velocity": 0.7637795275590551
          },
          {
            "duration": 0.22604166666667425,
            "durationTicks": 217,
            "midi": 79,
            "name": "G5",
            "ticks": 292560,
            "time": 304.75,
            "velocity": 0.8031496062992126
          },
          {
            "duration": 0.22604166666667425,
            "durationTicks": 217,
            "midi": 82,
            "name": "A#5",
            "ticks": 292560,
            "time": 304.75,
            "velocity": 0.8031496062992126
          },
          {
            "duration": 0.45104166666664014,
            "durationTicks": 433,
            "midi": 79,
            "name": "G5",
            "ticks": 292800,
            "time": 305,
            "velocity": 0.7952755905511811
          },
          {
            "duration": 0.45104166666664014,
            "durationTicks": 433,
            "midi": 82,
            "name": "A#5",
            "ticks": 292800,
            "time": 305,
            "velocity": 0.7952755905511811
          },
          {
            "duration": 0.22604166666667425,
            "durationTicks": 217,
            "midi": 74,
            "name": "D5",
            "ticks": 293280,
            "time": 305.5,
            "velocity": 0.7874015748031497
          },
          {
            "duration": 0.22604166666667425,
            "durationTicks": 217,
            "midi": 81,
            "name": "A5",
            "ticks": 293280,
            "time": 305.5,
            "velocity": 0.7874015748031497
          },
          {
            "duration": 0.22604166666667425,
            "durationTicks": 217,
            "midi": 74,
            "name": "D5",
            "ticks": 293520,
            "time": 305.75,
            "velocity": 0.8110236220472441
          },
          {
            "duration": 0.22604166666667425,
            "durationTicks": 217,
            "midi": 81,
            "name": "A5",
            "ticks": 293520,
            "time": 305.75,
            "velocity": 0.8110236220472441
          },
          {
            "duration": 0.45104166666664014,
            "durationTicks": 433,
            "midi": 74,
            "name": "D5",
            "ticks": 293760,
            "time": 306,
            "velocity": 0.8188976377952756
          },
          {
            "duration": 0.45104166666664014,
            "durationTicks": 433,
            "midi": 81,
            "name": "A5",
            "ticks": 293760,
            "time": 306,
            "velocity": 0.8188976377952756
          },
          {
            "duration": 0.22604166666667425,
            "durationTicks": 217,
            "midi": 78,
            "name": "F#5",
            "ticks": 300000,
            "time": 312.5,
            "velocity": 0.7952755905511811
          },
          {
            "duration": 0.22604166666667425,
            "durationTicks": 217,
            "midi": 78,
            "name": "F#5",
            "ticks": 300240,
            "time": 312.75,
            "velocity": 0.8818897637795275
          },
          {
            "duration": 0.45104166666664014,
            "durationTicks": 433,
            "midi": 78,
            "name": "F#5",
            "ticks": 300480,
            "time": 313,
            "velocity": 0.8582677165354331
          },
          {
            "duration": 0.22604166666667425,
            "durationTicks": 217,
            "midi": 78,
            "name": "F#5",
            "ticks": 300960,
            "time": 313.5,
            "velocity": 0.952755905511811
          },
          {
            "duration": 0.22604166666667425,
            "durationTicks": 217,
            "midi": 81,
            "name": "A5",
            "ticks": 300960,
            "time": 313.5,
            "velocity": 0.952755905511811
          },
          {
            "duration": 0.22604166666667425,
            "durationTicks": 217,
            "midi": 78,
            "name": "F#5",
            "ticks": 301200,
            "time": 313.75,
            "velocity": 0.8976377952755905
          },
          {
            "duration": 0.22604166666667425,
            "durationTicks": 217,
            "midi": 81,
            "name": "A5",
            "ticks": 301200,
            "time": 313.75,
            "velocity": 0.8976377952755905
          },
          {
            "duration": 0.45104166666664014,
            "durationTicks": 433,
            "midi": 79,
            "name": "G5",
            "ticks": 301440,
            "time": 314,
            "velocity": 0.984251968503937
          },
          {
            "duration": 0.45104166666664014,
            "durationTicks": 433,
            "midi": 83,
            "name": "B5",
            "ticks": 301440,
            "time": 314,
            "velocity": 0.984251968503937
          },
          {
            "duration": 0.22604166666667425,
            "durationTicks": 217,
            "midi": 77,
            "name": "F5",
            "ticks": 307680,
            "time": 320.5,
            "velocity": 0.8188976377952756
          },
          {
            "duration": 0.22604166666667425,
            "durationTicks": 217,
            "midi": 77,
            "name": "F5",
            "ticks": 307920,
            "time": 320.75,
            "velocity": 0.8818897637795275
          },
          {
            "duration": 0.45104166666664014,
            "durationTicks": 433,
            "midi": 77,
            "name": "F5",
            "ticks": 308160,
            "time": 321,
            "velocity": 0.9133858267716536
          },
          {
            "duration": 0.22604166666667425,
            "durationTicks": 217,
            "midi": 72,
            "name": "C5",
            "ticks": 309360,
            "time": 322.25,
            "velocity": 0.8503937007874016
          },
          {
            "duration": 0.22604166666667425,
            "durationTicks": 217,
            "midi": 84,
            "name": "C6",
            "ticks": 309360,
            "time": 322.25,
            "velocity": 0.8503937007874016
          },
          {
            "duration": 0.22604166666667425,
            "durationTicks": 217,
            "midi": 72,
            "name": "C5",
            "ticks": 309600,
            "time": 322.5,
            "velocity": 0.8818897637795275
          },
          {
            "duration": 0.22604166666667425,
            "durationTicks": 217,
            "midi": 84,
            "name": "C6",
            "ticks": 309600,
            "time": 322.5,
            "velocity": 0.8818897637795275
          },
          {
            "duration": 0.22604166666667425,
            "durationTicks": 217,
            "midi": 72,
            "name": "C5",
            "ticks": 309840,
            "time": 322.75,
            "velocity": 0.8740157480314961
          },
          {
            "duration": 0.22604166666667425,
            "durationTicks": 217,
            "midi": 84,
            "name": "C6",
            "ticks": 309840,
            "time": 322.75,
            "velocity": 0.8740157480314961
          },
          {
            "duration": 1.0197916666666629,
            "durationTicks": 979,
            "midi": 77,
            "name": "F5",
            "ticks": 310080,
            "time": 323,
            "velocity": 0.7322834645669292
          },
          {
            "duration": 0.9489583333333371,
            "durationTicks": 911,
            "midi": 79,
            "name": "G5",
            "ticks": 311040,
            "time": 324,
            "velocity": 0.7165354330708661
          },
          {
            "duration": 1.0197916666666629,
            "durationTicks": 979,
            "midi": 65,
            "name": "F4",
            "ticks": 313920,
            "time": 327,
            "velocity": 0.84251968503937
          },
          {
            "duration": 1.0197916666666629,
            "durationTicks": 979,
            "midi": 77,
            "name": "F5",
            "ticks": 313920,
            "time": 327,
            "velocity": 0.84251968503937
          },
          {
            "duration": 0.9489583333333371,
            "durationTicks": 911,
            "midi": 67,
            "name": "G4",
            "ticks": 314880,
            "time": 328,
            "velocity": 0.8976377952755905
          },
          {
            "duration": 0.9489583333333371,
            "durationTicks": 911,
            "midi": 79,
            "name": "G5",
            "ticks": 314880,
            "time": 328,
            "velocity": 0.8976377952755905
          },
          {
            "duration": 1.0197916666666629,
            "durationTicks": 979,
            "midi": 77,
            "name": "F5",
            "ticks": 317760,
            "time": 331,
            "velocity": 0.8503937007874016
          },
          {
            "duration": 0.9489583333333371,
            "durationTicks": 911,
            "midi": 78,
            "name": "F#5",
            "ticks": 318720,
            "time": 332,
            "velocity": 0.905511811023622
          },
          {
            "duration": 1.0197916666666629,
            "durationTicks": 979,
            "midi": 81,
            "name": "A5",
            "ticks": 321600,
            "time": 335,
            "velocity": 0.984251968503937
          },
          {
            "duration": 0.9489583333333371,
            "durationTicks": 911,
            "midi": 82,
            "name": "A#5",
            "ticks": 322560,
            "time": 336,
            "velocity": 1
          },
          {
            "duration": 0.8999999999999773,
            "durationTicks": 864,
            "midi": 81,
            "name": "A5",
            "ticks": 330240,
            "time": 344,
            "velocity": 0.4645669291338583
          },
          {
            "duration": 0.8999999999999773,
            "durationTicks": 864,
            "midi": 81,
            "name": "A5",
            "ticks": 332160,
            "time": 346,
            "velocity": 0.4566929133858268
          },
          {
            "duration": 0.8999999999999773,
            "durationTicks": 864,
            "midi": 81,
            "name": "A5",
            "ticks": 334080,
            "time": 348,
            "velocity": 0.4015748031496063
          },
          {
            "duration": 0.8999999999999773,
            "durationTicks": 864,
            "midi": 81,
            "name": "A5",
            "ticks": 336000,
            "time": 350,
            "velocity": 0.41732283464566927
          },
          {
            "duration": 0.8999999999999773,
            "durationTicks": 864,
            "midi": 81,
            "name": "A5",
            "ticks": 337920,
            "time": 352,
            "velocity": 0.4015748031496063
          },
          {
            "duration": 0.8999999999999773,
            "durationTicks": 864,
            "midi": 81,
            "name": "A5",
            "ticks": 339840,
            "time": 354,
            "velocity": 0.4409448818897638
          },
          {
            "duration": 0.22604166666667425,
            "durationTicks": 217,
            "midi": 74,
            "name": "D5",
            "ticks": 341040,
            "time": 355.25,
            "velocity": 0.8188976377952756
          },
          {
            "duration": 0.22604166666667425,
            "durationTicks": 217,
            "midi": 86,
            "name": "D6",
            "ticks": 341040,
            "time": 355.25,
            "velocity": 0.8188976377952756
          },
          {
            "duration": 0.22604166666667425,
            "durationTicks": 217,
            "midi": 74,
            "name": "D5",
            "ticks": 341280,
            "time": 355.5,
            "velocity": 0.8740157480314961
          },
          {
            "duration": 0.22604166666667425,
            "durationTicks": 217,
            "midi": 86,
            "name": "D6",
            "ticks": 341280,
            "time": 355.5,
            "velocity": 0.8740157480314961
          },
          {
            "duration": 0.22604166666667425,
            "durationTicks": 217,
            "midi": 74,
            "name": "D5",
            "ticks": 341520,
            "time": 355.75,
            "velocity": 0.8976377952755905
          },
          {
            "duration": 0.22604166666667425,
            "durationTicks": 217,
            "midi": 86,
            "name": "D6",
            "ticks": 341520,
            "time": 355.75,
            "velocity": 0.8976377952755905
          },
          {
            "duration": 0.8999999999999773,
            "durationTicks": 864,
            "midi": 71,
            "name": "B4",
            "ticks": 341760,
            "time": 356,
            "velocity": 0.8031496062992126
          },
          {
            "duration": 0.8999999999999773,
            "durationTicks": 864,
            "midi": 83,
            "name": "B5",
            "ticks": 341760,
            "time": 356,
            "velocity": 0.8031496062992126
          },
          {
            "duration": 0.8999999999999773,
            "durationTicks": 864,
            "midi": 72,
            "name": "C5",
            "ticks": 342720,
            "time": 357,
            "velocity": 0.9212598425196851
          },
          {
            "duration": 0.8999999999999773,
            "durationTicks": 864,
            "midi": 84,
            "name": "C6",
            "ticks": 342720,
            "time": 357,
            "velocity": 0.9212598425196851
          },
          {
            "duration": 1.8999999999999773,
            "durationTicks": 1824,
            "midi": 69,
            "name": "A4",
            "ticks": 343680,
            "time": 358,
            "velocity": 0.8110236220472441
          },
          {
            "duration": 1.8999999999999773,
            "durationTicks": 1824,
            "midi": 81,
            "name": "A5",
            "ticks": 343680,
            "time": 358,
            "velocity": 0.8110236220472441
          },
          {
            "duration": 0.8999999999999773,
            "durationTicks": 864,
            "midi": 80,
            "name": "G#5",
            "ticks": 345600,
            "time": 360,
            "velocity": 0.4015748031496063
          },
          {
            "duration": 0.8999999999999773,
            "durationTicks": 864,
            "midi": 80,
            "name": "G#5",
            "ticks": 347520,
            "time": 362,
            "velocity": 0.4094488188976378
          },
          {
            "duration": 0.8999999999999773,
            "durationTicks": 864,
            "midi": 80,
            "name": "G#5",
            "ticks": 349440,
            "time": 364,
            "velocity": 0.41732283464566927
          },
          {
            "duration": 0.8999999999999773,
            "durationTicks": 864,
            "midi": 80,
            "name": "G#5",
            "ticks": 351360,
            "time": 366,
            "velocity": 0.3858267716535433
          },
          {
            "duration": 0.22604166666667425,
            "durationTicks": 217,
            "midi": 80,
            "name": "G#5",
            "ticks": 353520,
            "time": 368.25,
            "velocity": 0.8188976377952756
          },
          {
            "duration": 0.22604166666667425,
            "durationTicks": 217,
            "midi": 80,
            "name": "G#5",
            "ticks": 353760,
            "time": 368.5,
            "velocity": 0.8661417322834646
          },
          {
            "duration": 0.22604166666667425,
            "durationTicks": 217,
            "midi": 80,
            "name": "G#5",
            "ticks": 354000,
            "time": 368.75,
            "velocity": 0.8976377952755905
          },
          {
            "duration": 1.2260416666666742,
            "durationTicks": 1177,
            "midi": 77,
            "name": "F5",
            "ticks": 354240,
            "time": 369,
            "velocity": 0.7952755905511811
          },
          {
            "duration": 0.22604166666667425,
            "durationTicks": 217,
            "midi": 80,
            "name": "G#5",
            "ticks": 355440,
            "time": 370.25,
            "velocity": 0.9448818897637795
          },
          {
            "duration": 0.22604166666667425,
            "durationTicks": 217,
            "midi": 80,
            "name": "G#5",
            "ticks": 355680,
            "time": 370.5,
            "velocity": 0.9291338582677166
          },
          {
            "duration": 0.22604166666667425,
            "durationTicks": 217,
            "midi": 80,
            "name": "G#5",
            "ticks": 355920,
            "time": 370.75,
            "velocity": 0.8976377952755905
          },
          {
            "duration": 1.2260416666666742,
            "durationTicks": 1177,
            "midi": 77,
            "name": "F5",
            "ticks": 356160,
            "time": 371,
            "velocity": 0.7874015748031497
          },
          {
            "duration": 0.22604166666667425,
            "durationTicks": 217,
            "midi": 80,
            "name": "G#5",
            "ticks": 357360,
            "time": 372.25,
            "velocity": 0.952755905511811
          },
          {
            "duration": 0.22604166666667425,
            "durationTicks": 217,
            "midi": 80,
            "name": "G#5",
            "ticks": 357600,
            "time": 372.5,
            "velocity": 0.8976377952755905
          },
          {
            "duration": 0.22604166666667425,
            "durationTicks": 217,
            "midi": 80,
            "name": "G#5",
            "ticks": 357840,
            "time": 372.75,
            "velocity": 0.8740157480314961
          },
          {
            "duration": 0.22604166666667425,
            "durationTicks": 217,
            "midi": 77,
            "name": "F5",
            "ticks": 358080,
            "time": 373,
            "velocity": 0.8110236220472441
          },
          {
            "duration": 0.22604166666667425,
            "durationTicks": 217,
            "midi": 80,
            "name": "G#5",
            "ticks": 358320,
            "time": 373.25,
            "velocity": 0.937007874015748
          },
          {
            "duration": 0.22604166666667425,
            "durationTicks": 217,
            "midi": 80,
            "name": "G#5",
            "ticks": 358560,
            "time": 373.5,
            "velocity": 0.8661417322834646
          },
          {
            "duration": 0.22604166666667425,
            "durationTicks": 217,
            "midi": 80,
            "name": "G#5",
            "ticks": 358800,
            "time": 373.75,
            "velocity": 0.889763779527559
          },
          {
            "duration": 0.22604166666667425,
            "durationTicks": 217,
            "midi": 77,
            "name": "F5",
            "ticks": 359040,
            "time": 374,
            "velocity": 0.8188976377952756
          },
          {
            "duration": 0.22604166666667425,
            "durationTicks": 217,
            "midi": 80,
            "name": "G#5",
            "ticks": 359280,
            "time": 374.25,
            "velocity": 0.952755905511811
          },
          {
            "duration": 0.22604166666667425,
            "durationTicks": 217,
            "midi": 80,
            "name": "G#5",
            "ticks": 359520,
            "time": 374.5,
            "velocity": 0.8661417322834646
          },
          {
            "duration": 0.22604166666667425,
            "durationTicks": 217,
            "midi": 80,
            "name": "G#5",
            "ticks": 359760,
            "time": 374.75,
            "velocity": 0.9133858267716536
          },
          {
            "duration": 0.22604166666667425,
            "durationTicks": 217,
            "midi": 65,
            "name": "F4",
            "ticks": 360000,
            "time": 375,
            "velocity": 0.8110236220472441
          },
          {
            "duration": 0.22604166666667425,
            "durationTicks": 217,
            "midi": 77,
            "name": "F5",
            "ticks": 360000,
            "time": 375,
            "velocity": 0.8110236220472441
          },
          {
            "duration": 0.22604166666667425,
            "durationTicks": 217,
            "midi": 67,
            "name": "G4",
            "ticks": 360240,
            "time": 375.25,
            "velocity": 0.905511811023622
          },
          {
            "duration": 0.22604166666667425,
            "durationTicks": 217,
            "midi": 79,
            "name": "G5",
            "ticks": 360240,
            "time": 375.25,
            "velocity": 0.905511811023622
          },
          {
            "duration": 0.22604166666667425,
            "durationTicks": 217,
            "midi": 67,
            "name": "G4",
            "ticks": 360480,
            "time": 375.5,
            "velocity": 0.8818897637795275
          },
          {
            "duration": 0.22604166666667425,
            "durationTicks": 217,
            "midi": 79,
            "name": "G5",
            "ticks": 360480,
            "time": 375.5,
            "velocity": 0.8818897637795275
          },
          {
            "duration": 0.22604166666667425,
            "durationTicks": 217,
            "midi": 67,
            "name": "G4",
            "ticks": 360720,
            "time": 375.75,
            "velocity": 0.8976377952755905
          },
          {
            "duration": 0.22604166666667425,
            "durationTicks": 217,
            "midi": 79,
            "name": "G5",
            "ticks": 360720,
            "time": 375.75,
            "velocity": 0.8976377952755905
          },
          {
            "duration": 1.5,
            "durationTicks": 1440,
            "midi": 75,
            "name": "D#5",
            "ticks": 360960,
            "time": 376,
            "velocity": 0.8661417322834646
          },
          {
            "duration": 1.5,
            "durationTicks": 1440,
            "midi": 79,
            "name": "G5",
            "ticks": 360960,
            "time": 376,
            "velocity": 0.8661417322834646
          },
          {
            "duration": 0.22604166666667425,
            "durationTicks": 217,
            "midi": 77,
            "name": "F5",
            "ticks": 362640,
            "time": 377.75,
            "velocity": 0.7795275590551181
          },
          {
            "duration": 0.22604166666667425,
            "durationTicks": 217,
            "midi": 79,
            "name": "G5",
            "ticks": 362640,
            "time": 377.75,
            "velocity": 0.7795275590551181
          },
          {
            "duration": 0.22604166666667425,
            "durationTicks": 217,
            "midi": 77,
            "name": "F5",
            "ticks": 362880,
            "time": 378,
            "velocity": 0.889763779527559
          },
          {
            "duration": 0.22604166666667425,
            "durationTicks": 217,
            "midi": 79,
            "name": "G5",
            "ticks": 362880,
            "time": 378,
            "velocity": 0.889763779527559
          },
          {
            "duration": 0.22604166666667425,
            "durationTicks": 217,
            "midi": 77,
            "name": "F5",
            "ticks": 363120,
            "time": 378.25,
            "velocity": 0.905511811023622
          },
          {
            "duration": 0.22604166666667425,
            "durationTicks": 217,
            "midi": 79,
            "name": "G5",
            "ticks": 363120,
            "time": 378.25,
            "velocity": 0.905511811023622
          },
          {
            "duration": 2.5,
            "durationTicks": 2400,
            "midi": 74,
            "name": "D5",
            "ticks": 363360,
            "time": 378.5,
            "velocity": 0.8818897637795275
          },
          {
            "duration": 2.5,
            "durationTicks": 2400,
            "midi": 79,
            "name": "G5",
            "ticks": 363360,
            "time": 378.5,
            "velocity": 0.8818897637795275
          },
          {
            "duration": 3.8999999999999773,
            "durationTicks": 3744,
            "midi": 72,
            "name": "C5",
            "ticks": 366720,
            "time": 382,
            "velocity": 0.3779527559055118
          },
          {
            "duration": 3.8999999999999773,
            "durationTicks": 3744,
            "midi": 74,
            "name": "D5",
            "ticks": 370560,
            "time": 386,
            "velocity": 0.5196850393700787
          },
          {
            "duration": 1.0197916666666629,
            "durationTicks": 979,
            "midi": 75,
            "name": "D#5",
            "ticks": 374400,
            "time": 390,
            "velocity": 0.5118110236220472
          },
          {
            "duration": 1.0197916666666629,
            "durationTicks": 979,
            "midi": 74,
            "name": "D5",
            "ticks": 375360,
            "time": 391,
            "velocity": 0.4881889763779528
          },
          {
            "duration": 1.0197916666666629,
            "durationTicks": 979,
            "midi": 72,
            "name": "C5",
            "ticks": 376320,
            "time": 392,
            "velocity": 0.4409448818897638
          },
          {
            "duration": 0.5093749999999773,
            "durationTicks": 489,
            "midi": 71,
            "name": "B4",
            "ticks": 377280,
            "time": 393,
            "velocity": 0.5118110236220472
          },
          {
            "duration": 0.2541666666666629,
            "durationTicks": 244,
            "midi": 72,
            "name": "C5",
            "ticks": 377760,
            "time": 393.5,
            "velocity": 0.5275590551181102
          },
          {
            "duration": 0.23645833333335986,
            "durationTicks": 227,
            "midi": 74,
            "name": "D5",
            "ticks": 378000,
            "time": 393.75,
            "velocity": 0.5984251968503937
          },
          {
            "duration": 1.0197916666666629,
            "durationTicks": 979,
            "midi": 75,
            "name": "D#5",
            "ticks": 378240,
            "time": 394,
            "velocity": 0.6062992125984252
          },
          {
            "duration": 0.9489583333333371,
            "durationTicks": 911,
            "midi": 72,
            "name": "C5",
            "ticks": 379200,
            "time": 395,
            "velocity": 0.6141732283464567
          },
          {
            "duration": 1.25,
            "durationTicks": 1200,
            "midi": 79,
            "name": "G5",
            "ticks": 380160,
            "time": 396,
            "velocity": 0.905511811023622
          },
          {
            "duration": 0.5093749999999773,
            "durationTicks": 489,
            "midi": 77,
            "name": "F5",
            "ticks": 381360,
            "time": 397.25,
            "velocity": 0.5905511811023622
          },
          {
            "duration": 0.5093749999999773,
            "durationTicks": 489,
            "midi": 75,
            "name": "D#5",
            "ticks": 381840,
            "time": 397.75,
            "velocity": 0.5039370078740157
          },
          {
            "duration": 1.0197916666666629,
            "durationTicks": 979,
            "midi": 74,
            "name": "D5",
            "ticks": 382320,
            "time": 398.25,
            "velocity": 0.4645669291338583
          },
          {
            "duration": 0.12708333333335986,
            "durationTicks": 122,
            "midi": 75,
            "name": "D#5",
            "ticks": 383280,
            "time": 399.25,
            "velocity": 0.6141732283464567
          },
          {
            "duration": 0.12708333333335986,
            "durationTicks": 122,
            "midi": 74,
            "name": "D5",
            "ticks": 383400,
            "time": 399.375,
            "velocity": 0.5826771653543307
          },
          {
            "duration": 0.12708333333335986,
            "durationTicks": 122,
            "midi": 72,
            "name": "C5",
            "ticks": 383520,
            "time": 399.5,
            "velocity": 0.5196850393700787
          },
          {
            "duration": 0.12708333333335986,
            "durationTicks": 122,
            "midi": 74,
            "name": "D5",
            "ticks": 383640,
            "time": 399.625,
            "velocity": 0.5433070866141733
          },
          {
            "duration": 0.5093749999999773,
            "durationTicks": 489,
            "midi": 77,
            "name": "F5",
            "ticks": 383760,
            "time": 399.75,
            "velocity": 0.6141732283464567
          },
          {
            "duration": 0.5093749999999773,
            "durationTicks": 489,
            "midi": 75,
            "name": "D#5",
            "ticks": 384240,
            "time": 400.25,
            "velocity": 0.5984251968503937
          },
          {
            "duration": 0.7885416666666742,
            "durationTicks": 757,
            "midi": 74,
            "name": "D5",
            "ticks": 384720,
            "time": 400.75,
            "velocity": 0.5039370078740157
          },
          {
            "duration": 2.8999999999999773,
            "durationTicks": 2784,
            "midi": 74,
            "name": "D5",
            "ticks": 386400,
            "time": 402.5,
            "velocity": 0.5354330708661418
          },
          {
            "duration": 2.8999999999999773,
            "durationTicks": 2784,
            "midi": 77,
            "name": "F5",
            "ticks": 386400,
            "time": 402.5,
            "velocity": 0.5354330708661418
          },
          {
            "duration": 0.45104166666664014,
            "durationTicks": 433,
            "midi": 72,
            "name": "C5",
            "ticks": 389280,
            "time": 405.5,
            "velocity": 0.4330708661417323
          },
          {
            "duration": 0.45104166666664014,
            "durationTicks": 433,
            "midi": 75,
            "name": "D#5",
            "ticks": 389280,
            "time": 405.5,
            "velocity": 0.4330708661417323
          },
          {
            "duration": 1.8999999999999773,
            "durationTicks": 1824,
            "midi": 83,
            "name": "B5",
            "ticks": 391200,
            "time": 407.5,
            "velocity": 0.4251968503937008
          },
          {
            "duration": 0.45104166666664014,
            "durationTicks": 433,
            "midi": 84,
            "name": "C6",
            "ticks": 393120,
            "time": 409.5,
            "velocity": 0.8188976377952756
          },
          {
            "duration": 0.45104166666664014,
            "durationTicks": 433,
            "midi": 77,
            "name": "F5",
            "ticks": 395040,
            "time": 411.5,
            "velocity": 0.6850393700787402
          },
          {
            "duration": 0.45104166666664014,
            "durationTicks": 433,
            "midi": 80,
            "name": "G#5",
            "ticks": 395040,
            "time": 411.5,
            "velocity": 0.6850393700787402
          },
          {
            "duration": 0.22604166666667425,
            "durationTicks": 217,
            "midi": 75,
            "name": "D#5",
            "ticks": 396240,
            "time": 412.75,
            "velocity": 0.6535433070866141
          },
          {
            "duration": 0.22604166666667425,
            "durationTicks": 217,
            "midi": 79,
            "name": "G5",
            "ticks": 396240,
            "time": 412.75,
            "velocity": 0.6535433070866141
          },
          {
            "duration": 0.22604166666667425,
            "durationTicks": 217,
            "midi": 75,
            "name": "D#5",
            "ticks": 396480,
            "time": 413,
            "velocity": 0.7716535433070866
          },
          {
            "duration": 0.22604166666667425,
            "durationTicks": 217,
            "midi": 79,
            "name": "G5",
            "ticks": 396480,
            "time": 413,
            "velocity": 0.7716535433070866
          },
          {
            "duration": 0.22604166666667425,
            "durationTicks": 217,
            "midi": 75,
            "name": "D#5",
            "ticks": 396720,
            "time": 413.25,
            "velocity": 0.7716535433070866
          },
          {
            "duration": 0.22604166666667425,
            "durationTicks": 217,
            "midi": 79,
            "name": "G5",
            "ticks": 396720,
            "time": 413.25,
            "velocity": 0.7716535433070866
          },
          {
            "duration": 0.45104166666664014,
            "durationTicks": 433,
            "midi": 75,
            "name": "D#5",
            "ticks": 396960,
            "time": 413.5,
            "velocity": 0.8031496062992126
          },
          {
            "duration": 0.45104166666664014,
            "durationTicks": 433,
            "midi": 79,
            "name": "G5",
            "ticks": 396960,
            "time": 413.5,
            "velocity": 0.8031496062992126
          },
          {
            "duration": 0.45104166666664014,
            "durationTicks": 433,
            "midi": 77,
            "name": "F5",
            "ticks": 397920,
            "time": 414.5,
            "velocity": 0.7874015748031497
          },
          {
            "duration": 0.45104166666664014,
            "durationTicks": 433,
            "midi": 80,
            "name": "G#5",
            "ticks": 397920,
            "time": 414.5,
            "velocity": 0.7874015748031497
          },
          {
            "duration": 0.45104166666664014,
            "durationTicks": 433,
            "midi": 76,
            "name": "E5",
            "ticks": 398880,
            "time": 415.5,
            "velocity": 0.8031496062992126
          },
          {
            "duration": 0.45104166666664014,
            "durationTicks": 433,
            "midi": 79,
            "name": "G5",
            "ticks": 398880,
            "time": 415.5,
            "velocity": 0.8031496062992126
          },
          {
            "duration": 0.45104166666664014,
            "durationTicks": 433,
            "midi": 77,
            "name": "F5",
            "ticks": 399840,
            "time": 416.5,
            "velocity": 0.8110236220472441
          },
          {
            "duration": 0.45104166666664014,
            "durationTicks": 433,
            "midi": 80,
            "name": "G#5",
            "ticks": 399840,
            "time": 416.5,
            "velocity": 0.8110236220472441
          },
          {
            "duration": 0.45104166666664014,
            "durationTicks": 433,
            "midi": 79,
            "name": "G5",
            "ticks": 400800,
            "time": 417.5,
            "velocity": 0.8031496062992126
          },
          {
            "duration": 0.45104166666664014,
            "durationTicks": 433,
            "midi": 82,
            "name": "A#5",
            "ticks": 400800,
            "time": 417.5,
            "velocity": 0.8031496062992126
          },
          {
            "duration": 0.45104166666664014,
            "durationTicks": 433,
            "midi": 77,
            "name": "F5",
            "ticks": 401760,
            "time": 418.5,
            "velocity": 0.7874015748031497
          },
          {
            "duration": 0.45104166666664014,
            "durationTicks": 433,
            "midi": 80,
            "name": "G#5",
            "ticks": 401760,
            "time": 418.5,
            "velocity": 0.7874015748031497
          },
          {
            "duration": 0.45104166666664014,
            "durationTicks": 433,
            "midi": 77,
            "name": "F5",
            "ticks": 402720,
            "time": 419.5,
            "velocity": 0.7795275590551181
          },
          {
            "duration": 0.45104166666664014,
            "durationTicks": 433,
            "midi": 80,
            "name": "G#5",
            "ticks": 402720,
            "time": 419.5,
            "velocity": 0.7795275590551181
          },
          {
            "duration": 3.8999999999999773,
            "durationTicks": 3744,
            "midi": 75,
            "name": "D#5",
            "ticks": 403680,
            "time": 420.5,
            "velocity": 0.7007874015748031
          },
          {
            "duration": 3.8999999999999773,
            "durationTicks": 3744,
            "midi": 79,
            "name": "G5",
            "ticks": 403680,
            "time": 420.5,
            "velocity": 0.7007874015748031
          },
          {
            "duration": 3.45104166666664,
            "durationTicks": 3313,
            "midi": 77,
            "name": "F5",
            "ticks": 407520,
            "time": 424.5,
            "velocity": 0.7322834645669292
          },
          {
            "duration": 3.45104166666664,
            "durationTicks": 3313,
            "midi": 79,
            "name": "G5",
            "ticks": 407520,
            "time": 424.5,
            "velocity": 0.7322834645669292
          },
          {
            "duration": 0.45104166666664014,
            "durationTicks": 433,
            "midi": 75,
            "name": "D#5",
            "ticks": 410880,
            "time": 428,
            "velocity": 0.7480314960629921
          },
          {
            "duration": 0.45104166666664014,
            "durationTicks": 433,
            "midi": 79,
            "name": "G5",
            "ticks": 410880,
            "time": 428,
            "velocity": 0.7480314960629921
          },
          {
            "duration": 3.8999999999999773,
            "durationTicks": 3744,
            "midi": 78,
            "name": "F#5",
            "ticks": 411360,
            "time": 428.5,
            "velocity": 0.9606299212598425
          },
          {
            "duration": 3.8999999999999773,
            "durationTicks": 3744,
            "midi": 81,
            "name": "A5",
            "ticks": 411360,
            "time": 428.5,
            "velocity": 0.9606299212598425
          },
          {
            "duration": 0.45104166666664014,
            "durationTicks": 433,
            "midi": 78,
            "name": "F#5",
            "ticks": 415200,
            "time": 432.5,
            "velocity": 0.8661417322834646
          },
          {
            "duration": 0.45104166666664014,
            "durationTicks": 433,
            "midi": 81,
            "name": "A5",
            "ticks": 415200,
            "time": 432.5,
            "velocity": 0.8661417322834646
          },
          {
            "duration": 0.45104166666664014,
            "durationTicks": 433,
            "midi": 74,
            "name": "D5",
            "ticks": 417120,
            "time": 434.5,
            "velocity": 0.7952755905511811
          },
          {
            "duration": 0.45104166666664014,
            "durationTicks": 433,
            "midi": 79,
            "name": "G5",
            "ticks": 417120,
            "time": 434.5,
            "velocity": 0.7952755905511811
          },
          {
            "duration": 1.1541666666666401,
            "durationTicks": 1108,
            "midi": 72,
            "name": "C5",
            "ticks": 425760,
            "time": 443.5,
            "velocity": 0.4015748031496063
          },
          {
            "duration": 1.1541666666666401,
            "durationTicks": 1108,
            "midi": 76,
            "name": "E5",
            "ticks": 425760,
            "time": 443.5,
            "velocity": 0.4015748031496063
          },
          {
            "duration": 1.0020833333333599,
            "durationTicks": 962,
            "midi": 74,
            "name": "D5",
            "ticks": 426720,
            "time": 444.5,
            "velocity": 0.4409448818897638
          },
          {
            "duration": 1.0020833333333599,
            "durationTicks": 962,
            "midi": 77,
            "name": "F5",
            "ticks": 426720,
            "time": 444.5,
            "velocity": 0.4409448818897638
          },
          {
            "duration": 1.1541666666666401,
            "durationTicks": 1108,
            "midi": 71,
            "name": "B4",
            "ticks": 427680,
            "time": 445.5,
            "velocity": 0.5196850393700787
          },
          {
            "duration": 1.1541666666666401,
            "durationTicks": 1108,
            "midi": 77,
            "name": "F5",
            "ticks": 427680,
            "time": 445.5,
            "velocity": 0.5196850393700787
          },
          {
            "duration": 1.0020833333333599,
            "durationTicks": 962,
            "midi": 72,
            "name": "C5",
            "ticks": 428640,
            "time": 446.5,
            "velocity": 0.4881889763779528
          },
          {
            "duration": 1.0020833333333599,
            "durationTicks": 962,
            "midi": 76,
            "name": "E5",
            "ticks": 428640,
            "time": 446.5,
            "velocity": 0.4881889763779528
          },
          {
            "duration": 1.1541666666666401,
            "durationTicks": 1108,
            "midi": 72,
            "name": "C5",
            "ticks": 433440,
            "time": 451.5,
            "velocity": 0.44881889763779526
          },
          {
            "duration": 1.1541666666666401,
            "durationTicks": 1108,
            "midi": 76,
            "name": "E5",
            "ticks": 433440,
            "time": 451.5,
            "velocity": 0.44881889763779526
          },
          {
            "duration": 1.0020833333333599,
            "durationTicks": 962,
            "midi": 74,
            "name": "D5",
            "ticks": 434400,
            "time": 452.5,
            "velocity": 0.47244094488188976
          },
          {
            "duration": 1.0020833333333599,
            "durationTicks": 962,
            "midi": 77,
            "name": "F5",
            "ticks": 434400,
            "time": 452.5,
            "velocity": 0.47244094488188976
          },
          {
            "duration": 1.1541666666666401,
            "durationTicks": 1108,
            "midi": 71,
            "name": "B4",
            "ticks": 435360,
            "time": 453.5,
            "velocity": 0.5039370078740157
          },
          {
            "duration": 1.1541666666666401,
            "durationTicks": 1108,
            "midi": 77,
            "name": "F5",
            "ticks": 435360,
            "time": 453.5,
            "velocity": 0.5039370078740157
          },
          {
            "duration": 1.0020833333333599,
            "durationTicks": 962,
            "midi": 72,
            "name": "C5",
            "ticks": 436320,
            "time": 454.5,
            "velocity": 0.4566929133858268
          },
          {
            "duration": 1.0020833333333599,
            "durationTicks": 962,
            "midi": 76,
            "name": "E5",
            "ticks": 436320,
            "time": 454.5,
            "velocity": 0.4566929133858268
          },
          {
            "duration": 1.4510416666666401,
            "durationTicks": 1393,
            "midi": 79,
            "name": "G5",
            "ticks": 459360,
            "time": 478.5,
            "velocity": 1
          },
          {
            "duration": 1.4510416666666401,
            "durationTicks": 1393,
            "midi": 83,
            "name": "B5",
            "ticks": 459360,
            "time": 478.5,
            "velocity": 1
          },
          {
            "duration": 0.45104166666664014,
            "durationTicks": 433,
            "midi": 79,
            "name": "G5",
            "ticks": 460800,
            "time": 480,
            "velocity": 0.968503937007874
          },
          {
            "duration": 0.45104166666664014,
            "durationTicks": 433,
            "midi": 86,
            "name": "D6",
            "ticks": 460800,
            "time": 480,
            "velocity": 0.968503937007874
          },
          {
            "duration": 0.45104166666664014,
            "durationTicks": 433,
            "midi": 79,
            "name": "G5",
            "ticks": 461280,
            "time": 480.5,
            "velocity": 0.8346456692913385
          },
          {
            "duration": 0.45104166666664014,
            "durationTicks": 433,
            "midi": 84,
            "name": "C6",
            "ticks": 461280,
            "time": 480.5,
            "velocity": 0.8346456692913385
          },
          {
            "duration": 0.45104166666664014,
            "durationTicks": 433,
            "midi": 77,
            "name": "F5",
            "ticks": 462240,
            "time": 481.5,
            "velocity": 0.7637795275590551
          },
          {
            "duration": 0.45104166666664014,
            "durationTicks": 433,
            "midi": 79,
            "name": "G5",
            "ticks": 462240,
            "time": 481.5,
            "velocity": 0.7637795275590551
          },
          {
            "duration": 0.45104166666664014,
            "durationTicks": 433,
            "midi": 72,
            "name": "C5",
            "ticks": 463200,
            "time": 482.5,
            "velocity": 0.8031496062992126
          },
          {
            "duration": 0.45104166666664014,
            "durationTicks": 433,
            "midi": 79,
            "name": "G5",
            "ticks": 463200,
            "time": 482.5,
            "velocity": 0.8031496062992126
          },
          {
            "duration": 0.45104166666664014,
            "durationTicks": 433,
            "midi": 74,
            "name": "D5",
            "ticks": 464160,
            "time": 483.5,
            "velocity": 0.7637795275590551
          },
          {
            "duration": 0.45104166666664014,
            "durationTicks": 433,
            "midi": 84,
            "name": "C6",
            "ticks": 464160,
            "time": 483.5,
            "velocity": 0.7637795275590551
          },
          {
            "duration": 0.45104166666664014,
            "durationTicks": 433,
            "midi": 76,
            "name": "E5",
            "ticks": 465120,
            "time": 484.5,
            "velocity": 0.84251968503937
          },
          {
            "duration": 0.45104166666664014,
            "durationTicks": 433,
            "midi": 84,
            "name": "C6",
            "ticks": 465120,
            "time": 484.5,
            "velocity": 0.84251968503937
          },
          {
            "duration": 0.45104166666664014,
            "durationTicks": 433,
            "midi": 74,
            "name": "D5",
            "ticks": 466080,
            "time": 485.5,
            "velocity": 0.8188976377952756
          },
          {
            "duration": 0.45104166666664014,
            "durationTicks": 433,
            "midi": 83,
            "name": "B5",
            "ticks": 466080,
            "time": 485.5,
            "velocity": 0.8188976377952756
          },
          {
            "duration": 1.8999999999999773,
            "durationTicks": 1824,
            "midi": 77,
            "name": "F5",
            "ticks": 467040,
            "time": 486.5,
            "velocity": 0.84251968503937
          },
          {
            "duration": 1.8999999999999773,
            "durationTicks": 1824,
            "midi": 86,
            "name": "D6",
            "ticks": 467040,
            "time": 486.5,
            "velocity": 0.84251968503937
          },
          {
            "duration": 0.45104166666664014,
            "durationTicks": 433,
            "midi": 76,
            "name": "E5",
            "ticks": 468960,
            "time": 488.5,
            "velocity": 0.8110236220472441
          },
          {
            "duration": 0.45104166666664014,
            "durationTicks": 433,
            "midi": 84,
            "name": "C6",
            "ticks": 468960,
            "time": 488.5,
            "velocity": 0.8110236220472441
          },
          {
            "duration": 0.45104166666664014,
            "durationTicks": 433,
            "midi": 76,
            "name": "E5",
            "ticks": 469440,
            "time": 489,
            "velocity": 0.889763779527559
          },
          {
            "duration": 0.45104166666664014,
            "durationTicks": 433,
            "midi": 84,
            "name": "C6",
            "ticks": 469440,
            "time": 489,
            "velocity": 0.889763779527559
          },
          {
            "duration": 0.45104166666664014,
            "durationTicks": 433,
            "midi": 74,
            "name": "D5",
            "ticks": 470400,
            "time": 490,
            "velocity": 0.7795275590551181
          },
          {
            "duration": 0.45104166666664014,
            "durationTicks": 433,
            "midi": 83,
            "name": "B5",
            "ticks": 470400,
            "time": 490,
            "velocity": 0.7795275590551181
          },
          {
            "duration": 0.45104166666664014,
            "durationTicks": 433,
            "midi": 76,
            "name": "E5",
            "ticks": 471360,
            "time": 491,
            "velocity": 0.7952755905511811
          },
          {
            "duration": 0.45104166666664014,
            "durationTicks": 433,
            "midi": 84,
            "name": "C6",
            "ticks": 471360,
            "time": 491,
            "velocity": 0.7952755905511811
          },
          {
            "duration": 0.45104166666664014,
            "durationTicks": 433,
            "midi": 74,
            "name": "D5",
            "ticks": 472320,
            "time": 492,
            "velocity": 0.7716535433070866
          },
          {
            "duration": 0.45104166666664014,
            "durationTicks": 433,
            "midi": 84,
            "name": "C6",
            "ticks": 472320,
            "time": 492,
            "velocity": 0.7716535433070866
          },
          {
            "duration": 0.45104166666664014,
            "durationTicks": 433,
            "midi": 76,
            "name": "E5",
            "ticks": 473280,
            "time": 493,
            "velocity": 0.8110236220472441
          },
          {
            "duration": 0.45104166666664014,
            "durationTicks": 433,
            "midi": 84,
            "name": "C6",
            "ticks": 473280,
            "time": 493,
            "velocity": 0.8110236220472441
          },
          {
            "duration": 0.45104166666664014,
            "durationTicks": 433,
            "midi": 74,
            "name": "D5",
            "ticks": 474240,
            "time": 494,
            "velocity": 0.8031496062992126
          },
          {
            "duration": 0.45104166666664014,
            "durationTicks": 433,
            "midi": 83,
            "name": "B5",
            "ticks": 474240,
            "time": 494,
            "velocity": 0.8031496062992126
          },
          {
            "duration": 0.22604166666667425,
            "durationTicks": 217,
            "midi": 76,
            "name": "E5",
            "ticks": 474720,
            "time": 494.5,
            "velocity": 0.905511811023622
          },
          {
            "duration": 0.22604166666667425,
            "durationTicks": 217,
            "midi": 84,
            "name": "C6",
            "ticks": 474720,
            "time": 494.5,
            "velocity": 0.905511811023622
          },
          {
            "duration": 0.22604166666667425,
            "durationTicks": 217,
            "midi": 76,
            "name": "E5",
            "ticks": 474960,
            "time": 494.75,
            "velocity": 0.7007874015748031
          },
          {
            "duration": 0.22604166666667425,
            "durationTicks": 217,
            "midi": 76,
            "name": "E5",
            "ticks": 475200,
            "time": 495,
            "velocity": 0.8503937007874016
          },
          {
            "duration": 0.22604166666667425,
            "durationTicks": 217,
            "midi": 76,
            "name": "E5",
            "ticks": 475440,
            "time": 495.25,
            "velocity": 0.8818897637795275
          },
          {
            "duration": 0.22604166666667425,
            "durationTicks": 217,
            "midi": 72,
            "name": "C5",
            "ticks": 475680,
            "time": 495.5,
            "velocity": 0.7952755905511811
          },
          {
            "duration": 0.22604166666667425,
            "durationTicks": 217,
            "midi": 79,
            "name": "G5",
            "ticks": 475920,
            "time": 495.75,
            "velocity": 1
          },
          {
            "duration": 0.22604166666667425,
            "durationTicks": 217,
            "midi": 79,
            "name": "G5",
            "ticks": 476160,
            "time": 496,
            "velocity": 0.905511811023622
          },
          {
            "duration": 0.22604166666667425,
            "durationTicks": 217,
            "midi": 79,
            "name": "G5",
            "ticks": 476400,
            "time": 496.25,
            "velocity": 0.8818897637795275
          },
          {
            "duration": 0.22604166666667425,
            "durationTicks": 217,
            "midi": 76,
            "name": "E5",
            "ticks": 476640,
            "time": 496.5,
            "velocity": 0.8503937007874016
          },
          {
            "duration": 0.22604166666667425,
            "durationTicks": 217,
            "midi": 72,
            "name": "C5",
            "ticks": 476880,
            "time": 496.75,
            "velocity": 0.7401574803149606
          },
          {
            "duration": 0.22604166666667425,
            "durationTicks": 217,
            "midi": 72,
            "name": "C5",
            "ticks": 477120,
            "time": 497,
            "velocity": 0.8740157480314961
          },
          {
            "duration": 0.22604166666667425,
            "durationTicks": 217,
            "midi": 72,
            "name": "C5",
            "ticks": 477360,
            "time": 497.25,
            "velocity": 0.8818897637795275
          },
          {
            "duration": 1.2260416666666742,
            "durationTicks": 1177,
            "midi": 67,
            "name": "G4",
            "ticks": 477600,
            "time": 497.5,
            "velocity": 0.7637795275590551
          },
          {
            "duration": 0.22604166666667425,
            "durationTicks": 217,
            "midi": 76,
            "name": "E5",
            "ticks": 478800,
            "time": 498.75,
            "velocity": 1
          },
          {
            "duration": 0.22604166666667425,
            "durationTicks": 217,
            "midi": 76,
            "name": "E5",
            "ticks": 479040,
            "time": 499,
            "velocity": 0.937007874015748
          },
          {
            "duration": 0.22604166666667425,
            "durationTicks": 217,
            "midi": 76,
            "name": "E5",
            "ticks": 479280,
            "time": 499.25,
            "velocity": 0.889763779527559
          },
          {
            "duration": 0.22604166666667425,
            "durationTicks": 217,
            "midi": 72,
            "name": "C5",
            "ticks": 479520,
            "time": 499.5,
            "velocity": 0.7874015748031497
          },
          {
            "duration": 0.22604166666667425,
            "durationTicks": 217,
            "midi": 79,
            "name": "G5",
            "ticks": 479760,
            "time": 499.75,
            "velocity": 1
          },
          {
            "duration": 0.22604166666667425,
            "durationTicks": 217,
            "midi": 79,
            "name": "G5",
            "ticks": 480000,
            "time": 500,
            "velocity": 0.889763779527559
          },
          {
            "duration": 0.22604166666667425,
            "durationTicks": 217,
            "midi": 79,
            "name": "G5",
            "ticks": 480240,
            "time": 500.25,
            "velocity": 0.889763779527559
          },
          {
            "duration": 0.22604166666667425,
            "durationTicks": 217,
            "midi": 76,
            "name": "E5",
            "ticks": 480480,
            "time": 500.5,
            "velocity": 0.8267716535433071
          },
          {
            "duration": 0.22604166666667425,
            "durationTicks": 217,
            "midi": 72,
            "name": "C5",
            "ticks": 480720,
            "time": 500.75,
            "velocity": 0.7401574803149606
          },
          {
            "duration": 0.22604166666667425,
            "durationTicks": 217,
            "midi": 72,
            "name": "C5",
            "ticks": 480960,
            "time": 501,
            "velocity": 0.8503937007874016
          },
          {
            "duration": 0.22604166666667425,
            "durationTicks": 217,
            "midi": 72,
            "name": "C5",
            "ticks": 481200,
            "time": 501.25,
            "velocity": 0.8976377952755905
          },
          {
            "duration": 0.22604166666667425,
            "durationTicks": 217,
            "midi": 67,
            "name": "G4",
            "ticks": 481440,
            "time": 501.5,
            "velocity": 0.7322834645669292
          },
          {
            "duration": 0.22604166666667425,
            "durationTicks": 217,
            "midi": 71,
            "name": "B4",
            "ticks": 481680,
            "time": 501.75,
            "velocity": 1
          },
          {
            "duration": 0.22604166666667425,
            "durationTicks": 217,
            "midi": 74,
            "name": "D5",
            "ticks": 481680,
            "time": 501.75,
            "velocity": 1
          },
          {
            "duration": 0.22604166666667425,
            "durationTicks": 217,
            "midi": 71,
            "name": "B4",
            "ticks": 481920,
            "time": 502,
            "velocity": 0.889763779527559
          },
          {
            "duration": 0.22604166666667425,
            "durationTicks": 217,
            "midi": 74,
            "name": "D5",
            "ticks": 481920,
            "time": 502,
            "velocity": 0.889763779527559
          },
          {
            "duration": 0.22604166666667425,
            "durationTicks": 217,
            "midi": 71,
            "name": "B4",
            "ticks": 482160,
            "time": 502.25,
            "velocity": 0.9133858267716536
          },
          {
            "duration": 0.22604166666667425,
            "durationTicks": 217,
            "midi": 74,
            "name": "D5",
            "ticks": 482160,
            "time": 502.25,
            "velocity": 0.9133858267716536
          },
          {
            "duration": 0.45104166666664014,
            "durationTicks": 433,
            "midi": 72,
            "name": "C5",
            "ticks": 482400,
            "time": 502.5,
            "velocity": 0.937007874015748
          },
          {
            "duration": 0.45104166666664014,
            "durationTicks": 433,
            "midi": 76,
            "name": "E5",
            "ticks": 482400,
            "time": 502.5,
            "velocity": 0.937007874015748
          },
          {
            "duration": 0.22604166666667425,
            "durationTicks": 217,
            "midi": 71,
            "name": "B4",
            "ticks": 483600,
            "time": 503.75,
            "velocity": 0.7874015748031497
          },
          {
            "duration": 0.22604166666667425,
            "durationTicks": 217,
            "midi": 74,
            "name": "D5",
            "ticks": 483600,
            "time": 503.75,
            "velocity": 0.7874015748031497
          },
          {
            "duration": 0.22604166666667425,
            "durationTicks": 217,
            "midi": 71,
            "name": "B4",
            "ticks": 483840,
            "time": 504,
            "velocity": 0.8661417322834646
          },
          {
            "duration": 0.22604166666667425,
            "durationTicks": 217,
            "midi": 74,
            "name": "D5",
            "ticks": 483840,
            "time": 504,
            "velocity": 0.8661417322834646
          },
          {
            "duration": 0.22604166666667425,
            "durationTicks": 217,
            "midi": 71,
            "name": "B4",
            "ticks": 484080,
            "time": 504.25,
            "velocity": 0.8976377952755905
          },
          {
            "duration": 0.22604166666667425,
            "durationTicks": 217,
            "midi": 74,
            "name": "D5",
            "ticks": 484080,
            "time": 504.25,
            "velocity": 0.8976377952755905
          },
          {
            "duration": 0.45104166666664014,
            "durationTicks": 433,
            "midi": 72,
            "name": "C5",
            "ticks": 484320,
            "time": 504.5,
            "velocity": 0.968503937007874
          },
          {
            "duration": 0.45104166666664014,
            "durationTicks": 433,
            "midi": 76,
            "name": "E5",
            "ticks": 484320,
            "time": 504.5,
            "velocity": 0.968503937007874
          },
          {
            "duration": 0.22604166666667425,
            "durationTicks": 217,
            "midi": 74,
            "name": "D5",
            "ticks": 485520,
            "time": 505.75,
            "velocity": 0.8267716535433071
          },
          {
            "duration": 0.22604166666667425,
            "durationTicks": 217,
            "midi": 79,
            "name": "G5",
            "ticks": 485520,
            "time": 505.75,
            "velocity": 0.8267716535433071
          },
          {
            "duration": 0.22604166666667425,
            "durationTicks": 217,
            "midi": 74,
            "name": "D5",
            "ticks": 485760,
            "time": 506,
            "velocity": 0.8740157480314961
          },
          {
            "duration": 0.22604166666667425,
            "durationTicks": 217,
            "midi": 79,
            "name": "G5",
            "ticks": 485760,
            "time": 506,
            "velocity": 0.8740157480314961
          },
          {
            "duration": 0.22604166666667425,
            "durationTicks": 217,
            "midi": 74,
            "name": "D5",
            "ticks": 486000,
            "time": 506.25,
            "velocity": 0.889763779527559
          },
          {
            "duration": 0.22604166666667425,
            "durationTicks": 217,
            "midi": 79,
            "name": "G5",
            "ticks": 486000,
            "time": 506.25,
            "velocity": 0.889763779527559
          },
          {
            "duration": 0.22604166666667425,
            "durationTicks": 217,
            "midi": 76,
            "name": "E5",
            "ticks": 486240,
            "time": 506.5,
            "velocity": 0.889763779527559
          },
          {
            "duration": 0.22604166666667425,
            "durationTicks": 217,
            "midi": 79,
            "name": "G5",
            "ticks": 486240,
            "time": 506.5,
            "velocity": 0.889763779527559
          },
          {
            "duration": 0.22604166666667425,
            "durationTicks": 217,
            "midi": 72,
            "name": "C5",
            "ticks": 486480,
            "time": 506.75,
            "velocity": 0.9763779527559056
          },
          {
            "duration": 0.22604166666667425,
            "durationTicks": 217,
            "midi": 84,
            "name": "C6",
            "ticks": 486480,
            "time": 506.75,
            "velocity": 0.9763779527559056
          },
          {
            "duration": 0.22604166666667425,
            "durationTicks": 217,
            "midi": 72,
            "name": "C5",
            "ticks": 486720,
            "time": 507,
            "velocity": 0.9448818897637795
          },
          {
            "duration": 0.22604166666667425,
            "durationTicks": 217,
            "midi": 84,
            "name": "C6",
            "ticks": 486720,
            "time": 507,
            "velocity": 0.9448818897637795
          },
          {
            "duration": 0.22604166666667425,
            "durationTicks": 217,
            "midi": 72,
            "name": "C5",
            "ticks": 486960,
            "time": 507.25,
            "velocity": 0.9291338582677166
          },
          {
            "duration": 0.22604166666667425,
            "durationTicks": 217,
            "midi": 84,
            "name": "C6",
            "ticks": 486960,
            "time": 507.25,
            "velocity": 0.9291338582677166
          },
          {
            "duration": 1.2260416666666742,
            "durationTicks": 1177,
            "midi": 72,
            "name": "C5",
            "ticks": 487200,
            "time": 507.5,
            "velocity": 0.8976377952755905
          },
          {
            "duration": 1.2260416666666742,
            "durationTicks": 1177,
            "midi": 84,
            "name": "C6",
            "ticks": 487200,
            "time": 507.5,
            "velocity": 0.8976377952755905
          },
          {
            "duration": 0.22604166666667425,
            "durationTicks": 217,
            "midi": 72,
            "name": "C5",
            "ticks": 488400,
            "time": 508.75,
            "velocity": 0.9133858267716536
          },
          {
            "duration": 0.22604166666667425,
            "durationTicks": 217,
            "midi": 84,
            "name": "C6",
            "ticks": 488400,
            "time": 508.75,
            "velocity": 0.9133858267716536
          },
          {
            "duration": 0.22604166666667425,
            "durationTicks": 217,
            "midi": 72,
            "name": "C5",
            "ticks": 488640,
            "time": 509,
            "velocity": 0.9291338582677166
          },
          {
            "duration": 0.22604166666667425,
            "durationTicks": 217,
            "midi": 84,
            "name": "C6",
            "ticks": 488640,
            "time": 509,
            "velocity": 0.9291338582677166
          },
          {
            "duration": 0.22604166666667425,
            "durationTicks": 217,
            "midi": 72,
            "name": "C5",
            "ticks": 488880,
            "time": 509.25,
            "velocity": 0.9212598425196851
          },
          {
            "duration": 0.22604166666667425,
            "durationTicks": 217,
            "midi": 84,
            "name": "C6",
            "ticks": 488880,
            "time": 509.25,
            "velocity": 0.9212598425196851
          },
          {
            "duration": 1.2260416666666742,
            "durationTicks": 1177,
            "midi": 72,
            "name": "C5",
            "ticks": 489120,
            "time": 509.5,
            "velocity": 0.8818897637795275
          },
          {
            "duration": 1.2260416666666742,
            "durationTicks": 1177,
            "midi": 84,
            "name": "C6",
            "ticks": 489120,
            "time": 509.5,
            "velocity": 0.8818897637795275
          },
          {
            "duration": 0.22604166666667425,
            "durationTicks": 217,
            "midi": 72,
            "name": "C5",
            "ticks": 490320,
            "time": 510.75,
            "velocity": 0.8740157480314961
          },
          {
            "duration": 0.22604166666667425,
            "durationTicks": 217,
            "midi": 84,
            "name": "C6",
            "ticks": 490320,
            "time": 510.75,
            "velocity": 0.8740157480314961
          },
          {
            "duration": 0.22604166666667425,
            "durationTicks": 217,
            "midi": 72,
            "name": "C5",
            "ticks": 490560,
            "time": 511,
            "velocity": 0.889763779527559
          },
          {
            "duration": 0.22604166666667425,
            "durationTicks": 217,
            "midi": 84,
            "name": "C6",
            "ticks": 490560,
            "time": 511,
            "velocity": 0.889763779527559
          },
          {
            "duration": 0.22604166666667425,
            "durationTicks": 217,
            "midi": 72,
            "name": "C5",
            "ticks": 490800,
            "time": 511.25,
            "velocity": 0.905511811023622
          },
          {
            "duration": 0.22604166666667425,
            "durationTicks": 217,
            "midi": 84,
            "name": "C6",
            "ticks": 490800,
            "time": 511.25,
            "velocity": 0.905511811023622
          },
          {
            "duration": 1.2260416666666742,
            "durationTicks": 1177,
            "midi": 72,
            "name": "C5",
            "ticks": 491040,
            "time": 511.5,
            "velocity": 0.9212598425196851
          },
          {
            "duration": 1.2260416666666742,
            "durationTicks": 1177,
            "midi": 84,
            "name": "C6",
            "ticks": 491040,
            "time": 511.5,
            "velocity": 0.9212598425196851
          },
          {
            "duration": 0.22604166666667425,
            "durationTicks": 217,
            "midi": 72,
            "name": "C5",
            "ticks": 492240,
            "time": 512.75,
            "velocity": 0.8740157480314961
          },
          {
            "duration": 0.22604166666667425,
            "durationTicks": 217,
            "midi": 84,
            "name": "C6",
            "ticks": 492240,
            "time": 512.75,
            "velocity": 0.8740157480314961
          },
          {
            "duration": 0.22604166666667425,
            "durationTicks": 217,
            "midi": 72,
            "name": "C5",
            "ticks": 492480,
            "time": 513,
            "velocity": 0.8740157480314961
          },
          {
            "duration": 0.22604166666667425,
            "durationTicks": 217,
            "midi": 84,
            "name": "C6",
            "ticks": 492480,
            "time": 513,
            "velocity": 0.8740157480314961
          },
          {
            "duration": 0.22604166666667425,
            "durationTicks": 217,
            "midi": 72,
            "name": "C5",
            "ticks": 492720,
            "time": 513.25,
            "velocity": 0.8976377952755905
          },
          {
            "duration": 0.22604166666667425,
            "durationTicks": 217,
            "midi": 84,
            "name": "C6",
            "ticks": 492720,
            "time": 513.25,
            "velocity": 0.8976377952755905
          },
          {
            "duration": 0.8999999999999773,
            "durationTicks": 864,
            "midi": 72,
            "name": "C5",
            "ticks": 492960,
            "time": 513.5,
            "velocity": 0.8661417322834646
          },
          {
            "duration": 0.8999999999999773,
            "durationTicks": 864,
            "midi": 84,
            "name": "C6",
            "ticks": 492960,
            "time": 513.5,
            "velocity": 0.8661417322834646
          },
          {
            "duration": 4.115625000000023,
            "durationTicks": 3951,
            "midi": 73,
            "name": "C#5",
            "ticks": 493920,
            "time": 514.5,
            "velocity": 0.5433070866141733
          },
          {
            "duration": 0.5093749999999773,
            "durationTicks": 489,
            "midi": 85,
            "name": "C#6",
            "ticks": 493920,
            "time": 514.5,
            "velocity": 0.9212598425196851
          },
          {
            "duration": 3.5874999999999773,
            "durationTicks": 3444,
            "midi": 80,
            "name": "G#5",
            "ticks": 494400,
            "time": 515,
            "velocity": 0.8110236220472441
          },
          {
            "duration": 0.451041666666697,
            "durationTicks": 433,
            "midi": 73,
            "name": "C#5",
            "ticks": 497760,
            "time": 518.5,
            "velocity": 0.8976377952755905
          },
          {
            "duration": 0.451041666666697,
            "durationTicks": 433,
            "midi": 80,
            "name": "G#5",
            "ticks": 497760,
            "time": 518.5,
            "velocity": 0.8976377952755905
          },
          {
            "duration": 0.22604166666667425,
            "durationTicks": 217,
            "midi": 75,
            "name": "D#5",
            "ticks": 501840,
            "time": 522.75,
            "velocity": 0.84251968503937
          },
          {
            "duration": 0.22604166666667425,
            "durationTicks": 217,
            "midi": 81,
            "name": "A5",
            "ticks": 501840,
            "time": 522.75,
            "velocity": 0.84251968503937
          },
          {
            "duration": 0.22604166666667425,
            "durationTicks": 217,
            "midi": 75,
            "name": "D#5",
            "ticks": 502080,
            "time": 523,
            "velocity": 0.8661417322834646
          },
          {
            "duration": 0.22604166666667425,
            "durationTicks": 217,
            "midi": 81,
            "name": "A5",
            "ticks": 502080,
            "time": 523,
            "velocity": 0.8661417322834646
          },
          {
            "duration": 0.22604166666667425,
            "durationTicks": 217,
            "midi": 75,
            "name": "D#5",
            "ticks": 502320,
            "time": 523.25,
            "velocity": 0.8818897637795275
          },
          {
            "duration": 0.22604166666667425,
            "durationTicks": 217,
            "midi": 81,
            "name": "A5",
            "ticks": 502320,
            "time": 523.25,
            "velocity": 0.8818897637795275
          },
          {
            "duration": 3.8999999999999773,
            "durationTicks": 3744,
            "midi": 75,
            "name": "D#5",
            "ticks": 502560,
            "time": 523.5,
            "velocity": 0.8818897637795275
          },
          {
            "duration": 3.8999999999999773,
            "durationTicks": 3744,
            "midi": 81,
            "name": "A5",
            "ticks": 502560,
            "time": 523.5,
            "velocity": 0.8818897637795275
          },
          {
            "duration": 0.451041666666697,
            "durationTicks": 433,
            "midi": 75,
            "name": "D#5",
            "ticks": 506400,
            "time": 527.5,
            "velocity": 0.8582677165354331
          },
          {
            "duration": 0.451041666666697,
            "durationTicks": 433,
            "midi": 81,
            "name": "A5",
            "ticks": 506400,
            "time": 527.5,
            "velocity": 0.8582677165354331
          },
          {
            "duration": 0.22604166666667425,
            "durationTicks": 217,
            "midi": 72,
            "name": "C5",
            "ticks": 507600,
            "time": 528.75,
            "velocity": 0.8110236220472441
          },
          {
            "duration": 0.22604166666667425,
            "durationTicks": 217,
            "midi": 72,
            "name": "C5",
            "ticks": 507840,
            "time": 529,
            "velocity": 0.8818897637795275
          },
          {
            "duration": 0.22604166666667425,
            "durationTicks": 217,
            "midi": 72,
            "name": "C5",
            "ticks": 508080,
            "time": 529.25,
            "velocity": 0.9291338582677166
          },
          {
            "duration": 0.451041666666697,
            "durationTicks": 433,
            "midi": 75,
            "name": "D#5",
            "ticks": 508320,
            "time": 529.5,
            "velocity": 0.9212598425196851
          },
          {
            "duration": 1.8999999999999773,
            "durationTicks": 1824,
            "midi": 77,
            "name": "F5",
            "ticks": 513120,
            "time": 534.5,
            "velocity": 0.7086614173228346
          },
          {
            "duration": 1.8999999999999773,
            "durationTicks": 1824,
            "midi": 83,
            "name": "B5",
            "ticks": 513120,
            "time": 534.5,
            "velocity": 0.7086614173228346
          },
          {
            "duration": 1.8999999999999773,
            "durationTicks": 1824,
            "midi": 77,
            "name": "F5",
            "ticks": 516960,
            "time": 538.5,
            "velocity": 0.7401574803149606
          },
          {
            "duration": 1.8999999999999773,
            "durationTicks": 1824,
            "midi": 83,
            "name": "B5",
            "ticks": 516960,
            "time": 538.5,
            "velocity": 0.7401574803149606
          },
          {
            "duration": 0.451041666666697,
            "durationTicks": 433,
            "midi": 72,
            "name": "C5",
            "ticks": 521760,
            "time": 543.5,
            "velocity": 0.8031496062992126
          },
          {
            "duration": 0.451041666666697,
            "durationTicks": 433,
            "midi": 84,
            "name": "C6",
            "ticks": 521760,
            "time": 543.5,
            "velocity": 0.8031496062992126
          },
          {
            "duration": 0.451041666666697,
            "durationTicks": 433,
            "midi": 74,
            "name": "D5",
            "ticks": 522240,
            "time": 544,
            "velocity": 0.8188976377952756
          },
          {
            "duration": 0.451041666666697,
            "durationTicks": 433,
            "midi": 86,
            "name": "D6",
            "ticks": 522240,
            "time": 544,
            "velocity": 0.8188976377952756
          },
          {
            "duration": 0.451041666666697,
            "durationTicks": 433,
            "midi": 70,
            "name": "A#4",
            "ticks": 522720,
            "time": 544.5,
            "velocity": 0.6771653543307087
          },
          {
            "duration": 0.451041666666697,
            "durationTicks": 433,
            "midi": 82,
            "name": "A#5",
            "ticks": 522720,
            "time": 544.5,
            "velocity": 0.6771653543307087
          },
          {
            "duration": 0.451041666666697,
            "durationTicks": 433,
            "midi": 72,
            "name": "C5",
            "ticks": 523200,
            "time": 545,
            "velocity": 0.7952755905511811
          },
          {
            "duration": 0.451041666666697,
            "durationTicks": 433,
            "midi": 84,
            "name": "C6",
            "ticks": 523200,
            "time": 545,
            "velocity": 0.7952755905511811
          },
          {
            "duration": 0.451041666666697,
            "durationTicks": 433,
            "midi": 68,
            "name": "G#4",
            "ticks": 523680,
            "time": 545.5,
            "velocity": 0.7401574803149606
          },
          {
            "duration": 0.451041666666697,
            "durationTicks": 433,
            "midi": 80,
            "name": "G#5",
            "ticks": 523680,
            "time": 545.5,
            "velocity": 0.7401574803149606
          },
          {
            "duration": 0.451041666666697,
            "durationTicks": 433,
            "midi": 70,
            "name": "A#4",
            "ticks": 524160,
            "time": 546,
            "velocity": 0.7952755905511811
          },
          {
            "duration": 0.451041666666697,
            "durationTicks": 433,
            "midi": 82,
            "name": "A#5",
            "ticks": 524160,
            "time": 546,
            "velocity": 0.7952755905511811
          },
          {
            "duration": 0.451041666666697,
            "durationTicks": 433,
            "midi": 67,
            "name": "G4",
            "ticks": 524640,
            "time": 546.5,
            "velocity": 0.7165354330708661
          },
          {
            "duration": 0.451041666666697,
            "durationTicks": 433,
            "midi": 79,
            "name": "G5",
            "ticks": 524640,
            "time": 546.5,
            "velocity": 0.7165354330708661
          },
          {
            "duration": 0.451041666666697,
            "durationTicks": 433,
            "midi": 80,
            "name": "G#5",
            "ticks": 525120,
            "time": 547,
            "velocity": 0.7637795275590551
          },
          {
            "duration": 0.451041666666697,
            "durationTicks": 433,
            "midi": 77,
            "name": "F5",
            "ticks": 525600,
            "time": 547.5,
            "velocity": 0.6850393700787402
          },
          {
            "duration": 0.451041666666697,
            "durationTicks": 433,
            "midi": 75,
            "name": "D#5",
            "ticks": 526080,
            "time": 548,
            "velocity": 0.7480314960629921
          },
          {
            "duration": 0.451041666666697,
            "durationTicks": 433,
            "midi": 74,
            "name": "D5",
            "ticks": 526560,
            "time": 548.5,
            "velocity": 0.7322834645669292
          },
          {
            "duration": 0.451041666666697,
            "durationTicks": 433,
            "midi": 75,
            "name": "D#5",
            "ticks": 527040,
            "time": 549,
            "velocity": 0.7795275590551181
          },
          {
            "duration": 0.451041666666697,
            "durationTicks": 433,
            "midi": 77,
            "name": "F5",
            "ticks": 527520,
            "time": 549.5,
            "velocity": 0.8267716535433071
          },
          {
            "duration": 0.451041666666697,
            "durationTicks": 433,
            "midi": 75,
            "name": "D#5",
            "ticks": 528000,
            "time": 550,
            "velocity": 0.7322834645669292
          },
          {
            "duration": 0.451041666666697,
            "durationTicks": 433,
            "midi": 77,
            "name": "F5",
            "ticks": 528480,
            "time": 550.5,
            "velocity": 0.7952755905511811
          },
          {
            "duration": 0.451041666666697,
            "durationTicks": 433,
            "midi": 79,
            "name": "G5",
            "ticks": 528960,
            "time": 551,
            "velocity": 0.8346456692913385
          },
          {
            "duration": 0.451041666666697,
            "durationTicks": 433,
            "midi": 80,
            "name": "G#5",
            "ticks": 529440,
            "time": 551.5,
            "velocity": 0.8346456692913385
          },
          {
            "duration": 0.451041666666697,
            "durationTicks": 433,
            "midi": 79,
            "name": "G5",
            "ticks": 529920,
            "time": 552,
            "velocity": 0.7322834645669292
          },
          {
            "duration": 0.451041666666697,
            "durationTicks": 433,
            "midi": 80,
            "name": "G#5",
            "ticks": 530400,
            "time": 552.5,
            "velocity": 0.7874015748031497
          },
          {
            "duration": 0.451041666666697,
            "durationTicks": 433,
            "midi": 71,
            "name": "B4",
            "ticks": 530880,
            "time": 553,
            "velocity": 0.7165354330708661
          },
          {
            "duration": 0.451041666666697,
            "durationTicks": 433,
            "midi": 77,
            "name": "F5",
            "ticks": 530880,
            "time": 553,
            "velocity": 0.7165354330708661
          },
          {
            "duration": 0.451041666666697,
            "durationTicks": 433,
            "midi": 72,
            "name": "C5",
            "ticks": 531360,
            "time": 553.5,
            "velocity": 0.7637795275590551
          },
          {
            "duration": 0.451041666666697,
            "durationTicks": 433,
            "midi": 77,
            "name": "F5",
            "ticks": 531360,
            "time": 553.5,
            "velocity": 0.7637795275590551
          },
          {
            "duration": 0.451041666666697,
            "durationTicks": 433,
            "midi": 71,
            "name": "B4",
            "ticks": 531840,
            "time": 554,
            "velocity": 0.8110236220472441
          },
          {
            "duration": 0.451041666666697,
            "durationTicks": 433,
            "midi": 77,
            "name": "F5",
            "ticks": 531840,
            "time": 554,
            "velocity": 0.8110236220472441
          },
          {
            "duration": 0.451041666666697,
            "durationTicks": 433,
            "midi": 72,
            "name": "C5",
            "ticks": 532320,
            "time": 554.5,
            "velocity": 0.7480314960629921
          },
          {
            "duration": 0.451041666666697,
            "durationTicks": 433,
            "midi": 77,
            "name": "F5",
            "ticks": 532320,
            "time": 554.5,
            "velocity": 0.7480314960629921
          },
          {
            "duration": 0.451041666666697,
            "durationTicks": 433,
            "midi": 74,
            "name": "D5",
            "ticks": 532800,
            "time": 555,
            "velocity": 0.7795275590551181
          },
          {
            "duration": 0.451041666666697,
            "durationTicks": 433,
            "midi": 77,
            "name": "F5",
            "ticks": 532800,
            "time": 555,
            "velocity": 0.7795275590551181
          },
          {
            "duration": 1.8999999999999773,
            "durationTicks": 1824,
            "midi": 72,
            "name": "C5",
            "ticks": 533280,
            "time": 555.5,
            "velocity": 0.7086614173228346
          },
          {
            "duration": 1.8999999999999773,
            "durationTicks": 1824,
            "midi": 75,
            "name": "D#5",
            "ticks": 533280,
            "time": 555.5,
            "velocity": 0.7086614173228346
          },
          {
            "duration": 1.8999999999999773,
            "durationTicks": 1824,
            "midi": 72,
            "name": "C5",
            "ticks": 535200,
            "time": 557.5,
            "velocity": 0.8346456692913385
          },
          {
            "duration": 1.8999999999999773,
            "durationTicks": 1824,
            "midi": 77,
            "name": "F5",
            "ticks": 535200,
            "time": 557.5,
            "velocity": 0.8346456692913385
          },
          {
            "duration": 1.8999999999999773,
            "durationTicks": 1824,
            "midi": 72,
            "name": "C5",
            "ticks": 537120,
            "time": 559.5,
            "velocity": 0.8188976377952756
          },
          {
            "duration": 1.8999999999999773,
            "durationTicks": 1824,
            "midi": 79,
            "name": "G5",
            "ticks": 537120,
            "time": 559.5,
            "velocity": 0.8188976377952756
          },
          {
            "duration": 1.8999999999999773,
            "durationTicks": 1824,
            "midi": 72,
            "name": "C5",
            "ticks": 539040,
            "time": 561.5,
            "velocity": 0.8188976377952756
          },
          {
            "duration": 0.8999999999999773,
            "durationTicks": 864,
            "midi": 80,
            "name": "G#5",
            "ticks": 539040,
            "time": 561.5,
            "velocity": 0.8188976377952756
          },
          {
            "duration": 0.8999999999999773,
            "durationTicks": 864,
            "midi": 77,
            "name": "F5",
            "ticks": 540000,
            "time": 562.5,
            "velocity": 0.7401574803149606
          },
          {
            "duration": 0.8999999999999773,
            "durationTicks": 864,
            "midi": 71,
            "name": "B4",
            "ticks": 540960,
            "time": 563.5,
            "velocity": 0.7480314960629921
          },
          {
            "duration": 0.8999999999999773,
            "durationTicks": 864,
            "midi": 77,
            "name": "F5",
            "ticks": 540960,
            "time": 563.5,
            "velocity": 0.7480314960629921
          },
          {
            "duration": 0.8999999999999773,
            "durationTicks": 864,
            "midi": 74,
            "name": "D5",
            "ticks": 541920,
            "time": 564.5,
            "velocity": 0.8346456692913385
          },
          {
            "duration": 0.8999999999999773,
            "durationTicks": 864,
            "midi": 79,
            "name": "G5",
            "ticks": 541920,
            "time": 564.5,
            "velocity": 0.8346456692913385
          },
          {
            "duration": 0.22500000000002274,
            "durationTicks": 216,
            "midi": 75,
            "name": "D#5",
            "ticks": 542880,
            "time": 565.5,
            "velocity": 0.7559055118110236
          },
          {
            "duration": 0.22500000000002274,
            "durationTicks": 216,
            "midi": 79,
            "name": "G5",
            "ticks": 542880,
            "time": 565.5,
            "velocity": 0.7559055118110236
          },
          {
            "duration": 0.22500000000002274,
            "durationTicks": 216,
            "midi": 75,
            "name": "D#5",
            "ticks": 543840,
            "time": 566.5,
            "velocity": 0.6771653543307087
          },
          {
            "duration": 0.22500000000002274,
            "durationTicks": 216,
            "midi": 84,
            "name": "C6",
            "ticks": 543840,
            "time": 566.5,
            "velocity": 0.6771653543307087
          },
          {
            "duration": 0.22500000000002274,
            "durationTicks": 216,
            "midi": 80,
            "name": "G#5",
            "ticks": 544800,
            "time": 567.5,
            "velocity": 0.6771653543307087
          },
          {
            "duration": 0.22500000000002274,
            "durationTicks": 216,
            "midi": 84,
            "name": "C6",
            "ticks": 544800,
            "time": 567.5,
            "velocity": 0.6771653543307087
          },
          {
            "duration": 0.22500000000002274,
            "durationTicks": 216,
            "midi": 80,
            "name": "G#5",
            "ticks": 545760,
            "time": 568.5,
            "velocity": 0.6771653543307087
          },
          {
            "duration": 0.22500000000002274,
            "durationTicks": 216,
            "midi": 84,
            "name": "C6",
            "ticks": 545760,
            "time": 568.5,
            "velocity": 0.6771653543307087
          },
          {
            "duration": 0.22500000000002274,
            "durationTicks": 216,
            "midi": 79,
            "name": "G5",
            "ticks": 546720,
            "time": 569.5,
            "velocity": 0.7322834645669292
          },
          {
            "duration": 0.22500000000002274,
            "durationTicks": 216,
            "midi": 84,
            "name": "C6",
            "ticks": 546720,
            "time": 569.5,
            "velocity": 0.7322834645669292
          },
          {
            "duration": 0.22500000000002274,
            "durationTicks": 216,
            "midi": 79,
            "name": "G5",
            "ticks": 547680,
            "time": 570.5,
            "velocity": 0.7007874015748031
          },
          {
            "duration": 0.22500000000002274,
            "durationTicks": 216,
            "midi": 83,
            "name": "B5",
            "ticks": 547680,
            "time": 570.5,
            "velocity": 0.7007874015748031
          },
          {
            "duration": 0.8999999999999773,
            "durationTicks": 864,
            "midi": 72,
            "name": "C5",
            "ticks": 548640,
            "time": 571.5,
            "velocity": 0.7007874015748031
          },
          {
            "duration": 0.8999999999999773,
            "durationTicks": 864,
            "midi": 84,
            "name": "C6",
            "ticks": 548640,
            "time": 571.5,
            "velocity": 0.7007874015748031
          },
          {
            "duration": 0.22500000000002274,
            "durationTicks": 216,
            "midi": 72,
            "name": "C5",
            "ticks": 549600,
            "time": 572.5,
            "velocity": 0.7401574803149606
          },
          {
            "duration": 0.22500000000002274,
            "durationTicks": 216,
            "midi": 84,
            "name": "C6",
            "ticks": 549600,
            "time": 572.5,
            "velocity": 0.7401574803149606
          },
          {
            "duration": 0.22500000000002274,
            "durationTicks": 216,
            "midi": 72,
            "name": "C5",
            "ticks": 550080,
            "time": 573,
            "velocity": 0.7716535433070866
          },
          {
            "duration": 0.22500000000002274,
            "durationTicks": 216,
            "midi": 84,
            "name": "C6",
            "ticks": 550080,
            "time": 573,
            "velocity": 0.7716535433070866
          },
          {
            "duration": 0.8999999999999773,
            "durationTicks": 864,
            "midi": 72,
            "name": "C5",
            "ticks": 550560,
            "time": 573.5,
            "velocity": 0.8188976377952756
          },
          {
            "duration": 0.8999999999999773,
            "durationTicks": 864,
            "midi": 84,
            "name": "C6",
            "ticks": 550560,
            "time": 573.5,
            "velocity": 0.8188976377952756
          },
          {
            "duration": 0.22500000000002274,
            "durationTicks": 216,
            "midi": 72,
            "name": "C5",
            "ticks": 553440,
            "time": 576.5,
            "velocity": 0.7795275590551181
          },
          {
            "duration": 0.22500000000002274,
            "durationTicks": 216,
            "midi": 84,
            "name": "C6",
            "ticks": 553440,
            "time": 576.5,
            "velocity": 0.7795275590551181
          },
          {
            "duration": 0.22500000000002274,
            "durationTicks": 216,
            "midi": 72,
            "name": "C5",
            "ticks": 553920,
            "time": 577,
            "velocity": 0.7637795275590551
          },
          {
            "duration": 0.22500000000002274,
            "durationTicks": 216,
            "midi": 84,
            "name": "C6",
            "ticks": 553920,
            "time": 577,
            "velocity": 0.7637795275590551
          },
          {
            "duration": 0.8999999999999773,
            "durationTicks": 864,
            "midi": 72,
            "name": "C5",
            "ticks": 554400,
            "time": 577.5,
            "velocity": 0.7874015748031497
          },
          {
            "duration": 0.8999999999999773,
            "durationTicks": 864,
            "midi": 84,
            "name": "C6",
            "ticks": 554400,
            "time": 577.5,
            "velocity": 0.7874015748031497
          },
          {
            "duration": 0.22500000000002274,
            "durationTicks": 216,
            "midi": 67,
            "name": "G4",
            "ticks": 557280,
            "time": 580.5,
            "velocity": 0.6771653543307087
          },
          {
            "duration": 0.22500000000002274,
            "durationTicks": 216,
            "midi": 79,
            "name": "G5",
            "ticks": 557280,
            "time": 580.5,
            "velocity": 0.6771653543307087
          },
          {
            "duration": 0.22500000000002274,
            "durationTicks": 216,
            "midi": 67,
            "name": "G4",
            "ticks": 557760,
            "time": 581,
            "velocity": 0.7559055118110236
          },
          {
            "duration": 0.22500000000002274,
            "durationTicks": 216,
            "midi": 79,
            "name": "G5",
            "ticks": 557760,
            "time": 581,
            "velocity": 0.7559055118110236
          },
          {
            "duration": 0.8999999999999773,
            "durationTicks": 864,
            "midi": 67,
            "name": "G4",
            "ticks": 558240,
            "time": 581.5,
            "velocity": 0.8188976377952756
          },
          {
            "duration": 0.8999999999999773,
            "durationTicks": 864,
            "midi": 79,
            "name": "G5",
            "ticks": 558240,
            "time": 581.5,
            "velocity": 0.8188976377952756
          },
          {
            "duration": 0.22500000000002274,
            "durationTicks": 216,
            "midi": 67,
            "name": "G4",
            "ticks": 561120,
            "time": 584.5,
            "velocity": 0.7559055118110236
          },
          {
            "duration": 0.22500000000002274,
            "durationTicks": 216,
            "midi": 79,
            "name": "G5",
            "ticks": 561120,
            "time": 584.5,
            "velocity": 0.7559055118110236
          },
          {
            "duration": 0.22500000000002274,
            "durationTicks": 216,
            "midi": 67,
            "name": "G4",
            "ticks": 561600,
            "time": 585,
            "velocity": 0.8031496062992126
          },
          {
            "duration": 0.22500000000002274,
            "durationTicks": 216,
            "midi": 79,
            "name": "G5",
            "ticks": 561600,
            "time": 585,
            "velocity": 0.8031496062992126
          },
          {
            "duration": 0.8999999999999773,
            "durationTicks": 864,
            "midi": 67,
            "name": "G4",
            "ticks": 562080,
            "time": 585.5,
            "velocity": 0.7795275590551181
          },
          {
            "duration": 0.8999999999999773,
            "durationTicks": 864,
            "midi": 79,
            "name": "G5",
            "ticks": 562080,
            "time": 585.5,
            "velocity": 0.7795275590551181
          },
          {
            "duration": 0.5093749999999773,
            "durationTicks": 489,
            "midi": 80,
            "name": "G#5",
            "ticks": 563040,
            "time": 586.5,
            "velocity": 0.889763779527559
          },
          {
            "duration": 0.5093749999999773,
            "durationTicks": 489,
            "midi": 84,
            "name": "C6",
            "ticks": 563040,
            "time": 586.5,
            "velocity": 0.889763779527559
          },
          {
            "duration": 0.5093749999999773,
            "durationTicks": 489,
            "midi": 79,
            "name": "G5",
            "ticks": 563520,
            "time": 587,
            "velocity": 0.8661417322834646
          },
          {
            "duration": 0.5093749999999773,
            "durationTicks": 489,
            "midi": 82,
            "name": "A#5",
            "ticks": 563520,
            "time": 587,
            "velocity": 0.8661417322834646
          },
          {
            "duration": 0.5093749999999773,
            "durationTicks": 489,
            "midi": 77,
            "name": "F5",
            "ticks": 564000,
            "time": 587.5,
            "velocity": 0.7165354330708661
          },
          {
            "duration": 0.5093749999999773,
            "durationTicks": 489,
            "midi": 80,
            "name": "G#5",
            "ticks": 564000,
            "time": 587.5,
            "velocity": 0.7165354330708661
          },
          {
            "duration": 0.47500000000002274,
            "durationTicks": 456,
            "midi": 75,
            "name": "D#5",
            "ticks": 564480,
            "time": 588,
            "velocity": 0.6692913385826772
          },
          {
            "duration": 0.47500000000002274,
            "durationTicks": 456,
            "midi": 79,
            "name": "G5",
            "ticks": 564480,
            "time": 588,
            "velocity": 0.6692913385826772
          },
          {
            "duration": 0.5093749999999773,
            "durationTicks": 489,
            "midi": 77,
            "name": "F5",
            "ticks": 565920,
            "time": 589.5,
            "velocity": 0.8976377952755905
          },
          {
            "duration": 0.5093749999999773,
            "durationTicks": 489,
            "midi": 80,
            "name": "G#5",
            "ticks": 565920,
            "time": 589.5,
            "velocity": 0.8976377952755905
          },
          {
            "duration": 0.47500000000002274,
            "durationTicks": 456,
            "midi": 75,
            "name": "D#5",
            "ticks": 566400,
            "time": 590,
            "velocity": 0.8976377952755905
          },
          {
            "duration": 0.47500000000002274,
            "durationTicks": 456,
            "midi": 79,
            "name": "G5",
            "ticks": 566400,
            "time": 590,
            "velocity": 0.8976377952755905
          },
          {
            "duration": 0.5093749999999773,
            "durationTicks": 489,
            "midi": 77,
            "name": "F5",
            "ticks": 566880,
            "time": 590.5,
            "velocity": 0.8740157480314961
          },
          {
            "duration": 0.5,
            "durationTicks": 480,
            "midi": 84,
            "name": "C6",
            "ticks": 566880,
            "time": 590.5,
            "velocity": 0.8740157480314961
          },
          {
            "duration": 0.47500000000002274,
            "durationTicks": 456,
            "midi": 75,
            "name": "D#5",
            "ticks": 567360,
            "time": 591,
            "velocity": 0.9212598425196851
          },
          {
            "duration": 0.47500000000002274,
            "durationTicks": 456,
            "midi": 84,
            "name": "C6",
            "ticks": 567360,
            "time": 591,
            "velocity": 0.9212598425196851
          },
          {
            "duration": 0.451041666666697,
            "durationTicks": 433,
            "midi": 75,
            "name": "D#5",
            "ticks": 568320,
            "time": 592,
            "velocity": 0.6850393700787402
          },
          {
            "duration": 0.451041666666697,
            "durationTicks": 433,
            "midi": 84,
            "name": "C6",
            "ticks": 568320,
            "time": 592,
            "velocity": 0.6850393700787402
          },
          {
            "duration": 0.451041666666697,
            "durationTicks": 433,
            "midi": 74,
            "name": "D5",
            "ticks": 569280,
            "time": 593,
            "velocity": 0.7086614173228346
          },
          {
            "duration": 0.451041666666697,
            "durationTicks": 433,
            "midi": 83,
            "name": "B5",
            "ticks": 569280,
            "time": 593,
            "velocity": 0.7086614173228346
          },
          {
            "duration": 0.5093749999999773,
            "durationTicks": 489,
            "midi": 77,
            "name": "F5",
            "ticks": 572640,
            "time": 596.5,
            "velocity": 0.7007874015748031
          },
          {
            "duration": 0.5093749999999773,
            "durationTicks": 489,
            "midi": 80,
            "name": "G#5",
            "ticks": 572640,
            "time": 596.5,
            "velocity": 0.7007874015748031
          },
          {
            "duration": 0.47500000000002274,
            "durationTicks": 456,
            "midi": 75,
            "name": "D#5",
            "ticks": 573120,
            "time": 597,
            "velocity": 0.6535433070866141
          },
          {
            "duration": 0.47500000000002274,
            "durationTicks": 456,
            "midi": 79,
            "name": "G5",
            "ticks": 573120,
            "time": 597,
            "velocity": 0.6535433070866141
          },
          {
            "duration": 0.5093749999999773,
            "durationTicks": 489,
            "midi": 77,
            "name": "F5",
            "ticks": 574560,
            "time": 598.5,
            "velocity": 0.8818897637795275
          },
          {
            "duration": 0.5,
            "durationTicks": 480,
            "midi": 84,
            "name": "C6",
            "ticks": 574560,
            "time": 598.5,
            "velocity": 0.8818897637795275
          },
          {
            "duration": 0.47500000000002274,
            "durationTicks": 456,
            "midi": 75,
            "name": "D#5",
            "ticks": 575040,
            "time": 599,
            "velocity": 0.905511811023622
          },
          {
            "duration": 0.47500000000002274,
            "durationTicks": 456,
            "midi": 84,
            "name": "C6",
            "ticks": 575040,
            "time": 599,
            "velocity": 0.905511811023622
          },
          {
            "duration": 0.451041666666697,
            "durationTicks": 433,
            "midi": 75,
            "name": "D#5",
            "ticks": 576000,
            "time": 600,
            "velocity": 0.7165354330708661
          },
          {
            "duration": 0.451041666666697,
            "durationTicks": 433,
            "midi": 84,
            "name": "C6",
            "ticks": 576000,
            "time": 600,
            "velocity": 0.7165354330708661
          },
          {
            "duration": 0.451041666666697,
            "durationTicks": 433,
            "midi": 74,
            "name": "D5",
            "ticks": 576960,
            "time": 601,
            "velocity": 0.7165354330708661
          },
          {
            "duration": 0.451041666666697,
            "durationTicks": 433,
            "midi": 83,
            "name": "B5",
            "ticks": 576960,
            "time": 601,
            "velocity": 0.7165354330708661
          },
          {
            "duration": 0.451041666666697,
            "durationTicks": 433,
            "midi": 75,
            "name": "D#5",
            "ticks": 577440,
            "time": 601.5,
            "velocity": 0.8110236220472441
          },
          {
            "duration": 0.451041666666697,
            "durationTicks": 433,
            "midi": 84,
            "name": "C6",
            "ticks": 577440,
            "time": 601.5,
            "velocity": 0.8110236220472441
          },
          {
            "duration": 0.22604166666667425,
            "durationTicks": 217,
            "midi": 74,
            "name": "D5",
            "ticks": 578640,
            "time": 602.75,
            "velocity": 0.6692913385826772
          },
          {
            "duration": 0.22604166666667425,
            "durationTicks": 217,
            "midi": 83,
            "name": "B5",
            "ticks": 578640,
            "time": 602.75,
            "velocity": 0.6692913385826772
          },
          {
            "duration": 0.22604166666667425,
            "durationTicks": 217,
            "midi": 74,
            "name": "D5",
            "ticks": 578880,
            "time": 603,
            "velocity": 0.7952755905511811
          },
          {
            "duration": 0.22604166666667425,
            "durationTicks": 217,
            "midi": 83,
            "name": "B5",
            "ticks": 578880,
            "time": 603,
            "velocity": 0.7952755905511811
          },
          {
            "duration": 0.22604166666667425,
            "durationTicks": 217,
            "midi": 74,
            "name": "D5",
            "ticks": 579120,
            "time": 603.25,
            "velocity": 0.7795275590551181
          },
          {
            "duration": 0.22604166666667425,
            "durationTicks": 217,
            "midi": 83,
            "name": "B5",
            "ticks": 579120,
            "time": 603.25,
            "velocity": 0.7795275590551181
          },
          {
            "duration": 1.451041666666697,
            "durationTicks": 1393,
            "midi": 74,
            "name": "D5",
            "ticks": 579360,
            "time": 603.5,
            "velocity": 0.8110236220472441
          },
          {
            "duration": 1.451041666666697,
            "durationTicks": 1393,
            "midi": 83,
            "name": "B5",
            "ticks": 579360,
            "time": 603.5,
            "velocity": 0.8110236220472441
          },
          {
            "duration": 0.5093749999999773,
            "durationTicks": 489,
            "midi": 75,
            "name": "D#5",
            "ticks": 580800,
            "time": 605,
            "velocity": 0.8346456692913385
          },
          {
            "duration": 0.5093749999999773,
            "durationTicks": 489,
            "midi": 84,
            "name": "C6",
            "ticks": 580800,
            "time": 605,
            "velocity": 0.8346456692913385
          },
          {
            "duration": 0.5093749999999773,
            "durationTicks": 489,
            "midi": 77,
            "name": "F5",
            "ticks": 581280,
            "time": 605.5,
            "velocity": 0.9291338582677166
          },
          {
            "duration": 0.5093749999999773,
            "durationTicks": 489,
            "midi": 86,
            "name": "D6",
            "ticks": 581280,
            "time": 605.5,
            "velocity": 0.9291338582677166
          },
          {
            "duration": 0.5093749999999773,
            "durationTicks": 489,
            "midi": 74,
            "name": "D5",
            "ticks": 581760,
            "time": 606,
            "velocity": 0.7322834645669292
          },
          {
            "duration": 0.5093749999999773,
            "durationTicks": 489,
            "midi": 83,
            "name": "B5",
            "ticks": 581760,
            "time": 606,
            "velocity": 0.7322834645669292
          },
          {
            "duration": 0.5093749999999773,
            "durationTicks": 489,
            "midi": 75,
            "name": "D#5",
            "ticks": 582240,
            "time": 606.5,
            "velocity": 0.7716535433070866
          },
          {
            "duration": 0.5093749999999773,
            "durationTicks": 489,
            "midi": 84,
            "name": "C6",
            "ticks": 582240,
            "time": 606.5,
            "velocity": 0.7716535433070866
          },
          {
            "duration": 0.47500000000002274,
            "durationTicks": 456,
            "midi": 77,
            "name": "F5",
            "ticks": 582720,
            "time": 607,
            "velocity": 0.7952755905511811
          },
          {
            "duration": 0.47500000000002274,
            "durationTicks": 456,
            "midi": 86,
            "name": "D6",
            "ticks": 582720,
            "time": 607,
            "velocity": 0.7952755905511811
          },
          {
            "duration": 0.451041666666697,
            "durationTicks": 433,
            "midi": 75,
            "name": "D#5",
            "ticks": 583200,
            "time": 607.5,
            "velocity": 0.7480314960629921
          },
          {
            "duration": 0.451041666666697,
            "durationTicks": 433,
            "midi": 84,
            "name": "C6",
            "ticks": 583200,
            "time": 607.5,
            "velocity": 0.7480314960629921
          },
          {
            "duration": 0.22604166666667425,
            "durationTicks": 217,
            "midi": 79,
            "name": "G5",
            "ticks": 584400,
            "time": 608.75,
            "velocity": 0.7086614173228346
          },
          {
            "duration": 0.22604166666667425,
            "durationTicks": 217,
            "midi": 79,
            "name": "G5",
            "ticks": 584640,
            "time": 609,
            "velocity": 0.7480314960629921
          },
          {
            "duration": 0.22604166666667425,
            "durationTicks": 217,
            "midi": 79,
            "name": "G5",
            "ticks": 584880,
            "time": 609.25,
            "velocity": 0.7637795275590551
          },
          {
            "duration": 0.22604166666667425,
            "durationTicks": 217,
            "midi": 79,
            "name": "G5",
            "ticks": 585120,
            "time": 609.5,
            "velocity": 0.7480314960629921
          },
          {
            "duration": 0.22604166666667425,
            "durationTicks": 217,
            "midi": 79,
            "name": "G5",
            "ticks": 585360,
            "time": 609.75,
            "velocity": 0.7795275590551181
          },
          {
            "duration": 0.22604166666667425,
            "durationTicks": 217,
            "midi": 79,
            "name": "G5",
            "ticks": 585600,
            "time": 610,
            "velocity": 0.8267716535433071
          },
          {
            "duration": 0.22604166666667425,
            "durationTicks": 217,
            "midi": 79,
            "name": "G5",
            "ticks": 585840,
            "time": 610.25,
            "velocity": 0.7716535433070866
          },
          {
            "duration": 0.22604166666667425,
            "durationTicks": 217,
            "midi": 79,
            "name": "G5",
            "ticks": 586080,
            "time": 610.5,
            "velocity": 0.7559055118110236
          },
          {
            "duration": 0.22604166666667425,
            "durationTicks": 217,
            "midi": 79,
            "name": "G5",
            "ticks": 586320,
            "time": 610.75,
            "velocity": 0.7716535433070866
          },
          {
            "duration": 0.22604166666667425,
            "durationTicks": 217,
            "midi": 79,
            "name": "G5",
            "ticks": 586560,
            "time": 611,
            "velocity": 0.7480314960629921
          },
          {
            "duration": 0.22604166666667425,
            "durationTicks": 217,
            "midi": 79,
            "name": "G5",
            "ticks": 586800,
            "time": 611.25,
            "velocity": 0.7401574803149606
          },
          {
            "duration": 1.5,
            "durationTicks": 1440,
            "midi": 75,
            "name": "D#5",
            "ticks": 587040,
            "time": 611.5,
            "velocity": 0.889763779527559
          },
          {
            "duration": 1.5,
            "durationTicks": 1440,
            "midi": 79,
            "name": "G5",
            "ticks": 587040,
            "time": 611.5,
            "velocity": 0.889763779527559
          },
          {
            "duration": 0.22604166666667425,
            "durationTicks": 217,
            "midi": 77,
            "name": "F5",
            "ticks": 588720,
            "time": 613.25,
            "velocity": 0.7952755905511811
          },
          {
            "duration": 0.22604166666667425,
            "durationTicks": 217,
            "midi": 79,
            "name": "G5",
            "ticks": 588720,
            "time": 613.25,
            "velocity": 0.7952755905511811
          },
          {
            "duration": 0.22604166666667425,
            "durationTicks": 217,
            "midi": 77,
            "name": "F5",
            "ticks": 588960,
            "time": 613.5,
            "velocity": 0.8740157480314961
          },
          {
            "duration": 0.22604166666667425,
            "durationTicks": 217,
            "midi": 79,
            "name": "G5",
            "ticks": 588960,
            "time": 613.5,
            "velocity": 0.8740157480314961
          },
          {
            "duration": 0.22604166666667425,
            "durationTicks": 217,
            "midi": 77,
            "name": "F5",
            "ticks": 589200,
            "time": 613.75,
            "velocity": 0.8818897637795275
          },
          {
            "duration": 0.22604166666667425,
            "durationTicks": 217,
            "midi": 79,
            "name": "G5",
            "ticks": 589200,
            "time": 613.75,
            "velocity": 0.8818897637795275
          },
          {
            "duration": 2.5,
            "durationTicks": 2400,
            "midi": 74,
            "name": "D5",
            "ticks": 589440,
            "time": 614,
            "velocity": 0.8976377952755905
          },
          {
            "duration": 2.5,
            "durationTicks": 2400,
            "midi": 79,
            "name": "G5",
            "ticks": 589440,
            "time": 614,
            "velocity": 0.8976377952755905
          },
          {
            "duration": 0.5093749999999773,
            "durationTicks": 489,
            "midi": 80,
            "name": "G#5",
            "ticks": 595200,
            "time": 620,
            "velocity": 0.5118110236220472
          },
          {
            "duration": 0.9489583333332803,
            "durationTicks": 911,
            "midi": 79,
            "name": "G5",
            "ticks": 595680,
            "time": 620.5,
            "velocity": 0.5118110236220472
          },
          {
            "duration": 0.5093749999999773,
            "durationTicks": 489,
            "midi": 80,
            "name": "G#5",
            "ticks": 599040,
            "time": 624,
            "velocity": 0.5118110236220472
          },
          {
            "duration": 0.23645833333330302,
            "durationTicks": 227,
            "midi": 79,
            "name": "G5",
            "ticks": 599520,
            "time": 624.5,
            "velocity": 0.48031496062992124
          },
          {
            "duration": 0.22604166666667425,
            "durationTicks": 217,
            "midi": 74,
            "name": "D5",
            "ticks": 599760,
            "time": 624.75,
            "velocity": 0.8661417322834646
          },
          {
            "duration": 0.22604166666667425,
            "durationTicks": 217,
            "midi": 79,
            "name": "G5",
            "ticks": 599760,
            "time": 624.75,
            "velocity": 0.8661417322834646
          },
          {
            "duration": 0.22604166666667425,
            "durationTicks": 217,
            "midi": 74,
            "name": "D5",
            "ticks": 600000,
            "time": 625,
            "velocity": 0.8661417322834646
          },
          {
            "duration": 0.22604166666667425,
            "durationTicks": 217,
            "midi": 79,
            "name": "G5",
            "ticks": 600000,
            "time": 625,
            "velocity": 0.8661417322834646
          },
          {
            "duration": 0.22604166666667425,
            "durationTicks": 217,
            "midi": 74,
            "name": "D5",
            "ticks": 600240,
            "time": 625.25,
            "velocity": 0.9448818897637795
          },
          {
            "duration": 0.22604166666667425,
            "durationTicks": 217,
            "midi": 79,
            "name": "G5",
            "ticks": 600240,
            "time": 625.25,
            "velocity": 0.9448818897637795
          },
          {
            "duration": 0.451041666666697,
            "durationTicks": 433,
            "midi": 75,
            "name": "D#5",
            "ticks": 600480,
            "time": 625.5,
            "velocity": 0.889763779527559
          },
          {
            "duration": 0.451041666666697,
            "durationTicks": 433,
            "midi": 79,
            "name": "G5",
            "ticks": 600480,
            "time": 625.5,
            "velocity": 0.889763779527559
          },
          {
            "duration": 0.22604166666667425,
            "durationTicks": 217,
            "midi": 74,
            "name": "D5",
            "ticks": 601680,
            "time": 626.75,
            "velocity": 0.7559055118110236
          },
          {
            "duration": 0.22604166666667425,
            "durationTicks": 217,
            "midi": 83,
            "name": "B5",
            "ticks": 601680,
            "time": 626.75,
            "velocity": 0.7559055118110236
          },
          {
            "duration": 0.22604166666667425,
            "durationTicks": 217,
            "midi": 74,
            "name": "D5",
            "ticks": 601920,
            "time": 627,
            "velocity": 0.8740157480314961
          },
          {
            "duration": 0.22604166666667425,
            "durationTicks": 217,
            "midi": 83,
            "name": "B5",
            "ticks": 601920,
            "time": 627,
            "velocity": 0.8740157480314961
          },
          {
            "duration": 0.22604166666667425,
            "durationTicks": 217,
            "midi": 74,
            "name": "D5",
            "ticks": 602160,
            "time": 627.25,
            "velocity": 0.8976377952755905
          },
          {
            "duration": 0.22604166666667425,
            "durationTicks": 217,
            "midi": 83,
            "name": "B5",
            "ticks": 602160,
            "time": 627.25,
            "velocity": 0.8976377952755905
          },
          {
            "duration": 0.451041666666697,
            "durationTicks": 433,
            "midi": 75,
            "name": "D#5",
            "ticks": 602400,
            "time": 627.5,
            "velocity": 0.9606299212598425
          },
          {
            "duration": 0.451041666666697,
            "durationTicks": 433,
            "midi": 84,
            "name": "C6",
            "ticks": 602400,
            "time": 627.5,
            "velocity": 0.9606299212598425
          },
          {
            "duration": 0.22604166666667425,
            "durationTicks": 217,
            "midi": 74,
            "name": "D5",
            "ticks": 603600,
            "time": 628.75,
            "velocity": 0.8346456692913385
          },
          {
            "duration": 0.22604166666667425,
            "durationTicks": 217,
            "midi": 83,
            "name": "B5",
            "ticks": 603600,
            "time": 628.75,
            "velocity": 0.8346456692913385
          },
          {
            "duration": 0.22604166666667425,
            "durationTicks": 217,
            "midi": 74,
            "name": "D5",
            "ticks": 603840,
            "time": 629,
            "velocity": 0.8582677165354331
          },
          {
            "duration": 0.22604166666667425,
            "durationTicks": 217,
            "midi": 83,
            "name": "B5",
            "ticks": 603840,
            "time": 629,
            "velocity": 0.8582677165354331
          },
          {
            "duration": 0.22604166666667425,
            "durationTicks": 217,
            "midi": 74,
            "name": "D5",
            "ticks": 604080,
            "time": 629.25,
            "velocity": 0.8818897637795275
          },
          {
            "duration": 0.22604166666667425,
            "durationTicks": 217,
            "midi": 83,
            "name": "B5",
            "ticks": 604080,
            "time": 629.25,
            "velocity": 0.8818897637795275
          },
          {
            "duration": 0.451041666666697,
            "durationTicks": 433,
            "midi": 75,
            "name": "D#5",
            "ticks": 604320,
            "time": 629.5,
            "velocity": 0.9291338582677166
          },
          {
            "duration": 0.451041666666697,
            "durationTicks": 433,
            "midi": 84,
            "name": "C6",
            "ticks": 604320,
            "time": 629.5,
            "velocity": 0.9291338582677166
          },
          {
            "duration": 0.451041666666697,
            "durationTicks": 433,
            "midi": 74,
            "name": "D5",
            "ticks": 604800,
            "time": 630,
            "velocity": 0.8267716535433071
          },
          {
            "duration": 0.451041666666697,
            "durationTicks": 433,
            "midi": 83,
            "name": "B5",
            "ticks": 604800,
            "time": 630,
            "velocity": 0.8267716535433071
          },
          {
            "duration": 0.451041666666697,
            "durationTicks": 433,
            "midi": 75,
            "name": "D#5",
            "ticks": 605280,
            "time": 630.5,
            "velocity": 0.9606299212598425
          },
          {
            "duration": 0.451041666666697,
            "durationTicks": 433,
            "midi": 84,
            "name": "C6",
            "ticks": 605280,
            "time": 630.5,
            "velocity": 0.9606299212598425
          },
          {
            "duration": 0.451041666666697,
            "durationTicks": 433,
            "midi": 74,
            "name": "D5",
            "ticks": 605760,
            "time": 631,
            "velocity": 0.84251968503937
          },
          {
            "duration": 0.451041666666697,
            "durationTicks": 433,
            "midi": 83,
            "name": "B5",
            "ticks": 605760,
            "time": 631,
            "velocity": 0.84251968503937
          },
          {
            "duration": 0.451041666666697,
            "durationTicks": 433,
            "midi": 75,
            "name": "D#5",
            "ticks": 606240,
            "time": 631.5,
            "velocity": 0.937007874015748
          },
          {
            "duration": 0.451041666666697,
            "durationTicks": 433,
            "midi": 84,
            "name": "C6",
            "ticks": 606240,
            "time": 631.5,
            "velocity": 0.937007874015748
          },
          {
            "duration": 0.451041666666697,
            "durationTicks": 433,
            "midi": 74,
            "name": "D5",
            "ticks": 606720,
            "time": 632,
            "velocity": 0.84251968503937
          },
          {
            "duration": 0.451041666666697,
            "durationTicks": 433,
            "midi": 83,
            "name": "B5",
            "ticks": 606720,
            "time": 632,
            "velocity": 0.84251968503937
          },
          {
            "duration": 0.451041666666697,
            "durationTicks": 433,
            "midi": 75,
            "name": "D#5",
            "ticks": 607200,
            "time": 632.5,
            "velocity": 0.9448818897637795
          },
          {
            "duration": 0.451041666666697,
            "durationTicks": 433,
            "midi": 84,
            "name": "C6",
            "ticks": 607200,
            "time": 632.5,
            "velocity": 0.9448818897637795
          },
          {
            "duration": 0.451041666666697,
            "durationTicks": 433,
            "midi": 74,
            "name": "D5",
            "ticks": 607680,
            "time": 633,
            "velocity": 0.8740157480314961
          },
          {
            "duration": 0.451041666666697,
            "durationTicks": 433,
            "midi": 83,
            "name": "B5",
            "ticks": 607680,
            "time": 633,
            "velocity": 0.8740157480314961
          },
          {
            "duration": 0.451041666666697,
            "durationTicks": 433,
            "midi": 75,
            "name": "D#5",
            "ticks": 608160,
            "time": 633.5,
            "velocity": 0.9291338582677166
          },
          {
            "duration": 0.451041666666697,
            "durationTicks": 433,
            "midi": 84,
            "name": "C6",
            "ticks": 608160,
            "time": 633.5,
            "velocity": 0.9291338582677166
          },
          {
            "duration": 0.451041666666697,
            "durationTicks": 433,
            "midi": 74,
            "name": "D5",
            "ticks": 609120,
            "time": 634.5,
            "velocity": 0.8267716535433071
          },
          {
            "duration": 0.451041666666697,
            "durationTicks": 433,
            "midi": 83,
            "name": "B5",
            "ticks": 609120,
            "time": 634.5,
            "velocity": 0.8267716535433071
          },
          {
            "duration": 0.451041666666697,
            "durationTicks": 433,
            "midi": 75,
            "name": "D#5",
            "ticks": 610080,
            "time": 635.5,
            "velocity": 0.8110236220472441
          },
          {
            "duration": 0.451041666666697,
            "durationTicks": 433,
            "midi": 84,
            "name": "C6",
            "ticks": 610080,
            "time": 635.5,
            "velocity": 0.8110236220472441
          }
        ]
      },
      {
        "channel": 2,
        "controlChanges": {
          "7": [
            {
              "number": 7,
              "ticks": 0,
              "time": 0,
              "value": 0.3937007874015748
            }
          ],
          "10": [
            {
              "number": 10,
              "ticks": 0,
              "time": 0,
              "value": 0.5511811023622047
            }
          ],
          "64": [
            {
              "number": 64,
              "ticks": 0,
              "time": 0,
              "value": 0
            }
          ],
          "121": [
            {
              "number": 121,
              "ticks": 0,
              "time": 0,
              "value": 0
            }
          ]
        },
        "pitchBends": [],
        "instrument": {
          "family": "reed",
          "number": 71,
          "name": "clarinet"
        },
        "name": "",
        "notes": [
          {
            "duration": 0.22604166666666664,
            "durationTicks": 217,
            "midi": 67,
            "name": "G4",
            "ticks": 240,
            "time": 0.25,
            "velocity": 0.8031496062992126
          },
          {
            "duration": 0.2260416666666667,
            "durationTicks": 217,
            "midi": 67,
            "name": "G4",
            "ticks": 480,
            "time": 0.5,
            "velocity": 0.84251968503937
          },
          {
            "duration": 0.2260416666666667,
            "durationTicks": 217,
            "midi": 67,
            "name": "G4",
            "ticks": 720,
            "time": 0.75,
            "velocity": 0.8976377952755905
          },
          {
            "duration": 1.5,
            "durationTicks": 1440,
            "midi": 63,
            "name": "D#4",
            "ticks": 960,
            "time": 1,
            "velocity": 0.7795275590551181
          },
          {
            "duration": 0.2260416666666667,
            "durationTicks": 217,
            "midi": 65,
            "name": "F4",
            "ticks": 2640,
            "time": 2.75,
            "velocity": 0.8031496062992126
          },
          {
            "duration": 0.2260416666666667,
            "durationTicks": 217,
            "midi": 65,
            "name": "F4",
            "ticks": 2880,
            "time": 3,
            "velocity": 0.937007874015748
          },
          {
            "duration": 0.2260416666666667,
            "durationTicks": 217,
            "midi": 65,
            "name": "F4",
            "ticks": 3120,
            "time": 3.25,
            "velocity": 0.8818897637795275
          },
          {
            "duration": 2.5,
            "durationTicks": 2400,
            "midi": 62,
            "name": "D4",
            "ticks": 3360,
            "time": 3.5,
            "velocity": 0.8110236220472441
          },
          {
            "duration": 0.22604166666666714,
            "durationTicks": 217,
            "midi": 55,
            "name": "G3",
            "ticks": 17520,
            "time": 18.25,
            "velocity": 0.4645669291338583
          },
          {
            "duration": 0.22604166666666714,
            "durationTicks": 217,
            "midi": 59,
            "name": "B3",
            "ticks": 17520,
            "time": 18.25,
            "velocity": 0.4645669291338583
          },
          {
            "duration": 0.22604166666666714,
            "durationTicks": 217,
            "midi": 59,
            "name": "B3",
            "ticks": 17760,
            "time": 18.5,
            "velocity": 0.5748031496062992
          },
          {
            "duration": 0.22604166666666714,
            "durationTicks": 217,
            "midi": 62,
            "name": "D4",
            "ticks": 17760,
            "time": 18.5,
            "velocity": 0.5748031496062992
          },
          {
            "duration": 0.22604166666666714,
            "durationTicks": 217,
            "midi": 62,
            "name": "D4",
            "ticks": 18000,
            "time": 18.75,
            "velocity": 0.7165354330708661
          },
          {
            "duration": 0.22604166666666714,
            "durationTicks": 217,
            "midi": 67,
            "name": "G4",
            "ticks": 18000,
            "time": 18.75,
            "velocity": 0.7165354330708661
          },
          {
            "duration": 0.451041666666665,
            "durationTicks": 433,
            "midi": 63,
            "name": "D#4",
            "ticks": 18240,
            "time": 19,
            "velocity": 0.7637795275590551
          },
          {
            "duration": 0.451041666666665,
            "durationTicks": 433,
            "midi": 67,
            "name": "G4",
            "ticks": 18240,
            "time": 19,
            "velocity": 0.7637795275590551
          },
          {
            "duration": 0.451041666666665,
            "durationTicks": 433,
            "midi": 60,
            "name": "C4",
            "ticks": 19200,
            "time": 20,
            "velocity": 0.6850393700787402
          },
          {
            "duration": 0.451041666666665,
            "durationTicks": 433,
            "midi": 66,
            "name": "F#4",
            "ticks": 19200,
            "time": 20,
            "velocity": 0.6850393700787402
          },
          {
            "duration": 0.451041666666665,
            "durationTicks": 433,
            "midi": 59,
            "name": "B3",
            "ticks": 20160,
            "time": 21,
            "velocity": 0.6929133858267716
          },
          {
            "duration": 0.451041666666665,
            "durationTicks": 433,
            "midi": 62,
            "name": "D4",
            "ticks": 20160,
            "time": 21,
            "velocity": 0.6929133858267716
          },
          {
            "duration": 0.22604166666666714,
            "durationTicks": 217,
            "midi": 68,
            "name": "G#4",
            "ticks": 21600,
            "time": 22.5,
            "velocity": 0.6850393700787402
          },
          {
            "duration": 0.22604166666666714,
            "durationTicks": 217,
            "midi": 68,
            "name": "G#4",
            "ticks": 21840,
            "time": 22.75,
            "velocity": 0.7086614173228346
          },
          {
            "duration": 0.22604166666666714,
            "durationTicks": 217,
            "midi": 68,
            "name": "G#4",
            "ticks": 22080,
            "time": 23,
            "velocity": 0.7716535433070866
          },
          {
            "duration": 2.5,
            "durationTicks": 2400,
            "midi": 65,
            "name": "F4",
            "ticks": 22320,
            "time": 23.25,
            "velocity": 0.7244094488188977
          },
          {
            "duration": 0.22604166666666714,
            "durationTicks": 217,
            "midi": 74,
            "name": "D5",
            "ticks": 31680,
            "time": 33,
            "velocity": 0.4409448818897638
          },
          {
            "duration": 0.22604166666666714,
            "durationTicks": 217,
            "midi": 74,
            "name": "D5",
            "ticks": 31920,
            "time": 33.25,
            "velocity": 0.44881889763779526
          },
          {
            "duration": 0.22604166666666714,
            "durationTicks": 217,
            "midi": 74,
            "name": "D5",
            "ticks": 32160,
            "time": 33.5,
            "velocity": 0.4881889763779528
          },
          {
            "duration": 0.45104166666666856,
            "durationTicks": 433,
            "midi": 72,
            "name": "C5",
            "ticks": 32400,
            "time": 33.75,
            "velocity": 0.4409448818897638
          },
          {
            "duration": 0.45104166666666856,
            "durationTicks": 433,
            "midi": 65,
            "name": "F4",
            "ticks": 37200,
            "time": 38.75,
            "velocity": 0.5196850393700787
          },
          {
            "duration": 0.45104166666666856,
            "durationTicks": 433,
            "midi": 68,
            "name": "G#4",
            "ticks": 37200,
            "time": 38.75,
            "velocity": 0.5196850393700787
          },
          {
            "duration": 0.45104166666666856,
            "durationTicks": 433,
            "midi": 64,
            "name": "E4",
            "ticks": 38160,
            "time": 39.75,
            "velocity": 0.4881889763779528
          },
          {
            "duration": 0.45104166666666856,
            "durationTicks": 433,
            "midi": 67,
            "name": "G4",
            "ticks": 38160,
            "time": 39.75,
            "velocity": 0.4881889763779528
          },
          {
            "duration": 0.45104166666666856,
            "durationTicks": 433,
            "midi": 65,
            "name": "F4",
            "ticks": 39120,
            "time": 40.75,
            "velocity": 0.47244094488188976
          },
          {
            "duration": 0.45104166666666856,
            "durationTicks": 433,
            "midi": 68,
            "name": "G#4",
            "ticks": 39120,
            "time": 40.75,
            "velocity": 0.47244094488188976
          },
          {
            "duration": 0.45104166666666856,
            "durationTicks": 433,
            "midi": 67,
            "name": "G4",
            "ticks": 40080,
            "time": 41.75,
            "velocity": 0.47244094488188976
          },
          {
            "duration": 0.45104166666666856,
            "durationTicks": 433,
            "midi": 70,
            "name": "A#4",
            "ticks": 40080,
            "time": 41.75,
            "velocity": 0.47244094488188976
          },
          {
            "duration": 0.45104166666666856,
            "durationTicks": 433,
            "midi": 65,
            "name": "F4",
            "ticks": 41040,
            "time": 42.75,
            "velocity": 0.5275590551181102
          },
          {
            "duration": 0.45104166666666856,
            "durationTicks": 433,
            "midi": 68,
            "name": "G#4",
            "ticks": 41040,
            "time": 42.75,
            "velocity": 0.5275590551181102
          },
          {
            "duration": 0.45104166666666856,
            "durationTicks": 433,
            "midi": 62,
            "name": "D4",
            "ticks": 42000,
            "time": 43.75,
            "velocity": 0.5039370078740157
          },
          {
            "duration": 0.45104166666666856,
            "durationTicks": 433,
            "midi": 65,
            "name": "F4",
            "ticks": 42000,
            "time": 43.75,
            "velocity": 0.5039370078740157
          },
          {
            "duration": 3.8999999999999986,
            "durationTicks": 3744,
            "midi": 63,
            "name": "D#4",
            "ticks": 42960,
            "time": 44.75,
            "velocity": 0.7165354330708661
          },
          {
            "duration": 3.8999999999999986,
            "durationTicks": 3744,
            "midi": 67,
            "name": "G4",
            "ticks": 42960,
            "time": 44.75,
            "velocity": 0.7165354330708661
          },
          {
            "duration": 3.4510416666666686,
            "durationTicks": 3313,
            "midi": 62,
            "name": "D4",
            "ticks": 46800,
            "time": 48.75,
            "velocity": 0.7401574803149606
          },
          {
            "duration": 3.4510416666666686,
            "durationTicks": 3313,
            "midi": 65,
            "name": "F4",
            "ticks": 46800,
            "time": 48.75,
            "velocity": 0.7401574803149606
          },
          {
            "duration": 0.45104166666666856,
            "durationTicks": 433,
            "midi": 60,
            "name": "C4",
            "ticks": 50160,
            "time": 52.25,
            "velocity": 0.7480314960629921
          },
          {
            "duration": 0.45104166666666856,
            "durationTicks": 433,
            "midi": 63,
            "name": "D#4",
            "ticks": 50160,
            "time": 52.25,
            "velocity": 0.7480314960629921
          },
          {
            "duration": 3.8999999999999986,
            "durationTicks": 3744,
            "midi": 66,
            "name": "F#4",
            "ticks": 50640,
            "time": 52.75,
            "velocity": 1
          },
          {
            "duration": 3.8999999999999986,
            "durationTicks": 3744,
            "midi": 75,
            "name": "D#5",
            "ticks": 50640,
            "time": 52.75,
            "velocity": 1
          },
          {
            "duration": 0.45104166666666856,
            "durationTicks": 433,
            "midi": 66,
            "name": "F#4",
            "ticks": 54480,
            "time": 56.75,
            "velocity": 0.9291338582677166
          },
          {
            "duration": 0.45104166666666856,
            "durationTicks": 433,
            "midi": 75,
            "name": "D#5",
            "ticks": 54480,
            "time": 56.75,
            "velocity": 0.9291338582677166
          },
          {
            "duration": 0.45104166666666856,
            "durationTicks": 433,
            "midi": 70,
            "name": "A#4",
            "ticks": 56400,
            "time": 58.75,
            "velocity": 0.8188976377952756
          },
          {
            "duration": 0.5093750000000057,
            "durationTicks": 489,
            "midi": 70,
            "name": "A#4",
            "ticks": 65040,
            "time": 67.75,
            "velocity": 0.5826771653543307
          },
          {
            "duration": 0.5093750000000057,
            "durationTicks": 489,
            "midi": 75,
            "name": "D#5",
            "ticks": 65520,
            "time": 68.25,
            "velocity": 0.6929133858267716
          },
          {
            "duration": 0.5093750000000057,
            "durationTicks": 489,
            "midi": 74,
            "name": "D5",
            "ticks": 66000,
            "time": 68.75,
            "velocity": 0.6062992125984252
          },
          {
            "duration": 0.5093750000000057,
            "durationTicks": 489,
            "midi": 75,
            "name": "D#5",
            "ticks": 66480,
            "time": 69.25,
            "velocity": 0.6535433070866141
          },
          {
            "duration": 0.5093750000000057,
            "durationTicks": 489,
            "midi": 77,
            "name": "F5",
            "ticks": 66960,
            "time": 69.75,
            "velocity": 0.6692913385826772
          },
          {
            "duration": 0.4749999999999943,
            "durationTicks": 456,
            "midi": 72,
            "name": "C5",
            "ticks": 67440,
            "time": 70.25,
            "velocity": 0.5826771653543307
          },
          {
            "duration": 0.5093750000000057,
            "durationTicks": 489,
            "midi": 72,
            "name": "C5",
            "ticks": 67920,
            "time": 70.75,
            "velocity": 0.6614173228346457
          },
          {
            "duration": 0.4749999999999943,
            "durationTicks": 456,
            "midi": 70,
            "name": "A#4",
            "ticks": 68400,
            "time": 71.25,
            "velocity": 0.6062992125984252
          },
          {
            "duration": 2.9000000000000057,
            "durationTicks": 2784,
            "midi": 72,
            "name": "C5",
            "ticks": 80400,
            "time": 83.75,
            "velocity": 0.5196850393700787
          },
          {
            "duration": 2.9000000000000057,
            "durationTicks": 2784,
            "midi": 75,
            "name": "D#5",
            "ticks": 80400,
            "time": 83.75,
            "velocity": 0.5196850393700787
          },
          {
            "duration": 1.9000000000000057,
            "durationTicks": 1824,
            "midi": 70,
            "name": "A#4",
            "ticks": 83280,
            "time": 86.75,
            "velocity": 0.4645669291338583
          },
          {
            "duration": 1.9000000000000057,
            "durationTicks": 1824,
            "midi": 75,
            "name": "D#5",
            "ticks": 83280,
            "time": 86.75,
            "velocity": 0.4645669291338583
          },
          {
            "duration": 4.451041666666669,
            "durationTicks": 4273,
            "midi": 69,
            "name": "A4",
            "ticks": 85200,
            "time": 88.75,
            "velocity": 0.5275590551181102
          },
          {
            "duration": 4.451041666666669,
            "durationTicks": 4273,
            "midi": 75,
            "name": "D#5",
            "ticks": 85200,
            "time": 88.75,
            "velocity": 0.5275590551181102
          },
          {
            "duration": 0.45104166666666856,
            "durationTicks": 433,
            "midi": 69,
            "name": "A4",
            "ticks": 89520,
            "time": 93.25,
            "velocity": 0.6692913385826772
          },
          {
            "duration": 0.45104166666666856,
            "durationTicks": 433,
            "midi": 75,
            "name": "D#5",
            "ticks": 89520,
            "time": 93.25,
            "velocity": 0.6692913385826772
          },
          {
            "duration": 0.45104166666666856,
            "durationTicks": 433,
            "midi": 69,
            "name": "A4",
            "ticks": 90000,
            "time": 93.75,
            "velocity": 0.7952755905511811
          },
          {
            "duration": 0.45104166666666856,
            "durationTicks": 433,
            "midi": 75,
            "name": "D#5",
            "ticks": 90000,
            "time": 93.75,
            "velocity": 0.7952755905511811
          },
          {
            "duration": 0.45104166666666856,
            "durationTicks": 433,
            "midi": 69,
            "name": "A4",
            "ticks": 90480,
            "time": 94.25,
            "velocity": 0.7637795275590551
          },
          {
            "duration": 0.45104166666666856,
            "durationTicks": 433,
            "midi": 75,
            "name": "D#5",
            "ticks": 90480,
            "time": 94.25,
            "velocity": 0.7637795275590551
          },
          {
            "duration": 1.4510416666666686,
            "durationTicks": 1393,
            "midi": 68,
            "name": "G#4",
            "ticks": 90960,
            "time": 94.75,
            "velocity": 0.7795275590551181
          },
          {
            "duration": 1.4510416666666686,
            "durationTicks": 1393,
            "midi": 70,
            "name": "A#4",
            "ticks": 90960,
            "time": 94.75,
            "velocity": 0.7795275590551181
          },
          {
            "duration": 0.45104166666666856,
            "durationTicks": 433,
            "midi": 65,
            "name": "F4",
            "ticks": 92400,
            "time": 96.25,
            "velocity": 0.9133858267716536
          },
          {
            "duration": 0.45104166666666856,
            "durationTicks": 433,
            "midi": 70,
            "name": "A#4",
            "ticks": 92400,
            "time": 96.25,
            "velocity": 0.9133858267716536
          },
          {
            "duration": 0.45104166666666856,
            "durationTicks": 433,
            "midi": 67,
            "name": "G4",
            "ticks": 92880,
            "time": 96.75,
            "velocity": 0.889763779527559
          },
          {
            "duration": 0.45104166666666856,
            "durationTicks": 433,
            "midi": 70,
            "name": "A#4",
            "ticks": 92880,
            "time": 96.75,
            "velocity": 0.889763779527559
          },
          {
            "duration": 0.45104166666666856,
            "durationTicks": 433,
            "midi": 68,
            "name": "G#4",
            "ticks": 93840,
            "time": 97.75,
            "velocity": 0.8031496062992126
          },
          {
            "duration": 0.45104166666666856,
            "durationTicks": 433,
            "midi": 70,
            "name": "A#4",
            "ticks": 93840,
            "time": 97.75,
            "velocity": 0.8031496062992126
          },
          {
            "duration": 0.45104166666666856,
            "durationTicks": 433,
            "midi": 67,
            "name": "G4",
            "ticks": 94800,
            "time": 98.75,
            "velocity": 0.7795275590551181
          },
          {
            "duration": 0.45104166666666856,
            "durationTicks": 433,
            "midi": 70,
            "name": "A#4",
            "ticks": 94800,
            "time": 98.75,
            "velocity": 0.7795275590551181
          },
          {
            "duration": 0.45104166666666856,
            "durationTicks": 433,
            "midi": 65,
            "name": "F4",
            "ticks": 95760,
            "time": 99.75,
            "velocity": 0.7795275590551181
          },
          {
            "duration": 0.45104166666666856,
            "durationTicks": 433,
            "midi": 72,
            "name": "C5",
            "ticks": 95760,
            "time": 99.75,
            "velocity": 0.7795275590551181
          },
          {
            "duration": 0.45104166666666856,
            "durationTicks": 433,
            "midi": 67,
            "name": "G4",
            "ticks": 96720,
            "time": 100.75,
            "velocity": 0.7716535433070866
          },
          {
            "duration": 0.45104166666666856,
            "durationTicks": 433,
            "midi": 70,
            "name": "A#4",
            "ticks": 96720,
            "time": 100.75,
            "velocity": 0.7716535433070866
          },
          {
            "duration": 0.22604166666666003,
            "durationTicks": 217,
            "midi": 65,
            "name": "F4",
            "ticks": 97680,
            "time": 101.75,
            "velocity": 0.7322834645669292
          },
          {
            "duration": 0.22604166666666003,
            "durationTicks": 217,
            "midi": 70,
            "name": "A#4",
            "ticks": 97680,
            "time": 101.75,
            "velocity": 0.7322834645669292
          },
          {
            "duration": 0.2541666666666629,
            "durationTicks": 244,
            "midi": 69,
            "name": "A4",
            "ticks": 97920,
            "time": 102,
            "velocity": 1
          },
          {
            "duration": 0.2541666666666629,
            "durationTicks": 244,
            "midi": 81,
            "name": "A5",
            "ticks": 97920,
            "time": 102,
            "velocity": 1
          },
          {
            "duration": 0.2541666666666629,
            "durationTicks": 244,
            "midi": 70,
            "name": "A#4",
            "ticks": 98160,
            "time": 102.25,
            "velocity": 1
          },
          {
            "duration": 0.2541666666666629,
            "durationTicks": 244,
            "midi": 82,
            "name": "A#5",
            "ticks": 98160,
            "time": 102.25,
            "velocity": 1
          },
          {
            "duration": 0.2541666666666629,
            "durationTicks": 244,
            "midi": 69,
            "name": "A4",
            "ticks": 98400,
            "time": 102.5,
            "velocity": 0.8582677165354331
          },
          {
            "duration": 0.2541666666666629,
            "durationTicks": 244,
            "midi": 81,
            "name": "A5",
            "ticks": 98400,
            "time": 102.5,
            "velocity": 0.8582677165354331
          },
          {
            "duration": 0.2541666666666629,
            "durationTicks": 244,
            "midi": 70,
            "name": "A#4",
            "ticks": 98640,
            "time": 102.75,
            "velocity": 0.9291338582677166
          },
          {
            "duration": 0.2541666666666629,
            "durationTicks": 244,
            "midi": 82,
            "name": "A#5",
            "ticks": 98640,
            "time": 102.75,
            "velocity": 0.9291338582677166
          },
          {
            "duration": 0.2541666666666629,
            "durationTicks": 244,
            "midi": 69,
            "name": "A4",
            "ticks": 98880,
            "time": 103,
            "velocity": 0.8976377952755905
          },
          {
            "duration": 0.2541666666666629,
            "durationTicks": 244,
            "midi": 81,
            "name": "A5",
            "ticks": 98880,
            "time": 103,
            "velocity": 0.8976377952755905
          },
          {
            "duration": 0.2541666666666629,
            "durationTicks": 244,
            "midi": 70,
            "name": "A#4",
            "ticks": 99120,
            "time": 103.25,
            "velocity": 0.9606299212598425
          },
          {
            "duration": 0.2541666666666629,
            "durationTicks": 244,
            "midi": 82,
            "name": "A#5",
            "ticks": 99120,
            "time": 103.25,
            "velocity": 0.9606299212598425
          },
          {
            "duration": 0.23645833333333144,
            "durationTicks": 227,
            "midi": 69,
            "name": "A4",
            "ticks": 99360,
            "time": 103.5,
            "velocity": 0.9291338582677166
          },
          {
            "duration": 0.23645833333333144,
            "durationTicks": 227,
            "midi": 81,
            "name": "A5",
            "ticks": 99360,
            "time": 103.5,
            "velocity": 0.9291338582677166
          },
          {
            "duration": 0.11354166666666288,
            "durationTicks": 109,
            "midi": 70,
            "name": "A#4",
            "ticks": 99600,
            "time": 103.75,
            "velocity": 0.9212598425196851
          },
          {
            "duration": 0.11354166666666288,
            "durationTicks": 109,
            "midi": 82,
            "name": "A#5",
            "ticks": 99600,
            "time": 103.75,
            "velocity": 0.9212598425196851
          },
          {
            "duration": 0.11354166666666288,
            "durationTicks": 109,
            "midi": 72,
            "name": "C5",
            "ticks": 99840,
            "time": 104,
            "velocity": 0.9133858267716536
          },
          {
            "duration": 0.11354166666666288,
            "durationTicks": 109,
            "midi": 84,
            "name": "C6",
            "ticks": 99840,
            "time": 104,
            "velocity": 0.9133858267716536
          },
          {
            "duration": 0.11354166666666288,
            "durationTicks": 109,
            "midi": 70,
            "name": "A#4",
            "ticks": 100080,
            "time": 104.25,
            "velocity": 0.8818897637795275
          },
          {
            "duration": 0.11354166666666288,
            "durationTicks": 109,
            "midi": 82,
            "name": "A#5",
            "ticks": 100080,
            "time": 104.25,
            "velocity": 0.8818897637795275
          },
          {
            "duration": 0.11354166666666288,
            "durationTicks": 109,
            "midi": 68,
            "name": "G#4",
            "ticks": 100320,
            "time": 104.5,
            "velocity": 0.8267716535433071
          },
          {
            "duration": 0.11354166666666288,
            "durationTicks": 109,
            "midi": 80,
            "name": "G#5",
            "ticks": 100320,
            "time": 104.5,
            "velocity": 0.8267716535433071
          },
          {
            "duration": 0.45104166666666856,
            "durationTicks": 433,
            "midi": 67,
            "name": "G4",
            "ticks": 100560,
            "time": 104.75,
            "velocity": 0.8188976377952756
          },
          {
            "duration": 0.45104166666666856,
            "durationTicks": 433,
            "midi": 79,
            "name": "G5",
            "ticks": 100560,
            "time": 104.75,
            "velocity": 0.8188976377952756
          },
          {
            "duration": 0.45104166666666856,
            "durationTicks": 433,
            "midi": 67,
            "name": "G4",
            "ticks": 101040,
            "time": 105.25,
            "velocity": 0.8818897637795275
          },
          {
            "duration": 0.45104166666666856,
            "durationTicks": 433,
            "midi": 79,
            "name": "G5",
            "ticks": 101040,
            "time": 105.25,
            "velocity": 0.8818897637795275
          },
          {
            "duration": 0.45104166666666856,
            "durationTicks": 433,
            "midi": 65,
            "name": "F4",
            "ticks": 102000,
            "time": 106.25,
            "velocity": 0.84251968503937
          },
          {
            "duration": 0.45104166666666856,
            "durationTicks": 433,
            "midi": 74,
            "name": "D5",
            "ticks": 102000,
            "time": 106.25,
            "velocity": 0.84251968503937
          },
          {
            "duration": 0.45104166666666856,
            "durationTicks": 433,
            "midi": 67,
            "name": "G4",
            "ticks": 102960,
            "time": 107.25,
            "velocity": 0.7952755905511811
          },
          {
            "duration": 0.45104166666666856,
            "durationTicks": 433,
            "midi": 75,
            "name": "D#5",
            "ticks": 102960,
            "time": 107.25,
            "velocity": 0.7952755905511811
          },
          {
            "duration": 0.45104166666666856,
            "durationTicks": 433,
            "midi": 65,
            "name": "F4",
            "ticks": 103920,
            "time": 108.25,
            "velocity": 0.7952755905511811
          },
          {
            "duration": 0.45104166666666856,
            "durationTicks": 433,
            "midi": 68,
            "name": "G#4",
            "ticks": 103920,
            "time": 108.25,
            "velocity": 0.7952755905511811
          },
          {
            "duration": 0.45104166666666856,
            "durationTicks": 433,
            "midi": 63,
            "name": "D#4",
            "ticks": 104880,
            "time": 109.25,
            "velocity": 0.8031496062992126
          },
          {
            "duration": 0.45104166666666856,
            "durationTicks": 433,
            "midi": 67,
            "name": "G4",
            "ticks": 104880,
            "time": 109.25,
            "velocity": 0.8031496062992126
          },
          {
            "duration": 0.45104166666666856,
            "durationTicks": 433,
            "midi": 65,
            "name": "F4",
            "ticks": 105840,
            "time": 110.25,
            "velocity": 0.8267716535433071
          },
          {
            "duration": 0.45104166666666856,
            "durationTicks": 433,
            "midi": 74,
            "name": "D5",
            "ticks": 105840,
            "time": 110.25,
            "velocity": 0.8267716535433071
          },
          {
            "duration": 0.22604166666666003,
            "durationTicks": 217,
            "midi": 67,
            "name": "G4",
            "ticks": 106320,
            "time": 110.75,
            "velocity": 0.9291338582677166
          },
          {
            "duration": 0.22604166666666003,
            "durationTicks": 217,
            "midi": 75,
            "name": "D#5",
            "ticks": 106320,
            "time": 110.75,
            "velocity": 0.9291338582677166
          },
          {
            "duration": 0.22604166666666003,
            "durationTicks": 217,
            "midi": 79,
            "name": "G5",
            "ticks": 106560,
            "time": 111,
            "velocity": 0.9921259842519685
          },
          {
            "duration": 0.22604166666666003,
            "durationTicks": 217,
            "midi": 79,
            "name": "G5",
            "ticks": 106800,
            "time": 111.25,
            "velocity": 0.9291338582677166
          },
          {
            "duration": 0.22604166666666003,
            "durationTicks": 217,
            "midi": 79,
            "name": "G5",
            "ticks": 107040,
            "time": 111.5,
            "velocity": 0.8818897637795275
          },
          {
            "duration": 0.22604166666666003,
            "durationTicks": 217,
            "midi": 75,
            "name": "D#5",
            "ticks": 107280,
            "time": 111.75,
            "velocity": 0.8031496062992126
          },
          {
            "duration": 0.22604166666666003,
            "durationTicks": 217,
            "midi": 70,
            "name": "A#4",
            "ticks": 107520,
            "time": 112,
            "velocity": 1
          },
          {
            "duration": 0.22604166666666003,
            "durationTicks": 217,
            "midi": 82,
            "name": "A#5",
            "ticks": 107520,
            "time": 112,
            "velocity": 1
          },
          {
            "duration": 0.22604166666666003,
            "durationTicks": 217,
            "midi": 70,
            "name": "A#4",
            "ticks": 107760,
            "time": 112.25,
            "velocity": 0.905511811023622
          },
          {
            "duration": 0.22604166666666003,
            "durationTicks": 217,
            "midi": 82,
            "name": "A#5",
            "ticks": 107760,
            "time": 112.25,
            "velocity": 0.905511811023622
          },
          {
            "duration": 0.22604166666666003,
            "durationTicks": 217,
            "midi": 70,
            "name": "A#4",
            "ticks": 108000,
            "time": 112.5,
            "velocity": 0.8976377952755905
          },
          {
            "duration": 0.22604166666666003,
            "durationTicks": 217,
            "midi": 82,
            "name": "A#5",
            "ticks": 108000,
            "time": 112.5,
            "velocity": 0.8976377952755905
          },
          {
            "duration": 0.22604166666666003,
            "durationTicks": 217,
            "midi": 67,
            "name": "G4",
            "ticks": 108240,
            "time": 112.75,
            "velocity": 0.8110236220472441
          },
          {
            "duration": 0.22604166666666003,
            "durationTicks": 217,
            "midi": 79,
            "name": "G5",
            "ticks": 108240,
            "time": 112.75,
            "velocity": 0.8110236220472441
          },
          {
            "duration": 0.22604166666666003,
            "durationTicks": 217,
            "midi": 63,
            "name": "D#4",
            "ticks": 108480,
            "time": 113,
            "velocity": 0.7637795275590551
          },
          {
            "duration": 0.22604166666666003,
            "durationTicks": 217,
            "midi": 75,
            "name": "D#5",
            "ticks": 108480,
            "time": 113,
            "velocity": 0.7637795275590551
          },
          {
            "duration": 0.22604166666666003,
            "durationTicks": 217,
            "midi": 63,
            "name": "D#4",
            "ticks": 108720,
            "time": 113.25,
            "velocity": 0.8740157480314961
          },
          {
            "duration": 0.22604166666666003,
            "durationTicks": 217,
            "midi": 75,
            "name": "D#5",
            "ticks": 108720,
            "time": 113.25,
            "velocity": 0.8740157480314961
          },
          {
            "duration": 0.22604166666666003,
            "durationTicks": 217,
            "midi": 63,
            "name": "D#4",
            "ticks": 108960,
            "time": 113.5,
            "velocity": 0.8740157480314961
          },
          {
            "duration": 0.22604166666666003,
            "durationTicks": 217,
            "midi": 75,
            "name": "D#5",
            "ticks": 108960,
            "time": 113.5,
            "velocity": 0.8740157480314961
          },
          {
            "duration": 1.22604166666666,
            "durationTicks": 1177,
            "midi": 58,
            "name": "A#3",
            "ticks": 109200,
            "time": 113.75,
            "velocity": 0.7559055118110236
          },
          {
            "duration": 1.22604166666666,
            "durationTicks": 1177,
            "midi": 70,
            "name": "A#4",
            "ticks": 109200,
            "time": 113.75,
            "velocity": 0.7559055118110236
          },
          {
            "duration": 0.22604166666666003,
            "durationTicks": 217,
            "midi": 79,
            "name": "G5",
            "ticks": 110400,
            "time": 115,
            "velocity": 1
          },
          {
            "duration": 0.22604166666666003,
            "durationTicks": 217,
            "midi": 79,
            "name": "G5",
            "ticks": 110640,
            "time": 115.25,
            "velocity": 0.905511811023622
          },
          {
            "duration": 0.22604166666666003,
            "durationTicks": 217,
            "midi": 79,
            "name": "G5",
            "ticks": 110880,
            "time": 115.5,
            "velocity": 0.8346456692913385
          },
          {
            "duration": 0.22604166666666003,
            "durationTicks": 217,
            "midi": 75,
            "name": "D#5",
            "ticks": 111120,
            "time": 115.75,
            "velocity": 0.8188976377952756
          },
          {
            "duration": 0.22604166666666003,
            "durationTicks": 217,
            "midi": 70,
            "name": "A#4",
            "ticks": 111360,
            "time": 116,
            "velocity": 1
          },
          {
            "duration": 0.22604166666666003,
            "durationTicks": 217,
            "midi": 82,
            "name": "A#5",
            "ticks": 111360,
            "time": 116,
            "velocity": 1
          },
          {
            "duration": 0.22604166666666003,
            "durationTicks": 217,
            "midi": 70,
            "name": "A#4",
            "ticks": 111600,
            "time": 116.25,
            "velocity": 0.889763779527559
          },
          {
            "duration": 0.22604166666666003,
            "durationTicks": 217,
            "midi": 82,
            "name": "A#5",
            "ticks": 111600,
            "time": 116.25,
            "velocity": 0.889763779527559
          },
          {
            "duration": 0.22604166666666003,
            "durationTicks": 217,
            "midi": 70,
            "name": "A#4",
            "ticks": 111840,
            "time": 116.5,
            "velocity": 0.889763779527559
          },
          {
            "duration": 0.22604166666666003,
            "durationTicks": 217,
            "midi": 82,
            "name": "A#5",
            "ticks": 111840,
            "time": 116.5,
            "velocity": 0.889763779527559
          },
          {
            "duration": 0.22604166666666003,
            "durationTicks": 217,
            "midi": 67,
            "name": "G4",
            "ticks": 112080,
            "time": 116.75,
            "velocity": 0.8188976377952756
          },
          {
            "duration": 0.22604166666666003,
            "durationTicks": 217,
            "midi": 79,
            "name": "G5",
            "ticks": 112080,
            "time": 116.75,
            "velocity": 0.8188976377952756
          },
          {
            "duration": 0.22604166666666003,
            "durationTicks": 217,
            "midi": 63,
            "name": "D#4",
            "ticks": 112320,
            "time": 117,
            "velocity": 0.7874015748031497
          },
          {
            "duration": 0.22604166666666003,
            "durationTicks": 217,
            "midi": 75,
            "name": "D#5",
            "ticks": 112320,
            "time": 117,
            "velocity": 0.7874015748031497
          },
          {
            "duration": 0.22604166666666003,
            "durationTicks": 217,
            "midi": 63,
            "name": "D#4",
            "ticks": 112560,
            "time": 117.25,
            "velocity": 0.8661417322834646
          },
          {
            "duration": 0.22604166666666003,
            "durationTicks": 217,
            "midi": 75,
            "name": "D#5",
            "ticks": 112560,
            "time": 117.25,
            "velocity": 0.8661417322834646
          },
          {
            "duration": 0.22604166666666003,
            "durationTicks": 217,
            "midi": 63,
            "name": "D#4",
            "ticks": 112800,
            "time": 117.5,
            "velocity": 0.905511811023622
          },
          {
            "duration": 0.22604166666666003,
            "durationTicks": 217,
            "midi": 75,
            "name": "D#5",
            "ticks": 112800,
            "time": 117.5,
            "velocity": 0.905511811023622
          },
          {
            "duration": 1.4510416666666686,
            "durationTicks": 1393,
            "midi": 58,
            "name": "A#3",
            "ticks": 113040,
            "time": 117.75,
            "velocity": 0.7401574803149606
          },
          {
            "duration": 1.4510416666666686,
            "durationTicks": 1393,
            "midi": 70,
            "name": "A#4",
            "ticks": 113040,
            "time": 117.75,
            "velocity": 0.7401574803149606
          },
          {
            "duration": 0.22604166666666003,
            "durationTicks": 217,
            "midi": 65,
            "name": "F4",
            "ticks": 115200,
            "time": 120,
            "velocity": 0.8110236220472441
          },
          {
            "duration": 0.22604166666666003,
            "durationTicks": 217,
            "midi": 74,
            "name": "D5",
            "ticks": 115200,
            "time": 120,
            "velocity": 0.8110236220472441
          },
          {
            "duration": 0.22604166666666003,
            "durationTicks": 217,
            "midi": 65,
            "name": "F4",
            "ticks": 115440,
            "time": 120.25,
            "velocity": 0.8818897637795275
          },
          {
            "duration": 0.22604166666666003,
            "durationTicks": 217,
            "midi": 74,
            "name": "D5",
            "ticks": 115440,
            "time": 120.25,
            "velocity": 0.8818897637795275
          },
          {
            "duration": 0.22604166666666003,
            "durationTicks": 217,
            "midi": 65,
            "name": "F4",
            "ticks": 115680,
            "time": 120.5,
            "velocity": 0.8818897637795275
          },
          {
            "duration": 0.22604166666666003,
            "durationTicks": 217,
            "midi": 74,
            "name": "D5",
            "ticks": 115680,
            "time": 120.5,
            "velocity": 0.8818897637795275
          },
          {
            "duration": 0.45104166666666856,
            "durationTicks": 433,
            "midi": 67,
            "name": "G4",
            "ticks": 115920,
            "time": 120.75,
            "velocity": 0.9291338582677166
          },
          {
            "duration": 0.45104166666666856,
            "durationTicks": 433,
            "midi": 75,
            "name": "D#5",
            "ticks": 115920,
            "time": 120.75,
            "velocity": 0.9291338582677166
          },
          {
            "duration": 0.22604166666666003,
            "durationTicks": 217,
            "midi": 74,
            "name": "D5",
            "ticks": 117120,
            "time": 122,
            "velocity": 0.8346456692913385
          },
          {
            "duration": 0.22604166666666003,
            "durationTicks": 217,
            "midi": 77,
            "name": "F5",
            "ticks": 117120,
            "time": 122,
            "velocity": 0.8346456692913385
          },
          {
            "duration": 0.22604166666666003,
            "durationTicks": 217,
            "midi": 74,
            "name": "D5",
            "ticks": 117360,
            "time": 122.25,
            "velocity": 0.8661417322834646
          },
          {
            "duration": 0.22604166666666003,
            "durationTicks": 217,
            "midi": 77,
            "name": "F5",
            "ticks": 117360,
            "time": 122.25,
            "velocity": 0.8661417322834646
          },
          {
            "duration": 0.22604166666666003,
            "durationTicks": 217,
            "midi": 74,
            "name": "D5",
            "ticks": 117600,
            "time": 122.5,
            "velocity": 0.8976377952755905
          },
          {
            "duration": 0.22604166666666003,
            "durationTicks": 217,
            "midi": 77,
            "name": "F5",
            "ticks": 117600,
            "time": 122.5,
            "velocity": 0.8976377952755905
          },
          {
            "duration": 0.45104166666666856,
            "durationTicks": 433,
            "midi": 67,
            "name": "G4",
            "ticks": 117840,
            "time": 122.75,
            "velocity": 0.8503937007874016
          },
          {
            "duration": 0.45104166666666856,
            "durationTicks": 433,
            "midi": 75,
            "name": "D#5",
            "ticks": 117840,
            "time": 122.75,
            "velocity": 0.8503937007874016
          },
          {
            "duration": 0.22604166666666003,
            "durationTicks": 217,
            "midi": 67,
            "name": "G4",
            "ticks": 120960,
            "time": 126,
            "velocity": 0.7874015748031497
          },
          {
            "duration": 0.22604166666666003,
            "durationTicks": 217,
            "midi": 67,
            "name": "G4",
            "ticks": 121200,
            "time": 126.25,
            "velocity": 0.889763779527559
          },
          {
            "duration": 0.22604166666666003,
            "durationTicks": 217,
            "midi": 67,
            "name": "G4",
            "ticks": 121440,
            "time": 126.5,
            "velocity": 0.889763779527559
          },
          {
            "duration": 1.5,
            "durationTicks": 1440,
            "midi": 63,
            "name": "D#4",
            "ticks": 121680,
            "time": 126.75,
            "velocity": 0.7874015748031497
          },
          {
            "duration": 0.22604166666667425,
            "durationTicks": 217,
            "midi": 65,
            "name": "F4",
            "ticks": 123360,
            "time": 128.5,
            "velocity": 0.8740157480314961
          },
          {
            "duration": 0.22604166666667425,
            "durationTicks": 217,
            "midi": 65,
            "name": "F4",
            "ticks": 123600,
            "time": 128.75,
            "velocity": 0.8818897637795275
          },
          {
            "duration": 0.22604166666667425,
            "durationTicks": 217,
            "midi": 65,
            "name": "F4",
            "ticks": 123840,
            "time": 129,
            "velocity": 0.8661417322834646
          },
          {
            "duration": 2.5,
            "durationTicks": 2400,
            "midi": 62,
            "name": "D4",
            "ticks": 124080,
            "time": 129.25,
            "velocity": 0.8110236220472441
          },
          {
            "duration": 0.22604166666667425,
            "durationTicks": 217,
            "midi": 55,
            "name": "G3",
            "ticks": 138240,
            "time": 144,
            "velocity": 0.41732283464566927
          },
          {
            "duration": 0.22604166666667425,
            "durationTicks": 217,
            "midi": 59,
            "name": "B3",
            "ticks": 138240,
            "time": 144,
            "velocity": 0.41732283464566927
          },
          {
            "duration": 0.22604166666667425,
            "durationTicks": 217,
            "midi": 59,
            "name": "B3",
            "ticks": 138480,
            "time": 144.25,
            "velocity": 0.5511811023622047
          },
          {
            "duration": 0.22604166666667425,
            "durationTicks": 217,
            "midi": 62,
            "name": "D4",
            "ticks": 138480,
            "time": 144.25,
            "velocity": 0.5511811023622047
          },
          {
            "duration": 0.22604166666667425,
            "durationTicks": 217,
            "midi": 62,
            "name": "D4",
            "ticks": 138720,
            "time": 144.5,
            "velocity": 0.7086614173228346
          },
          {
            "duration": 0.22604166666667425,
            "durationTicks": 217,
            "midi": 67,
            "name": "G4",
            "ticks": 138720,
            "time": 144.5,
            "velocity": 0.7086614173228346
          },
          {
            "duration": 0.45104166666666856,
            "durationTicks": 433,
            "midi": 63,
            "name": "D#4",
            "ticks": 138960,
            "time": 144.75,
            "velocity": 0.7874015748031497
          },
          {
            "duration": 0.45104166666666856,
            "durationTicks": 433,
            "midi": 67,
            "name": "G4",
            "ticks": 138960,
            "time": 144.75,
            "velocity": 0.7874015748031497
          },
          {
            "duration": 0.45104166666666856,
            "durationTicks": 433,
            "midi": 60,
            "name": "C4",
            "ticks": 139920,
            "time": 145.75,
            "velocity": 0.6850393700787402
          },
          {
            "duration": 0.45104166666666856,
            "durationTicks": 433,
            "midi": 66,
            "name": "F#4",
            "ticks": 139920,
            "time": 145.75,
            "velocity": 0.6850393700787402
          },
          {
            "duration": 0.45104166666666856,
            "durationTicks": 433,
            "midi": 59,
            "name": "B3",
            "ticks": 140880,
            "time": 146.75,
            "velocity": 0.7244094488188977
          },
          {
            "duration": 0.45104166666666856,
            "durationTicks": 433,
            "midi": 62,
            "name": "D4",
            "ticks": 140880,
            "time": 146.75,
            "velocity": 0.7244094488188977
          },
          {
            "duration": 0.22604166666667425,
            "durationTicks": 217,
            "midi": 68,
            "name": "G#4",
            "ticks": 142320,
            "time": 148.25,
            "velocity": 0.7086614173228346
          },
          {
            "duration": 0.22604166666667425,
            "durationTicks": 217,
            "midi": 68,
            "name": "G#4",
            "ticks": 142560,
            "time": 148.5,
            "velocity": 0.7480314960629921
          },
          {
            "duration": 0.22604166666667425,
            "durationTicks": 217,
            "midi": 68,
            "name": "G#4",
            "ticks": 142800,
            "time": 148.75,
            "velocity": 0.7559055118110236
          },
          {
            "duration": 2.5,
            "durationTicks": 2400,
            "midi": 65,
            "name": "F4",
            "ticks": 143040,
            "time": 149,
            "velocity": 0.7086614173228346
          },
          {
            "duration": 0.22604166666667425,
            "durationTicks": 217,
            "midi": 74,
            "name": "D5",
            "ticks": 152400,
            "time": 158.75,
            "velocity": 0.4330708661417323
          },
          {
            "duration": 0.22604166666667425,
            "durationTicks": 217,
            "midi": 74,
            "name": "D5",
            "ticks": 152640,
            "time": 159,
            "velocity": 0.4330708661417323
          },
          {
            "duration": 0.22604166666667425,
            "durationTicks": 217,
            "midi": 74,
            "name": "D5",
            "ticks": 152880,
            "time": 159.25,
            "velocity": 0.48031496062992124
          },
          {
            "duration": 0.45104166666666856,
            "durationTicks": 433,
            "midi": 72,
            "name": "C5",
            "ticks": 153120,
            "time": 159.5,
            "velocity": 0.47244094488188976
          },
          {
            "duration": 0.45104166666666856,
            "durationTicks": 433,
            "midi": 65,
            "name": "F4",
            "ticks": 157920,
            "time": 164.5,
            "velocity": 0.47244094488188976
          },
          {
            "duration": 0.45104166666666856,
            "durationTicks": 433,
            "midi": 68,
            "name": "G#4",
            "ticks": 157920,
            "time": 164.5,
            "velocity": 0.47244094488188976
          },
          {
            "duration": 0.45104166666666856,
            "durationTicks": 433,
            "midi": 64,
            "name": "E4",
            "ticks": 158880,
            "time": 165.5,
            "velocity": 0.5118110236220472
          },
          {
            "duration": 0.45104166666666856,
            "durationTicks": 433,
            "midi": 67,
            "name": "G4",
            "ticks": 158880,
            "time": 165.5,
            "velocity": 0.5118110236220472
          },
          {
            "duration": 0.45104166666666856,
            "durationTicks": 433,
            "midi": 65,
            "name": "F4",
            "ticks": 159840,
            "time": 166.5,
            "velocity": 0.49606299212598426
          },
          {
            "duration": 0.45104166666666856,
            "durationTicks": 433,
            "midi": 68,
            "name": "G#4",
            "ticks": 159840,
            "time": 166.5,
            "velocity": 0.49606299212598426
          },
          {
            "duration": 0.45104166666666856,
            "durationTicks": 433,
            "midi": 67,
            "name": "G4",
            "ticks": 160800,
            "time": 167.5,
            "velocity": 0.5118110236220472
          },
          {
            "duration": 0.45104166666666856,
            "durationTicks": 433,
            "midi": 70,
            "name": "A#4",
            "ticks": 160800,
            "time": 167.5,
            "velocity": 0.5118110236220472
          },
          {
            "duration": 0.45104166666666856,
            "durationTicks": 433,
            "midi": 65,
            "name": "F4",
            "ticks": 161760,
            "time": 168.5,
            "velocity": 0.48031496062992124
          },
          {
            "duration": 0.45104166666666856,
            "durationTicks": 433,
            "midi": 68,
            "name": "G#4",
            "ticks": 161760,
            "time": 168.5,
            "velocity": 0.48031496062992124
          },
          {
            "duration": 0.45104166666666856,
            "durationTicks": 433,
            "midi": 62,
            "name": "D4",
            "ticks": 162720,
            "time": 169.5,
            "velocity": 0.47244094488188976
          },
          {
            "duration": 0.45104166666666856,
            "durationTicks": 433,
            "midi": 65,
            "name": "F4",
            "ticks": 162720,
            "time": 169.5,
            "velocity": 0.47244094488188976
          },
          {
            "duration": 3.9000000000000057,
            "durationTicks": 3744,
            "midi": 63,
            "name": "D#4",
            "ticks": 163680,
            "time": 170.5,
            "velocity": 0.7007874015748031
          },
          {
            "duration": 3.9000000000000057,
            "durationTicks": 3744,
            "midi": 67,
            "name": "G4",
            "ticks": 163680,
            "time": 170.5,
            "velocity": 0.7007874015748031
          },
          {
            "duration": 3.4510416666666686,
            "durationTicks": 3313,
            "midi": 62,
            "name": "D4",
            "ticks": 167520,
            "time": 174.5,
            "velocity": 0.7007874015748031
          },
          {
            "duration": 3.4510416666666686,
            "durationTicks": 3313,
            "midi": 65,
            "name": "F4",
            "ticks": 167520,
            "time": 174.5,
            "velocity": 0.7007874015748031
          },
          {
            "duration": 0.45104166666666856,
            "durationTicks": 433,
            "midi": 60,
            "name": "C4",
            "ticks": 170880,
            "time": 178,
            "velocity": 0.7007874015748031
          },
          {
            "duration": 0.45104166666666856,
            "durationTicks": 433,
            "midi": 63,
            "name": "D#4",
            "ticks": 170880,
            "time": 178,
            "velocity": 0.7007874015748031
          },
          {
            "duration": 3.9000000000000057,
            "durationTicks": 3744,
            "midi": 66,
            "name": "F#4",
            "ticks": 171360,
            "time": 178.5,
            "velocity": 1
          },
          {
            "duration": 3.9000000000000057,
            "durationTicks": 3744,
            "midi": 75,
            "name": "D#5",
            "ticks": 171360,
            "time": 178.5,
            "velocity": 1
          },
          {
            "duration": 0.45104166666666856,
            "durationTicks": 433,
            "midi": 66,
            "name": "F#4",
            "ticks": 175200,
            "time": 182.5,
            "velocity": 0.889763779527559
          },
          {
            "duration": 0.45104166666666856,
            "durationTicks": 433,
            "midi": 75,
            "name": "D#5",
            "ticks": 175200,
            "time": 182.5,
            "velocity": 0.889763779527559
          },
          {
            "duration": 0.45104166666666856,
            "durationTicks": 433,
            "midi": 70,
            "name": "A#4",
            "ticks": 177120,
            "time": 184.5,
            "velocity": 0.7874015748031497
          },
          {
            "duration": 0.5093750000000057,
            "durationTicks": 489,
            "midi": 70,
            "name": "A#4",
            "ticks": 185760,
            "time": 193.5,
            "velocity": 0.5590551181102362
          },
          {
            "duration": 0.5093750000000057,
            "durationTicks": 489,
            "midi": 75,
            "name": "D#5",
            "ticks": 186240,
            "time": 194,
            "velocity": 0.6692913385826772
          },
          {
            "duration": 0.5093750000000057,
            "durationTicks": 489,
            "midi": 74,
            "name": "D5",
            "ticks": 186720,
            "time": 194.5,
            "velocity": 0.6377952755905512
          },
          {
            "duration": 0.5093750000000057,
            "durationTicks": 489,
            "midi": 75,
            "name": "D#5",
            "ticks": 187200,
            "time": 195,
            "velocity": 0.6771653543307087
          },
          {
            "duration": 0.5093750000000057,
            "durationTicks": 489,
            "midi": 77,
            "name": "F5",
            "ticks": 187680,
            "time": 195.5,
            "velocity": 0.7086614173228346
          },
          {
            "duration": 0.4749999999999943,
            "durationTicks": 456,
            "midi": 72,
            "name": "C5",
            "ticks": 188160,
            "time": 196,
            "velocity": 0.5669291338582677
          },
          {
            "duration": 0.5093750000000057,
            "durationTicks": 489,
            "midi": 72,
            "name": "C5",
            "ticks": 188640,
            "time": 196.5,
            "velocity": 0.6535433070866141
          },
          {
            "duration": 0.4749999999999943,
            "durationTicks": 456,
            "midi": 70,
            "name": "A#4",
            "ticks": 189120,
            "time": 197,
            "velocity": 0.5984251968503937
          },
          {
            "duration": 2.9000000000000057,
            "durationTicks": 2784,
            "midi": 72,
            "name": "C5",
            "ticks": 201120,
            "time": 209.5,
            "velocity": 0.5118110236220472
          },
          {
            "duration": 2.9000000000000057,
            "durationTicks": 2784,
            "midi": 75,
            "name": "D#5",
            "ticks": 201120,
            "time": 209.5,
            "velocity": 0.5118110236220472
          },
          {
            "duration": 1.9000000000000057,
            "durationTicks": 1824,
            "midi": 70,
            "name": "A#4",
            "ticks": 204000,
            "time": 212.5,
            "velocity": 0.48031496062992124
          },
          {
            "duration": 1.9000000000000057,
            "durationTicks": 1824,
            "midi": 75,
            "name": "D#5",
            "ticks": 204000,
            "time": 212.5,
            "velocity": 0.48031496062992124
          },
          {
            "duration": 4.451041666666669,
            "durationTicks": 4273,
            "midi": 69,
            "name": "A4",
            "ticks": 205920,
            "time": 214.5,
            "velocity": 0.5669291338582677
          },
          {
            "duration": 4.451041666666669,
            "durationTicks": 4273,
            "midi": 75,
            "name": "D#5",
            "ticks": 205920,
            "time": 214.5,
            "velocity": 0.5669291338582677
          },
          {
            "duration": 0.45104166666666856,
            "durationTicks": 433,
            "midi": 69,
            "name": "A4",
            "ticks": 210240,
            "time": 219,
            "velocity": 0.6456692913385826
          },
          {
            "duration": 0.45104166666666856,
            "durationTicks": 433,
            "midi": 75,
            "name": "D#5",
            "ticks": 210240,
            "time": 219,
            "velocity": 0.6456692913385826
          },
          {
            "duration": 0.45104166666666856,
            "durationTicks": 433,
            "midi": 69,
            "name": "A4",
            "ticks": 210720,
            "time": 219.5,
            "velocity": 0.7559055118110236
          },
          {
            "duration": 0.45104166666666856,
            "durationTicks": 433,
            "midi": 75,
            "name": "D#5",
            "ticks": 210720,
            "time": 219.5,
            "velocity": 0.7559055118110236
          },
          {
            "duration": 0.45104166666666856,
            "durationTicks": 433,
            "midi": 69,
            "name": "A4",
            "ticks": 211200,
            "time": 220,
            "velocity": 0.7716535433070866
          },
          {
            "duration": 0.45104166666666856,
            "durationTicks": 433,
            "midi": 75,
            "name": "D#5",
            "ticks": 211200,
            "time": 220,
            "velocity": 0.7716535433070866
          },
          {
            "duration": 1.4510416666666686,
            "durationTicks": 1393,
            "midi": 68,
            "name": "G#4",
            "ticks": 211680,
            "time": 220.5,
            "velocity": 0.7952755905511811
          },
          {
            "duration": 1.4510416666666686,
            "durationTicks": 1393,
            "midi": 70,
            "name": "A#4",
            "ticks": 211680,
            "time": 220.5,
            "velocity": 0.7952755905511811
          },
          {
            "duration": 0.45104166666666856,
            "durationTicks": 433,
            "midi": 65,
            "name": "F4",
            "ticks": 213120,
            "time": 222,
            "velocity": 0.8740157480314961
          },
          {
            "duration": 0.45104166666666856,
            "durationTicks": 433,
            "midi": 70,
            "name": "A#4",
            "ticks": 213120,
            "time": 222,
            "velocity": 0.8740157480314961
          },
          {
            "duration": 0.45104166666666856,
            "durationTicks": 433,
            "midi": 67,
            "name": "G4",
            "ticks": 213600,
            "time": 222.5,
            "velocity": 0.889763779527559
          },
          {
            "duration": 0.45104166666666856,
            "durationTicks": 433,
            "midi": 70,
            "name": "A#4",
            "ticks": 213600,
            "time": 222.5,
            "velocity": 0.889763779527559
          },
          {
            "duration": 0.45104166666666856,
            "durationTicks": 433,
            "midi": 68,
            "name": "G#4",
            "ticks": 214560,
            "time": 223.5,
            "velocity": 0.8110236220472441
          },
          {
            "duration": 0.45104166666666856,
            "durationTicks": 433,
            "midi": 70,
            "name": "A#4",
            "ticks": 214560,
            "time": 223.5,
            "velocity": 0.8110236220472441
          },
          {
            "duration": 0.45104166666666856,
            "durationTicks": 433,
            "midi": 67,
            "name": "G4",
            "ticks": 215520,
            "time": 224.5,
            "velocity": 0.7795275590551181
          },
          {
            "duration": 0.45104166666666856,
            "durationTicks": 433,
            "midi": 70,
            "name": "A#4",
            "ticks": 215520,
            "time": 224.5,
            "velocity": 0.7795275590551181
          },
          {
            "duration": 0.45104166666666856,
            "durationTicks": 433,
            "midi": 65,
            "name": "F4",
            "ticks": 216480,
            "time": 225.5,
            "velocity": 0.7952755905511811
          },
          {
            "duration": 0.45104166666666856,
            "durationTicks": 433,
            "midi": 72,
            "name": "C5",
            "ticks": 216480,
            "time": 225.5,
            "velocity": 0.7952755905511811
          },
          {
            "duration": 0.45104166666666856,
            "durationTicks": 433,
            "midi": 67,
            "name": "G4",
            "ticks": 217440,
            "time": 226.5,
            "velocity": 0.8267716535433071
          },
          {
            "duration": 0.45104166666666856,
            "durationTicks": 433,
            "midi": 70,
            "name": "A#4",
            "ticks": 217440,
            "time": 226.5,
            "velocity": 0.8267716535433071
          },
          {
            "duration": 0.22604166666667425,
            "durationTicks": 217,
            "midi": 65,
            "name": "F4",
            "ticks": 218400,
            "time": 227.5,
            "velocity": 0.8188976377952756
          },
          {
            "duration": 0.22604166666667425,
            "durationTicks": 217,
            "midi": 70,
            "name": "A#4",
            "ticks": 218400,
            "time": 227.5,
            "velocity": 0.8188976377952756
          },
          {
            "duration": 0.2541666666666629,
            "durationTicks": 244,
            "midi": 69,
            "name": "A4",
            "ticks": 218640,
            "time": 227.75,
            "velocity": 1
          },
          {
            "duration": 0.2541666666666629,
            "durationTicks": 244,
            "midi": 81,
            "name": "A5",
            "ticks": 218640,
            "time": 227.75,
            "velocity": 1
          },
          {
            "duration": 0.2541666666666629,
            "durationTicks": 244,
            "midi": 70,
            "name": "A#4",
            "ticks": 218880,
            "time": 228,
            "velocity": 1
          },
          {
            "duration": 0.2541666666666629,
            "durationTicks": 244,
            "midi": 82,
            "name": "A#5",
            "ticks": 218880,
            "time": 228,
            "velocity": 1
          },
          {
            "duration": 0.2541666666666629,
            "durationTicks": 244,
            "midi": 69,
            "name": "A4",
            "ticks": 219120,
            "time": 228.25,
            "velocity": 0.8346456692913385
          },
          {
            "duration": 0.2541666666666629,
            "durationTicks": 244,
            "midi": 81,
            "name": "A5",
            "ticks": 219120,
            "time": 228.25,
            "velocity": 0.8346456692913385
          },
          {
            "duration": 0.2541666666666629,
            "durationTicks": 244,
            "midi": 70,
            "name": "A#4",
            "ticks": 219360,
            "time": 228.5,
            "velocity": 0.9606299212598425
          },
          {
            "duration": 0.2541666666666629,
            "durationTicks": 244,
            "midi": 82,
            "name": "A#5",
            "ticks": 219360,
            "time": 228.5,
            "velocity": 0.9606299212598425
          },
          {
            "duration": 0.2541666666666629,
            "durationTicks": 244,
            "midi": 69,
            "name": "A4",
            "ticks": 219600,
            "time": 228.75,
            "velocity": 0.9133858267716536
          },
          {
            "duration": 0.2541666666666629,
            "durationTicks": 244,
            "midi": 81,
            "name": "A5",
            "ticks": 219600,
            "time": 228.75,
            "velocity": 0.9133858267716536
          },
          {
            "duration": 0.2541666666666629,
            "durationTicks": 244,
            "midi": 70,
            "name": "A#4",
            "ticks": 219840,
            "time": 229,
            "velocity": 0.9448818897637795
          },
          {
            "duration": 0.2541666666666629,
            "durationTicks": 244,
            "midi": 82,
            "name": "A#5",
            "ticks": 219840,
            "time": 229,
            "velocity": 0.9448818897637795
          },
          {
            "duration": 0.23645833333333144,
            "durationTicks": 227,
            "midi": 69,
            "name": "A4",
            "ticks": 220080,
            "time": 229.25,
            "velocity": 0.9133858267716536
          },
          {
            "duration": 0.23645833333333144,
            "durationTicks": 227,
            "midi": 81,
            "name": "A5",
            "ticks": 220080,
            "time": 229.25,
            "velocity": 0.9133858267716536
          },
          {
            "duration": 0.11354166666666288,
            "durationTicks": 109,
            "midi": 70,
            "name": "A#4",
            "ticks": 220320,
            "time": 229.5,
            "velocity": 0.9212598425196851
          },
          {
            "duration": 0.11354166666666288,
            "durationTicks": 109,
            "midi": 82,
            "name": "A#5",
            "ticks": 220320,
            "time": 229.5,
            "velocity": 0.9212598425196851
          },
          {
            "duration": 0.11354166666666288,
            "durationTicks": 109,
            "midi": 72,
            "name": "C5",
            "ticks": 220560,
            "time": 229.75,
            "velocity": 0.937007874015748
          },
          {
            "duration": 0.11354166666666288,
            "durationTicks": 109,
            "midi": 84,
            "name": "C6",
            "ticks": 220560,
            "time": 229.75,
            "velocity": 0.937007874015748
          },
          {
            "duration": 0.11354166666666288,
            "durationTicks": 109,
            "midi": 70,
            "name": "A#4",
            "ticks": 220800,
            "time": 230,
            "velocity": 0.84251968503937
          },
          {
            "duration": 0.11354166666666288,
            "durationTicks": 109,
            "midi": 82,
            "name": "A#5",
            "ticks": 220800,
            "time": 230,
            "velocity": 0.84251968503937
          },
          {
            "duration": 0.11354166666666288,
            "durationTicks": 109,
            "midi": 68,
            "name": "G#4",
            "ticks": 221040,
            "time": 230.25,
            "velocity": 0.8503937007874016
          },
          {
            "duration": 0.11354166666666288,
            "durationTicks": 109,
            "midi": 80,
            "name": "G#5",
            "ticks": 221040,
            "time": 230.25,
            "velocity": 0.8503937007874016
          },
          {
            "duration": 0.45104166666666856,
            "durationTicks": 433,
            "midi": 67,
            "name": "G4",
            "ticks": 221280,
            "time": 230.5,
            "velocity": 0.84251968503937
          },
          {
            "duration": 0.45104166666666856,
            "durationTicks": 433,
            "midi": 79,
            "name": "G5",
            "ticks": 221280,
            "time": 230.5,
            "velocity": 0.84251968503937
          },
          {
            "duration": 0.45104166666666856,
            "durationTicks": 433,
            "midi": 67,
            "name": "G4",
            "ticks": 221760,
            "time": 231,
            "velocity": 0.8818897637795275
          },
          {
            "duration": 0.45104166666666856,
            "durationTicks": 433,
            "midi": 79,
            "name": "G5",
            "ticks": 221760,
            "time": 231,
            "velocity": 0.8818897637795275
          },
          {
            "duration": 0.45104166666666856,
            "durationTicks": 433,
            "midi": 65,
            "name": "F4",
            "ticks": 222720,
            "time": 232,
            "velocity": 0.7559055118110236
          },
          {
            "duration": 0.45104166666666856,
            "durationTicks": 433,
            "midi": 74,
            "name": "D5",
            "ticks": 222720,
            "time": 232,
            "velocity": 0.7559055118110236
          },
          {
            "duration": 0.45104166666666856,
            "durationTicks": 433,
            "midi": 67,
            "name": "G4",
            "ticks": 223680,
            "time": 233,
            "velocity": 0.8188976377952756
          },
          {
            "duration": 0.45104166666666856,
            "durationTicks": 433,
            "midi": 75,
            "name": "D#5",
            "ticks": 223680,
            "time": 233,
            "velocity": 0.8188976377952756
          },
          {
            "duration": 0.45104166666666856,
            "durationTicks": 433,
            "midi": 65,
            "name": "F4",
            "ticks": 224640,
            "time": 234,
            "velocity": 0.7874015748031497
          },
          {
            "duration": 0.45104166666666856,
            "durationTicks": 433,
            "midi": 68,
            "name": "G#4",
            "ticks": 224640,
            "time": 234,
            "velocity": 0.7874015748031497
          },
          {
            "duration": 0.45104166666666856,
            "durationTicks": 433,
            "midi": 63,
            "name": "D#4",
            "ticks": 225600,
            "time": 235,
            "velocity": 0.7637795275590551
          },
          {
            "duration": 0.45104166666666856,
            "durationTicks": 433,
            "midi": 67,
            "name": "G4",
            "ticks": 225600,
            "time": 235,
            "velocity": 0.7637795275590551
          },
          {
            "duration": 0.45104166666666856,
            "durationTicks": 433,
            "midi": 65,
            "name": "F4",
            "ticks": 226560,
            "time": 236,
            "velocity": 0.7401574803149606
          },
          {
            "duration": 0.45104166666666856,
            "durationTicks": 433,
            "midi": 74,
            "name": "D5",
            "ticks": 226560,
            "time": 236,
            "velocity": 0.7401574803149606
          },
          {
            "duration": 0.22604166666667425,
            "durationTicks": 217,
            "midi": 67,
            "name": "G4",
            "ticks": 227040,
            "time": 236.5,
            "velocity": 0.9212598425196851
          },
          {
            "duration": 0.22604166666667425,
            "durationTicks": 217,
            "midi": 75,
            "name": "D#5",
            "ticks": 227040,
            "time": 236.5,
            "velocity": 0.9212598425196851
          },
          {
            "duration": 0.22604166666667425,
            "durationTicks": 217,
            "midi": 79,
            "name": "G5",
            "ticks": 227280,
            "time": 236.75,
            "velocity": 1
          },
          {
            "duration": 0.22604166666667425,
            "durationTicks": 217,
            "midi": 79,
            "name": "G5",
            "ticks": 227520,
            "time": 237,
            "velocity": 0.8818897637795275
          },
          {
            "duration": 0.22604166666667425,
            "durationTicks": 217,
            "midi": 79,
            "name": "G5",
            "ticks": 227760,
            "time": 237.25,
            "velocity": 0.9133858267716536
          },
          {
            "duration": 0.22604166666667425,
            "durationTicks": 217,
            "midi": 75,
            "name": "D#5",
            "ticks": 228000,
            "time": 237.5,
            "velocity": 0.8031496062992126
          },
          {
            "duration": 0.22604166666667425,
            "durationTicks": 217,
            "midi": 70,
            "name": "A#4",
            "ticks": 228240,
            "time": 237.75,
            "velocity": 1
          },
          {
            "duration": 0.22604166666667425,
            "durationTicks": 217,
            "midi": 82,
            "name": "A#5",
            "ticks": 228240,
            "time": 237.75,
            "velocity": 1
          },
          {
            "duration": 0.22604166666667425,
            "durationTicks": 217,
            "midi": 70,
            "name": "A#4",
            "ticks": 228480,
            "time": 238,
            "velocity": 0.9212598425196851
          },
          {
            "duration": 0.22604166666667425,
            "durationTicks": 217,
            "midi": 82,
            "name": "A#5",
            "ticks": 228480,
            "time": 238,
            "velocity": 0.9212598425196851
          },
          {
            "duration": 0.22604166666667425,
            "durationTicks": 217,
            "midi": 70,
            "name": "A#4",
            "ticks": 228720,
            "time": 238.25,
            "velocity": 0.9133858267716536
          },
          {
            "duration": 0.22604166666667425,
            "durationTicks": 217,
            "midi": 82,
            "name": "A#5",
            "ticks": 228720,
            "time": 238.25,
            "velocity": 0.9133858267716536
          },
          {
            "duration": 0.22604166666667425,
            "durationTicks": 217,
            "midi": 67,
            "name": "G4",
            "ticks": 228960,
            "time": 238.5,
            "velocity": 0.8346456692913385
          },
          {
            "duration": 0.22604166666667425,
            "durationTicks": 217,
            "midi": 79,
            "name": "G5",
            "ticks": 228960,
            "time": 238.5,
            "velocity": 0.8346456692913385
          },
          {
            "duration": 0.22604166666667425,
            "durationTicks": 217,
            "midi": 63,
            "name": "D#4",
            "ticks": 229200,
            "time": 238.75,
            "velocity": 0.7952755905511811
          },
          {
            "duration": 0.22604166666667425,
            "durationTicks": 217,
            "midi": 75,
            "name": "D#5",
            "ticks": 229200,
            "time": 238.75,
            "velocity": 0.7952755905511811
          },
          {
            "duration": 0.22604166666667425,
            "durationTicks": 217,
            "midi": 63,
            "name": "D#4",
            "ticks": 229440,
            "time": 239,
            "velocity": 0.8976377952755905
          },
          {
            "duration": 0.22604166666667425,
            "durationTicks": 217,
            "midi": 75,
            "name": "D#5",
            "ticks": 229440,
            "time": 239,
            "velocity": 0.8976377952755905
          },
          {
            "duration": 0.22604166666667425,
            "durationTicks": 217,
            "midi": 63,
            "name": "D#4",
            "ticks": 229680,
            "time": 239.25,
            "velocity": 0.8661417322834646
          },
          {
            "duration": 0.22604166666667425,
            "durationTicks": 217,
            "midi": 75,
            "name": "D#5",
            "ticks": 229680,
            "time": 239.25,
            "velocity": 0.8661417322834646
          },
          {
            "duration": 1.2260416666666742,
            "durationTicks": 1177,
            "midi": 58,
            "name": "A#3",
            "ticks": 229920,
            "time": 239.5,
            "velocity": 0.7559055118110236
          },
          {
            "duration": 1.2260416666666742,
            "durationTicks": 1177,
            "midi": 70,
            "name": "A#4",
            "ticks": 229920,
            "time": 239.5,
            "velocity": 0.7559055118110236
          },
          {
            "duration": 0.22604166666667425,
            "durationTicks": 217,
            "midi": 79,
            "name": "G5",
            "ticks": 231120,
            "time": 240.75,
            "velocity": 1
          },
          {
            "duration": 0.22604166666667425,
            "durationTicks": 217,
            "midi": 79,
            "name": "G5",
            "ticks": 231360,
            "time": 241,
            "velocity": 0.937007874015748
          },
          {
            "duration": 0.22604166666667425,
            "durationTicks": 217,
            "midi": 79,
            "name": "G5",
            "ticks": 231600,
            "time": 241.25,
            "velocity": 0.889763779527559
          },
          {
            "duration": 0.22604166666667425,
            "durationTicks": 217,
            "midi": 75,
            "name": "D#5",
            "ticks": 231840,
            "time": 241.5,
            "velocity": 0.7874015748031497
          },
          {
            "duration": 0.22604166666667425,
            "durationTicks": 217,
            "midi": 70,
            "name": "A#4",
            "ticks": 232080,
            "time": 241.75,
            "velocity": 1
          },
          {
            "duration": 0.22604166666667425,
            "durationTicks": 217,
            "midi": 82,
            "name": "A#5",
            "ticks": 232080,
            "time": 241.75,
            "velocity": 1
          },
          {
            "duration": 0.22604166666667425,
            "durationTicks": 217,
            "midi": 70,
            "name": "A#4",
            "ticks": 232320,
            "time": 242,
            "velocity": 0.9212598425196851
          },
          {
            "duration": 0.22604166666667425,
            "durationTicks": 217,
            "midi": 82,
            "name": "A#5",
            "ticks": 232320,
            "time": 242,
            "velocity": 0.9212598425196851
          },
          {
            "duration": 0.22604166666667425,
            "durationTicks": 217,
            "midi": 70,
            "name": "A#4",
            "ticks": 232560,
            "time": 242.25,
            "velocity": 0.8818897637795275
          },
          {
            "duration": 0.22604166666667425,
            "durationTicks": 217,
            "midi": 82,
            "name": "A#5",
            "ticks": 232560,
            "time": 242.25,
            "velocity": 0.8818897637795275
          },
          {
            "duration": 0.22604166666667425,
            "durationTicks": 217,
            "midi": 67,
            "name": "G4",
            "ticks": 232800,
            "time": 242.5,
            "velocity": 0.8267716535433071
          },
          {
            "duration": 0.22604166666667425,
            "durationTicks": 217,
            "midi": 79,
            "name": "G5",
            "ticks": 232800,
            "time": 242.5,
            "velocity": 0.8267716535433071
          },
          {
            "duration": 0.22604166666667425,
            "durationTicks": 217,
            "midi": 63,
            "name": "D#4",
            "ticks": 233040,
            "time": 242.75,
            "velocity": 0.7637795275590551
          },
          {
            "duration": 0.22604166666667425,
            "durationTicks": 217,
            "midi": 75,
            "name": "D#5",
            "ticks": 233040,
            "time": 242.75,
            "velocity": 0.7637795275590551
          },
          {
            "duration": 0.22604166666667425,
            "durationTicks": 217,
            "midi": 63,
            "name": "D#4",
            "ticks": 233280,
            "time": 243,
            "velocity": 0.84251968503937
          },
          {
            "duration": 0.22604166666667425,
            "durationTicks": 217,
            "midi": 75,
            "name": "D#5",
            "ticks": 233280,
            "time": 243,
            "velocity": 0.84251968503937
          },
          {
            "duration": 0.22604166666667425,
            "durationTicks": 217,
            "midi": 63,
            "name": "D#4",
            "ticks": 233520,
            "time": 243.25,
            "velocity": 0.8740157480314961
          },
          {
            "duration": 0.22604166666667425,
            "durationTicks": 217,
            "midi": 75,
            "name": "D#5",
            "ticks": 233520,
            "time": 243.25,
            "velocity": 0.8740157480314961
          },
          {
            "duration": 1.4510416666666686,
            "durationTicks": 1393,
            "midi": 58,
            "name": "A#3",
            "ticks": 233760,
            "time": 243.5,
            "velocity": 0.7480314960629921
          },
          {
            "duration": 1.4510416666666686,
            "durationTicks": 1393,
            "midi": 70,
            "name": "A#4",
            "ticks": 233760,
            "time": 243.5,
            "velocity": 0.7480314960629921
          },
          {
            "duration": 0.22604166666667425,
            "durationTicks": 217,
            "midi": 65,
            "name": "F4",
            "ticks": 235920,
            "time": 245.75,
            "velocity": 0.8188976377952756
          },
          {
            "duration": 0.22604166666667425,
            "durationTicks": 217,
            "midi": 74,
            "name": "D5",
            "ticks": 235920,
            "time": 245.75,
            "velocity": 0.8188976377952756
          },
          {
            "duration": 0.22604166666667425,
            "durationTicks": 217,
            "midi": 65,
            "name": "F4",
            "ticks": 236160,
            "time": 246,
            "velocity": 0.8582677165354331
          },
          {
            "duration": 0.22604166666667425,
            "durationTicks": 217,
            "midi": 74,
            "name": "D5",
            "ticks": 236160,
            "time": 246,
            "velocity": 0.8582677165354331
          },
          {
            "duration": 0.22604166666667425,
            "durationTicks": 217,
            "midi": 65,
            "name": "F4",
            "ticks": 236400,
            "time": 246.25,
            "velocity": 0.889763779527559
          },
          {
            "duration": 0.22604166666667425,
            "durationTicks": 217,
            "midi": 74,
            "name": "D5",
            "ticks": 236400,
            "time": 246.25,
            "velocity": 0.889763779527559
          },
          {
            "duration": 0.45104166666666856,
            "durationTicks": 433,
            "midi": 67,
            "name": "G4",
            "ticks": 236640,
            "time": 246.5,
            "velocity": 0.9448818897637795
          },
          {
            "duration": 0.45104166666666856,
            "durationTicks": 433,
            "midi": 75,
            "name": "D#5",
            "ticks": 236640,
            "time": 246.5,
            "velocity": 0.9448818897637795
          },
          {
            "duration": 0.22604166666667425,
            "durationTicks": 217,
            "midi": 74,
            "name": "D5",
            "ticks": 237840,
            "time": 247.75,
            "velocity": 0.8031496062992126
          },
          {
            "duration": 0.22604166666667425,
            "durationTicks": 217,
            "midi": 77,
            "name": "F5",
            "ticks": 237840,
            "time": 247.75,
            "velocity": 0.8031496062992126
          },
          {
            "duration": 0.22604166666667425,
            "durationTicks": 217,
            "midi": 74,
            "name": "D5",
            "ticks": 238080,
            "time": 248,
            "velocity": 0.8976377952755905
          },
          {
            "duration": 0.22604166666667425,
            "durationTicks": 217,
            "midi": 77,
            "name": "F5",
            "ticks": 238080,
            "time": 248,
            "velocity": 0.8976377952755905
          },
          {
            "duration": 0.22604166666667425,
            "durationTicks": 217,
            "midi": 74,
            "name": "D5",
            "ticks": 238320,
            "time": 248.25,
            "velocity": 0.9212598425196851
          },
          {
            "duration": 0.22604166666667425,
            "durationTicks": 217,
            "midi": 77,
            "name": "F5",
            "ticks": 238320,
            "time": 248.25,
            "velocity": 0.9212598425196851
          },
          {
            "duration": 0.45104166666666856,
            "durationTicks": 433,
            "midi": 67,
            "name": "G4",
            "ticks": 238560,
            "time": 248.5,
            "velocity": 0.8582677165354331
          },
          {
            "duration": 0.45104166666666856,
            "durationTicks": 433,
            "midi": 75,
            "name": "D#5",
            "ticks": 238560,
            "time": 248.5,
            "velocity": 0.8582677165354331
          },
          {
            "duration": 0.22604166666667425,
            "durationTicks": 217,
            "midi": 70,
            "name": "A#4",
            "ticks": 241680,
            "time": 251.75,
            "velocity": 0.8110236220472441
          },
          {
            "duration": 0.22604166666667425,
            "durationTicks": 217,
            "midi": 70,
            "name": "A#4",
            "ticks": 241920,
            "time": 252,
            "velocity": 0.84251968503937
          },
          {
            "duration": 0.22604166666667425,
            "durationTicks": 217,
            "midi": 70,
            "name": "A#4",
            "ticks": 242160,
            "time": 252.25,
            "velocity": 0.8740157480314961
          },
          {
            "duration": 3.5,
            "durationTicks": 3360,
            "midi": 67,
            "name": "G4",
            "ticks": 242400,
            "time": 252.5,
            "velocity": 0.8188976377952756
          },
          {
            "duration": 0.22604166666667425,
            "durationTicks": 217,
            "midi": 73,
            "name": "C#5",
            "ticks": 246960,
            "time": 257.25,
            "velocity": 0.4881889763779528
          },
          {
            "duration": 0.22604166666667425,
            "durationTicks": 217,
            "midi": 73,
            "name": "C#5",
            "ticks": 247200,
            "time": 257.5,
            "velocity": 0.5590551181102362
          },
          {
            "duration": 0.22604166666667425,
            "durationTicks": 217,
            "midi": 73,
            "name": "C#5",
            "ticks": 247440,
            "time": 257.75,
            "velocity": 0.5669291338582677
          },
          {
            "duration": 3.2260416666666742,
            "durationTicks": 3097,
            "midi": 72,
            "name": "C5",
            "ticks": 247680,
            "time": 258,
            "velocity": 0.5354330708661418
          },
          {
            "duration": 0.22604166666667425,
            "durationTicks": 217,
            "midi": 73,
            "name": "C#5",
            "ticks": 250800,
            "time": 261.25,
            "velocity": 0.5826771653543307
          },
          {
            "duration": 0.22604166666667425,
            "durationTicks": 217,
            "midi": 73,
            "name": "C#5",
            "ticks": 251040,
            "time": 261.5,
            "velocity": 0.5826771653543307
          },
          {
            "duration": 0.22604166666667425,
            "durationTicks": 217,
            "midi": 73,
            "name": "C#5",
            "ticks": 251280,
            "time": 261.75,
            "velocity": 0.5275590551181102
          },
          {
            "duration": 2.8999999999999773,
            "durationTicks": 2784,
            "midi": 72,
            "name": "C5",
            "ticks": 251520,
            "time": 262,
            "velocity": 0.5275590551181102
          },
          {
            "duration": 1.0197916666666629,
            "durationTicks": 979,
            "midi": 68,
            "name": "G#4",
            "ticks": 254400,
            "time": 265,
            "velocity": 0.5511811023622047
          },
          {
            "duration": 5.042708333333337,
            "durationTicks": 4841,
            "midi": 72,
            "name": "C5",
            "ticks": 254400,
            "time": 265,
            "velocity": 0.5511811023622047
          },
          {
            "duration": 1.0197916666666629,
            "durationTicks": 979,
            "midi": 67,
            "name": "G4",
            "ticks": 255360,
            "time": 266,
            "velocity": 0.5590551181102362
          },
          {
            "duration": 1.0197916666666629,
            "durationTicks": 979,
            "midi": 68,
            "name": "G#4",
            "ticks": 256320,
            "time": 267,
            "velocity": 0.5275590551181102
          },
          {
            "duration": 1.0197916666666629,
            "durationTicks": 979,
            "midi": 67,
            "name": "G4",
            "ticks": 257280,
            "time": 268,
            "velocity": 0.5669291338582677
          },
          {
            "duration": 0.47500000000002274,
            "durationTicks": 456,
            "midi": 68,
            "name": "G#4",
            "ticks": 258240,
            "time": 269,
            "velocity": 0.5590551181102362
          },
          {
            "duration": 1.0197916666666629,
            "durationTicks": 979,
            "midi": 72,
            "name": "C5",
            "ticks": 262080,
            "time": 273,
            "velocity": 0.44881889763779526
          },
          {
            "duration": 1.0197916666666629,
            "durationTicks": 979,
            "midi": 75,
            "name": "D#5",
            "ticks": 262080,
            "time": 273,
            "velocity": 0.44881889763779526
          },
          {
            "duration": 1.0197916666666629,
            "durationTicks": 979,
            "midi": 71,
            "name": "B4",
            "ticks": 263040,
            "time": 274,
            "velocity": 0.4015748031496063
          },
          {
            "duration": 1.0197916666666629,
            "durationTicks": 979,
            "midi": 74,
            "name": "D5",
            "ticks": 263040,
            "time": 274,
            "velocity": 0.4015748031496063
          },
          {
            "duration": 1.0197916666666629,
            "durationTicks": 979,
            "midi": 72,
            "name": "C5",
            "ticks": 264000,
            "time": 275,
            "velocity": 0.49606299212598426
          },
          {
            "duration": 1.0197916666666629,
            "durationTicks": 979,
            "midi": 75,
            "name": "D#5",
            "ticks": 264000,
            "time": 275,
            "velocity": 0.49606299212598426
          },
          {
            "duration": 1.0197916666666629,
            "durationTicks": 979,
            "midi": 71,
            "name": "B4",
            "ticks": 264960,
            "time": 276,
            "velocity": 0.5039370078740157
          },
          {
            "duration": 1.0197916666666629,
            "durationTicks": 979,
            "midi": 74,
            "name": "D5",
            "ticks": 264960,
            "time": 276,
            "velocity": 0.5039370078740157
          },
          {
            "duration": 0.47500000000002274,
            "durationTicks": 456,
            "midi": 72,
            "name": "C5",
            "ticks": 265920,
            "time": 277,
            "velocity": 0.5039370078740157
          },
          {
            "duration": 0.47500000000002274,
            "durationTicks": 456,
            "midi": 75,
            "name": "D#5",
            "ticks": 265920,
            "time": 277,
            "velocity": 0.5039370078740157
          },
          {
            "duration": 0.22604166666667425,
            "durationTicks": 217,
            "midi": 66,
            "name": "F#4",
            "ticks": 269040,
            "time": 280.25,
            "velocity": 0.4330708661417323
          },
          {
            "duration": 0.22604166666667425,
            "durationTicks": 217,
            "midi": 74,
            "name": "D5",
            "ticks": 269040,
            "time": 280.25,
            "velocity": 0.4330708661417323
          },
          {
            "duration": 0.22604166666667425,
            "durationTicks": 217,
            "midi": 66,
            "name": "F#4",
            "ticks": 269280,
            "time": 280.5,
            "velocity": 0.5039370078740157
          },
          {
            "duration": 0.22604166666667425,
            "durationTicks": 217,
            "midi": 74,
            "name": "D5",
            "ticks": 269280,
            "time": 280.5,
            "velocity": 0.5039370078740157
          },
          {
            "duration": 0.22604166666667425,
            "durationTicks": 217,
            "midi": 69,
            "name": "A4",
            "ticks": 269520,
            "time": 280.75,
            "velocity": 0.47244094488188976
          },
          {
            "duration": 0.22604166666667425,
            "durationTicks": 217,
            "midi": 72,
            "name": "C5",
            "ticks": 269520,
            "time": 280.75,
            "velocity": 0.47244094488188976
          },
          {
            "duration": 0.8999999999999773,
            "durationTicks": 864,
            "midi": 67,
            "name": "G4",
            "ticks": 269760,
            "time": 281,
            "velocity": 0.4645669291338583
          },
          {
            "duration": 0.8999999999999773,
            "durationTicks": 864,
            "midi": 70,
            "name": "A#4",
            "ticks": 269760,
            "time": 281,
            "velocity": 0.4645669291338583
          },
          {
            "duration": 0.22604166666667425,
            "durationTicks": 217,
            "midi": 66,
            "name": "F#4",
            "ticks": 270720,
            "time": 282,
            "velocity": 0.4330708661417323
          },
          {
            "duration": 0.22604166666667425,
            "durationTicks": 217,
            "midi": 69,
            "name": "A4",
            "ticks": 270720,
            "time": 282,
            "velocity": 0.4330708661417323
          },
          {
            "duration": 0.22604166666667425,
            "durationTicks": 217,
            "midi": 66,
            "name": "F#4",
            "ticks": 270960,
            "time": 282.25,
            "velocity": 0.5196850393700787
          },
          {
            "duration": 0.22604166666667425,
            "durationTicks": 217,
            "midi": 74,
            "name": "D5",
            "ticks": 270960,
            "time": 282.25,
            "velocity": 0.5196850393700787
          },
          {
            "duration": 0.22604166666667425,
            "durationTicks": 217,
            "midi": 66,
            "name": "F#4",
            "ticks": 271200,
            "time": 282.5,
            "velocity": 0.4881889763779528
          },
          {
            "duration": 0.22604166666667425,
            "durationTicks": 217,
            "midi": 74,
            "name": "D5",
            "ticks": 271200,
            "time": 282.5,
            "velocity": 0.4881889763779528
          },
          {
            "duration": 0.22604166666667425,
            "durationTicks": 217,
            "midi": 69,
            "name": "A4",
            "ticks": 271440,
            "time": 282.75,
            "velocity": 0.4645669291338583
          },
          {
            "duration": 0.22604166666667425,
            "durationTicks": 217,
            "midi": 72,
            "name": "C5",
            "ticks": 271440,
            "time": 282.75,
            "velocity": 0.4645669291338583
          },
          {
            "duration": 0.8999999999999773,
            "durationTicks": 864,
            "midi": 67,
            "name": "G4",
            "ticks": 271680,
            "time": 283,
            "velocity": 0.4330708661417323
          },
          {
            "duration": 0.8999999999999773,
            "durationTicks": 864,
            "midi": 70,
            "name": "A#4",
            "ticks": 271680,
            "time": 283,
            "velocity": 0.4330708661417323
          },
          {
            "duration": 0.8999999999999773,
            "durationTicks": 864,
            "midi": 66,
            "name": "F#4",
            "ticks": 272640,
            "time": 284,
            "velocity": 0.47244094488188976
          },
          {
            "duration": 0.8999999999999773,
            "durationTicks": 864,
            "midi": 69,
            "name": "A4",
            "ticks": 272640,
            "time": 284,
            "velocity": 0.47244094488188976
          },
          {
            "duration": 1.2260416666666742,
            "durationTicks": 1177,
            "midi": 67,
            "name": "G4",
            "ticks": 273600,
            "time": 285,
            "velocity": 0.5039370078740157
          },
          {
            "duration": 1.2260416666666742,
            "durationTicks": 1177,
            "midi": 70,
            "name": "A#4",
            "ticks": 273600,
            "time": 285,
            "velocity": 0.5039370078740157
          },
          {
            "duration": 0.22604166666667425,
            "durationTicks": 217,
            "midi": 67,
            "name": "G4",
            "ticks": 274800,
            "time": 286.25,
            "velocity": 0.48031496062992124
          },
          {
            "duration": 0.22604166666667425,
            "durationTicks": 217,
            "midi": 69,
            "name": "A4",
            "ticks": 275040,
            "time": 286.5,
            "velocity": 0.5039370078740157
          },
          {
            "duration": 0.22604166666667425,
            "durationTicks": 217,
            "midi": 70,
            "name": "A#4",
            "ticks": 275280,
            "time": 286.75,
            "velocity": 0.49606299212598426
          },
          {
            "duration": 0.45104166666664014,
            "durationTicks": 433,
            "midi": 66,
            "name": "F#4",
            "ticks": 275520,
            "time": 287,
            "velocity": 0.5118110236220472
          },
          {
            "duration": 0.45104166666664014,
            "durationTicks": 433,
            "midi": 72,
            "name": "C5",
            "ticks": 275520,
            "time": 287,
            "velocity": 0.5118110236220472
          },
          {
            "duration": 0.22604166666667425,
            "durationTicks": 217,
            "midi": 66,
            "name": "F#4",
            "ticks": 276720,
            "time": 288.25,
            "velocity": 0.41732283464566927
          },
          {
            "duration": 0.22604166666667425,
            "durationTicks": 217,
            "midi": 69,
            "name": "A4",
            "ticks": 276960,
            "time": 288.5,
            "velocity": 0.5196850393700787
          },
          {
            "duration": 0.22604166666667425,
            "durationTicks": 217,
            "midi": 70,
            "name": "A#4",
            "ticks": 277200,
            "time": 288.75,
            "velocity": 0.48031496062992124
          },
          {
            "duration": 0.45104166666664014,
            "durationTicks": 433,
            "midi": 66,
            "name": "F#4",
            "ticks": 277440,
            "time": 289,
            "velocity": 0.5039370078740157
          },
          {
            "duration": 0.45104166666664014,
            "durationTicks": 433,
            "midi": 72,
            "name": "C5",
            "ticks": 277440,
            "time": 289,
            "velocity": 0.5039370078740157
          },
          {
            "duration": 0.22604166666667425,
            "durationTicks": 217,
            "midi": 69,
            "name": "A4",
            "ticks": 278640,
            "time": 290.25,
            "velocity": 0.4645669291338583
          },
          {
            "duration": 0.22604166666667425,
            "durationTicks": 217,
            "midi": 70,
            "name": "A#4",
            "ticks": 278880,
            "time": 290.5,
            "velocity": 0.5118110236220472
          },
          {
            "duration": 0.22604166666667425,
            "durationTicks": 217,
            "midi": 72,
            "name": "C5",
            "ticks": 279120,
            "time": 290.75,
            "velocity": 0.48031496062992124
          },
          {
            "duration": 0.45104166666664014,
            "durationTicks": 433,
            "midi": 67,
            "name": "G4",
            "ticks": 279360,
            "time": 291,
            "velocity": 0.5196850393700787
          },
          {
            "duration": 0.45104166666664014,
            "durationTicks": 433,
            "midi": 74,
            "name": "D5",
            "ticks": 279360,
            "time": 291,
            "velocity": 0.5196850393700787
          },
          {
            "duration": 0.22604166666667425,
            "durationTicks": 217,
            "midi": 67,
            "name": "G4",
            "ticks": 280560,
            "time": 292.25,
            "velocity": 0.4409448818897638
          },
          {
            "duration": 0.22604166666667425,
            "durationTicks": 217,
            "midi": 70,
            "name": "A#4",
            "ticks": 280800,
            "time": 292.5,
            "velocity": 0.5433070866141733
          },
          {
            "duration": 0.22604166666667425,
            "durationTicks": 217,
            "midi": 72,
            "name": "C5",
            "ticks": 281040,
            "time": 292.75,
            "velocity": 0.5275590551181102
          },
          {
            "duration": 0.45104166666664014,
            "durationTicks": 433,
            "midi": 67,
            "name": "G4",
            "ticks": 281280,
            "time": 293,
            "velocity": 0.49606299212598426
          },
          {
            "duration": 0.45104166666664014,
            "durationTicks": 433,
            "midi": 74,
            "name": "D5",
            "ticks": 281280,
            "time": 293,
            "velocity": 0.49606299212598426
          },
          {
            "duration": 0.22604166666667425,
            "durationTicks": 217,
            "midi": 67,
            "name": "G4",
            "ticks": 282480,
            "time": 294.25,
            "velocity": 0.4251968503937008
          },
          {
            "duration": 0.22604166666667425,
            "durationTicks": 217,
            "midi": 70,
            "name": "A#4",
            "ticks": 282480,
            "time": 294.25,
            "velocity": 0.4251968503937008
          },
          {
            "duration": 0.22604166666667425,
            "durationTicks": 217,
            "midi": 69,
            "name": "A4",
            "ticks": 282720,
            "time": 294.5,
            "velocity": 0.5748031496062992
          },
          {
            "duration": 0.22604166666667425,
            "durationTicks": 217,
            "midi": 72,
            "name": "C5",
            "ticks": 282720,
            "time": 294.5,
            "velocity": 0.5748031496062992
          },
          {
            "duration": 0.22604166666667425,
            "durationTicks": 217,
            "midi": 70,
            "name": "A#4",
            "ticks": 282960,
            "time": 294.75,
            "velocity": 0.7401574803149606
          },
          {
            "duration": 0.22604166666667425,
            "durationTicks": 217,
            "midi": 74,
            "name": "D5",
            "ticks": 282960,
            "time": 294.75,
            "velocity": 0.7401574803149606
          },
          {
            "duration": 1.8999999999999773,
            "durationTicks": 1824,
            "midi": 66,
            "name": "F#4",
            "ticks": 283200,
            "time": 295,
            "velocity": 0.6535433070866141
          },
          {
            "duration": 1.8999999999999773,
            "durationTicks": 1824,
            "midi": 69,
            "name": "A4",
            "ticks": 283200,
            "time": 295,
            "velocity": 0.6535433070866141
          },
          {
            "duration": 0.45104166666664014,
            "durationTicks": 433,
            "midi": 66,
            "name": "F#4",
            "ticks": 285120,
            "time": 297,
            "velocity": 0.7874015748031497
          },
          {
            "duration": 0.45104166666664014,
            "durationTicks": 433,
            "midi": 69,
            "name": "A4",
            "ticks": 285120,
            "time": 297,
            "velocity": 0.7874015748031497
          },
          {
            "duration": 0.22604166666667425,
            "durationTicks": 217,
            "midi": 67,
            "name": "G4",
            "ticks": 286320,
            "time": 298.25,
            "velocity": 0.6929133858267716
          },
          {
            "duration": 0.22604166666667425,
            "durationTicks": 217,
            "midi": 70,
            "name": "A#4",
            "ticks": 286320,
            "time": 298.25,
            "velocity": 0.6929133858267716
          },
          {
            "duration": 0.22604166666667425,
            "durationTicks": 217,
            "midi": 67,
            "name": "G4",
            "ticks": 286560,
            "time": 298.5,
            "velocity": 0.7401574803149606
          },
          {
            "duration": 0.22604166666667425,
            "durationTicks": 217,
            "midi": 70,
            "name": "A#4",
            "ticks": 286560,
            "time": 298.5,
            "velocity": 0.7401574803149606
          },
          {
            "duration": 0.22604166666667425,
            "durationTicks": 217,
            "midi": 67,
            "name": "G4",
            "ticks": 286800,
            "time": 298.75,
            "velocity": 0.7716535433070866
          },
          {
            "duration": 0.22604166666667425,
            "durationTicks": 217,
            "midi": 70,
            "name": "A#4",
            "ticks": 286800,
            "time": 298.75,
            "velocity": 0.7716535433070866
          },
          {
            "duration": 1.8999999999999773,
            "durationTicks": 1824,
            "midi": 67,
            "name": "G4",
            "ticks": 287040,
            "time": 299,
            "velocity": 0.7322834645669292
          },
          {
            "duration": 1.8999999999999773,
            "durationTicks": 1824,
            "midi": 70,
            "name": "A#4",
            "ticks": 287040,
            "time": 299,
            "velocity": 0.7322834645669292
          },
          {
            "duration": 0.45104166666664014,
            "durationTicks": 433,
            "midi": 67,
            "name": "G4",
            "ticks": 288960,
            "time": 301,
            "velocity": 0.7637795275590551
          },
          {
            "duration": 0.45104166666664014,
            "durationTicks": 433,
            "midi": 70,
            "name": "A#4",
            "ticks": 288960,
            "time": 301,
            "velocity": 0.7637795275590551
          },
          {
            "duration": 0.22604166666667425,
            "durationTicks": 217,
            "midi": 67,
            "name": "G4",
            "ticks": 290160,
            "time": 302.25,
            "velocity": 0.7480314960629921
          },
          {
            "duration": 0.22604166666667425,
            "durationTicks": 217,
            "midi": 70,
            "name": "A#4",
            "ticks": 290160,
            "time": 302.25,
            "velocity": 0.7480314960629921
          },
          {
            "duration": 0.22604166666667425,
            "durationTicks": 217,
            "midi": 67,
            "name": "G4",
            "ticks": 290400,
            "time": 302.5,
            "velocity": 0.7795275590551181
          },
          {
            "duration": 0.22604166666667425,
            "durationTicks": 217,
            "midi": 70,
            "name": "A#4",
            "ticks": 290400,
            "time": 302.5,
            "velocity": 0.7795275590551181
          },
          {
            "duration": 0.22604166666667425,
            "durationTicks": 217,
            "midi": 67,
            "name": "G4",
            "ticks": 290640,
            "time": 302.75,
            "velocity": 0.7952755905511811
          },
          {
            "duration": 0.22604166666667425,
            "durationTicks": 217,
            "midi": 70,
            "name": "A#4",
            "ticks": 290640,
            "time": 302.75,
            "velocity": 0.7952755905511811
          },
          {
            "duration": 0.45104166666664014,
            "durationTicks": 433,
            "midi": 67,
            "name": "G4",
            "ticks": 290880,
            "time": 303,
            "velocity": 0.8503937007874016
          },
          {
            "duration": 0.45104166666664014,
            "durationTicks": 433,
            "midi": 70,
            "name": "A#4",
            "ticks": 290880,
            "time": 303,
            "velocity": 0.8503937007874016
          },
          {
            "duration": 0.22604166666667425,
            "durationTicks": 217,
            "midi": 67,
            "name": "G4",
            "ticks": 292320,
            "time": 304.5,
            "velocity": 0.7322834645669292
          },
          {
            "duration": 0.22604166666667425,
            "durationTicks": 217,
            "midi": 70,
            "name": "A#4",
            "ticks": 292320,
            "time": 304.5,
            "velocity": 0.7322834645669292
          },
          {
            "duration": 0.22604166666667425,
            "durationTicks": 217,
            "midi": 67,
            "name": "G4",
            "ticks": 292560,
            "time": 304.75,
            "velocity": 0.8346456692913385
          },
          {
            "duration": 0.22604166666667425,
            "durationTicks": 217,
            "midi": 70,
            "name": "A#4",
            "ticks": 292560,
            "time": 304.75,
            "velocity": 0.8346456692913385
          },
          {
            "duration": 0.45104166666664014,
            "durationTicks": 433,
            "midi": 67,
            "name": "G4",
            "ticks": 292800,
            "time": 305,
            "velocity": 0.8346456692913385
          },
          {
            "duration": 0.45104166666664014,
            "durationTicks": 433,
            "midi": 70,
            "name": "A#4",
            "ticks": 292800,
            "time": 305,
            "velocity": 0.8346456692913385
          },
          {
            "duration": 0.22604166666667425,
            "durationTicks": 217,
            "midi": 62,
            "name": "D4",
            "ticks": 293280,
            "time": 305.5,
            "velocity": 0.7874015748031497
          },
          {
            "duration": 0.22604166666667425,
            "durationTicks": 217,
            "midi": 69,
            "name": "A4",
            "ticks": 293280,
            "time": 305.5,
            "velocity": 0.7874015748031497
          },
          {
            "duration": 0.22604166666667425,
            "durationTicks": 217,
            "midi": 62,
            "name": "D4",
            "ticks": 293520,
            "time": 305.75,
            "velocity": 0.7874015748031497
          },
          {
            "duration": 0.22604166666667425,
            "durationTicks": 217,
            "midi": 69,
            "name": "A4",
            "ticks": 293520,
            "time": 305.75,
            "velocity": 0.7874015748031497
          },
          {
            "duration": 0.45104166666664014,
            "durationTicks": 433,
            "midi": 62,
            "name": "D4",
            "ticks": 293760,
            "time": 306,
            "velocity": 0.8110236220472441
          },
          {
            "duration": 0.45104166666664014,
            "durationTicks": 433,
            "midi": 69,
            "name": "A4",
            "ticks": 293760,
            "time": 306,
            "velocity": 0.8110236220472441
          },
          {
            "duration": 0.22604166666667425,
            "durationTicks": 217,
            "midi": 72,
            "name": "C5",
            "ticks": 299040,
            "time": 311.5,
            "velocity": 0.7795275590551181
          },
          {
            "duration": 0.22604166666667425,
            "durationTicks": 217,
            "midi": 72,
            "name": "C5",
            "ticks": 299280,
            "time": 311.75,
            "velocity": 0.8818897637795275
          },
          {
            "duration": 0.45104166666664014,
            "durationTicks": 433,
            "midi": 72,
            "name": "C5",
            "ticks": 299520,
            "time": 312,
            "velocity": 0.8661417322834646
          },
          {
            "duration": 0.22604166666667425,
            "durationTicks": 217,
            "midi": 66,
            "name": "F#4",
            "ticks": 300960,
            "time": 313.5,
            "velocity": 0.8188976377952756
          },
          {
            "duration": 0.22604166666667425,
            "durationTicks": 217,
            "midi": 69,
            "name": "A4",
            "ticks": 300960,
            "time": 313.5,
            "velocity": 0.8188976377952756
          },
          {
            "duration": 0.22604166666667425,
            "durationTicks": 217,
            "midi": 66,
            "name": "F#4",
            "ticks": 301200,
            "time": 313.75,
            "velocity": 0.8818897637795275
          },
          {
            "duration": 0.22604166666667425,
            "durationTicks": 217,
            "midi": 69,
            "name": "A4",
            "ticks": 301200,
            "time": 313.75,
            "velocity": 0.8818897637795275
          },
          {
            "duration": 0.45104166666664014,
            "durationTicks": 433,
            "midi": 67,
            "name": "G4",
            "ticks": 301440,
            "time": 314,
            "velocity": 0.9291338582677166
          },
          {
            "duration": 0.45104166666664014,
            "durationTicks": 433,
            "midi": 71,
            "name": "B4",
            "ticks": 301440,
            "time": 314,
            "velocity": 0.9291338582677166
          },
          {
            "duration": 0.22604166666667425,
            "durationTicks": 217,
            "midi": 71,
            "name": "B4",
            "ticks": 306720,
            "time": 319.5,
            "velocity": 0.8031496062992126
          },
          {
            "duration": 0.22604166666667425,
            "durationTicks": 217,
            "midi": 71,
            "name": "B4",
            "ticks": 306960,
            "time": 319.75,
            "velocity": 0.8661417322834646
          },
          {
            "duration": 0.45104166666664014,
            "durationTicks": 433,
            "midi": 71,
            "name": "B4",
            "ticks": 307200,
            "time": 320,
            "velocity": 0.8582677165354331
          },
          {
            "duration": 0.22604166666667425,
            "durationTicks": 217,
            "midi": 71,
            "name": "B4",
            "ticks": 308640,
            "time": 321.5,
            "velocity": 0.7874015748031497
          },
          {
            "duration": 0.22604166666667425,
            "durationTicks": 217,
            "midi": 74,
            "name": "D5",
            "ticks": 308640,
            "time": 321.5,
            "velocity": 0.7874015748031497
          },
          {
            "duration": 0.22604166666667425,
            "durationTicks": 217,
            "midi": 71,
            "name": "B4",
            "ticks": 308880,
            "time": 321.75,
            "velocity": 0.9133858267716536
          },
          {
            "duration": 0.22604166666667425,
            "durationTicks": 217,
            "midi": 74,
            "name": "D5",
            "ticks": 308880,
            "time": 321.75,
            "velocity": 0.9133858267716536
          },
          {
            "duration": 0.22604166666667425,
            "durationTicks": 217,
            "midi": 72,
            "name": "C5",
            "ticks": 309120,
            "time": 322,
            "velocity": 0.9212598425196851
          },
          {
            "duration": 0.22604166666667425,
            "durationTicks": 217,
            "midi": 76,
            "name": "E5",
            "ticks": 309120,
            "time": 322,
            "velocity": 0.9212598425196851
          },
          {
            "duration": 0.22604166666667425,
            "durationTicks": 217,
            "midi": 72,
            "name": "C5",
            "ticks": 309360,
            "time": 322.25,
            "velocity": 1
          },
          {
            "duration": 0.22604166666667425,
            "durationTicks": 217,
            "midi": 84,
            "name": "C6",
            "ticks": 309360,
            "time": 322.25,
            "velocity": 1
          },
          {
            "duration": 0.22604166666667425,
            "durationTicks": 217,
            "midi": 72,
            "name": "C5",
            "ticks": 309600,
            "time": 322.5,
            "velocity": 0.9133858267716536
          },
          {
            "duration": 0.22604166666667425,
            "durationTicks": 217,
            "midi": 84,
            "name": "C6",
            "ticks": 309600,
            "time": 322.5,
            "velocity": 0.9133858267716536
          },
          {
            "duration": 0.22604166666667425,
            "durationTicks": 217,
            "midi": 72,
            "name": "C5",
            "ticks": 309840,
            "time": 322.75,
            "velocity": 0.9133858267716536
          },
          {
            "duration": 0.22604166666667425,
            "durationTicks": 217,
            "midi": 84,
            "name": "C6",
            "ticks": 309840,
            "time": 322.75,
            "velocity": 0.9133858267716536
          },
          {
            "duration": 1.0197916666666629,
            "durationTicks": 979,
            "midi": 65,
            "name": "F4",
            "ticks": 310080,
            "time": 323,
            "velocity": 0.7401574803149606
          },
          {
            "duration": 1.0197916666666629,
            "durationTicks": 979,
            "midi": 77,
            "name": "F5",
            "ticks": 310080,
            "time": 323,
            "velocity": 0.7401574803149606
          },
          {
            "duration": 0.9489583333333371,
            "durationTicks": 911,
            "midi": 67,
            "name": "G4",
            "ticks": 311040,
            "time": 324,
            "velocity": 0.7716535433070866
          },
          {
            "duration": 0.9489583333333371,
            "durationTicks": 911,
            "midi": 79,
            "name": "G5",
            "ticks": 311040,
            "time": 324,
            "velocity": 0.7716535433070866
          },
          {
            "duration": 1.0197916666666629,
            "durationTicks": 979,
            "midi": 65,
            "name": "F4",
            "ticks": 313920,
            "time": 327,
            "velocity": 0.8503937007874016
          },
          {
            "duration": 1.0197916666666629,
            "durationTicks": 979,
            "midi": 77,
            "name": "F5",
            "ticks": 313920,
            "time": 327,
            "velocity": 0.8503937007874016
          },
          {
            "duration": 0.9489583333333371,
            "durationTicks": 911,
            "midi": 67,
            "name": "G4",
            "ticks": 314880,
            "time": 328,
            "velocity": 0.8976377952755905
          },
          {
            "duration": 0.9489583333333371,
            "durationTicks": 911,
            "midi": 79,
            "name": "G5",
            "ticks": 314880,
            "time": 328,
            "velocity": 0.8976377952755905
          },
          {
            "duration": 1.0197916666666629,
            "durationTicks": 979,
            "midi": 68,
            "name": "G#4",
            "ticks": 317760,
            "time": 331,
            "velocity": 0.7165354330708661
          },
          {
            "duration": 1.0197916666666629,
            "durationTicks": 979,
            "midi": 72,
            "name": "C5",
            "ticks": 317760,
            "time": 331,
            "velocity": 0.7165354330708661
          },
          {
            "duration": 0.9489583333333371,
            "durationTicks": 911,
            "midi": 66,
            "name": "F#4",
            "ticks": 318720,
            "time": 332,
            "velocity": 0.7322834645669292
          },
          {
            "duration": 0.9489583333333371,
            "durationTicks": 911,
            "midi": 73,
            "name": "C#5",
            "ticks": 318720,
            "time": 332,
            "velocity": 0.7322834645669292
          },
          {
            "duration": 1.0197916666666629,
            "durationTicks": 979,
            "midi": 69,
            "name": "A4",
            "ticks": 321600,
            "time": 335,
            "velocity": 0.9763779527559056
          },
          {
            "duration": 1.0197916666666629,
            "durationTicks": 979,
            "midi": 75,
            "name": "D#5",
            "ticks": 321600,
            "time": 335,
            "velocity": 0.9763779527559056
          },
          {
            "duration": 0.9489583333333371,
            "durationTicks": 911,
            "midi": 70,
            "name": "A#4",
            "ticks": 322560,
            "time": 336,
            "velocity": 0.9133858267716536
          },
          {
            "duration": 0.9489583333333371,
            "durationTicks": 911,
            "midi": 73,
            "name": "C#5",
            "ticks": 322560,
            "time": 336,
            "velocity": 0.9133858267716536
          },
          {
            "duration": 0.8999999999999773,
            "durationTicks": 864,
            "midi": 71,
            "name": "B4",
            "ticks": 324480,
            "time": 338,
            "velocity": 0.8346456692913385
          },
          {
            "duration": 0.8999999999999773,
            "durationTicks": 864,
            "midi": 68,
            "name": "G#4",
            "ticks": 326400,
            "time": 340,
            "velocity": 0.5826771653543307
          },
          {
            "duration": 0.8999999999999773,
            "durationTicks": 864,
            "midi": 73,
            "name": "C#5",
            "ticks": 326400,
            "time": 340,
            "velocity": 0.5826771653543307
          },
          {
            "duration": 0.8999999999999773,
            "durationTicks": 864,
            "midi": 69,
            "name": "A4",
            "ticks": 328320,
            "time": 342,
            "velocity": 0.4566929133858268
          },
          {
            "duration": 0.8999999999999773,
            "durationTicks": 864,
            "midi": 73,
            "name": "C#5",
            "ticks": 328320,
            "time": 342,
            "velocity": 0.4566929133858268
          },
          {
            "duration": 0.8999999999999773,
            "durationTicks": 864,
            "midi": 69,
            "name": "A4",
            "ticks": 330240,
            "time": 344,
            "velocity": 0.44881889763779526
          },
          {
            "duration": 0.8999999999999773,
            "durationTicks": 864,
            "midi": 73,
            "name": "C#5",
            "ticks": 330240,
            "time": 344,
            "velocity": 0.44881889763779526
          },
          {
            "duration": 0.8999999999999773,
            "durationTicks": 864,
            "midi": 69,
            "name": "A4",
            "ticks": 332160,
            "time": 346,
            "velocity": 0.4251968503937008
          },
          {
            "duration": 0.8999999999999773,
            "durationTicks": 864,
            "midi": 73,
            "name": "C#5",
            "ticks": 332160,
            "time": 346,
            "velocity": 0.4251968503937008
          },
          {
            "duration": 0.8999999999999773,
            "durationTicks": 864,
            "midi": 69,
            "name": "A4",
            "ticks": 334080,
            "time": 348,
            "velocity": 0.4094488188976378
          },
          {
            "duration": 0.8999999999999773,
            "durationTicks": 864,
            "midi": 74,
            "name": "D5",
            "ticks": 334080,
            "time": 348,
            "velocity": 0.4094488188976378
          },
          {
            "duration": 0.8999999999999773,
            "durationTicks": 864,
            "midi": 69,
            "name": "A4",
            "ticks": 336000,
            "time": 350,
            "velocity": 0.3937007874015748
          },
          {
            "duration": 0.8999999999999773,
            "durationTicks": 864,
            "midi": 74,
            "name": "D5",
            "ticks": 336000,
            "time": 350,
            "velocity": 0.3937007874015748
          },
          {
            "duration": 0.8999999999999773,
            "durationTicks": 864,
            "midi": 69,
            "name": "A4",
            "ticks": 337920,
            "time": 352,
            "velocity": 0.3937007874015748
          },
          {
            "duration": 0.8999999999999773,
            "durationTicks": 864,
            "midi": 74,
            "name": "D5",
            "ticks": 337920,
            "time": 352,
            "velocity": 0.3937007874015748
          },
          {
            "duration": 0.8999999999999773,
            "durationTicks": 864,
            "midi": 69,
            "name": "A4",
            "ticks": 339840,
            "time": 354,
            "velocity": 0.41732283464566927
          },
          {
            "duration": 0.8999999999999773,
            "durationTicks": 864,
            "midi": 74,
            "name": "D5",
            "ticks": 339840,
            "time": 354,
            "velocity": 0.41732283464566927
          },
          {
            "duration": 0.22604166666667425,
            "durationTicks": 217,
            "midi": 74,
            "name": "D5",
            "ticks": 341040,
            "time": 355.25,
            "velocity": 0.7874015748031497
          },
          {
            "duration": 0.22604166666667425,
            "durationTicks": 217,
            "midi": 74,
            "name": "D5",
            "ticks": 341280,
            "time": 355.5,
            "velocity": 0.8740157480314961
          },
          {
            "duration": 0.22604166666667425,
            "durationTicks": 217,
            "midi": 74,
            "name": "D5",
            "ticks": 341520,
            "time": 355.75,
            "velocity": 0.8582677165354331
          },
          {
            "duration": 0.8999999999999773,
            "durationTicks": 864,
            "midi": 71,
            "name": "B4",
            "ticks": 341760,
            "time": 356,
            "velocity": 0.8346456692913385
          },
          {
            "duration": 0.8999999999999773,
            "durationTicks": 864,
            "midi": 72,
            "name": "C5",
            "ticks": 342720,
            "time": 357,
            "velocity": 0.9212598425196851
          },
          {
            "duration": 1.8999999999999773,
            "durationTicks": 1824,
            "midi": 69,
            "name": "A4",
            "ticks": 343680,
            "time": 358,
            "velocity": 0.84251968503937
          },
          {
            "duration": 0.8999999999999773,
            "durationTicks": 864,
            "midi": 68,
            "name": "G#4",
            "ticks": 345600,
            "time": 360,
            "velocity": 0.47244094488188976
          },
          {
            "duration": 0.8999999999999773,
            "durationTicks": 864,
            "midi": 74,
            "name": "D5",
            "ticks": 345600,
            "time": 360,
            "velocity": 0.47244094488188976
          },
          {
            "duration": 0.8999999999999773,
            "durationTicks": 864,
            "midi": 68,
            "name": "G#4",
            "ticks": 347520,
            "time": 362,
            "velocity": 0.4094488188976378
          },
          {
            "duration": 0.8999999999999773,
            "durationTicks": 864,
            "midi": 74,
            "name": "D5",
            "ticks": 347520,
            "time": 362,
            "velocity": 0.4094488188976378
          },
          {
            "duration": 0.8999999999999773,
            "durationTicks": 864,
            "midi": 68,
            "name": "G#4",
            "ticks": 349440,
            "time": 364,
            "velocity": 0.3858267716535433
          },
          {
            "duration": 0.8999999999999773,
            "durationTicks": 864,
            "midi": 74,
            "name": "D5",
            "ticks": 349440,
            "time": 364,
            "velocity": 0.3858267716535433
          },
          {
            "duration": 0.8999999999999773,
            "durationTicks": 864,
            "midi": 68,
            "name": "G#4",
            "ticks": 351360,
            "time": 366,
            "velocity": 0.3700787401574803
          },
          {
            "duration": 0.8999999999999773,
            "durationTicks": 864,
            "midi": 74,
            "name": "D5",
            "ticks": 351360,
            "time": 366,
            "velocity": 0.3700787401574803
          },
          {
            "duration": 0.22604166666667425,
            "durationTicks": 217,
            "midi": 68,
            "name": "G#4",
            "ticks": 353520,
            "time": 368.25,
            "velocity": 0.8031496062992126
          },
          {
            "duration": 0.22604166666667425,
            "durationTicks": 217,
            "midi": 80,
            "name": "G#5",
            "ticks": 353520,
            "time": 368.25,
            "velocity": 0.8031496062992126
          },
          {
            "duration": 0.22604166666667425,
            "durationTicks": 217,
            "midi": 68,
            "name": "G#4",
            "ticks": 353760,
            "time": 368.5,
            "velocity": 0.8740157480314961
          },
          {
            "duration": 0.22604166666667425,
            "durationTicks": 217,
            "midi": 80,
            "name": "G#5",
            "ticks": 353760,
            "time": 368.5,
            "velocity": 0.8740157480314961
          },
          {
            "duration": 0.22604166666667425,
            "durationTicks": 217,
            "midi": 68,
            "name": "G#4",
            "ticks": 354000,
            "time": 368.75,
            "velocity": 0.889763779527559
          },
          {
            "duration": 0.22604166666667425,
            "durationTicks": 217,
            "midi": 80,
            "name": "G#5",
            "ticks": 354000,
            "time": 368.75,
            "velocity": 0.889763779527559
          },
          {
            "duration": 1.2260416666666742,
            "durationTicks": 1177,
            "midi": 65,
            "name": "F4",
            "ticks": 354240,
            "time": 369,
            "velocity": 0.8110236220472441
          },
          {
            "duration": 1.2260416666666742,
            "durationTicks": 1177,
            "midi": 77,
            "name": "F5",
            "ticks": 354240,
            "time": 369,
            "velocity": 0.8110236220472441
          },
          {
            "duration": 0.22604166666667425,
            "durationTicks": 217,
            "midi": 68,
            "name": "G#4",
            "ticks": 355440,
            "time": 370.25,
            "velocity": 0.968503937007874
          },
          {
            "duration": 0.22604166666667425,
            "durationTicks": 217,
            "midi": 80,
            "name": "G#5",
            "ticks": 355440,
            "time": 370.25,
            "velocity": 0.968503937007874
          },
          {
            "duration": 0.22604166666667425,
            "durationTicks": 217,
            "midi": 68,
            "name": "G#4",
            "ticks": 355680,
            "time": 370.5,
            "velocity": 0.9133858267716536
          },
          {
            "duration": 0.22604166666667425,
            "durationTicks": 217,
            "midi": 80,
            "name": "G#5",
            "ticks": 355680,
            "time": 370.5,
            "velocity": 0.9133858267716536
          },
          {
            "duration": 0.22604166666667425,
            "durationTicks": 217,
            "midi": 68,
            "name": "G#4",
            "ticks": 355920,
            "time": 370.75,
            "velocity": 0.8976377952755905
          },
          {
            "duration": 0.22604166666667425,
            "durationTicks": 217,
            "midi": 80,
            "name": "G#5",
            "ticks": 355920,
            "time": 370.75,
            "velocity": 0.8976377952755905
          },
          {
            "duration": 1.2260416666666742,
            "durationTicks": 1177,
            "midi": 65,
            "name": "F4",
            "ticks": 356160,
            "time": 371,
            "velocity": 0.8031496062992126
          },
          {
            "duration": 1.2260416666666742,
            "durationTicks": 1177,
            "midi": 77,
            "name": "F5",
            "ticks": 356160,
            "time": 371,
            "velocity": 0.8031496062992126
          },
          {
            "duration": 0.22604166666667425,
            "durationTicks": 217,
            "midi": 68,
            "name": "G#4",
            "ticks": 357360,
            "time": 372.25,
            "velocity": 0.984251968503937
          },
          {
            "duration": 0.22604166666667425,
            "durationTicks": 217,
            "midi": 80,
            "name": "G#5",
            "ticks": 357360,
            "time": 372.25,
            "velocity": 0.984251968503937
          },
          {
            "duration": 0.22604166666667425,
            "durationTicks": 217,
            "midi": 68,
            "name": "G#4",
            "ticks": 357600,
            "time": 372.5,
            "velocity": 0.8818897637795275
          },
          {
            "duration": 0.22604166666667425,
            "durationTicks": 217,
            "midi": 80,
            "name": "G#5",
            "ticks": 357600,
            "time": 372.5,
            "velocity": 0.8818897637795275
          },
          {
            "duration": 0.22604166666667425,
            "durationTicks": 217,
            "midi": 68,
            "name": "G#4",
            "ticks": 357840,
            "time": 372.75,
            "velocity": 0.8740157480314961
          },
          {
            "duration": 0.22604166666667425,
            "durationTicks": 217,
            "midi": 80,
            "name": "G#5",
            "ticks": 357840,
            "time": 372.75,
            "velocity": 0.8740157480314961
          },
          {
            "duration": 0.22604166666667425,
            "durationTicks": 217,
            "midi": 65,
            "name": "F4",
            "ticks": 358080,
            "time": 373,
            "velocity": 0.8188976377952756
          },
          {
            "duration": 0.22604166666667425,
            "durationTicks": 217,
            "midi": 77,
            "name": "F5",
            "ticks": 358080,
            "time": 373,
            "velocity": 0.8188976377952756
          },
          {
            "duration": 0.22604166666667425,
            "durationTicks": 217,
            "midi": 68,
            "name": "G#4",
            "ticks": 358320,
            "time": 373.25,
            "velocity": 0.968503937007874
          },
          {
            "duration": 0.22604166666667425,
            "durationTicks": 217,
            "midi": 80,
            "name": "G#5",
            "ticks": 358320,
            "time": 373.25,
            "velocity": 0.968503937007874
          },
          {
            "duration": 0.22604166666667425,
            "durationTicks": 217,
            "midi": 68,
            "name": "G#4",
            "ticks": 358560,
            "time": 373.5,
            "velocity": 0.889763779527559
          },
          {
            "duration": 0.22604166666667425,
            "durationTicks": 217,
            "midi": 80,
            "name": "G#5",
            "ticks": 358560,
            "time": 373.5,
            "velocity": 0.889763779527559
          },
          {
            "duration": 0.22604166666667425,
            "durationTicks": 217,
            "midi": 68,
            "name": "G#4",
            "ticks": 358800,
            "time": 373.75,
            "velocity": 0.8818897637795275
          },
          {
            "duration": 0.22604166666667425,
            "durationTicks": 217,
            "midi": 80,
            "name": "G#5",
            "ticks": 358800,
            "time": 373.75,
            "velocity": 0.8818897637795275
          },
          {
            "duration": 0.22604166666667425,
            "durationTicks": 217,
            "midi": 65,
            "name": "F4",
            "ticks": 359040,
            "time": 374,
            "velocity": 0.8582677165354331
          },
          {
            "duration": 0.22604166666667425,
            "durationTicks": 217,
            "midi": 77,
            "name": "F5",
            "ticks": 359040,
            "time": 374,
            "velocity": 0.8582677165354331
          },
          {
            "duration": 0.22604166666667425,
            "durationTicks": 217,
            "midi": 68,
            "name": "G#4",
            "ticks": 359280,
            "time": 374.25,
            "velocity": 0.9212598425196851
          },
          {
            "duration": 0.22604166666667425,
            "durationTicks": 217,
            "midi": 80,
            "name": "G#5",
            "ticks": 359280,
            "time": 374.25,
            "velocity": 0.9212598425196851
          },
          {
            "duration": 0.22604166666667425,
            "durationTicks": 217,
            "midi": 68,
            "name": "G#4",
            "ticks": 359520,
            "time": 374.5,
            "velocity": 0.8976377952755905
          },
          {
            "duration": 0.22604166666667425,
            "durationTicks": 217,
            "midi": 80,
            "name": "G#5",
            "ticks": 359520,
            "time": 374.5,
            "velocity": 0.8976377952755905
          },
          {
            "duration": 0.22604166666667425,
            "durationTicks": 217,
            "midi": 68,
            "name": "G#4",
            "ticks": 359760,
            "time": 374.75,
            "velocity": 0.9133858267716536
          },
          {
            "duration": 0.22604166666667425,
            "durationTicks": 217,
            "midi": 80,
            "name": "G#5",
            "ticks": 359760,
            "time": 374.75,
            "velocity": 0.9133858267716536
          },
          {
            "duration": 0.22604166666667425,
            "durationTicks": 217,
            "midi": 65,
            "name": "F4",
            "ticks": 360000,
            "time": 375,
            "velocity": 0.7952755905511811
          },
          {
            "duration": 0.22604166666667425,
            "durationTicks": 217,
            "midi": 77,
            "name": "F5",
            "ticks": 360000,
            "time": 375,
            "velocity": 0.7952755905511811
          },
          {
            "duration": 0.22604166666667425,
            "durationTicks": 217,
            "midi": 67,
            "name": "G4",
            "ticks": 360240,
            "time": 375.25,
            "velocity": 0.952755905511811
          },
          {
            "duration": 0.22604166666667425,
            "durationTicks": 217,
            "midi": 79,
            "name": "G5",
            "ticks": 360240,
            "time": 375.25,
            "velocity": 0.952755905511811
          },
          {
            "duration": 0.22604166666667425,
            "durationTicks": 217,
            "midi": 67,
            "name": "G4",
            "ticks": 360480,
            "time": 375.5,
            "velocity": 0.905511811023622
          },
          {
            "duration": 0.22604166666667425,
            "durationTicks": 217,
            "midi": 79,
            "name": "G5",
            "ticks": 360480,
            "time": 375.5,
            "velocity": 0.905511811023622
          },
          {
            "duration": 0.22604166666667425,
            "durationTicks": 217,
            "midi": 67,
            "name": "G4",
            "ticks": 360720,
            "time": 375.75,
            "velocity": 0.889763779527559
          },
          {
            "duration": 0.22604166666667425,
            "durationTicks": 217,
            "midi": 79,
            "name": "G5",
            "ticks": 360720,
            "time": 375.75,
            "velocity": 0.889763779527559
          },
          {
            "duration": 1.5,
            "durationTicks": 1440,
            "midi": 63,
            "name": "D#4",
            "ticks": 360960,
            "time": 376,
            "velocity": 0.8031496062992126
          },
          {
            "duration": 1.5,
            "durationTicks": 1440,
            "midi": 75,
            "name": "D#5",
            "ticks": 360960,
            "time": 376,
            "velocity": 0.8031496062992126
          },
          {
            "duration": 0.22604166666667425,
            "durationTicks": 217,
            "midi": 65,
            "name": "F4",
            "ticks": 362640,
            "time": 377.75,
            "velocity": 0.8110236220472441
          },
          {
            "duration": 0.22604166666667425,
            "durationTicks": 217,
            "midi": 77,
            "name": "F5",
            "ticks": 362640,
            "time": 377.75,
            "velocity": 0.8110236220472441
          },
          {
            "duration": 0.22604166666667425,
            "durationTicks": 217,
            "midi": 65,
            "name": "F4",
            "ticks": 362880,
            "time": 378,
            "velocity": 0.889763779527559
          },
          {
            "duration": 0.22604166666667425,
            "durationTicks": 217,
            "midi": 77,
            "name": "F5",
            "ticks": 362880,
            "time": 378,
            "velocity": 0.889763779527559
          },
          {
            "duration": 0.22604166666667425,
            "durationTicks": 217,
            "midi": 65,
            "name": "F4",
            "ticks": 363120,
            "time": 378.25,
            "velocity": 0.8818897637795275
          },
          {
            "duration": 0.22604166666667425,
            "durationTicks": 217,
            "midi": 77,
            "name": "F5",
            "ticks": 363120,
            "time": 378.25,
            "velocity": 0.8818897637795275
          },
          {
            "duration": 2.5,
            "durationTicks": 2400,
            "midi": 62,
            "name": "D4",
            "ticks": 363360,
            "time": 378.5,
            "velocity": 0.8267716535433071
          },
          {
            "duration": 2.5,
            "durationTicks": 2400,
            "midi": 74,
            "name": "D5",
            "ticks": 363360,
            "time": 378.5,
            "velocity": 0.8267716535433071
          },
          {
            "duration": 1.8999999999999773,
            "durationTicks": 1824,
            "midi": 63,
            "name": "D#4",
            "ticks": 368640,
            "time": 384,
            "velocity": 0.3700787401574803
          },
          {
            "duration": 1.8999999999999773,
            "durationTicks": 1824,
            "midi": 67,
            "name": "G4",
            "ticks": 368640,
            "time": 384,
            "velocity": 0.3700787401574803
          },
          {
            "duration": 0.45104166666664014,
            "durationTicks": 433,
            "midi": 62,
            "name": "D4",
            "ticks": 370560,
            "time": 386,
            "velocity": 0.44881889763779526
          },
          {
            "duration": 0.45104166666664014,
            "durationTicks": 433,
            "midi": 67,
            "name": "G4",
            "ticks": 370560,
            "time": 386,
            "velocity": 0.44881889763779526
          },
          {
            "duration": 1.8999999999999773,
            "durationTicks": 1824,
            "midi": 62,
            "name": "D4",
            "ticks": 372480,
            "time": 388,
            "velocity": 0.44881889763779526
          },
          {
            "duration": 1.8999999999999773,
            "durationTicks": 1824,
            "midi": 67,
            "name": "G4",
            "ticks": 372480,
            "time": 388,
            "velocity": 0.44881889763779526
          },
          {
            "duration": 0.45104166666664014,
            "durationTicks": 433,
            "midi": 63,
            "name": "D#4",
            "ticks": 374400,
            "time": 390,
            "velocity": 0.4645669291338583
          },
          {
            "duration": 0.45104166666664014,
            "durationTicks": 433,
            "midi": 67,
            "name": "G4",
            "ticks": 374400,
            "time": 390,
            "velocity": 0.4645669291338583
          },
          {
            "duration": 0.8999999999999773,
            "durationTicks": 864,
            "midi": 60,
            "name": "C4",
            "ticks": 379200,
            "time": 395,
            "velocity": 0.5039370078740157
          },
          {
            "duration": 0.8999999999999773,
            "durationTicks": 864,
            "midi": 66,
            "name": "F#4",
            "ticks": 379200,
            "time": 395,
            "velocity": 0.5039370078740157
          },
          {
            "duration": 0.45104166666664014,
            "durationTicks": 433,
            "midi": 59,
            "name": "B3",
            "ticks": 380160,
            "time": 396,
            "velocity": 0.5433070866141733
          },
          {
            "duration": 0.45104166666664014,
            "durationTicks": 433,
            "midi": 67,
            "name": "G4",
            "ticks": 380160,
            "time": 396,
            "velocity": 0.5433070866141733
          },
          {
            "duration": 1.8999999999999773,
            "durationTicks": 1824,
            "midi": 71,
            "name": "B4",
            "ticks": 391200,
            "time": 407.5,
            "velocity": 0.4251968503937008
          },
          {
            "duration": 0.45104166666664014,
            "durationTicks": 433,
            "midi": 72,
            "name": "C5",
            "ticks": 393120,
            "time": 409.5,
            "velocity": 0.8110236220472441
          },
          {
            "duration": 0.45104166666664014,
            "durationTicks": 433,
            "midi": 65,
            "name": "F4",
            "ticks": 397920,
            "time": 414.5,
            "velocity": 0.7716535433070866
          },
          {
            "duration": 0.45104166666664014,
            "durationTicks": 433,
            "midi": 68,
            "name": "G#4",
            "ticks": 397920,
            "time": 414.5,
            "velocity": 0.7716535433070866
          },
          {
            "duration": 0.45104166666664014,
            "durationTicks": 433,
            "midi": 64,
            "name": "E4",
            "ticks": 398880,
            "time": 415.5,
            "velocity": 0.8346456692913385
          },
          {
            "duration": 0.45104166666664014,
            "durationTicks": 433,
            "midi": 67,
            "name": "G4",
            "ticks": 398880,
            "time": 415.5,
            "velocity": 0.8346456692913385
          },
          {
            "duration": 0.45104166666664014,
            "durationTicks": 433,
            "midi": 65,
            "name": "F4",
            "ticks": 399840,
            "time": 416.5,
            "velocity": 0.8110236220472441
          },
          {
            "duration": 0.45104166666664014,
            "durationTicks": 433,
            "midi": 68,
            "name": "G#4",
            "ticks": 399840,
            "time": 416.5,
            "velocity": 0.8110236220472441
          },
          {
            "duration": 0.45104166666664014,
            "durationTicks": 433,
            "midi": 67,
            "name": "G4",
            "ticks": 400800,
            "time": 417.5,
            "velocity": 0.7795275590551181
          },
          {
            "duration": 0.45104166666664014,
            "durationTicks": 433,
            "midi": 70,
            "name": "A#4",
            "ticks": 400800,
            "time": 417.5,
            "velocity": 0.7795275590551181
          },
          {
            "duration": 0.45104166666664014,
            "durationTicks": 433,
            "midi": 65,
            "name": "F4",
            "ticks": 401760,
            "time": 418.5,
            "velocity": 0.8031496062992126
          },
          {
            "duration": 0.45104166666664014,
            "durationTicks": 433,
            "midi": 68,
            "name": "G#4",
            "ticks": 401760,
            "time": 418.5,
            "velocity": 0.8031496062992126
          },
          {
            "duration": 0.45104166666664014,
            "durationTicks": 433,
            "midi": 62,
            "name": "D4",
            "ticks": 402720,
            "time": 419.5,
            "velocity": 0.7716535433070866
          },
          {
            "duration": 0.45104166666664014,
            "durationTicks": 433,
            "midi": 65,
            "name": "F4",
            "ticks": 402720,
            "time": 419.5,
            "velocity": 0.7716535433070866
          },
          {
            "duration": 3.8999999999999773,
            "durationTicks": 3744,
            "midi": 63,
            "name": "D#4",
            "ticks": 403680,
            "time": 420.5,
            "velocity": 0.6692913385826772
          },
          {
            "duration": 3.8999999999999773,
            "durationTicks": 3744,
            "midi": 67,
            "name": "G4",
            "ticks": 403680,
            "time": 420.5,
            "velocity": 0.6692913385826772
          },
          {
            "duration": 3.45104166666664,
            "durationTicks": 3313,
            "midi": 62,
            "name": "D4",
            "ticks": 407520,
            "time": 424.5,
            "velocity": 0.7165354330708661
          },
          {
            "duration": 3.45104166666664,
            "durationTicks": 3313,
            "midi": 65,
            "name": "F4",
            "ticks": 407520,
            "time": 424.5,
            "velocity": 0.7165354330708661
          },
          {
            "duration": 0.45104166666664014,
            "durationTicks": 433,
            "midi": 60,
            "name": "C4",
            "ticks": 410880,
            "time": 428,
            "velocity": 0.7322834645669292
          },
          {
            "duration": 0.45104166666664014,
            "durationTicks": 433,
            "midi": 63,
            "name": "D#4",
            "ticks": 410880,
            "time": 428,
            "velocity": 0.7322834645669292
          },
          {
            "duration": 3.8999999999999773,
            "durationTicks": 3744,
            "midi": 66,
            "name": "F#4",
            "ticks": 411360,
            "time": 428.5,
            "velocity": 1
          },
          {
            "duration": 3.8999999999999773,
            "durationTicks": 3744,
            "midi": 75,
            "name": "D#5",
            "ticks": 411360,
            "time": 428.5,
            "velocity": 1
          },
          {
            "duration": 0.45104166666664014,
            "durationTicks": 433,
            "midi": 69,
            "name": "A4",
            "ticks": 415200,
            "time": 432.5,
            "velocity": 0.8976377952755905
          },
          {
            "duration": 0.45104166666664014,
            "durationTicks": 433,
            "midi": 75,
            "name": "D#5",
            "ticks": 415200,
            "time": 432.5,
            "velocity": 0.8976377952755905
          },
          {
            "duration": 0.45104166666664014,
            "durationTicks": 433,
            "midi": 71,
            "name": "B4",
            "ticks": 417120,
            "time": 434.5,
            "velocity": 0.7874015748031497
          },
          {
            "duration": 0.45104166666664014,
            "durationTicks": 433,
            "midi": 74,
            "name": "D5",
            "ticks": 417120,
            "time": 434.5,
            "velocity": 0.7874015748031497
          },
          {
            "duration": 0.5093749999999773,
            "durationTicks": 489,
            "midi": 70,
            "name": "A#4",
            "ticks": 439200,
            "time": 457.5,
            "velocity": 0.4330708661417323
          },
          {
            "duration": 0.5093749999999773,
            "durationTicks": 489,
            "midi": 72,
            "name": "C5",
            "ticks": 439680,
            "time": 458,
            "velocity": 0.47244094488188976
          },
          {
            "duration": 0.5093749999999773,
            "durationTicks": 489,
            "midi": 70,
            "name": "A#4",
            "ticks": 440160,
            "time": 458.5,
            "velocity": 0.44881889763779526
          },
          {
            "duration": 0.47500000000002274,
            "durationTicks": 456,
            "midi": 69,
            "name": "A4",
            "ticks": 440640,
            "time": 459,
            "velocity": 0.4409448818897638
          },
          {
            "duration": 0.5093749999999773,
            "durationTicks": 489,
            "midi": 72,
            "name": "C5",
            "ticks": 443040,
            "time": 461.5,
            "velocity": 0.5196850393700787
          },
          {
            "duration": 0.5093749999999773,
            "durationTicks": 489,
            "midi": 74,
            "name": "D5",
            "ticks": 443520,
            "time": 462,
            "velocity": 0.5669291338582677
          },
          {
            "duration": 0.5093749999999773,
            "durationTicks": 489,
            "midi": 72,
            "name": "C5",
            "ticks": 444000,
            "time": 462.5,
            "velocity": 0.44881889763779526
          },
          {
            "duration": 0.47500000000002274,
            "durationTicks": 456,
            "midi": 71,
            "name": "B4",
            "ticks": 444480,
            "time": 463,
            "velocity": 0.4330708661417323
          },
          {
            "duration": 0.5093749999999773,
            "durationTicks": 489,
            "midi": 68,
            "name": "G#4",
            "ticks": 449760,
            "time": 468.5,
            "velocity": 0.5748031496062992
          },
          {
            "duration": 0.5093749999999773,
            "durationTicks": 489,
            "midi": 80,
            "name": "G#5",
            "ticks": 449760,
            "time": 468.5,
            "velocity": 0.5748031496062992
          },
          {
            "duration": 0.5093749999999773,
            "durationTicks": 489,
            "midi": 67,
            "name": "G4",
            "ticks": 450240,
            "time": 469,
            "velocity": 0.5669291338582677
          },
          {
            "duration": 0.5093749999999773,
            "durationTicks": 489,
            "midi": 79,
            "name": "G5",
            "ticks": 450240,
            "time": 469,
            "velocity": 0.5669291338582677
          },
          {
            "duration": 0.5093749999999773,
            "durationTicks": 489,
            "midi": 65,
            "name": "F4",
            "ticks": 450720,
            "time": 469.5,
            "velocity": 0.4566929133858268
          },
          {
            "duration": 0.5093749999999773,
            "durationTicks": 489,
            "midi": 77,
            "name": "F5",
            "ticks": 450720,
            "time": 469.5,
            "velocity": 0.4566929133858268
          },
          {
            "duration": 0.47500000000002274,
            "durationTicks": 456,
            "midi": 67,
            "name": "G4",
            "ticks": 451200,
            "time": 470,
            "velocity": 0.4566929133858268
          },
          {
            "duration": 0.47500000000002274,
            "durationTicks": 456,
            "midi": 79,
            "name": "G5",
            "ticks": 451200,
            "time": 470,
            "velocity": 0.4566929133858268
          },
          {
            "duration": 0.5093749999999773,
            "durationTicks": 489,
            "midi": 68,
            "name": "G#4",
            "ticks": 451680,
            "time": 470.5,
            "velocity": 0.5748031496062992
          },
          {
            "duration": 0.5093749999999773,
            "durationTicks": 489,
            "midi": 80,
            "name": "G#5",
            "ticks": 451680,
            "time": 470.5,
            "velocity": 0.5748031496062992
          },
          {
            "duration": 0.5093749999999773,
            "durationTicks": 489,
            "midi": 67,
            "name": "G4",
            "ticks": 452160,
            "time": 471,
            "velocity": 0.5669291338582677
          },
          {
            "duration": 0.5093749999999773,
            "durationTicks": 489,
            "midi": 79,
            "name": "G5",
            "ticks": 452160,
            "time": 471,
            "velocity": 0.5669291338582677
          },
          {
            "duration": 0.5093749999999773,
            "durationTicks": 489,
            "midi": 66,
            "name": "F#4",
            "ticks": 452640,
            "time": 471.5,
            "velocity": 0.5118110236220472
          },
          {
            "duration": 0.5093749999999773,
            "durationTicks": 489,
            "midi": 78,
            "name": "F#5",
            "ticks": 452640,
            "time": 471.5,
            "velocity": 0.5118110236220472
          },
          {
            "duration": 0.47500000000002274,
            "durationTicks": 456,
            "midi": 67,
            "name": "G4",
            "ticks": 453120,
            "time": 472,
            "velocity": 0.5118110236220472
          },
          {
            "duration": 0.47500000000002274,
            "durationTicks": 456,
            "midi": 79,
            "name": "G5",
            "ticks": 453120,
            "time": 472,
            "velocity": 0.5118110236220472
          },
          {
            "duration": 0.5093749999999773,
            "durationTicks": 489,
            "midi": 69,
            "name": "A4",
            "ticks": 453600,
            "time": 472.5,
            "velocity": 0.5984251968503937
          },
          {
            "duration": 0.5093749999999773,
            "durationTicks": 489,
            "midi": 81,
            "name": "A5",
            "ticks": 453600,
            "time": 472.5,
            "velocity": 0.5984251968503937
          },
          {
            "duration": 0.5093749999999773,
            "durationTicks": 489,
            "midi": 67,
            "name": "G4",
            "ticks": 454080,
            "time": 473,
            "velocity": 0.5511811023622047
          },
          {
            "duration": 0.5093749999999773,
            "durationTicks": 489,
            "midi": 79,
            "name": "G5",
            "ticks": 454080,
            "time": 473,
            "velocity": 0.5511811023622047
          },
          {
            "duration": 0.5093749999999773,
            "durationTicks": 489,
            "midi": 66,
            "name": "F#4",
            "ticks": 454560,
            "time": 473.5,
            "velocity": 0.5118110236220472
          },
          {
            "duration": 0.5093749999999773,
            "durationTicks": 489,
            "midi": 78,
            "name": "F#5",
            "ticks": 454560,
            "time": 473.5,
            "velocity": 0.5118110236220472
          },
          {
            "duration": 0.47500000000002274,
            "durationTicks": 456,
            "midi": 67,
            "name": "G4",
            "ticks": 455040,
            "time": 474,
            "velocity": 0.7165354330708661
          },
          {
            "duration": 0.47500000000002274,
            "durationTicks": 456,
            "midi": 79,
            "name": "G5",
            "ticks": 455040,
            "time": 474,
            "velocity": 0.7165354330708661
          },
          {
            "duration": 0.5093749999999773,
            "durationTicks": 489,
            "midi": 69,
            "name": "A4",
            "ticks": 455520,
            "time": 474.5,
            "velocity": 0.7244094488188977
          },
          {
            "duration": 0.5093749999999773,
            "durationTicks": 489,
            "midi": 81,
            "name": "A5",
            "ticks": 455520,
            "time": 474.5,
            "velocity": 0.7244094488188977
          },
          {
            "duration": 0.5093749999999773,
            "durationTicks": 489,
            "midi": 67,
            "name": "G4",
            "ticks": 456000,
            "time": 475,
            "velocity": 0.6929133858267716
          },
          {
            "duration": 0.5093749999999773,
            "durationTicks": 489,
            "midi": 79,
            "name": "G5",
            "ticks": 456000,
            "time": 475,
            "velocity": 0.6929133858267716
          },
          {
            "duration": 0.5093749999999773,
            "durationTicks": 489,
            "midi": 66,
            "name": "F#4",
            "ticks": 456480,
            "time": 475.5,
            "velocity": 0.6535433070866141
          },
          {
            "duration": 0.5093749999999773,
            "durationTicks": 489,
            "midi": 78,
            "name": "F#5",
            "ticks": 456480,
            "time": 475.5,
            "velocity": 0.6535433070866141
          },
          {
            "duration": 0.5093749999999773,
            "durationTicks": 489,
            "midi": 67,
            "name": "G4",
            "ticks": 456960,
            "time": 476,
            "velocity": 0.6850393700787402
          },
          {
            "duration": 0.5093749999999773,
            "durationTicks": 489,
            "midi": 79,
            "name": "G5",
            "ticks": 456960,
            "time": 476,
            "velocity": 0.6850393700787402
          },
          {
            "duration": 0.5093749999999773,
            "durationTicks": 489,
            "midi": 66,
            "name": "F#4",
            "ticks": 457440,
            "time": 476.5,
            "velocity": 0.6377952755905512
          },
          {
            "duration": 0.5093749999999773,
            "durationTicks": 489,
            "midi": 78,
            "name": "F#5",
            "ticks": 457440,
            "time": 476.5,
            "velocity": 0.6377952755905512
          },
          {
            "duration": 0.5093749999999773,
            "durationTicks": 489,
            "midi": 67,
            "name": "G4",
            "ticks": 457920,
            "time": 477,
            "velocity": 0.8031496062992126
          },
          {
            "duration": 0.5093749999999773,
            "durationTicks": 489,
            "midi": 79,
            "name": "G5",
            "ticks": 457920,
            "time": 477,
            "velocity": 0.8031496062992126
          },
          {
            "duration": 0.5093749999999773,
            "durationTicks": 489,
            "midi": 66,
            "name": "F#4",
            "ticks": 458400,
            "time": 477.5,
            "velocity": 0.7716535433070866
          },
          {
            "duration": 0.5093749999999773,
            "durationTicks": 489,
            "midi": 78,
            "name": "F#5",
            "ticks": 458400,
            "time": 477.5,
            "velocity": 0.7716535433070866
          },
          {
            "duration": 0.47500000000002274,
            "durationTicks": 456,
            "midi": 67,
            "name": "G4",
            "ticks": 458880,
            "time": 478,
            "velocity": 0.7874015748031497
          },
          {
            "duration": 0.47500000000002274,
            "durationTicks": 456,
            "midi": 79,
            "name": "G5",
            "ticks": 458880,
            "time": 478,
            "velocity": 0.7874015748031497
          },
          {
            "duration": 1.4510416666666401,
            "durationTicks": 1393,
            "midi": 77,
            "name": "F5",
            "ticks": 459360,
            "time": 478.5,
            "velocity": 0.8582677165354331
          },
          {
            "duration": 1.4510416666666401,
            "durationTicks": 1393,
            "midi": 79,
            "name": "G5",
            "ticks": 459360,
            "time": 478.5,
            "velocity": 0.8582677165354331
          },
          {
            "duration": 0.45104166666664014,
            "durationTicks": 433,
            "midi": 74,
            "name": "D5",
            "ticks": 460800,
            "time": 480,
            "velocity": 0.905511811023622
          },
          {
            "duration": 0.45104166666664014,
            "durationTicks": 433,
            "midi": 79,
            "name": "G5",
            "ticks": 460800,
            "time": 480,
            "velocity": 0.905511811023622
          },
          {
            "duration": 0.45104166666664014,
            "durationTicks": 433,
            "midi": 76,
            "name": "E5",
            "ticks": 461280,
            "time": 480.5,
            "velocity": 0.8976377952755905
          },
          {
            "duration": 0.45104166666664014,
            "durationTicks": 433,
            "midi": 79,
            "name": "G5",
            "ticks": 461280,
            "time": 480.5,
            "velocity": 0.8976377952755905
          },
          {
            "duration": 0.45104166666664014,
            "durationTicks": 433,
            "midi": 71,
            "name": "B4",
            "ticks": 462240,
            "time": 481.5,
            "velocity": 0.8267716535433071
          },
          {
            "duration": 0.45104166666664014,
            "durationTicks": 433,
            "midi": 77,
            "name": "F5",
            "ticks": 462240,
            "time": 481.5,
            "velocity": 0.8267716535433071
          },
          {
            "duration": 0.45104166666664014,
            "durationTicks": 433,
            "midi": 72,
            "name": "C5",
            "ticks": 463200,
            "time": 482.5,
            "velocity": 0.7559055118110236
          },
          {
            "duration": 0.45104166666664014,
            "durationTicks": 433,
            "midi": 76,
            "name": "E5",
            "ticks": 463200,
            "time": 482.5,
            "velocity": 0.7559055118110236
          },
          {
            "duration": 0.45104166666664014,
            "durationTicks": 433,
            "midi": 72,
            "name": "C5",
            "ticks": 464160,
            "time": 483.5,
            "velocity": 0.7716535433070866
          },
          {
            "duration": 0.45104166666664014,
            "durationTicks": 433,
            "midi": 74,
            "name": "D5",
            "ticks": 464160,
            "time": 483.5,
            "velocity": 0.7716535433070866
          },
          {
            "duration": 0.45104166666664014,
            "durationTicks": 433,
            "midi": 72,
            "name": "C5",
            "ticks": 465120,
            "time": 484.5,
            "velocity": 0.8031496062992126
          },
          {
            "duration": 0.45104166666664014,
            "durationTicks": 433,
            "midi": 76,
            "name": "E5",
            "ticks": 465120,
            "time": 484.5,
            "velocity": 0.8031496062992126
          },
          {
            "duration": 0.45104166666664014,
            "durationTicks": 433,
            "midi": 71,
            "name": "B4",
            "ticks": 466080,
            "time": 485.5,
            "velocity": 0.8110236220472441
          },
          {
            "duration": 0.45104166666664014,
            "durationTicks": 433,
            "midi": 74,
            "name": "D5",
            "ticks": 466080,
            "time": 485.5,
            "velocity": 0.8110236220472441
          },
          {
            "duration": 1.8999999999999773,
            "durationTicks": 1824,
            "midi": 74,
            "name": "D5",
            "ticks": 467040,
            "time": 486.5,
            "velocity": 0.8031496062992126
          },
          {
            "duration": 1.8999999999999773,
            "durationTicks": 1824,
            "midi": 77,
            "name": "F5",
            "ticks": 467040,
            "time": 486.5,
            "velocity": 0.8031496062992126
          },
          {
            "duration": 0.45104166666664014,
            "durationTicks": 433,
            "midi": 72,
            "name": "C5",
            "ticks": 468960,
            "time": 488.5,
            "velocity": 0.8346456692913385
          },
          {
            "duration": 0.45104166666664014,
            "durationTicks": 433,
            "midi": 76,
            "name": "E5",
            "ticks": 468960,
            "time": 488.5,
            "velocity": 0.8346456692913385
          },
          {
            "duration": 0.45104166666664014,
            "durationTicks": 433,
            "midi": 72,
            "name": "C5",
            "ticks": 469440,
            "time": 489,
            "velocity": 0.8976377952755905
          },
          {
            "duration": 0.45104166666664014,
            "durationTicks": 433,
            "midi": 76,
            "name": "E5",
            "ticks": 469440,
            "time": 489,
            "velocity": 0.8976377952755905
          },
          {
            "duration": 0.45104166666664014,
            "durationTicks": 433,
            "midi": 71,
            "name": "B4",
            "ticks": 470400,
            "time": 490,
            "velocity": 0.8110236220472441
          },
          {
            "duration": 0.45104166666664014,
            "durationTicks": 433,
            "midi": 74,
            "name": "D5",
            "ticks": 470400,
            "time": 490,
            "velocity": 0.8110236220472441
          },
          {
            "duration": 0.45104166666664014,
            "durationTicks": 433,
            "midi": 72,
            "name": "C5",
            "ticks": 471360,
            "time": 491,
            "velocity": 0.8110236220472441
          },
          {
            "duration": 0.45104166666664014,
            "durationTicks": 433,
            "midi": 76,
            "name": "E5",
            "ticks": 471360,
            "time": 491,
            "velocity": 0.8110236220472441
          },
          {
            "duration": 0.45104166666664014,
            "durationTicks": 433,
            "midi": 72,
            "name": "C5",
            "ticks": 472320,
            "time": 492,
            "velocity": 0.8031496062992126
          },
          {
            "duration": 0.45104166666664014,
            "durationTicks": 433,
            "midi": 74,
            "name": "D5",
            "ticks": 472320,
            "time": 492,
            "velocity": 0.8031496062992126
          },
          {
            "duration": 0.45104166666664014,
            "durationTicks": 433,
            "midi": 72,
            "name": "C5",
            "ticks": 473280,
            "time": 493,
            "velocity": 0.7874015748031497
          },
          {
            "duration": 0.45104166666664014,
            "durationTicks": 433,
            "midi": 76,
            "name": "E5",
            "ticks": 473280,
            "time": 493,
            "velocity": 0.7874015748031497
          },
          {
            "duration": 0.45104166666664014,
            "durationTicks": 433,
            "midi": 71,
            "name": "B4",
            "ticks": 474240,
            "time": 494,
            "velocity": 0.7716535433070866
          },
          {
            "duration": 0.45104166666664014,
            "durationTicks": 433,
            "midi": 74,
            "name": "D5",
            "ticks": 474240,
            "time": 494,
            "velocity": 0.7716535433070866
          },
          {
            "duration": 0.22604166666667425,
            "durationTicks": 217,
            "midi": 64,
            "name": "E4",
            "ticks": 474720,
            "time": 494.5,
            "velocity": 0.7874015748031497
          },
          {
            "duration": 0.22604166666667425,
            "durationTicks": 217,
            "midi": 72,
            "name": "C5",
            "ticks": 474720,
            "time": 494.5,
            "velocity": 0.7874015748031497
          },
          {
            "duration": 0.22604166666667425,
            "durationTicks": 217,
            "midi": 64,
            "name": "E4",
            "ticks": 474960,
            "time": 494.75,
            "velocity": 0.968503937007874
          },
          {
            "duration": 0.22604166666667425,
            "durationTicks": 217,
            "midi": 76,
            "name": "E5",
            "ticks": 474960,
            "time": 494.75,
            "velocity": 0.968503937007874
          },
          {
            "duration": 0.22604166666667425,
            "durationTicks": 217,
            "midi": 64,
            "name": "E4",
            "ticks": 475200,
            "time": 495,
            "velocity": 0.905511811023622
          },
          {
            "duration": 0.22604166666667425,
            "durationTicks": 217,
            "midi": 76,
            "name": "E5",
            "ticks": 475200,
            "time": 495,
            "velocity": 0.905511811023622
          },
          {
            "duration": 0.22604166666667425,
            "durationTicks": 217,
            "midi": 64,
            "name": "E4",
            "ticks": 475440,
            "time": 495.25,
            "velocity": 0.8976377952755905
          },
          {
            "duration": 0.22604166666667425,
            "durationTicks": 217,
            "midi": 76,
            "name": "E5",
            "ticks": 475440,
            "time": 495.25,
            "velocity": 0.8976377952755905
          },
          {
            "duration": 0.22604166666667425,
            "durationTicks": 217,
            "midi": 60,
            "name": "C4",
            "ticks": 475680,
            "time": 495.5,
            "velocity": 0.7795275590551181
          },
          {
            "duration": 0.22604166666667425,
            "durationTicks": 217,
            "midi": 72,
            "name": "C5",
            "ticks": 475680,
            "time": 495.5,
            "velocity": 0.7795275590551181
          },
          {
            "duration": 0.22604166666667425,
            "durationTicks": 217,
            "midi": 67,
            "name": "G4",
            "ticks": 475920,
            "time": 495.75,
            "velocity": 1
          },
          {
            "duration": 0.22604166666667425,
            "durationTicks": 217,
            "midi": 79,
            "name": "G5",
            "ticks": 475920,
            "time": 495.75,
            "velocity": 1
          },
          {
            "duration": 0.22604166666667425,
            "durationTicks": 217,
            "midi": 67,
            "name": "G4",
            "ticks": 476160,
            "time": 496,
            "velocity": 0.905511811023622
          },
          {
            "duration": 0.22604166666667425,
            "durationTicks": 217,
            "midi": 79,
            "name": "G5",
            "ticks": 476160,
            "time": 496,
            "velocity": 0.905511811023622
          },
          {
            "duration": 0.22604166666667425,
            "durationTicks": 217,
            "midi": 67,
            "name": "G4",
            "ticks": 476400,
            "time": 496.25,
            "velocity": 0.8661417322834646
          },
          {
            "duration": 0.22604166666667425,
            "durationTicks": 217,
            "midi": 79,
            "name": "G5",
            "ticks": 476400,
            "time": 496.25,
            "velocity": 0.8661417322834646
          },
          {
            "duration": 0.22604166666667425,
            "durationTicks": 217,
            "midi": 64,
            "name": "E4",
            "ticks": 476640,
            "time": 496.5,
            "velocity": 0.8110236220472441
          },
          {
            "duration": 0.22604166666667425,
            "durationTicks": 217,
            "midi": 76,
            "name": "E5",
            "ticks": 476640,
            "time": 496.5,
            "velocity": 0.8110236220472441
          },
          {
            "duration": 0.22604166666667425,
            "durationTicks": 217,
            "midi": 60,
            "name": "C4",
            "ticks": 476880,
            "time": 496.75,
            "velocity": 0.7874015748031497
          },
          {
            "duration": 0.22604166666667425,
            "durationTicks": 217,
            "midi": 72,
            "name": "C5",
            "ticks": 476880,
            "time": 496.75,
            "velocity": 0.7874015748031497
          },
          {
            "duration": 0.22604166666667425,
            "durationTicks": 217,
            "midi": 60,
            "name": "C4",
            "ticks": 477120,
            "time": 497,
            "velocity": 0.8661417322834646
          },
          {
            "duration": 0.22604166666667425,
            "durationTicks": 217,
            "midi": 72,
            "name": "C5",
            "ticks": 477120,
            "time": 497,
            "velocity": 0.8661417322834646
          },
          {
            "duration": 0.22604166666667425,
            "durationTicks": 217,
            "midi": 60,
            "name": "C4",
            "ticks": 477360,
            "time": 497.25,
            "velocity": 0.8503937007874016
          },
          {
            "duration": 0.22604166666667425,
            "durationTicks": 217,
            "midi": 72,
            "name": "C5",
            "ticks": 477360,
            "time": 497.25,
            "velocity": 0.8503937007874016
          },
          {
            "duration": 1.2260416666666742,
            "durationTicks": 1177,
            "midi": 55,
            "name": "G3",
            "ticks": 477600,
            "time": 497.5,
            "velocity": 0.7559055118110236
          },
          {
            "duration": 1.2260416666666742,
            "durationTicks": 1177,
            "midi": 67,
            "name": "G4",
            "ticks": 477600,
            "time": 497.5,
            "velocity": 0.7559055118110236
          },
          {
            "duration": 0.22604166666667425,
            "durationTicks": 217,
            "midi": 64,
            "name": "E4",
            "ticks": 478800,
            "time": 498.75,
            "velocity": 1
          },
          {
            "duration": 0.22604166666667425,
            "durationTicks": 217,
            "midi": 76,
            "name": "E5",
            "ticks": 478800,
            "time": 498.75,
            "velocity": 1
          },
          {
            "duration": 0.22604166666667425,
            "durationTicks": 217,
            "midi": 64,
            "name": "E4",
            "ticks": 479040,
            "time": 499,
            "velocity": 0.8740157480314961
          },
          {
            "duration": 0.22604166666667425,
            "durationTicks": 217,
            "midi": 76,
            "name": "E5",
            "ticks": 479040,
            "time": 499,
            "velocity": 0.8740157480314961
          },
          {
            "duration": 0.22604166666667425,
            "durationTicks": 217,
            "midi": 64,
            "name": "E4",
            "ticks": 479280,
            "time": 499.25,
            "velocity": 0.8740157480314961
          },
          {
            "duration": 0.22604166666667425,
            "durationTicks": 217,
            "midi": 76,
            "name": "E5",
            "ticks": 479280,
            "time": 499.25,
            "velocity": 0.8740157480314961
          },
          {
            "duration": 0.22604166666667425,
            "durationTicks": 217,
            "midi": 60,
            "name": "C4",
            "ticks": 479520,
            "time": 499.5,
            "velocity": 0.7874015748031497
          },
          {
            "duration": 0.22604166666667425,
            "durationTicks": 217,
            "midi": 72,
            "name": "C5",
            "ticks": 479520,
            "time": 499.5,
            "velocity": 0.7874015748031497
          },
          {
            "duration": 0.22604166666667425,
            "durationTicks": 217,
            "midi": 67,
            "name": "G4",
            "ticks": 479760,
            "time": 499.75,
            "velocity": 1
          },
          {
            "duration": 0.22604166666667425,
            "durationTicks": 217,
            "midi": 79,
            "name": "G5",
            "ticks": 479760,
            "time": 499.75,
            "velocity": 1
          },
          {
            "duration": 0.22604166666667425,
            "durationTicks": 217,
            "midi": 67,
            "name": "G4",
            "ticks": 480000,
            "time": 500,
            "velocity": 0.937007874015748
          },
          {
            "duration": 0.22604166666667425,
            "durationTicks": 217,
            "midi": 79,
            "name": "G5",
            "ticks": 480000,
            "time": 500,
            "velocity": 0.937007874015748
          },
          {
            "duration": 0.22604166666667425,
            "durationTicks": 217,
            "midi": 67,
            "name": "G4",
            "ticks": 480240,
            "time": 500.25,
            "velocity": 0.8976377952755905
          },
          {
            "duration": 0.22604166666667425,
            "durationTicks": 217,
            "midi": 79,
            "name": "G5",
            "ticks": 480240,
            "time": 500.25,
            "velocity": 0.8976377952755905
          },
          {
            "duration": 0.22604166666667425,
            "durationTicks": 217,
            "midi": 64,
            "name": "E4",
            "ticks": 480480,
            "time": 500.5,
            "velocity": 0.8188976377952756
          },
          {
            "duration": 0.22604166666667425,
            "durationTicks": 217,
            "midi": 76,
            "name": "E5",
            "ticks": 480480,
            "time": 500.5,
            "velocity": 0.8188976377952756
          },
          {
            "duration": 0.22604166666667425,
            "durationTicks": 217,
            "midi": 60,
            "name": "C4",
            "ticks": 480720,
            "time": 500.75,
            "velocity": 0.7874015748031497
          },
          {
            "duration": 0.22604166666667425,
            "durationTicks": 217,
            "midi": 72,
            "name": "C5",
            "ticks": 480720,
            "time": 500.75,
            "velocity": 0.7874015748031497
          },
          {
            "duration": 0.22604166666667425,
            "durationTicks": 217,
            "midi": 60,
            "name": "C4",
            "ticks": 480960,
            "time": 501,
            "velocity": 0.8503937007874016
          },
          {
            "duration": 0.22604166666667425,
            "durationTicks": 217,
            "midi": 72,
            "name": "C5",
            "ticks": 480960,
            "time": 501,
            "velocity": 0.8503937007874016
          },
          {
            "duration": 0.22604166666667425,
            "durationTicks": 217,
            "midi": 60,
            "name": "C4",
            "ticks": 481200,
            "time": 501.25,
            "velocity": 0.8976377952755905
          },
          {
            "duration": 0.22604166666667425,
            "durationTicks": 217,
            "midi": 72,
            "name": "C5",
            "ticks": 481200,
            "time": 501.25,
            "velocity": 0.8976377952755905
          },
          {
            "duration": 0.22604166666667425,
            "durationTicks": 217,
            "midi": 55,
            "name": "G3",
            "ticks": 481440,
            "time": 501.5,
            "velocity": 0.7637795275590551
          },
          {
            "duration": 0.22604166666667425,
            "durationTicks": 217,
            "midi": 67,
            "name": "G4",
            "ticks": 481440,
            "time": 501.5,
            "velocity": 0.7637795275590551
          },
          {
            "duration": 0.22604166666667425,
            "durationTicks": 217,
            "midi": 67,
            "name": "G4",
            "ticks": 481680,
            "time": 501.75,
            "velocity": 0.9606299212598425
          },
          {
            "duration": 0.22604166666667425,
            "durationTicks": 217,
            "midi": 71,
            "name": "B4",
            "ticks": 481680,
            "time": 501.75,
            "velocity": 0.9606299212598425
          },
          {
            "duration": 0.22604166666667425,
            "durationTicks": 217,
            "midi": 67,
            "name": "G4",
            "ticks": 481920,
            "time": 502,
            "velocity": 0.905511811023622
          },
          {
            "duration": 0.22604166666667425,
            "durationTicks": 217,
            "midi": 71,
            "name": "B4",
            "ticks": 481920,
            "time": 502,
            "velocity": 0.905511811023622
          },
          {
            "duration": 0.22604166666667425,
            "durationTicks": 217,
            "midi": 67,
            "name": "G4",
            "ticks": 482160,
            "time": 502.25,
            "velocity": 0.889763779527559
          },
          {
            "duration": 0.22604166666667425,
            "durationTicks": 217,
            "midi": 71,
            "name": "B4",
            "ticks": 482160,
            "time": 502.25,
            "velocity": 0.889763779527559
          },
          {
            "duration": 0.45104166666664014,
            "durationTicks": 433,
            "midi": 67,
            "name": "G4",
            "ticks": 482400,
            "time": 502.5,
            "velocity": 0.937007874015748
          },
          {
            "duration": 0.45104166666664014,
            "durationTicks": 433,
            "midi": 72,
            "name": "C5",
            "ticks": 482400,
            "time": 502.5,
            "velocity": 0.937007874015748
          },
          {
            "duration": 0.22604166666667425,
            "durationTicks": 217,
            "midi": 67,
            "name": "G4",
            "ticks": 483600,
            "time": 503.75,
            "velocity": 0.8267716535433071
          },
          {
            "duration": 0.22604166666667425,
            "durationTicks": 217,
            "midi": 71,
            "name": "B4",
            "ticks": 483600,
            "time": 503.75,
            "velocity": 0.8267716535433071
          },
          {
            "duration": 0.22604166666667425,
            "durationTicks": 217,
            "midi": 67,
            "name": "G4",
            "ticks": 483840,
            "time": 504,
            "velocity": 0.8582677165354331
          },
          {
            "duration": 0.22604166666667425,
            "durationTicks": 217,
            "midi": 71,
            "name": "B4",
            "ticks": 483840,
            "time": 504,
            "velocity": 0.8582677165354331
          },
          {
            "duration": 0.22604166666667425,
            "durationTicks": 217,
            "midi": 67,
            "name": "G4",
            "ticks": 484080,
            "time": 504.25,
            "velocity": 0.8740157480314961
          },
          {
            "duration": 0.22604166666667425,
            "durationTicks": 217,
            "midi": 71,
            "name": "B4",
            "ticks": 484080,
            "time": 504.25,
            "velocity": 0.8740157480314961
          },
          {
            "duration": 0.45104166666664014,
            "durationTicks": 433,
            "midi": 67,
            "name": "G4",
            "ticks": 484320,
            "time": 504.5,
            "velocity": 0.9212598425196851
          },
          {
            "duration": 0.45104166666664014,
            "durationTicks": 433,
            "midi": 72,
            "name": "C5",
            "ticks": 484320,
            "time": 504.5,
            "velocity": 0.9212598425196851
          },
          {
            "duration": 0.22604166666667425,
            "durationTicks": 217,
            "midi": 71,
            "name": "B4",
            "ticks": 485520,
            "time": 505.75,
            "velocity": 0.8031496062992126
          },
          {
            "duration": 0.22604166666667425,
            "durationTicks": 217,
            "midi": 74,
            "name": "D5",
            "ticks": 485520,
            "time": 505.75,
            "velocity": 0.8031496062992126
          },
          {
            "duration": 0.22604166666667425,
            "durationTicks": 217,
            "midi": 71,
            "name": "B4",
            "ticks": 485760,
            "time": 506,
            "velocity": 0.9133858267716536
          },
          {
            "duration": 0.22604166666667425,
            "durationTicks": 217,
            "midi": 74,
            "name": "D5",
            "ticks": 485760,
            "time": 506,
            "velocity": 0.9133858267716536
          },
          {
            "duration": 0.22604166666667425,
            "durationTicks": 217,
            "midi": 71,
            "name": "B4",
            "ticks": 486000,
            "time": 506.25,
            "velocity": 0.8740157480314961
          },
          {
            "duration": 0.22604166666667425,
            "durationTicks": 217,
            "midi": 74,
            "name": "D5",
            "ticks": 486000,
            "time": 506.25,
            "velocity": 0.8740157480314961
          },
          {
            "duration": 0.22604166666667425,
            "durationTicks": 217,
            "midi": 72,
            "name": "C5",
            "ticks": 486240,
            "time": 506.5,
            "velocity": 0.9212598425196851
          },
          {
            "duration": 0.22604166666667425,
            "durationTicks": 217,
            "midi": 76,
            "name": "E5",
            "ticks": 486240,
            "time": 506.5,
            "velocity": 0.9212598425196851
          },
          {
            "duration": 0.22604166666667425,
            "durationTicks": 217,
            "midi": 60,
            "name": "C4",
            "ticks": 486480,
            "time": 506.75,
            "velocity": 0.7559055118110236
          },
          {
            "duration": 0.22604166666667425,
            "durationTicks": 217,
            "midi": 72,
            "name": "C5",
            "ticks": 486480,
            "time": 506.75,
            "velocity": 0.7559055118110236
          },
          {
            "duration": 0.22604166666667425,
            "durationTicks": 217,
            "midi": 60,
            "name": "C4",
            "ticks": 486720,
            "time": 507,
            "velocity": 0.8503937007874016
          },
          {
            "duration": 0.22604166666667425,
            "durationTicks": 217,
            "midi": 72,
            "name": "C5",
            "ticks": 486720,
            "time": 507,
            "velocity": 0.8503937007874016
          },
          {
            "duration": 0.22604166666667425,
            "durationTicks": 217,
            "midi": 60,
            "name": "C4",
            "ticks": 486960,
            "time": 507.25,
            "velocity": 0.8818897637795275
          },
          {
            "duration": 0.22604166666667425,
            "durationTicks": 217,
            "midi": 72,
            "name": "C5",
            "ticks": 486960,
            "time": 507.25,
            "velocity": 0.8818897637795275
          },
          {
            "duration": 1.2260416666666742,
            "durationTicks": 1177,
            "midi": 60,
            "name": "C4",
            "ticks": 487200,
            "time": 507.5,
            "velocity": 0.905511811023622
          },
          {
            "duration": 1.2260416666666742,
            "durationTicks": 1177,
            "midi": 72,
            "name": "C5",
            "ticks": 487200,
            "time": 507.5,
            "velocity": 0.905511811023622
          },
          {
            "duration": 0.22604166666667425,
            "durationTicks": 217,
            "midi": 60,
            "name": "C4",
            "ticks": 488400,
            "time": 508.75,
            "velocity": 0.889763779527559
          },
          {
            "duration": 0.22604166666667425,
            "durationTicks": 217,
            "midi": 72,
            "name": "C5",
            "ticks": 488400,
            "time": 508.75,
            "velocity": 0.889763779527559
          },
          {
            "duration": 0.22604166666667425,
            "durationTicks": 217,
            "midi": 60,
            "name": "C4",
            "ticks": 488640,
            "time": 509,
            "velocity": 0.889763779527559
          },
          {
            "duration": 0.22604166666667425,
            "durationTicks": 217,
            "midi": 72,
            "name": "C5",
            "ticks": 488640,
            "time": 509,
            "velocity": 0.889763779527559
          },
          {
            "duration": 0.22604166666667425,
            "durationTicks": 217,
            "midi": 60,
            "name": "C4",
            "ticks": 488880,
            "time": 509.25,
            "velocity": 0.8818897637795275
          },
          {
            "duration": 0.22604166666667425,
            "durationTicks": 217,
            "midi": 72,
            "name": "C5",
            "ticks": 488880,
            "time": 509.25,
            "velocity": 0.8818897637795275
          },
          {
            "duration": 1.2260416666666742,
            "durationTicks": 1177,
            "midi": 60,
            "name": "C4",
            "ticks": 489120,
            "time": 509.5,
            "velocity": 0.8582677165354331
          },
          {
            "duration": 1.2260416666666742,
            "durationTicks": 1177,
            "midi": 72,
            "name": "C5",
            "ticks": 489120,
            "time": 509.5,
            "velocity": 0.8582677165354331
          },
          {
            "duration": 0.22604166666667425,
            "durationTicks": 217,
            "midi": 60,
            "name": "C4",
            "ticks": 490320,
            "time": 510.75,
            "velocity": 0.889763779527559
          },
          {
            "duration": 0.22604166666667425,
            "durationTicks": 217,
            "midi": 72,
            "name": "C5",
            "ticks": 490320,
            "time": 510.75,
            "velocity": 0.889763779527559
          },
          {
            "duration": 0.22604166666667425,
            "durationTicks": 217,
            "midi": 60,
            "name": "C4",
            "ticks": 490560,
            "time": 511,
            "velocity": 0.9133858267716536
          },
          {
            "duration": 0.22604166666667425,
            "durationTicks": 217,
            "midi": 72,
            "name": "C5",
            "ticks": 490560,
            "time": 511,
            "velocity": 0.9133858267716536
          },
          {
            "duration": 0.22604166666667425,
            "durationTicks": 217,
            "midi": 60,
            "name": "C4",
            "ticks": 490800,
            "time": 511.25,
            "velocity": 0.8976377952755905
          },
          {
            "duration": 0.22604166666667425,
            "durationTicks": 217,
            "midi": 72,
            "name": "C5",
            "ticks": 490800,
            "time": 511.25,
            "velocity": 0.8976377952755905
          },
          {
            "duration": 1.2260416666666742,
            "durationTicks": 1177,
            "midi": 60,
            "name": "C4",
            "ticks": 491040,
            "time": 511.5,
            "velocity": 0.8976377952755905
          },
          {
            "duration": 1.2260416666666742,
            "durationTicks": 1177,
            "midi": 72,
            "name": "C5",
            "ticks": 491040,
            "time": 511.5,
            "velocity": 0.8976377952755905
          },
          {
            "duration": 0.22604166666667425,
            "durationTicks": 217,
            "midi": 60,
            "name": "C4",
            "ticks": 492240,
            "time": 512.75,
            "velocity": 0.8976377952755905
          },
          {
            "duration": 0.22604166666667425,
            "durationTicks": 217,
            "midi": 72,
            "name": "C5",
            "ticks": 492240,
            "time": 512.75,
            "velocity": 0.8976377952755905
          },
          {
            "duration": 0.22604166666667425,
            "durationTicks": 217,
            "midi": 60,
            "name": "C4",
            "ticks": 492480,
            "time": 513,
            "velocity": 0.8818897637795275
          },
          {
            "duration": 0.22604166666667425,
            "durationTicks": 217,
            "midi": 72,
            "name": "C5",
            "ticks": 492480,
            "time": 513,
            "velocity": 0.8818897637795275
          },
          {
            "duration": 0.22604166666667425,
            "durationTicks": 217,
            "midi": 60,
            "name": "C4",
            "ticks": 492720,
            "time": 513.25,
            "velocity": 0.8582677165354331
          },
          {
            "duration": 0.22604166666667425,
            "durationTicks": 217,
            "midi": 72,
            "name": "C5",
            "ticks": 492720,
            "time": 513.25,
            "velocity": 0.8582677165354331
          },
          {
            "duration": 0.8999999999999773,
            "durationTicks": 864,
            "midi": 60,
            "name": "C4",
            "ticks": 492960,
            "time": 513.5,
            "velocity": 0.9291338582677166
          },
          {
            "duration": 0.8999999999999773,
            "durationTicks": 864,
            "midi": 72,
            "name": "C5",
            "ticks": 492960,
            "time": 513.5,
            "velocity": 0.9291338582677166
          },
          {
            "duration": 3.8999999999999773,
            "durationTicks": 3744,
            "midi": 68,
            "name": "G#4",
            "ticks": 493920,
            "time": 514.5,
            "velocity": 0.952755905511811
          },
          {
            "duration": 3.8999999999999773,
            "durationTicks": 3744,
            "midi": 73,
            "name": "C#5",
            "ticks": 493920,
            "time": 514.5,
            "velocity": 0.952755905511811
          },
          {
            "duration": 0.451041666666697,
            "durationTicks": 433,
            "midi": 68,
            "name": "G#4",
            "ticks": 497760,
            "time": 518.5,
            "velocity": 0.905511811023622
          },
          {
            "duration": 0.451041666666697,
            "durationTicks": 433,
            "midi": 73,
            "name": "C#5",
            "ticks": 497760,
            "time": 518.5,
            "velocity": 0.905511811023622
          },
          {
            "duration": 0.22604166666667425,
            "durationTicks": 217,
            "midi": 65,
            "name": "F4",
            "ticks": 498960,
            "time": 519.75,
            "velocity": 0.3937007874015748
          },
          {
            "duration": 0.22604166666667425,
            "durationTicks": 217,
            "midi": 65,
            "name": "F4",
            "ticks": 499200,
            "time": 520,
            "velocity": 0.4330708661417323
          },
          {
            "duration": 0.22604166666667425,
            "durationTicks": 217,
            "midi": 65,
            "name": "F4",
            "ticks": 499440,
            "time": 520.25,
            "velocity": 0.5039370078740157
          },
          {
            "duration": 0.451041666666697,
            "durationTicks": 433,
            "midi": 68,
            "name": "G#4",
            "ticks": 499680,
            "time": 520.5,
            "velocity": 0.5354330708661418
          },
          {
            "duration": 0.22604166666667425,
            "durationTicks": 217,
            "midi": 69,
            "name": "A4",
            "ticks": 501840,
            "time": 522.75,
            "velocity": 0.8346456692913385
          },
          {
            "duration": 0.22604166666667425,
            "durationTicks": 217,
            "midi": 72,
            "name": "C5",
            "ticks": 501840,
            "time": 522.75,
            "velocity": 0.8346456692913385
          },
          {
            "duration": 0.22604166666667425,
            "durationTicks": 217,
            "midi": 69,
            "name": "A4",
            "ticks": 502080,
            "time": 523,
            "velocity": 0.8582677165354331
          },
          {
            "duration": 0.22604166666667425,
            "durationTicks": 217,
            "midi": 72,
            "name": "C5",
            "ticks": 502080,
            "time": 523,
            "velocity": 0.8582677165354331
          },
          {
            "duration": 0.22604166666667425,
            "durationTicks": 217,
            "midi": 69,
            "name": "A4",
            "ticks": 502320,
            "time": 523.25,
            "velocity": 0.9212598425196851
          },
          {
            "duration": 0.22604166666667425,
            "durationTicks": 217,
            "midi": 72,
            "name": "C5",
            "ticks": 502320,
            "time": 523.25,
            "velocity": 0.9212598425196851
          },
          {
            "duration": 3.8999999999999773,
            "durationTicks": 3744,
            "midi": 69,
            "name": "A4",
            "ticks": 502560,
            "time": 523.5,
            "velocity": 0.9133858267716536
          },
          {
            "duration": 3.8999999999999773,
            "durationTicks": 3744,
            "midi": 72,
            "name": "C5",
            "ticks": 502560,
            "time": 523.5,
            "velocity": 0.9133858267716536
          },
          {
            "duration": 0.451041666666697,
            "durationTicks": 433,
            "midi": 69,
            "name": "A4",
            "ticks": 506400,
            "time": 527.5,
            "velocity": 0.8503937007874016
          },
          {
            "duration": 0.451041666666697,
            "durationTicks": 433,
            "midi": 72,
            "name": "C5",
            "ticks": 506400,
            "time": 527.5,
            "velocity": 0.8503937007874016
          },
          {
            "duration": 0.22604166666667425,
            "durationTicks": 217,
            "midi": 60,
            "name": "C4",
            "ticks": 507600,
            "time": 528.75,
            "velocity": 0.7952755905511811
          },
          {
            "duration": 0.22604166666667425,
            "durationTicks": 217,
            "midi": 72,
            "name": "C5",
            "ticks": 507600,
            "time": 528.75,
            "velocity": 0.7952755905511811
          },
          {
            "duration": 0.22604166666667425,
            "durationTicks": 217,
            "midi": 60,
            "name": "C4",
            "ticks": 507840,
            "time": 529,
            "velocity": 0.8740157480314961
          },
          {
            "duration": 0.22604166666667425,
            "durationTicks": 217,
            "midi": 72,
            "name": "C5",
            "ticks": 507840,
            "time": 529,
            "velocity": 0.8740157480314961
          },
          {
            "duration": 0.22604166666667425,
            "durationTicks": 217,
            "midi": 60,
            "name": "C4",
            "ticks": 508080,
            "time": 529.25,
            "velocity": 0.8976377952755905
          },
          {
            "duration": 0.22604166666667425,
            "durationTicks": 217,
            "midi": 72,
            "name": "C5",
            "ticks": 508080,
            "time": 529.25,
            "velocity": 0.8976377952755905
          },
          {
            "duration": 0.451041666666697,
            "durationTicks": 433,
            "midi": 63,
            "name": "D#4",
            "ticks": 508320,
            "time": 529.5,
            "velocity": 0.984251968503937
          },
          {
            "duration": 0.451041666666697,
            "durationTicks": 433,
            "midi": 75,
            "name": "D#5",
            "ticks": 508320,
            "time": 529.5,
            "velocity": 0.984251968503937
          },
          {
            "duration": 1.8999999999999773,
            "durationTicks": 1824,
            "midi": 71,
            "name": "B4",
            "ticks": 512160,
            "time": 533.5,
            "velocity": 0.6141732283464567
          },
          {
            "duration": 1.451041666666697,
            "durationTicks": 1393,
            "midi": 80,
            "name": "G#5",
            "ticks": 512160,
            "time": 533.5,
            "velocity": 0.7007874015748031
          },
          {
            "duration": 0.451041666666697,
            "durationTicks": 433,
            "midi": 79,
            "name": "G5",
            "ticks": 513600,
            "time": 535,
            "velocity": 0.7244094488188977
          },
          {
            "duration": 1.8999999999999773,
            "durationTicks": 1824,
            "midi": 71,
            "name": "B4",
            "ticks": 516000,
            "time": 537.5,
            "velocity": 0.5669291338582677
          },
          {
            "duration": 1.451041666666697,
            "durationTicks": 1393,
            "midi": 80,
            "name": "G#5",
            "ticks": 516000,
            "time": 537.5,
            "velocity": 0.7874015748031497
          },
          {
            "duration": 0.451041666666697,
            "durationTicks": 433,
            "midi": 79,
            "name": "G5",
            "ticks": 517440,
            "time": 539,
            "velocity": 0.7322834645669292
          },
          {
            "duration": 0.451041666666697,
            "durationTicks": 433,
            "midi": 75,
            "name": "D#5",
            "ticks": 519840,
            "time": 541.5,
            "velocity": 0.6929133858267716
          },
          {
            "duration": 0.451041666666697,
            "durationTicks": 433,
            "midi": 77,
            "name": "F5",
            "ticks": 520320,
            "time": 542,
            "velocity": 0.8110236220472441
          },
          {
            "duration": 0.451041666666697,
            "durationTicks": 433,
            "midi": 74,
            "name": "D5",
            "ticks": 520800,
            "time": 542.5,
            "velocity": 0.6929133858267716
          },
          {
            "duration": 0.451041666666697,
            "durationTicks": 433,
            "midi": 75,
            "name": "D#5",
            "ticks": 521280,
            "time": 543,
            "velocity": 0.7874015748031497
          },
          {
            "duration": 0.451041666666697,
            "durationTicks": 433,
            "midi": 72,
            "name": "C5",
            "ticks": 521760,
            "time": 543.5,
            "velocity": 0.7007874015748031
          },
          {
            "duration": 0.451041666666697,
            "durationTicks": 433,
            "midi": 74,
            "name": "D5",
            "ticks": 522240,
            "time": 544,
            "velocity": 0.8110236220472441
          },
          {
            "duration": 0.451041666666697,
            "durationTicks": 433,
            "midi": 70,
            "name": "A#4",
            "ticks": 522720,
            "time": 544.5,
            "velocity": 0.7086614173228346
          },
          {
            "duration": 0.451041666666697,
            "durationTicks": 433,
            "midi": 72,
            "name": "C5",
            "ticks": 523200,
            "time": 545,
            "velocity": 0.7952755905511811
          },
          {
            "duration": 0.451041666666697,
            "durationTicks": 433,
            "midi": 68,
            "name": "G#4",
            "ticks": 523680,
            "time": 545.5,
            "velocity": 0.6929133858267716
          },
          {
            "duration": 0.451041666666697,
            "durationTicks": 433,
            "midi": 70,
            "name": "A#4",
            "ticks": 524160,
            "time": 546,
            "velocity": 0.8110236220472441
          },
          {
            "duration": 0.451041666666697,
            "durationTicks": 433,
            "midi": 67,
            "name": "G4",
            "ticks": 524640,
            "time": 546.5,
            "velocity": 0.7165354330708661
          },
          {
            "duration": 0.451041666666697,
            "durationTicks": 433,
            "midi": 68,
            "name": "G#4",
            "ticks": 525120,
            "time": 547,
            "velocity": 0.7874015748031497
          },
          {
            "duration": 0.451041666666697,
            "durationTicks": 433,
            "midi": 65,
            "name": "F4",
            "ticks": 525600,
            "time": 547.5,
            "velocity": 0.6850393700787402
          },
          {
            "duration": 0.451041666666697,
            "durationTicks": 433,
            "midi": 63,
            "name": "D#4",
            "ticks": 526080,
            "time": 548,
            "velocity": 0.8031496062992126
          },
          {
            "duration": 0.451041666666697,
            "durationTicks": 433,
            "midi": 67,
            "name": "G4",
            "ticks": 526080,
            "time": 548,
            "velocity": 0.8031496062992126
          },
          {
            "duration": 0.451041666666697,
            "durationTicks": 433,
            "midi": 62,
            "name": "D4",
            "ticks": 526560,
            "time": 548.5,
            "velocity": 0.7952755905511811
          },
          {
            "duration": 0.451041666666697,
            "durationTicks": 433,
            "midi": 67,
            "name": "G4",
            "ticks": 526560,
            "time": 548.5,
            "velocity": 0.7952755905511811
          },
          {
            "duration": 0.451041666666697,
            "durationTicks": 433,
            "midi": 63,
            "name": "D#4",
            "ticks": 527040,
            "time": 549,
            "velocity": 0.7795275590551181
          },
          {
            "duration": 0.451041666666697,
            "durationTicks": 433,
            "midi": 67,
            "name": "G4",
            "ticks": 527040,
            "time": 549,
            "velocity": 0.7795275590551181
          },
          {
            "duration": 0.451041666666697,
            "durationTicks": 433,
            "midi": 65,
            "name": "F4",
            "ticks": 527520,
            "time": 549.5,
            "velocity": 0.7637795275590551
          },
          {
            "duration": 0.451041666666697,
            "durationTicks": 433,
            "midi": 67,
            "name": "G4",
            "ticks": 527520,
            "time": 549.5,
            "velocity": 0.7637795275590551
          },
          {
            "duration": 0.451041666666697,
            "durationTicks": 433,
            "midi": 63,
            "name": "D#4",
            "ticks": 528000,
            "time": 550,
            "velocity": 0.7874015748031497
          },
          {
            "duration": 0.451041666666697,
            "durationTicks": 433,
            "midi": 67,
            "name": "G4",
            "ticks": 528000,
            "time": 550,
            "velocity": 0.7874015748031497
          },
          {
            "duration": 0.451041666666697,
            "durationTicks": 433,
            "midi": 65,
            "name": "F4",
            "ticks": 528480,
            "time": 550.5,
            "velocity": 0.7716535433070866
          },
          {
            "duration": 0.451041666666697,
            "durationTicks": 433,
            "midi": 67,
            "name": "G4",
            "ticks": 528480,
            "time": 550.5,
            "velocity": 0.7716535433070866
          },
          {
            "duration": 0.451041666666697,
            "durationTicks": 433,
            "midi": 67,
            "name": "G4",
            "ticks": 528960,
            "time": 551,
            "velocity": 0.8582677165354331
          },
          {
            "duration": 0.451041666666697,
            "durationTicks": 433,
            "midi": 72,
            "name": "C5",
            "ticks": 528960,
            "time": 551,
            "velocity": 0.8582677165354331
          },
          {
            "duration": 0.451041666666697,
            "durationTicks": 433,
            "midi": 68,
            "name": "G#4",
            "ticks": 529440,
            "time": 551.5,
            "velocity": 0.7480314960629921
          },
          {
            "duration": 0.451041666666697,
            "durationTicks": 433,
            "midi": 72,
            "name": "C5",
            "ticks": 529440,
            "time": 551.5,
            "velocity": 0.7480314960629921
          },
          {
            "duration": 0.451041666666697,
            "durationTicks": 433,
            "midi": 67,
            "name": "G4",
            "ticks": 529920,
            "time": 552,
            "velocity": 0.7716535433070866
          },
          {
            "duration": 0.451041666666697,
            "durationTicks": 433,
            "midi": 72,
            "name": "C5",
            "ticks": 529920,
            "time": 552,
            "velocity": 0.7716535433070866
          },
          {
            "duration": 0.451041666666697,
            "durationTicks": 433,
            "midi": 68,
            "name": "G#4",
            "ticks": 530400,
            "time": 552.5,
            "velocity": 0.7322834645669292
          },
          {
            "duration": 0.451041666666697,
            "durationTicks": 433,
            "midi": 72,
            "name": "C5",
            "ticks": 530400,
            "time": 552.5,
            "velocity": 0.7322834645669292
          },
          {
            "duration": 0.451041666666697,
            "durationTicks": 433,
            "midi": 59,
            "name": "B3",
            "ticks": 530880,
            "time": 553,
            "velocity": 0.7007874015748031
          },
          {
            "duration": 0.451041666666697,
            "durationTicks": 433,
            "midi": 71,
            "name": "B4",
            "ticks": 530880,
            "time": 553,
            "velocity": 0.7007874015748031
          },
          {
            "duration": 0.451041666666697,
            "durationTicks": 433,
            "midi": 60,
            "name": "C4",
            "ticks": 531360,
            "time": 553.5,
            "velocity": 0.8267716535433071
          },
          {
            "duration": 0.451041666666697,
            "durationTicks": 433,
            "midi": 72,
            "name": "C5",
            "ticks": 531360,
            "time": 553.5,
            "velocity": 0.8267716535433071
          },
          {
            "duration": 0.451041666666697,
            "durationTicks": 433,
            "midi": 59,
            "name": "B3",
            "ticks": 531840,
            "time": 554,
            "velocity": 0.7244094488188977
          },
          {
            "duration": 0.451041666666697,
            "durationTicks": 433,
            "midi": 71,
            "name": "B4",
            "ticks": 531840,
            "time": 554,
            "velocity": 0.7244094488188977
          },
          {
            "duration": 0.451041666666697,
            "durationTicks": 433,
            "midi": 60,
            "name": "C4",
            "ticks": 532320,
            "time": 554.5,
            "velocity": 0.8188976377952756
          },
          {
            "duration": 0.451041666666697,
            "durationTicks": 433,
            "midi": 72,
            "name": "C5",
            "ticks": 532320,
            "time": 554.5,
            "velocity": 0.8188976377952756
          },
          {
            "duration": 0.451041666666697,
            "durationTicks": 433,
            "midi": 62,
            "name": "D4",
            "ticks": 532800,
            "time": 555,
            "velocity": 0.8031496062992126
          },
          {
            "duration": 0.451041666666697,
            "durationTicks": 433,
            "midi": 74,
            "name": "D5",
            "ticks": 532800,
            "time": 555,
            "velocity": 0.8031496062992126
          },
          {
            "duration": 1.8999999999999773,
            "durationTicks": 1824,
            "midi": 63,
            "name": "D#4",
            "ticks": 533280,
            "time": 555.5,
            "velocity": 0.7086614173228346
          },
          {
            "duration": 1.8999999999999773,
            "durationTicks": 1824,
            "midi": 72,
            "name": "C5",
            "ticks": 533280,
            "time": 555.5,
            "velocity": 0.7086614173228346
          },
          {
            "duration": 1.8999999999999773,
            "durationTicks": 1824,
            "midi": 65,
            "name": "F4",
            "ticks": 535200,
            "time": 557.5,
            "velocity": 0.7795275590551181
          },
          {
            "duration": 1.8999999999999773,
            "durationTicks": 1824,
            "midi": 72,
            "name": "C5",
            "ticks": 535200,
            "time": 557.5,
            "velocity": 0.7795275590551181
          },
          {
            "duration": 1.8999999999999773,
            "durationTicks": 1824,
            "midi": 67,
            "name": "G4",
            "ticks": 537120,
            "time": 559.5,
            "velocity": 0.7480314960629921
          },
          {
            "duration": 1.8999999999999773,
            "durationTicks": 1824,
            "midi": 72,
            "name": "C5",
            "ticks": 537120,
            "time": 559.5,
            "velocity": 0.7480314960629921
          },
          {
            "duration": 0.8999999999999773,
            "durationTicks": 864,
            "midi": 68,
            "name": "G#4",
            "ticks": 539040,
            "time": 561.5,
            "velocity": 0.7559055118110236
          },
          {
            "duration": 1.8999999999999773,
            "durationTicks": 1824,
            "midi": 72,
            "name": "C5",
            "ticks": 539040,
            "time": 561.5,
            "velocity": 0.7559055118110236
          },
          {
            "duration": 0.8999999999999773,
            "durationTicks": 864,
            "midi": 65,
            "name": "F4",
            "ticks": 540000,
            "time": 562.5,
            "velocity": 0.7322834645669292
          },
          {
            "duration": 0.8999999999999773,
            "durationTicks": 864,
            "midi": 65,
            "name": "F4",
            "ticks": 540960,
            "time": 563.5,
            "velocity": 0.7244094488188977
          },
          {
            "duration": 0.8999999999999773,
            "durationTicks": 864,
            "midi": 71,
            "name": "B4",
            "ticks": 540960,
            "time": 563.5,
            "velocity": 0.7244094488188977
          },
          {
            "duration": 0.8999999999999773,
            "durationTicks": 864,
            "midi": 67,
            "name": "G4",
            "ticks": 541920,
            "time": 564.5,
            "velocity": 0.7874015748031497
          },
          {
            "duration": 0.8999999999999773,
            "durationTicks": 864,
            "midi": 71,
            "name": "B4",
            "ticks": 541920,
            "time": 564.5,
            "velocity": 0.7874015748031497
          },
          {
            "duration": 0.22500000000002274,
            "durationTicks": 216,
            "midi": 67,
            "name": "G4",
            "ticks": 542880,
            "time": 565.5,
            "velocity": 0.8503937007874016
          },
          {
            "duration": 0.22500000000002274,
            "durationTicks": 216,
            "midi": 72,
            "name": "C5",
            "ticks": 542880,
            "time": 565.5,
            "velocity": 0.8503937007874016
          },
          {
            "duration": 0.22500000000002274,
            "durationTicks": 216,
            "midi": 68,
            "name": "G#4",
            "ticks": 543840,
            "time": 566.5,
            "velocity": 0.6614173228346457
          },
          {
            "duration": 0.22500000000002274,
            "durationTicks": 216,
            "midi": 72,
            "name": "C5",
            "ticks": 543840,
            "time": 566.5,
            "velocity": 0.6614173228346457
          },
          {
            "duration": 0.22500000000002274,
            "durationTicks": 216,
            "midi": 68,
            "name": "G#4",
            "ticks": 544800,
            "time": 567.5,
            "velocity": 0.6850393700787402
          },
          {
            "duration": 0.22500000000002274,
            "durationTicks": 216,
            "midi": 72,
            "name": "C5",
            "ticks": 544800,
            "time": 567.5,
            "velocity": 0.6850393700787402
          },
          {
            "duration": 0.22500000000002274,
            "durationTicks": 216,
            "midi": 72,
            "name": "C5",
            "ticks": 545760,
            "time": 568.5,
            "velocity": 0.7165354330708661
          },
          {
            "duration": 0.22500000000002274,
            "durationTicks": 216,
            "midi": 74,
            "name": "D5",
            "ticks": 545760,
            "time": 568.5,
            "velocity": 0.7165354330708661
          },
          {
            "duration": 0.22500000000002274,
            "durationTicks": 216,
            "midi": 72,
            "name": "C5",
            "ticks": 546720,
            "time": 569.5,
            "velocity": 0.6929133858267716
          },
          {
            "duration": 0.22500000000002274,
            "durationTicks": 216,
            "midi": 74,
            "name": "D5",
            "ticks": 546720,
            "time": 569.5,
            "velocity": 0.6929133858267716
          },
          {
            "duration": 0.22500000000002274,
            "durationTicks": 216,
            "midi": 71,
            "name": "B4",
            "ticks": 547680,
            "time": 570.5,
            "velocity": 0.6771653543307087
          },
          {
            "duration": 0.22500000000002274,
            "durationTicks": 216,
            "midi": 74,
            "name": "D5",
            "ticks": 547680,
            "time": 570.5,
            "velocity": 0.6771653543307087
          },
          {
            "duration": 0.8999999999999773,
            "durationTicks": 864,
            "midi": 72,
            "name": "C5",
            "ticks": 548640,
            "time": 571.5,
            "velocity": 0.7165354330708661
          },
          {
            "duration": 0.22500000000002274,
            "durationTicks": 216,
            "midi": 74,
            "name": "D5",
            "ticks": 549600,
            "time": 572.5,
            "velocity": 0.8110236220472441
          },
          {
            "duration": 0.22500000000002274,
            "durationTicks": 216,
            "midi": 75,
            "name": "D#5",
            "ticks": 550080,
            "time": 573,
            "velocity": 0.8110236220472441
          },
          {
            "duration": 0.5093749999999773,
            "durationTicks": 489,
            "midi": 77,
            "name": "F5",
            "ticks": 550560,
            "time": 573.5,
            "velocity": 0.84251968503937
          },
          {
            "duration": 0.47500000000002274,
            "durationTicks": 456,
            "midi": 74,
            "name": "D5",
            "ticks": 551040,
            "time": 574,
            "velocity": 0.7874015748031497
          },
          {
            "duration": 0.22500000000002274,
            "durationTicks": 216,
            "midi": 77,
            "name": "F5",
            "ticks": 553440,
            "time": 576.5,
            "velocity": 0.8503937007874016
          },
          {
            "duration": 0.22500000000002274,
            "durationTicks": 216,
            "midi": 79,
            "name": "G5",
            "ticks": 553920,
            "time": 577,
            "velocity": 0.8267716535433071
          },
          {
            "duration": 0.5093749999999773,
            "durationTicks": 489,
            "midi": 80,
            "name": "G#5",
            "ticks": 554400,
            "time": 577.5,
            "velocity": 0.8346456692913385
          },
          {
            "duration": 0.47500000000002274,
            "durationTicks": 456,
            "midi": 77,
            "name": "F5",
            "ticks": 554880,
            "time": 578,
            "velocity": 0.7559055118110236
          },
          {
            "duration": 0.22500000000002274,
            "durationTicks": 216,
            "midi": 69,
            "name": "A4",
            "ticks": 557280,
            "time": 580.5,
            "velocity": 0.6535433070866141
          },
          {
            "duration": 0.22500000000002274,
            "durationTicks": 216,
            "midi": 72,
            "name": "C5",
            "ticks": 557280,
            "time": 580.5,
            "velocity": 0.6535433070866141
          },
          {
            "duration": 0.22500000000002274,
            "durationTicks": 216,
            "midi": 71,
            "name": "B4",
            "ticks": 557760,
            "time": 581,
            "velocity": 0.7795275590551181
          },
          {
            "duration": 0.22500000000002274,
            "durationTicks": 216,
            "midi": 74,
            "name": "D5",
            "ticks": 557760,
            "time": 581,
            "velocity": 0.7795275590551181
          },
          {
            "duration": 0.5,
            "durationTicks": 480,
            "midi": 72,
            "name": "C5",
            "ticks": 558240,
            "time": 581.5,
            "velocity": 0.7795275590551181
          },
          {
            "duration": 0.5093749999999773,
            "durationTicks": 489,
            "midi": 75,
            "name": "D#5",
            "ticks": 558240,
            "time": 581.5,
            "velocity": 0.7795275590551181
          },
          {
            "duration": 0.47500000000002274,
            "durationTicks": 456,
            "midi": 67,
            "name": "G4",
            "ticks": 558720,
            "time": 582,
            "velocity": 0.7086614173228346
          },
          {
            "duration": 0.47500000000002274,
            "durationTicks": 456,
            "midi": 72,
            "name": "C5",
            "ticks": 558720,
            "time": 582,
            "velocity": 0.7086614173228346
          },
          {
            "duration": 0.22500000000002274,
            "durationTicks": 216,
            "midi": 69,
            "name": "A4",
            "ticks": 561120,
            "time": 584.5,
            "velocity": 0.7480314960629921
          },
          {
            "duration": 0.22500000000002274,
            "durationTicks": 216,
            "midi": 72,
            "name": "C5",
            "ticks": 561120,
            "time": 584.5,
            "velocity": 0.7480314960629921
          },
          {
            "duration": 0.22500000000002274,
            "durationTicks": 216,
            "midi": 71,
            "name": "B4",
            "ticks": 561600,
            "time": 585,
            "velocity": 0.8188976377952756
          },
          {
            "duration": 0.22500000000002274,
            "durationTicks": 216,
            "midi": 74,
            "name": "D5",
            "ticks": 561600,
            "time": 585,
            "velocity": 0.8188976377952756
          },
          {
            "duration": 0.5093749999999773,
            "durationTicks": 489,
            "midi": 72,
            "name": "C5",
            "ticks": 562080,
            "time": 585.5,
            "velocity": 0.8267716535433071
          },
          {
            "duration": 0.5093749999999773,
            "durationTicks": 489,
            "midi": 75,
            "name": "D#5",
            "ticks": 562080,
            "time": 585.5,
            "velocity": 0.8267716535433071
          },
          {
            "duration": 0.5093749999999773,
            "durationTicks": 489,
            "midi": 71,
            "name": "B4",
            "ticks": 562560,
            "time": 586,
            "velocity": 0.7952755905511811
          },
          {
            "duration": 0.5093749999999773,
            "durationTicks": 489,
            "midi": 74,
            "name": "D5",
            "ticks": 562560,
            "time": 586,
            "velocity": 0.7952755905511811
          },
          {
            "duration": 0.5093749999999773,
            "durationTicks": 489,
            "midi": 68,
            "name": "G#4",
            "ticks": 563040,
            "time": 586.5,
            "velocity": 0.7086614173228346
          },
          {
            "duration": 0.5093749999999773,
            "durationTicks": 489,
            "midi": 72,
            "name": "C5",
            "ticks": 563040,
            "time": 586.5,
            "velocity": 0.7086614173228346
          },
          {
            "duration": 0.5093749999999773,
            "durationTicks": 489,
            "midi": 67,
            "name": "G4",
            "ticks": 563520,
            "time": 587,
            "velocity": 0.6614173228346457
          },
          {
            "duration": 0.5093749999999773,
            "durationTicks": 489,
            "midi": 70,
            "name": "A#4",
            "ticks": 563520,
            "time": 587,
            "velocity": 0.6614173228346457
          },
          {
            "duration": 0.5093749999999773,
            "durationTicks": 489,
            "midi": 65,
            "name": "F4",
            "ticks": 564000,
            "time": 587.5,
            "velocity": 0.6850393700787402
          },
          {
            "duration": 0.5093749999999773,
            "durationTicks": 489,
            "midi": 68,
            "name": "G#4",
            "ticks": 564000,
            "time": 587.5,
            "velocity": 0.6850393700787402
          },
          {
            "duration": 0.47500000000002274,
            "durationTicks": 456,
            "midi": 63,
            "name": "D#4",
            "ticks": 564480,
            "time": 588,
            "velocity": 0.6614173228346457
          },
          {
            "duration": 0.47500000000002274,
            "durationTicks": 456,
            "midi": 67,
            "name": "G4",
            "ticks": 564480,
            "time": 588,
            "velocity": 0.6614173228346457
          },
          {
            "duration": 0.451041666666697,
            "durationTicks": 433,
            "midi": 60,
            "name": "C4",
            "ticks": 565920,
            "time": 589.5,
            "velocity": 0.9763779527559056
          },
          {
            "duration": 0.451041666666697,
            "durationTicks": 433,
            "midi": 72,
            "name": "C5",
            "ticks": 565920,
            "time": 589.5,
            "velocity": 0.9763779527559056
          },
          {
            "duration": 0.451041666666697,
            "durationTicks": 433,
            "midi": 60,
            "name": "C4",
            "ticks": 566400,
            "time": 590,
            "velocity": 0.8188976377952756
          },
          {
            "duration": 0.451041666666697,
            "durationTicks": 433,
            "midi": 72,
            "name": "C5",
            "ticks": 566400,
            "time": 590,
            "velocity": 0.8188976377952756
          },
          {
            "duration": 0.5093749999999773,
            "durationTicks": 489,
            "midi": 77,
            "name": "F5",
            "ticks": 566880,
            "time": 590.5,
            "velocity": 0.905511811023622
          },
          {
            "duration": 0.5093749999999773,
            "durationTicks": 489,
            "midi": 80,
            "name": "G#5",
            "ticks": 566880,
            "time": 590.5,
            "velocity": 0.905511811023622
          },
          {
            "duration": 0.47500000000002274,
            "durationTicks": 456,
            "midi": 75,
            "name": "D#5",
            "ticks": 567360,
            "time": 591,
            "velocity": 0.905511811023622
          },
          {
            "duration": 0.47500000000002274,
            "durationTicks": 456,
            "midi": 79,
            "name": "G5",
            "ticks": 567360,
            "time": 591,
            "velocity": 0.905511811023622
          },
          {
            "duration": 0.451041666666697,
            "durationTicks": 433,
            "midi": 72,
            "name": "C5",
            "ticks": 568320,
            "time": 592,
            "velocity": 0.6614173228346457
          },
          {
            "duration": 0.451041666666697,
            "durationTicks": 433,
            "midi": 75,
            "name": "D#5",
            "ticks": 568320,
            "time": 592,
            "velocity": 0.6614173228346457
          },
          {
            "duration": 0.451041666666697,
            "durationTicks": 433,
            "midi": 71,
            "name": "B4",
            "ticks": 569280,
            "time": 593,
            "velocity": 0.6692913385826772
          },
          {
            "duration": 0.451041666666697,
            "durationTicks": 433,
            "midi": 79,
            "name": "G5",
            "ticks": 569280,
            "time": 593,
            "velocity": 0.6692913385826772
          },
          {
            "duration": 0.451041666666697,
            "durationTicks": 433,
            "midi": 60,
            "name": "C4",
            "ticks": 572640,
            "time": 596.5,
            "velocity": 0.6141732283464567
          },
          {
            "duration": 0.451041666666697,
            "durationTicks": 433,
            "midi": 72,
            "name": "C5",
            "ticks": 572640,
            "time": 596.5,
            "velocity": 0.6141732283464567
          },
          {
            "duration": 0.451041666666697,
            "durationTicks": 433,
            "midi": 60,
            "name": "C4",
            "ticks": 573120,
            "time": 597,
            "velocity": 0.7480314960629921
          },
          {
            "duration": 0.451041666666697,
            "durationTicks": 433,
            "midi": 72,
            "name": "C5",
            "ticks": 573120,
            "time": 597,
            "velocity": 0.7480314960629921
          },
          {
            "duration": 0.5093749999999773,
            "durationTicks": 489,
            "midi": 65,
            "name": "F4",
            "ticks": 574560,
            "time": 598.5,
            "velocity": 0.6929133858267716
          },
          {
            "duration": 0.5093749999999773,
            "durationTicks": 489,
            "midi": 68,
            "name": "G#4",
            "ticks": 574560,
            "time": 598.5,
            "velocity": 0.6929133858267716
          },
          {
            "duration": 0.47500000000002274,
            "durationTicks": 456,
            "midi": 63,
            "name": "D#4",
            "ticks": 575040,
            "time": 599,
            "velocity": 0.6535433070866141
          },
          {
            "duration": 0.47500000000002274,
            "durationTicks": 456,
            "midi": 67,
            "name": "G4",
            "ticks": 575040,
            "time": 599,
            "velocity": 0.6535433070866141
          },
          {
            "duration": 0.451041666666697,
            "durationTicks": 433,
            "midi": 75,
            "name": "D#5",
            "ticks": 576000,
            "time": 600,
            "velocity": 0.7086614173228346
          },
          {
            "duration": 0.451041666666697,
            "durationTicks": 433,
            "midi": 79,
            "name": "G5",
            "ticks": 576000,
            "time": 600,
            "velocity": 0.7086614173228346
          },
          {
            "duration": 0.451041666666697,
            "durationTicks": 433,
            "midi": 74,
            "name": "D5",
            "ticks": 576960,
            "time": 601,
            "velocity": 0.6929133858267716
          },
          {
            "duration": 0.451041666666697,
            "durationTicks": 433,
            "midi": 79,
            "name": "G5",
            "ticks": 576960,
            "time": 601,
            "velocity": 0.6929133858267716
          },
          {
            "duration": 0.451041666666697,
            "durationTicks": 433,
            "midi": 72,
            "name": "C5",
            "ticks": 577440,
            "time": 601.5,
            "velocity": 0.5826771653543307
          },
          {
            "duration": 0.22604166666667425,
            "durationTicks": 217,
            "midi": 71,
            "name": "B4",
            "ticks": 578640,
            "time": 602.75,
            "velocity": 0.7086614173228346
          },
          {
            "duration": 0.22604166666667425,
            "durationTicks": 217,
            "midi": 74,
            "name": "D5",
            "ticks": 578640,
            "time": 602.75,
            "velocity": 0.7086614173228346
          },
          {
            "duration": 0.22604166666667425,
            "durationTicks": 217,
            "midi": 71,
            "name": "B4",
            "ticks": 578880,
            "time": 603,
            "velocity": 0.7480314960629921
          },
          {
            "duration": 0.22604166666667425,
            "durationTicks": 217,
            "midi": 74,
            "name": "D5",
            "ticks": 578880,
            "time": 603,
            "velocity": 0.7480314960629921
          },
          {
            "duration": 0.22604166666667425,
            "durationTicks": 217,
            "midi": 71,
            "name": "B4",
            "ticks": 579120,
            "time": 603.25,
            "velocity": 0.7637795275590551
          },
          {
            "duration": 0.22604166666667425,
            "durationTicks": 217,
            "midi": 74,
            "name": "D5",
            "ticks": 579120,
            "time": 603.25,
            "velocity": 0.7637795275590551
          },
          {
            "duration": 1.451041666666697,
            "durationTicks": 1393,
            "midi": 71,
            "name": "B4",
            "ticks": 579360,
            "time": 603.5,
            "velocity": 0.7480314960629921
          },
          {
            "duration": 1.451041666666697,
            "durationTicks": 1393,
            "midi": 74,
            "name": "D5",
            "ticks": 579360,
            "time": 603.5,
            "velocity": 0.7480314960629921
          },
          {
            "duration": 0.5093749999999773,
            "durationTicks": 489,
            "midi": 72,
            "name": "C5",
            "ticks": 580800,
            "time": 605,
            "velocity": 0.7637795275590551
          },
          {
            "duration": 0.5093749999999773,
            "durationTicks": 489,
            "midi": 75,
            "name": "D#5",
            "ticks": 580800,
            "time": 605,
            "velocity": 0.7637795275590551
          },
          {
            "duration": 0.5,
            "durationTicks": 480,
            "midi": 74,
            "name": "D5",
            "ticks": 581280,
            "time": 605.5,
            "velocity": 0.8346456692913385
          },
          {
            "duration": 0.5093749999999773,
            "durationTicks": 489,
            "midi": 77,
            "name": "F5",
            "ticks": 581280,
            "time": 605.5,
            "velocity": 0.8346456692913385
          },
          {
            "duration": 0.5093749999999773,
            "durationTicks": 489,
            "midi": 71,
            "name": "B4",
            "ticks": 581760,
            "time": 606,
            "velocity": 0.7244094488188977
          },
          {
            "duration": 0.5093749999999773,
            "durationTicks": 489,
            "midi": 74,
            "name": "D5",
            "ticks": 581760,
            "time": 606,
            "velocity": 0.7244094488188977
          },
          {
            "duration": 0.5093749999999773,
            "durationTicks": 489,
            "midi": 72,
            "name": "C5",
            "ticks": 582240,
            "time": 606.5,
            "velocity": 0.7480314960629921
          },
          {
            "duration": 0.5093749999999773,
            "durationTicks": 489,
            "midi": 75,
            "name": "D#5",
            "ticks": 582240,
            "time": 606.5,
            "velocity": 0.7480314960629921
          },
          {
            "duration": 0.47500000000002274,
            "durationTicks": 456,
            "midi": 74,
            "name": "D5",
            "ticks": 582720,
            "time": 607,
            "velocity": 0.8188976377952756
          },
          {
            "duration": 0.47500000000002274,
            "durationTicks": 456,
            "midi": 77,
            "name": "F5",
            "ticks": 582720,
            "time": 607,
            "velocity": 0.8188976377952756
          },
          {
            "duration": 0.451041666666697,
            "durationTicks": 433,
            "midi": 72,
            "name": "C5",
            "ticks": 583200,
            "time": 607.5,
            "velocity": 0.7795275590551181
          },
          {
            "duration": 0.451041666666697,
            "durationTicks": 433,
            "midi": 75,
            "name": "D#5",
            "ticks": 583200,
            "time": 607.5,
            "velocity": 0.7795275590551181
          },
          {
            "duration": 0.22604166666667425,
            "durationTicks": 217,
            "midi": 67,
            "name": "G4",
            "ticks": 584400,
            "time": 608.75,
            "velocity": 0.6614173228346457
          },
          {
            "duration": 0.22604166666667425,
            "durationTicks": 217,
            "midi": 79,
            "name": "G5",
            "ticks": 584400,
            "time": 608.75,
            "velocity": 0.6614173228346457
          },
          {
            "duration": 0.22604166666667425,
            "durationTicks": 217,
            "midi": 67,
            "name": "G4",
            "ticks": 584640,
            "time": 609,
            "velocity": 0.7795275590551181
          },
          {
            "duration": 0.22604166666667425,
            "durationTicks": 217,
            "midi": 79,
            "name": "G5",
            "ticks": 584640,
            "time": 609,
            "velocity": 0.7795275590551181
          },
          {
            "duration": 0.22604166666667425,
            "durationTicks": 217,
            "midi": 67,
            "name": "G4",
            "ticks": 584880,
            "time": 609.25,
            "velocity": 0.7952755905511811
          },
          {
            "duration": 0.22604166666667425,
            "durationTicks": 217,
            "midi": 79,
            "name": "G5",
            "ticks": 584880,
            "time": 609.25,
            "velocity": 0.7952755905511811
          },
          {
            "duration": 0.22604166666667425,
            "durationTicks": 217,
            "midi": 67,
            "name": "G4",
            "ticks": 585120,
            "time": 609.5,
            "velocity": 0.7637795275590551
          },
          {
            "duration": 0.22604166666667425,
            "durationTicks": 217,
            "midi": 79,
            "name": "G5",
            "ticks": 585120,
            "time": 609.5,
            "velocity": 0.7637795275590551
          },
          {
            "duration": 0.22604166666667425,
            "durationTicks": 217,
            "midi": 67,
            "name": "G4",
            "ticks": 585360,
            "time": 609.75,
            "velocity": 0.7795275590551181
          },
          {
            "duration": 0.22604166666667425,
            "durationTicks": 217,
            "midi": 79,
            "name": "G5",
            "ticks": 585360,
            "time": 609.75,
            "velocity": 0.7795275590551181
          },
          {
            "duration": 0.22604166666667425,
            "durationTicks": 217,
            "midi": 67,
            "name": "G4",
            "ticks": 585600,
            "time": 610,
            "velocity": 0.7637795275590551
          },
          {
            "duration": 0.22604166666667425,
            "durationTicks": 217,
            "midi": 79,
            "name": "G5",
            "ticks": 585600,
            "time": 610,
            "velocity": 0.7637795275590551
          },
          {
            "duration": 0.22604166666667425,
            "durationTicks": 217,
            "midi": 67,
            "name": "G4",
            "ticks": 585840,
            "time": 610.25,
            "velocity": 0.7637795275590551
          },
          {
            "duration": 0.22604166666667425,
            "durationTicks": 217,
            "midi": 79,
            "name": "G5",
            "ticks": 585840,
            "time": 610.25,
            "velocity": 0.7637795275590551
          },
          {
            "duration": 0.22604166666667425,
            "durationTicks": 217,
            "midi": 67,
            "name": "G4",
            "ticks": 586080,
            "time": 610.5,
            "velocity": 0.8267716535433071
          },
          {
            "duration": 0.22604166666667425,
            "durationTicks": 217,
            "midi": 79,
            "name": "G5",
            "ticks": 586080,
            "time": 610.5,
            "velocity": 0.8267716535433071
          },
          {
            "duration": 0.22604166666667425,
            "durationTicks": 217,
            "midi": 67,
            "name": "G4",
            "ticks": 586320,
            "time": 610.75,
            "velocity": 0.7795275590551181
          },
          {
            "duration": 0.22604166666667425,
            "durationTicks": 217,
            "midi": 79,
            "name": "G5",
            "ticks": 586320,
            "time": 610.75,
            "velocity": 0.7795275590551181
          },
          {
            "duration": 0.22604166666667425,
            "durationTicks": 217,
            "midi": 67,
            "name": "G4",
            "ticks": 586560,
            "time": 611,
            "velocity": 0.7559055118110236
          },
          {
            "duration": 0.22604166666667425,
            "durationTicks": 217,
            "midi": 79,
            "name": "G5",
            "ticks": 586560,
            "time": 611,
            "velocity": 0.7559055118110236
          },
          {
            "duration": 0.22604166666667425,
            "durationTicks": 217,
            "midi": 67,
            "name": "G4",
            "ticks": 586800,
            "time": 611.25,
            "velocity": 0.7480314960629921
          },
          {
            "duration": 0.22604166666667425,
            "durationTicks": 217,
            "midi": 79,
            "name": "G5",
            "ticks": 586800,
            "time": 611.25,
            "velocity": 0.7480314960629921
          },
          {
            "duration": 1.5,
            "durationTicks": 1440,
            "midi": 63,
            "name": "D#4",
            "ticks": 587040,
            "time": 611.5,
            "velocity": 0.7716535433070866
          },
          {
            "duration": 1.5,
            "durationTicks": 1440,
            "midi": 75,
            "name": "D#5",
            "ticks": 587040,
            "time": 611.5,
            "velocity": 0.7716535433070866
          },
          {
            "duration": 0.22604166666667425,
            "durationTicks": 217,
            "midi": 65,
            "name": "F4",
            "ticks": 588720,
            "time": 613.25,
            "velocity": 0.8110236220472441
          },
          {
            "duration": 0.22604166666667425,
            "durationTicks": 217,
            "midi": 77,
            "name": "F5",
            "ticks": 588720,
            "time": 613.25,
            "velocity": 0.8110236220472441
          },
          {
            "duration": 0.22604166666667425,
            "durationTicks": 217,
            "midi": 65,
            "name": "F4",
            "ticks": 588960,
            "time": 613.5,
            "velocity": 0.8582677165354331
          },
          {
            "duration": 0.22604166666667425,
            "durationTicks": 217,
            "midi": 77,
            "name": "F5",
            "ticks": 588960,
            "time": 613.5,
            "velocity": 0.8582677165354331
          },
          {
            "duration": 0.22604166666667425,
            "durationTicks": 217,
            "midi": 65,
            "name": "F4",
            "ticks": 589200,
            "time": 613.75,
            "velocity": 0.889763779527559
          },
          {
            "duration": 0.22604166666667425,
            "durationTicks": 217,
            "midi": 77,
            "name": "F5",
            "ticks": 589200,
            "time": 613.75,
            "velocity": 0.889763779527559
          },
          {
            "duration": 2.5,
            "durationTicks": 2400,
            "midi": 62,
            "name": "D4",
            "ticks": 589440,
            "time": 614,
            "velocity": 0.8031496062992126
          },
          {
            "duration": 2.5,
            "durationTicks": 2400,
            "midi": 74,
            "name": "D5",
            "ticks": 589440,
            "time": 614,
            "velocity": 0.8031496062992126
          },
          {
            "duration": 0.5093749999999773,
            "durationTicks": 489,
            "midi": 68,
            "name": "G#4",
            "ticks": 593280,
            "time": 618,
            "velocity": 0.5354330708661418
          },
          {
            "duration": 0.5093749999999773,
            "durationTicks": 489,
            "midi": 67,
            "name": "G4",
            "ticks": 593760,
            "time": 618.5,
            "velocity": 0.5275590551181102
          },
          {
            "duration": 0.5093749999999773,
            "durationTicks": 489,
            "midi": 75,
            "name": "D#5",
            "ticks": 594240,
            "time": 619,
            "velocity": 0.6456692913385826
          },
          {
            "duration": 1.529166666666697,
            "durationTicks": 1468,
            "midi": 72,
            "name": "C5",
            "ticks": 594720,
            "time": 619.5,
            "velocity": 0.6377952755905512
          },
          {
            "duration": 0.5093749999999773,
            "durationTicks": 489,
            "midi": 68,
            "name": "G#4",
            "ticks": 597120,
            "time": 622,
            "velocity": 0.44881889763779526
          },
          {
            "duration": 0.5093749999999773,
            "durationTicks": 489,
            "midi": 67,
            "name": "G4",
            "ticks": 597600,
            "time": 622.5,
            "velocity": 0.4015748031496063
          },
          {
            "duration": 0.5093749999999773,
            "durationTicks": 489,
            "midi": 75,
            "name": "D#5",
            "ticks": 598080,
            "time": 623,
            "velocity": 0.6456692913385826
          },
          {
            "duration": 1.2927083333332803,
            "durationTicks": 1241,
            "midi": 72,
            "name": "C5",
            "ticks": 598560,
            "time": 623.5,
            "velocity": 0.6062992125984252
          },
          {
            "duration": 0.22604166666667425,
            "durationTicks": 217,
            "midi": 71,
            "name": "B4",
            "ticks": 599760,
            "time": 624.75,
            "velocity": 0.952755905511811
          },
          {
            "duration": 0.22604166666667425,
            "durationTicks": 217,
            "midi": 74,
            "name": "D5",
            "ticks": 599760,
            "time": 624.75,
            "velocity": 0.952755905511811
          },
          {
            "duration": 0.22604166666667425,
            "durationTicks": 217,
            "midi": 71,
            "name": "B4",
            "ticks": 600000,
            "time": 625,
            "velocity": 0.8818897637795275
          },
          {
            "duration": 0.22604166666667425,
            "durationTicks": 217,
            "midi": 74,
            "name": "D5",
            "ticks": 600000,
            "time": 625,
            "velocity": 0.8818897637795275
          },
          {
            "duration": 0.22604166666667425,
            "durationTicks": 217,
            "midi": 71,
            "name": "B4",
            "ticks": 600240,
            "time": 625.25,
            "velocity": 0.8740157480314961
          },
          {
            "duration": 0.22604166666667425,
            "durationTicks": 217,
            "midi": 74,
            "name": "D5",
            "ticks": 600240,
            "time": 625.25,
            "velocity": 0.8740157480314961
          },
          {
            "duration": 0.451041666666697,
            "durationTicks": 433,
            "midi": 72,
            "name": "C5",
            "ticks": 600480,
            "time": 625.5,
            "velocity": 0.9606299212598425
          },
          {
            "duration": 0.451041666666697,
            "durationTicks": 433,
            "midi": 75,
            "name": "D#5",
            "ticks": 600480,
            "time": 625.5,
            "velocity": 0.9606299212598425
          },
          {
            "duration": 0.22604166666667425,
            "durationTicks": 217,
            "midi": 71,
            "name": "B4",
            "ticks": 601680,
            "time": 626.75,
            "velocity": 0.7874015748031497
          },
          {
            "duration": 0.22604166666667425,
            "durationTicks": 217,
            "midi": 74,
            "name": "D5",
            "ticks": 601680,
            "time": 626.75,
            "velocity": 0.7874015748031497
          },
          {
            "duration": 0.22604166666667425,
            "durationTicks": 217,
            "midi": 71,
            "name": "B4",
            "ticks": 601920,
            "time": 627,
            "velocity": 0.889763779527559
          },
          {
            "duration": 0.22604166666667425,
            "durationTicks": 217,
            "midi": 74,
            "name": "D5",
            "ticks": 601920,
            "time": 627,
            "velocity": 0.889763779527559
          },
          {
            "duration": 0.22604166666667425,
            "durationTicks": 217,
            "midi": 71,
            "name": "B4",
            "ticks": 602160,
            "time": 627.25,
            "velocity": 0.8818897637795275
          },
          {
            "duration": 0.22604166666667425,
            "durationTicks": 217,
            "midi": 74,
            "name": "D5",
            "ticks": 602160,
            "time": 627.25,
            "velocity": 0.8818897637795275
          },
          {
            "duration": 0.451041666666697,
            "durationTicks": 433,
            "midi": 72,
            "name": "C5",
            "ticks": 602400,
            "time": 627.5,
            "velocity": 0.9133858267716536
          },
          {
            "duration": 0.451041666666697,
            "durationTicks": 433,
            "midi": 75,
            "name": "D#5",
            "ticks": 602400,
            "time": 627.5,
            "velocity": 0.9133858267716536
          },
          {
            "duration": 0.22604166666667425,
            "durationTicks": 217,
            "midi": 71,
            "name": "B4",
            "ticks": 603600,
            "time": 628.75,
            "velocity": 0.84251968503937
          },
          {
            "duration": 0.22604166666667425,
            "durationTicks": 217,
            "midi": 74,
            "name": "D5",
            "ticks": 603600,
            "time": 628.75,
            "velocity": 0.84251968503937
          },
          {
            "duration": 0.22604166666667425,
            "durationTicks": 217,
            "midi": 71,
            "name": "B4",
            "ticks": 603840,
            "time": 629,
            "velocity": 0.8818897637795275
          },
          {
            "duration": 0.22604166666667425,
            "durationTicks": 217,
            "midi": 74,
            "name": "D5",
            "ticks": 603840,
            "time": 629,
            "velocity": 0.8818897637795275
          },
          {
            "duration": 0.22604166666667425,
            "durationTicks": 217,
            "midi": 71,
            "name": "B4",
            "ticks": 604080,
            "time": 629.25,
            "velocity": 0.8818897637795275
          },
          {
            "duration": 0.22604166666667425,
            "durationTicks": 217,
            "midi": 74,
            "name": "D5",
            "ticks": 604080,
            "time": 629.25,
            "velocity": 0.8818897637795275
          },
          {
            "duration": 0.451041666666697,
            "durationTicks": 433,
            "midi": 72,
            "name": "C5",
            "ticks": 604320,
            "time": 629.5,
            "velocity": 0.9448818897637795
          },
          {
            "duration": 0.451041666666697,
            "durationTicks": 433,
            "midi": 75,
            "name": "D#5",
            "ticks": 604320,
            "time": 629.5,
            "velocity": 0.9448818897637795
          },
          {
            "duration": 0.451041666666697,
            "durationTicks": 433,
            "midi": 71,
            "name": "B4",
            "ticks": 604800,
            "time": 630,
            "velocity": 0.8346456692913385
          },
          {
            "duration": 0.451041666666697,
            "durationTicks": 433,
            "midi": 74,
            "name": "D5",
            "ticks": 604800,
            "time": 630,
            "velocity": 0.8346456692913385
          },
          {
            "duration": 0.451041666666697,
            "durationTicks": 433,
            "midi": 72,
            "name": "C5",
            "ticks": 605280,
            "time": 630.5,
            "velocity": 0.9448818897637795
          },
          {
            "duration": 0.451041666666697,
            "durationTicks": 433,
            "midi": 75,
            "name": "D#5",
            "ticks": 605280,
            "time": 630.5,
            "velocity": 0.9448818897637795
          },
          {
            "duration": 0.451041666666697,
            "durationTicks": 433,
            "midi": 71,
            "name": "B4",
            "ticks": 605760,
            "time": 631,
            "velocity": 0.8346456692913385
          },
          {
            "duration": 0.451041666666697,
            "durationTicks": 433,
            "midi": 74,
            "name": "D5",
            "ticks": 605760,
            "time": 631,
            "velocity": 0.8346456692913385
          },
          {
            "duration": 0.451041666666697,
            "durationTicks": 433,
            "midi": 72,
            "name": "C5",
            "ticks": 606240,
            "time": 631.5,
            "velocity": 0.9212598425196851
          },
          {
            "duration": 0.451041666666697,
            "durationTicks": 433,
            "midi": 75,
            "name": "D#5",
            "ticks": 606240,
            "time": 631.5,
            "velocity": 0.9212598425196851
          },
          {
            "duration": 0.451041666666697,
            "durationTicks": 433,
            "midi": 71,
            "name": "B4",
            "ticks": 606720,
            "time": 632,
            "velocity": 0.8661417322834646
          },
          {
            "duration": 0.451041666666697,
            "durationTicks": 433,
            "midi": 74,
            "name": "D5",
            "ticks": 606720,
            "time": 632,
            "velocity": 0.8661417322834646
          },
          {
            "duration": 0.451041666666697,
            "durationTicks": 433,
            "midi": 72,
            "name": "C5",
            "ticks": 607200,
            "time": 632.5,
            "velocity": 0.9133858267716536
          },
          {
            "duration": 0.451041666666697,
            "durationTicks": 433,
            "midi": 75,
            "name": "D#5",
            "ticks": 607200,
            "time": 632.5,
            "velocity": 0.9133858267716536
          },
          {
            "duration": 0.451041666666697,
            "durationTicks": 433,
            "midi": 71,
            "name": "B4",
            "ticks": 607680,
            "time": 633,
            "velocity": 0.8661417322834646
          },
          {
            "duration": 0.451041666666697,
            "durationTicks": 433,
            "midi": 74,
            "name": "D5",
            "ticks": 607680,
            "time": 633,
            "velocity": 0.8661417322834646
          },
          {
            "duration": 0.451041666666697,
            "durationTicks": 433,
            "midi": 72,
            "name": "C5",
            "ticks": 608160,
            "time": 633.5,
            "velocity": 0.952755905511811
          },
          {
            "duration": 0.451041666666697,
            "durationTicks": 433,
            "midi": 75,
            "name": "D#5",
            "ticks": 608160,
            "time": 633.5,
            "velocity": 0.952755905511811
          },
          {
            "duration": 0.451041666666697,
            "durationTicks": 433,
            "midi": 71,
            "name": "B4",
            "ticks": 609120,
            "time": 634.5,
            "velocity": 0.8110236220472441
          },
          {
            "duration": 0.451041666666697,
            "durationTicks": 433,
            "midi": 74,
            "name": "D5",
            "ticks": 609120,
            "time": 634.5,
            "velocity": 0.8110236220472441
          },
          {
            "duration": 0.451041666666697,
            "durationTicks": 433,
            "midi": 72,
            "name": "C5",
            "ticks": 610080,
            "time": 635.5,
            "velocity": 0.7874015748031497
          }
        ]
      },
      {
        "channel": 3,
        "controlChanges": {
          "7": [
            {
              "number": 7,
              "ticks": 0,
              "time": 0,
              "value": 0.3779527559055118
            }
          ],
          "10": [
            {
              "number": 10,
              "ticks": 0,
              "time": 0,
              "value": 0.5354330708661418
            }
          ],
          "64": [
            {
              "number": 64,
              "ticks": 0,
              "time": 0,
              "value": 0
            }
          ],
          "121": [
            {
              "number": 121,
              "ticks": 0,
              "time": 0,
              "value": 0
            }
          ]
        },
        "pitchBends": [],
        "instrument": {
          "family": "reed",
          "number": 70,
          "name": "bassoon"
        },
        "name": "",
        "notes": [
          {
            "duration": 3.9000000000000004,
            "durationTicks": 3744,
            "midi": 60,
            "name": "C4",
            "ticks": 6720,
            "time": 7,
            "velocity": 0.44881889763779526
          },
          {
            "duration": 3.9000000000000004,
            "durationTicks": 3744,
            "midi": 59,
            "name": "B3",
            "ticks": 10560,
            "time": 11,
            "velocity": 0.48031496062992124
          },
          {
            "duration": 0.9000000000000004,
            "durationTicks": 864,
            "midi": 60,
            "name": "C4",
            "ticks": 14400,
            "time": 15,
            "velocity": 0.5039370078740157
          },
          {
            "duration": 0.8999999999999986,
            "durationTicks": 864,
            "midi": 59,
            "name": "B3",
            "ticks": 15360,
            "time": 16,
            "velocity": 0.49606299212598426
          },
          {
            "duration": 0.8999999999999986,
            "durationTicks": 864,
            "midi": 60,
            "name": "C4",
            "ticks": 16320,
            "time": 17,
            "velocity": 0.5118110236220472
          },
          {
            "duration": 0.22604166666666714,
            "durationTicks": 217,
            "midi": 59,
            "name": "B3",
            "ticks": 17280,
            "time": 18,
            "velocity": 0.4094488188976378
          },
          {
            "duration": 0.22604166666666714,
            "durationTicks": 217,
            "midi": 59,
            "name": "B3",
            "ticks": 17520,
            "time": 18.25,
            "velocity": 0.5275590551181102
          },
          {
            "duration": 0.22604166666666714,
            "durationTicks": 217,
            "midi": 59,
            "name": "B3",
            "ticks": 17760,
            "time": 18.5,
            "velocity": 0.5511811023622047
          },
          {
            "duration": 0.22604166666666714,
            "durationTicks": 217,
            "midi": 59,
            "name": "B3",
            "ticks": 18000,
            "time": 18.75,
            "velocity": 0.5669291338582677
          },
          {
            "duration": 0.451041666666665,
            "durationTicks": 433,
            "midi": 60,
            "name": "C4",
            "ticks": 18240,
            "time": 19,
            "velocity": 0.8188976377952756
          },
          {
            "duration": 0.451041666666665,
            "durationTicks": 433,
            "midi": 44,
            "name": "G#2",
            "ticks": 19200,
            "time": 20,
            "velocity": 0.7007874015748031
          },
          {
            "duration": 0.451041666666665,
            "durationTicks": 433,
            "midi": 43,
            "name": "G2",
            "ticks": 20160,
            "time": 21,
            "velocity": 0.6850393700787402
          },
          {
            "duration": 0.22604166666666714,
            "durationTicks": 217,
            "midi": 44,
            "name": "G#2",
            "ticks": 21600,
            "time": 22.5,
            "velocity": 0.6771653543307087
          },
          {
            "duration": 0.22604166666666714,
            "durationTicks": 217,
            "midi": 44,
            "name": "G#2",
            "ticks": 21840,
            "time": 22.75,
            "velocity": 0.7480314960629921
          },
          {
            "duration": 0.22604166666666714,
            "durationTicks": 217,
            "midi": 44,
            "name": "G#2",
            "ticks": 22080,
            "time": 23,
            "velocity": 0.7874015748031497
          },
          {
            "duration": 2.5,
            "durationTicks": 2400,
            "midi": 41,
            "name": "F2",
            "ticks": 22320,
            "time": 23.25,
            "velocity": 0.7401574803149606
          },
          {
            "duration": 1.4510416666666686,
            "durationTicks": 1393,
            "midi": 63,
            "name": "D#4",
            "ticks": 35280,
            "time": 36.75,
            "velocity": 0.968503937007874
          },
          {
            "duration": 1.4510416666666686,
            "durationTicks": 1393,
            "midi": 67,
            "name": "G4",
            "ticks": 35280,
            "time": 36.75,
            "velocity": 0.968503937007874
          },
          {
            "duration": 0.45104166666666856,
            "durationTicks": 433,
            "midi": 59,
            "name": "B3",
            "ticks": 37200,
            "time": 38.75,
            "velocity": 0.8188976377952756
          },
          {
            "duration": 0.45104166666666856,
            "durationTicks": 433,
            "midi": 48,
            "name": "C3",
            "ticks": 38160,
            "time": 39.75,
            "velocity": 0.7874015748031497
          },
          {
            "duration": 0.45104166666666856,
            "durationTicks": 433,
            "midi": 58,
            "name": "A#3",
            "ticks": 38160,
            "time": 39.75,
            "velocity": 0.7874015748031497
          },
          {
            "duration": 0.45104166666666856,
            "durationTicks": 433,
            "midi": 48,
            "name": "C3",
            "ticks": 39120,
            "time": 40.75,
            "velocity": 0.7795275590551181
          },
          {
            "duration": 0.45104166666666856,
            "durationTicks": 433,
            "midi": 56,
            "name": "G#3",
            "ticks": 39120,
            "time": 40.75,
            "velocity": 0.7795275590551181
          },
          {
            "duration": 0.45104166666666856,
            "durationTicks": 433,
            "midi": 48,
            "name": "C3",
            "ticks": 40080,
            "time": 41.75,
            "velocity": 0.7559055118110236
          },
          {
            "duration": 0.45104166666666856,
            "durationTicks": 433,
            "midi": 52,
            "name": "E3",
            "ticks": 40080,
            "time": 41.75,
            "velocity": 0.7559055118110236
          },
          {
            "duration": 0.45104166666666856,
            "durationTicks": 433,
            "midi": 48,
            "name": "C3",
            "ticks": 41040,
            "time": 42.75,
            "velocity": 0.8346456692913385
          },
          {
            "duration": 0.45104166666666856,
            "durationTicks": 433,
            "midi": 53,
            "name": "F3",
            "ticks": 41040,
            "time": 42.75,
            "velocity": 0.8346456692913385
          },
          {
            "duration": 0.45104166666666856,
            "durationTicks": 433,
            "midi": 48,
            "name": "C3",
            "ticks": 42000,
            "time": 43.75,
            "velocity": 0.8031496062992126
          },
          {
            "duration": 0.45104166666666856,
            "durationTicks": 433,
            "midi": 60,
            "name": "C4",
            "ticks": 42000,
            "time": 43.75,
            "velocity": 0.8031496062992126
          },
          {
            "duration": 3.8999999999999986,
            "durationTicks": 3744,
            "midi": 48,
            "name": "C3",
            "ticks": 42960,
            "time": 44.75,
            "velocity": 0.7244094488188977
          },
          {
            "duration": 3.8999999999999986,
            "durationTicks": 3744,
            "midi": 51,
            "name": "D#3",
            "ticks": 42960,
            "time": 44.75,
            "velocity": 0.7244094488188977
          },
          {
            "duration": 3.4510416666666686,
            "durationTicks": 3313,
            "midi": 47,
            "name": "B2",
            "ticks": 46800,
            "time": 48.75,
            "velocity": 0.7874015748031497
          },
          {
            "duration": 3.4510416666666686,
            "durationTicks": 3313,
            "midi": 50,
            "name": "D3",
            "ticks": 46800,
            "time": 48.75,
            "velocity": 0.7874015748031497
          },
          {
            "duration": 0.45104166666666856,
            "durationTicks": 433,
            "midi": 48,
            "name": "C3",
            "ticks": 50160,
            "time": 52.25,
            "velocity": 0.8346456692913385
          },
          {
            "duration": 0.45104166666666856,
            "durationTicks": 433,
            "midi": 51,
            "name": "D#3",
            "ticks": 50160,
            "time": 52.25,
            "velocity": 0.8346456692913385
          },
          {
            "duration": 3.8999999999999986,
            "durationTicks": 3744,
            "midi": 51,
            "name": "D#3",
            "ticks": 50640,
            "time": 52.75,
            "velocity": 1
          },
          {
            "duration": 3.8999999999999986,
            "durationTicks": 3744,
            "midi": 57,
            "name": "A3",
            "ticks": 50640,
            "time": 52.75,
            "velocity": 1
          },
          {
            "duration": 0.45104166666666856,
            "durationTicks": 433,
            "midi": 51,
            "name": "D#3",
            "ticks": 54480,
            "time": 56.75,
            "velocity": 0.8976377952755905
          },
          {
            "duration": 0.45104166666666856,
            "durationTicks": 433,
            "midi": 57,
            "name": "A3",
            "ticks": 54480,
            "time": 56.75,
            "velocity": 0.8976377952755905
          },
          {
            "duration": 0.45104166666666856,
            "durationTicks": 433,
            "midi": 50,
            "name": "D3",
            "ticks": 56400,
            "time": 58.75,
            "velocity": 0.7952755905511811
          },
          {
            "duration": 0.45104166666666856,
            "durationTicks": 433,
            "midi": 53,
            "name": "F3",
            "ticks": 56400,
            "time": 58.75,
            "velocity": 0.7952755905511811
          },
          {
            "duration": 1.1541666666666686,
            "durationTicks": 1108,
            "midi": 55,
            "name": "G3",
            "ticks": 65040,
            "time": 67.75,
            "velocity": 0.44881889763779526
          },
          {
            "duration": 1.1541666666666686,
            "durationTicks": 1108,
            "midi": 58,
            "name": "A#3",
            "ticks": 65040,
            "time": 67.75,
            "velocity": 0.44881889763779526
          },
          {
            "duration": 1.0020833333333314,
            "durationTicks": 962,
            "midi": 53,
            "name": "F3",
            "ticks": 66000,
            "time": 68.75,
            "velocity": 0.44881889763779526
          },
          {
            "duration": 1.0020833333333314,
            "durationTicks": 962,
            "midi": 56,
            "name": "G#3",
            "ticks": 66000,
            "time": 68.75,
            "velocity": 0.44881889763779526
          },
          {
            "duration": 1.1541666666666686,
            "durationTicks": 1108,
            "midi": 46,
            "name": "A#2",
            "ticks": 66960,
            "time": 69.75,
            "velocity": 0.44881889763779526
          },
          {
            "duration": 1.1541666666666686,
            "durationTicks": 1108,
            "midi": 53,
            "name": "F3",
            "ticks": 66960,
            "time": 69.75,
            "velocity": 0.44881889763779526
          },
          {
            "duration": 1.0020833333333314,
            "durationTicks": 962,
            "midi": 51,
            "name": "D#3",
            "ticks": 67920,
            "time": 70.75,
            "velocity": 0.4645669291338583
          },
          {
            "duration": 1.0020833333333314,
            "durationTicks": 962,
            "midi": 55,
            "name": "G3",
            "ticks": 67920,
            "time": 70.75,
            "velocity": 0.4645669291338583
          },
          {
            "duration": 1.1541666666666686,
            "durationTicks": 1108,
            "midi": 55,
            "name": "G3",
            "ticks": 68880,
            "time": 71.75,
            "velocity": 0.49606299212598426
          },
          {
            "duration": 1.1541666666666686,
            "durationTicks": 1108,
            "midi": 58,
            "name": "A#3",
            "ticks": 68880,
            "time": 71.75,
            "velocity": 0.49606299212598426
          },
          {
            "duration": 1.0020833333333314,
            "durationTicks": 962,
            "midi": 53,
            "name": "F3",
            "ticks": 69840,
            "time": 72.75,
            "velocity": 0.4645669291338583
          },
          {
            "duration": 1.0020833333333314,
            "durationTicks": 962,
            "midi": 56,
            "name": "G#3",
            "ticks": 69840,
            "time": 72.75,
            "velocity": 0.4645669291338583
          },
          {
            "duration": 1.1541666666666686,
            "durationTicks": 1108,
            "midi": 46,
            "name": "A#2",
            "ticks": 70800,
            "time": 73.75,
            "velocity": 0.47244094488188976
          },
          {
            "duration": 1.1541666666666686,
            "durationTicks": 1108,
            "midi": 53,
            "name": "F3",
            "ticks": 70800,
            "time": 73.75,
            "velocity": 0.47244094488188976
          },
          {
            "duration": 1.0020833333333314,
            "durationTicks": 962,
            "midi": 51,
            "name": "D#3",
            "ticks": 71760,
            "time": 74.75,
            "velocity": 0.4645669291338583
          },
          {
            "duration": 1.0020833333333314,
            "durationTicks": 962,
            "midi": 55,
            "name": "G3",
            "ticks": 71760,
            "time": 74.75,
            "velocity": 0.4645669291338583
          },
          {
            "duration": 1.109375,
            "durationTicks": 1065,
            "midi": 55,
            "name": "G3",
            "ticks": 72720,
            "time": 75.75,
            "velocity": 0.4645669291338583
          },
          {
            "duration": 1.1541666666666686,
            "durationTicks": 1108,
            "midi": 58,
            "name": "A#3",
            "ticks": 72720,
            "time": 75.75,
            "velocity": 0.4645669291338583
          },
          {
            "duration": 1.0020833333333314,
            "durationTicks": 962,
            "midi": 52,
            "name": "E3",
            "ticks": 73680,
            "time": 76.75,
            "velocity": 0.4409448818897638
          },
          {
            "duration": 1.0020833333333314,
            "durationTicks": 962,
            "midi": 55,
            "name": "G3",
            "ticks": 73680,
            "time": 76.75,
            "velocity": 0.4409448818897638
          },
          {
            "duration": 1.1541666666666686,
            "durationTicks": 1108,
            "midi": 48,
            "name": "C3",
            "ticks": 74640,
            "time": 77.75,
            "velocity": 0.4330708661417323
          },
          {
            "duration": 1.1541666666666686,
            "durationTicks": 1108,
            "midi": 52,
            "name": "E3",
            "ticks": 74640,
            "time": 77.75,
            "velocity": 0.4330708661417323
          },
          {
            "duration": 1.0020833333333314,
            "durationTicks": 962,
            "midi": 53,
            "name": "F3",
            "ticks": 75600,
            "time": 78.75,
            "velocity": 0.47244094488188976
          },
          {
            "duration": 1.0020833333333314,
            "durationTicks": 962,
            "midi": 56,
            "name": "G#3",
            "ticks": 75600,
            "time": 78.75,
            "velocity": 0.47244094488188976
          },
          {
            "duration": 1.1541666666666686,
            "durationTicks": 1108,
            "midi": 56,
            "name": "G#3",
            "ticks": 76560,
            "time": 79.75,
            "velocity": 0.5590551181102362
          },
          {
            "duration": 1.1541666666666686,
            "durationTicks": 1108,
            "midi": 61,
            "name": "C#4",
            "ticks": 76560,
            "time": 79.75,
            "velocity": 0.5590551181102362
          },
          {
            "duration": 1.0020833333333314,
            "durationTicks": 962,
            "midi": 55,
            "name": "G3",
            "ticks": 77520,
            "time": 80.75,
            "velocity": 0.5511811023622047
          },
          {
            "duration": 1.0020833333333314,
            "durationTicks": 962,
            "midi": 58,
            "name": "A#3",
            "ticks": 77520,
            "time": 80.75,
            "velocity": 0.5511811023622047
          },
          {
            "duration": 1.1541666666666686,
            "durationTicks": 1108,
            "midi": 51,
            "name": "D#3",
            "ticks": 78480,
            "time": 81.75,
            "velocity": 0.4409448818897638
          },
          {
            "duration": 1.1541666666666686,
            "durationTicks": 1108,
            "midi": 55,
            "name": "G3",
            "ticks": 78480,
            "time": 81.75,
            "velocity": 0.4409448818897638
          },
          {
            "duration": 1.0020833333333314,
            "durationTicks": 962,
            "midi": 56,
            "name": "G#3",
            "ticks": 79440,
            "time": 82.75,
            "velocity": 0.5196850393700787
          },
          {
            "duration": 1.0020833333333314,
            "durationTicks": 962,
            "midi": 60,
            "name": "C4",
            "ticks": 79440,
            "time": 82.75,
            "velocity": 0.5196850393700787
          },
          {
            "duration": 1.1541666666666686,
            "durationTicks": 1108,
            "midi": 44,
            "name": "G#2",
            "ticks": 80400,
            "time": 83.75,
            "velocity": 0.4566929133858268
          },
          {
            "duration": 1.1541666666666686,
            "durationTicks": 1108,
            "midi": 56,
            "name": "G#3",
            "ticks": 80400,
            "time": 83.75,
            "velocity": 0.4566929133858268
          },
          {
            "duration": 2.1156249999999943,
            "durationTicks": 2031,
            "midi": 45,
            "name": "A2",
            "ticks": 81360,
            "time": 84.75,
            "velocity": 0.4881889763779528
          },
          {
            "duration": 2.1156249999999943,
            "durationTicks": 2031,
            "midi": 57,
            "name": "A3",
            "ticks": 81360,
            "time": 84.75,
            "velocity": 0.4881889763779528
          },
          {
            "duration": 1.9000000000000057,
            "durationTicks": 1824,
            "midi": 46,
            "name": "A#2",
            "ticks": 83280,
            "time": 86.75,
            "velocity": 0.5905511811023622
          },
          {
            "duration": 1.9000000000000057,
            "durationTicks": 1824,
            "midi": 58,
            "name": "A#3",
            "ticks": 83280,
            "time": 86.75,
            "velocity": 0.5905511811023622
          },
          {
            "duration": 1.9000000000000057,
            "durationTicks": 1824,
            "midi": 47,
            "name": "B2",
            "ticks": 85200,
            "time": 88.75,
            "velocity": 0.5433070866141733
          },
          {
            "duration": 1.9000000000000057,
            "durationTicks": 1824,
            "midi": 59,
            "name": "B3",
            "ticks": 85200,
            "time": 88.75,
            "velocity": 0.5433070866141733
          },
          {
            "duration": 2.4510416666666686,
            "durationTicks": 2353,
            "midi": 48,
            "name": "C3",
            "ticks": 87120,
            "time": 90.75,
            "velocity": 0.7165354330708661
          },
          {
            "duration": 2.4510416666666686,
            "durationTicks": 2353,
            "midi": 60,
            "name": "C4",
            "ticks": 87120,
            "time": 90.75,
            "velocity": 0.7165354330708661
          },
          {
            "duration": 0.45104166666666856,
            "durationTicks": 433,
            "midi": 48,
            "name": "C3",
            "ticks": 89520,
            "time": 93.25,
            "velocity": 0.6535433070866141
          },
          {
            "duration": 0.45104166666666856,
            "durationTicks": 433,
            "midi": 60,
            "name": "C4",
            "ticks": 89520,
            "time": 93.25,
            "velocity": 0.6535433070866141
          },
          {
            "duration": 0.45104166666666856,
            "durationTicks": 433,
            "midi": 48,
            "name": "C3",
            "ticks": 90000,
            "time": 93.75,
            "velocity": 0.7795275590551181
          },
          {
            "duration": 0.45104166666666856,
            "durationTicks": 433,
            "midi": 60,
            "name": "C4",
            "ticks": 90000,
            "time": 93.75,
            "velocity": 0.7795275590551181
          },
          {
            "duration": 0.45104166666666856,
            "durationTicks": 433,
            "midi": 48,
            "name": "C3",
            "ticks": 90480,
            "time": 94.25,
            "velocity": 0.7795275590551181
          },
          {
            "duration": 0.45104166666666856,
            "durationTicks": 433,
            "midi": 60,
            "name": "C4",
            "ticks": 90480,
            "time": 94.25,
            "velocity": 0.7795275590551181
          },
          {
            "duration": 1.4510416666666686,
            "durationTicks": 1393,
            "midi": 50,
            "name": "D3",
            "ticks": 90960,
            "time": 94.75,
            "velocity": 0.952755905511811
          },
          {
            "duration": 1.4510416666666686,
            "durationTicks": 1393,
            "midi": 62,
            "name": "D4",
            "ticks": 90960,
            "time": 94.75,
            "velocity": 0.952755905511811
          },
          {
            "duration": 0.45104166666666856,
            "durationTicks": 433,
            "midi": 50,
            "name": "D3",
            "ticks": 92400,
            "time": 96.25,
            "velocity": 0.8188976377952756
          },
          {
            "duration": 0.45104166666666856,
            "durationTicks": 433,
            "midi": 53,
            "name": "F3",
            "ticks": 92400,
            "time": 96.25,
            "velocity": 0.8188976377952756
          },
          {
            "duration": 0.45104166666666856,
            "durationTicks": 433,
            "midi": 51,
            "name": "D#3",
            "ticks": 92880,
            "time": 96.75,
            "velocity": 0.9212598425196851
          },
          {
            "duration": 0.45104166666666856,
            "durationTicks": 433,
            "midi": 55,
            "name": "G3",
            "ticks": 92880,
            "time": 96.75,
            "velocity": 0.9212598425196851
          },
          {
            "duration": 0.45104166666666856,
            "durationTicks": 433,
            "midi": 53,
            "name": "F3",
            "ticks": 93840,
            "time": 97.75,
            "velocity": 0.8031496062992126
          },
          {
            "duration": 0.45104166666666856,
            "durationTicks": 433,
            "midi": 56,
            "name": "G#3",
            "ticks": 93840,
            "time": 97.75,
            "velocity": 0.8031496062992126
          },
          {
            "duration": 0.45104166666666856,
            "durationTicks": 433,
            "midi": 55,
            "name": "G3",
            "ticks": 94800,
            "time": 98.75,
            "velocity": 0.7795275590551181
          },
          {
            "duration": 0.45104166666666856,
            "durationTicks": 433,
            "midi": 58,
            "name": "A#3",
            "ticks": 94800,
            "time": 98.75,
            "velocity": 0.7795275590551181
          },
          {
            "duration": 0.45104166666666856,
            "durationTicks": 433,
            "midi": 56,
            "name": "G#3",
            "ticks": 95760,
            "time": 99.75,
            "velocity": 0.7559055118110236
          },
          {
            "duration": 0.45104166666666856,
            "durationTicks": 433,
            "midi": 60,
            "name": "C4",
            "ticks": 95760,
            "time": 99.75,
            "velocity": 0.7559055118110236
          },
          {
            "duration": 0.45104166666666856,
            "durationTicks": 433,
            "midi": 58,
            "name": "A#3",
            "ticks": 96720,
            "time": 100.75,
            "velocity": 0.8110236220472441
          },
          {
            "duration": 0.45104166666666856,
            "durationTicks": 433,
            "midi": 46,
            "name": "A#2",
            "ticks": 97680,
            "time": 101.75,
            "velocity": 0.8188976377952756
          },
          {
            "duration": 1.4510416666666686,
            "durationTicks": 1393,
            "midi": 65,
            "name": "F4",
            "ticks": 98640,
            "time": 102.75,
            "velocity": 0.8188976377952756
          },
          {
            "duration": 1.4510416666666686,
            "durationTicks": 1393,
            "midi": 68,
            "name": "G#4",
            "ticks": 98640,
            "time": 102.75,
            "velocity": 0.8188976377952756
          },
          {
            "duration": 0.45104166666666856,
            "durationTicks": 433,
            "midi": 58,
            "name": "A#3",
            "ticks": 100080,
            "time": 104.25,
            "velocity": 0.8503937007874016
          },
          {
            "duration": 0.45104166666666856,
            "durationTicks": 433,
            "midi": 65,
            "name": "F4",
            "ticks": 100080,
            "time": 104.25,
            "velocity": 0.8503937007874016
          },
          {
            "duration": 0.45104166666666856,
            "durationTicks": 433,
            "midi": 63,
            "name": "D#4",
            "ticks": 100560,
            "time": 104.75,
            "velocity": 0.9448818897637795
          },
          {
            "duration": 0.45104166666666856,
            "durationTicks": 433,
            "midi": 67,
            "name": "G4",
            "ticks": 100560,
            "time": 104.75,
            "velocity": 0.9448818897637795
          },
          {
            "duration": 0.45104166666666856,
            "durationTicks": 433,
            "midi": 63,
            "name": "D#4",
            "ticks": 101040,
            "time": 105.25,
            "velocity": 0.889763779527559
          },
          {
            "duration": 0.45104166666666856,
            "durationTicks": 433,
            "midi": 67,
            "name": "G4",
            "ticks": 101040,
            "time": 105.25,
            "velocity": 0.889763779527559
          },
          {
            "duration": 0.45104166666666856,
            "durationTicks": 433,
            "midi": 58,
            "name": "A#3",
            "ticks": 102000,
            "time": 106.25,
            "velocity": 0.7952755905511811
          },
          {
            "duration": 0.45104166666666856,
            "durationTicks": 433,
            "midi": 65,
            "name": "F4",
            "ticks": 102000,
            "time": 106.25,
            "velocity": 0.7952755905511811
          },
          {
            "duration": 0.45104166666666856,
            "durationTicks": 433,
            "midi": 58,
            "name": "A#3",
            "ticks": 102960,
            "time": 107.25,
            "velocity": 0.7874015748031497
          },
          {
            "duration": 0.45104166666666856,
            "durationTicks": 433,
            "midi": 63,
            "name": "D#4",
            "ticks": 102960,
            "time": 107.25,
            "velocity": 0.7874015748031497
          },
          {
            "duration": 0.45104166666666856,
            "durationTicks": 433,
            "midi": 56,
            "name": "G#3",
            "ticks": 103920,
            "time": 108.25,
            "velocity": 0.7716535433070866
          },
          {
            "duration": 0.45104166666666856,
            "durationTicks": 433,
            "midi": 60,
            "name": "C4",
            "ticks": 103920,
            "time": 108.25,
            "velocity": 0.7716535433070866
          },
          {
            "duration": 0.45104166666666856,
            "durationTicks": 433,
            "midi": 55,
            "name": "G3",
            "ticks": 104880,
            "time": 109.25,
            "velocity": 0.8031496062992126
          },
          {
            "duration": 0.45104166666666856,
            "durationTicks": 433,
            "midi": 58,
            "name": "A#3",
            "ticks": 104880,
            "time": 109.25,
            "velocity": 0.8031496062992126
          },
          {
            "duration": 0.45104166666666856,
            "durationTicks": 433,
            "midi": 46,
            "name": "A#2",
            "ticks": 105840,
            "time": 110.25,
            "velocity": 0.8188976377952756
          },
          {
            "duration": 0.45104166666666856,
            "durationTicks": 433,
            "midi": 58,
            "name": "A#3",
            "ticks": 105840,
            "time": 110.25,
            "velocity": 0.8188976377952756
          },
          {
            "duration": 0.22604166666666003,
            "durationTicks": 217,
            "midi": 51,
            "name": "D#3",
            "ticks": 106320,
            "time": 110.75,
            "velocity": 1
          },
          {
            "duration": 0.22604166666666003,
            "durationTicks": 217,
            "midi": 63,
            "name": "D#4",
            "ticks": 106320,
            "time": 110.75,
            "velocity": 1
          },
          {
            "duration": 0.22604166666666003,
            "durationTicks": 217,
            "midi": 67,
            "name": "G4",
            "ticks": 106560,
            "time": 111,
            "velocity": 1
          },
          {
            "duration": 0.22604166666666003,
            "durationTicks": 217,
            "midi": 67,
            "name": "G4",
            "ticks": 106800,
            "time": 111.25,
            "velocity": 0.905511811023622
          },
          {
            "duration": 0.22604166666666003,
            "durationTicks": 217,
            "midi": 67,
            "name": "G4",
            "ticks": 107040,
            "time": 111.5,
            "velocity": 0.9212598425196851
          },
          {
            "duration": 0.22604166666666003,
            "durationTicks": 217,
            "midi": 63,
            "name": "D#4",
            "ticks": 107280,
            "time": 111.75,
            "velocity": 0.7952755905511811
          },
          {
            "duration": 0.22604166666666003,
            "durationTicks": 217,
            "midi": 58,
            "name": "A#3",
            "ticks": 107520,
            "time": 112,
            "velocity": 0.8267716535433071
          },
          {
            "duration": 0.22604166666666003,
            "durationTicks": 217,
            "midi": 58,
            "name": "A#3",
            "ticks": 107760,
            "time": 112.25,
            "velocity": 0.905511811023622
          },
          {
            "duration": 0.22604166666666003,
            "durationTicks": 217,
            "midi": 58,
            "name": "A#3",
            "ticks": 108000,
            "time": 112.5,
            "velocity": 0.8740157480314961
          },
          {
            "duration": 0.22604166666666003,
            "durationTicks": 217,
            "midi": 55,
            "name": "G3",
            "ticks": 108240,
            "time": 112.75,
            "velocity": 0.9133858267716536
          },
          {
            "duration": 0.22604166666666003,
            "durationTicks": 217,
            "midi": 51,
            "name": "D#3",
            "ticks": 108480,
            "time": 113,
            "velocity": 0.8267716535433071
          },
          {
            "duration": 0.22604166666666003,
            "durationTicks": 217,
            "midi": 51,
            "name": "D#3",
            "ticks": 108720,
            "time": 113.25,
            "velocity": 0.952755905511811
          },
          {
            "duration": 0.22604166666666003,
            "durationTicks": 217,
            "midi": 51,
            "name": "D#3",
            "ticks": 108960,
            "time": 113.5,
            "velocity": 0.8818897637795275
          },
          {
            "duration": 1.22604166666666,
            "durationTicks": 1177,
            "midi": 46,
            "name": "A#2",
            "ticks": 109200,
            "time": 113.75,
            "velocity": 0.8503937007874016
          },
          {
            "duration": 0.22604166666666003,
            "durationTicks": 217,
            "midi": 67,
            "name": "G4",
            "ticks": 110400,
            "time": 115,
            "velocity": 1
          },
          {
            "duration": 0.22604166666666003,
            "durationTicks": 217,
            "midi": 67,
            "name": "G4",
            "ticks": 110640,
            "time": 115.25,
            "velocity": 0.9212598425196851
          },
          {
            "duration": 0.22604166666666003,
            "durationTicks": 217,
            "midi": 67,
            "name": "G4",
            "ticks": 110880,
            "time": 115.5,
            "velocity": 0.889763779527559
          },
          {
            "duration": 0.22604166666666003,
            "durationTicks": 217,
            "midi": 63,
            "name": "D#4",
            "ticks": 111120,
            "time": 115.75,
            "velocity": 0.7952755905511811
          },
          {
            "duration": 0.22604166666666003,
            "durationTicks": 217,
            "midi": 58,
            "name": "A#3",
            "ticks": 111360,
            "time": 116,
            "velocity": 0.7874015748031497
          },
          {
            "duration": 0.22604166666666003,
            "durationTicks": 217,
            "midi": 58,
            "name": "A#3",
            "ticks": 111600,
            "time": 116.25,
            "velocity": 0.8740157480314961
          },
          {
            "duration": 0.22604166666666003,
            "durationTicks": 217,
            "midi": 58,
            "name": "A#3",
            "ticks": 111840,
            "time": 116.5,
            "velocity": 0.84251968503937
          },
          {
            "duration": 0.22604166666666003,
            "durationTicks": 217,
            "midi": 55,
            "name": "G3",
            "ticks": 112080,
            "time": 116.75,
            "velocity": 0.8582677165354331
          },
          {
            "duration": 0.22604166666666003,
            "durationTicks": 217,
            "midi": 51,
            "name": "D#3",
            "ticks": 112320,
            "time": 117,
            "velocity": 0.8503937007874016
          },
          {
            "duration": 0.22604166666666003,
            "durationTicks": 217,
            "midi": 51,
            "name": "D#3",
            "ticks": 112560,
            "time": 117.25,
            "velocity": 0.8818897637795275
          },
          {
            "duration": 0.22604166666666003,
            "durationTicks": 217,
            "midi": 51,
            "name": "D#3",
            "ticks": 112800,
            "time": 117.5,
            "velocity": 0.889763779527559
          },
          {
            "duration": 1.4510416666666686,
            "durationTicks": 1393,
            "midi": 46,
            "name": "A#2",
            "ticks": 113040,
            "time": 117.75,
            "velocity": 0.8110236220472441
          },
          {
            "duration": 0.22604166666666003,
            "durationTicks": 217,
            "midi": 58,
            "name": "A#3",
            "ticks": 115200,
            "time": 120,
            "velocity": 0.8110236220472441
          },
          {
            "duration": 0.22604166666666003,
            "durationTicks": 217,
            "midi": 62,
            "name": "D4",
            "ticks": 115200,
            "time": 120,
            "velocity": 0.8110236220472441
          },
          {
            "duration": 0.22604166666666003,
            "durationTicks": 217,
            "midi": 58,
            "name": "A#3",
            "ticks": 115440,
            "time": 120.25,
            "velocity": 0.8740157480314961
          },
          {
            "duration": 0.22604166666666003,
            "durationTicks": 217,
            "midi": 62,
            "name": "D4",
            "ticks": 115440,
            "time": 120.25,
            "velocity": 0.8740157480314961
          },
          {
            "duration": 0.22604166666666003,
            "durationTicks": 217,
            "midi": 58,
            "name": "A#3",
            "ticks": 115680,
            "time": 120.5,
            "velocity": 0.8818897637795275
          },
          {
            "duration": 0.22604166666666003,
            "durationTicks": 217,
            "midi": 62,
            "name": "D4",
            "ticks": 115680,
            "time": 120.5,
            "velocity": 0.8818897637795275
          },
          {
            "duration": 0.45104166666666856,
            "durationTicks": 433,
            "midi": 58,
            "name": "A#3",
            "ticks": 115920,
            "time": 120.75,
            "velocity": 0.8976377952755905
          },
          {
            "duration": 0.45104166666666856,
            "durationTicks": 433,
            "midi": 63,
            "name": "D#4",
            "ticks": 115920,
            "time": 120.75,
            "velocity": 0.8976377952755905
          },
          {
            "duration": 0.22604166666666003,
            "durationTicks": 217,
            "midi": 46,
            "name": "A#2",
            "ticks": 117120,
            "time": 122,
            "velocity": 0.7874015748031497
          },
          {
            "duration": 0.22604166666666003,
            "durationTicks": 217,
            "midi": 46,
            "name": "A#2",
            "ticks": 117360,
            "time": 122.25,
            "velocity": 0.8740157480314961
          },
          {
            "duration": 0.22604166666666003,
            "durationTicks": 217,
            "midi": 46,
            "name": "A#2",
            "ticks": 117600,
            "time": 122.5,
            "velocity": 0.905511811023622
          },
          {
            "duration": 0.45104166666666856,
            "durationTicks": 433,
            "midi": 51,
            "name": "D#3",
            "ticks": 117840,
            "time": 122.75,
            "velocity": 0.9606299212598425
          },
          {
            "duration": 3.9000000000000057,
            "durationTicks": 3744,
            "midi": 60,
            "name": "C4",
            "ticks": 127440,
            "time": 132.75,
            "velocity": 0.4330708661417323
          },
          {
            "duration": 3.9000000000000057,
            "durationTicks": 3744,
            "midi": 59,
            "name": "B3",
            "ticks": 131280,
            "time": 136.75,
            "velocity": 0.5118110236220472
          },
          {
            "duration": 0.9000000000000057,
            "durationTicks": 864,
            "midi": 60,
            "name": "C4",
            "ticks": 135120,
            "time": 140.75,
            "velocity": 0.5275590551181102
          },
          {
            "duration": 0.9000000000000057,
            "durationTicks": 864,
            "midi": 59,
            "name": "B3",
            "ticks": 136080,
            "time": 141.75,
            "velocity": 0.47244094488188976
          },
          {
            "duration": 0.9000000000000057,
            "durationTicks": 864,
            "midi": 60,
            "name": "C4",
            "ticks": 137040,
            "time": 142.75,
            "velocity": 0.4881889763779528
          },
          {
            "duration": 0.22604166666667425,
            "durationTicks": 217,
            "midi": 59,
            "name": "B3",
            "ticks": 138000,
            "time": 143.75,
            "velocity": 0.4645669291338583
          },
          {
            "duration": 0.22604166666667425,
            "durationTicks": 217,
            "midi": 59,
            "name": "B3",
            "ticks": 138240,
            "time": 144,
            "velocity": 0.48031496062992124
          },
          {
            "duration": 0.22604166666667425,
            "durationTicks": 217,
            "midi": 59,
            "name": "B3",
            "ticks": 138480,
            "time": 144.25,
            "velocity": 0.5354330708661418
          },
          {
            "duration": 0.22604166666667425,
            "durationTicks": 217,
            "midi": 59,
            "name": "B3",
            "ticks": 138720,
            "time": 144.5,
            "velocity": 0.6377952755905512
          },
          {
            "duration": 0.45104166666666856,
            "durationTicks": 433,
            "midi": 60,
            "name": "C4",
            "ticks": 138960,
            "time": 144.75,
            "velocity": 0.7952755905511811
          },
          {
            "duration": 0.45104166666666856,
            "durationTicks": 433,
            "midi": 44,
            "name": "G#2",
            "ticks": 139920,
            "time": 145.75,
            "velocity": 0.6929133858267716
          },
          {
            "duration": 0.45104166666666856,
            "durationTicks": 433,
            "midi": 43,
            "name": "G2",
            "ticks": 140880,
            "time": 146.75,
            "velocity": 0.6929133858267716
          },
          {
            "duration": 0.22604166666667425,
            "durationTicks": 217,
            "midi": 44,
            "name": "G#2",
            "ticks": 142320,
            "time": 148.25,
            "velocity": 0.7086614173228346
          },
          {
            "duration": 0.22604166666667425,
            "durationTicks": 217,
            "midi": 44,
            "name": "G#2",
            "ticks": 142560,
            "time": 148.5,
            "velocity": 0.7480314960629921
          },
          {
            "duration": 0.22604166666667425,
            "durationTicks": 217,
            "midi": 44,
            "name": "G#2",
            "ticks": 142800,
            "time": 148.75,
            "velocity": 0.7401574803149606
          },
          {
            "duration": 2.5,
            "durationTicks": 2400,
            "midi": 41,
            "name": "F2",
            "ticks": 143040,
            "time": 149,
            "velocity": 0.7401574803149606
          },
          {
            "duration": 1.4510416666666686,
            "durationTicks": 1393,
            "midi": 63,
            "name": "D#4",
            "ticks": 156000,
            "time": 162.5,
            "velocity": 0.952755905511811
          },
          {
            "duration": 1.4510416666666686,
            "durationTicks": 1393,
            "midi": 67,
            "name": "G4",
            "ticks": 156000,
            "time": 162.5,
            "velocity": 0.952755905511811
          },
          {
            "duration": 0.45104166666666856,
            "durationTicks": 433,
            "midi": 59,
            "name": "B3",
            "ticks": 157920,
            "time": 164.5,
            "velocity": 0.7716535433070866
          },
          {
            "duration": 0.45104166666666856,
            "durationTicks": 433,
            "midi": 48,
            "name": "C3",
            "ticks": 158880,
            "time": 165.5,
            "velocity": 0.7795275590551181
          },
          {
            "duration": 0.45104166666666856,
            "durationTicks": 433,
            "midi": 58,
            "name": "A#3",
            "ticks": 158880,
            "time": 165.5,
            "velocity": 0.7795275590551181
          },
          {
            "duration": 0.45104166666666856,
            "durationTicks": 433,
            "midi": 48,
            "name": "C3",
            "ticks": 159840,
            "time": 166.5,
            "velocity": 0.8188976377952756
          },
          {
            "duration": 0.45104166666666856,
            "durationTicks": 433,
            "midi": 56,
            "name": "G#3",
            "ticks": 159840,
            "time": 166.5,
            "velocity": 0.8188976377952756
          },
          {
            "duration": 0.45104166666666856,
            "durationTicks": 433,
            "midi": 48,
            "name": "C3",
            "ticks": 160800,
            "time": 167.5,
            "velocity": 0.7795275590551181
          },
          {
            "duration": 0.45104166666666856,
            "durationTicks": 433,
            "midi": 52,
            "name": "E3",
            "ticks": 160800,
            "time": 167.5,
            "velocity": 0.7795275590551181
          },
          {
            "duration": 0.45104166666666856,
            "durationTicks": 433,
            "midi": 48,
            "name": "C3",
            "ticks": 161760,
            "time": 168.5,
            "velocity": 0.7637795275590551
          },
          {
            "duration": 0.45104166666666856,
            "durationTicks": 433,
            "midi": 53,
            "name": "F3",
            "ticks": 161760,
            "time": 168.5,
            "velocity": 0.7637795275590551
          },
          {
            "duration": 0.45104166666666856,
            "durationTicks": 433,
            "midi": 48,
            "name": "C3",
            "ticks": 162720,
            "time": 169.5,
            "velocity": 0.8188976377952756
          },
          {
            "duration": 0.45104166666666856,
            "durationTicks": 433,
            "midi": 60,
            "name": "C4",
            "ticks": 162720,
            "time": 169.5,
            "velocity": 0.8188976377952756
          },
          {
            "duration": 3.9000000000000057,
            "durationTicks": 3744,
            "midi": 48,
            "name": "C3",
            "ticks": 163680,
            "time": 170.5,
            "velocity": 0.6850393700787402
          },
          {
            "duration": 3.9000000000000057,
            "durationTicks": 3744,
            "midi": 51,
            "name": "D#3",
            "ticks": 163680,
            "time": 170.5,
            "velocity": 0.6850393700787402
          },
          {
            "duration": 3.4510416666666686,
            "durationTicks": 3313,
            "midi": 47,
            "name": "B2",
            "ticks": 167520,
            "time": 174.5,
            "velocity": 0.7244094488188977
          },
          {
            "duration": 3.4510416666666686,
            "durationTicks": 3313,
            "midi": 50,
            "name": "D3",
            "ticks": 167520,
            "time": 174.5,
            "velocity": 0.7244094488188977
          },
          {
            "duration": 0.45104166666666856,
            "durationTicks": 433,
            "midi": 48,
            "name": "C3",
            "ticks": 170880,
            "time": 178,
            "velocity": 0.8110236220472441
          },
          {
            "duration": 0.45104166666666856,
            "durationTicks": 433,
            "midi": 51,
            "name": "D#3",
            "ticks": 170880,
            "time": 178,
            "velocity": 0.8110236220472441
          },
          {
            "duration": 3.9000000000000057,
            "durationTicks": 3744,
            "midi": 51,
            "name": "D#3",
            "ticks": 171360,
            "time": 178.5,
            "velocity": 0.968503937007874
          },
          {
            "duration": 3.9000000000000057,
            "durationTicks": 3744,
            "midi": 57,
            "name": "A3",
            "ticks": 171360,
            "time": 178.5,
            "velocity": 0.968503937007874
          },
          {
            "duration": 0.45104166666666856,
            "durationTicks": 433,
            "midi": 51,
            "name": "D#3",
            "ticks": 175200,
            "time": 182.5,
            "velocity": 0.8976377952755905
          },
          {
            "duration": 0.45104166666666856,
            "durationTicks": 433,
            "midi": 57,
            "name": "A3",
            "ticks": 175200,
            "time": 182.5,
            "velocity": 0.8976377952755905
          },
          {
            "duration": 0.45104166666666856,
            "durationTicks": 433,
            "midi": 50,
            "name": "D3",
            "ticks": 177120,
            "time": 184.5,
            "velocity": 0.7874015748031497
          },
          {
            "duration": 0.45104166666666856,
            "durationTicks": 433,
            "midi": 53,
            "name": "F3",
            "ticks": 177120,
            "time": 184.5,
            "velocity": 0.7874015748031497
          },
          {
            "duration": 1.1541666666666686,
            "durationTicks": 1108,
            "midi": 55,
            "name": "G3",
            "ticks": 185760,
            "time": 193.5,
            "velocity": 0.4645669291338583
          },
          {
            "duration": 1.1541666666666686,
            "durationTicks": 1108,
            "midi": 58,
            "name": "A#3",
            "ticks": 185760,
            "time": 193.5,
            "velocity": 0.4645669291338583
          },
          {
            "duration": 1.0020833333333314,
            "durationTicks": 962,
            "midi": 53,
            "name": "F3",
            "ticks": 186720,
            "time": 194.5,
            "velocity": 0.44881889763779526
          },
          {
            "duration": 1.0020833333333314,
            "durationTicks": 962,
            "midi": 56,
            "name": "G#3",
            "ticks": 186720,
            "time": 194.5,
            "velocity": 0.44881889763779526
          },
          {
            "duration": 1.1541666666666686,
            "durationTicks": 1108,
            "midi": 46,
            "name": "A#2",
            "ticks": 187680,
            "time": 195.5,
            "velocity": 0.47244094488188976
          },
          {
            "duration": 1.1541666666666686,
            "durationTicks": 1108,
            "midi": 53,
            "name": "F3",
            "ticks": 187680,
            "time": 195.5,
            "velocity": 0.47244094488188976
          },
          {
            "duration": 1.0020833333333314,
            "durationTicks": 962,
            "midi": 51,
            "name": "D#3",
            "ticks": 188640,
            "time": 196.5,
            "velocity": 0.48031496062992124
          },
          {
            "duration": 1.0020833333333314,
            "durationTicks": 962,
            "midi": 55,
            "name": "G3",
            "ticks": 188640,
            "time": 196.5,
            "velocity": 0.48031496062992124
          },
          {
            "duration": 1.1541666666666686,
            "durationTicks": 1108,
            "midi": 55,
            "name": "G3",
            "ticks": 189600,
            "time": 197.5,
            "velocity": 0.5039370078740157
          },
          {
            "duration": 1.1541666666666686,
            "durationTicks": 1108,
            "midi": 58,
            "name": "A#3",
            "ticks": 189600,
            "time": 197.5,
            "velocity": 0.5039370078740157
          },
          {
            "duration": 1.0020833333333314,
            "durationTicks": 962,
            "midi": 53,
            "name": "F3",
            "ticks": 190560,
            "time": 198.5,
            "velocity": 0.5196850393700787
          },
          {
            "duration": 1.0020833333333314,
            "durationTicks": 962,
            "midi": 56,
            "name": "G#3",
            "ticks": 190560,
            "time": 198.5,
            "velocity": 0.5196850393700787
          },
          {
            "duration": 1.1541666666666686,
            "durationTicks": 1108,
            "midi": 46,
            "name": "A#2",
            "ticks": 191520,
            "time": 199.5,
            "velocity": 0.47244094488188976
          },
          {
            "duration": 1.1541666666666686,
            "durationTicks": 1108,
            "midi": 53,
            "name": "F3",
            "ticks": 191520,
            "time": 199.5,
            "velocity": 0.47244094488188976
          },
          {
            "duration": 1.0020833333333314,
            "durationTicks": 962,
            "midi": 51,
            "name": "D#3",
            "ticks": 192480,
            "time": 200.5,
            "velocity": 0.49606299212598426
          },
          {
            "duration": 1.0020833333333314,
            "durationTicks": 962,
            "midi": 55,
            "name": "G3",
            "ticks": 192480,
            "time": 200.5,
            "velocity": 0.49606299212598426
          },
          {
            "duration": 1.109375,
            "durationTicks": 1065,
            "midi": 55,
            "name": "G3",
            "ticks": 193440,
            "time": 201.5,
            "velocity": 0.5118110236220472
          },
          {
            "duration": 1.1541666666666686,
            "durationTicks": 1108,
            "midi": 58,
            "name": "A#3",
            "ticks": 193440,
            "time": 201.5,
            "velocity": 0.5118110236220472
          },
          {
            "duration": 1.0020833333333314,
            "durationTicks": 962,
            "midi": 52,
            "name": "E3",
            "ticks": 194400,
            "time": 202.5,
            "velocity": 0.4881889763779528
          },
          {
            "duration": 1.0020833333333314,
            "durationTicks": 962,
            "midi": 55,
            "name": "G3",
            "ticks": 194400,
            "time": 202.5,
            "velocity": 0.4881889763779528
          },
          {
            "duration": 1.1541666666666686,
            "durationTicks": 1108,
            "midi": 48,
            "name": "C3",
            "ticks": 195360,
            "time": 203.5,
            "velocity": 0.4566929133858268
          },
          {
            "duration": 1.1541666666666686,
            "durationTicks": 1108,
            "midi": 52,
            "name": "E3",
            "ticks": 195360,
            "time": 203.5,
            "velocity": 0.4566929133858268
          },
          {
            "duration": 1.0020833333333314,
            "durationTicks": 962,
            "midi": 53,
            "name": "F3",
            "ticks": 196320,
            "time": 204.5,
            "velocity": 0.5118110236220472
          },
          {
            "duration": 1.0020833333333314,
            "durationTicks": 962,
            "midi": 56,
            "name": "G#3",
            "ticks": 196320,
            "time": 204.5,
            "velocity": 0.5118110236220472
          },
          {
            "duration": 1.1541666666666686,
            "durationTicks": 1108,
            "midi": 56,
            "name": "G#3",
            "ticks": 197280,
            "time": 205.5,
            "velocity": 0.5354330708661418
          },
          {
            "duration": 1.1541666666666686,
            "durationTicks": 1108,
            "midi": 61,
            "name": "C#4",
            "ticks": 197280,
            "time": 205.5,
            "velocity": 0.5354330708661418
          },
          {
            "duration": 1.0020833333333314,
            "durationTicks": 962,
            "midi": 55,
            "name": "G3",
            "ticks": 198240,
            "time": 206.5,
            "velocity": 0.5118110236220472
          },
          {
            "duration": 1.0020833333333314,
            "durationTicks": 962,
            "midi": 58,
            "name": "A#3",
            "ticks": 198240,
            "time": 206.5,
            "velocity": 0.5118110236220472
          },
          {
            "duration": 1.1541666666666686,
            "durationTicks": 1108,
            "midi": 51,
            "name": "D#3",
            "ticks": 199200,
            "time": 207.5,
            "velocity": 0.4645669291338583
          },
          {
            "duration": 1.1541666666666686,
            "durationTicks": 1108,
            "midi": 55,
            "name": "G3",
            "ticks": 199200,
            "time": 207.5,
            "velocity": 0.4645669291338583
          },
          {
            "duration": 1.0020833333333314,
            "durationTicks": 962,
            "midi": 56,
            "name": "G#3",
            "ticks": 200160,
            "time": 208.5,
            "velocity": 0.5039370078740157
          },
          {
            "duration": 1.0020833333333314,
            "durationTicks": 962,
            "midi": 60,
            "name": "C4",
            "ticks": 200160,
            "time": 208.5,
            "velocity": 0.5039370078740157
          },
          {
            "duration": 1.1541666666666686,
            "durationTicks": 1108,
            "midi": 44,
            "name": "G#2",
            "ticks": 201120,
            "time": 209.5,
            "velocity": 0.4330708661417323
          },
          {
            "duration": 1.1541666666666686,
            "durationTicks": 1108,
            "midi": 56,
            "name": "G#3",
            "ticks": 201120,
            "time": 209.5,
            "velocity": 0.4330708661417323
          },
          {
            "duration": 2.1156249999999943,
            "durationTicks": 2031,
            "midi": 45,
            "name": "A2",
            "ticks": 202080,
            "time": 210.5,
            "velocity": 0.4251968503937008
          },
          {
            "duration": 2.1156249999999943,
            "durationTicks": 2031,
            "midi": 57,
            "name": "A3",
            "ticks": 202080,
            "time": 210.5,
            "velocity": 0.4251968503937008
          },
          {
            "duration": 1.9000000000000057,
            "durationTicks": 1824,
            "midi": 46,
            "name": "A#2",
            "ticks": 204000,
            "time": 212.5,
            "velocity": 0.5433070866141733
          },
          {
            "duration": 1.9000000000000057,
            "durationTicks": 1824,
            "midi": 58,
            "name": "A#3",
            "ticks": 204000,
            "time": 212.5,
            "velocity": 0.5433070866141733
          },
          {
            "duration": 1.9000000000000057,
            "durationTicks": 1824,
            "midi": 47,
            "name": "B2",
            "ticks": 205920,
            "time": 214.5,
            "velocity": 0.5748031496062992
          },
          {
            "duration": 1.9000000000000057,
            "durationTicks": 1824,
            "midi": 59,
            "name": "B3",
            "ticks": 205920,
            "time": 214.5,
            "velocity": 0.5748031496062992
          },
          {
            "duration": 2.4510416666666686,
            "durationTicks": 2353,
            "midi": 48,
            "name": "C3",
            "ticks": 207840,
            "time": 216.5,
            "velocity": 0.6929133858267716
          },
          {
            "duration": 2.4510416666666686,
            "durationTicks": 2353,
            "midi": 60,
            "name": "C4",
            "ticks": 207840,
            "time": 216.5,
            "velocity": 0.6929133858267716
          },
          {
            "duration": 0.45104166666666856,
            "durationTicks": 433,
            "midi": 48,
            "name": "C3",
            "ticks": 210240,
            "time": 219,
            "velocity": 0.6456692913385826
          },
          {
            "duration": 0.45104166666666856,
            "durationTicks": 433,
            "midi": 60,
            "name": "C4",
            "ticks": 210240,
            "time": 219,
            "velocity": 0.6456692913385826
          },
          {
            "duration": 0.45104166666666856,
            "durationTicks": 433,
            "midi": 48,
            "name": "C3",
            "ticks": 210720,
            "time": 219.5,
            "velocity": 0.7716535433070866
          },
          {
            "duration": 0.45104166666666856,
            "durationTicks": 433,
            "midi": 60,
            "name": "C4",
            "ticks": 210720,
            "time": 219.5,
            "velocity": 0.7716535433070866
          },
          {
            "duration": 0.45104166666666856,
            "durationTicks": 433,
            "midi": 48,
            "name": "C3",
            "ticks": 211200,
            "time": 220,
            "velocity": 0.7874015748031497
          },
          {
            "duration": 0.45104166666666856,
            "durationTicks": 433,
            "midi": 60,
            "name": "C4",
            "ticks": 211200,
            "time": 220,
            "velocity": 0.7874015748031497
          },
          {
            "duration": 1.4510416666666686,
            "durationTicks": 1393,
            "midi": 50,
            "name": "D3",
            "ticks": 211680,
            "time": 220.5,
            "velocity": 0.9291338582677166
          },
          {
            "duration": 1.4510416666666686,
            "durationTicks": 1393,
            "midi": 62,
            "name": "D4",
            "ticks": 211680,
            "time": 220.5,
            "velocity": 0.9291338582677166
          },
          {
            "duration": 0.45104166666666856,
            "durationTicks": 433,
            "midi": 50,
            "name": "D3",
            "ticks": 213120,
            "time": 222,
            "velocity": 0.7795275590551181
          },
          {
            "duration": 0.45104166666666856,
            "durationTicks": 433,
            "midi": 53,
            "name": "F3",
            "ticks": 213120,
            "time": 222,
            "velocity": 0.7795275590551181
          },
          {
            "duration": 0.45104166666666856,
            "durationTicks": 433,
            "midi": 51,
            "name": "D#3",
            "ticks": 213600,
            "time": 222.5,
            "velocity": 0.8740157480314961
          },
          {
            "duration": 0.45104166666666856,
            "durationTicks": 433,
            "midi": 55,
            "name": "G3",
            "ticks": 213600,
            "time": 222.5,
            "velocity": 0.8740157480314961
          },
          {
            "duration": 0.45104166666666856,
            "durationTicks": 433,
            "midi": 53,
            "name": "F3",
            "ticks": 214560,
            "time": 223.5,
            "velocity": 0.8110236220472441
          },
          {
            "duration": 0.45104166666666856,
            "durationTicks": 433,
            "midi": 56,
            "name": "G#3",
            "ticks": 214560,
            "time": 223.5,
            "velocity": 0.8110236220472441
          },
          {
            "duration": 0.45104166666666856,
            "durationTicks": 433,
            "midi": 55,
            "name": "G3",
            "ticks": 215520,
            "time": 224.5,
            "velocity": 0.8031496062992126
          },
          {
            "duration": 0.45104166666666856,
            "durationTicks": 433,
            "midi": 58,
            "name": "A#3",
            "ticks": 215520,
            "time": 224.5,
            "velocity": 0.8031496062992126
          },
          {
            "duration": 0.45104166666666856,
            "durationTicks": 433,
            "midi": 56,
            "name": "G#3",
            "ticks": 216480,
            "time": 225.5,
            "velocity": 0.8031496062992126
          },
          {
            "duration": 0.45104166666666856,
            "durationTicks": 433,
            "midi": 60,
            "name": "C4",
            "ticks": 216480,
            "time": 225.5,
            "velocity": 0.8031496062992126
          },
          {
            "duration": 0.45104166666666856,
            "durationTicks": 433,
            "midi": 58,
            "name": "A#3",
            "ticks": 217440,
            "time": 226.5,
            "velocity": 0.7637795275590551
          },
          {
            "duration": 0.45104166666666856,
            "durationTicks": 433,
            "midi": 46,
            "name": "A#2",
            "ticks": 218400,
            "time": 227.5,
            "velocity": 0.8110236220472441
          },
          {
            "duration": 1.4510416666666686,
            "durationTicks": 1393,
            "midi": 65,
            "name": "F4",
            "ticks": 219360,
            "time": 228.5,
            "velocity": 0.8267716535433071
          },
          {
            "duration": 1.4510416666666686,
            "durationTicks": 1393,
            "midi": 68,
            "name": "G#4",
            "ticks": 219360,
            "time": 228.5,
            "velocity": 0.8267716535433071
          },
          {
            "duration": 0.45104166666666856,
            "durationTicks": 433,
            "midi": 58,
            "name": "A#3",
            "ticks": 220800,
            "time": 230,
            "velocity": 0.8346456692913385
          },
          {
            "duration": 0.45104166666666856,
            "durationTicks": 433,
            "midi": 65,
            "name": "F4",
            "ticks": 220800,
            "time": 230,
            "velocity": 0.8346456692913385
          },
          {
            "duration": 0.45104166666666856,
            "durationTicks": 433,
            "midi": 63,
            "name": "D#4",
            "ticks": 221280,
            "time": 230.5,
            "velocity": 0.9133858267716536
          },
          {
            "duration": 0.45104166666666856,
            "durationTicks": 433,
            "midi": 67,
            "name": "G4",
            "ticks": 221280,
            "time": 230.5,
            "velocity": 0.9133858267716536
          },
          {
            "duration": 0.45104166666666856,
            "durationTicks": 433,
            "midi": 63,
            "name": "D#4",
            "ticks": 221760,
            "time": 231,
            "velocity": 0.9133858267716536
          },
          {
            "duration": 0.45104166666666856,
            "durationTicks": 433,
            "midi": 67,
            "name": "G4",
            "ticks": 221760,
            "time": 231,
            "velocity": 0.9133858267716536
          },
          {
            "duration": 0.45104166666666856,
            "durationTicks": 433,
            "midi": 58,
            "name": "A#3",
            "ticks": 222720,
            "time": 232,
            "velocity": 0.7637795275590551
          },
          {
            "duration": 0.45104166666666856,
            "durationTicks": 433,
            "midi": 65,
            "name": "F4",
            "ticks": 222720,
            "time": 232,
            "velocity": 0.7637795275590551
          },
          {
            "duration": 0.45104166666666856,
            "durationTicks": 433,
            "midi": 58,
            "name": "A#3",
            "ticks": 223680,
            "time": 233,
            "velocity": 0.8110236220472441
          },
          {
            "duration": 0.45104166666666856,
            "durationTicks": 433,
            "midi": 63,
            "name": "D#4",
            "ticks": 223680,
            "time": 233,
            "velocity": 0.8110236220472441
          },
          {
            "duration": 0.45104166666666856,
            "durationTicks": 433,
            "midi": 56,
            "name": "G#3",
            "ticks": 224640,
            "time": 234,
            "velocity": 0.8031496062992126
          },
          {
            "duration": 0.45104166666666856,
            "durationTicks": 433,
            "midi": 60,
            "name": "C4",
            "ticks": 224640,
            "time": 234,
            "velocity": 0.8031496062992126
          },
          {
            "duration": 0.45104166666666856,
            "durationTicks": 433,
            "midi": 55,
            "name": "G3",
            "ticks": 225600,
            "time": 235,
            "velocity": 0.8031496062992126
          },
          {
            "duration": 0.45104166666666856,
            "durationTicks": 433,
            "midi": 58,
            "name": "A#3",
            "ticks": 225600,
            "time": 235,
            "velocity": 0.8031496062992126
          },
          {
            "duration": 0.45104166666666856,
            "durationTicks": 433,
            "midi": 46,
            "name": "A#2",
            "ticks": 226560,
            "time": 236,
            "velocity": 0.7952755905511811
          },
          {
            "duration": 0.45104166666666856,
            "durationTicks": 433,
            "midi": 58,
            "name": "A#3",
            "ticks": 226560,
            "time": 236,
            "velocity": 0.7952755905511811
          },
          {
            "duration": 0.22604166666667425,
            "durationTicks": 217,
            "midi": 51,
            "name": "D#3",
            "ticks": 227040,
            "time": 236.5,
            "velocity": 0.9921259842519685
          },
          {
            "duration": 0.22604166666667425,
            "durationTicks": 217,
            "midi": 63,
            "name": "D#4",
            "ticks": 227040,
            "time": 236.5,
            "velocity": 0.9921259842519685
          },
          {
            "duration": 0.22604166666667425,
            "durationTicks": 217,
            "midi": 67,
            "name": "G4",
            "ticks": 227280,
            "time": 236.75,
            "velocity": 1
          },
          {
            "duration": 0.22604166666667425,
            "durationTicks": 217,
            "midi": 67,
            "name": "G4",
            "ticks": 227520,
            "time": 237,
            "velocity": 0.9212598425196851
          },
          {
            "duration": 0.22604166666667425,
            "durationTicks": 217,
            "midi": 67,
            "name": "G4",
            "ticks": 227760,
            "time": 237.25,
            "velocity": 0.8818897637795275
          },
          {
            "duration": 0.22604166666667425,
            "durationTicks": 217,
            "midi": 63,
            "name": "D#4",
            "ticks": 228000,
            "time": 237.5,
            "velocity": 0.7795275590551181
          },
          {
            "duration": 0.22604166666667425,
            "durationTicks": 217,
            "midi": 58,
            "name": "A#3",
            "ticks": 228240,
            "time": 237.75,
            "velocity": 0.8188976377952756
          },
          {
            "duration": 0.22604166666667425,
            "durationTicks": 217,
            "midi": 58,
            "name": "A#3",
            "ticks": 228480,
            "time": 238,
            "velocity": 0.9212598425196851
          },
          {
            "duration": 0.22604166666667425,
            "durationTicks": 217,
            "midi": 58,
            "name": "A#3",
            "ticks": 228720,
            "time": 238.25,
            "velocity": 0.8661417322834646
          },
          {
            "duration": 0.22604166666667425,
            "durationTicks": 217,
            "midi": 55,
            "name": "G3",
            "ticks": 228960,
            "time": 238.5,
            "velocity": 0.84251968503937
          },
          {
            "duration": 0.22604166666667425,
            "durationTicks": 217,
            "midi": 51,
            "name": "D#3",
            "ticks": 229200,
            "time": 238.75,
            "velocity": 0.8503937007874016
          },
          {
            "duration": 0.22604166666667425,
            "durationTicks": 217,
            "midi": 51,
            "name": "D#3",
            "ticks": 229440,
            "time": 239,
            "velocity": 0.889763779527559
          },
          {
            "duration": 0.22604166666667425,
            "durationTicks": 217,
            "midi": 51,
            "name": "D#3",
            "ticks": 229680,
            "time": 239.25,
            "velocity": 0.8503937007874016
          },
          {
            "duration": 1.2260416666666742,
            "durationTicks": 1177,
            "midi": 46,
            "name": "A#2",
            "ticks": 229920,
            "time": 239.5,
            "velocity": 0.8267716535433071
          },
          {
            "duration": 0.22604166666667425,
            "durationTicks": 217,
            "midi": 67,
            "name": "G4",
            "ticks": 231120,
            "time": 240.75,
            "velocity": 1
          },
          {
            "duration": 0.22604166666667425,
            "durationTicks": 217,
            "midi": 67,
            "name": "G4",
            "ticks": 231360,
            "time": 241,
            "velocity": 0.9448818897637795
          },
          {
            "duration": 0.22604166666667425,
            "durationTicks": 217,
            "midi": 67,
            "name": "G4",
            "ticks": 231600,
            "time": 241.25,
            "velocity": 0.8818897637795275
          },
          {
            "duration": 0.22604166666667425,
            "durationTicks": 217,
            "midi": 63,
            "name": "D#4",
            "ticks": 231840,
            "time": 241.5,
            "velocity": 0.7952755905511811
          },
          {
            "duration": 0.22604166666667425,
            "durationTicks": 217,
            "midi": 58,
            "name": "A#3",
            "ticks": 232080,
            "time": 241.75,
            "velocity": 0.8346456692913385
          },
          {
            "duration": 0.22604166666667425,
            "durationTicks": 217,
            "midi": 58,
            "name": "A#3",
            "ticks": 232320,
            "time": 242,
            "velocity": 0.8582677165354331
          },
          {
            "duration": 0.22604166666667425,
            "durationTicks": 217,
            "midi": 58,
            "name": "A#3",
            "ticks": 232560,
            "time": 242.25,
            "velocity": 0.8740157480314961
          },
          {
            "duration": 0.22604166666667425,
            "durationTicks": 217,
            "midi": 55,
            "name": "G3",
            "ticks": 232800,
            "time": 242.5,
            "velocity": 0.8661417322834646
          },
          {
            "duration": 0.22604166666667425,
            "durationTicks": 217,
            "midi": 51,
            "name": "D#3",
            "ticks": 233040,
            "time": 242.75,
            "velocity": 0.7952755905511811
          },
          {
            "duration": 0.22604166666667425,
            "durationTicks": 217,
            "midi": 51,
            "name": "D#3",
            "ticks": 233280,
            "time": 243,
            "velocity": 0.937007874015748
          },
          {
            "duration": 0.22604166666667425,
            "durationTicks": 217,
            "midi": 51,
            "name": "D#3",
            "ticks": 233520,
            "time": 243.25,
            "velocity": 0.905511811023622
          },
          {
            "duration": 1.4510416666666686,
            "durationTicks": 1393,
            "midi": 46,
            "name": "A#2",
            "ticks": 233760,
            "time": 243.5,
            "velocity": 0.8267716535433071
          },
          {
            "duration": 0.22604166666667425,
            "durationTicks": 217,
            "midi": 58,
            "name": "A#3",
            "ticks": 235920,
            "time": 245.75,
            "velocity": 0.8267716535433071
          },
          {
            "duration": 0.22604166666667425,
            "durationTicks": 217,
            "midi": 62,
            "name": "D4",
            "ticks": 235920,
            "time": 245.75,
            "velocity": 0.8267716535433071
          },
          {
            "duration": 0.22604166666667425,
            "durationTicks": 217,
            "midi": 58,
            "name": "A#3",
            "ticks": 236160,
            "time": 246,
            "velocity": 0.84251968503937
          },
          {
            "duration": 0.22604166666667425,
            "durationTicks": 217,
            "midi": 62,
            "name": "D4",
            "ticks": 236160,
            "time": 246,
            "velocity": 0.84251968503937
          },
          {
            "duration": 0.22604166666667425,
            "durationTicks": 217,
            "midi": 58,
            "name": "A#3",
            "ticks": 236400,
            "time": 246.25,
            "velocity": 0.9133858267716536
          },
          {
            "duration": 0.22604166666667425,
            "durationTicks": 217,
            "midi": 62,
            "name": "D4",
            "ticks": 236400,
            "time": 246.25,
            "velocity": 0.9133858267716536
          },
          {
            "duration": 0.45104166666666856,
            "durationTicks": 433,
            "midi": 58,
            "name": "A#3",
            "ticks": 236640,
            "time": 246.5,
            "velocity": 0.952755905511811
          },
          {
            "duration": 0.45104166666666856,
            "durationTicks": 433,
            "midi": 63,
            "name": "D#4",
            "ticks": 236640,
            "time": 246.5,
            "velocity": 0.952755905511811
          },
          {
            "duration": 0.22604166666667425,
            "durationTicks": 217,
            "midi": 46,
            "name": "A#2",
            "ticks": 237840,
            "time": 247.75,
            "velocity": 0.7874015748031497
          },
          {
            "duration": 0.22604166666667425,
            "durationTicks": 217,
            "midi": 46,
            "name": "A#2",
            "ticks": 238080,
            "time": 248,
            "velocity": 0.8582677165354331
          },
          {
            "duration": 0.22604166666667425,
            "durationTicks": 217,
            "midi": 46,
            "name": "A#2",
            "ticks": 238320,
            "time": 248.25,
            "velocity": 0.8740157480314961
          },
          {
            "duration": 0.45104166666666856,
            "durationTicks": 433,
            "midi": 51,
            "name": "D#3",
            "ticks": 238560,
            "time": 248.5,
            "velocity": 0.937007874015748
          },
          {
            "duration": 3.5,
            "durationTicks": 3360,
            "midi": 67,
            "name": "G4",
            "ticks": 242400,
            "time": 252.5,
            "velocity": 0.7952755905511811
          },
          {
            "duration": 3.8999999999999773,
            "durationTicks": 3744,
            "midi": 53,
            "name": "F3",
            "ticks": 246720,
            "time": 257,
            "velocity": 0.4251968503937008
          },
          {
            "duration": 3.8999999999999773,
            "durationTicks": 3744,
            "midi": 65,
            "name": "F4",
            "ticks": 246720,
            "time": 257,
            "velocity": 0.4251968503937008
          },
          {
            "duration": 3.8999999999999773,
            "durationTicks": 3744,
            "midi": 52,
            "name": "E3",
            "ticks": 250560,
            "time": 261,
            "velocity": 0.5433070866141733
          },
          {
            "duration": 3.8999999999999773,
            "durationTicks": 3744,
            "midi": 64,
            "name": "E4",
            "ticks": 250560,
            "time": 261,
            "velocity": 0.5433070866141733
          },
          {
            "duration": 1.0197916666666629,
            "durationTicks": 979,
            "midi": 53,
            "name": "F3",
            "ticks": 254400,
            "time": 265,
            "velocity": 0.5826771653543307
          },
          {
            "duration": 1.0197916666666629,
            "durationTicks": 979,
            "midi": 65,
            "name": "F4",
            "ticks": 254400,
            "time": 265,
            "velocity": 0.5826771653543307
          },
          {
            "duration": 1.0197916666666629,
            "durationTicks": 979,
            "midi": 52,
            "name": "E3",
            "ticks": 255360,
            "time": 266,
            "velocity": 0.5433070866141733
          },
          {
            "duration": 1.0197916666666629,
            "durationTicks": 979,
            "midi": 64,
            "name": "E4",
            "ticks": 255360,
            "time": 266,
            "velocity": 0.5433070866141733
          },
          {
            "duration": 1.0197916666666629,
            "durationTicks": 979,
            "midi": 53,
            "name": "F3",
            "ticks": 256320,
            "time": 267,
            "velocity": 0.5826771653543307
          },
          {
            "duration": 1.0197916666666629,
            "durationTicks": 979,
            "midi": 65,
            "name": "F4",
            "ticks": 256320,
            "time": 267,
            "velocity": 0.5826771653543307
          },
          {
            "duration": 1.0197916666666629,
            "durationTicks": 979,
            "midi": 52,
            "name": "E3",
            "ticks": 257280,
            "time": 268,
            "velocity": 0.5354330708661418
          },
          {
            "duration": 1.0197916666666629,
            "durationTicks": 979,
            "midi": 64,
            "name": "E4",
            "ticks": 257280,
            "time": 268,
            "velocity": 0.5354330708661418
          },
          {
            "duration": 0.47500000000002274,
            "durationTicks": 456,
            "midi": 53,
            "name": "F3",
            "ticks": 258240,
            "time": 269,
            "velocity": 0.5984251968503937
          },
          {
            "duration": 0.47500000000002274,
            "durationTicks": 456,
            "midi": 65,
            "name": "F4",
            "ticks": 258240,
            "time": 269,
            "velocity": 0.5984251968503937
          },
          {
            "duration": 1.0197916666666629,
            "durationTicks": 979,
            "midi": 60,
            "name": "C4",
            "ticks": 262080,
            "time": 273,
            "velocity": 0.41732283464566927
          },
          {
            "duration": 1.0197916666666629,
            "durationTicks": 979,
            "midi": 63,
            "name": "D#4",
            "ticks": 262080,
            "time": 273,
            "velocity": 0.41732283464566927
          },
          {
            "duration": 1.0197916666666629,
            "durationTicks": 979,
            "midi": 59,
            "name": "B3",
            "ticks": 263040,
            "time": 274,
            "velocity": 0.4409448818897638
          },
          {
            "duration": 1.0197916666666629,
            "durationTicks": 979,
            "midi": 62,
            "name": "D4",
            "ticks": 263040,
            "time": 274,
            "velocity": 0.4409448818897638
          },
          {
            "duration": 1.0197916666666629,
            "durationTicks": 979,
            "midi": 60,
            "name": "C4",
            "ticks": 264000,
            "time": 275,
            "velocity": 0.5275590551181102
          },
          {
            "duration": 1.0197916666666629,
            "durationTicks": 979,
            "midi": 63,
            "name": "D#4",
            "ticks": 264000,
            "time": 275,
            "velocity": 0.5275590551181102
          },
          {
            "duration": 1.0197916666666629,
            "durationTicks": 979,
            "midi": 59,
            "name": "B3",
            "ticks": 264960,
            "time": 276,
            "velocity": 0.48031496062992124
          },
          {
            "duration": 1.0197916666666629,
            "durationTicks": 979,
            "midi": 62,
            "name": "D4",
            "ticks": 264960,
            "time": 276,
            "velocity": 0.48031496062992124
          },
          {
            "duration": 0.47500000000002274,
            "durationTicks": 456,
            "midi": 60,
            "name": "C4",
            "ticks": 265920,
            "time": 277,
            "velocity": 0.4881889763779528
          },
          {
            "duration": 0.47500000000002274,
            "durationTicks": 456,
            "midi": 63,
            "name": "D#4",
            "ticks": 265920,
            "time": 277,
            "velocity": 0.4881889763779528
          },
          {
            "duration": 0.22604166666667425,
            "durationTicks": 217,
            "midi": 63,
            "name": "D#4",
            "ticks": 267120,
            "time": 278.25,
            "velocity": 0.4645669291338583
          },
          {
            "duration": 0.22604166666667425,
            "durationTicks": 217,
            "midi": 63,
            "name": "D#4",
            "ticks": 267360,
            "time": 278.5,
            "velocity": 0.5590551181102362
          },
          {
            "duration": 0.22604166666667425,
            "durationTicks": 217,
            "midi": 62,
            "name": "D4",
            "ticks": 267600,
            "time": 278.75,
            "velocity": 0.5118110236220472
          },
          {
            "duration": 0.22604166666667425,
            "durationTicks": 217,
            "midi": 60,
            "name": "C4",
            "ticks": 267840,
            "time": 279,
            "velocity": 0.49606299212598426
          },
          {
            "duration": 0.22604166666667425,
            "durationTicks": 217,
            "midi": 60,
            "name": "C4",
            "ticks": 268080,
            "time": 279.25,
            "velocity": 0.5669291338582677
          },
          {
            "duration": 0.22604166666667425,
            "durationTicks": 217,
            "midi": 60,
            "name": "C4",
            "ticks": 268320,
            "time": 279.5,
            "velocity": 0.6377952755905512
          },
          {
            "duration": 0.22604166666667425,
            "durationTicks": 217,
            "midi": 58,
            "name": "A#3",
            "ticks": 268560,
            "time": 279.75,
            "velocity": 0.6692913385826772
          },
          {
            "duration": 0.22604166666667425,
            "durationTicks": 217,
            "midi": 57,
            "name": "A3",
            "ticks": 268800,
            "time": 280,
            "velocity": 0.49606299212598426
          },
          {
            "duration": 0.22604166666667425,
            "durationTicks": 217,
            "midi": 54,
            "name": "F#3",
            "ticks": 269040,
            "time": 280.25,
            "velocity": 0.5590551181102362
          },
          {
            "duration": 0.22604166666667425,
            "durationTicks": 217,
            "midi": 62,
            "name": "D4",
            "ticks": 269040,
            "time": 280.25,
            "velocity": 0.5590551181102362
          },
          {
            "duration": 0.22604166666667425,
            "durationTicks": 217,
            "midi": 54,
            "name": "F#3",
            "ticks": 269280,
            "time": 280.5,
            "velocity": 0.4881889763779528
          },
          {
            "duration": 0.22604166666667425,
            "durationTicks": 217,
            "midi": 62,
            "name": "D4",
            "ticks": 269280,
            "time": 280.5,
            "velocity": 0.4881889763779528
          },
          {
            "duration": 0.22604166666667425,
            "durationTicks": 217,
            "midi": 57,
            "name": "A3",
            "ticks": 269520,
            "time": 280.75,
            "velocity": 0.4330708661417323
          },
          {
            "duration": 0.22604166666667425,
            "durationTicks": 217,
            "midi": 60,
            "name": "C4",
            "ticks": 269520,
            "time": 280.75,
            "velocity": 0.4330708661417323
          },
          {
            "duration": 0.8999999999999773,
            "durationTicks": 864,
            "midi": 55,
            "name": "G3",
            "ticks": 269760,
            "time": 281,
            "velocity": 0.4409448818897638
          },
          {
            "duration": 0.8999999999999773,
            "durationTicks": 864,
            "midi": 58,
            "name": "A#3",
            "ticks": 269760,
            "time": 281,
            "velocity": 0.4409448818897638
          },
          {
            "duration": 0.22604166666667425,
            "durationTicks": 217,
            "midi": 54,
            "name": "F#3",
            "ticks": 270720,
            "time": 282,
            "velocity": 0.48031496062992124
          },
          {
            "duration": 0.22604166666667425,
            "durationTicks": 217,
            "midi": 57,
            "name": "A3",
            "ticks": 270720,
            "time": 282,
            "velocity": 0.48031496062992124
          },
          {
            "duration": 0.22604166666667425,
            "durationTicks": 217,
            "midi": 54,
            "name": "F#3",
            "ticks": 270960,
            "time": 282.25,
            "velocity": 0.5511811023622047
          },
          {
            "duration": 0.22604166666667425,
            "durationTicks": 217,
            "midi": 62,
            "name": "D4",
            "ticks": 270960,
            "time": 282.25,
            "velocity": 0.5511811023622047
          },
          {
            "duration": 0.22604166666667425,
            "durationTicks": 217,
            "midi": 54,
            "name": "F#3",
            "ticks": 271200,
            "time": 282.5,
            "velocity": 0.48031496062992124
          },
          {
            "duration": 0.22604166666667425,
            "durationTicks": 217,
            "midi": 62,
            "name": "D4",
            "ticks": 271200,
            "time": 282.5,
            "velocity": 0.48031496062992124
          },
          {
            "duration": 0.22604166666667425,
            "durationTicks": 217,
            "midi": 57,
            "name": "A3",
            "ticks": 271440,
            "time": 282.75,
            "velocity": 0.4566929133858268
          },
          {
            "duration": 0.22604166666667425,
            "durationTicks": 217,
            "midi": 60,
            "name": "C4",
            "ticks": 271440,
            "time": 282.75,
            "velocity": 0.4566929133858268
          },
          {
            "duration": 0.8999999999999773,
            "durationTicks": 864,
            "midi": 55,
            "name": "G3",
            "ticks": 271680,
            "time": 283,
            "velocity": 0.4330708661417323
          },
          {
            "duration": 0.8999999999999773,
            "durationTicks": 864,
            "midi": 58,
            "name": "A#3",
            "ticks": 271680,
            "time": 283,
            "velocity": 0.4330708661417323
          },
          {
            "duration": 0.8999999999999773,
            "durationTicks": 864,
            "midi": 54,
            "name": "F#3",
            "ticks": 272640,
            "time": 284,
            "velocity": 0.47244094488188976
          },
          {
            "duration": 0.8999999999999773,
            "durationTicks": 864,
            "midi": 57,
            "name": "A3",
            "ticks": 272640,
            "time": 284,
            "velocity": 0.47244094488188976
          },
          {
            "duration": 0.45104166666664014,
            "durationTicks": 433,
            "midi": 55,
            "name": "G3",
            "ticks": 273600,
            "time": 285,
            "velocity": 0.48031496062992124
          },
          {
            "duration": 0.45104166666664014,
            "durationTicks": 433,
            "midi": 58,
            "name": "A#3",
            "ticks": 273600,
            "time": 285,
            "velocity": 0.48031496062992124
          },
          {
            "duration": 0.22604166666667425,
            "durationTicks": 217,
            "midi": 43,
            "name": "G2",
            "ticks": 274560,
            "time": 286,
            "velocity": 0.5905511811023622
          },
          {
            "duration": 0.22604166666667425,
            "durationTicks": 217,
            "midi": 43,
            "name": "G2",
            "ticks": 274800,
            "time": 286.25,
            "velocity": 0.5590551181102362
          },
          {
            "duration": 0.22604166666667425,
            "durationTicks": 217,
            "midi": 55,
            "name": "G3",
            "ticks": 274800,
            "time": 286.25,
            "velocity": 0.44881889763779526
          },
          {
            "duration": 0.22604166666667425,
            "durationTicks": 217,
            "midi": 43,
            "name": "G2",
            "ticks": 275040,
            "time": 286.5,
            "velocity": 0.5984251968503937
          },
          {
            "duration": 0.22604166666667425,
            "durationTicks": 217,
            "midi": 57,
            "name": "A3",
            "ticks": 275040,
            "time": 286.5,
            "velocity": 0.47244094488188976
          },
          {
            "duration": 0.22604166666667425,
            "durationTicks": 217,
            "midi": 43,
            "name": "G2",
            "ticks": 275280,
            "time": 286.75,
            "velocity": 0.5590551181102362
          },
          {
            "duration": 0.22604166666667425,
            "durationTicks": 217,
            "midi": 58,
            "name": "A#3",
            "ticks": 275280,
            "time": 286.75,
            "velocity": 0.4881889763779528
          },
          {
            "duration": 1.2260416666666742,
            "durationTicks": 1177,
            "midi": 45,
            "name": "A2",
            "ticks": 275520,
            "time": 287,
            "velocity": 0.5905511811023622
          },
          {
            "duration": 0.45104166666664014,
            "durationTicks": 433,
            "midi": 60,
            "name": "C4",
            "ticks": 275520,
            "time": 287,
            "velocity": 0.5039370078740157
          },
          {
            "duration": 0.22604166666667425,
            "durationTicks": 217,
            "midi": 45,
            "name": "A2",
            "ticks": 276720,
            "time": 288.25,
            "velocity": 0.6062992125984252
          },
          {
            "duration": 0.22604166666667425,
            "durationTicks": 217,
            "midi": 54,
            "name": "F#3",
            "ticks": 276720,
            "time": 288.25,
            "velocity": 0.4330708661417323
          },
          {
            "duration": 0.22604166666667425,
            "durationTicks": 217,
            "midi": 45,
            "name": "A2",
            "ticks": 276960,
            "time": 288.5,
            "velocity": 0.5826771653543307
          },
          {
            "duration": 0.22604166666667425,
            "durationTicks": 217,
            "midi": 57,
            "name": "A3",
            "ticks": 276960,
            "time": 288.5,
            "velocity": 0.4881889763779528
          },
          {
            "duration": 0.22604166666667425,
            "durationTicks": 217,
            "midi": 45,
            "name": "A2",
            "ticks": 277200,
            "time": 288.75,
            "velocity": 0.6062992125984252
          },
          {
            "duration": 0.22604166666667425,
            "durationTicks": 217,
            "midi": 58,
            "name": "A#3",
            "ticks": 277200,
            "time": 288.75,
            "velocity": 0.4645669291338583
          },
          {
            "duration": 1.2260416666666742,
            "durationTicks": 1177,
            "midi": 45,
            "name": "A2",
            "ticks": 277440,
            "time": 289,
            "velocity": 0.6141732283464567
          },
          {
            "duration": 0.45104166666664014,
            "durationTicks": 433,
            "midi": 60,
            "name": "C4",
            "ticks": 277440,
            "time": 289,
            "velocity": 0.5196850393700787
          },
          {
            "duration": 0.22604166666667425,
            "durationTicks": 217,
            "midi": 45,
            "name": "A2",
            "ticks": 278640,
            "time": 290.25,
            "velocity": 0.6062992125984252
          },
          {
            "duration": 0.22604166666667425,
            "durationTicks": 217,
            "midi": 57,
            "name": "A3",
            "ticks": 278640,
            "time": 290.25,
            "velocity": 0.4251968503937008
          },
          {
            "duration": 0.22604166666667425,
            "durationTicks": 217,
            "midi": 45,
            "name": "A2",
            "ticks": 278880,
            "time": 290.5,
            "velocity": 0.5905511811023622
          },
          {
            "duration": 0.22604166666667425,
            "durationTicks": 217,
            "midi": 58,
            "name": "A#3",
            "ticks": 278880,
            "time": 290.5,
            "velocity": 0.47244094488188976
          },
          {
            "duration": 0.22604166666667425,
            "durationTicks": 217,
            "midi": 45,
            "name": "A2",
            "ticks": 279120,
            "time": 290.75,
            "velocity": 0.5905511811023622
          },
          {
            "duration": 0.22604166666667425,
            "durationTicks": 217,
            "midi": 60,
            "name": "C4",
            "ticks": 279120,
            "time": 290.75,
            "velocity": 0.49606299212598426
          },
          {
            "duration": 1.2260416666666742,
            "durationTicks": 1177,
            "midi": 46,
            "name": "A#2",
            "ticks": 279360,
            "time": 291,
            "velocity": 0.6062992125984252
          },
          {
            "duration": 0.45104166666664014,
            "durationTicks": 433,
            "midi": 62,
            "name": "D4",
            "ticks": 279360,
            "time": 291,
            "velocity": 0.5118110236220472
          },
          {
            "duration": 0.22604166666667425,
            "durationTicks": 217,
            "midi": 46,
            "name": "A#2",
            "ticks": 280560,
            "time": 292.25,
            "velocity": 0.6141732283464567
          },
          {
            "duration": 0.22604166666667425,
            "durationTicks": 217,
            "midi": 55,
            "name": "G3",
            "ticks": 280560,
            "time": 292.25,
            "velocity": 0.4251968503937008
          },
          {
            "duration": 0.22604166666667425,
            "durationTicks": 217,
            "midi": 46,
            "name": "A#2",
            "ticks": 280800,
            "time": 292.5,
            "velocity": 0.5984251968503937
          },
          {
            "duration": 0.22604166666667425,
            "durationTicks": 217,
            "midi": 58,
            "name": "A#3",
            "ticks": 280800,
            "time": 292.5,
            "velocity": 0.5039370078740157
          },
          {
            "duration": 0.22604166666667425,
            "durationTicks": 217,
            "midi": 46,
            "name": "A#2",
            "ticks": 281040,
            "time": 292.75,
            "velocity": 0.5905511811023622
          },
          {
            "duration": 0.22604166666667425,
            "durationTicks": 217,
            "midi": 60,
            "name": "C4",
            "ticks": 281040,
            "time": 292.75,
            "velocity": 0.5039370078740157
          },
          {
            "duration": 0.8999999999999773,
            "durationTicks": 864,
            "midi": 46,
            "name": "A#2",
            "ticks": 281280,
            "time": 293,
            "velocity": 0.5984251968503937
          },
          {
            "duration": 0.45104166666664014,
            "durationTicks": 433,
            "midi": 62,
            "name": "D4",
            "ticks": 281280,
            "time": 293,
            "velocity": 0.5354330708661418
          },
          {
            "duration": 0.22604166666667425,
            "durationTicks": 217,
            "midi": 55,
            "name": "G3",
            "ticks": 282480,
            "time": 294.25,
            "velocity": 0.5275590551181102
          },
          {
            "duration": 0.22604166666667425,
            "durationTicks": 217,
            "midi": 58,
            "name": "A#3",
            "ticks": 282480,
            "time": 294.25,
            "velocity": 0.5275590551181102
          },
          {
            "duration": 0.22604166666667425,
            "durationTicks": 217,
            "midi": 57,
            "name": "A3",
            "ticks": 282720,
            "time": 294.5,
            "velocity": 0.6850393700787402
          },
          {
            "duration": 0.22604166666667425,
            "durationTicks": 217,
            "midi": 60,
            "name": "C4",
            "ticks": 282720,
            "time": 294.5,
            "velocity": 0.6850393700787402
          },
          {
            "duration": 0.22604166666667425,
            "durationTicks": 217,
            "midi": 58,
            "name": "A#3",
            "ticks": 282960,
            "time": 294.75,
            "velocity": 0.7086614173228346
          },
          {
            "duration": 0.22604166666667425,
            "durationTicks": 217,
            "midi": 62,
            "name": "D4",
            "ticks": 282960,
            "time": 294.75,
            "velocity": 0.7086614173228346
          },
          {
            "duration": 1.8999999999999773,
            "durationTicks": 1824,
            "midi": 54,
            "name": "F#3",
            "ticks": 283200,
            "time": 295,
            "velocity": 0.7401574803149606
          },
          {
            "duration": 1.8999999999999773,
            "durationTicks": 1824,
            "midi": 57,
            "name": "A3",
            "ticks": 283200,
            "time": 295,
            "velocity": 0.7401574803149606
          },
          {
            "duration": 0.45104166666664014,
            "durationTicks": 433,
            "midi": 54,
            "name": "F#3",
            "ticks": 285120,
            "time": 297,
            "velocity": 0.7559055118110236
          },
          {
            "duration": 0.45104166666664014,
            "durationTicks": 433,
            "midi": 57,
            "name": "A3",
            "ticks": 285120,
            "time": 297,
            "velocity": 0.7559055118110236
          },
          {
            "duration": 0.22604166666667425,
            "durationTicks": 217,
            "midi": 49,
            "name": "C#3",
            "ticks": 286320,
            "time": 298.25,
            "velocity": 0.7086614173228346
          },
          {
            "duration": 0.22604166666667425,
            "durationTicks": 217,
            "midi": 61,
            "name": "C#4",
            "ticks": 286320,
            "time": 298.25,
            "velocity": 0.7086614173228346
          },
          {
            "duration": 0.22604166666667425,
            "durationTicks": 217,
            "midi": 49,
            "name": "C#3",
            "ticks": 286560,
            "time": 298.5,
            "velocity": 0.7559055118110236
          },
          {
            "duration": 0.22604166666667425,
            "durationTicks": 217,
            "midi": 61,
            "name": "C#4",
            "ticks": 286560,
            "time": 298.5,
            "velocity": 0.7559055118110236
          },
          {
            "duration": 0.22604166666667425,
            "durationTicks": 217,
            "midi": 49,
            "name": "C#3",
            "ticks": 286800,
            "time": 298.75,
            "velocity": 0.8031496062992126
          },
          {
            "duration": 0.22604166666667425,
            "durationTicks": 217,
            "midi": 61,
            "name": "C#4",
            "ticks": 286800,
            "time": 298.75,
            "velocity": 0.8031496062992126
          },
          {
            "duration": 1.8999999999999773,
            "durationTicks": 1824,
            "midi": 49,
            "name": "C#3",
            "ticks": 287040,
            "time": 299,
            "velocity": 0.7716535433070866
          },
          {
            "duration": 1.8999999999999773,
            "durationTicks": 1824,
            "midi": 61,
            "name": "C#4",
            "ticks": 287040,
            "time": 299,
            "velocity": 0.7716535433070866
          },
          {
            "duration": 0.45104166666664014,
            "durationTicks": 433,
            "midi": 49,
            "name": "C#3",
            "ticks": 288960,
            "time": 301,
            "velocity": 0.7874015748031497
          },
          {
            "duration": 0.45104166666664014,
            "durationTicks": 433,
            "midi": 61,
            "name": "C#4",
            "ticks": 288960,
            "time": 301,
            "velocity": 0.7874015748031497
          },
          {
            "duration": 0.22604166666667425,
            "durationTicks": 217,
            "midi": 50,
            "name": "D3",
            "ticks": 290160,
            "time": 302.25,
            "velocity": 0.7401574803149606
          },
          {
            "duration": 0.22604166666667425,
            "durationTicks": 217,
            "midi": 62,
            "name": "D4",
            "ticks": 290160,
            "time": 302.25,
            "velocity": 0.7401574803149606
          },
          {
            "duration": 0.22604166666667425,
            "durationTicks": 217,
            "midi": 50,
            "name": "D3",
            "ticks": 290400,
            "time": 302.5,
            "velocity": 0.8110236220472441
          },
          {
            "duration": 0.22604166666667425,
            "durationTicks": 217,
            "midi": 62,
            "name": "D4",
            "ticks": 290400,
            "time": 302.5,
            "velocity": 0.8110236220472441
          },
          {
            "duration": 0.22604166666667425,
            "durationTicks": 217,
            "midi": 50,
            "name": "D3",
            "ticks": 290640,
            "time": 302.75,
            "velocity": 0.84251968503937
          },
          {
            "duration": 0.22604166666667425,
            "durationTicks": 217,
            "midi": 62,
            "name": "D4",
            "ticks": 290640,
            "time": 302.75,
            "velocity": 0.84251968503937
          },
          {
            "duration": 0.45104166666664014,
            "durationTicks": 433,
            "midi": 50,
            "name": "D3",
            "ticks": 290880,
            "time": 303,
            "velocity": 0.8661417322834646
          },
          {
            "duration": 0.45104166666664014,
            "durationTicks": 433,
            "midi": 62,
            "name": "D4",
            "ticks": 290880,
            "time": 303,
            "velocity": 0.8661417322834646
          },
          {
            "duration": 0.22604166666667425,
            "durationTicks": 217,
            "midi": 52,
            "name": "E3",
            "ticks": 292320,
            "time": 304.5,
            "velocity": 0.7559055118110236
          },
          {
            "duration": 0.22604166666667425,
            "durationTicks": 217,
            "midi": 64,
            "name": "E4",
            "ticks": 292320,
            "time": 304.5,
            "velocity": 0.7559055118110236
          },
          {
            "duration": 0.22604166666667425,
            "durationTicks": 217,
            "midi": 52,
            "name": "E3",
            "ticks": 292560,
            "time": 304.75,
            "velocity": 0.8110236220472441
          },
          {
            "duration": 0.22604166666667425,
            "durationTicks": 217,
            "midi": 64,
            "name": "E4",
            "ticks": 292560,
            "time": 304.75,
            "velocity": 0.8110236220472441
          },
          {
            "duration": 0.45104166666664014,
            "durationTicks": 433,
            "midi": 52,
            "name": "E3",
            "ticks": 292800,
            "time": 305,
            "velocity": 0.8188976377952756
          },
          {
            "duration": 0.45104166666664014,
            "durationTicks": 433,
            "midi": 64,
            "name": "E4",
            "ticks": 292800,
            "time": 305,
            "velocity": 0.8188976377952756
          },
          {
            "duration": 0.22604166666667425,
            "durationTicks": 217,
            "midi": 54,
            "name": "F#3",
            "ticks": 293280,
            "time": 305.5,
            "velocity": 0.8818897637795275
          },
          {
            "duration": 0.22604166666667425,
            "durationTicks": 217,
            "midi": 66,
            "name": "F#4",
            "ticks": 293280,
            "time": 305.5,
            "velocity": 0.8818897637795275
          },
          {
            "duration": 0.22604166666667425,
            "durationTicks": 217,
            "midi": 54,
            "name": "F#3",
            "ticks": 293520,
            "time": 305.75,
            "velocity": 0.8346456692913385
          },
          {
            "duration": 0.22604166666667425,
            "durationTicks": 217,
            "midi": 66,
            "name": "F#4",
            "ticks": 293520,
            "time": 305.75,
            "velocity": 0.8346456692913385
          },
          {
            "duration": 0.45104166666664014,
            "durationTicks": 433,
            "midi": 54,
            "name": "F#3",
            "ticks": 293760,
            "time": 306,
            "velocity": 0.7952755905511811
          },
          {
            "duration": 0.45104166666664014,
            "durationTicks": 433,
            "midi": 66,
            "name": "F#4",
            "ticks": 293760,
            "time": 306,
            "velocity": 0.7952755905511811
          },
          {
            "duration": 0.22604166666667425,
            "durationTicks": 217,
            "midi": 66,
            "name": "F#4",
            "ticks": 298080,
            "time": 310.5,
            "velocity": 0.8110236220472441
          },
          {
            "duration": 0.22604166666667425,
            "durationTicks": 217,
            "midi": 66,
            "name": "F#4",
            "ticks": 298320,
            "time": 310.75,
            "velocity": 0.8818897637795275
          },
          {
            "duration": 0.45104166666664014,
            "durationTicks": 433,
            "midi": 66,
            "name": "F#4",
            "ticks": 298560,
            "time": 311,
            "velocity": 0.8661417322834646
          },
          {
            "duration": 0.22604166666667425,
            "durationTicks": 217,
            "midi": 50,
            "name": "D3",
            "ticks": 300960,
            "time": 313.5,
            "velocity": 0.8110236220472441
          },
          {
            "duration": 0.22604166666667425,
            "durationTicks": 217,
            "midi": 62,
            "name": "D4",
            "ticks": 300960,
            "time": 313.5,
            "velocity": 0.8110236220472441
          },
          {
            "duration": 0.22604166666667425,
            "durationTicks": 217,
            "midi": 50,
            "name": "D3",
            "ticks": 301200,
            "time": 313.75,
            "velocity": 0.905511811023622
          },
          {
            "duration": 0.22604166666667425,
            "durationTicks": 217,
            "midi": 62,
            "name": "D4",
            "ticks": 301200,
            "time": 313.75,
            "velocity": 0.905511811023622
          },
          {
            "duration": 0.45104166666664014,
            "durationTicks": 433,
            "midi": 43,
            "name": "G2",
            "ticks": 301440,
            "time": 314,
            "velocity": 0.8267716535433071
          },
          {
            "duration": 0.45104166666664014,
            "durationTicks": 433,
            "midi": 55,
            "name": "G3",
            "ticks": 301440,
            "time": 314,
            "velocity": 0.8267716535433071
          },
          {
            "duration": 0.22604166666667425,
            "durationTicks": 217,
            "midi": 59,
            "name": "B3",
            "ticks": 304800,
            "time": 317.5,
            "velocity": 0.7874015748031497
          },
          {
            "duration": 0.22604166666667425,
            "durationTicks": 217,
            "midi": 59,
            "name": "B3",
            "ticks": 305040,
            "time": 317.75,
            "velocity": 0.8818897637795275
          },
          {
            "duration": 0.45104166666664014,
            "durationTicks": 433,
            "midi": 59,
            "name": "B3",
            "ticks": 305280,
            "time": 318,
            "velocity": 0.889763779527559
          },
          {
            "duration": 0.22604166666667425,
            "durationTicks": 217,
            "midi": 60,
            "name": "C4",
            "ticks": 309360,
            "time": 322.25,
            "velocity": 0.7952755905511811
          },
          {
            "duration": 0.22604166666667425,
            "durationTicks": 217,
            "midi": 60,
            "name": "C4",
            "ticks": 309600,
            "time": 322.5,
            "velocity": 0.889763779527559
          },
          {
            "duration": 0.22604166666667425,
            "durationTicks": 217,
            "midi": 60,
            "name": "C4",
            "ticks": 309840,
            "time": 322.75,
            "velocity": 0.8976377952755905
          },
          {
            "duration": 1.0197916666666629,
            "durationTicks": 979,
            "midi": 56,
            "name": "G#3",
            "ticks": 310080,
            "time": 323,
            "velocity": 0.905511811023622
          },
          {
            "duration": 1.0197916666666629,
            "durationTicks": 979,
            "midi": 60,
            "name": "C4",
            "ticks": 310080,
            "time": 323,
            "velocity": 0.905511811023622
          },
          {
            "duration": 0.9489583333333371,
            "durationTicks": 911,
            "midi": 58,
            "name": "A#3",
            "ticks": 311040,
            "time": 324,
            "velocity": 0.937007874015748
          },
          {
            "duration": 0.9489583333333371,
            "durationTicks": 911,
            "midi": 61,
            "name": "C#4",
            "ticks": 311040,
            "time": 324,
            "velocity": 0.937007874015748
          },
          {
            "duration": 1.0197916666666629,
            "durationTicks": 979,
            "midi": 56,
            "name": "G#3",
            "ticks": 313920,
            "time": 327,
            "velocity": 0.8740157480314961
          },
          {
            "duration": 1.0197916666666629,
            "durationTicks": 979,
            "midi": 60,
            "name": "C4",
            "ticks": 313920,
            "time": 327,
            "velocity": 0.8740157480314961
          },
          {
            "duration": 0.9489583333333371,
            "durationTicks": 911,
            "midi": 58,
            "name": "A#3",
            "ticks": 314880,
            "time": 328,
            "velocity": 0.9291338582677166
          },
          {
            "duration": 0.9489583333333371,
            "durationTicks": 911,
            "midi": 61,
            "name": "C#4",
            "ticks": 314880,
            "time": 328,
            "velocity": 0.9291338582677166
          },
          {
            "duration": 1.0197916666666629,
            "durationTicks": 979,
            "midi": 56,
            "name": "G#3",
            "ticks": 317760,
            "time": 331,
            "velocity": 0.84251968503937
          },
          {
            "duration": 1.0197916666666629,
            "durationTicks": 979,
            "midi": 60,
            "name": "C4",
            "ticks": 317760,
            "time": 331,
            "velocity": 0.84251968503937
          },
          {
            "duration": 0.9489583333333371,
            "durationTicks": 911,
            "midi": 58,
            "name": "A#3",
            "ticks": 318720,
            "time": 332,
            "velocity": 0.8740157480314961
          },
          {
            "duration": 0.9489583333333371,
            "durationTicks": 911,
            "midi": 61,
            "name": "C#4",
            "ticks": 318720,
            "time": 332,
            "velocity": 0.8740157480314961
          },
          {
            "duration": 1.0197916666666629,
            "durationTicks": 979,
            "midi": 60,
            "name": "C4",
            "ticks": 321600,
            "time": 335,
            "velocity": 0.952755905511811
          },
          {
            "duration": 1.0197916666666629,
            "durationTicks": 979,
            "midi": 63,
            "name": "D#4",
            "ticks": 321600,
            "time": 335,
            "velocity": 0.952755905511811
          },
          {
            "duration": 0.9489583333333371,
            "durationTicks": 911,
            "midi": 61,
            "name": "C#4",
            "ticks": 322560,
            "time": 336,
            "velocity": 1
          },
          {
            "duration": 0.9489583333333371,
            "durationTicks": 911,
            "midi": 65,
            "name": "F4",
            "ticks": 322560,
            "time": 336,
            "velocity": 1
          },
          {
            "duration": 0.8999999999999773,
            "durationTicks": 864,
            "midi": 63,
            "name": "D#4",
            "ticks": 324480,
            "time": 338,
            "velocity": 0.952755905511811
          },
          {
            "duration": 0.8999999999999773,
            "durationTicks": 864,
            "midi": 66,
            "name": "F#4",
            "ticks": 324480,
            "time": 338,
            "velocity": 0.952755905511811
          },
          {
            "duration": 0.8999999999999773,
            "durationTicks": 864,
            "midi": 65,
            "name": "F4",
            "ticks": 326400,
            "time": 340,
            "velocity": 0.5984251968503937
          },
          {
            "duration": 0.8999999999999773,
            "durationTicks": 864,
            "midi": 68,
            "name": "G#4",
            "ticks": 326400,
            "time": 340,
            "velocity": 0.5984251968503937
          },
          {
            "duration": 0.8999999999999773,
            "durationTicks": 864,
            "midi": 66,
            "name": "F#4",
            "ticks": 328320,
            "time": 342,
            "velocity": 0.47244094488188976
          },
          {
            "duration": 0.8999999999999773,
            "durationTicks": 864,
            "midi": 69,
            "name": "A4",
            "ticks": 328320,
            "time": 342,
            "velocity": 0.47244094488188976
          },
          {
            "duration": 0.8999999999999773,
            "durationTicks": 864,
            "midi": 66,
            "name": "F#4",
            "ticks": 330240,
            "time": 344,
            "velocity": 0.48031496062992124
          },
          {
            "duration": 0.8999999999999773,
            "durationTicks": 864,
            "midi": 69,
            "name": "A4",
            "ticks": 330240,
            "time": 344,
            "velocity": 0.48031496062992124
          },
          {
            "duration": 0.8999999999999773,
            "durationTicks": 864,
            "midi": 66,
            "name": "F#4",
            "ticks": 332160,
            "time": 346,
            "velocity": 0.4409448818897638
          },
          {
            "duration": 0.8999999999999773,
            "durationTicks": 864,
            "midi": 69,
            "name": "A4",
            "ticks": 332160,
            "time": 346,
            "velocity": 0.4409448818897638
          },
          {
            "duration": 0.8999999999999773,
            "durationTicks": 864,
            "midi": 66,
            "name": "F#4",
            "ticks": 334080,
            "time": 348,
            "velocity": 0.3779527559055118
          },
          {
            "duration": 0.8999999999999773,
            "durationTicks": 864,
            "midi": 69,
            "name": "A4",
            "ticks": 334080,
            "time": 348,
            "velocity": 0.3779527559055118
          },
          {
            "duration": 0.8999999999999773,
            "durationTicks": 864,
            "midi": 66,
            "name": "F#4",
            "ticks": 336000,
            "time": 350,
            "velocity": 0.3937007874015748
          },
          {
            "duration": 0.8999999999999773,
            "durationTicks": 864,
            "midi": 69,
            "name": "A4",
            "ticks": 336000,
            "time": 350,
            "velocity": 0.3937007874015748
          },
          {
            "duration": 0.8999999999999773,
            "durationTicks": 864,
            "midi": 66,
            "name": "F#4",
            "ticks": 337920,
            "time": 352,
            "velocity": 0.4330708661417323
          },
          {
            "duration": 0.8999999999999773,
            "durationTicks": 864,
            "midi": 69,
            "name": "A4",
            "ticks": 337920,
            "time": 352,
            "velocity": 0.4330708661417323
          },
          {
            "duration": 0.8999999999999773,
            "durationTicks": 864,
            "midi": 66,
            "name": "F#4",
            "ticks": 339840,
            "time": 354,
            "velocity": 0.3779527559055118
          },
          {
            "duration": 0.8999999999999773,
            "durationTicks": 864,
            "midi": 69,
            "name": "A4",
            "ticks": 339840,
            "time": 354,
            "velocity": 0.3779527559055118
          },
          {
            "duration": 0.22604166666667425,
            "durationTicks": 217,
            "midi": 50,
            "name": "D3",
            "ticks": 341040,
            "time": 355.25,
            "velocity": 0.8031496062992126
          },
          {
            "duration": 0.22604166666667425,
            "durationTicks": 217,
            "midi": 62,
            "name": "D4",
            "ticks": 341040,
            "time": 355.25,
            "velocity": 0.8031496062992126
          },
          {
            "duration": 0.22604166666667425,
            "durationTicks": 217,
            "midi": 50,
            "name": "D3",
            "ticks": 341280,
            "time": 355.5,
            "velocity": 0.8503937007874016
          },
          {
            "duration": 0.22604166666667425,
            "durationTicks": 217,
            "midi": 62,
            "name": "D4",
            "ticks": 341280,
            "time": 355.5,
            "velocity": 0.8503937007874016
          },
          {
            "duration": 0.22604166666667425,
            "durationTicks": 217,
            "midi": 50,
            "name": "D3",
            "ticks": 341520,
            "time": 355.75,
            "velocity": 0.9212598425196851
          },
          {
            "duration": 0.22604166666667425,
            "durationTicks": 217,
            "midi": 62,
            "name": "D4",
            "ticks": 341520,
            "time": 355.75,
            "velocity": 0.9212598425196851
          },
          {
            "duration": 0.8999999999999773,
            "durationTicks": 864,
            "midi": 47,
            "name": "B2",
            "ticks": 341760,
            "time": 356,
            "velocity": 0.8503937007874016
          },
          {
            "duration": 0.8999999999999773,
            "durationTicks": 864,
            "midi": 59,
            "name": "B3",
            "ticks": 341760,
            "time": 356,
            "velocity": 0.8503937007874016
          },
          {
            "duration": 0.8999999999999773,
            "durationTicks": 864,
            "midi": 48,
            "name": "C3",
            "ticks": 342720,
            "time": 357,
            "velocity": 0.9291338582677166
          },
          {
            "duration": 0.8999999999999773,
            "durationTicks": 864,
            "midi": 60,
            "name": "C4",
            "ticks": 342720,
            "time": 357,
            "velocity": 0.9291338582677166
          },
          {
            "duration": 1.8999999999999773,
            "durationTicks": 1824,
            "midi": 45,
            "name": "A2",
            "ticks": 343680,
            "time": 358,
            "velocity": 0.8661417322834646
          },
          {
            "duration": 1.8999999999999773,
            "durationTicks": 1824,
            "midi": 57,
            "name": "A3",
            "ticks": 343680,
            "time": 358,
            "velocity": 0.8661417322834646
          },
          {
            "duration": 0.8999999999999773,
            "durationTicks": 864,
            "midi": 59,
            "name": "B3",
            "ticks": 345600,
            "time": 360,
            "velocity": 0.5039370078740157
          },
          {
            "duration": 0.8999999999999773,
            "durationTicks": 864,
            "midi": 65,
            "name": "F4",
            "ticks": 345600,
            "time": 360,
            "velocity": 0.5039370078740157
          },
          {
            "duration": 0.8999999999999773,
            "durationTicks": 864,
            "midi": 59,
            "name": "B3",
            "ticks": 347520,
            "time": 362,
            "velocity": 0.4015748031496063
          },
          {
            "duration": 0.8999999999999773,
            "durationTicks": 864,
            "midi": 65,
            "name": "F4",
            "ticks": 347520,
            "time": 362,
            "velocity": 0.4015748031496063
          },
          {
            "duration": 0.8999999999999773,
            "durationTicks": 864,
            "midi": 59,
            "name": "B3",
            "ticks": 349440,
            "time": 364,
            "velocity": 0.3779527559055118
          },
          {
            "duration": 0.8999999999999773,
            "durationTicks": 864,
            "midi": 65,
            "name": "F4",
            "ticks": 349440,
            "time": 364,
            "velocity": 0.3779527559055118
          },
          {
            "duration": 0.8999999999999773,
            "durationTicks": 864,
            "midi": 59,
            "name": "B3",
            "ticks": 351360,
            "time": 366,
            "velocity": 0.4330708661417323
          },
          {
            "duration": 0.8999999999999773,
            "durationTicks": 864,
            "midi": 65,
            "name": "F4",
            "ticks": 351360,
            "time": 366,
            "velocity": 0.4330708661417323
          },
          {
            "duration": 0.22604166666667425,
            "durationTicks": 217,
            "midi": 44,
            "name": "G#2",
            "ticks": 352560,
            "time": 367.25,
            "velocity": 0.7874015748031497
          },
          {
            "duration": 0.22604166666667425,
            "durationTicks": 217,
            "midi": 56,
            "name": "G#3",
            "ticks": 352560,
            "time": 367.25,
            "velocity": 0.7874015748031497
          },
          {
            "duration": 0.22604166666667425,
            "durationTicks": 217,
            "midi": 44,
            "name": "G#2",
            "ticks": 352800,
            "time": 367.5,
            "velocity": 0.8976377952755905
          },
          {
            "duration": 0.22604166666667425,
            "durationTicks": 217,
            "midi": 56,
            "name": "G#3",
            "ticks": 352800,
            "time": 367.5,
            "velocity": 0.8976377952755905
          },
          {
            "duration": 0.22604166666667425,
            "durationTicks": 217,
            "midi": 44,
            "name": "G#2",
            "ticks": 353040,
            "time": 367.75,
            "velocity": 0.8661417322834646
          },
          {
            "duration": 0.22604166666667425,
            "durationTicks": 217,
            "midi": 56,
            "name": "G#3",
            "ticks": 353040,
            "time": 367.75,
            "velocity": 0.8661417322834646
          },
          {
            "duration": 1.2260416666666742,
            "durationTicks": 1177,
            "midi": 41,
            "name": "F2",
            "ticks": 353280,
            "time": 368,
            "velocity": 0.8582677165354331
          },
          {
            "duration": 1.2260416666666742,
            "durationTicks": 1177,
            "midi": 53,
            "name": "F3",
            "ticks": 353280,
            "time": 368,
            "velocity": 0.8582677165354331
          },
          {
            "duration": 0.22604166666667425,
            "durationTicks": 217,
            "midi": 44,
            "name": "G#2",
            "ticks": 354480,
            "time": 369.25,
            "velocity": 0.9448818897637795
          },
          {
            "duration": 0.22604166666667425,
            "durationTicks": 217,
            "midi": 56,
            "name": "G#3",
            "ticks": 354480,
            "time": 369.25,
            "velocity": 0.9448818897637795
          },
          {
            "duration": 0.22604166666667425,
            "durationTicks": 217,
            "midi": 44,
            "name": "G#2",
            "ticks": 354720,
            "time": 369.5,
            "velocity": 0.8740157480314961
          },
          {
            "duration": 0.22604166666667425,
            "durationTicks": 217,
            "midi": 56,
            "name": "G#3",
            "ticks": 354720,
            "time": 369.5,
            "velocity": 0.8740157480314961
          },
          {
            "duration": 0.22604166666667425,
            "durationTicks": 217,
            "midi": 44,
            "name": "G#2",
            "ticks": 354960,
            "time": 369.75,
            "velocity": 0.84251968503937
          },
          {
            "duration": 0.22604166666667425,
            "durationTicks": 217,
            "midi": 56,
            "name": "G#3",
            "ticks": 354960,
            "time": 369.75,
            "velocity": 0.84251968503937
          },
          {
            "duration": 1.2260416666666742,
            "durationTicks": 1177,
            "midi": 41,
            "name": "F2",
            "ticks": 355200,
            "time": 370,
            "velocity": 0.8661417322834646
          },
          {
            "duration": 1.2260416666666742,
            "durationTicks": 1177,
            "midi": 53,
            "name": "F3",
            "ticks": 355200,
            "time": 370,
            "velocity": 0.8661417322834646
          },
          {
            "duration": 0.22604166666667425,
            "durationTicks": 217,
            "midi": 44,
            "name": "G#2",
            "ticks": 356400,
            "time": 371.25,
            "velocity": 0.937007874015748
          },
          {
            "duration": 0.22604166666667425,
            "durationTicks": 217,
            "midi": 56,
            "name": "G#3",
            "ticks": 356400,
            "time": 371.25,
            "velocity": 0.937007874015748
          },
          {
            "duration": 0.22604166666667425,
            "durationTicks": 217,
            "midi": 44,
            "name": "G#2",
            "ticks": 356640,
            "time": 371.5,
            "velocity": 0.8503937007874016
          },
          {
            "duration": 0.22604166666667425,
            "durationTicks": 217,
            "midi": 56,
            "name": "G#3",
            "ticks": 356640,
            "time": 371.5,
            "velocity": 0.8503937007874016
          },
          {
            "duration": 0.22604166666667425,
            "durationTicks": 217,
            "midi": 44,
            "name": "G#2",
            "ticks": 356880,
            "time": 371.75,
            "velocity": 0.8503937007874016
          },
          {
            "duration": 0.22604166666667425,
            "durationTicks": 217,
            "midi": 56,
            "name": "G#3",
            "ticks": 356880,
            "time": 371.75,
            "velocity": 0.8503937007874016
          },
          {
            "duration": 0.22604166666667425,
            "durationTicks": 217,
            "midi": 41,
            "name": "F2",
            "ticks": 357120,
            "time": 372,
            "velocity": 0.8267716535433071
          },
          {
            "duration": 0.22604166666667425,
            "durationTicks": 217,
            "midi": 53,
            "name": "F3",
            "ticks": 357120,
            "time": 372,
            "velocity": 0.8267716535433071
          },
          {
            "duration": 0.22604166666667425,
            "durationTicks": 217,
            "midi": 44,
            "name": "G#2",
            "ticks": 357360,
            "time": 372.25,
            "velocity": 0.9212598425196851
          },
          {
            "duration": 0.22604166666667425,
            "durationTicks": 217,
            "midi": 56,
            "name": "G#3",
            "ticks": 357360,
            "time": 372.25,
            "velocity": 0.9212598425196851
          },
          {
            "duration": 0.22604166666667425,
            "durationTicks": 217,
            "midi": 44,
            "name": "G#2",
            "ticks": 357600,
            "time": 372.5,
            "velocity": 0.905511811023622
          },
          {
            "duration": 0.22604166666667425,
            "durationTicks": 217,
            "midi": 56,
            "name": "G#3",
            "ticks": 357600,
            "time": 372.5,
            "velocity": 0.905511811023622
          },
          {
            "duration": 0.22604166666667425,
            "durationTicks": 217,
            "midi": 44,
            "name": "G#2",
            "ticks": 357840,
            "time": 372.75,
            "velocity": 0.8740157480314961
          },
          {
            "duration": 0.22604166666667425,
            "durationTicks": 217,
            "midi": 56,
            "name": "G#3",
            "ticks": 357840,
            "time": 372.75,
            "velocity": 0.8740157480314961
          },
          {
            "duration": 0.22604166666667425,
            "durationTicks": 217,
            "midi": 41,
            "name": "F2",
            "ticks": 358080,
            "time": 373,
            "velocity": 0.8503937007874016
          },
          {
            "duration": 0.22604166666667425,
            "durationTicks": 217,
            "midi": 53,
            "name": "F3",
            "ticks": 358080,
            "time": 373,
            "velocity": 0.8503937007874016
          },
          {
            "duration": 0.22604166666667425,
            "durationTicks": 217,
            "midi": 44,
            "name": "G#2",
            "ticks": 358320,
            "time": 373.25,
            "velocity": 0.9212598425196851
          },
          {
            "duration": 0.22604166666667425,
            "durationTicks": 217,
            "midi": 56,
            "name": "G#3",
            "ticks": 358320,
            "time": 373.25,
            "velocity": 0.9212598425196851
          },
          {
            "duration": 0.22604166666667425,
            "durationTicks": 217,
            "midi": 44,
            "name": "G#2",
            "ticks": 358560,
            "time": 373.5,
            "velocity": 0.8661417322834646
          },
          {
            "duration": 0.22604166666667425,
            "durationTicks": 217,
            "midi": 56,
            "name": "G#3",
            "ticks": 358560,
            "time": 373.5,
            "velocity": 0.8661417322834646
          },
          {
            "duration": 0.22604166666667425,
            "durationTicks": 217,
            "midi": 44,
            "name": "G#2",
            "ticks": 358800,
            "time": 373.75,
            "velocity": 0.9212598425196851
          },
          {
            "duration": 0.22604166666667425,
            "durationTicks": 217,
            "midi": 56,
            "name": "G#3",
            "ticks": 358800,
            "time": 373.75,
            "velocity": 0.9212598425196851
          },
          {
            "duration": 0.22604166666667425,
            "durationTicks": 217,
            "midi": 41,
            "name": "F2",
            "ticks": 359040,
            "time": 374,
            "velocity": 0.8346456692913385
          },
          {
            "duration": 0.22604166666667425,
            "durationTicks": 217,
            "midi": 53,
            "name": "F3",
            "ticks": 359040,
            "time": 374,
            "velocity": 0.8346456692913385
          },
          {
            "duration": 0.22604166666667425,
            "durationTicks": 217,
            "midi": 44,
            "name": "G#2",
            "ticks": 359280,
            "time": 374.25,
            "velocity": 0.9133858267716536
          },
          {
            "duration": 0.22604166666667425,
            "durationTicks": 217,
            "midi": 56,
            "name": "G#3",
            "ticks": 359280,
            "time": 374.25,
            "velocity": 0.9133858267716536
          },
          {
            "duration": 0.22604166666667425,
            "durationTicks": 217,
            "midi": 44,
            "name": "G#2",
            "ticks": 359520,
            "time": 374.5,
            "velocity": 0.889763779527559
          },
          {
            "duration": 0.22604166666667425,
            "durationTicks": 217,
            "midi": 56,
            "name": "G#3",
            "ticks": 359520,
            "time": 374.5,
            "velocity": 0.889763779527559
          },
          {
            "duration": 0.22604166666667425,
            "durationTicks": 217,
            "midi": 44,
            "name": "G#2",
            "ticks": 359760,
            "time": 374.75,
            "velocity": 0.905511811023622
          },
          {
            "duration": 0.22604166666667425,
            "durationTicks": 217,
            "midi": 56,
            "name": "G#3",
            "ticks": 359760,
            "time": 374.75,
            "velocity": 0.905511811023622
          },
          {
            "duration": 0.22604166666667425,
            "durationTicks": 217,
            "midi": 41,
            "name": "F2",
            "ticks": 360000,
            "time": 375,
            "velocity": 0.8346456692913385
          },
          {
            "duration": 0.22604166666667425,
            "durationTicks": 217,
            "midi": 53,
            "name": "F3",
            "ticks": 360000,
            "time": 375,
            "velocity": 0.8346456692913385
          },
          {
            "duration": 0.22604166666667425,
            "durationTicks": 217,
            "midi": 43,
            "name": "G2",
            "ticks": 360240,
            "time": 375.25,
            "velocity": 0.9212598425196851
          },
          {
            "duration": 0.22604166666667425,
            "durationTicks": 217,
            "midi": 55,
            "name": "G3",
            "ticks": 360240,
            "time": 375.25,
            "velocity": 0.9212598425196851
          },
          {
            "duration": 0.22604166666667425,
            "durationTicks": 217,
            "midi": 43,
            "name": "G2",
            "ticks": 360480,
            "time": 375.5,
            "velocity": 0.8818897637795275
          },
          {
            "duration": 0.22604166666667425,
            "durationTicks": 217,
            "midi": 55,
            "name": "G3",
            "ticks": 360480,
            "time": 375.5,
            "velocity": 0.8818897637795275
          },
          {
            "duration": 0.22604166666667425,
            "durationTicks": 217,
            "midi": 43,
            "name": "G2",
            "ticks": 360720,
            "time": 375.75,
            "velocity": 0.889763779527559
          },
          {
            "duration": 0.22604166666667425,
            "durationTicks": 217,
            "midi": 55,
            "name": "G3",
            "ticks": 360720,
            "time": 375.75,
            "velocity": 0.889763779527559
          },
          {
            "duration": 1.5,
            "durationTicks": 1440,
            "midi": 51,
            "name": "D#3",
            "ticks": 360960,
            "time": 376,
            "velocity": 0.8503937007874016
          },
          {
            "duration": 0.22604166666667425,
            "durationTicks": 217,
            "midi": 41,
            "name": "F2",
            "ticks": 362640,
            "time": 377.75,
            "velocity": 0.8188976377952756
          },
          {
            "duration": 0.22604166666667425,
            "durationTicks": 217,
            "midi": 53,
            "name": "F3",
            "ticks": 362640,
            "time": 377.75,
            "velocity": 0.8188976377952756
          },
          {
            "duration": 0.22604166666667425,
            "durationTicks": 217,
            "midi": 41,
            "name": "F2",
            "ticks": 362880,
            "time": 378,
            "velocity": 0.8740157480314961
          },
          {
            "duration": 0.22604166666667425,
            "durationTicks": 217,
            "midi": 53,
            "name": "F3",
            "ticks": 362880,
            "time": 378,
            "velocity": 0.8740157480314961
          },
          {
            "duration": 0.22604166666667425,
            "durationTicks": 217,
            "midi": 41,
            "name": "F2",
            "ticks": 363120,
            "time": 378.25,
            "velocity": 0.8582677165354331
          },
          {
            "duration": 0.22604166666667425,
            "durationTicks": 217,
            "midi": 53,
            "name": "F3",
            "ticks": 363120,
            "time": 378.25,
            "velocity": 0.8582677165354331
          },
          {
            "duration": 2.5,
            "durationTicks": 2400,
            "midi": 38,
            "name": "D2",
            "ticks": 363360,
            "time": 378.5,
            "velocity": 0.8582677165354331
          },
          {
            "duration": 2.5,
            "durationTicks": 2400,
            "midi": 50,
            "name": "D3",
            "ticks": 363360,
            "time": 378.5,
            "velocity": 0.8582677165354331
          },
          {
            "duration": 2.45104166666664,
            "durationTicks": 2353,
            "midi": 48,
            "name": "C3",
            "ticks": 366720,
            "time": 382,
            "velocity": 0.5984251968503937
          },
          {
            "duration": 2.45104166666664,
            "durationTicks": 2353,
            "midi": 60,
            "name": "C4",
            "ticks": 366720,
            "time": 382,
            "velocity": 0.5984251968503937
          },
          {
            "duration": 0.5093749999999773,
            "durationTicks": 489,
            "midi": 48,
            "name": "C3",
            "ticks": 369120,
            "time": 384.5,
            "velocity": 0.4645669291338583
          },
          {
            "duration": 0.5093749999999773,
            "durationTicks": 489,
            "midi": 60,
            "name": "C4",
            "ticks": 369120,
            "time": 384.5,
            "velocity": 0.4645669291338583
          },
          {
            "duration": 0.5093749999999773,
            "durationTicks": 489,
            "midi": 51,
            "name": "D#3",
            "ticks": 369600,
            "time": 385,
            "velocity": 0.5118110236220472
          },
          {
            "duration": 0.5093749999999773,
            "durationTicks": 489,
            "midi": 63,
            "name": "D#4",
            "ticks": 369600,
            "time": 385,
            "velocity": 0.5118110236220472
          },
          {
            "duration": 0.47500000000002274,
            "durationTicks": 456,
            "midi": 48,
            "name": "C3",
            "ticks": 370080,
            "time": 385.5,
            "velocity": 0.41732283464566927
          },
          {
            "duration": 0.47500000000002274,
            "durationTicks": 456,
            "midi": 60,
            "name": "C4",
            "ticks": 370080,
            "time": 385.5,
            "velocity": 0.41732283464566927
          },
          {
            "duration": 2.45104166666664,
            "durationTicks": 2353,
            "midi": 47,
            "name": "B2",
            "ticks": 370560,
            "time": 386,
            "velocity": 0.49606299212598426
          },
          {
            "duration": 2.45104166666664,
            "durationTicks": 2353,
            "midi": 59,
            "name": "B3",
            "ticks": 370560,
            "time": 386,
            "velocity": 0.49606299212598426
          },
          {
            "duration": 0.5093749999999773,
            "durationTicks": 489,
            "midi": 43,
            "name": "G2",
            "ticks": 372960,
            "time": 388.5,
            "velocity": 0.4645669291338583
          },
          {
            "duration": 0.5093749999999773,
            "durationTicks": 489,
            "midi": 55,
            "name": "G3",
            "ticks": 372960,
            "time": 388.5,
            "velocity": 0.4645669291338583
          },
          {
            "duration": 0.5093749999999773,
            "durationTicks": 489,
            "midi": 47,
            "name": "B2",
            "ticks": 373440,
            "time": 389,
            "velocity": 0.48031496062992124
          },
          {
            "duration": 0.5093749999999773,
            "durationTicks": 489,
            "midi": 59,
            "name": "B3",
            "ticks": 373440,
            "time": 389,
            "velocity": 0.48031496062992124
          },
          {
            "duration": 0.47500000000002274,
            "durationTicks": 456,
            "midi": 43,
            "name": "G2",
            "ticks": 373920,
            "time": 389.5,
            "velocity": 0.44881889763779526
          },
          {
            "duration": 0.47500000000002274,
            "durationTicks": 456,
            "midi": 55,
            "name": "G3",
            "ticks": 373920,
            "time": 389.5,
            "velocity": 0.44881889763779526
          },
          {
            "duration": 0.8999999999999773,
            "durationTicks": 864,
            "midi": 48,
            "name": "C3",
            "ticks": 374400,
            "time": 390,
            "velocity": 0.5196850393700787
          },
          {
            "duration": 0.8999999999999773,
            "durationTicks": 864,
            "midi": 60,
            "name": "C4",
            "ticks": 374400,
            "time": 390,
            "velocity": 0.5196850393700787
          },
          {
            "duration": 0.8999999999999773,
            "durationTicks": 864,
            "midi": 47,
            "name": "B2",
            "ticks": 375360,
            "time": 391,
            "velocity": 0.49606299212598426
          },
          {
            "duration": 0.8999999999999773,
            "durationTicks": 864,
            "midi": 59,
            "name": "B3",
            "ticks": 375360,
            "time": 391,
            "velocity": 0.49606299212598426
          },
          {
            "duration": 0.8999999999999773,
            "durationTicks": 864,
            "midi": 48,
            "name": "C3",
            "ticks": 376320,
            "time": 392,
            "velocity": 0.5196850393700787
          },
          {
            "duration": 0.8999999999999773,
            "durationTicks": 864,
            "midi": 60,
            "name": "C4",
            "ticks": 376320,
            "time": 392,
            "velocity": 0.5196850393700787
          },
          {
            "duration": 0.8999999999999773,
            "durationTicks": 864,
            "midi": 43,
            "name": "G2",
            "ticks": 377280,
            "time": 393,
            "velocity": 0.4566929133858268
          },
          {
            "duration": 0.8999999999999773,
            "durationTicks": 864,
            "midi": 55,
            "name": "G3",
            "ticks": 377280,
            "time": 393,
            "velocity": 0.4566929133858268
          },
          {
            "duration": 0.8999999999999773,
            "durationTicks": 864,
            "midi": 48,
            "name": "C3",
            "ticks": 378240,
            "time": 394,
            "velocity": 0.6220472440944882
          },
          {
            "duration": 0.8999999999999773,
            "durationTicks": 864,
            "midi": 60,
            "name": "C4",
            "ticks": 378240,
            "time": 394,
            "velocity": 0.6220472440944882
          },
          {
            "duration": 0.8999999999999773,
            "durationTicks": 864,
            "midi": 44,
            "name": "G#2",
            "ticks": 379200,
            "time": 395,
            "velocity": 0.5748031496062992
          },
          {
            "duration": 0.8999999999999773,
            "durationTicks": 864,
            "midi": 56,
            "name": "G#3",
            "ticks": 379200,
            "time": 395,
            "velocity": 0.5748031496062992
          },
          {
            "duration": 0.45104166666664014,
            "durationTicks": 433,
            "midi": 43,
            "name": "G2",
            "ticks": 380160,
            "time": 396,
            "velocity": 0.7637795275590551
          },
          {
            "duration": 0.45104166666664014,
            "durationTicks": 433,
            "midi": 55,
            "name": "G3",
            "ticks": 380160,
            "time": 396,
            "velocity": 0.7637795275590551
          },
          {
            "duration": 2.8999999999999773,
            "durationTicks": 2784,
            "midi": 62,
            "name": "D4",
            "ticks": 390240,
            "time": 406.5,
            "velocity": 0.4409448818897638
          },
          {
            "duration": 0.45104166666664014,
            "durationTicks": 433,
            "midi": 60,
            "name": "C4",
            "ticks": 393120,
            "time": 409.5,
            "velocity": 0.7322834645669292
          },
          {
            "duration": 0.22604166666667425,
            "durationTicks": 217,
            "midi": 65,
            "name": "F4",
            "ticks": 394320,
            "time": 410.75,
            "velocity": 0.6771653543307087
          },
          {
            "duration": 0.22604166666667425,
            "durationTicks": 217,
            "midi": 68,
            "name": "G#4",
            "ticks": 394320,
            "time": 410.75,
            "velocity": 0.6771653543307087
          },
          {
            "duration": 0.22604166666667425,
            "durationTicks": 217,
            "midi": 65,
            "name": "F4",
            "ticks": 394560,
            "time": 411,
            "velocity": 0.7716535433070866
          },
          {
            "duration": 0.22604166666667425,
            "durationTicks": 217,
            "midi": 68,
            "name": "G#4",
            "ticks": 394560,
            "time": 411,
            "velocity": 0.7716535433070866
          },
          {
            "duration": 0.22604166666667425,
            "durationTicks": 217,
            "midi": 65,
            "name": "F4",
            "ticks": 394800,
            "time": 411.25,
            "velocity": 0.7244094488188977
          },
          {
            "duration": 0.22604166666667425,
            "durationTicks": 217,
            "midi": 68,
            "name": "G#4",
            "ticks": 394800,
            "time": 411.25,
            "velocity": 0.7244094488188977
          },
          {
            "duration": 0.45104166666664014,
            "durationTicks": 433,
            "midi": 65,
            "name": "F4",
            "ticks": 395040,
            "time": 411.5,
            "velocity": 0.7559055118110236
          },
          {
            "duration": 0.45104166666664014,
            "durationTicks": 433,
            "midi": 68,
            "name": "G#4",
            "ticks": 395040,
            "time": 411.5,
            "velocity": 0.7559055118110236
          },
          {
            "duration": 0.22604166666667425,
            "durationTicks": 217,
            "midi": 63,
            "name": "D#4",
            "ticks": 396240,
            "time": 412.75,
            "velocity": 0.6771653543307087
          },
          {
            "duration": 0.22604166666667425,
            "durationTicks": 217,
            "midi": 67,
            "name": "G4",
            "ticks": 396240,
            "time": 412.75,
            "velocity": 0.6771653543307087
          },
          {
            "duration": 0.22604166666667425,
            "durationTicks": 217,
            "midi": 63,
            "name": "D#4",
            "ticks": 396480,
            "time": 413,
            "velocity": 0.7716535433070866
          },
          {
            "duration": 0.22604166666667425,
            "durationTicks": 217,
            "midi": 67,
            "name": "G4",
            "ticks": 396480,
            "time": 413,
            "velocity": 0.7716535433070866
          },
          {
            "duration": 0.22604166666667425,
            "durationTicks": 217,
            "midi": 63,
            "name": "D#4",
            "ticks": 396720,
            "time": 413.25,
            "velocity": 0.7795275590551181
          },
          {
            "duration": 0.22604166666667425,
            "durationTicks": 217,
            "midi": 67,
            "name": "G4",
            "ticks": 396720,
            "time": 413.25,
            "velocity": 0.7795275590551181
          },
          {
            "duration": 0.45104166666664014,
            "durationTicks": 433,
            "midi": 63,
            "name": "D#4",
            "ticks": 396960,
            "time": 413.5,
            "velocity": 0.8031496062992126
          },
          {
            "duration": 0.45104166666664014,
            "durationTicks": 433,
            "midi": 67,
            "name": "G4",
            "ticks": 396960,
            "time": 413.5,
            "velocity": 0.8031496062992126
          },
          {
            "duration": 0.45104166666664014,
            "durationTicks": 433,
            "midi": 59,
            "name": "B3",
            "ticks": 397920,
            "time": 414.5,
            "velocity": 0.7795275590551181
          },
          {
            "duration": 0.45104166666664014,
            "durationTicks": 433,
            "midi": 48,
            "name": "C3",
            "ticks": 398880,
            "time": 415.5,
            "velocity": 0.7874015748031497
          },
          {
            "duration": 0.45104166666664014,
            "durationTicks": 433,
            "midi": 58,
            "name": "A#3",
            "ticks": 398880,
            "time": 415.5,
            "velocity": 0.7874015748031497
          },
          {
            "duration": 0.45104166666664014,
            "durationTicks": 433,
            "midi": 48,
            "name": "C3",
            "ticks": 399840,
            "time": 416.5,
            "velocity": 0.8267716535433071
          },
          {
            "duration": 0.45104166666664014,
            "durationTicks": 433,
            "midi": 56,
            "name": "G#3",
            "ticks": 399840,
            "time": 416.5,
            "velocity": 0.8267716535433071
          },
          {
            "duration": 0.45104166666664014,
            "durationTicks": 433,
            "midi": 48,
            "name": "C3",
            "ticks": 400800,
            "time": 417.5,
            "velocity": 0.7952755905511811
          },
          {
            "duration": 0.45104166666664014,
            "durationTicks": 433,
            "midi": 52,
            "name": "E3",
            "ticks": 400800,
            "time": 417.5,
            "velocity": 0.7952755905511811
          },
          {
            "duration": 0.45104166666664014,
            "durationTicks": 433,
            "midi": 48,
            "name": "C3",
            "ticks": 401760,
            "time": 418.5,
            "velocity": 0.8110236220472441
          },
          {
            "duration": 0.45104166666664014,
            "durationTicks": 433,
            "midi": 53,
            "name": "F3",
            "ticks": 401760,
            "time": 418.5,
            "velocity": 0.8110236220472441
          },
          {
            "duration": 0.45104166666664014,
            "durationTicks": 433,
            "midi": 48,
            "name": "C3",
            "ticks": 402720,
            "time": 419.5,
            "velocity": 0.7952755905511811
          },
          {
            "duration": 0.45104166666664014,
            "durationTicks": 433,
            "midi": 60,
            "name": "C4",
            "ticks": 402720,
            "time": 419.5,
            "velocity": 0.7952755905511811
          },
          {
            "duration": 3.8999999999999773,
            "durationTicks": 3744,
            "midi": 48,
            "name": "C3",
            "ticks": 403680,
            "time": 420.5,
            "velocity": 0.6929133858267716
          },
          {
            "duration": 3.8999999999999773,
            "durationTicks": 3744,
            "midi": 51,
            "name": "D#3",
            "ticks": 403680,
            "time": 420.5,
            "velocity": 0.6929133858267716
          },
          {
            "duration": 3.45104166666664,
            "durationTicks": 3313,
            "midi": 47,
            "name": "B2",
            "ticks": 407520,
            "time": 424.5,
            "velocity": 0.7637795275590551
          },
          {
            "duration": 3.45104166666664,
            "durationTicks": 3313,
            "midi": 50,
            "name": "D3",
            "ticks": 407520,
            "time": 424.5,
            "velocity": 0.7637795275590551
          },
          {
            "duration": 0.45104166666664014,
            "durationTicks": 433,
            "midi": 48,
            "name": "C3",
            "ticks": 410880,
            "time": 428,
            "velocity": 0.7952755905511811
          },
          {
            "duration": 0.45104166666664014,
            "durationTicks": 433,
            "midi": 51,
            "name": "D#3",
            "ticks": 410880,
            "time": 428,
            "velocity": 0.7952755905511811
          },
          {
            "duration": 3.8999999999999773,
            "durationTicks": 3744,
            "midi": 60,
            "name": "C4",
            "ticks": 411360,
            "time": 428.5,
            "velocity": 1
          },
          {
            "duration": 3.8999999999999773,
            "durationTicks": 3744,
            "midi": 63,
            "name": "D#4",
            "ticks": 411360,
            "time": 428.5,
            "velocity": 1
          },
          {
            "duration": 0.45104166666664014,
            "durationTicks": 433,
            "midi": 60,
            "name": "C4",
            "ticks": 415200,
            "time": 432.5,
            "velocity": 0.8818897637795275
          },
          {
            "duration": 0.45104166666664014,
            "durationTicks": 433,
            "midi": 63,
            "name": "D#4",
            "ticks": 415200,
            "time": 432.5,
            "velocity": 0.8818897637795275
          },
          {
            "duration": 0.45104166666664014,
            "durationTicks": 433,
            "midi": 59,
            "name": "B3",
            "ticks": 417120,
            "time": 434.5,
            "velocity": 0.7716535433070866
          },
          {
            "duration": 0.45104166666664014,
            "durationTicks": 433,
            "midi": 62,
            "name": "D4",
            "ticks": 417120,
            "time": 434.5,
            "velocity": 0.7716535433070866
          },
          {
            "duration": 0.22604166666667425,
            "durationTicks": 217,
            "midi": 67,
            "name": "G4",
            "ticks": 418320,
            "time": 435.75,
            "velocity": 0.8267716535433071
          },
          {
            "duration": 0.22604166666667425,
            "durationTicks": 217,
            "midi": 67,
            "name": "G4",
            "ticks": 418560,
            "time": 436,
            "velocity": 0.8818897637795275
          },
          {
            "duration": 0.22604166666667425,
            "durationTicks": 217,
            "midi": 67,
            "name": "G4",
            "ticks": 418800,
            "time": 436.25,
            "velocity": 0.8818897637795275
          },
          {
            "duration": 0.8999999999999773,
            "durationTicks": 864,
            "midi": 60,
            "name": "C4",
            "ticks": 419040,
            "time": 436.5,
            "velocity": 0.8031496062992126
          },
          {
            "duration": 0.8999999999999773,
            "durationTicks": 864,
            "midi": 62,
            "name": "D4",
            "ticks": 420000,
            "time": 437.5,
            "velocity": 1
          },
          {
            "duration": 1,
            "durationTicks": 960,
            "midi": 55,
            "name": "G3",
            "ticks": 420960,
            "time": 438.5,
            "velocity": 0.9448818897637795
          },
          {
            "duration": 4.115625000000023,
            "durationTicks": 3951,
            "midi": 55,
            "name": "G3",
            "ticks": 421920,
            "time": 439.5,
            "velocity": 0.8503937007874016
          },
          {
            "duration": 1.1541666666666401,
            "durationTicks": 1108,
            "midi": 64,
            "name": "E4",
            "ticks": 425760,
            "time": 443.5,
            "velocity": 0.5196850393700787
          },
          {
            "duration": 1.1541666666666401,
            "durationTicks": 1108,
            "midi": 67,
            "name": "G4",
            "ticks": 425760,
            "time": 443.5,
            "velocity": 0.5196850393700787
          },
          {
            "duration": 1.0020833333333599,
            "durationTicks": 962,
            "midi": 62,
            "name": "D4",
            "ticks": 426720,
            "time": 444.5,
            "velocity": 0.5275590551181102
          },
          {
            "duration": 1.0020833333333599,
            "durationTicks": 962,
            "midi": 65,
            "name": "F4",
            "ticks": 426720,
            "time": 444.5,
            "velocity": 0.5275590551181102
          },
          {
            "duration": 1.1541666666666401,
            "durationTicks": 1108,
            "midi": 55,
            "name": "G3",
            "ticks": 427680,
            "time": 445.5,
            "velocity": 0.3464566929133858
          },
          {
            "duration": 1.1541666666666401,
            "durationTicks": 1108,
            "midi": 62,
            "name": "D4",
            "ticks": 427680,
            "time": 445.5,
            "velocity": 0.3464566929133858
          },
          {
            "duration": 1.0020833333333599,
            "durationTicks": 962,
            "midi": 60,
            "name": "C4",
            "ticks": 428640,
            "time": 446.5,
            "velocity": 0.3464566929133858
          },
          {
            "duration": 1.0020833333333599,
            "durationTicks": 962,
            "midi": 64,
            "name": "E4",
            "ticks": 428640,
            "time": 446.5,
            "velocity": 0.3464566929133858
          },
          {
            "duration": 1.1541666666666401,
            "durationTicks": 1108,
            "midi": 52,
            "name": "E3",
            "ticks": 429600,
            "time": 447.5,
            "velocity": 0.3464566929133858
          },
          {
            "duration": 1.1541666666666401,
            "durationTicks": 1108,
            "midi": 55,
            "name": "G3",
            "ticks": 429600,
            "time": 447.5,
            "velocity": 0.3464566929133858
          },
          {
            "duration": 1.0020833333333599,
            "durationTicks": 962,
            "midi": 50,
            "name": "D3",
            "ticks": 430560,
            "time": 448.5,
            "velocity": 0.33858267716535434
          },
          {
            "duration": 1.0020833333333599,
            "durationTicks": 962,
            "midi": 53,
            "name": "F3",
            "ticks": 430560,
            "time": 448.5,
            "velocity": 0.33858267716535434
          },
          {
            "duration": 1.1541666666666401,
            "durationTicks": 1108,
            "midi": 43,
            "name": "G2",
            "ticks": 431520,
            "time": 449.5,
            "velocity": 0.3779527559055118
          },
          {
            "duration": 1.1541666666666401,
            "durationTicks": 1108,
            "midi": 50,
            "name": "D3",
            "ticks": 431520,
            "time": 449.5,
            "velocity": 0.3779527559055118
          },
          {
            "duration": 1.0020833333333599,
            "durationTicks": 962,
            "midi": 48,
            "name": "C3",
            "ticks": 432480,
            "time": 450.5,
            "velocity": 0.3858267716535433
          },
          {
            "duration": 1.0020833333333599,
            "durationTicks": 962,
            "midi": 52,
            "name": "E3",
            "ticks": 432480,
            "time": 450.5,
            "velocity": 0.3858267716535433
          },
          {
            "duration": 1.1541666666666401,
            "durationTicks": 1108,
            "midi": 64,
            "name": "E4",
            "ticks": 433440,
            "time": 451.5,
            "velocity": 0.5354330708661418
          },
          {
            "duration": 1.1541666666666401,
            "durationTicks": 1108,
            "midi": 67,
            "name": "G4",
            "ticks": 433440,
            "time": 451.5,
            "velocity": 0.5354330708661418
          },
          {
            "duration": 1.0020833333333599,
            "durationTicks": 962,
            "midi": 62,
            "name": "D4",
            "ticks": 434400,
            "time": 452.5,
            "velocity": 0.5433070866141733
          },
          {
            "duration": 1.0020833333333599,
            "durationTicks": 962,
            "midi": 65,
            "name": "F4",
            "ticks": 434400,
            "time": 452.5,
            "velocity": 0.5433070866141733
          },
          {
            "duration": 1.1541666666666401,
            "durationTicks": 1108,
            "midi": 55,
            "name": "G3",
            "ticks": 435360,
            "time": 453.5,
            "velocity": 0.4015748031496063
          },
          {
            "duration": 1.1541666666666401,
            "durationTicks": 1108,
            "midi": 62,
            "name": "D4",
            "ticks": 435360,
            "time": 453.5,
            "velocity": 0.4015748031496063
          },
          {
            "duration": 1.0020833333333599,
            "durationTicks": 962,
            "midi": 60,
            "name": "C4",
            "ticks": 436320,
            "time": 454.5,
            "velocity": 0.4566929133858268
          },
          {
            "duration": 1.0020833333333599,
            "durationTicks": 962,
            "midi": 64,
            "name": "E4",
            "ticks": 436320,
            "time": 454.5,
            "velocity": 0.4566929133858268
          },
          {
            "duration": 1.109375,
            "durationTicks": 1065,
            "midi": 55,
            "name": "G3",
            "ticks": 437280,
            "time": 455.5,
            "velocity": 0.3779527559055118
          },
          {
            "duration": 1.1541666666666401,
            "durationTicks": 1108,
            "midi": 58,
            "name": "A#3",
            "ticks": 437280,
            "time": 455.5,
            "velocity": 0.3779527559055118
          },
          {
            "duration": 1.0020833333333599,
            "durationTicks": 962,
            "midi": 52,
            "name": "E3",
            "ticks": 438240,
            "time": 456.5,
            "velocity": 0.3779527559055118
          },
          {
            "duration": 1.0020833333333599,
            "durationTicks": 962,
            "midi": 55,
            "name": "G3",
            "ticks": 438240,
            "time": 456.5,
            "velocity": 0.3779527559055118
          },
          {
            "duration": 1.1541666666666401,
            "durationTicks": 1108,
            "midi": 48,
            "name": "C3",
            "ticks": 439200,
            "time": 457.5,
            "velocity": 0.33858267716535434
          },
          {
            "duration": 1.1541666666666401,
            "durationTicks": 1108,
            "midi": 52,
            "name": "E3",
            "ticks": 439200,
            "time": 457.5,
            "velocity": 0.33858267716535434
          },
          {
            "duration": 1.0020833333333599,
            "durationTicks": 962,
            "midi": 53,
            "name": "F3",
            "ticks": 440160,
            "time": 458.5,
            "velocity": 0.3464566929133858
          },
          {
            "duration": 1.109375,
            "durationTicks": 1065,
            "midi": 57,
            "name": "A3",
            "ticks": 441120,
            "time": 459.5,
            "velocity": 0.4566929133858268
          },
          {
            "duration": 1.1541666666666401,
            "durationTicks": 1108,
            "midi": 60,
            "name": "C4",
            "ticks": 441120,
            "time": 459.5,
            "velocity": 0.4566929133858268
          },
          {
            "duration": 1.0020833333333599,
            "durationTicks": 962,
            "midi": 54,
            "name": "F#3",
            "ticks": 442080,
            "time": 460.5,
            "velocity": 0.4251968503937008
          },
          {
            "duration": 1.0020833333333599,
            "durationTicks": 962,
            "midi": 57,
            "name": "A3",
            "ticks": 442080,
            "time": 460.5,
            "velocity": 0.4251968503937008
          },
          {
            "duration": 1.1541666666666401,
            "durationTicks": 1108,
            "midi": 50,
            "name": "D3",
            "ticks": 443040,
            "time": 461.5,
            "velocity": 0.5669291338582677
          },
          {
            "duration": 1.1541666666666401,
            "durationTicks": 1108,
            "midi": 54,
            "name": "F#3",
            "ticks": 443040,
            "time": 461.5,
            "velocity": 0.4015748031496063
          },
          {
            "duration": 1.0020833333333599,
            "durationTicks": 962,
            "midi": 55,
            "name": "G3",
            "ticks": 444000,
            "time": 462.5,
            "velocity": 0.3937007874015748
          },
          {
            "duration": 2.8999999999999773,
            "durationTicks": 2784,
            "midi": 44,
            "name": "G#2",
            "ticks": 444960,
            "time": 463.5,
            "velocity": 0.44881889763779526
          },
          {
            "duration": 2.8999999999999773,
            "durationTicks": 2784,
            "midi": 56,
            "name": "G#3",
            "ticks": 444960,
            "time": 463.5,
            "velocity": 0.44881889763779526
          },
          {
            "duration": 1.8999999999999773,
            "durationTicks": 1824,
            "midi": 47,
            "name": "B2",
            "ticks": 447840,
            "time": 466.5,
            "velocity": 0.44881889763779526
          },
          {
            "duration": 1.8999999999999773,
            "durationTicks": 1824,
            "midi": 59,
            "name": "B3",
            "ticks": 447840,
            "time": 466.5,
            "velocity": 0.44881889763779526
          },
          {
            "duration": 3.8999999999999773,
            "durationTicks": 3744,
            "midi": 50,
            "name": "D3",
            "ticks": 449760,
            "time": 468.5,
            "velocity": 0.4251968503937008
          },
          {
            "duration": 3.8999999999999773,
            "durationTicks": 3744,
            "midi": 62,
            "name": "D4",
            "ticks": 449760,
            "time": 468.5,
            "velocity": 0.4251968503937008
          },
          {
            "duration": 1.8999999999999773,
            "durationTicks": 1824,
            "midi": 50,
            "name": "D3",
            "ticks": 453600,
            "time": 472.5,
            "velocity": 0.6692913385826772
          },
          {
            "duration": 1.8999999999999773,
            "durationTicks": 1824,
            "midi": 62,
            "name": "D4",
            "ticks": 453600,
            "time": 472.5,
            "velocity": 0.6692913385826772
          },
          {
            "duration": 3.8999999999999773,
            "durationTicks": 3744,
            "midi": 50,
            "name": "D3",
            "ticks": 455520,
            "time": 474.5,
            "velocity": 0.7795275590551181
          },
          {
            "duration": 3.8999999999999773,
            "durationTicks": 3744,
            "midi": 62,
            "name": "D4",
            "ticks": 455520,
            "time": 474.5,
            "velocity": 0.7795275590551181
          },
          {
            "duration": 1.4510416666666401,
            "durationTicks": 1393,
            "midi": 62,
            "name": "D4",
            "ticks": 459360,
            "time": 478.5,
            "velocity": 0.952755905511811
          },
          {
            "duration": 1.4510416666666401,
            "durationTicks": 1393,
            "midi": 65,
            "name": "F4",
            "ticks": 459360,
            "time": 478.5,
            "velocity": 0.952755905511811
          },
          {
            "duration": 0.45104166666664014,
            "durationTicks": 433,
            "midi": 59,
            "name": "B3",
            "ticks": 460800,
            "time": 480,
            "velocity": 0.8740157480314961
          },
          {
            "duration": 0.45104166666664014,
            "durationTicks": 433,
            "midi": 65,
            "name": "F4",
            "ticks": 460800,
            "time": 480,
            "velocity": 0.8740157480314961
          },
          {
            "duration": 0.45104166666664014,
            "durationTicks": 433,
            "midi": 60,
            "name": "C4",
            "ticks": 461280,
            "time": 480.5,
            "velocity": 0.8661417322834646
          },
          {
            "duration": 0.45104166666664014,
            "durationTicks": 433,
            "midi": 64,
            "name": "E4",
            "ticks": 461280,
            "time": 480.5,
            "velocity": 0.8661417322834646
          },
          {
            "duration": 0.45104166666664014,
            "durationTicks": 433,
            "midi": 59,
            "name": "B3",
            "ticks": 462240,
            "time": 481.5,
            "velocity": 0.8110236220472441
          },
          {
            "duration": 0.45104166666664014,
            "durationTicks": 433,
            "midi": 65,
            "name": "F4",
            "ticks": 462240,
            "time": 481.5,
            "velocity": 0.8110236220472441
          },
          {
            "duration": 0.45104166666664014,
            "durationTicks": 433,
            "midi": 60,
            "name": "C4",
            "ticks": 463200,
            "time": 482.5,
            "velocity": 0.7874015748031497
          },
          {
            "duration": 0.45104166666664014,
            "durationTicks": 433,
            "midi": 64,
            "name": "E4",
            "ticks": 463200,
            "time": 482.5,
            "velocity": 0.7874015748031497
          },
          {
            "duration": 0.45104166666664014,
            "durationTicks": 433,
            "midi": 53,
            "name": "F3",
            "ticks": 464160,
            "time": 483.5,
            "velocity": 0.7637795275590551
          },
          {
            "duration": 0.45104166666664014,
            "durationTicks": 433,
            "midi": 65,
            "name": "F4",
            "ticks": 464160,
            "time": 483.5,
            "velocity": 0.7637795275590551
          },
          {
            "duration": 0.45104166666664014,
            "durationTicks": 433,
            "midi": 55,
            "name": "G3",
            "ticks": 465120,
            "time": 484.5,
            "velocity": 0.7952755905511811
          },
          {
            "duration": 0.45104166666664014,
            "durationTicks": 433,
            "midi": 67,
            "name": "G4",
            "ticks": 465120,
            "time": 484.5,
            "velocity": 0.7952755905511811
          },
          {
            "duration": 0.45104166666664014,
            "durationTicks": 433,
            "midi": 43,
            "name": "G2",
            "ticks": 466080,
            "time": 485.5,
            "velocity": 0.7952755905511811
          },
          {
            "duration": 0.45104166666664014,
            "durationTicks": 433,
            "midi": 55,
            "name": "G3",
            "ticks": 466080,
            "time": 485.5,
            "velocity": 0.7952755905511811
          },
          {
            "duration": 1.8999999999999773,
            "durationTicks": 1824,
            "midi": 47,
            "name": "B2",
            "ticks": 467040,
            "time": 486.5,
            "velocity": 0.7952755905511811
          },
          {
            "duration": 1.8999999999999773,
            "durationTicks": 1824,
            "midi": 50,
            "name": "D3",
            "ticks": 467040,
            "time": 486.5,
            "velocity": 0.7952755905511811
          },
          {
            "duration": 0.45104166666664014,
            "durationTicks": 433,
            "midi": 48,
            "name": "C3",
            "ticks": 468960,
            "time": 488.5,
            "velocity": 0.9291338582677166
          },
          {
            "duration": 0.45104166666664014,
            "durationTicks": 433,
            "midi": 52,
            "name": "E3",
            "ticks": 468960,
            "time": 488.5,
            "velocity": 0.9291338582677166
          },
          {
            "duration": 0.45104166666664014,
            "durationTicks": 433,
            "midi": 48,
            "name": "C3",
            "ticks": 469440,
            "time": 489,
            "velocity": 0.8661417322834646
          },
          {
            "duration": 0.45104166666664014,
            "durationTicks": 433,
            "midi": 52,
            "name": "E3",
            "ticks": 469440,
            "time": 489,
            "velocity": 0.8661417322834646
          },
          {
            "duration": 0.45104166666664014,
            "durationTicks": 433,
            "midi": 50,
            "name": "D3",
            "ticks": 470400,
            "time": 490,
            "velocity": 0.7952755905511811
          },
          {
            "duration": 0.45104166666664014,
            "durationTicks": 433,
            "midi": 53,
            "name": "F3",
            "ticks": 470400,
            "time": 490,
            "velocity": 0.7952755905511811
          },
          {
            "duration": 0.45104166666664014,
            "durationTicks": 433,
            "midi": 52,
            "name": "E3",
            "ticks": 471360,
            "time": 491,
            "velocity": 0.8267716535433071
          },
          {
            "duration": 0.45104166666664014,
            "durationTicks": 433,
            "midi": 55,
            "name": "G3",
            "ticks": 471360,
            "time": 491,
            "velocity": 0.8267716535433071
          },
          {
            "duration": 0.45104166666664014,
            "durationTicks": 433,
            "midi": 53,
            "name": "F3",
            "ticks": 472320,
            "time": 492,
            "velocity": 0.8031496062992126
          },
          {
            "duration": 0.45104166666664014,
            "durationTicks": 433,
            "midi": 57,
            "name": "A3",
            "ticks": 472320,
            "time": 492,
            "velocity": 0.8031496062992126
          },
          {
            "duration": 0.45104166666664014,
            "durationTicks": 433,
            "midi": 55,
            "name": "G3",
            "ticks": 473280,
            "time": 493,
            "velocity": 0.8031496062992126
          },
          {
            "duration": 0.45104166666664014,
            "durationTicks": 433,
            "midi": 60,
            "name": "C4",
            "ticks": 473280,
            "time": 493,
            "velocity": 0.8031496062992126
          },
          {
            "duration": 0.45104166666664014,
            "durationTicks": 433,
            "midi": 55,
            "name": "G3",
            "ticks": 474240,
            "time": 494,
            "velocity": 0.8031496062992126
          },
          {
            "duration": 0.45104166666664014,
            "durationTicks": 433,
            "midi": 59,
            "name": "B3",
            "ticks": 474240,
            "time": 494,
            "velocity": 0.8031496062992126
          },
          {
            "duration": 0.22604166666667425,
            "durationTicks": 217,
            "midi": 55,
            "name": "G3",
            "ticks": 474720,
            "time": 494.5,
            "velocity": 0.937007874015748
          },
          {
            "duration": 0.22604166666667425,
            "durationTicks": 217,
            "midi": 60,
            "name": "C4",
            "ticks": 474720,
            "time": 494.5,
            "velocity": 0.937007874015748
          },
          {
            "duration": 0.22604166666667425,
            "durationTicks": 217,
            "midi": 52,
            "name": "E3",
            "ticks": 474960,
            "time": 494.75,
            "velocity": 0.984251968503937
          },
          {
            "duration": 0.22604166666667425,
            "durationTicks": 217,
            "midi": 64,
            "name": "E4",
            "ticks": 474960,
            "time": 494.75,
            "velocity": 0.984251968503937
          },
          {
            "duration": 0.22604166666667425,
            "durationTicks": 217,
            "midi": 52,
            "name": "E3",
            "ticks": 475200,
            "time": 495,
            "velocity": 0.9291338582677166
          },
          {
            "duration": 0.22604166666667425,
            "durationTicks": 217,
            "midi": 64,
            "name": "E4",
            "ticks": 475200,
            "time": 495,
            "velocity": 0.9291338582677166
          },
          {
            "duration": 0.22604166666667425,
            "durationTicks": 217,
            "midi": 52,
            "name": "E3",
            "ticks": 475440,
            "time": 495.25,
            "velocity": 0.8661417322834646
          },
          {
            "duration": 0.22604166666667425,
            "durationTicks": 217,
            "midi": 64,
            "name": "E4",
            "ticks": 475440,
            "time": 495.25,
            "velocity": 0.8661417322834646
          },
          {
            "duration": 0.22604166666667425,
            "durationTicks": 217,
            "midi": 48,
            "name": "C3",
            "ticks": 475680,
            "time": 495.5,
            "velocity": 0.7952755905511811
          },
          {
            "duration": 0.22604166666667425,
            "durationTicks": 217,
            "midi": 60,
            "name": "C4",
            "ticks": 475680,
            "time": 495.5,
            "velocity": 0.7952755905511811
          },
          {
            "duration": 0.22604166666667425,
            "durationTicks": 217,
            "midi": 55,
            "name": "G3",
            "ticks": 475920,
            "time": 495.75,
            "velocity": 1
          },
          {
            "duration": 0.22604166666667425,
            "durationTicks": 217,
            "midi": 67,
            "name": "G4",
            "ticks": 475920,
            "time": 495.75,
            "velocity": 1
          },
          {
            "duration": 0.22604166666667425,
            "durationTicks": 217,
            "midi": 55,
            "name": "G3",
            "ticks": 476160,
            "time": 496,
            "velocity": 0.9212598425196851
          },
          {
            "duration": 0.22604166666667425,
            "durationTicks": 217,
            "midi": 67,
            "name": "G4",
            "ticks": 476160,
            "time": 496,
            "velocity": 0.9212598425196851
          },
          {
            "duration": 0.22604166666667425,
            "durationTicks": 217,
            "midi": 55,
            "name": "G3",
            "ticks": 476400,
            "time": 496.25,
            "velocity": 0.905511811023622
          },
          {
            "duration": 0.22604166666667425,
            "durationTicks": 217,
            "midi": 67,
            "name": "G4",
            "ticks": 476400,
            "time": 496.25,
            "velocity": 0.905511811023622
          },
          {
            "duration": 0.22604166666667425,
            "durationTicks": 217,
            "midi": 52,
            "name": "E3",
            "ticks": 476640,
            "time": 496.5,
            "velocity": 0.7952755905511811
          },
          {
            "duration": 0.22604166666667425,
            "durationTicks": 217,
            "midi": 64,
            "name": "E4",
            "ticks": 476640,
            "time": 496.5,
            "velocity": 0.7952755905511811
          },
          {
            "duration": 0.22604166666667425,
            "durationTicks": 217,
            "midi": 48,
            "name": "C3",
            "ticks": 476880,
            "time": 496.75,
            "velocity": 0.7874015748031497
          },
          {
            "duration": 0.22604166666667425,
            "durationTicks": 217,
            "midi": 60,
            "name": "C4",
            "ticks": 476880,
            "time": 496.75,
            "velocity": 0.7874015748031497
          },
          {
            "duration": 0.22604166666667425,
            "durationTicks": 217,
            "midi": 48,
            "name": "C3",
            "ticks": 477120,
            "time": 497,
            "velocity": 0.8740157480314961
          },
          {
            "duration": 0.22604166666667425,
            "durationTicks": 217,
            "midi": 60,
            "name": "C4",
            "ticks": 477120,
            "time": 497,
            "velocity": 0.8740157480314961
          },
          {
            "duration": 0.22604166666667425,
            "durationTicks": 217,
            "midi": 48,
            "name": "C3",
            "ticks": 477360,
            "time": 497.25,
            "velocity": 0.905511811023622
          },
          {
            "duration": 0.22604166666667425,
            "durationTicks": 217,
            "midi": 60,
            "name": "C4",
            "ticks": 477360,
            "time": 497.25,
            "velocity": 0.905511811023622
          },
          {
            "duration": 1.2260416666666742,
            "durationTicks": 1177,
            "midi": 43,
            "name": "G2",
            "ticks": 477600,
            "time": 497.5,
            "velocity": 0.84251968503937
          },
          {
            "duration": 1.2260416666666742,
            "durationTicks": 1177,
            "midi": 55,
            "name": "G3",
            "ticks": 477600,
            "time": 497.5,
            "velocity": 0.84251968503937
          },
          {
            "duration": 0.22604166666667425,
            "durationTicks": 217,
            "midi": 64,
            "name": "E4",
            "ticks": 478800,
            "time": 498.75,
            "velocity": 1
          },
          {
            "duration": 0.22604166666667425,
            "durationTicks": 217,
            "midi": 64,
            "name": "E4",
            "ticks": 479040,
            "time": 499,
            "velocity": 0.9133858267716536
          },
          {
            "duration": 0.22604166666667425,
            "durationTicks": 217,
            "midi": 64,
            "name": "E4",
            "ticks": 479280,
            "time": 499.25,
            "velocity": 0.8976377952755905
          },
          {
            "duration": 0.22604166666667425,
            "durationTicks": 217,
            "midi": 60,
            "name": "C4",
            "ticks": 479520,
            "time": 499.5,
            "velocity": 0.7874015748031497
          },
          {
            "duration": 0.22604166666667425,
            "durationTicks": 217,
            "midi": 55,
            "name": "G3",
            "ticks": 479760,
            "time": 499.75,
            "velocity": 1
          },
          {
            "duration": 0.22604166666667425,
            "durationTicks": 217,
            "midi": 67,
            "name": "G4",
            "ticks": 479760,
            "time": 499.75,
            "velocity": 1
          },
          {
            "duration": 0.22604166666667425,
            "durationTicks": 217,
            "midi": 55,
            "name": "G3",
            "ticks": 480000,
            "time": 500,
            "velocity": 0.9291338582677166
          },
          {
            "duration": 0.22604166666667425,
            "durationTicks": 217,
            "midi": 67,
            "name": "G4",
            "ticks": 480000,
            "time": 500,
            "velocity": 0.9291338582677166
          },
          {
            "duration": 0.22604166666667425,
            "durationTicks": 217,
            "midi": 55,
            "name": "G3",
            "ticks": 480240,
            "time": 500.25,
            "velocity": 0.8976377952755905
          },
          {
            "duration": 0.22604166666667425,
            "durationTicks": 217,
            "midi": 67,
            "name": "G4",
            "ticks": 480240,
            "time": 500.25,
            "velocity": 0.8976377952755905
          },
          {
            "duration": 0.22604166666667425,
            "durationTicks": 217,
            "midi": 52,
            "name": "E3",
            "ticks": 480480,
            "time": 500.5,
            "velocity": 0.8503937007874016
          },
          {
            "duration": 0.22604166666667425,
            "durationTicks": 217,
            "midi": 64,
            "name": "E4",
            "ticks": 480480,
            "time": 500.5,
            "velocity": 0.8503937007874016
          },
          {
            "duration": 0.22604166666667425,
            "durationTicks": 217,
            "midi": 48,
            "name": "C3",
            "ticks": 480720,
            "time": 500.75,
            "velocity": 0.7952755905511811
          },
          {
            "duration": 0.22604166666667425,
            "durationTicks": 217,
            "midi": 60,
            "name": "C4",
            "ticks": 480720,
            "time": 500.75,
            "velocity": 0.7952755905511811
          },
          {
            "duration": 0.22604166666667425,
            "durationTicks": 217,
            "midi": 48,
            "name": "C3",
            "ticks": 480960,
            "time": 501,
            "velocity": 0.8976377952755905
          },
          {
            "duration": 0.22604166666667425,
            "durationTicks": 217,
            "midi": 60,
            "name": "C4",
            "ticks": 480960,
            "time": 501,
            "velocity": 0.8976377952755905
          },
          {
            "duration": 0.22604166666667425,
            "durationTicks": 217,
            "midi": 48,
            "name": "C3",
            "ticks": 481200,
            "time": 501.25,
            "velocity": 0.8818897637795275
          },
          {
            "duration": 0.22604166666667425,
            "durationTicks": 217,
            "midi": 60,
            "name": "C4",
            "ticks": 481200,
            "time": 501.25,
            "velocity": 0.8818897637795275
          },
          {
            "duration": 0.22604166666667425,
            "durationTicks": 217,
            "midi": 43,
            "name": "G2",
            "ticks": 481440,
            "time": 501.5,
            "velocity": 0.8346456692913385
          },
          {
            "duration": 0.22604166666667425,
            "durationTicks": 217,
            "midi": 55,
            "name": "G3",
            "ticks": 481440,
            "time": 501.5,
            "velocity": 0.8346456692913385
          },
          {
            "duration": 0.22604166666667425,
            "durationTicks": 217,
            "midi": 59,
            "name": "B3",
            "ticks": 481680,
            "time": 501.75,
            "velocity": 1
          },
          {
            "duration": 0.22604166666667425,
            "durationTicks": 217,
            "midi": 62,
            "name": "D4",
            "ticks": 481680,
            "time": 501.75,
            "velocity": 1
          },
          {
            "duration": 0.22604166666667425,
            "durationTicks": 217,
            "midi": 59,
            "name": "B3",
            "ticks": 481920,
            "time": 502,
            "velocity": 0.8976377952755905
          },
          {
            "duration": 0.22604166666667425,
            "durationTicks": 217,
            "midi": 62,
            "name": "D4",
            "ticks": 481920,
            "time": 502,
            "velocity": 0.8976377952755905
          },
          {
            "duration": 0.22604166666667425,
            "durationTicks": 217,
            "midi": 59,
            "name": "B3",
            "ticks": 482160,
            "time": 502.25,
            "velocity": 0.8976377952755905
          },
          {
            "duration": 0.22604166666667425,
            "durationTicks": 217,
            "midi": 62,
            "name": "D4",
            "ticks": 482160,
            "time": 502.25,
            "velocity": 0.8976377952755905
          },
          {
            "duration": 0.45104166666664014,
            "durationTicks": 433,
            "midi": 60,
            "name": "C4",
            "ticks": 482400,
            "time": 502.5,
            "velocity": 0.937007874015748
          },
          {
            "duration": 0.45104166666664014,
            "durationTicks": 433,
            "midi": 64,
            "name": "E4",
            "ticks": 482400,
            "time": 502.5,
            "velocity": 0.937007874015748
          },
          {
            "duration": 0.22604166666667425,
            "durationTicks": 217,
            "midi": 59,
            "name": "B3",
            "ticks": 483600,
            "time": 503.75,
            "velocity": 0.7874015748031497
          },
          {
            "duration": 0.22604166666667425,
            "durationTicks": 217,
            "midi": 62,
            "name": "D4",
            "ticks": 483600,
            "time": 503.75,
            "velocity": 0.7874015748031497
          },
          {
            "duration": 0.22604166666667425,
            "durationTicks": 217,
            "midi": 59,
            "name": "B3",
            "ticks": 483840,
            "time": 504,
            "velocity": 0.9212598425196851
          },
          {
            "duration": 0.22604166666667425,
            "durationTicks": 217,
            "midi": 62,
            "name": "D4",
            "ticks": 483840,
            "time": 504,
            "velocity": 0.9212598425196851
          },
          {
            "duration": 0.22604166666667425,
            "durationTicks": 217,
            "midi": 59,
            "name": "B3",
            "ticks": 484080,
            "time": 504.25,
            "velocity": 0.8740157480314961
          },
          {
            "duration": 0.22604166666667425,
            "durationTicks": 217,
            "midi": 62,
            "name": "D4",
            "ticks": 484080,
            "time": 504.25,
            "velocity": 0.8740157480314961
          },
          {
            "duration": 0.45104166666664014,
            "durationTicks": 433,
            "midi": 60,
            "name": "C4",
            "ticks": 484320,
            "time": 504.5,
            "velocity": 0.9606299212598425
          },
          {
            "duration": 0.45104166666664014,
            "durationTicks": 433,
            "midi": 64,
            "name": "E4",
            "ticks": 484320,
            "time": 504.5,
            "velocity": 0.9606299212598425
          },
          {
            "duration": 0.22604166666667425,
            "durationTicks": 217,
            "midi": 55,
            "name": "G3",
            "ticks": 485520,
            "time": 505.75,
            "velocity": 0.7716535433070866
          },
          {
            "duration": 0.22604166666667425,
            "durationTicks": 217,
            "midi": 62,
            "name": "D4",
            "ticks": 485520,
            "time": 505.75,
            "velocity": 0.7716535433070866
          },
          {
            "duration": 0.22604166666667425,
            "durationTicks": 217,
            "midi": 55,
            "name": "G3",
            "ticks": 485760,
            "time": 506,
            "velocity": 0.8740157480314961
          },
          {
            "duration": 0.22604166666667425,
            "durationTicks": 217,
            "midi": 62,
            "name": "D4",
            "ticks": 485760,
            "time": 506,
            "velocity": 0.8740157480314961
          },
          {
            "duration": 0.22604166666667425,
            "durationTicks": 217,
            "midi": 55,
            "name": "G3",
            "ticks": 486000,
            "time": 506.25,
            "velocity": 0.905511811023622
          },
          {
            "duration": 0.22604166666667425,
            "durationTicks": 217,
            "midi": 62,
            "name": "D4",
            "ticks": 486000,
            "time": 506.25,
            "velocity": 0.905511811023622
          },
          {
            "duration": 0.22604166666667425,
            "durationTicks": 217,
            "midi": 48,
            "name": "C3",
            "ticks": 486240,
            "time": 506.5,
            "velocity": 0.8346456692913385
          },
          {
            "duration": 0.22604166666667425,
            "durationTicks": 217,
            "midi": 60,
            "name": "C4",
            "ticks": 486240,
            "time": 506.5,
            "velocity": 0.8346456692913385
          },
          {
            "duration": 0.22604166666667425,
            "durationTicks": 217,
            "midi": 48,
            "name": "C3",
            "ticks": 486480,
            "time": 506.75,
            "velocity": 0.8818897637795275
          },
          {
            "duration": 0.22604166666667425,
            "durationTicks": 217,
            "midi": 60,
            "name": "C4",
            "ticks": 486480,
            "time": 506.75,
            "velocity": 0.8818897637795275
          },
          {
            "duration": 0.22604166666667425,
            "durationTicks": 217,
            "midi": 48,
            "name": "C3",
            "ticks": 486720,
            "time": 507,
            "velocity": 0.905511811023622
          },
          {
            "duration": 0.22604166666667425,
            "durationTicks": 217,
            "midi": 60,
            "name": "C4",
            "ticks": 486720,
            "time": 507,
            "velocity": 0.905511811023622
          },
          {
            "duration": 0.22604166666667425,
            "durationTicks": 217,
            "midi": 48,
            "name": "C3",
            "ticks": 486960,
            "time": 507.25,
            "velocity": 0.889763779527559
          },
          {
            "duration": 0.22604166666667425,
            "durationTicks": 217,
            "midi": 60,
            "name": "C4",
            "ticks": 486960,
            "time": 507.25,
            "velocity": 0.889763779527559
          },
          {
            "duration": 1.2260416666666742,
            "durationTicks": 1177,
            "midi": 48,
            "name": "C3",
            "ticks": 487200,
            "time": 507.5,
            "velocity": 0.8661417322834646
          },
          {
            "duration": 1.2260416666666742,
            "durationTicks": 1177,
            "midi": 60,
            "name": "C4",
            "ticks": 487200,
            "time": 507.5,
            "velocity": 0.8661417322834646
          },
          {
            "duration": 0.22604166666667425,
            "durationTicks": 217,
            "midi": 48,
            "name": "C3",
            "ticks": 488400,
            "time": 508.75,
            "velocity": 0.8818897637795275
          },
          {
            "duration": 0.22604166666667425,
            "durationTicks": 217,
            "midi": 60,
            "name": "C4",
            "ticks": 488400,
            "time": 508.75,
            "velocity": 0.8818897637795275
          },
          {
            "duration": 0.22604166666667425,
            "durationTicks": 217,
            "midi": 48,
            "name": "C3",
            "ticks": 488640,
            "time": 509,
            "velocity": 0.8740157480314961
          },
          {
            "duration": 0.22604166666667425,
            "durationTicks": 217,
            "midi": 60,
            "name": "C4",
            "ticks": 488640,
            "time": 509,
            "velocity": 0.8740157480314961
          },
          {
            "duration": 0.22604166666667425,
            "durationTicks": 217,
            "midi": 48,
            "name": "C3",
            "ticks": 488880,
            "time": 509.25,
            "velocity": 0.9133858267716536
          },
          {
            "duration": 0.22604166666667425,
            "durationTicks": 217,
            "midi": 60,
            "name": "C4",
            "ticks": 488880,
            "time": 509.25,
            "velocity": 0.9133858267716536
          },
          {
            "duration": 1.2260416666666742,
            "durationTicks": 1177,
            "midi": 48,
            "name": "C3",
            "ticks": 489120,
            "time": 509.5,
            "velocity": 0.8661417322834646
          },
          {
            "duration": 1.2260416666666742,
            "durationTicks": 1177,
            "midi": 60,
            "name": "C4",
            "ticks": 489120,
            "time": 509.5,
            "velocity": 0.8661417322834646
          },
          {
            "duration": 0.22604166666667425,
            "durationTicks": 217,
            "midi": 48,
            "name": "C3",
            "ticks": 490320,
            "time": 510.75,
            "velocity": 0.8818897637795275
          },
          {
            "duration": 0.22604166666667425,
            "durationTicks": 217,
            "midi": 60,
            "name": "C4",
            "ticks": 490320,
            "time": 510.75,
            "velocity": 0.8818897637795275
          },
          {
            "duration": 0.22604166666667425,
            "durationTicks": 217,
            "midi": 48,
            "name": "C3",
            "ticks": 490560,
            "time": 511,
            "velocity": 0.8740157480314961
          },
          {
            "duration": 0.22604166666667425,
            "durationTicks": 217,
            "midi": 60,
            "name": "C4",
            "ticks": 490560,
            "time": 511,
            "velocity": 0.8740157480314961
          },
          {
            "duration": 0.22604166666667425,
            "durationTicks": 217,
            "midi": 48,
            "name": "C3",
            "ticks": 490800,
            "time": 511.25,
            "velocity": 0.8346456692913385
          },
          {
            "duration": 0.22604166666667425,
            "durationTicks": 217,
            "midi": 60,
            "name": "C4",
            "ticks": 490800,
            "time": 511.25,
            "velocity": 0.8346456692913385
          },
          {
            "duration": 1.2260416666666742,
            "durationTicks": 1177,
            "midi": 48,
            "name": "C3",
            "ticks": 491040,
            "time": 511.5,
            "velocity": 0.8503937007874016
          },
          {
            "duration": 1.2260416666666742,
            "durationTicks": 1177,
            "midi": 60,
            "name": "C4",
            "ticks": 491040,
            "time": 511.5,
            "velocity": 0.8503937007874016
          },
          {
            "duration": 0.22604166666667425,
            "durationTicks": 217,
            "midi": 48,
            "name": "C3",
            "ticks": 492240,
            "time": 512.75,
            "velocity": 0.889763779527559
          },
          {
            "duration": 0.22604166666667425,
            "durationTicks": 217,
            "midi": 60,
            "name": "C4",
            "ticks": 492240,
            "time": 512.75,
            "velocity": 0.889763779527559
          },
          {
            "duration": 0.22604166666667425,
            "durationTicks": 217,
            "midi": 48,
            "name": "C3",
            "ticks": 492480,
            "time": 513,
            "velocity": 0.84251968503937
          },
          {
            "duration": 0.22604166666667425,
            "durationTicks": 217,
            "midi": 60,
            "name": "C4",
            "ticks": 492480,
            "time": 513,
            "velocity": 0.84251968503937
          },
          {
            "duration": 0.22604166666667425,
            "durationTicks": 217,
            "midi": 48,
            "name": "C3",
            "ticks": 492720,
            "time": 513.25,
            "velocity": 0.8346456692913385
          },
          {
            "duration": 0.22604166666667425,
            "durationTicks": 217,
            "midi": 60,
            "name": "C4",
            "ticks": 492720,
            "time": 513.25,
            "velocity": 0.8346456692913385
          },
          {
            "duration": 0.22604166666667425,
            "durationTicks": 217,
            "midi": 48,
            "name": "C3",
            "ticks": 492960,
            "time": 513.5,
            "velocity": 0.8582677165354331
          },
          {
            "duration": 0.22604166666667425,
            "durationTicks": 217,
            "midi": 60,
            "name": "C4",
            "ticks": 492960,
            "time": 513.5,
            "velocity": 0.8582677165354331
          },
          {
            "duration": 0.22604166666667425,
            "durationTicks": 217,
            "midi": 53,
            "name": "F3",
            "ticks": 493200,
            "time": 513.75,
            "velocity": 0.8503937007874016
          },
          {
            "duration": 0.22604166666667425,
            "durationTicks": 217,
            "midi": 56,
            "name": "G#3",
            "ticks": 493200,
            "time": 513.75,
            "velocity": 0.8503937007874016
          },
          {
            "duration": 0.22604166666667425,
            "durationTicks": 217,
            "midi": 53,
            "name": "F3",
            "ticks": 493440,
            "time": 514,
            "velocity": 0.8582677165354331
          },
          {
            "duration": 0.22604166666667425,
            "durationTicks": 217,
            "midi": 56,
            "name": "G#3",
            "ticks": 493440,
            "time": 514,
            "velocity": 0.8582677165354331
          },
          {
            "duration": 0.22604166666667425,
            "durationTicks": 217,
            "midi": 53,
            "name": "F3",
            "ticks": 493680,
            "time": 514.25,
            "velocity": 0.8503937007874016
          },
          {
            "duration": 0.22604166666667425,
            "durationTicks": 217,
            "midi": 56,
            "name": "G#3",
            "ticks": 493680,
            "time": 514.25,
            "velocity": 0.8503937007874016
          },
          {
            "duration": 3.8999999999999773,
            "durationTicks": 3744,
            "midi": 53,
            "name": "F3",
            "ticks": 493920,
            "time": 514.5,
            "velocity": 0.8582677165354331
          },
          {
            "duration": 3.8999999999999773,
            "durationTicks": 3744,
            "midi": 56,
            "name": "G#3",
            "ticks": 493920,
            "time": 514.5,
            "velocity": 0.8582677165354331
          },
          {
            "duration": 0.451041666666697,
            "durationTicks": 433,
            "midi": 53,
            "name": "F3",
            "ticks": 497760,
            "time": 518.5,
            "velocity": 0.8740157480314961
          },
          {
            "duration": 0.451041666666697,
            "durationTicks": 433,
            "midi": 56,
            "name": "G#3",
            "ticks": 497760,
            "time": 518.5,
            "velocity": 0.8740157480314961
          },
          {
            "duration": 0.22604166666667425,
            "durationTicks": 217,
            "midi": 65,
            "name": "F4",
            "ticks": 498960,
            "time": 519.75,
            "velocity": 0.41732283464566927
          },
          {
            "duration": 0.22604166666667425,
            "durationTicks": 217,
            "midi": 65,
            "name": "F4",
            "ticks": 499200,
            "time": 520,
            "velocity": 0.49606299212598426
          },
          {
            "duration": 0.22604166666667425,
            "durationTicks": 217,
            "midi": 65,
            "name": "F4",
            "ticks": 499440,
            "time": 520.25,
            "velocity": 0.4645669291338583
          },
          {
            "duration": 0.451041666666697,
            "durationTicks": 433,
            "midi": 68,
            "name": "G#4",
            "ticks": 499680,
            "time": 520.5,
            "velocity": 0.5433070866141733
          },
          {
            "duration": 0.22604166666667425,
            "durationTicks": 217,
            "midi": 54,
            "name": "F#3",
            "ticks": 501840,
            "time": 522.75,
            "velocity": 0.7952755905511811
          },
          {
            "duration": 0.22604166666667425,
            "durationTicks": 217,
            "midi": 57,
            "name": "A3",
            "ticks": 501840,
            "time": 522.75,
            "velocity": 0.7952755905511811
          },
          {
            "duration": 0.22604166666667425,
            "durationTicks": 217,
            "midi": 54,
            "name": "F#3",
            "ticks": 502080,
            "time": 523,
            "velocity": 0.889763779527559
          },
          {
            "duration": 0.22604166666667425,
            "durationTicks": 217,
            "midi": 57,
            "name": "A3",
            "ticks": 502080,
            "time": 523,
            "velocity": 0.889763779527559
          },
          {
            "duration": 0.22604166666667425,
            "durationTicks": 217,
            "midi": 54,
            "name": "F#3",
            "ticks": 502320,
            "time": 523.25,
            "velocity": 0.8976377952755905
          },
          {
            "duration": 0.22604166666667425,
            "durationTicks": 217,
            "midi": 57,
            "name": "A3",
            "ticks": 502320,
            "time": 523.25,
            "velocity": 0.8976377952755905
          },
          {
            "duration": 3.8999999999999773,
            "durationTicks": 3744,
            "midi": 54,
            "name": "F#3",
            "ticks": 502560,
            "time": 523.5,
            "velocity": 0.905511811023622
          },
          {
            "duration": 3.8999999999999773,
            "durationTicks": 3744,
            "midi": 57,
            "name": "A3",
            "ticks": 502560,
            "time": 523.5,
            "velocity": 0.905511811023622
          },
          {
            "duration": 0.451041666666697,
            "durationTicks": 433,
            "midi": 54,
            "name": "F#3",
            "ticks": 506400,
            "time": 527.5,
            "velocity": 0.8976377952755905
          },
          {
            "duration": 0.451041666666697,
            "durationTicks": 433,
            "midi": 57,
            "name": "A3",
            "ticks": 506400,
            "time": 527.5,
            "velocity": 0.8976377952755905
          },
          {
            "duration": 0.22604166666667425,
            "durationTicks": 217,
            "midi": 60,
            "name": "C4",
            "ticks": 507600,
            "time": 528.75,
            "velocity": 0.7874015748031497
          },
          {
            "duration": 0.22604166666667425,
            "durationTicks": 217,
            "midi": 60,
            "name": "C4",
            "ticks": 507840,
            "time": 529,
            "velocity": 0.8976377952755905
          },
          {
            "duration": 0.22604166666667425,
            "durationTicks": 217,
            "midi": 60,
            "name": "C4",
            "ticks": 508080,
            "time": 529.25,
            "velocity": 0.8661417322834646
          },
          {
            "duration": 0.451041666666697,
            "durationTicks": 433,
            "midi": 63,
            "name": "D#4",
            "ticks": 508320,
            "time": 529.5,
            "velocity": 0.9291338582677166
          },
          {
            "duration": 0.22604166666667425,
            "durationTicks": 217,
            "midi": 67,
            "name": "G4",
            "ticks": 509520,
            "time": 530.75,
            "velocity": 0.6692913385826772
          },
          {
            "duration": 0.22604166666667425,
            "durationTicks": 217,
            "midi": 67,
            "name": "G4",
            "ticks": 509760,
            "time": 531,
            "velocity": 0.7401574803149606
          },
          {
            "duration": 0.22604166666667425,
            "durationTicks": 217,
            "midi": 67,
            "name": "G4",
            "ticks": 510000,
            "time": 531.25,
            "velocity": 0.7559055118110236
          },
          {
            "duration": 0.8999999999999773,
            "durationTicks": 864,
            "midi": 63,
            "name": "D#4",
            "ticks": 510240,
            "time": 531.5,
            "velocity": 0.7007874015748031
          },
          {
            "duration": 0.8999999999999773,
            "durationTicks": 864,
            "midi": 65,
            "name": "F4",
            "ticks": 511200,
            "time": 532.5,
            "velocity": 0.8031496062992126
          },
          {
            "duration": 1.2260416666666742,
            "durationTicks": 1177,
            "midi": 62,
            "name": "D4",
            "ticks": 512160,
            "time": 533.5,
            "velocity": 0.6850393700787402
          },
          {
            "duration": 0.22604166666667425,
            "durationTicks": 217,
            "midi": 67,
            "name": "G4",
            "ticks": 513360,
            "time": 534.75,
            "velocity": 0.8818897637795275
          },
          {
            "duration": 0.22604166666667425,
            "durationTicks": 217,
            "midi": 67,
            "name": "G4",
            "ticks": 513600,
            "time": 535,
            "velocity": 0.7637795275590551
          },
          {
            "duration": 0.22604166666667425,
            "durationTicks": 217,
            "midi": 67,
            "name": "G4",
            "ticks": 513840,
            "time": 535.25,
            "velocity": 0.7637795275590551
          },
          {
            "duration": 0.8999999999999773,
            "durationTicks": 864,
            "midi": 63,
            "name": "D#4",
            "ticks": 514080,
            "time": 535.5,
            "velocity": 0.6692913385826772
          },
          {
            "duration": 0.8999999999999773,
            "durationTicks": 864,
            "midi": 65,
            "name": "F4",
            "ticks": 515040,
            "time": 536.5,
            "velocity": 0.8267716535433071
          },
          {
            "duration": 1.2260416666666742,
            "durationTicks": 1177,
            "midi": 62,
            "name": "D4",
            "ticks": 516000,
            "time": 537.5,
            "velocity": 0.6771653543307087
          },
          {
            "duration": 0.22604166666667425,
            "durationTicks": 217,
            "midi": 67,
            "name": "G4",
            "ticks": 517200,
            "time": 538.75,
            "velocity": 0.8188976377952756
          },
          {
            "duration": 0.22604166666667425,
            "durationTicks": 217,
            "midi": 67,
            "name": "G4",
            "ticks": 517440,
            "time": 539,
            "velocity": 0.7559055118110236
          },
          {
            "duration": 0.22604166666667425,
            "durationTicks": 217,
            "midi": 67,
            "name": "G4",
            "ticks": 517680,
            "time": 539.25,
            "velocity": 0.7559055118110236
          },
          {
            "duration": 0.451041666666697,
            "durationTicks": 433,
            "midi": 63,
            "name": "D#4",
            "ticks": 517920,
            "time": 539.5,
            "velocity": 0.7086614173228346
          },
          {
            "duration": 0.451041666666697,
            "durationTicks": 433,
            "midi": 65,
            "name": "F4",
            "ticks": 518400,
            "time": 540,
            "velocity": 0.8267716535433071
          },
          {
            "duration": 0.451041666666697,
            "durationTicks": 433,
            "midi": 62,
            "name": "D4",
            "ticks": 518880,
            "time": 540.5,
            "velocity": 0.7086614173228346
          },
          {
            "duration": 0.451041666666697,
            "durationTicks": 433,
            "midi": 63,
            "name": "D#4",
            "ticks": 519360,
            "time": 541,
            "velocity": 0.7874015748031497
          },
          {
            "duration": 0.451041666666697,
            "durationTicks": 433,
            "midi": 60,
            "name": "C4",
            "ticks": 519840,
            "time": 541.5,
            "velocity": 0.7480314960629921
          },
          {
            "duration": 0.451041666666697,
            "durationTicks": 433,
            "midi": 62,
            "name": "D4",
            "ticks": 520320,
            "time": 542,
            "velocity": 0.8110236220472441
          },
          {
            "duration": 0.451041666666697,
            "durationTicks": 433,
            "midi": 58,
            "name": "A#3",
            "ticks": 520800,
            "time": 542.5,
            "velocity": 0.7874015748031497
          },
          {
            "duration": 0.451041666666697,
            "durationTicks": 433,
            "midi": 60,
            "name": "C4",
            "ticks": 521280,
            "time": 543,
            "velocity": 0.7795275590551181
          },
          {
            "duration": 0.451041666666697,
            "durationTicks": 433,
            "midi": 56,
            "name": "G#3",
            "ticks": 521760,
            "time": 543.5,
            "velocity": 0.7322834645669292
          },
          {
            "duration": 0.451041666666697,
            "durationTicks": 433,
            "midi": 58,
            "name": "A#3",
            "ticks": 522240,
            "time": 544,
            "velocity": 0.7401574803149606
          },
          {
            "duration": 0.451041666666697,
            "durationTicks": 433,
            "midi": 55,
            "name": "G3",
            "ticks": 522720,
            "time": 544.5,
            "velocity": 0.7244094488188977
          },
          {
            "duration": 0.451041666666697,
            "durationTicks": 433,
            "midi": 56,
            "name": "G#3",
            "ticks": 523200,
            "time": 545,
            "velocity": 0.8110236220472441
          },
          {
            "duration": 0.451041666666697,
            "durationTicks": 433,
            "midi": 53,
            "name": "F3",
            "ticks": 523680,
            "time": 545.5,
            "velocity": 0.7637795275590551
          },
          {
            "duration": 0.451041666666697,
            "durationTicks": 433,
            "midi": 55,
            "name": "G3",
            "ticks": 524160,
            "time": 546,
            "velocity": 0.7874015748031497
          },
          {
            "duration": 0.451041666666697,
            "durationTicks": 433,
            "midi": 51,
            "name": "D#3",
            "ticks": 524640,
            "time": 546.5,
            "velocity": 0.7165354330708661
          },
          {
            "duration": 0.451041666666697,
            "durationTicks": 433,
            "midi": 53,
            "name": "F3",
            "ticks": 525120,
            "time": 547,
            "velocity": 0.7952755905511811
          },
          {
            "duration": 0.451041666666697,
            "durationTicks": 433,
            "midi": 50,
            "name": "D3",
            "ticks": 525600,
            "time": 547.5,
            "velocity": 0.7401574803149606
          },
          {
            "duration": 0.451041666666697,
            "durationTicks": 433,
            "midi": 48,
            "name": "C3",
            "ticks": 526080,
            "time": 548,
            "velocity": 0.7559055118110236
          },
          {
            "duration": 0.451041666666697,
            "durationTicks": 433,
            "midi": 47,
            "name": "B2",
            "ticks": 526560,
            "time": 548.5,
            "velocity": 0.7559055118110236
          },
          {
            "duration": 0.451041666666697,
            "durationTicks": 433,
            "midi": 48,
            "name": "C3",
            "ticks": 527040,
            "time": 549,
            "velocity": 0.7795275590551181
          },
          {
            "duration": 0.451041666666697,
            "durationTicks": 433,
            "midi": 50,
            "name": "D3",
            "ticks": 527520,
            "time": 549.5,
            "velocity": 0.7795275590551181
          },
          {
            "duration": 0.451041666666697,
            "durationTicks": 433,
            "midi": 48,
            "name": "C3",
            "ticks": 528000,
            "time": 550,
            "velocity": 0.7480314960629921
          },
          {
            "duration": 0.451041666666697,
            "durationTicks": 433,
            "midi": 50,
            "name": "D3",
            "ticks": 528480,
            "time": 550.5,
            "velocity": 0.7637795275590551
          },
          {
            "duration": 0.451041666666697,
            "durationTicks": 433,
            "midi": 52,
            "name": "E3",
            "ticks": 528960,
            "time": 551,
            "velocity": 0.8110236220472441
          },
          {
            "duration": 0.451041666666697,
            "durationTicks": 433,
            "midi": 53,
            "name": "F3",
            "ticks": 529440,
            "time": 551.5,
            "velocity": 0.7795275590551181
          },
          {
            "duration": 0.451041666666697,
            "durationTicks": 433,
            "midi": 52,
            "name": "E3",
            "ticks": 529920,
            "time": 552,
            "velocity": 0.7244094488188977
          },
          {
            "duration": 0.451041666666697,
            "durationTicks": 433,
            "midi": 53,
            "name": "F3",
            "ticks": 530400,
            "time": 552.5,
            "velocity": 0.7952755905511811
          },
          {
            "duration": 0.451041666666697,
            "durationTicks": 433,
            "midi": 55,
            "name": "G3",
            "ticks": 530880,
            "time": 553,
            "velocity": 0.84251968503937
          },
          {
            "duration": 0.451041666666697,
            "durationTicks": 433,
            "midi": 44,
            "name": "G#2",
            "ticks": 531360,
            "time": 553.5,
            "velocity": 0.7874015748031497
          },
          {
            "duration": 0.451041666666697,
            "durationTicks": 433,
            "midi": 56,
            "name": "G#3",
            "ticks": 531360,
            "time": 553.5,
            "velocity": 0.7874015748031497
          },
          {
            "duration": 0.451041666666697,
            "durationTicks": 433,
            "midi": 43,
            "name": "G2",
            "ticks": 531840,
            "time": 554,
            "velocity": 0.7716535433070866
          },
          {
            "duration": 0.451041666666697,
            "durationTicks": 433,
            "midi": 55,
            "name": "G3",
            "ticks": 531840,
            "time": 554,
            "velocity": 0.7716535433070866
          },
          {
            "duration": 0.451041666666697,
            "durationTicks": 433,
            "midi": 45,
            "name": "A2",
            "ticks": 532320,
            "time": 554.5,
            "velocity": 0.8267716535433071
          },
          {
            "duration": 0.451041666666697,
            "durationTicks": 433,
            "midi": 57,
            "name": "A3",
            "ticks": 532320,
            "time": 554.5,
            "velocity": 0.8267716535433071
          },
          {
            "duration": 0.451041666666697,
            "durationTicks": 433,
            "midi": 47,
            "name": "B2",
            "ticks": 532800,
            "time": 555,
            "velocity": 0.7874015748031497
          },
          {
            "duration": 0.451041666666697,
            "durationTicks": 433,
            "midi": 59,
            "name": "B3",
            "ticks": 532800,
            "time": 555,
            "velocity": 0.7874015748031497
          },
          {
            "duration": 1.8999999999999773,
            "durationTicks": 1824,
            "midi": 48,
            "name": "C3",
            "ticks": 533280,
            "time": 555.5,
            "velocity": 0.84251968503937
          },
          {
            "duration": 1.8999999999999773,
            "durationTicks": 1824,
            "midi": 60,
            "name": "C4",
            "ticks": 533280,
            "time": 555.5,
            "velocity": 0.84251968503937
          },
          {
            "duration": 1.8999999999999773,
            "durationTicks": 1824,
            "midi": 44,
            "name": "G#2",
            "ticks": 535200,
            "time": 557.5,
            "velocity": 0.7086614173228346
          },
          {
            "duration": 1.8999999999999773,
            "durationTicks": 1824,
            "midi": 56,
            "name": "G#3",
            "ticks": 535200,
            "time": 557.5,
            "velocity": 0.7086614173228346
          },
          {
            "duration": 1.8999999999999773,
            "durationTicks": 1824,
            "midi": 39,
            "name": "D#2",
            "ticks": 537120,
            "time": 559.5,
            "velocity": 0.7322834645669292
          },
          {
            "duration": 1.8999999999999773,
            "durationTicks": 1824,
            "midi": 51,
            "name": "D#3",
            "ticks": 537120,
            "time": 559.5,
            "velocity": 0.7322834645669292
          },
          {
            "duration": 0.8999999999999773,
            "durationTicks": 864,
            "midi": 41,
            "name": "F2",
            "ticks": 539040,
            "time": 561.5,
            "velocity": 0.8110236220472441
          },
          {
            "duration": 0.8999999999999773,
            "durationTicks": 864,
            "midi": 53,
            "name": "F3",
            "ticks": 539040,
            "time": 561.5,
            "velocity": 0.8110236220472441
          },
          {
            "duration": 0.8999999999999773,
            "durationTicks": 864,
            "midi": 39,
            "name": "D#2",
            "ticks": 540000,
            "time": 562.5,
            "velocity": 0.7322834645669292
          },
          {
            "duration": 0.8999999999999773,
            "durationTicks": 864,
            "midi": 51,
            "name": "D#3",
            "ticks": 540000,
            "time": 562.5,
            "velocity": 0.7322834645669292
          },
          {
            "duration": 0.8999999999999773,
            "durationTicks": 864,
            "midi": 38,
            "name": "D2",
            "ticks": 540960,
            "time": 563.5,
            "velocity": 0.7401574803149606
          },
          {
            "duration": 0.8999999999999773,
            "durationTicks": 864,
            "midi": 50,
            "name": "D3",
            "ticks": 540960,
            "time": 563.5,
            "velocity": 0.7401574803149606
          },
          {
            "duration": 0.8999999999999773,
            "durationTicks": 864,
            "midi": 41,
            "name": "F2",
            "ticks": 541920,
            "time": 564.5,
            "velocity": 0.7952755905511811
          },
          {
            "duration": 0.8999999999999773,
            "durationTicks": 864,
            "midi": 53,
            "name": "F3",
            "ticks": 541920,
            "time": 564.5,
            "velocity": 0.7952755905511811
          },
          {
            "duration": 0.22500000000002274,
            "durationTicks": 216,
            "midi": 39,
            "name": "D#2",
            "ticks": 542880,
            "time": 565.5,
            "velocity": 0.7401574803149606
          },
          {
            "duration": 0.22500000000002274,
            "durationTicks": 216,
            "midi": 51,
            "name": "D#3",
            "ticks": 542880,
            "time": 565.5,
            "velocity": 0.7401574803149606
          },
          {
            "duration": 0.22500000000002274,
            "durationTicks": 216,
            "midi": 36,
            "name": "C2",
            "ticks": 543840,
            "time": 566.5,
            "velocity": 0.6771653543307087
          },
          {
            "duration": 0.22500000000002274,
            "durationTicks": 216,
            "midi": 48,
            "name": "C3",
            "ticks": 543840,
            "time": 566.5,
            "velocity": 0.6771653543307087
          },
          {
            "duration": 0.22500000000002274,
            "durationTicks": 216,
            "midi": 41,
            "name": "F2",
            "ticks": 544800,
            "time": 567.5,
            "velocity": 0.6929133858267716
          },
          {
            "duration": 0.22500000000002274,
            "durationTicks": 216,
            "midi": 53,
            "name": "F3",
            "ticks": 544800,
            "time": 567.5,
            "velocity": 0.6929133858267716
          },
          {
            "duration": 0.22500000000002274,
            "durationTicks": 216,
            "midi": 38,
            "name": "D2",
            "ticks": 545760,
            "time": 568.5,
            "velocity": 0.6850393700787402
          },
          {
            "duration": 0.22500000000002274,
            "durationTicks": 216,
            "midi": 50,
            "name": "D3",
            "ticks": 545760,
            "time": 568.5,
            "velocity": 0.6850393700787402
          },
          {
            "duration": 0.22500000000002274,
            "durationTicks": 216,
            "midi": 43,
            "name": "G2",
            "ticks": 546720,
            "time": 569.5,
            "velocity": 0.6771653543307087
          },
          {
            "duration": 0.22500000000002274,
            "durationTicks": 216,
            "midi": 55,
            "name": "G3",
            "ticks": 546720,
            "time": 569.5,
            "velocity": 0.6771653543307087
          },
          {
            "duration": 0.22500000000002274,
            "durationTicks": 216,
            "midi": 43,
            "name": "G2",
            "ticks": 547680,
            "time": 570.5,
            "velocity": 0.6929133858267716
          },
          {
            "duration": 0.8999999999999773,
            "durationTicks": 864,
            "midi": 48,
            "name": "C3",
            "ticks": 548640,
            "time": 571.5,
            "velocity": 0.6929133858267716
          },
          {
            "duration": 0.8999999999999773,
            "durationTicks": 864,
            "midi": 60,
            "name": "C4",
            "ticks": 548640,
            "time": 571.5,
            "velocity": 0.6929133858267716
          },
          {
            "duration": 0.22500000000002274,
            "durationTicks": 216,
            "midi": 50,
            "name": "D3",
            "ticks": 549600,
            "time": 572.5,
            "velocity": 0.8188976377952756
          },
          {
            "duration": 0.22500000000002274,
            "durationTicks": 216,
            "midi": 62,
            "name": "D4",
            "ticks": 549600,
            "time": 572.5,
            "velocity": 0.8188976377952756
          },
          {
            "duration": 0.22500000000002274,
            "durationTicks": 216,
            "midi": 51,
            "name": "D#3",
            "ticks": 550080,
            "time": 573,
            "velocity": 0.8031496062992126
          },
          {
            "duration": 0.22500000000002274,
            "durationTicks": 216,
            "midi": 63,
            "name": "D#4",
            "ticks": 550080,
            "time": 573,
            "velocity": 0.8031496062992126
          },
          {
            "duration": 0.5093749999999773,
            "durationTicks": 489,
            "midi": 53,
            "name": "F3",
            "ticks": 550560,
            "time": 573.5,
            "velocity": 0.8503937007874016
          },
          {
            "duration": 0.5093749999999773,
            "durationTicks": 489,
            "midi": 65,
            "name": "F4",
            "ticks": 550560,
            "time": 573.5,
            "velocity": 0.8503937007874016
          },
          {
            "duration": 0.47500000000002274,
            "durationTicks": 456,
            "midi": 50,
            "name": "D3",
            "ticks": 551040,
            "time": 574,
            "velocity": 0.7716535433070866
          },
          {
            "duration": 0.47500000000002274,
            "durationTicks": 456,
            "midi": 62,
            "name": "D4",
            "ticks": 551040,
            "time": 574,
            "velocity": 0.7716535433070866
          },
          {
            "duration": 0.22500000000002274,
            "durationTicks": 216,
            "midi": 53,
            "name": "F3",
            "ticks": 553440,
            "time": 576.5,
            "velocity": 0.8503937007874016
          },
          {
            "duration": 0.22500000000002274,
            "durationTicks": 216,
            "midi": 65,
            "name": "F4",
            "ticks": 553440,
            "time": 576.5,
            "velocity": 0.8503937007874016
          },
          {
            "duration": 0.22500000000002274,
            "durationTicks": 216,
            "midi": 55,
            "name": "G3",
            "ticks": 553920,
            "time": 577,
            "velocity": 0.8031496062992126
          },
          {
            "duration": 0.22500000000002274,
            "durationTicks": 216,
            "midi": 67,
            "name": "G4",
            "ticks": 553920,
            "time": 577,
            "velocity": 0.8031496062992126
          },
          {
            "duration": 0.5093749999999773,
            "durationTicks": 489,
            "midi": 56,
            "name": "G#3",
            "ticks": 554400,
            "time": 577.5,
            "velocity": 0.7874015748031497
          },
          {
            "duration": 0.5093749999999773,
            "durationTicks": 489,
            "midi": 68,
            "name": "G#4",
            "ticks": 554400,
            "time": 577.5,
            "velocity": 0.7874015748031497
          },
          {
            "duration": 0.47500000000002274,
            "durationTicks": 456,
            "midi": 53,
            "name": "F3",
            "ticks": 554880,
            "time": 578,
            "velocity": 0.7007874015748031
          },
          {
            "duration": 0.47500000000002274,
            "durationTicks": 456,
            "midi": 65,
            "name": "F4",
            "ticks": 554880,
            "time": 578,
            "velocity": 0.7007874015748031
          },
          {
            "duration": 0.22500000000002274,
            "durationTicks": 216,
            "midi": 57,
            "name": "A3",
            "ticks": 557280,
            "time": 580.5,
            "velocity": 0.6456692913385826
          },
          {
            "duration": 0.22500000000002274,
            "durationTicks": 216,
            "midi": 60,
            "name": "C4",
            "ticks": 557280,
            "time": 580.5,
            "velocity": 0.6456692913385826
          },
          {
            "duration": 0.22500000000002274,
            "durationTicks": 216,
            "midi": 59,
            "name": "B3",
            "ticks": 557760,
            "time": 581,
            "velocity": 0.8188976377952756
          },
          {
            "duration": 0.22500000000002274,
            "durationTicks": 216,
            "midi": 62,
            "name": "D4",
            "ticks": 557760,
            "time": 581,
            "velocity": 0.8188976377952756
          },
          {
            "duration": 0.5,
            "durationTicks": 480,
            "midi": 60,
            "name": "C4",
            "ticks": 558240,
            "time": 581.5,
            "velocity": 0.7716535433070866
          },
          {
            "duration": 0.5093749999999773,
            "durationTicks": 489,
            "midi": 63,
            "name": "D#4",
            "ticks": 558240,
            "time": 581.5,
            "velocity": 0.7716535433070866
          },
          {
            "duration": 0.47500000000002274,
            "durationTicks": 456,
            "midi": 55,
            "name": "G3",
            "ticks": 558720,
            "time": 582,
            "velocity": 0.7244094488188977
          },
          {
            "duration": 0.47500000000002274,
            "durationTicks": 456,
            "midi": 60,
            "name": "C4",
            "ticks": 558720,
            "time": 582,
            "velocity": 0.7244094488188977
          },
          {
            "duration": 0.22500000000002274,
            "durationTicks": 216,
            "midi": 57,
            "name": "A3",
            "ticks": 561120,
            "time": 584.5,
            "velocity": 0.7559055118110236
          },
          {
            "duration": 0.22500000000002274,
            "durationTicks": 216,
            "midi": 60,
            "name": "C4",
            "ticks": 561120,
            "time": 584.5,
            "velocity": 0.7559055118110236
          },
          {
            "duration": 0.22500000000002274,
            "durationTicks": 216,
            "midi": 59,
            "name": "B3",
            "ticks": 561600,
            "time": 585,
            "velocity": 0.8267716535433071
          },
          {
            "duration": 0.22500000000002274,
            "durationTicks": 216,
            "midi": 62,
            "name": "D4",
            "ticks": 561600,
            "time": 585,
            "velocity": 0.8267716535433071
          },
          {
            "duration": 0.5093749999999773,
            "durationTicks": 489,
            "midi": 60,
            "name": "C4",
            "ticks": 562080,
            "time": 585.5,
            "velocity": 0.7795275590551181
          },
          {
            "duration": 0.5093749999999773,
            "durationTicks": 489,
            "midi": 63,
            "name": "D#4",
            "ticks": 562080,
            "time": 585.5,
            "velocity": 0.7795275590551181
          },
          {
            "duration": 0.5093749999999773,
            "durationTicks": 489,
            "midi": 55,
            "name": "G3",
            "ticks": 562560,
            "time": 586,
            "velocity": 0.7795275590551181
          },
          {
            "duration": 0.5093749999999773,
            "durationTicks": 489,
            "midi": 62,
            "name": "D4",
            "ticks": 562560,
            "time": 586,
            "velocity": 0.7795275590551181
          },
          {
            "duration": 0.5093749999999773,
            "durationTicks": 489,
            "midi": 56,
            "name": "G#3",
            "ticks": 563040,
            "time": 586.5,
            "velocity": 0.7480314960629921
          },
          {
            "duration": 0.5093749999999773,
            "durationTicks": 489,
            "midi": 60,
            "name": "C4",
            "ticks": 563040,
            "time": 586.5,
            "velocity": 0.7480314960629921
          },
          {
            "duration": 0.5093749999999773,
            "durationTicks": 489,
            "midi": 51,
            "name": "D#3",
            "ticks": 563520,
            "time": 587,
            "velocity": 0.6771653543307087
          },
          {
            "duration": 0.5093749999999773,
            "durationTicks": 489,
            "midi": 58,
            "name": "A#3",
            "ticks": 563520,
            "time": 587,
            "velocity": 0.6771653543307087
          },
          {
            "duration": 0.5093749999999773,
            "durationTicks": 489,
            "midi": 53,
            "name": "F3",
            "ticks": 564000,
            "time": 587.5,
            "velocity": 0.7480314960629921
          },
          {
            "duration": 0.5093749999999773,
            "durationTicks": 489,
            "midi": 56,
            "name": "G#3",
            "ticks": 564000,
            "time": 587.5,
            "velocity": 0.7480314960629921
          },
          {
            "duration": 0.47500000000002274,
            "durationTicks": 456,
            "midi": 48,
            "name": "C3",
            "ticks": 564480,
            "time": 588,
            "velocity": 0.7401574803149606
          },
          {
            "duration": 0.47500000000002274,
            "durationTicks": 456,
            "midi": 55,
            "name": "G3",
            "ticks": 564480,
            "time": 588,
            "velocity": 0.7401574803149606
          },
          {
            "duration": 0.5093749999999773,
            "durationTicks": 489,
            "midi": 53,
            "name": "F3",
            "ticks": 565920,
            "time": 589.5,
            "velocity": 0.905511811023622
          },
          {
            "duration": 0.5093749999999773,
            "durationTicks": 489,
            "midi": 56,
            "name": "G#3",
            "ticks": 565920,
            "time": 589.5,
            "velocity": 0.905511811023622
          },
          {
            "duration": 0.47500000000002274,
            "durationTicks": 456,
            "midi": 48,
            "name": "C3",
            "ticks": 566400,
            "time": 590,
            "velocity": 0.8976377952755905
          },
          {
            "duration": 0.47500000000002274,
            "durationTicks": 456,
            "midi": 55,
            "name": "G3",
            "ticks": 566400,
            "time": 590,
            "velocity": 0.8976377952755905
          },
          {
            "duration": 0.5093749999999773,
            "durationTicks": 489,
            "midi": 53,
            "name": "F3",
            "ticks": 566880,
            "time": 590.5,
            "velocity": 0.7874015748031497
          },
          {
            "duration": 0.5093749999999773,
            "durationTicks": 489,
            "midi": 56,
            "name": "G#3",
            "ticks": 566880,
            "time": 590.5,
            "velocity": 0.7874015748031497
          },
          {
            "duration": 0.47500000000002274,
            "durationTicks": 456,
            "midi": 51,
            "name": "D#3",
            "ticks": 567360,
            "time": 591,
            "velocity": 0.7559055118110236
          },
          {
            "duration": 0.47500000000002274,
            "durationTicks": 456,
            "midi": 55,
            "name": "G3",
            "ticks": 567360,
            "time": 591,
            "velocity": 0.7559055118110236
          },
          {
            "duration": 0.451041666666697,
            "durationTicks": 433,
            "midi": 60,
            "name": "C4",
            "ticks": 568320,
            "time": 592,
            "velocity": 0.6692913385826772
          },
          {
            "duration": 0.451041666666697,
            "durationTicks": 433,
            "midi": 63,
            "name": "D#4",
            "ticks": 568320,
            "time": 592,
            "velocity": 0.6692913385826772
          },
          {
            "duration": 0.451041666666697,
            "durationTicks": 433,
            "midi": 59,
            "name": "B3",
            "ticks": 569280,
            "time": 593,
            "velocity": 0.6771653543307087
          },
          {
            "duration": 0.451041666666697,
            "durationTicks": 433,
            "midi": 62,
            "name": "D4",
            "ticks": 569280,
            "time": 593,
            "velocity": 0.6771653543307087
          },
          {
            "duration": 0.5093749999999773,
            "durationTicks": 489,
            "midi": 53,
            "name": "F3",
            "ticks": 572640,
            "time": 596.5,
            "velocity": 0.7165354330708661
          },
          {
            "duration": 0.5093749999999773,
            "durationTicks": 489,
            "midi": 56,
            "name": "G#3",
            "ticks": 572640,
            "time": 596.5,
            "velocity": 0.7165354330708661
          },
          {
            "duration": 0.47500000000002274,
            "durationTicks": 456,
            "midi": 51,
            "name": "D#3",
            "ticks": 573120,
            "time": 597,
            "velocity": 0.6850393700787402
          },
          {
            "duration": 0.47500000000002274,
            "durationTicks": 456,
            "midi": 55,
            "name": "G3",
            "ticks": 573120,
            "time": 597,
            "velocity": 0.6850393700787402
          },
          {
            "duration": 0.5093749999999773,
            "durationTicks": 489,
            "midi": 53,
            "name": "F3",
            "ticks": 574560,
            "time": 598.5,
            "velocity": 0.7952755905511811
          },
          {
            "duration": 0.5093749999999773,
            "durationTicks": 489,
            "midi": 56,
            "name": "G#3",
            "ticks": 574560,
            "time": 598.5,
            "velocity": 0.7952755905511811
          },
          {
            "duration": 0.47500000000002274,
            "durationTicks": 456,
            "midi": 51,
            "name": "D#3",
            "ticks": 575040,
            "time": 599,
            "velocity": 0.7559055118110236
          },
          {
            "duration": 0.47500000000002274,
            "durationTicks": 456,
            "midi": 55,
            "name": "G3",
            "ticks": 575040,
            "time": 599,
            "velocity": 0.7559055118110236
          },
          {
            "duration": 0.451041666666697,
            "durationTicks": 433,
            "midi": 55,
            "name": "G3",
            "ticks": 576000,
            "time": 600,
            "velocity": 0.7007874015748031
          },
          {
            "duration": 0.451041666666697,
            "durationTicks": 433,
            "midi": 60,
            "name": "C4",
            "ticks": 576000,
            "time": 600,
            "velocity": 0.7007874015748031
          },
          {
            "duration": 0.451041666666697,
            "durationTicks": 433,
            "midi": 55,
            "name": "G3",
            "ticks": 576960,
            "time": 601,
            "velocity": 0.6850393700787402
          },
          {
            "duration": 0.451041666666697,
            "durationTicks": 433,
            "midi": 59,
            "name": "B3",
            "ticks": 576960,
            "time": 601,
            "velocity": 0.6850393700787402
          },
          {
            "duration": 0.451041666666697,
            "durationTicks": 433,
            "midi": 51,
            "name": "D#3",
            "ticks": 577440,
            "time": 601.5,
            "velocity": 0.8031496062992126
          },
          {
            "duration": 0.451041666666697,
            "durationTicks": 433,
            "midi": 60,
            "name": "C4",
            "ticks": 577440,
            "time": 601.5,
            "velocity": 0.8031496062992126
          },
          {
            "duration": 0.22604166666667425,
            "durationTicks": 217,
            "midi": 62,
            "name": "D4",
            "ticks": 578640,
            "time": 602.75,
            "velocity": 0.6614173228346457
          },
          {
            "duration": 0.22604166666667425,
            "durationTicks": 217,
            "midi": 65,
            "name": "F4",
            "ticks": 578640,
            "time": 602.75,
            "velocity": 0.6614173228346457
          },
          {
            "duration": 0.22604166666667425,
            "durationTicks": 217,
            "midi": 62,
            "name": "D4",
            "ticks": 578880,
            "time": 603,
            "velocity": 0.7795275590551181
          },
          {
            "duration": 0.22604166666667425,
            "durationTicks": 217,
            "midi": 65,
            "name": "F4",
            "ticks": 578880,
            "time": 603,
            "velocity": 0.7795275590551181
          },
          {
            "duration": 0.22604166666667425,
            "durationTicks": 217,
            "midi": 62,
            "name": "D4",
            "ticks": 579120,
            "time": 603.25,
            "velocity": 0.7795275590551181
          },
          {
            "duration": 0.22604166666667425,
            "durationTicks": 217,
            "midi": 65,
            "name": "F4",
            "ticks": 579120,
            "time": 603.25,
            "velocity": 0.7795275590551181
          },
          {
            "duration": 1.451041666666697,
            "durationTicks": 1393,
            "midi": 62,
            "name": "D4",
            "ticks": 579360,
            "time": 603.5,
            "velocity": 0.7716535433070866
          },
          {
            "duration": 1.451041666666697,
            "durationTicks": 1393,
            "midi": 65,
            "name": "F4",
            "ticks": 579360,
            "time": 603.5,
            "velocity": 0.7716535433070866
          },
          {
            "duration": 0.5093749999999773,
            "durationTicks": 489,
            "midi": 60,
            "name": "C4",
            "ticks": 580800,
            "time": 605,
            "velocity": 0.7401574803149606
          },
          {
            "duration": 0.5093749999999773,
            "durationTicks": 489,
            "midi": 63,
            "name": "D#4",
            "ticks": 580800,
            "time": 605,
            "velocity": 0.7401574803149606
          },
          {
            "duration": 0.5093749999999773,
            "durationTicks": 489,
            "midi": 59,
            "name": "B3",
            "ticks": 581280,
            "time": 605.5,
            "velocity": 0.6692913385826772
          },
          {
            "duration": 0.5,
            "durationTicks": 480,
            "midi": 62,
            "name": "D4",
            "ticks": 581280,
            "time": 605.5,
            "velocity": 0.6692913385826772
          },
          {
            "duration": 0.5093749999999773,
            "durationTicks": 489,
            "midi": 62,
            "name": "D4",
            "ticks": 581760,
            "time": 606,
            "velocity": 0.8346456692913385
          },
          {
            "duration": 0.5093749999999773,
            "durationTicks": 489,
            "midi": 65,
            "name": "F4",
            "ticks": 581760,
            "time": 606,
            "velocity": 0.8346456692913385
          },
          {
            "duration": 0.5093749999999773,
            "durationTicks": 489,
            "midi": 60,
            "name": "C4",
            "ticks": 582240,
            "time": 606.5,
            "velocity": 0.7874015748031497
          },
          {
            "duration": 0.5093749999999773,
            "durationTicks": 489,
            "midi": 63,
            "name": "D#4",
            "ticks": 582240,
            "time": 606.5,
            "velocity": 0.7874015748031497
          },
          {
            "duration": 0.47500000000002274,
            "durationTicks": 456,
            "midi": 59,
            "name": "B3",
            "ticks": 582720,
            "time": 607,
            "velocity": 0.7401574803149606
          },
          {
            "duration": 0.47500000000002274,
            "durationTicks": 456,
            "midi": 62,
            "name": "D4",
            "ticks": 582720,
            "time": 607,
            "velocity": 0.7401574803149606
          },
          {
            "duration": 0.451041666666697,
            "durationTicks": 433,
            "midi": 60,
            "name": "C4",
            "ticks": 583200,
            "time": 607.5,
            "velocity": 0.8188976377952756
          },
          {
            "duration": 0.451041666666697,
            "durationTicks": 433,
            "midi": 63,
            "name": "D#4",
            "ticks": 583200,
            "time": 607.5,
            "velocity": 0.8188976377952756
          },
          {
            "duration": 0.22604166666667425,
            "durationTicks": 217,
            "midi": 43,
            "name": "G2",
            "ticks": 584400,
            "time": 608.75,
            "velocity": 0.7007874015748031
          },
          {
            "duration": 0.22604166666667425,
            "durationTicks": 217,
            "midi": 55,
            "name": "G3",
            "ticks": 584400,
            "time": 608.75,
            "velocity": 0.7007874015748031
          },
          {
            "duration": 0.22604166666667425,
            "durationTicks": 217,
            "midi": 43,
            "name": "G2",
            "ticks": 584640,
            "time": 609,
            "velocity": 0.7795275590551181
          },
          {
            "duration": 0.22604166666667425,
            "durationTicks": 217,
            "midi": 55,
            "name": "G3",
            "ticks": 584640,
            "time": 609,
            "velocity": 0.7795275590551181
          },
          {
            "duration": 0.22604166666667425,
            "durationTicks": 217,
            "midi": 43,
            "name": "G2",
            "ticks": 584880,
            "time": 609.25,
            "velocity": 0.7637795275590551
          },
          {
            "duration": 0.22604166666667425,
            "durationTicks": 217,
            "midi": 55,
            "name": "G3",
            "ticks": 584880,
            "time": 609.25,
            "velocity": 0.7637795275590551
          },
          {
            "duration": 0.22604166666667425,
            "durationTicks": 217,
            "midi": 43,
            "name": "G2",
            "ticks": 585120,
            "time": 609.5,
            "velocity": 0.7795275590551181
          },
          {
            "duration": 0.22604166666667425,
            "durationTicks": 217,
            "midi": 55,
            "name": "G3",
            "ticks": 585120,
            "time": 609.5,
            "velocity": 0.7795275590551181
          },
          {
            "duration": 0.22604166666667425,
            "durationTicks": 217,
            "midi": 43,
            "name": "G2",
            "ticks": 585360,
            "time": 609.75,
            "velocity": 0.7716535433070866
          },
          {
            "duration": 0.22604166666667425,
            "durationTicks": 217,
            "midi": 55,
            "name": "G3",
            "ticks": 585360,
            "time": 609.75,
            "velocity": 0.7716535433070866
          },
          {
            "duration": 0.22604166666667425,
            "durationTicks": 217,
            "midi": 43,
            "name": "G2",
            "ticks": 585600,
            "time": 610,
            "velocity": 0.7637795275590551
          },
          {
            "duration": 0.22604166666667425,
            "durationTicks": 217,
            "midi": 55,
            "name": "G3",
            "ticks": 585600,
            "time": 610,
            "velocity": 0.7637795275590551
          },
          {
            "duration": 0.22604166666667425,
            "durationTicks": 217,
            "midi": 43,
            "name": "G2",
            "ticks": 585840,
            "time": 610.25,
            "velocity": 0.8031496062992126
          },
          {
            "duration": 0.22604166666667425,
            "durationTicks": 217,
            "midi": 55,
            "name": "G3",
            "ticks": 585840,
            "time": 610.25,
            "velocity": 0.8031496062992126
          },
          {
            "duration": 0.22604166666667425,
            "durationTicks": 217,
            "midi": 43,
            "name": "G2",
            "ticks": 586080,
            "time": 610.5,
            "velocity": 0.7559055118110236
          },
          {
            "duration": 0.22604166666667425,
            "durationTicks": 217,
            "midi": 55,
            "name": "G3",
            "ticks": 586080,
            "time": 610.5,
            "velocity": 0.7559055118110236
          },
          {
            "duration": 0.22604166666667425,
            "durationTicks": 217,
            "midi": 43,
            "name": "G2",
            "ticks": 586320,
            "time": 610.75,
            "velocity": 0.7874015748031497
          },
          {
            "duration": 0.22604166666667425,
            "durationTicks": 217,
            "midi": 55,
            "name": "G3",
            "ticks": 586320,
            "time": 610.75,
            "velocity": 0.7874015748031497
          },
          {
            "duration": 0.22604166666667425,
            "durationTicks": 217,
            "midi": 43,
            "name": "G2",
            "ticks": 586560,
            "time": 611,
            "velocity": 0.7401574803149606
          },
          {
            "duration": 0.22604166666667425,
            "durationTicks": 217,
            "midi": 55,
            "name": "G3",
            "ticks": 586560,
            "time": 611,
            "velocity": 0.7401574803149606
          },
          {
            "duration": 0.22604166666667425,
            "durationTicks": 217,
            "midi": 43,
            "name": "G2",
            "ticks": 586800,
            "time": 611.25,
            "velocity": 0.7874015748031497
          },
          {
            "duration": 0.22604166666667425,
            "durationTicks": 217,
            "midi": 55,
            "name": "G3",
            "ticks": 586800,
            "time": 611.25,
            "velocity": 0.7874015748031497
          },
          {
            "duration": 1.5,
            "durationTicks": 1440,
            "midi": 39,
            "name": "D#2",
            "ticks": 587040,
            "time": 611.5,
            "velocity": 0.8188976377952756
          },
          {
            "duration": 1.5,
            "durationTicks": 1440,
            "midi": 51,
            "name": "D#3",
            "ticks": 587040,
            "time": 611.5,
            "velocity": 0.8188976377952756
          },
          {
            "duration": 0.22604166666667425,
            "durationTicks": 217,
            "midi": 41,
            "name": "F2",
            "ticks": 588720,
            "time": 613.25,
            "velocity": 0.7874015748031497
          },
          {
            "duration": 0.22604166666667425,
            "durationTicks": 217,
            "midi": 53,
            "name": "F3",
            "ticks": 588720,
            "time": 613.25,
            "velocity": 0.7874015748031497
          },
          {
            "duration": 0.22604166666667425,
            "durationTicks": 217,
            "midi": 41,
            "name": "F2",
            "ticks": 588960,
            "time": 613.5,
            "velocity": 0.889763779527559
          },
          {
            "duration": 0.22604166666667425,
            "durationTicks": 217,
            "midi": 53,
            "name": "F3",
            "ticks": 588960,
            "time": 613.5,
            "velocity": 0.889763779527559
          },
          {
            "duration": 0.22604166666667425,
            "durationTicks": 217,
            "midi": 41,
            "name": "F2",
            "ticks": 589200,
            "time": 613.75,
            "velocity": 0.889763779527559
          },
          {
            "duration": 0.22604166666667425,
            "durationTicks": 217,
            "midi": 53,
            "name": "F3",
            "ticks": 589200,
            "time": 613.75,
            "velocity": 0.889763779527559
          },
          {
            "duration": 2.5,
            "durationTicks": 2400,
            "midi": 38,
            "name": "D2",
            "ticks": 589440,
            "time": 614,
            "velocity": 0.8503937007874016
          },
          {
            "duration": 2.5,
            "durationTicks": 2400,
            "midi": 50,
            "name": "D3",
            "ticks": 589440,
            "time": 614,
            "velocity": 0.8503937007874016
          },
          {
            "duration": 0.5093749999999773,
            "durationTicks": 489,
            "midi": 67,
            "name": "G4",
            "ticks": 592320,
            "time": 617,
            "velocity": 0.4251968503937008
          },
          {
            "duration": 3.640625,
            "durationTicks": 3495,
            "midi": 63,
            "name": "D#4",
            "ticks": 592800,
            "time": 617.5,
            "velocity": 0.3779527559055118
          },
          {
            "duration": 0.5093749999999773,
            "durationTicks": 489,
            "midi": 67,
            "name": "G4",
            "ticks": 596160,
            "time": 621,
            "velocity": 0.5275590551181102
          },
          {
            "duration": 3.404166666666697,
            "durationTicks": 3268,
            "midi": 63,
            "name": "D#4",
            "ticks": 596640,
            "time": 621.5,
            "velocity": 0.48031496062992124
          },
          {
            "duration": 0.22604166666667425,
            "durationTicks": 217,
            "midi": 59,
            "name": "B3",
            "ticks": 599760,
            "time": 624.75,
            "velocity": 0.84251968503937
          },
          {
            "duration": 0.22604166666667425,
            "durationTicks": 217,
            "midi": 62,
            "name": "D4",
            "ticks": 599760,
            "time": 624.75,
            "velocity": 0.84251968503937
          },
          {
            "duration": 0.22604166666667425,
            "durationTicks": 217,
            "midi": 59,
            "name": "B3",
            "ticks": 600000,
            "time": 625,
            "velocity": 0.8661417322834646
          },
          {
            "duration": 0.22604166666667425,
            "durationTicks": 217,
            "midi": 62,
            "name": "D4",
            "ticks": 600000,
            "time": 625,
            "velocity": 0.8661417322834646
          },
          {
            "duration": 0.22604166666667425,
            "durationTicks": 217,
            "midi": 59,
            "name": "B3",
            "ticks": 600240,
            "time": 625.25,
            "velocity": 0.9133858267716536
          },
          {
            "duration": 0.22604166666667425,
            "durationTicks": 217,
            "midi": 62,
            "name": "D4",
            "ticks": 600240,
            "time": 625.25,
            "velocity": 0.9133858267716536
          },
          {
            "duration": 0.451041666666697,
            "durationTicks": 433,
            "midi": 60,
            "name": "C4",
            "ticks": 600480,
            "time": 625.5,
            "velocity": 0.9448818897637795
          },
          {
            "duration": 0.451041666666697,
            "durationTicks": 433,
            "midi": 63,
            "name": "D#4",
            "ticks": 600480,
            "time": 625.5,
            "velocity": 0.9448818897637795
          },
          {
            "duration": 0.22604166666667425,
            "durationTicks": 217,
            "midi": 59,
            "name": "B3",
            "ticks": 601680,
            "time": 626.75,
            "velocity": 0.7874015748031497
          },
          {
            "duration": 0.22604166666667425,
            "durationTicks": 217,
            "midi": 62,
            "name": "D4",
            "ticks": 601680,
            "time": 626.75,
            "velocity": 0.7874015748031497
          },
          {
            "duration": 0.22604166666667425,
            "durationTicks": 217,
            "midi": 59,
            "name": "B3",
            "ticks": 601920,
            "time": 627,
            "velocity": 0.8818897637795275
          },
          {
            "duration": 0.22604166666667425,
            "durationTicks": 217,
            "midi": 62,
            "name": "D4",
            "ticks": 601920,
            "time": 627,
            "velocity": 0.8818897637795275
          },
          {
            "duration": 0.22604166666667425,
            "durationTicks": 217,
            "midi": 59,
            "name": "B3",
            "ticks": 602160,
            "time": 627.25,
            "velocity": 0.8740157480314961
          },
          {
            "duration": 0.22604166666667425,
            "durationTicks": 217,
            "midi": 62,
            "name": "D4",
            "ticks": 602160,
            "time": 627.25,
            "velocity": 0.8740157480314961
          },
          {
            "duration": 0.451041666666697,
            "durationTicks": 433,
            "midi": 60,
            "name": "C4",
            "ticks": 602400,
            "time": 627.5,
            "velocity": 0.9291338582677166
          },
          {
            "duration": 0.451041666666697,
            "durationTicks": 433,
            "midi": 63,
            "name": "D#4",
            "ticks": 602400,
            "time": 627.5,
            "velocity": 0.9291338582677166
          },
          {
            "duration": 0.22604166666667425,
            "durationTicks": 217,
            "midi": 59,
            "name": "B3",
            "ticks": 603600,
            "time": 628.75,
            "velocity": 0.8110236220472441
          },
          {
            "duration": 0.22604166666667425,
            "durationTicks": 217,
            "midi": 62,
            "name": "D4",
            "ticks": 603600,
            "time": 628.75,
            "velocity": 0.8110236220472441
          },
          {
            "duration": 0.22604166666667425,
            "durationTicks": 217,
            "midi": 59,
            "name": "B3",
            "ticks": 603840,
            "time": 629,
            "velocity": 0.8661417322834646
          },
          {
            "duration": 0.22604166666667425,
            "durationTicks": 217,
            "midi": 62,
            "name": "D4",
            "ticks": 603840,
            "time": 629,
            "velocity": 0.8661417322834646
          },
          {
            "duration": 0.22604166666667425,
            "durationTicks": 217,
            "midi": 59,
            "name": "B3",
            "ticks": 604080,
            "time": 629.25,
            "velocity": 0.8818897637795275
          },
          {
            "duration": 0.22604166666667425,
            "durationTicks": 217,
            "midi": 62,
            "name": "D4",
            "ticks": 604080,
            "time": 629.25,
            "velocity": 0.8818897637795275
          },
          {
            "duration": 0.451041666666697,
            "durationTicks": 433,
            "midi": 60,
            "name": "C4",
            "ticks": 604320,
            "time": 629.5,
            "velocity": 0.905511811023622
          },
          {
            "duration": 0.451041666666697,
            "durationTicks": 433,
            "midi": 63,
            "name": "D#4",
            "ticks": 604320,
            "time": 629.5,
            "velocity": 0.905511811023622
          },
          {
            "duration": 0.451041666666697,
            "durationTicks": 433,
            "midi": 59,
            "name": "B3",
            "ticks": 604800,
            "time": 630,
            "velocity": 0.889763779527559
          },
          {
            "duration": 0.451041666666697,
            "durationTicks": 433,
            "midi": 62,
            "name": "D4",
            "ticks": 604800,
            "time": 630,
            "velocity": 0.889763779527559
          },
          {
            "duration": 0.451041666666697,
            "durationTicks": 433,
            "midi": 60,
            "name": "C4",
            "ticks": 605280,
            "time": 630.5,
            "velocity": 0.9291338582677166
          },
          {
            "duration": 0.451041666666697,
            "durationTicks": 433,
            "midi": 63,
            "name": "D#4",
            "ticks": 605280,
            "time": 630.5,
            "velocity": 0.9291338582677166
          },
          {
            "duration": 0.451041666666697,
            "durationTicks": 433,
            "midi": 59,
            "name": "B3",
            "ticks": 605760,
            "time": 631,
            "velocity": 0.8818897637795275
          },
          {
            "duration": 0.451041666666697,
            "durationTicks": 433,
            "midi": 62,
            "name": "D4",
            "ticks": 605760,
            "time": 631,
            "velocity": 0.8818897637795275
          },
          {
            "duration": 0.451041666666697,
            "durationTicks": 433,
            "midi": 60,
            "name": "C4",
            "ticks": 606240,
            "time": 631.5,
            "velocity": 0.9448818897637795
          },
          {
            "duration": 0.451041666666697,
            "durationTicks": 433,
            "midi": 63,
            "name": "D#4",
            "ticks": 606240,
            "time": 631.5,
            "velocity": 0.9448818897637795
          },
          {
            "duration": 0.451041666666697,
            "durationTicks": 433,
            "midi": 59,
            "name": "B3",
            "ticks": 606720,
            "time": 632,
            "velocity": 0.8661417322834646
          },
          {
            "duration": 0.451041666666697,
            "durationTicks": 433,
            "midi": 62,
            "name": "D4",
            "ticks": 606720,
            "time": 632,
            "velocity": 0.8661417322834646
          },
          {
            "duration": 0.451041666666697,
            "durationTicks": 433,
            "midi": 60,
            "name": "C4",
            "ticks": 607200,
            "time": 632.5,
            "velocity": 0.9448818897637795
          },
          {
            "duration": 0.451041666666697,
            "durationTicks": 433,
            "midi": 63,
            "name": "D#4",
            "ticks": 607200,
            "time": 632.5,
            "velocity": 0.9448818897637795
          },
          {
            "duration": 0.451041666666697,
            "durationTicks": 433,
            "midi": 59,
            "name": "B3",
            "ticks": 607680,
            "time": 633,
            "velocity": 0.8346456692913385
          },
          {
            "duration": 0.451041666666697,
            "durationTicks": 433,
            "midi": 62,
            "name": "D4",
            "ticks": 607680,
            "time": 633,
            "velocity": 0.8346456692913385
          },
          {
            "duration": 0.451041666666697,
            "durationTicks": 433,
            "midi": 60,
            "name": "C4",
            "ticks": 608160,
            "time": 633.5,
            "velocity": 0.937007874015748
          },
          {
            "duration": 0.451041666666697,
            "durationTicks": 433,
            "midi": 63,
            "name": "D#4",
            "ticks": 608160,
            "time": 633.5,
            "velocity": 0.937007874015748
          },
          {
            "duration": 0.451041666666697,
            "durationTicks": 433,
            "midi": 55,
            "name": "G3",
            "ticks": 609120,
            "time": 634.5,
            "velocity": 0.8031496062992126
          },
          {
            "duration": 0.451041666666697,
            "durationTicks": 433,
            "midi": 59,
            "name": "B3",
            "ticks": 609120,
            "time": 634.5,
            "velocity": 0.8031496062992126
          },
          {
            "duration": 0.451041666666697,
            "durationTicks": 433,
            "midi": 48,
            "name": "C3",
            "ticks": 610080,
            "time": 635.5,
            "velocity": 0.7952755905511811
          },
          {
            "duration": 0.451041666666697,
            "durationTicks": 433,
            "midi": 60,
            "name": "C4",
            "ticks": 610080,
            "time": 635.5,
            "velocity": 0.7952755905511811
          }
        ]
      },
      {
        "channel": 4,
        "controlChanges": {
          "7": [
            {
              "number": 7,
              "ticks": 0,
              "time": 0,
              "value": 0.4094488188976378
            }
          ],
          "10": [
            {
              "number": 10,
              "ticks": 0,
              "time": 0,
              "value": 0.23622047244094488
            }
          ],
          "64": [
            {
              "number": 64,
              "ticks": 0,
              "time": 0,
              "value": 0
            }
          ],
          "121": [
            {
              "number": 121,
              "ticks": 0,
              "time": 0,
              "value": 0
            }
          ]
        },
        "pitchBends": [],
        "instrument": {
          "family": "brass",
          "number": 60,
          "name": "french horn"
        },
        "name": "",
        "notes": [
          {
            "duration": 0.22604166666666714,
            "durationTicks": 217,
            "midi": 67,
            "name": "G4",
            "ticks": 17520,
            "time": 18.25,
            "velocity": 0.4566929133858268
          },
          {
            "duration": 0.22604166666666714,
            "durationTicks": 217,
            "midi": 67,
            "name": "G4",
            "ticks": 17760,
            "time": 18.5,
            "velocity": 0.5669291338582677
          },
          {
            "duration": 0.22604166666666714,
            "durationTicks": 217,
            "midi": 67,
            "name": "G4",
            "ticks": 18000,
            "time": 18.75,
            "velocity": 0.6141732283464567
          },
          {
            "duration": 0.451041666666665,
            "durationTicks": 433,
            "midi": 67,
            "name": "G4",
            "ticks": 18240,
            "time": 19,
            "velocity": 0.7795275590551181
          },
          {
            "duration": 0.451041666666665,
            "durationTicks": 433,
            "midi": 51,
            "name": "D#3",
            "ticks": 19200,
            "time": 20,
            "velocity": 0.6850393700787402
          },
          {
            "duration": 0.451041666666665,
            "durationTicks": 433,
            "midi": 63,
            "name": "D#4",
            "ticks": 19200,
            "time": 20,
            "velocity": 0.6850393700787402
          },
          {
            "duration": 0.451041666666665,
            "durationTicks": 433,
            "midi": 55,
            "name": "G3",
            "ticks": 20160,
            "time": 21,
            "velocity": 0.7165354330708661
          },
          {
            "duration": 0.451041666666665,
            "durationTicks": 433,
            "midi": 67,
            "name": "G4",
            "ticks": 20160,
            "time": 21,
            "velocity": 0.7165354330708661
          },
          {
            "duration": 0.22604166666666714,
            "durationTicks": 217,
            "midi": 68,
            "name": "G#4",
            "ticks": 21600,
            "time": 22.5,
            "velocity": 0.6692913385826772
          },
          {
            "duration": 0.22604166666666714,
            "durationTicks": 217,
            "midi": 68,
            "name": "G#4",
            "ticks": 21840,
            "time": 22.75,
            "velocity": 0.7480314960629921
          },
          {
            "duration": 0.22604166666666714,
            "durationTicks": 217,
            "midi": 68,
            "name": "G#4",
            "ticks": 22080,
            "time": 23,
            "velocity": 0.8031496062992126
          },
          {
            "duration": 2.5,
            "durationTicks": 2400,
            "midi": 65,
            "name": "F4",
            "ticks": 22320,
            "time": 23.25,
            "velocity": 0.6850393700787402
          },
          {
            "duration": 0.22604166666666714,
            "durationTicks": 217,
            "midi": 55,
            "name": "G3",
            "ticks": 31680,
            "time": 33,
            "velocity": 0.4251968503937008
          },
          {
            "duration": 0.22604166666666714,
            "durationTicks": 217,
            "midi": 67,
            "name": "G4",
            "ticks": 31680,
            "time": 33,
            "velocity": 0.4251968503937008
          },
          {
            "duration": 0.22604166666666714,
            "durationTicks": 217,
            "midi": 55,
            "name": "G3",
            "ticks": 31920,
            "time": 33.25,
            "velocity": 0.49606299212598426
          },
          {
            "duration": 0.22604166666666714,
            "durationTicks": 217,
            "midi": 67,
            "name": "G4",
            "ticks": 31920,
            "time": 33.25,
            "velocity": 0.49606299212598426
          },
          {
            "duration": 0.22604166666666714,
            "durationTicks": 217,
            "midi": 55,
            "name": "G3",
            "ticks": 32160,
            "time": 33.5,
            "velocity": 0.4645669291338583
          },
          {
            "duration": 0.22604166666666714,
            "durationTicks": 217,
            "midi": 67,
            "name": "G4",
            "ticks": 32160,
            "time": 33.5,
            "velocity": 0.4645669291338583
          },
          {
            "duration": 0.45104166666666856,
            "durationTicks": 433,
            "midi": 55,
            "name": "G3",
            "ticks": 32400,
            "time": 33.75,
            "velocity": 0.47244094488188976
          },
          {
            "duration": 0.45104166666666856,
            "durationTicks": 433,
            "midi": 67,
            "name": "G4",
            "ticks": 32400,
            "time": 33.75,
            "velocity": 0.47244094488188976
          },
          {
            "duration": 1.4510416666666686,
            "durationTicks": 1393,
            "midi": 65,
            "name": "F4",
            "ticks": 33360,
            "time": 34.75,
            "velocity": 0.4330708661417323
          },
          {
            "duration": 1.4510416666666686,
            "durationTicks": 1393,
            "midi": 68,
            "name": "G#4",
            "ticks": 33360,
            "time": 34.75,
            "velocity": 0.4330708661417323
          },
          {
            "duration": 0.45104166666666856,
            "durationTicks": 433,
            "midi": 65,
            "name": "F4",
            "ticks": 42000,
            "time": 43.75,
            "velocity": 0.6850393700787402
          },
          {
            "duration": 0.45104166666666856,
            "durationTicks": 433,
            "midi": 68,
            "name": "G#4",
            "ticks": 42000,
            "time": 43.75,
            "velocity": 0.6850393700787402
          },
          {
            "duration": 3.8999999999999986,
            "durationTicks": 3744,
            "midi": 63,
            "name": "D#4",
            "ticks": 42960,
            "time": 44.75,
            "velocity": 0.6850393700787402
          },
          {
            "duration": 3.8999999999999986,
            "durationTicks": 3744,
            "midi": 67,
            "name": "G4",
            "ticks": 42960,
            "time": 44.75,
            "velocity": 0.6850393700787402
          },
          {
            "duration": 3.4510416666666686,
            "durationTicks": 3313,
            "midi": 65,
            "name": "F4",
            "ticks": 46800,
            "time": 48.75,
            "velocity": 0.7559055118110236
          },
          {
            "duration": 3.4510416666666686,
            "durationTicks": 3313,
            "midi": 67,
            "name": "G4",
            "ticks": 46800,
            "time": 48.75,
            "velocity": 0.7559055118110236
          },
          {
            "duration": 0.45104166666666856,
            "durationTicks": 433,
            "midi": 63,
            "name": "D#4",
            "ticks": 50160,
            "time": 52.25,
            "velocity": 0.7795275590551181
          },
          {
            "duration": 0.45104166666666856,
            "durationTicks": 433,
            "midi": 67,
            "name": "G4",
            "ticks": 50160,
            "time": 52.25,
            "velocity": 0.7795275590551181
          },
          {
            "duration": 3.8999999999999986,
            "durationTicks": 3744,
            "midi": 63,
            "name": "D#4",
            "ticks": 50640,
            "time": 52.75,
            "velocity": 0.84251968503937
          },
          {
            "duration": 3.8999999999999986,
            "durationTicks": 3744,
            "midi": 66,
            "name": "F#4",
            "ticks": 50640,
            "time": 52.75,
            "velocity": 0.84251968503937
          },
          {
            "duration": 0.45104166666666856,
            "durationTicks": 433,
            "midi": 63,
            "name": "D#4",
            "ticks": 54480,
            "time": 56.75,
            "velocity": 0.8818897637795275
          },
          {
            "duration": 0.45104166666666856,
            "durationTicks": 433,
            "midi": 66,
            "name": "F#4",
            "ticks": 54480,
            "time": 56.75,
            "velocity": 0.8818897637795275
          },
          {
            "duration": 0.45104166666666856,
            "durationTicks": 433,
            "midi": 58,
            "name": "A#3",
            "ticks": 56400,
            "time": 58.75,
            "velocity": 0.7874015748031497
          },
          {
            "duration": 0.45104166666666856,
            "durationTicks": 433,
            "midi": 65,
            "name": "F4",
            "ticks": 56400,
            "time": 58.75,
            "velocity": 0.7874015748031497
          },
          {
            "duration": 0.22604166666666714,
            "durationTicks": 217,
            "midi": 70,
            "name": "A#4",
            "ticks": 57600,
            "time": 60,
            "velocity": 0.7952755905511811
          },
          {
            "duration": 0.22604166666666714,
            "durationTicks": 217,
            "midi": 70,
            "name": "A#4",
            "ticks": 57840,
            "time": 60.25,
            "velocity": 0.8661417322834646
          },
          {
            "duration": 0.22604166666666714,
            "durationTicks": 217,
            "midi": 70,
            "name": "A#4",
            "ticks": 58080,
            "time": 60.5,
            "velocity": 0.8976377952755905
          },
          {
            "duration": 0.8999999999999986,
            "durationTicks": 864,
            "midi": 63,
            "name": "D#4",
            "ticks": 58320,
            "time": 60.75,
            "velocity": 0.8267716535433071
          },
          {
            "duration": 0.8999999999999986,
            "durationTicks": 864,
            "midi": 65,
            "name": "F4",
            "ticks": 59280,
            "time": 61.75,
            "velocity": 1
          },
          {
            "duration": 1,
            "durationTicks": 960,
            "midi": 58,
            "name": "A#3",
            "ticks": 60240,
            "time": 62.75,
            "velocity": 0.8976377952755905
          },
          {
            "duration": 12.560416666666669,
            "durationTicks": 12058,
            "midi": 58,
            "name": "A#3",
            "ticks": 61200,
            "time": 63.75,
            "velocity": 0.3937007874015748
          },
          {
            "duration": 3.9000000000000057,
            "durationTicks": 3744,
            "midi": 51,
            "name": "D#3",
            "ticks": 80400,
            "time": 83.75,
            "velocity": 0.5118110236220472
          },
          {
            "duration": 3.9000000000000057,
            "durationTicks": 3744,
            "midi": 63,
            "name": "D#4",
            "ticks": 80400,
            "time": 83.75,
            "velocity": 0.5118110236220472
          },
          {
            "duration": 5.451041666666669,
            "durationTicks": 5233,
            "midi": 51,
            "name": "D#3",
            "ticks": 84240,
            "time": 87.75,
            "velocity": 0.5433070866141733
          },
          {
            "duration": 5.451041666666669,
            "durationTicks": 5233,
            "midi": 63,
            "name": "D#4",
            "ticks": 84240,
            "time": 87.75,
            "velocity": 0.5433070866141733
          },
          {
            "duration": 0.45104166666666856,
            "durationTicks": 433,
            "midi": 51,
            "name": "D#3",
            "ticks": 89520,
            "time": 93.25,
            "velocity": 0.5748031496062992
          },
          {
            "duration": 0.45104166666666856,
            "durationTicks": 433,
            "midi": 63,
            "name": "D#4",
            "ticks": 89520,
            "time": 93.25,
            "velocity": 0.5748031496062992
          },
          {
            "duration": 0.45104166666666856,
            "durationTicks": 433,
            "midi": 51,
            "name": "D#3",
            "ticks": 90000,
            "time": 93.75,
            "velocity": 0.7952755905511811
          },
          {
            "duration": 0.45104166666666856,
            "durationTicks": 433,
            "midi": 63,
            "name": "D#4",
            "ticks": 90000,
            "time": 93.75,
            "velocity": 0.7952755905511811
          },
          {
            "duration": 0.45104166666666856,
            "durationTicks": 433,
            "midi": 51,
            "name": "D#3",
            "ticks": 90480,
            "time": 94.25,
            "velocity": 0.7480314960629921
          },
          {
            "duration": 0.45104166666666856,
            "durationTicks": 433,
            "midi": 63,
            "name": "D#4",
            "ticks": 90480,
            "time": 94.25,
            "velocity": 0.7480314960629921
          },
          {
            "duration": 1.4510416666666686,
            "durationTicks": 1393,
            "midi": 58,
            "name": "A#3",
            "ticks": 90960,
            "time": 94.75,
            "velocity": 0.937007874015748
          },
          {
            "duration": 1.4510416666666686,
            "durationTicks": 1393,
            "midi": 65,
            "name": "F4",
            "ticks": 90960,
            "time": 94.75,
            "velocity": 0.937007874015748
          },
          {
            "duration": 0.45104166666666856,
            "durationTicks": 433,
            "midi": 46,
            "name": "A#2",
            "ticks": 92400,
            "time": 96.25,
            "velocity": 0.7716535433070866
          },
          {
            "duration": 0.45104166666666856,
            "durationTicks": 433,
            "midi": 58,
            "name": "A#3",
            "ticks": 92400,
            "time": 96.25,
            "velocity": 0.7716535433070866
          },
          {
            "duration": 0.45104166666666856,
            "durationTicks": 433,
            "midi": 46,
            "name": "A#2",
            "ticks": 92880,
            "time": 96.75,
            "velocity": 0.8740157480314961
          },
          {
            "duration": 0.45104166666666856,
            "durationTicks": 433,
            "midi": 58,
            "name": "A#3",
            "ticks": 92880,
            "time": 96.75,
            "velocity": 0.8740157480314961
          },
          {
            "duration": 0.45104166666666856,
            "durationTicks": 433,
            "midi": 46,
            "name": "A#2",
            "ticks": 93840,
            "time": 97.75,
            "velocity": 0.8188976377952756
          },
          {
            "duration": 0.45104166666666856,
            "durationTicks": 433,
            "midi": 58,
            "name": "A#3",
            "ticks": 93840,
            "time": 97.75,
            "velocity": 0.8188976377952756
          },
          {
            "duration": 0.45104166666666856,
            "durationTicks": 433,
            "midi": 46,
            "name": "A#2",
            "ticks": 94800,
            "time": 98.75,
            "velocity": 0.8267716535433071
          },
          {
            "duration": 0.45104166666666856,
            "durationTicks": 433,
            "midi": 58,
            "name": "A#3",
            "ticks": 94800,
            "time": 98.75,
            "velocity": 0.8267716535433071
          },
          {
            "duration": 0.45104166666666856,
            "durationTicks": 433,
            "midi": 51,
            "name": "D#3",
            "ticks": 95760,
            "time": 99.75,
            "velocity": 0.8346456692913385
          },
          {
            "duration": 0.45104166666666856,
            "durationTicks": 433,
            "midi": 63,
            "name": "D#4",
            "ticks": 95760,
            "time": 99.75,
            "velocity": 0.8346456692913385
          },
          {
            "duration": 0.45104166666666856,
            "durationTicks": 433,
            "midi": 63,
            "name": "D#4",
            "ticks": 96720,
            "time": 100.75,
            "velocity": 0.8110236220472441
          },
          {
            "duration": 0.45104166666666856,
            "durationTicks": 433,
            "midi": 67,
            "name": "G4",
            "ticks": 96720,
            "time": 100.75,
            "velocity": 0.8110236220472441
          },
          {
            "duration": 0.45104166666666856,
            "durationTicks": 433,
            "midi": 58,
            "name": "A#3",
            "ticks": 97680,
            "time": 101.75,
            "velocity": 0.7952755905511811
          },
          {
            "duration": 0.45104166666666856,
            "durationTicks": 433,
            "midi": 65,
            "name": "F4",
            "ticks": 97680,
            "time": 101.75,
            "velocity": 0.7952755905511811
          },
          {
            "duration": 2.9510416666666686,
            "durationTicks": 2833,
            "midi": 46,
            "name": "A#2",
            "ticks": 98160,
            "time": 102.25,
            "velocity": 0.8031496062992126
          },
          {
            "duration": 2.9510416666666686,
            "durationTicks": 2833,
            "midi": 58,
            "name": "A#3",
            "ticks": 98160,
            "time": 102.25,
            "velocity": 0.8031496062992126
          },
          {
            "duration": 0.45104166666666856,
            "durationTicks": 433,
            "midi": 46,
            "name": "A#2",
            "ticks": 101040,
            "time": 105.25,
            "velocity": 0.8818897637795275
          },
          {
            "duration": 0.45104166666666856,
            "durationTicks": 433,
            "midi": 58,
            "name": "A#3",
            "ticks": 101040,
            "time": 105.25,
            "velocity": 0.8818897637795275
          },
          {
            "duration": 0.45104166666666856,
            "durationTicks": 433,
            "midi": 46,
            "name": "A#2",
            "ticks": 102000,
            "time": 106.25,
            "velocity": 0.8188976377952756
          },
          {
            "duration": 0.45104166666666856,
            "durationTicks": 433,
            "midi": 58,
            "name": "A#3",
            "ticks": 102000,
            "time": 106.25,
            "velocity": 0.8188976377952756
          },
          {
            "duration": 0.45104166666666856,
            "durationTicks": 433,
            "midi": 51,
            "name": "D#3",
            "ticks": 102960,
            "time": 107.25,
            "velocity": 0.8110236220472441
          },
          {
            "duration": 0.45104166666666856,
            "durationTicks": 433,
            "midi": 63,
            "name": "D#4",
            "ticks": 102960,
            "time": 107.25,
            "velocity": 0.8110236220472441
          },
          {
            "duration": 0.45104166666666856,
            "durationTicks": 433,
            "midi": 51,
            "name": "D#3",
            "ticks": 103920,
            "time": 108.25,
            "velocity": 0.8267716535433071
          },
          {
            "duration": 0.45104166666666856,
            "durationTicks": 433,
            "midi": 63,
            "name": "D#4",
            "ticks": 103920,
            "time": 108.25,
            "velocity": 0.8267716535433071
          },
          {
            "duration": 0.45104166666666856,
            "durationTicks": 433,
            "midi": 51,
            "name": "D#3",
            "ticks": 104880,
            "time": 109.25,
            "velocity": 0.7480314960629921
          },
          {
            "duration": 0.45104166666666856,
            "durationTicks": 433,
            "midi": 63,
            "name": "D#4",
            "ticks": 104880,
            "time": 109.25,
            "velocity": 0.7480314960629921
          },
          {
            "duration": 0.45104166666666856,
            "durationTicks": 433,
            "midi": 46,
            "name": "A#2",
            "ticks": 105840,
            "time": 110.25,
            "velocity": 0.8031496062992126
          },
          {
            "duration": 0.45104166666666856,
            "durationTicks": 433,
            "midi": 58,
            "name": "A#3",
            "ticks": 105840,
            "time": 110.25,
            "velocity": 0.8031496062992126
          },
          {
            "duration": 0.45104166666666856,
            "durationTicks": 433,
            "midi": 51,
            "name": "D#3",
            "ticks": 106320,
            "time": 110.75,
            "velocity": 1
          },
          {
            "duration": 0.45104166666666856,
            "durationTicks": 433,
            "midi": 63,
            "name": "D#4",
            "ticks": 106320,
            "time": 110.75,
            "velocity": 1
          },
          {
            "duration": 0.22604166666666003,
            "durationTicks": 217,
            "midi": 58,
            "name": "A#3",
            "ticks": 107520,
            "time": 112,
            "velocity": 0.7795275590551181
          },
          {
            "duration": 0.22604166666666003,
            "durationTicks": 217,
            "midi": 70,
            "name": "A#4",
            "ticks": 107520,
            "time": 112,
            "velocity": 0.7795275590551181
          },
          {
            "duration": 0.22604166666666003,
            "durationTicks": 217,
            "midi": 58,
            "name": "A#3",
            "ticks": 107760,
            "time": 112.25,
            "velocity": 0.8740157480314961
          },
          {
            "duration": 0.22604166666666003,
            "durationTicks": 217,
            "midi": 70,
            "name": "A#4",
            "ticks": 107760,
            "time": 112.25,
            "velocity": 0.8740157480314961
          },
          {
            "duration": 0.22604166666666003,
            "durationTicks": 217,
            "midi": 58,
            "name": "A#3",
            "ticks": 108000,
            "time": 112.5,
            "velocity": 0.8818897637795275
          },
          {
            "duration": 0.22604166666666003,
            "durationTicks": 217,
            "midi": 70,
            "name": "A#4",
            "ticks": 108000,
            "time": 112.5,
            "velocity": 0.8818897637795275
          },
          {
            "duration": 0.22604166666666003,
            "durationTicks": 217,
            "midi": 55,
            "name": "G3",
            "ticks": 108240,
            "time": 112.75,
            "velocity": 0.7952755905511811
          },
          {
            "duration": 0.22604166666666003,
            "durationTicks": 217,
            "midi": 67,
            "name": "G4",
            "ticks": 108240,
            "time": 112.75,
            "velocity": 0.7952755905511811
          },
          {
            "duration": 0.22604166666666003,
            "durationTicks": 217,
            "midi": 51,
            "name": "D#3",
            "ticks": 108480,
            "time": 113,
            "velocity": 0.7559055118110236
          },
          {
            "duration": 0.22604166666666003,
            "durationTicks": 217,
            "midi": 63,
            "name": "D#4",
            "ticks": 108480,
            "time": 113,
            "velocity": 0.7559055118110236
          },
          {
            "duration": 0.22604166666666003,
            "durationTicks": 217,
            "midi": 51,
            "name": "D#3",
            "ticks": 108720,
            "time": 113.25,
            "velocity": 0.84251968503937
          },
          {
            "duration": 0.22604166666666003,
            "durationTicks": 217,
            "midi": 63,
            "name": "D#4",
            "ticks": 108720,
            "time": 113.25,
            "velocity": 0.84251968503937
          },
          {
            "duration": 0.22604166666666003,
            "durationTicks": 217,
            "midi": 51,
            "name": "D#3",
            "ticks": 108960,
            "time": 113.5,
            "velocity": 0.905511811023622
          },
          {
            "duration": 0.22604166666666003,
            "durationTicks": 217,
            "midi": 63,
            "name": "D#4",
            "ticks": 108960,
            "time": 113.5,
            "velocity": 0.905511811023622
          },
          {
            "duration": 1.4510416666666686,
            "durationTicks": 1393,
            "midi": 46,
            "name": "A#2",
            "ticks": 109200,
            "time": 113.75,
            "velocity": 0.84251968503937
          },
          {
            "duration": 1.4510416666666686,
            "durationTicks": 1393,
            "midi": 58,
            "name": "A#3",
            "ticks": 109200,
            "time": 113.75,
            "velocity": 0.84251968503937
          },
          {
            "duration": 0.22604166666666003,
            "durationTicks": 217,
            "midi": 58,
            "name": "A#3",
            "ticks": 111360,
            "time": 116,
            "velocity": 0.7559055118110236
          },
          {
            "duration": 0.22604166666666003,
            "durationTicks": 217,
            "midi": 70,
            "name": "A#4",
            "ticks": 111360,
            "time": 116,
            "velocity": 0.7559055118110236
          },
          {
            "duration": 0.22604166666666003,
            "durationTicks": 217,
            "midi": 58,
            "name": "A#3",
            "ticks": 111600,
            "time": 116.25,
            "velocity": 0.8661417322834646
          },
          {
            "duration": 0.22604166666666003,
            "durationTicks": 217,
            "midi": 70,
            "name": "A#4",
            "ticks": 111600,
            "time": 116.25,
            "velocity": 0.8661417322834646
          },
          {
            "duration": 0.22604166666666003,
            "durationTicks": 217,
            "midi": 58,
            "name": "A#3",
            "ticks": 111840,
            "time": 116.5,
            "velocity": 0.8818897637795275
          },
          {
            "duration": 0.22604166666666003,
            "durationTicks": 217,
            "midi": 70,
            "name": "A#4",
            "ticks": 111840,
            "time": 116.5,
            "velocity": 0.8818897637795275
          },
          {
            "duration": 0.22604166666666003,
            "durationTicks": 217,
            "midi": 55,
            "name": "G3",
            "ticks": 112080,
            "time": 116.75,
            "velocity": 0.8267716535433071
          },
          {
            "duration": 0.22604166666666003,
            "durationTicks": 217,
            "midi": 67,
            "name": "G4",
            "ticks": 112080,
            "time": 116.75,
            "velocity": 0.8267716535433071
          },
          {
            "duration": 0.22604166666666003,
            "durationTicks": 217,
            "midi": 51,
            "name": "D#3",
            "ticks": 112320,
            "time": 117,
            "velocity": 0.7874015748031497
          },
          {
            "duration": 0.22604166666666003,
            "durationTicks": 217,
            "midi": 63,
            "name": "D#4",
            "ticks": 112320,
            "time": 117,
            "velocity": 0.7874015748031497
          },
          {
            "duration": 0.22604166666666003,
            "durationTicks": 217,
            "midi": 51,
            "name": "D#3",
            "ticks": 112560,
            "time": 117.25,
            "velocity": 0.8503937007874016
          },
          {
            "duration": 0.22604166666666003,
            "durationTicks": 217,
            "midi": 63,
            "name": "D#4",
            "ticks": 112560,
            "time": 117.25,
            "velocity": 0.8503937007874016
          },
          {
            "duration": 0.22604166666666003,
            "durationTicks": 217,
            "midi": 51,
            "name": "D#3",
            "ticks": 112800,
            "time": 117.5,
            "velocity": 0.8976377952755905
          },
          {
            "duration": 0.22604166666666003,
            "durationTicks": 217,
            "midi": 63,
            "name": "D#4",
            "ticks": 112800,
            "time": 117.5,
            "velocity": 0.8976377952755905
          },
          {
            "duration": 1.4510416666666686,
            "durationTicks": 1393,
            "midi": 46,
            "name": "A#2",
            "ticks": 113040,
            "time": 117.75,
            "velocity": 0.8110236220472441
          },
          {
            "duration": 1.4510416666666686,
            "durationTicks": 1393,
            "midi": 58,
            "name": "A#3",
            "ticks": 113040,
            "time": 117.75,
            "velocity": 0.8110236220472441
          },
          {
            "duration": 0.22604166666666003,
            "durationTicks": 217,
            "midi": 46,
            "name": "A#2",
            "ticks": 115200,
            "time": 120,
            "velocity": 0.8031496062992126
          },
          {
            "duration": 0.22604166666666003,
            "durationTicks": 217,
            "midi": 58,
            "name": "A#3",
            "ticks": 115200,
            "time": 120,
            "velocity": 0.8031496062992126
          },
          {
            "duration": 0.22604166666666003,
            "durationTicks": 217,
            "midi": 46,
            "name": "A#2",
            "ticks": 115440,
            "time": 120.25,
            "velocity": 0.84251968503937
          },
          {
            "duration": 0.22604166666666003,
            "durationTicks": 217,
            "midi": 58,
            "name": "A#3",
            "ticks": 115440,
            "time": 120.25,
            "velocity": 0.84251968503937
          },
          {
            "duration": 0.22604166666666003,
            "durationTicks": 217,
            "midi": 46,
            "name": "A#2",
            "ticks": 115680,
            "time": 120.5,
            "velocity": 0.889763779527559
          },
          {
            "duration": 0.22604166666666003,
            "durationTicks": 217,
            "midi": 58,
            "name": "A#3",
            "ticks": 115680,
            "time": 120.5,
            "velocity": 0.889763779527559
          },
          {
            "duration": 0.45104166666666856,
            "durationTicks": 433,
            "midi": 51,
            "name": "D#3",
            "ticks": 115920,
            "time": 120.75,
            "velocity": 1
          },
          {
            "duration": 0.45104166666666856,
            "durationTicks": 433,
            "midi": 63,
            "name": "D#4",
            "ticks": 115920,
            "time": 120.75,
            "velocity": 1
          },
          {
            "duration": 0.22604166666666003,
            "durationTicks": 217,
            "midi": 58,
            "name": "A#3",
            "ticks": 117120,
            "time": 122,
            "velocity": 0.8110236220472441
          },
          {
            "duration": 0.22604166666666003,
            "durationTicks": 217,
            "midi": 65,
            "name": "F4",
            "ticks": 117120,
            "time": 122,
            "velocity": 0.8110236220472441
          },
          {
            "duration": 0.22604166666666003,
            "durationTicks": 217,
            "midi": 58,
            "name": "A#3",
            "ticks": 117360,
            "time": 122.25,
            "velocity": 0.8661417322834646
          },
          {
            "duration": 0.22604166666666003,
            "durationTicks": 217,
            "midi": 65,
            "name": "F4",
            "ticks": 117360,
            "time": 122.25,
            "velocity": 0.8661417322834646
          },
          {
            "duration": 0.22604166666666003,
            "durationTicks": 217,
            "midi": 58,
            "name": "A#3",
            "ticks": 117600,
            "time": 122.5,
            "velocity": 0.84251968503937
          },
          {
            "duration": 0.22604166666666003,
            "durationTicks": 217,
            "midi": 65,
            "name": "F4",
            "ticks": 117600,
            "time": 122.5,
            "velocity": 0.84251968503937
          },
          {
            "duration": 0.45104166666666856,
            "durationTicks": 433,
            "midi": 51,
            "name": "D#3",
            "ticks": 117840,
            "time": 122.75,
            "velocity": 0.8188976377952756
          },
          {
            "duration": 0.45104166666666856,
            "durationTicks": 433,
            "midi": 63,
            "name": "D#4",
            "ticks": 117840,
            "time": 122.75,
            "velocity": 0.8188976377952756
          },
          {
            "duration": 0.22604166666667425,
            "durationTicks": 217,
            "midi": 67,
            "name": "G4",
            "ticks": 138240,
            "time": 144,
            "velocity": 0.4094488188976378
          },
          {
            "duration": 0.22604166666667425,
            "durationTicks": 217,
            "midi": 67,
            "name": "G4",
            "ticks": 138480,
            "time": 144.25,
            "velocity": 0.5118110236220472
          },
          {
            "duration": 0.22604166666667425,
            "durationTicks": 217,
            "midi": 67,
            "name": "G4",
            "ticks": 138720,
            "time": 144.5,
            "velocity": 0.6220472440944882
          },
          {
            "duration": 0.45104166666666856,
            "durationTicks": 433,
            "midi": 67,
            "name": "G4",
            "ticks": 138960,
            "time": 144.75,
            "velocity": 0.7637795275590551
          },
          {
            "duration": 0.45104166666666856,
            "durationTicks": 433,
            "midi": 51,
            "name": "D#3",
            "ticks": 139920,
            "time": 145.75,
            "velocity": 0.7086614173228346
          },
          {
            "duration": 0.45104166666666856,
            "durationTicks": 433,
            "midi": 63,
            "name": "D#4",
            "ticks": 139920,
            "time": 145.75,
            "velocity": 0.7086614173228346
          },
          {
            "duration": 0.45104166666666856,
            "durationTicks": 433,
            "midi": 55,
            "name": "G3",
            "ticks": 140880,
            "time": 146.75,
            "velocity": 0.7007874015748031
          },
          {
            "duration": 0.45104166666666856,
            "durationTicks": 433,
            "midi": 67,
            "name": "G4",
            "ticks": 140880,
            "time": 146.75,
            "velocity": 0.7007874015748031
          },
          {
            "duration": 0.22604166666667425,
            "durationTicks": 217,
            "midi": 68,
            "name": "G#4",
            "ticks": 142320,
            "time": 148.25,
            "velocity": 0.6929133858267716
          },
          {
            "duration": 0.22604166666667425,
            "durationTicks": 217,
            "midi": 68,
            "name": "G#4",
            "ticks": 142560,
            "time": 148.5,
            "velocity": 0.7637795275590551
          },
          {
            "duration": 0.22604166666667425,
            "durationTicks": 217,
            "midi": 68,
            "name": "G#4",
            "ticks": 142800,
            "time": 148.75,
            "velocity": 0.8110236220472441
          },
          {
            "duration": 2.5,
            "durationTicks": 2400,
            "midi": 65,
            "name": "F4",
            "ticks": 143040,
            "time": 149,
            "velocity": 0.7086614173228346
          },
          {
            "duration": 0.22604166666667425,
            "durationTicks": 217,
            "midi": 55,
            "name": "G3",
            "ticks": 152400,
            "time": 158.75,
            "velocity": 0.4094488188976378
          },
          {
            "duration": 0.22604166666667425,
            "durationTicks": 217,
            "midi": 67,
            "name": "G4",
            "ticks": 152400,
            "time": 158.75,
            "velocity": 0.4094488188976378
          },
          {
            "duration": 0.22604166666667425,
            "durationTicks": 217,
            "midi": 55,
            "name": "G3",
            "ticks": 152640,
            "time": 159,
            "velocity": 0.4881889763779528
          },
          {
            "duration": 0.22604166666667425,
            "durationTicks": 217,
            "midi": 67,
            "name": "G4",
            "ticks": 152640,
            "time": 159,
            "velocity": 0.4881889763779528
          },
          {
            "duration": 0.22604166666667425,
            "durationTicks": 217,
            "midi": 55,
            "name": "G3",
            "ticks": 152880,
            "time": 159.25,
            "velocity": 0.5354330708661418
          },
          {
            "duration": 0.22604166666667425,
            "durationTicks": 217,
            "midi": 67,
            "name": "G4",
            "ticks": 152880,
            "time": 159.25,
            "velocity": 0.5354330708661418
          },
          {
            "duration": 0.45104166666666856,
            "durationTicks": 433,
            "midi": 55,
            "name": "G3",
            "ticks": 153120,
            "time": 159.5,
            "velocity": 0.4881889763779528
          },
          {
            "duration": 0.45104166666666856,
            "durationTicks": 433,
            "midi": 67,
            "name": "G4",
            "ticks": 153120,
            "time": 159.5,
            "velocity": 0.4881889763779528
          },
          {
            "duration": 1.4510416666666686,
            "durationTicks": 1393,
            "midi": 65,
            "name": "F4",
            "ticks": 154080,
            "time": 160.5,
            "velocity": 0.44881889763779526
          },
          {
            "duration": 1.4510416666666686,
            "durationTicks": 1393,
            "midi": 68,
            "name": "G#4",
            "ticks": 154080,
            "time": 160.5,
            "velocity": 0.44881889763779526
          },
          {
            "duration": 0.45104166666666856,
            "durationTicks": 433,
            "midi": 65,
            "name": "F4",
            "ticks": 162720,
            "time": 169.5,
            "velocity": 0.7165354330708661
          },
          {
            "duration": 0.45104166666666856,
            "durationTicks": 433,
            "midi": 68,
            "name": "G#4",
            "ticks": 162720,
            "time": 169.5,
            "velocity": 0.7165354330708661
          },
          {
            "duration": 3.9000000000000057,
            "durationTicks": 3744,
            "midi": 63,
            "name": "D#4",
            "ticks": 163680,
            "time": 170.5,
            "velocity": 0.6850393700787402
          },
          {
            "duration": 3.9000000000000057,
            "durationTicks": 3744,
            "midi": 67,
            "name": "G4",
            "ticks": 163680,
            "time": 170.5,
            "velocity": 0.6850393700787402
          },
          {
            "duration": 3.4510416666666686,
            "durationTicks": 3313,
            "midi": 65,
            "name": "F4",
            "ticks": 167520,
            "time": 174.5,
            "velocity": 0.7559055118110236
          },
          {
            "duration": 3.4510416666666686,
            "durationTicks": 3313,
            "midi": 67,
            "name": "G4",
            "ticks": 167520,
            "time": 174.5,
            "velocity": 0.7559055118110236
          },
          {
            "duration": 0.45104166666666856,
            "durationTicks": 433,
            "midi": 63,
            "name": "D#4",
            "ticks": 170880,
            "time": 178,
            "velocity": 0.7401574803149606
          },
          {
            "duration": 0.45104166666666856,
            "durationTicks": 433,
            "midi": 67,
            "name": "G4",
            "ticks": 170880,
            "time": 178,
            "velocity": 0.7401574803149606
          },
          {
            "duration": 3.9000000000000057,
            "durationTicks": 3744,
            "midi": 63,
            "name": "D#4",
            "ticks": 171360,
            "time": 178.5,
            "velocity": 0.8503937007874016
          },
          {
            "duration": 3.9000000000000057,
            "durationTicks": 3744,
            "midi": 66,
            "name": "F#4",
            "ticks": 171360,
            "time": 178.5,
            "velocity": 0.8503937007874016
          },
          {
            "duration": 0.45104166666666856,
            "durationTicks": 433,
            "midi": 63,
            "name": "D#4",
            "ticks": 175200,
            "time": 182.5,
            "velocity": 0.8582677165354331
          },
          {
            "duration": 0.45104166666666856,
            "durationTicks": 433,
            "midi": 66,
            "name": "F#4",
            "ticks": 175200,
            "time": 182.5,
            "velocity": 0.8582677165354331
          },
          {
            "duration": 0.45104166666666856,
            "durationTicks": 433,
            "midi": 58,
            "name": "A#3",
            "ticks": 177120,
            "time": 184.5,
            "velocity": 0.8110236220472441
          },
          {
            "duration": 0.45104166666666856,
            "durationTicks": 433,
            "midi": 65,
            "name": "F4",
            "ticks": 177120,
            "time": 184.5,
            "velocity": 0.8110236220472441
          },
          {
            "duration": 0.22604166666667425,
            "durationTicks": 217,
            "midi": 70,
            "name": "A#4",
            "ticks": 178320,
            "time": 185.75,
            "velocity": 0.7559055118110236
          },
          {
            "duration": 0.22604166666667425,
            "durationTicks": 217,
            "midi": 70,
            "name": "A#4",
            "ticks": 178560,
            "time": 186,
            "velocity": 0.8818897637795275
          },
          {
            "duration": 0.22604166666667425,
            "durationTicks": 217,
            "midi": 70,
            "name": "A#4",
            "ticks": 178800,
            "time": 186.25,
            "velocity": 0.8818897637795275
          },
          {
            "duration": 0.9000000000000057,
            "durationTicks": 864,
            "midi": 63,
            "name": "D#4",
            "ticks": 179040,
            "time": 186.5,
            "velocity": 0.8188976377952756
          },
          {
            "duration": 0.9000000000000057,
            "durationTicks": 864,
            "midi": 65,
            "name": "F4",
            "ticks": 180000,
            "time": 187.5,
            "velocity": 1
          },
          {
            "duration": 1,
            "durationTicks": 960,
            "midi": 58,
            "name": "A#3",
            "ticks": 180960,
            "time": 188.5,
            "velocity": 0.8740157480314961
          },
          {
            "duration": 12.560416666666669,
            "durationTicks": 12058,
            "midi": 58,
            "name": "A#3",
            "ticks": 181920,
            "time": 189.5,
            "velocity": 0.3937007874015748
          },
          {
            "duration": 3.9000000000000057,
            "durationTicks": 3744,
            "midi": 51,
            "name": "D#3",
            "ticks": 201120,
            "time": 209.5,
            "velocity": 0.5590551181102362
          },
          {
            "duration": 3.9000000000000057,
            "durationTicks": 3744,
            "midi": 63,
            "name": "D#4",
            "ticks": 201120,
            "time": 209.5,
            "velocity": 0.5590551181102362
          },
          {
            "duration": 5.451041666666669,
            "durationTicks": 5233,
            "midi": 51,
            "name": "D#3",
            "ticks": 204960,
            "time": 213.5,
            "velocity": 0.5511811023622047
          },
          {
            "duration": 5.451041666666669,
            "durationTicks": 5233,
            "midi": 63,
            "name": "D#4",
            "ticks": 204960,
            "time": 213.5,
            "velocity": 0.5511811023622047
          },
          {
            "duration": 0.45104166666666856,
            "durationTicks": 433,
            "midi": 51,
            "name": "D#3",
            "ticks": 210240,
            "time": 219,
            "velocity": 0.5590551181102362
          },
          {
            "duration": 0.45104166666666856,
            "durationTicks": 433,
            "midi": 63,
            "name": "D#4",
            "ticks": 210240,
            "time": 219,
            "velocity": 0.5590551181102362
          },
          {
            "duration": 0.45104166666666856,
            "durationTicks": 433,
            "midi": 51,
            "name": "D#3",
            "ticks": 210720,
            "time": 219.5,
            "velocity": 0.7637795275590551
          },
          {
            "duration": 0.45104166666666856,
            "durationTicks": 433,
            "midi": 63,
            "name": "D#4",
            "ticks": 210720,
            "time": 219.5,
            "velocity": 0.7637795275590551
          },
          {
            "duration": 0.45104166666666856,
            "durationTicks": 433,
            "midi": 51,
            "name": "D#3",
            "ticks": 211200,
            "time": 220,
            "velocity": 0.7559055118110236
          },
          {
            "duration": 0.45104166666666856,
            "durationTicks": 433,
            "midi": 63,
            "name": "D#4",
            "ticks": 211200,
            "time": 220,
            "velocity": 0.7559055118110236
          },
          {
            "duration": 1.4510416666666686,
            "durationTicks": 1393,
            "midi": 58,
            "name": "A#3",
            "ticks": 211680,
            "time": 220.5,
            "velocity": 0.937007874015748
          },
          {
            "duration": 1.4510416666666686,
            "durationTicks": 1393,
            "midi": 65,
            "name": "F4",
            "ticks": 211680,
            "time": 220.5,
            "velocity": 0.937007874015748
          },
          {
            "duration": 0.45104166666666856,
            "durationTicks": 433,
            "midi": 46,
            "name": "A#2",
            "ticks": 213120,
            "time": 222,
            "velocity": 0.8503937007874016
          },
          {
            "duration": 0.45104166666666856,
            "durationTicks": 433,
            "midi": 58,
            "name": "A#3",
            "ticks": 213120,
            "time": 222,
            "velocity": 0.8503937007874016
          },
          {
            "duration": 0.45104166666666856,
            "durationTicks": 433,
            "midi": 46,
            "name": "A#2",
            "ticks": 213600,
            "time": 222.5,
            "velocity": 0.889763779527559
          },
          {
            "duration": 0.45104166666666856,
            "durationTicks": 433,
            "midi": 58,
            "name": "A#3",
            "ticks": 213600,
            "time": 222.5,
            "velocity": 0.889763779527559
          },
          {
            "duration": 0.45104166666666856,
            "durationTicks": 433,
            "midi": 46,
            "name": "A#2",
            "ticks": 214560,
            "time": 223.5,
            "velocity": 0.7952755905511811
          },
          {
            "duration": 0.45104166666666856,
            "durationTicks": 433,
            "midi": 58,
            "name": "A#3",
            "ticks": 214560,
            "time": 223.5,
            "velocity": 0.7952755905511811
          },
          {
            "duration": 0.45104166666666856,
            "durationTicks": 433,
            "midi": 46,
            "name": "A#2",
            "ticks": 215520,
            "time": 224.5,
            "velocity": 0.7952755905511811
          },
          {
            "duration": 0.45104166666666856,
            "durationTicks": 433,
            "midi": 58,
            "name": "A#3",
            "ticks": 215520,
            "time": 224.5,
            "velocity": 0.7952755905511811
          },
          {
            "duration": 0.45104166666666856,
            "durationTicks": 433,
            "midi": 51,
            "name": "D#3",
            "ticks": 216480,
            "time": 225.5,
            "velocity": 0.7795275590551181
          },
          {
            "duration": 0.45104166666666856,
            "durationTicks": 433,
            "midi": 63,
            "name": "D#4",
            "ticks": 216480,
            "time": 225.5,
            "velocity": 0.7795275590551181
          },
          {
            "duration": 0.45104166666666856,
            "durationTicks": 433,
            "midi": 63,
            "name": "D#4",
            "ticks": 217440,
            "time": 226.5,
            "velocity": 0.8267716535433071
          },
          {
            "duration": 0.45104166666666856,
            "durationTicks": 433,
            "midi": 67,
            "name": "G4",
            "ticks": 217440,
            "time": 226.5,
            "velocity": 0.8267716535433071
          },
          {
            "duration": 0.45104166666666856,
            "durationTicks": 433,
            "midi": 58,
            "name": "A#3",
            "ticks": 218400,
            "time": 227.5,
            "velocity": 0.7716535433070866
          },
          {
            "duration": 0.45104166666666856,
            "durationTicks": 433,
            "midi": 65,
            "name": "F4",
            "ticks": 218400,
            "time": 227.5,
            "velocity": 0.7716535433070866
          },
          {
            "duration": 2.9510416666666686,
            "durationTicks": 2833,
            "midi": 46,
            "name": "A#2",
            "ticks": 218880,
            "time": 228,
            "velocity": 0.7952755905511811
          },
          {
            "duration": 2.9510416666666686,
            "durationTicks": 2833,
            "midi": 58,
            "name": "A#3",
            "ticks": 218880,
            "time": 228,
            "velocity": 0.7952755905511811
          },
          {
            "duration": 0.45104166666666856,
            "durationTicks": 433,
            "midi": 46,
            "name": "A#2",
            "ticks": 221760,
            "time": 231,
            "velocity": 0.8661417322834646
          },
          {
            "duration": 0.45104166666666856,
            "durationTicks": 433,
            "midi": 58,
            "name": "A#3",
            "ticks": 221760,
            "time": 231,
            "velocity": 0.8661417322834646
          },
          {
            "duration": 0.45104166666666856,
            "durationTicks": 433,
            "midi": 46,
            "name": "A#2",
            "ticks": 222720,
            "time": 232,
            "velocity": 0.7874015748031497
          },
          {
            "duration": 0.45104166666666856,
            "durationTicks": 433,
            "midi": 58,
            "name": "A#3",
            "ticks": 222720,
            "time": 232,
            "velocity": 0.7874015748031497
          },
          {
            "duration": 0.45104166666666856,
            "durationTicks": 433,
            "midi": 51,
            "name": "D#3",
            "ticks": 223680,
            "time": 233,
            "velocity": 0.8031496062992126
          },
          {
            "duration": 0.45104166666666856,
            "durationTicks": 433,
            "midi": 63,
            "name": "D#4",
            "ticks": 223680,
            "time": 233,
            "velocity": 0.8031496062992126
          },
          {
            "duration": 0.45104166666666856,
            "durationTicks": 433,
            "midi": 51,
            "name": "D#3",
            "ticks": 224640,
            "time": 234,
            "velocity": 0.7874015748031497
          },
          {
            "duration": 0.45104166666666856,
            "durationTicks": 433,
            "midi": 63,
            "name": "D#4",
            "ticks": 224640,
            "time": 234,
            "velocity": 0.7874015748031497
          },
          {
            "duration": 0.45104166666666856,
            "durationTicks": 433,
            "midi": 51,
            "name": "D#3",
            "ticks": 225600,
            "time": 235,
            "velocity": 0.8110236220472441
          },
          {
            "duration": 0.45104166666666856,
            "durationTicks": 433,
            "midi": 63,
            "name": "D#4",
            "ticks": 225600,
            "time": 235,
            "velocity": 0.8110236220472441
          },
          {
            "duration": 0.45104166666666856,
            "durationTicks": 433,
            "midi": 46,
            "name": "A#2",
            "ticks": 226560,
            "time": 236,
            "velocity": 0.8110236220472441
          },
          {
            "duration": 0.45104166666666856,
            "durationTicks": 433,
            "midi": 58,
            "name": "A#3",
            "ticks": 226560,
            "time": 236,
            "velocity": 0.8110236220472441
          },
          {
            "duration": 0.45104166666666856,
            "durationTicks": 433,
            "midi": 51,
            "name": "D#3",
            "ticks": 227040,
            "time": 236.5,
            "velocity": 0.9921259842519685
          },
          {
            "duration": 0.45104166666666856,
            "durationTicks": 433,
            "midi": 63,
            "name": "D#4",
            "ticks": 227040,
            "time": 236.5,
            "velocity": 0.9921259842519685
          },
          {
            "duration": 0.22604166666667425,
            "durationTicks": 217,
            "midi": 58,
            "name": "A#3",
            "ticks": 228240,
            "time": 237.75,
            "velocity": 0.7795275590551181
          },
          {
            "duration": 0.22604166666667425,
            "durationTicks": 217,
            "midi": 70,
            "name": "A#4",
            "ticks": 228240,
            "time": 237.75,
            "velocity": 0.7795275590551181
          },
          {
            "duration": 0.22604166666667425,
            "durationTicks": 217,
            "midi": 58,
            "name": "A#3",
            "ticks": 228480,
            "time": 238,
            "velocity": 0.8503937007874016
          },
          {
            "duration": 0.22604166666667425,
            "durationTicks": 217,
            "midi": 70,
            "name": "A#4",
            "ticks": 228480,
            "time": 238,
            "velocity": 0.8503937007874016
          },
          {
            "duration": 0.22604166666667425,
            "durationTicks": 217,
            "midi": 58,
            "name": "A#3",
            "ticks": 228720,
            "time": 238.25,
            "velocity": 0.9133858267716536
          },
          {
            "duration": 0.22604166666667425,
            "durationTicks": 217,
            "midi": 70,
            "name": "A#4",
            "ticks": 228720,
            "time": 238.25,
            "velocity": 0.9133858267716536
          },
          {
            "duration": 0.22604166666667425,
            "durationTicks": 217,
            "midi": 55,
            "name": "G3",
            "ticks": 228960,
            "time": 238.5,
            "velocity": 0.7874015748031497
          },
          {
            "duration": 0.22604166666667425,
            "durationTicks": 217,
            "midi": 67,
            "name": "G4",
            "ticks": 228960,
            "time": 238.5,
            "velocity": 0.7874015748031497
          },
          {
            "duration": 0.22604166666667425,
            "durationTicks": 217,
            "midi": 51,
            "name": "D#3",
            "ticks": 229200,
            "time": 238.75,
            "velocity": 0.7795275590551181
          },
          {
            "duration": 0.22604166666667425,
            "durationTicks": 217,
            "midi": 63,
            "name": "D#4",
            "ticks": 229200,
            "time": 238.75,
            "velocity": 0.7795275590551181
          },
          {
            "duration": 0.22604166666667425,
            "durationTicks": 217,
            "midi": 51,
            "name": "D#3",
            "ticks": 229440,
            "time": 239,
            "velocity": 0.84251968503937
          },
          {
            "duration": 0.22604166666667425,
            "durationTicks": 217,
            "midi": 63,
            "name": "D#4",
            "ticks": 229440,
            "time": 239,
            "velocity": 0.84251968503937
          },
          {
            "duration": 0.22604166666667425,
            "durationTicks": 217,
            "midi": 51,
            "name": "D#3",
            "ticks": 229680,
            "time": 239.25,
            "velocity": 0.952755905511811
          },
          {
            "duration": 0.22604166666667425,
            "durationTicks": 217,
            "midi": 63,
            "name": "D#4",
            "ticks": 229680,
            "time": 239.25,
            "velocity": 0.952755905511811
          },
          {
            "duration": 1.4510416666666686,
            "durationTicks": 1393,
            "midi": 46,
            "name": "A#2",
            "ticks": 229920,
            "time": 239.5,
            "velocity": 0.8582677165354331
          },
          {
            "duration": 1.4510416666666686,
            "durationTicks": 1393,
            "midi": 58,
            "name": "A#3",
            "ticks": 229920,
            "time": 239.5,
            "velocity": 0.8582677165354331
          },
          {
            "duration": 0.22604166666667425,
            "durationTicks": 217,
            "midi": 58,
            "name": "A#3",
            "ticks": 232080,
            "time": 241.75,
            "velocity": 0.8267716535433071
          },
          {
            "duration": 0.22604166666667425,
            "durationTicks": 217,
            "midi": 70,
            "name": "A#4",
            "ticks": 232080,
            "time": 241.75,
            "velocity": 0.8267716535433071
          },
          {
            "duration": 0.22604166666667425,
            "durationTicks": 217,
            "midi": 58,
            "name": "A#3",
            "ticks": 232320,
            "time": 242,
            "velocity": 0.84251968503937
          },
          {
            "duration": 0.22604166666667425,
            "durationTicks": 217,
            "midi": 70,
            "name": "A#4",
            "ticks": 232320,
            "time": 242,
            "velocity": 0.84251968503937
          },
          {
            "duration": 0.22604166666667425,
            "durationTicks": 217,
            "midi": 58,
            "name": "A#3",
            "ticks": 232560,
            "time": 242.25,
            "velocity": 0.8582677165354331
          },
          {
            "duration": 0.22604166666667425,
            "durationTicks": 217,
            "midi": 70,
            "name": "A#4",
            "ticks": 232560,
            "time": 242.25,
            "velocity": 0.8582677165354331
          },
          {
            "duration": 0.22604166666667425,
            "durationTicks": 217,
            "midi": 55,
            "name": "G3",
            "ticks": 232800,
            "time": 242.5,
            "velocity": 0.7952755905511811
          },
          {
            "duration": 0.22604166666667425,
            "durationTicks": 217,
            "midi": 67,
            "name": "G4",
            "ticks": 232800,
            "time": 242.5,
            "velocity": 0.7952755905511811
          },
          {
            "duration": 0.22604166666667425,
            "durationTicks": 217,
            "midi": 51,
            "name": "D#3",
            "ticks": 233040,
            "time": 242.75,
            "velocity": 0.7716535433070866
          },
          {
            "duration": 0.22604166666667425,
            "durationTicks": 217,
            "midi": 63,
            "name": "D#4",
            "ticks": 233040,
            "time": 242.75,
            "velocity": 0.7716535433070866
          },
          {
            "duration": 0.22604166666667425,
            "durationTicks": 217,
            "midi": 51,
            "name": "D#3",
            "ticks": 233280,
            "time": 243,
            "velocity": 0.8503937007874016
          },
          {
            "duration": 0.22604166666667425,
            "durationTicks": 217,
            "midi": 63,
            "name": "D#4",
            "ticks": 233280,
            "time": 243,
            "velocity": 0.8503937007874016
          },
          {
            "duration": 0.22604166666667425,
            "durationTicks": 217,
            "midi": 51,
            "name": "D#3",
            "ticks": 233520,
            "time": 243.25,
            "velocity": 0.8740157480314961
          },
          {
            "duration": 0.22604166666667425,
            "durationTicks": 217,
            "midi": 63,
            "name": "D#4",
            "ticks": 233520,
            "time": 243.25,
            "velocity": 0.8740157480314961
          },
          {
            "duration": 1.4510416666666686,
            "durationTicks": 1393,
            "midi": 46,
            "name": "A#2",
            "ticks": 233760,
            "time": 243.5,
            "velocity": 0.8346456692913385
          },
          {
            "duration": 1.4510416666666686,
            "durationTicks": 1393,
            "midi": 58,
            "name": "A#3",
            "ticks": 233760,
            "time": 243.5,
            "velocity": 0.8346456692913385
          },
          {
            "duration": 0.22604166666667425,
            "durationTicks": 217,
            "midi": 46,
            "name": "A#2",
            "ticks": 235920,
            "time": 245.75,
            "velocity": 0.8346456692913385
          },
          {
            "duration": 0.22604166666667425,
            "durationTicks": 217,
            "midi": 58,
            "name": "A#3",
            "ticks": 235920,
            "time": 245.75,
            "velocity": 0.8346456692913385
          },
          {
            "duration": 0.22604166666667425,
            "durationTicks": 217,
            "midi": 46,
            "name": "A#2",
            "ticks": 236160,
            "time": 246,
            "velocity": 0.8740157480314961
          },
          {
            "duration": 0.22604166666667425,
            "durationTicks": 217,
            "midi": 58,
            "name": "A#3",
            "ticks": 236160,
            "time": 246,
            "velocity": 0.8740157480314961
          },
          {
            "duration": 0.22604166666667425,
            "durationTicks": 217,
            "midi": 46,
            "name": "A#2",
            "ticks": 236400,
            "time": 246.25,
            "velocity": 0.8818897637795275
          },
          {
            "duration": 0.22604166666667425,
            "durationTicks": 217,
            "midi": 58,
            "name": "A#3",
            "ticks": 236400,
            "time": 246.25,
            "velocity": 0.8818897637795275
          },
          {
            "duration": 0.45104166666666856,
            "durationTicks": 433,
            "midi": 51,
            "name": "D#3",
            "ticks": 236640,
            "time": 246.5,
            "velocity": 1
          },
          {
            "duration": 0.45104166666666856,
            "durationTicks": 433,
            "midi": 63,
            "name": "D#4",
            "ticks": 236640,
            "time": 246.5,
            "velocity": 1
          },
          {
            "duration": 0.22604166666667425,
            "durationTicks": 217,
            "midi": 58,
            "name": "A#3",
            "ticks": 237840,
            "time": 247.75,
            "velocity": 0.8110236220472441
          },
          {
            "duration": 0.22604166666667425,
            "durationTicks": 217,
            "midi": 65,
            "name": "F4",
            "ticks": 237840,
            "time": 247.75,
            "velocity": 0.8110236220472441
          },
          {
            "duration": 0.22604166666667425,
            "durationTicks": 217,
            "midi": 58,
            "name": "A#3",
            "ticks": 238080,
            "time": 248,
            "velocity": 0.8740157480314961
          },
          {
            "duration": 0.22604166666667425,
            "durationTicks": 217,
            "midi": 65,
            "name": "F4",
            "ticks": 238080,
            "time": 248,
            "velocity": 0.8740157480314961
          },
          {
            "duration": 0.22604166666667425,
            "durationTicks": 217,
            "midi": 58,
            "name": "A#3",
            "ticks": 238320,
            "time": 248.25,
            "velocity": 0.8976377952755905
          },
          {
            "duration": 0.22604166666667425,
            "durationTicks": 217,
            "midi": 65,
            "name": "F4",
            "ticks": 238320,
            "time": 248.25,
            "velocity": 0.8976377952755905
          },
          {
            "duration": 0.45104166666666856,
            "durationTicks": 433,
            "midi": 51,
            "name": "D#3",
            "ticks": 238560,
            "time": 248.5,
            "velocity": 0.7952755905511811
          },
          {
            "duration": 0.45104166666666856,
            "durationTicks": 433,
            "midi": 63,
            "name": "D#4",
            "ticks": 238560,
            "time": 248.5,
            "velocity": 0.7952755905511811
          },
          {
            "duration": 0.22604166666667425,
            "durationTicks": 217,
            "midi": 70,
            "name": "A#4",
            "ticks": 241680,
            "time": 251.75,
            "velocity": 0.7952755905511811
          },
          {
            "duration": 0.22604166666667425,
            "durationTicks": 217,
            "midi": 70,
            "name": "A#4",
            "ticks": 241920,
            "time": 252,
            "velocity": 0.8503937007874016
          },
          {
            "duration": 0.22604166666667425,
            "durationTicks": 217,
            "midi": 70,
            "name": "A#4",
            "ticks": 242160,
            "time": 252.25,
            "velocity": 0.9212598425196851
          },
          {
            "duration": 3.5,
            "durationTicks": 3360,
            "midi": 67,
            "name": "G4",
            "ticks": 242400,
            "time": 252.5,
            "velocity": 0.8031496062992126
          },
          {
            "duration": 0.45104166666664014,
            "durationTicks": 433,
            "midi": 63,
            "name": "D#4",
            "ticks": 259680,
            "time": 270.5,
            "velocity": 0.4645669291338583
          },
          {
            "duration": 0.45104166666664014,
            "durationTicks": 433,
            "midi": 65,
            "name": "F4",
            "ticks": 260160,
            "time": 271,
            "velocity": 0.5039370078740157
          },
          {
            "duration": 0.45104166666664014,
            "durationTicks": 433,
            "midi": 66,
            "name": "F#4",
            "ticks": 260640,
            "time": 271.5,
            "velocity": 0.4881889763779528
          },
          {
            "duration": 5.45104166666664,
            "durationTicks": 5233,
            "midi": 55,
            "name": "G3",
            "ticks": 261120,
            "time": 272,
            "velocity": 0.4881889763779528
          },
          {
            "duration": 5.45104166666664,
            "durationTicks": 5233,
            "midi": 67,
            "name": "G4",
            "ticks": 261120,
            "time": 272,
            "velocity": 0.4881889763779528
          },
          {
            "duration": 0.22604166666667425,
            "durationTicks": 217,
            "midi": 55,
            "name": "G3",
            "ticks": 273840,
            "time": 285.25,
            "velocity": 0.41732283464566927
          },
          {
            "duration": 0.22604166666667425,
            "durationTicks": 217,
            "midi": 67,
            "name": "G4",
            "ticks": 273840,
            "time": 285.25,
            "velocity": 0.41732283464566927
          },
          {
            "duration": 0.22604166666667425,
            "durationTicks": 217,
            "midi": 55,
            "name": "G3",
            "ticks": 274080,
            "time": 285.5,
            "velocity": 0.4645669291338583
          },
          {
            "duration": 0.22604166666667425,
            "durationTicks": 217,
            "midi": 67,
            "name": "G4",
            "ticks": 274080,
            "time": 285.5,
            "velocity": 0.4645669291338583
          },
          {
            "duration": 0.22604166666667425,
            "durationTicks": 217,
            "midi": 55,
            "name": "G3",
            "ticks": 274320,
            "time": 285.75,
            "velocity": 0.4881889763779528
          },
          {
            "duration": 0.22604166666667425,
            "durationTicks": 217,
            "midi": 67,
            "name": "G4",
            "ticks": 274320,
            "time": 285.75,
            "velocity": 0.4881889763779528
          },
          {
            "duration": 0.45104166666664014,
            "durationTicks": 433,
            "midi": 55,
            "name": "G3",
            "ticks": 274560,
            "time": 286,
            "velocity": 0.5039370078740157
          },
          {
            "duration": 0.45104166666664014,
            "durationTicks": 433,
            "midi": 67,
            "name": "G4",
            "ticks": 274560,
            "time": 286,
            "velocity": 0.5039370078740157
          },
          {
            "duration": 0.22604166666667425,
            "durationTicks": 217,
            "midi": 51,
            "name": "D#3",
            "ticks": 275760,
            "time": 287.25,
            "velocity": 0.4251968503937008
          },
          {
            "duration": 0.22604166666667425,
            "durationTicks": 217,
            "midi": 63,
            "name": "D#4",
            "ticks": 275760,
            "time": 287.25,
            "velocity": 0.4251968503937008
          },
          {
            "duration": 0.22604166666667425,
            "durationTicks": 217,
            "midi": 51,
            "name": "D#3",
            "ticks": 276000,
            "time": 287.5,
            "velocity": 0.4645669291338583
          },
          {
            "duration": 0.22604166666667425,
            "durationTicks": 217,
            "midi": 63,
            "name": "D#4",
            "ticks": 276000,
            "time": 287.5,
            "velocity": 0.4645669291338583
          },
          {
            "duration": 0.22604166666667425,
            "durationTicks": 217,
            "midi": 51,
            "name": "D#3",
            "ticks": 276240,
            "time": 287.75,
            "velocity": 0.5118110236220472
          },
          {
            "duration": 0.22604166666667425,
            "durationTicks": 217,
            "midi": 63,
            "name": "D#4",
            "ticks": 276240,
            "time": 287.75,
            "velocity": 0.5118110236220472
          },
          {
            "duration": 0.45104166666664014,
            "durationTicks": 433,
            "midi": 51,
            "name": "D#3",
            "ticks": 276480,
            "time": 288,
            "velocity": 0.48031496062992124
          },
          {
            "duration": 0.45104166666664014,
            "durationTicks": 433,
            "midi": 63,
            "name": "D#4",
            "ticks": 276480,
            "time": 288,
            "velocity": 0.48031496062992124
          },
          {
            "duration": 0.22604166666667425,
            "durationTicks": 217,
            "midi": 51,
            "name": "D#3",
            "ticks": 277680,
            "time": 289.25,
            "velocity": 0.4251968503937008
          },
          {
            "duration": 0.22604166666667425,
            "durationTicks": 217,
            "midi": 63,
            "name": "D#4",
            "ticks": 277680,
            "time": 289.25,
            "velocity": 0.4251968503937008
          },
          {
            "duration": 0.22604166666667425,
            "durationTicks": 217,
            "midi": 51,
            "name": "D#3",
            "ticks": 277920,
            "time": 289.5,
            "velocity": 0.4881889763779528
          },
          {
            "duration": 0.22604166666667425,
            "durationTicks": 217,
            "midi": 63,
            "name": "D#4",
            "ticks": 277920,
            "time": 289.5,
            "velocity": 0.4881889763779528
          },
          {
            "duration": 0.22604166666667425,
            "durationTicks": 217,
            "midi": 51,
            "name": "D#3",
            "ticks": 278160,
            "time": 289.75,
            "velocity": 0.5039370078740157
          },
          {
            "duration": 0.22604166666667425,
            "durationTicks": 217,
            "midi": 63,
            "name": "D#4",
            "ticks": 278160,
            "time": 289.75,
            "velocity": 0.5039370078740157
          },
          {
            "duration": 0.45104166666664014,
            "durationTicks": 433,
            "midi": 51,
            "name": "D#3",
            "ticks": 278400,
            "time": 290,
            "velocity": 0.4409448818897638
          },
          {
            "duration": 0.45104166666664014,
            "durationTicks": 433,
            "midi": 63,
            "name": "D#4",
            "ticks": 278400,
            "time": 290,
            "velocity": 0.4409448818897638
          },
          {
            "duration": 0.22604166666667425,
            "durationTicks": 217,
            "midi": 55,
            "name": "G3",
            "ticks": 279600,
            "time": 291.25,
            "velocity": 0.4566929133858268
          },
          {
            "duration": 0.22604166666667425,
            "durationTicks": 217,
            "midi": 67,
            "name": "G4",
            "ticks": 279600,
            "time": 291.25,
            "velocity": 0.4566929133858268
          },
          {
            "duration": 0.22604166666667425,
            "durationTicks": 217,
            "midi": 55,
            "name": "G3",
            "ticks": 279840,
            "time": 291.5,
            "velocity": 0.4566929133858268
          },
          {
            "duration": 0.22604166666667425,
            "durationTicks": 217,
            "midi": 67,
            "name": "G4",
            "ticks": 279840,
            "time": 291.5,
            "velocity": 0.4566929133858268
          },
          {
            "duration": 0.22604166666667425,
            "durationTicks": 217,
            "midi": 55,
            "name": "G3",
            "ticks": 280080,
            "time": 291.75,
            "velocity": 0.4881889763779528
          },
          {
            "duration": 0.22604166666667425,
            "durationTicks": 217,
            "midi": 67,
            "name": "G4",
            "ticks": 280080,
            "time": 291.75,
            "velocity": 0.4881889763779528
          },
          {
            "duration": 0.45104166666664014,
            "durationTicks": 433,
            "midi": 55,
            "name": "G3",
            "ticks": 280320,
            "time": 292,
            "velocity": 0.49606299212598426
          },
          {
            "duration": 0.45104166666664014,
            "durationTicks": 433,
            "midi": 67,
            "name": "G4",
            "ticks": 280320,
            "time": 292,
            "velocity": 0.49606299212598426
          },
          {
            "duration": 0.22604166666667425,
            "durationTicks": 217,
            "midi": 55,
            "name": "G3",
            "ticks": 281520,
            "time": 293.25,
            "velocity": 0.4330708661417323
          },
          {
            "duration": 0.22604166666667425,
            "durationTicks": 217,
            "midi": 67,
            "name": "G4",
            "ticks": 281520,
            "time": 293.25,
            "velocity": 0.4330708661417323
          },
          {
            "duration": 0.22604166666667425,
            "durationTicks": 217,
            "midi": 55,
            "name": "G3",
            "ticks": 281760,
            "time": 293.5,
            "velocity": 0.44881889763779526
          },
          {
            "duration": 0.22604166666667425,
            "durationTicks": 217,
            "midi": 67,
            "name": "G4",
            "ticks": 281760,
            "time": 293.5,
            "velocity": 0.44881889763779526
          },
          {
            "duration": 0.22604166666667425,
            "durationTicks": 217,
            "midi": 55,
            "name": "G3",
            "ticks": 282000,
            "time": 293.75,
            "velocity": 0.5748031496062992
          },
          {
            "duration": 0.22604166666667425,
            "durationTicks": 217,
            "midi": 67,
            "name": "G4",
            "ticks": 282000,
            "time": 293.75,
            "velocity": 0.5748031496062992
          },
          {
            "duration": 0.45104166666664014,
            "durationTicks": 433,
            "midi": 55,
            "name": "G3",
            "ticks": 282240,
            "time": 294,
            "velocity": 0.5748031496062992
          },
          {
            "duration": 0.45104166666664014,
            "durationTicks": 433,
            "midi": 67,
            "name": "G4",
            "ticks": 282240,
            "time": 294,
            "velocity": 0.5748031496062992
          },
          {
            "duration": 0.45104166666664014,
            "durationTicks": 433,
            "midi": 55,
            "name": "G3",
            "ticks": 282720,
            "time": 294.5,
            "velocity": 0.6614173228346457
          },
          {
            "duration": 0.45104166666664014,
            "durationTicks": 433,
            "midi": 67,
            "name": "G4",
            "ticks": 282720,
            "time": 294.5,
            "velocity": 0.6614173228346457
          },
          {
            "duration": 1.8999999999999773,
            "durationTicks": 1824,
            "midi": 51,
            "name": "D#3",
            "ticks": 283200,
            "time": 295,
            "velocity": 0.6771653543307087
          },
          {
            "duration": 1.8999999999999773,
            "durationTicks": 1824,
            "midi": 63,
            "name": "D#4",
            "ticks": 283200,
            "time": 295,
            "velocity": 0.6771653543307087
          },
          {
            "duration": 0.45104166666664014,
            "durationTicks": 433,
            "midi": 51,
            "name": "D#3",
            "ticks": 285120,
            "time": 297,
            "velocity": 0.7559055118110236
          },
          {
            "duration": 0.45104166666664014,
            "durationTicks": 433,
            "midi": 63,
            "name": "D#4",
            "ticks": 285120,
            "time": 297,
            "velocity": 0.7559055118110236
          },
          {
            "duration": 0.22604166666667425,
            "durationTicks": 217,
            "midi": 55,
            "name": "G3",
            "ticks": 286320,
            "time": 298.25,
            "velocity": 0.6692913385826772
          },
          {
            "duration": 0.22604166666667425,
            "durationTicks": 217,
            "midi": 67,
            "name": "G4",
            "ticks": 286320,
            "time": 298.25,
            "velocity": 0.6692913385826772
          },
          {
            "duration": 0.22604166666667425,
            "durationTicks": 217,
            "midi": 55,
            "name": "G3",
            "ticks": 286560,
            "time": 298.5,
            "velocity": 0.7559055118110236
          },
          {
            "duration": 0.22604166666667425,
            "durationTicks": 217,
            "midi": 67,
            "name": "G4",
            "ticks": 286560,
            "time": 298.5,
            "velocity": 0.7559055118110236
          },
          {
            "duration": 0.22604166666667425,
            "durationTicks": 217,
            "midi": 55,
            "name": "G3",
            "ticks": 286800,
            "time": 298.75,
            "velocity": 0.7716535433070866
          },
          {
            "duration": 0.22604166666667425,
            "durationTicks": 217,
            "midi": 67,
            "name": "G4",
            "ticks": 286800,
            "time": 298.75,
            "velocity": 0.7716535433070866
          },
          {
            "duration": 1.8999999999999773,
            "durationTicks": 1824,
            "midi": 55,
            "name": "G3",
            "ticks": 287040,
            "time": 299,
            "velocity": 0.7559055118110236
          },
          {
            "duration": 1.8999999999999773,
            "durationTicks": 1824,
            "midi": 67,
            "name": "G4",
            "ticks": 287040,
            "time": 299,
            "velocity": 0.7559055118110236
          },
          {
            "duration": 0.45104166666664014,
            "durationTicks": 433,
            "midi": 55,
            "name": "G3",
            "ticks": 288960,
            "time": 301,
            "velocity": 0.7952755905511811
          },
          {
            "duration": 0.45104166666664014,
            "durationTicks": 433,
            "midi": 67,
            "name": "G4",
            "ticks": 288960,
            "time": 301,
            "velocity": 0.7952755905511811
          },
          {
            "duration": 0.22604166666667425,
            "durationTicks": 217,
            "midi": 55,
            "name": "G3",
            "ticks": 290160,
            "time": 302.25,
            "velocity": 0.7322834645669292
          },
          {
            "duration": 0.22604166666667425,
            "durationTicks": 217,
            "midi": 67,
            "name": "G4",
            "ticks": 290160,
            "time": 302.25,
            "velocity": 0.7322834645669292
          },
          {
            "duration": 0.22604166666667425,
            "durationTicks": 217,
            "midi": 55,
            "name": "G3",
            "ticks": 290400,
            "time": 302.5,
            "velocity": 0.8267716535433071
          },
          {
            "duration": 0.22604166666667425,
            "durationTicks": 217,
            "midi": 67,
            "name": "G4",
            "ticks": 290400,
            "time": 302.5,
            "velocity": 0.8267716535433071
          },
          {
            "duration": 0.22604166666667425,
            "durationTicks": 217,
            "midi": 55,
            "name": "G3",
            "ticks": 290640,
            "time": 302.75,
            "velocity": 0.8031496062992126
          },
          {
            "duration": 0.22604166666667425,
            "durationTicks": 217,
            "midi": 67,
            "name": "G4",
            "ticks": 290640,
            "time": 302.75,
            "velocity": 0.8031496062992126
          },
          {
            "duration": 0.45104166666664014,
            "durationTicks": 433,
            "midi": 55,
            "name": "G3",
            "ticks": 290880,
            "time": 303,
            "velocity": 0.8346456692913385
          },
          {
            "duration": 0.45104166666664014,
            "durationTicks": 433,
            "midi": 67,
            "name": "G4",
            "ticks": 290880,
            "time": 303,
            "velocity": 0.8346456692913385
          },
          {
            "duration": 0.22604166666667425,
            "durationTicks": 217,
            "midi": 65,
            "name": "F4",
            "ticks": 305760,
            "time": 318.5,
            "velocity": 0.7322834645669292
          },
          {
            "duration": 0.22604166666667425,
            "durationTicks": 217,
            "midi": 65,
            "name": "F4",
            "ticks": 306000,
            "time": 318.75,
            "velocity": 0.7952755905511811
          },
          {
            "duration": 0.45104166666664014,
            "durationTicks": 433,
            "midi": 65,
            "name": "F4",
            "ticks": 306240,
            "time": 319,
            "velocity": 0.8110236220472441
          },
          {
            "duration": 0.22604166666667425,
            "durationTicks": 217,
            "midi": 67,
            "name": "G4",
            "ticks": 308640,
            "time": 321.5,
            "velocity": 0.7401574803149606
          },
          {
            "duration": 0.22604166666667425,
            "durationTicks": 217,
            "midi": 67,
            "name": "G4",
            "ticks": 308880,
            "time": 321.75,
            "velocity": 0.8346456692913385
          },
          {
            "duration": 0.45104166666664014,
            "durationTicks": 433,
            "midi": 67,
            "name": "G4",
            "ticks": 309120,
            "time": 322,
            "velocity": 0.7795275590551181
          },
          {
            "duration": 1.0197916666666629,
            "durationTicks": 979,
            "midi": 65,
            "name": "F4",
            "ticks": 310080,
            "time": 323,
            "velocity": 0.7480314960629921
          },
          {
            "duration": 0.9489583333333371,
            "durationTicks": 911,
            "midi": 67,
            "name": "G4",
            "ticks": 311040,
            "time": 324,
            "velocity": 0.7874015748031497
          },
          {
            "duration": 1.0197916666666629,
            "durationTicks": 979,
            "midi": 65,
            "name": "F4",
            "ticks": 313920,
            "time": 327,
            "velocity": 0.7795275590551181
          },
          {
            "duration": 0.9489583333333371,
            "durationTicks": 911,
            "midi": 67,
            "name": "G4",
            "ticks": 314880,
            "time": 328,
            "velocity": 0.8267716535433071
          },
          {
            "duration": 1.0197916666666629,
            "durationTicks": 979,
            "midi": 65,
            "name": "F4",
            "ticks": 317760,
            "time": 331,
            "velocity": 0.7637795275590551
          },
          {
            "duration": 0.9489583333333371,
            "durationTicks": 911,
            "midi": 66,
            "name": "F#4",
            "ticks": 318720,
            "time": 332,
            "velocity": 0.7874015748031497
          },
          {
            "duration": 0.8999999999999773,
            "durationTicks": 864,
            "midi": 65,
            "name": "F4",
            "ticks": 321600,
            "time": 335,
            "velocity": 0.7952755905511811
          },
          {
            "duration": 0.8999999999999773,
            "durationTicks": 864,
            "midi": 65,
            "name": "F4",
            "ticks": 322560,
            "time": 336,
            "velocity": 0.7952755905511811
          },
          {
            "duration": 0.8999999999999773,
            "durationTicks": 864,
            "midi": 65,
            "name": "F4",
            "ticks": 346560,
            "time": 361,
            "velocity": 0.4251968503937008
          },
          {
            "duration": 0.8999999999999773,
            "durationTicks": 864,
            "midi": 68,
            "name": "G#4",
            "ticks": 346560,
            "time": 361,
            "velocity": 0.4251968503937008
          },
          {
            "duration": 0.8999999999999773,
            "durationTicks": 864,
            "midi": 65,
            "name": "F4",
            "ticks": 348480,
            "time": 363,
            "velocity": 0.3700787401574803
          },
          {
            "duration": 0.8999999999999773,
            "durationTicks": 864,
            "midi": 68,
            "name": "G#4",
            "ticks": 348480,
            "time": 363,
            "velocity": 0.3700787401574803
          },
          {
            "duration": 0.8999999999999773,
            "durationTicks": 864,
            "midi": 65,
            "name": "F4",
            "ticks": 350400,
            "time": 365,
            "velocity": 0.4251968503937008
          },
          {
            "duration": 0.8999999999999773,
            "durationTicks": 864,
            "midi": 68,
            "name": "G#4",
            "ticks": 350400,
            "time": 365,
            "velocity": 0.4251968503937008
          },
          {
            "duration": 0.22604166666667425,
            "durationTicks": 217,
            "midi": 68,
            "name": "G#4",
            "ticks": 352560,
            "time": 367.25,
            "velocity": 0.8031496062992126
          },
          {
            "duration": 0.22604166666667425,
            "durationTicks": 217,
            "midi": 68,
            "name": "G#4",
            "ticks": 352800,
            "time": 367.5,
            "velocity": 0.8346456692913385
          },
          {
            "duration": 0.22604166666667425,
            "durationTicks": 217,
            "midi": 68,
            "name": "G#4",
            "ticks": 353040,
            "time": 367.75,
            "velocity": 0.8582677165354331
          },
          {
            "duration": 1.2260416666666742,
            "durationTicks": 1177,
            "midi": 65,
            "name": "F4",
            "ticks": 353280,
            "time": 368,
            "velocity": 0.84251968503937
          },
          {
            "duration": 0.22604166666667425,
            "durationTicks": 217,
            "midi": 68,
            "name": "G#4",
            "ticks": 354480,
            "time": 369.25,
            "velocity": 0.9448818897637795
          },
          {
            "duration": 0.22604166666667425,
            "durationTicks": 217,
            "midi": 68,
            "name": "G#4",
            "ticks": 354720,
            "time": 369.5,
            "velocity": 0.9448818897637795
          },
          {
            "duration": 0.22604166666667425,
            "durationTicks": 217,
            "midi": 68,
            "name": "G#4",
            "ticks": 354960,
            "time": 369.75,
            "velocity": 0.8582677165354331
          },
          {
            "duration": 1.2260416666666742,
            "durationTicks": 1177,
            "midi": 65,
            "name": "F4",
            "ticks": 355200,
            "time": 370,
            "velocity": 0.8346456692913385
          },
          {
            "duration": 0.22604166666667425,
            "durationTicks": 217,
            "midi": 68,
            "name": "G#4",
            "ticks": 356400,
            "time": 371.25,
            "velocity": 0.905511811023622
          },
          {
            "duration": 0.22604166666667425,
            "durationTicks": 217,
            "midi": 68,
            "name": "G#4",
            "ticks": 356640,
            "time": 371.5,
            "velocity": 0.8740157480314961
          },
          {
            "duration": 0.22604166666667425,
            "durationTicks": 217,
            "midi": 68,
            "name": "G#4",
            "ticks": 356880,
            "time": 371.75,
            "velocity": 0.8661417322834646
          },
          {
            "duration": 0.45104166666664014,
            "durationTicks": 433,
            "midi": 65,
            "name": "F4",
            "ticks": 357120,
            "time": 372,
            "velocity": 0.8267716535433071
          },
          {
            "duration": 0.45104166666664014,
            "durationTicks": 433,
            "midi": 68,
            "name": "G#4",
            "ticks": 357600,
            "time": 372.5,
            "velocity": 0.9606299212598425
          },
          {
            "duration": 0.45104166666664014,
            "durationTicks": 433,
            "midi": 65,
            "name": "F4",
            "ticks": 358080,
            "time": 373,
            "velocity": 0.84251968503937
          },
          {
            "duration": 0.45104166666664014,
            "durationTicks": 433,
            "midi": 68,
            "name": "G#4",
            "ticks": 358560,
            "time": 373.5,
            "velocity": 0.9212598425196851
          },
          {
            "duration": 0.45104166666664014,
            "durationTicks": 433,
            "midi": 65,
            "name": "F4",
            "ticks": 359040,
            "time": 374,
            "velocity": 0.8110236220472441
          },
          {
            "duration": 0.45104166666664014,
            "durationTicks": 433,
            "midi": 68,
            "name": "G#4",
            "ticks": 359520,
            "time": 374.5,
            "velocity": 0.9921259842519685
          },
          {
            "duration": 0.22604166666667425,
            "durationTicks": 217,
            "midi": 65,
            "name": "F4",
            "ticks": 360000,
            "time": 375,
            "velocity": 0.8267716535433071
          },
          {
            "duration": 0.22604166666667425,
            "durationTicks": 217,
            "midi": 68,
            "name": "G#4",
            "ticks": 360240,
            "time": 375.25,
            "velocity": 0.937007874015748
          },
          {
            "duration": 0.22604166666667425,
            "durationTicks": 217,
            "midi": 68,
            "name": "G#4",
            "ticks": 360480,
            "time": 375.5,
            "velocity": 0.8661417322834646
          },
          {
            "duration": 0.22604166666667425,
            "durationTicks": 217,
            "midi": 68,
            "name": "G#4",
            "ticks": 360720,
            "time": 375.75,
            "velocity": 0.9133858267716536
          },
          {
            "duration": 1.5,
            "durationTicks": 1440,
            "midi": 63,
            "name": "D#4",
            "ticks": 360960,
            "time": 376,
            "velocity": 0.7874015748031497
          },
          {
            "duration": 0.22604166666667425,
            "durationTicks": 217,
            "midi": 55,
            "name": "G3",
            "ticks": 362640,
            "time": 377.75,
            "velocity": 0.7874015748031497
          },
          {
            "duration": 0.22604166666667425,
            "durationTicks": 217,
            "midi": 67,
            "name": "G4",
            "ticks": 362640,
            "time": 377.75,
            "velocity": 0.7874015748031497
          },
          {
            "duration": 0.22604166666667425,
            "durationTicks": 217,
            "midi": 55,
            "name": "G3",
            "ticks": 362880,
            "time": 378,
            "velocity": 0.8582677165354331
          },
          {
            "duration": 0.22604166666667425,
            "durationTicks": 217,
            "midi": 67,
            "name": "G4",
            "ticks": 362880,
            "time": 378,
            "velocity": 0.8582677165354331
          },
          {
            "duration": 0.22604166666667425,
            "durationTicks": 217,
            "midi": 55,
            "name": "G3",
            "ticks": 363120,
            "time": 378.25,
            "velocity": 0.8818897637795275
          },
          {
            "duration": 0.22604166666667425,
            "durationTicks": 217,
            "midi": 67,
            "name": "G4",
            "ticks": 363120,
            "time": 378.25,
            "velocity": 0.8818897637795275
          },
          {
            "duration": 2.5,
            "durationTicks": 2400,
            "midi": 55,
            "name": "G3",
            "ticks": 363360,
            "time": 378.5,
            "velocity": 0.8740157480314961
          },
          {
            "duration": 2.5,
            "durationTicks": 2400,
            "midi": 67,
            "name": "G4",
            "ticks": 363360,
            "time": 378.5,
            "velocity": 0.8740157480314961
          },
          {
            "duration": 2.8999999999999773,
            "durationTicks": 2784,
            "midi": 65,
            "name": "F4",
            "ticks": 390240,
            "time": 406.5,
            "velocity": 0.4330708661417323
          },
          {
            "duration": 0.45104166666664014,
            "durationTicks": 433,
            "midi": 63,
            "name": "D#4",
            "ticks": 393120,
            "time": 409.5,
            "velocity": 0.7401574803149606
          },
          {
            "duration": 0.22604166666667425,
            "durationTicks": 217,
            "midi": 65,
            "name": "F4",
            "ticks": 394320,
            "time": 410.75,
            "velocity": 0.6535433070866141
          },
          {
            "duration": 0.22604166666667425,
            "durationTicks": 217,
            "midi": 68,
            "name": "G#4",
            "ticks": 394320,
            "time": 410.75,
            "velocity": 0.6535433070866141
          },
          {
            "duration": 0.22604166666667425,
            "durationTicks": 217,
            "midi": 65,
            "name": "F4",
            "ticks": 394560,
            "time": 411,
            "velocity": 0.7559055118110236
          },
          {
            "duration": 0.22604166666667425,
            "durationTicks": 217,
            "midi": 68,
            "name": "G#4",
            "ticks": 394560,
            "time": 411,
            "velocity": 0.7559055118110236
          },
          {
            "duration": 0.22604166666667425,
            "durationTicks": 217,
            "midi": 65,
            "name": "F4",
            "ticks": 394800,
            "time": 411.25,
            "velocity": 0.7559055118110236
          },
          {
            "duration": 0.22604166666667425,
            "durationTicks": 217,
            "midi": 68,
            "name": "G#4",
            "ticks": 394800,
            "time": 411.25,
            "velocity": 0.7559055118110236
          },
          {
            "duration": 0.45104166666664014,
            "durationTicks": 433,
            "midi": 65,
            "name": "F4",
            "ticks": 395040,
            "time": 411.5,
            "velocity": 0.7716535433070866
          },
          {
            "duration": 0.45104166666664014,
            "durationTicks": 433,
            "midi": 68,
            "name": "G#4",
            "ticks": 395040,
            "time": 411.5,
            "velocity": 0.7716535433070866
          },
          {
            "duration": 0.22604166666667425,
            "durationTicks": 217,
            "midi": 63,
            "name": "D#4",
            "ticks": 396240,
            "time": 412.75,
            "velocity": 0.6850393700787402
          },
          {
            "duration": 0.22604166666667425,
            "durationTicks": 217,
            "midi": 67,
            "name": "G4",
            "ticks": 396240,
            "time": 412.75,
            "velocity": 0.6850393700787402
          },
          {
            "duration": 0.22604166666667425,
            "durationTicks": 217,
            "midi": 63,
            "name": "D#4",
            "ticks": 396480,
            "time": 413,
            "velocity": 0.7322834645669292
          },
          {
            "duration": 0.22604166666667425,
            "durationTicks": 217,
            "midi": 67,
            "name": "G4",
            "ticks": 396480,
            "time": 413,
            "velocity": 0.7322834645669292
          },
          {
            "duration": 0.22604166666667425,
            "durationTicks": 217,
            "midi": 63,
            "name": "D#4",
            "ticks": 396720,
            "time": 413.25,
            "velocity": 0.7716535433070866
          },
          {
            "duration": 0.22604166666667425,
            "durationTicks": 217,
            "midi": 67,
            "name": "G4",
            "ticks": 396720,
            "time": 413.25,
            "velocity": 0.7716535433070866
          },
          {
            "duration": 0.45104166666664014,
            "durationTicks": 433,
            "midi": 63,
            "name": "D#4",
            "ticks": 396960,
            "time": 413.5,
            "velocity": 0.7874015748031497
          },
          {
            "duration": 0.45104166666664014,
            "durationTicks": 433,
            "midi": 67,
            "name": "G4",
            "ticks": 396960,
            "time": 413.5,
            "velocity": 0.7874015748031497
          },
          {
            "duration": 0.45104166666664014,
            "durationTicks": 433,
            "midi": 65,
            "name": "F4",
            "ticks": 402720,
            "time": 419.5,
            "velocity": 0.6929133858267716
          },
          {
            "duration": 0.45104166666664014,
            "durationTicks": 433,
            "midi": 68,
            "name": "G#4",
            "ticks": 402720,
            "time": 419.5,
            "velocity": 0.6929133858267716
          },
          {
            "duration": 3.8999999999999773,
            "durationTicks": 3744,
            "midi": 63,
            "name": "D#4",
            "ticks": 403680,
            "time": 420.5,
            "velocity": 0.7322834645669292
          },
          {
            "duration": 3.8999999999999773,
            "durationTicks": 3744,
            "midi": 67,
            "name": "G4",
            "ticks": 403680,
            "time": 420.5,
            "velocity": 0.7322834645669292
          },
          {
            "duration": 3.45104166666664,
            "durationTicks": 3313,
            "midi": 65,
            "name": "F4",
            "ticks": 407520,
            "time": 424.5,
            "velocity": 0.7637795275590551
          },
          {
            "duration": 3.45104166666664,
            "durationTicks": 3313,
            "midi": 67,
            "name": "G4",
            "ticks": 407520,
            "time": 424.5,
            "velocity": 0.7637795275590551
          },
          {
            "duration": 0.45104166666664014,
            "durationTicks": 433,
            "midi": 63,
            "name": "D#4",
            "ticks": 410880,
            "time": 428,
            "velocity": 0.7716535433070866
          },
          {
            "duration": 0.45104166666664014,
            "durationTicks": 433,
            "midi": 67,
            "name": "G4",
            "ticks": 410880,
            "time": 428,
            "velocity": 0.7716535433070866
          },
          {
            "duration": 3.8999999999999773,
            "durationTicks": 3744,
            "midi": 51,
            "name": "D#3",
            "ticks": 411360,
            "time": 428.5,
            "velocity": 0.7874015748031497
          },
          {
            "duration": 3.8999999999999773,
            "durationTicks": 3744,
            "midi": 63,
            "name": "D#4",
            "ticks": 411360,
            "time": 428.5,
            "velocity": 0.7874015748031497
          },
          {
            "duration": 0.45104166666664014,
            "durationTicks": 433,
            "midi": 51,
            "name": "D#3",
            "ticks": 415200,
            "time": 432.5,
            "velocity": 0.889763779527559
          },
          {
            "duration": 0.45104166666664014,
            "durationTicks": 433,
            "midi": 63,
            "name": "D#4",
            "ticks": 415200,
            "time": 432.5,
            "velocity": 0.889763779527559
          },
          {
            "duration": 0.45104166666664014,
            "durationTicks": 433,
            "midi": 55,
            "name": "G3",
            "ticks": 417120,
            "time": 434.5,
            "velocity": 0.8031496062992126
          },
          {
            "duration": 0.45104166666664014,
            "durationTicks": 433,
            "midi": 67,
            "name": "G4",
            "ticks": 417120,
            "time": 434.5,
            "velocity": 0.8031496062992126
          },
          {
            "duration": 1,
            "durationTicks": 960,
            "midi": 55,
            "name": "G3",
            "ticks": 420960,
            "time": 438.5,
            "velocity": 0.6929133858267716
          },
          {
            "duration": 15.726041666666674,
            "durationTicks": 15097,
            "midi": 55,
            "name": "G3",
            "ticks": 421920,
            "time": 439.5,
            "velocity": 0.5748031496062992
          },
          {
            "duration": 0.45104166666664014,
            "durationTicks": 433,
            "midi": 65,
            "name": "F4",
            "ticks": 456000,
            "time": 475,
            "velocity": 0.5118110236220472
          },
          {
            "duration": 0.45104166666664014,
            "durationTicks": 433,
            "midi": 65,
            "name": "F4",
            "ticks": 456960,
            "time": 476,
            "velocity": 0.49606299212598426
          },
          {
            "duration": 0.45104166666664014,
            "durationTicks": 433,
            "midi": 65,
            "name": "F4",
            "ticks": 457920,
            "time": 477,
            "velocity": 0.5826771653543307
          },
          {
            "duration": 0.45104166666664014,
            "durationTicks": 433,
            "midi": 65,
            "name": "F4",
            "ticks": 458880,
            "time": 478,
            "velocity": 0.7007874015748031
          },
          {
            "duration": 1.4510416666666401,
            "durationTicks": 1393,
            "midi": 67,
            "name": "G4",
            "ticks": 459360,
            "time": 478.5,
            "velocity": 0.9133858267716536
          },
          {
            "duration": 0.45104166666664014,
            "durationTicks": 433,
            "midi": 67,
            "name": "G4",
            "ticks": 460800,
            "time": 480,
            "velocity": 0.9133858267716536
          },
          {
            "duration": 0.45104166666664014,
            "durationTicks": 433,
            "midi": 67,
            "name": "G4",
            "ticks": 461280,
            "time": 480.5,
            "velocity": 0.8976377952755905
          },
          {
            "duration": 0.45104166666664014,
            "durationTicks": 433,
            "midi": 65,
            "name": "F4",
            "ticks": 462240,
            "time": 481.5,
            "velocity": 0.8110236220472441
          },
          {
            "duration": 0.45104166666664014,
            "durationTicks": 433,
            "midi": 67,
            "name": "G4",
            "ticks": 462240,
            "time": 481.5,
            "velocity": 0.8110236220472441
          },
          {
            "duration": 0.45104166666664014,
            "durationTicks": 433,
            "midi": 67,
            "name": "G4",
            "ticks": 463200,
            "time": 482.5,
            "velocity": 0.8188976377952756
          },
          {
            "duration": 0.45104166666664014,
            "durationTicks": 433,
            "midi": 65,
            "name": "F4",
            "ticks": 464160,
            "time": 483.5,
            "velocity": 0.8188976377952756
          },
          {
            "duration": 0.45104166666664014,
            "durationTicks": 433,
            "midi": 67,
            "name": "G4",
            "ticks": 465120,
            "time": 484.5,
            "velocity": 0.7874015748031497
          },
          {
            "duration": 0.45104166666664014,
            "durationTicks": 433,
            "midi": 67,
            "name": "G4",
            "ticks": 466080,
            "time": 485.5,
            "velocity": 0.8346456692913385
          },
          {
            "duration": 1.8999999999999773,
            "durationTicks": 1824,
            "midi": 55,
            "name": "G3",
            "ticks": 467040,
            "time": 486.5,
            "velocity": 0.8267716535433071
          },
          {
            "duration": 1.8999999999999773,
            "durationTicks": 1824,
            "midi": 67,
            "name": "G4",
            "ticks": 467040,
            "time": 486.5,
            "velocity": 0.8267716535433071
          },
          {
            "duration": 0.45104166666664014,
            "durationTicks": 433,
            "midi": 55,
            "name": "G3",
            "ticks": 468960,
            "time": 488.5,
            "velocity": 0.8740157480314961
          },
          {
            "duration": 0.45104166666664014,
            "durationTicks": 433,
            "midi": 67,
            "name": "G4",
            "ticks": 468960,
            "time": 488.5,
            "velocity": 0.8740157480314961
          },
          {
            "duration": 0.45104166666664014,
            "durationTicks": 433,
            "midi": 55,
            "name": "G3",
            "ticks": 469440,
            "time": 489,
            "velocity": 0.905511811023622
          },
          {
            "duration": 0.45104166666664014,
            "durationTicks": 433,
            "midi": 67,
            "name": "G4",
            "ticks": 469440,
            "time": 489,
            "velocity": 0.905511811023622
          },
          {
            "duration": 0.45104166666664014,
            "durationTicks": 433,
            "midi": 55,
            "name": "G3",
            "ticks": 470400,
            "time": 490,
            "velocity": 0.8031496062992126
          },
          {
            "duration": 0.45104166666664014,
            "durationTicks": 433,
            "midi": 67,
            "name": "G4",
            "ticks": 470400,
            "time": 490,
            "velocity": 0.8031496062992126
          },
          {
            "duration": 0.45104166666664014,
            "durationTicks": 433,
            "midi": 55,
            "name": "G3",
            "ticks": 471360,
            "time": 491,
            "velocity": 0.7874015748031497
          },
          {
            "duration": 0.45104166666664014,
            "durationTicks": 433,
            "midi": 67,
            "name": "G4",
            "ticks": 471360,
            "time": 491,
            "velocity": 0.7874015748031497
          },
          {
            "duration": 0.45104166666664014,
            "durationTicks": 433,
            "midi": 65,
            "name": "F4",
            "ticks": 472320,
            "time": 492,
            "velocity": 0.7952755905511811
          },
          {
            "duration": 0.45104166666664014,
            "durationTicks": 433,
            "midi": 67,
            "name": "G4",
            "ticks": 473280,
            "time": 493,
            "velocity": 0.8031496062992126
          },
          {
            "duration": 0.45104166666664014,
            "durationTicks": 433,
            "midi": 67,
            "name": "G4",
            "ticks": 474240,
            "time": 494,
            "velocity": 0.8031496062992126
          },
          {
            "duration": 0.45104166666664014,
            "durationTicks": 433,
            "midi": 67,
            "name": "G4",
            "ticks": 474720,
            "time": 494.5,
            "velocity": 0.84251968503937
          },
          {
            "duration": 0.22604166666667425,
            "durationTicks": 217,
            "midi": 67,
            "name": "G4",
            "ticks": 477840,
            "time": 497.75,
            "velocity": 0.7716535433070866
          },
          {
            "duration": 0.22604166666667425,
            "durationTicks": 217,
            "midi": 67,
            "name": "G4",
            "ticks": 478080,
            "time": 498,
            "velocity": 0.8503937007874016
          },
          {
            "duration": 0.22604166666667425,
            "durationTicks": 217,
            "midi": 67,
            "name": "G4",
            "ticks": 478320,
            "time": 498.25,
            "velocity": 0.8740157480314961
          },
          {
            "duration": 0.45104166666664014,
            "durationTicks": 433,
            "midi": 67,
            "name": "G4",
            "ticks": 478560,
            "time": 498.5,
            "velocity": 0.8740157480314961
          },
          {
            "duration": 0.22604166666667425,
            "durationTicks": 217,
            "midi": 67,
            "name": "G4",
            "ticks": 481680,
            "time": 501.75,
            "velocity": 0.7795275590551181
          },
          {
            "duration": 0.22604166666667425,
            "durationTicks": 217,
            "midi": 67,
            "name": "G4",
            "ticks": 481920,
            "time": 502,
            "velocity": 0.905511811023622
          },
          {
            "duration": 0.22604166666667425,
            "durationTicks": 217,
            "midi": 67,
            "name": "G4",
            "ticks": 482160,
            "time": 502.25,
            "velocity": 0.9133858267716536
          },
          {
            "duration": 0.45104166666664014,
            "durationTicks": 433,
            "midi": 67,
            "name": "G4",
            "ticks": 482400,
            "time": 502.5,
            "velocity": 0.905511811023622
          },
          {
            "duration": 0.22604166666667425,
            "durationTicks": 217,
            "midi": 55,
            "name": "G3",
            "ticks": 483600,
            "time": 503.75,
            "velocity": 0.7795275590551181
          },
          {
            "duration": 0.22604166666667425,
            "durationTicks": 217,
            "midi": 67,
            "name": "G4",
            "ticks": 483600,
            "time": 503.75,
            "velocity": 0.7795275590551181
          },
          {
            "duration": 0.22604166666667425,
            "durationTicks": 217,
            "midi": 55,
            "name": "G3",
            "ticks": 483840,
            "time": 504,
            "velocity": 0.905511811023622
          },
          {
            "duration": 0.22604166666667425,
            "durationTicks": 217,
            "midi": 67,
            "name": "G4",
            "ticks": 483840,
            "time": 504,
            "velocity": 0.905511811023622
          },
          {
            "duration": 0.22604166666667425,
            "durationTicks": 217,
            "midi": 55,
            "name": "G3",
            "ticks": 484080,
            "time": 504.25,
            "velocity": 0.8818897637795275
          },
          {
            "duration": 0.22604166666667425,
            "durationTicks": 217,
            "midi": 67,
            "name": "G4",
            "ticks": 484080,
            "time": 504.25,
            "velocity": 0.8818897637795275
          },
          {
            "duration": 0.45104166666664014,
            "durationTicks": 433,
            "midi": 55,
            "name": "G3",
            "ticks": 484320,
            "time": 504.5,
            "velocity": 0.9133858267716536
          },
          {
            "duration": 0.45104166666664014,
            "durationTicks": 433,
            "midi": 67,
            "name": "G4",
            "ticks": 484320,
            "time": 504.5,
            "velocity": 0.9133858267716536
          },
          {
            "duration": 0.22604166666667425,
            "durationTicks": 217,
            "midi": 55,
            "name": "G3",
            "ticks": 485520,
            "time": 505.75,
            "velocity": 0.8031496062992126
          },
          {
            "duration": 0.22604166666667425,
            "durationTicks": 217,
            "midi": 67,
            "name": "G4",
            "ticks": 485520,
            "time": 505.75,
            "velocity": 0.8031496062992126
          },
          {
            "duration": 0.22604166666667425,
            "durationTicks": 217,
            "midi": 55,
            "name": "G3",
            "ticks": 485760,
            "time": 506,
            "velocity": 0.8661417322834646
          },
          {
            "duration": 0.22604166666667425,
            "durationTicks": 217,
            "midi": 67,
            "name": "G4",
            "ticks": 485760,
            "time": 506,
            "velocity": 0.8661417322834646
          },
          {
            "duration": 0.22604166666667425,
            "durationTicks": 217,
            "midi": 55,
            "name": "G3",
            "ticks": 486000,
            "time": 506.25,
            "velocity": 0.8976377952755905
          },
          {
            "duration": 0.22604166666667425,
            "durationTicks": 217,
            "midi": 67,
            "name": "G4",
            "ticks": 486000,
            "time": 506.25,
            "velocity": 0.8976377952755905
          },
          {
            "duration": 0.45104166666664014,
            "durationTicks": 433,
            "midi": 67,
            "name": "G4",
            "ticks": 486240,
            "time": 506.5,
            "velocity": 0.905511811023622
          },
          {
            "duration": 0.45104166666664014,
            "durationTicks": 433,
            "midi": 65,
            "name": "F4",
            "ticks": 488160,
            "time": 508.5,
            "velocity": 0.7952755905511811
          },
          {
            "duration": 0.45104166666664014,
            "durationTicks": 433,
            "midi": 67,
            "name": "G4",
            "ticks": 490080,
            "time": 510.5,
            "velocity": 0.8031496062992126
          },
          {
            "duration": 0.451041666666697,
            "durationTicks": 433,
            "midi": 68,
            "name": "G#4",
            "ticks": 492000,
            "time": 512.5,
            "velocity": 0.7795275590551181
          },
          {
            "duration": 3.8999999999999773,
            "durationTicks": 3744,
            "midi": 65,
            "name": "F4",
            "ticks": 493920,
            "time": 514.5,
            "velocity": 0.8031496062992126
          },
          {
            "duration": 3.8999999999999773,
            "durationTicks": 3744,
            "midi": 68,
            "name": "G#4",
            "ticks": 493920,
            "time": 514.5,
            "velocity": 0.8031496062992126
          },
          {
            "duration": 0.451041666666697,
            "durationTicks": 433,
            "midi": 65,
            "name": "F4",
            "ticks": 497760,
            "time": 518.5,
            "velocity": 0.889763779527559
          },
          {
            "duration": 0.451041666666697,
            "durationTicks": 433,
            "midi": 68,
            "name": "G#4",
            "ticks": 497760,
            "time": 518.5,
            "velocity": 0.889763779527559
          },
          {
            "duration": 0.22604166666667425,
            "durationTicks": 217,
            "midi": 65,
            "name": "F4",
            "ticks": 498960,
            "time": 519.75,
            "velocity": 0.4566929133858268
          },
          {
            "duration": 0.22604166666667425,
            "durationTicks": 217,
            "midi": 65,
            "name": "F4",
            "ticks": 499200,
            "time": 520,
            "velocity": 0.4881889763779528
          },
          {
            "duration": 0.22604166666667425,
            "durationTicks": 217,
            "midi": 65,
            "name": "F4",
            "ticks": 499440,
            "time": 520.25,
            "velocity": 0.49606299212598426
          },
          {
            "duration": 0.451041666666697,
            "durationTicks": 433,
            "midi": 68,
            "name": "G#4",
            "ticks": 499680,
            "time": 520.5,
            "velocity": 0.5433070866141733
          },
          {
            "duration": 0.22604166666667425,
            "durationTicks": 217,
            "midi": 63,
            "name": "D#4",
            "ticks": 501840,
            "time": 522.75,
            "velocity": 0.8188976377952756
          },
          {
            "duration": 0.22604166666667425,
            "durationTicks": 217,
            "midi": 63,
            "name": "D#4",
            "ticks": 502080,
            "time": 523,
            "velocity": 0.8740157480314961
          },
          {
            "duration": 0.22604166666667425,
            "durationTicks": 217,
            "midi": 63,
            "name": "D#4",
            "ticks": 502320,
            "time": 523.25,
            "velocity": 0.8740157480314961
          },
          {
            "duration": 3.8999999999999773,
            "durationTicks": 3744,
            "midi": 63,
            "name": "D#4",
            "ticks": 502560,
            "time": 523.5,
            "velocity": 0.9133858267716536
          },
          {
            "duration": 0.451041666666697,
            "durationTicks": 433,
            "midi": 63,
            "name": "D#4",
            "ticks": 506400,
            "time": 527.5,
            "velocity": 0.8661417322834646
          },
          {
            "duration": 1.8999999999999773,
            "durationTicks": 1824,
            "midi": 65,
            "name": "F4",
            "ticks": 512160,
            "time": 533.5,
            "velocity": 0.5354330708661418
          },
          {
            "duration": 1.451041666666697,
            "durationTicks": 1393,
            "midi": 68,
            "name": "G#4",
            "ticks": 512160,
            "time": 533.5,
            "velocity": 0.6850393700787402
          },
          {
            "duration": 0.451041666666697,
            "durationTicks": 433,
            "midi": 67,
            "name": "G4",
            "ticks": 513600,
            "time": 535,
            "velocity": 0.7322834645669292
          },
          {
            "duration": 1.8999999999999773,
            "durationTicks": 1824,
            "midi": 65,
            "name": "F4",
            "ticks": 516000,
            "time": 537.5,
            "velocity": 0.5905511811023622
          },
          {
            "duration": 1.451041666666697,
            "durationTicks": 1393,
            "midi": 68,
            "name": "G#4",
            "ticks": 516000,
            "time": 537.5,
            "velocity": 0.8110236220472441
          },
          {
            "duration": 0.451041666666697,
            "durationTicks": 433,
            "midi": 67,
            "name": "G4",
            "ticks": 517440,
            "time": 539,
            "velocity": 0.7637795275590551
          },
          {
            "duration": 0.451041666666697,
            "durationTicks": 433,
            "midi": 68,
            "name": "G#4",
            "ticks": 523680,
            "time": 545.5,
            "velocity": 0.8031496062992126
          },
          {
            "duration": 0.451041666666697,
            "durationTicks": 433,
            "midi": 70,
            "name": "A#4",
            "ticks": 524160,
            "time": 546,
            "velocity": 0.8188976377952756
          },
          {
            "duration": 0.451041666666697,
            "durationTicks": 433,
            "midi": 67,
            "name": "G4",
            "ticks": 524640,
            "time": 546.5,
            "velocity": 0.7086614173228346
          },
          {
            "duration": 0.451041666666697,
            "durationTicks": 433,
            "midi": 68,
            "name": "G#4",
            "ticks": 525120,
            "time": 547,
            "velocity": 0.8110236220472441
          },
          {
            "duration": 0.451041666666697,
            "durationTicks": 433,
            "midi": 65,
            "name": "F4",
            "ticks": 525600,
            "time": 547.5,
            "velocity": 0.6771653543307087
          },
          {
            "duration": 0.451041666666697,
            "durationTicks": 433,
            "midi": 63,
            "name": "D#4",
            "ticks": 527040,
            "time": 549,
            "velocity": 0.7007874015748031
          },
          {
            "duration": 0.451041666666697,
            "durationTicks": 433,
            "midi": 65,
            "name": "F4",
            "ticks": 527520,
            "time": 549.5,
            "velocity": 0.7952755905511811
          },
          {
            "duration": 0.451041666666697,
            "durationTicks": 433,
            "midi": 67,
            "name": "G4",
            "ticks": 528960,
            "time": 551,
            "velocity": 0.6850393700787402
          },
          {
            "duration": 0.451041666666697,
            "durationTicks": 433,
            "midi": 68,
            "name": "G#4",
            "ticks": 529440,
            "time": 551.5,
            "velocity": 0.8582677165354331
          },
          {
            "duration": 0.451041666666697,
            "durationTicks": 433,
            "midi": 67,
            "name": "G4",
            "ticks": 529920,
            "time": 552,
            "velocity": 0.7401574803149606
          },
          {
            "duration": 0.451041666666697,
            "durationTicks": 433,
            "midi": 68,
            "name": "G#4",
            "ticks": 530400,
            "time": 552.5,
            "velocity": 0.8031496062992126
          },
          {
            "duration": 0.451041666666697,
            "durationTicks": 433,
            "midi": 67,
            "name": "G4",
            "ticks": 530880,
            "time": 553,
            "velocity": 0.7244094488188977
          },
          {
            "duration": 0.451041666666697,
            "durationTicks": 433,
            "midi": 67,
            "name": "G4",
            "ticks": 531840,
            "time": 554,
            "velocity": 0.6929133858267716
          },
          {
            "duration": 0.451041666666697,
            "durationTicks": 433,
            "midi": 65,
            "name": "F4",
            "ticks": 532320,
            "time": 554.5,
            "velocity": 0.7716535433070866
          },
          {
            "duration": 0.451041666666697,
            "durationTicks": 433,
            "midi": 67,
            "name": "G4",
            "ticks": 532320,
            "time": 554.5,
            "velocity": 0.7716535433070866
          },
          {
            "duration": 0.451041666666697,
            "durationTicks": 433,
            "midi": 65,
            "name": "F4",
            "ticks": 532800,
            "time": 555,
            "velocity": 0.7716535433070866
          },
          {
            "duration": 0.451041666666697,
            "durationTicks": 433,
            "midi": 67,
            "name": "G4",
            "ticks": 532800,
            "time": 555,
            "velocity": 0.7716535433070866
          },
          {
            "duration": 1.8999999999999773,
            "durationTicks": 1824,
            "midi": 63,
            "name": "D#4",
            "ticks": 533280,
            "time": 555.5,
            "velocity": 0.7007874015748031
          },
          {
            "duration": 1.8999999999999773,
            "durationTicks": 1824,
            "midi": 65,
            "name": "F4",
            "ticks": 535200,
            "time": 557.5,
            "velocity": 0.8031496062992126
          },
          {
            "duration": 1.8999999999999773,
            "durationTicks": 1824,
            "midi": 67,
            "name": "G4",
            "ticks": 537120,
            "time": 559.5,
            "velocity": 0.8267716535433071
          },
          {
            "duration": 0.8999999999999773,
            "durationTicks": 864,
            "midi": 68,
            "name": "G#4",
            "ticks": 539040,
            "time": 561.5,
            "velocity": 0.8110236220472441
          },
          {
            "duration": 0.451041666666697,
            "durationTicks": 433,
            "midi": 65,
            "name": "F4",
            "ticks": 540000,
            "time": 562.5,
            "velocity": 0.6771653543307087
          },
          {
            "duration": 0.451041666666697,
            "durationTicks": 433,
            "midi": 65,
            "name": "F4",
            "ticks": 540480,
            "time": 563,
            "velocity": 0.7480314960629921
          },
          {
            "duration": 0.8999999999999773,
            "durationTicks": 864,
            "midi": 65,
            "name": "F4",
            "ticks": 540960,
            "time": 563.5,
            "velocity": 0.7559055118110236
          },
          {
            "duration": 0.8999999999999773,
            "durationTicks": 864,
            "midi": 67,
            "name": "G4",
            "ticks": 541920,
            "time": 564.5,
            "velocity": 0.8031496062992126
          },
          {
            "duration": 0.22500000000002274,
            "durationTicks": 216,
            "midi": 67,
            "name": "G4",
            "ticks": 542880,
            "time": 565.5,
            "velocity": 0.7874015748031497
          },
          {
            "duration": 0.22500000000002274,
            "durationTicks": 216,
            "midi": 68,
            "name": "G#4",
            "ticks": 543840,
            "time": 566.5,
            "velocity": 0.7165354330708661
          },
          {
            "duration": 0.22500000000002274,
            "durationTicks": 216,
            "midi": 65,
            "name": "F4",
            "ticks": 544800,
            "time": 567.5,
            "velocity": 0.6614173228346457
          },
          {
            "duration": 0.22500000000002274,
            "durationTicks": 216,
            "midi": 68,
            "name": "G#4",
            "ticks": 544800,
            "time": 567.5,
            "velocity": 0.6614173228346457
          },
          {
            "duration": 0.22500000000002274,
            "durationTicks": 216,
            "midi": 65,
            "name": "F4",
            "ticks": 545760,
            "time": 568.5,
            "velocity": 0.6929133858267716
          },
          {
            "duration": 0.22500000000002274,
            "durationTicks": 216,
            "midi": 68,
            "name": "G#4",
            "ticks": 545760,
            "time": 568.5,
            "velocity": 0.6929133858267716
          },
          {
            "duration": 0.22500000000002274,
            "durationTicks": 216,
            "midi": 67,
            "name": "G4",
            "ticks": 546720,
            "time": 569.5,
            "velocity": 0.7007874015748031
          },
          {
            "duration": 0.22500000000002274,
            "durationTicks": 216,
            "midi": 67,
            "name": "G4",
            "ticks": 547680,
            "time": 570.5,
            "velocity": 0.7165354330708661
          },
          {
            "duration": 0.451041666666697,
            "durationTicks": 433,
            "midi": 67,
            "name": "G4",
            "ticks": 557280,
            "time": 580.5,
            "velocity": 0.6929133858267716
          },
          {
            "duration": 0.451041666666697,
            "durationTicks": 433,
            "midi": 67,
            "name": "G4",
            "ticks": 557760,
            "time": 581,
            "velocity": 0.7637795275590551
          },
          {
            "duration": 0.8999999999999773,
            "durationTicks": 864,
            "midi": 67,
            "name": "G4",
            "ticks": 558240,
            "time": 581.5,
            "velocity": 0.7874015748031497
          },
          {
            "duration": 0.451041666666697,
            "durationTicks": 433,
            "midi": 67,
            "name": "G4",
            "ticks": 561120,
            "time": 584.5,
            "velocity": 0.7480314960629921
          },
          {
            "duration": 0.451041666666697,
            "durationTicks": 433,
            "midi": 67,
            "name": "G4",
            "ticks": 561600,
            "time": 585,
            "velocity": 0.7874015748031497
          },
          {
            "duration": 0.8999999999999773,
            "durationTicks": 864,
            "midi": 67,
            "name": "G4",
            "ticks": 562080,
            "time": 585.5,
            "velocity": 0.7952755905511811
          },
          {
            "duration": 0.451041666666697,
            "durationTicks": 433,
            "midi": 63,
            "name": "D#4",
            "ticks": 563040,
            "time": 586.5,
            "velocity": 0.6929133858267716
          },
          {
            "duration": 0.451041666666697,
            "durationTicks": 433,
            "midi": 63,
            "name": "D#4",
            "ticks": 563520,
            "time": 587,
            "velocity": 0.7401574803149606
          },
          {
            "duration": 0.451041666666697,
            "durationTicks": 433,
            "midi": 65,
            "name": "F4",
            "ticks": 564000,
            "time": 587.5,
            "velocity": 0.8188976377952756
          },
          {
            "duration": 0.451041666666697,
            "durationTicks": 433,
            "midi": 51,
            "name": "D#3",
            "ticks": 564480,
            "time": 588,
            "velocity": 0.4645669291338583
          },
          {
            "duration": 0.451041666666697,
            "durationTicks": 433,
            "midi": 63,
            "name": "D#4",
            "ticks": 564480,
            "time": 588,
            "velocity": 0.7322834645669292
          },
          {
            "duration": 0.5093749999999773,
            "durationTicks": 489,
            "midi": 65,
            "name": "F4",
            "ticks": 565920,
            "time": 589.5,
            "velocity": 1
          },
          {
            "duration": 0.5093749999999773,
            "durationTicks": 489,
            "midi": 68,
            "name": "G#4",
            "ticks": 565920,
            "time": 589.5,
            "velocity": 1
          },
          {
            "duration": 0.47500000000002274,
            "durationTicks": 456,
            "midi": 63,
            "name": "D#4",
            "ticks": 566400,
            "time": 590,
            "velocity": 0.984251968503937
          },
          {
            "duration": 0.47500000000002274,
            "durationTicks": 456,
            "midi": 67,
            "name": "G4",
            "ticks": 566400,
            "time": 590,
            "velocity": 0.984251968503937
          },
          {
            "duration": 0.5093749999999773,
            "durationTicks": 489,
            "midi": 65,
            "name": "F4",
            "ticks": 566880,
            "time": 590.5,
            "velocity": 0.8188976377952756
          },
          {
            "duration": 0.5093749999999773,
            "durationTicks": 489,
            "midi": 68,
            "name": "G#4",
            "ticks": 566880,
            "time": 590.5,
            "velocity": 0.8188976377952756
          },
          {
            "duration": 0.47500000000002274,
            "durationTicks": 456,
            "midi": 63,
            "name": "D#4",
            "ticks": 567360,
            "time": 591,
            "velocity": 0.8267716535433071
          },
          {
            "duration": 0.47500000000002274,
            "durationTicks": 456,
            "midi": 67,
            "name": "G4",
            "ticks": 567360,
            "time": 591,
            "velocity": 0.8267716535433071
          },
          {
            "duration": 0.451041666666697,
            "durationTicks": 433,
            "midi": 63,
            "name": "D#4",
            "ticks": 568320,
            "time": 592,
            "velocity": 0.7086614173228346
          },
          {
            "duration": 0.451041666666697,
            "durationTicks": 433,
            "midi": 67,
            "name": "G4",
            "ticks": 569280,
            "time": 593,
            "velocity": 0.7322834645669292
          },
          {
            "duration": 0.5093749999999773,
            "durationTicks": 489,
            "midi": 65,
            "name": "F4",
            "ticks": 571680,
            "time": 595.5,
            "velocity": 0.7637795275590551
          },
          {
            "duration": 0.5093749999999773,
            "durationTicks": 489,
            "midi": 68,
            "name": "G#4",
            "ticks": 571680,
            "time": 595.5,
            "velocity": 0.7637795275590551
          },
          {
            "duration": 0.47500000000002274,
            "durationTicks": 456,
            "midi": 63,
            "name": "D#4",
            "ticks": 572160,
            "time": 596,
            "velocity": 0.7559055118110236
          },
          {
            "duration": 0.47500000000002274,
            "durationTicks": 456,
            "midi": 67,
            "name": "G4",
            "ticks": 572160,
            "time": 596,
            "velocity": 0.7559055118110236
          },
          {
            "duration": 0.5093749999999773,
            "durationTicks": 489,
            "midi": 65,
            "name": "F4",
            "ticks": 572640,
            "time": 596.5,
            "velocity": 0.7795275590551181
          },
          {
            "duration": 0.5093749999999773,
            "durationTicks": 489,
            "midi": 68,
            "name": "G#4",
            "ticks": 572640,
            "time": 596.5,
            "velocity": 0.7795275590551181
          },
          {
            "duration": 0.47500000000002274,
            "durationTicks": 456,
            "midi": 63,
            "name": "D#4",
            "ticks": 573120,
            "time": 597,
            "velocity": 0.7480314960629921
          },
          {
            "duration": 0.47500000000002274,
            "durationTicks": 456,
            "midi": 67,
            "name": "G4",
            "ticks": 573120,
            "time": 597,
            "velocity": 0.7480314960629921
          },
          {
            "duration": 0.5093749999999773,
            "durationTicks": 489,
            "midi": 65,
            "name": "F4",
            "ticks": 573600,
            "time": 597.5,
            "velocity": 0.8346456692913385
          },
          {
            "duration": 0.5093749999999773,
            "durationTicks": 489,
            "midi": 68,
            "name": "G#4",
            "ticks": 573600,
            "time": 597.5,
            "velocity": 0.8346456692913385
          },
          {
            "duration": 0.47500000000002274,
            "durationTicks": 456,
            "midi": 63,
            "name": "D#4",
            "ticks": 574080,
            "time": 598,
            "velocity": 0.8031496062992126
          },
          {
            "duration": 0.47500000000002274,
            "durationTicks": 456,
            "midi": 67,
            "name": "G4",
            "ticks": 574080,
            "time": 598,
            "velocity": 0.8031496062992126
          },
          {
            "duration": 0.5093749999999773,
            "durationTicks": 489,
            "midi": 65,
            "name": "F4",
            "ticks": 574560,
            "time": 598.5,
            "velocity": 0.7559055118110236
          },
          {
            "duration": 0.5093749999999773,
            "durationTicks": 489,
            "midi": 68,
            "name": "G#4",
            "ticks": 574560,
            "time": 598.5,
            "velocity": 0.7559055118110236
          },
          {
            "duration": 0.47500000000002274,
            "durationTicks": 456,
            "midi": 63,
            "name": "D#4",
            "ticks": 575040,
            "time": 599,
            "velocity": 0.7086614173228346
          },
          {
            "duration": 0.47500000000002274,
            "durationTicks": 456,
            "midi": 67,
            "name": "G4",
            "ticks": 575040,
            "time": 599,
            "velocity": 0.7086614173228346
          },
          {
            "duration": 0.451041666666697,
            "durationTicks": 433,
            "midi": 67,
            "name": "G4",
            "ticks": 576000,
            "time": 600,
            "velocity": 0.6850393700787402
          },
          {
            "duration": 0.451041666666697,
            "durationTicks": 433,
            "midi": 67,
            "name": "G4",
            "ticks": 576960,
            "time": 601,
            "velocity": 0.6692913385826772
          },
          {
            "duration": 0.451041666666697,
            "durationTicks": 433,
            "midi": 63,
            "name": "D#4",
            "ticks": 577440,
            "time": 601.5,
            "velocity": 0.49606299212598426
          },
          {
            "duration": 0.451041666666697,
            "durationTicks": 433,
            "midi": 67,
            "name": "G4",
            "ticks": 577440,
            "time": 601.5,
            "velocity": 0.7086614173228346
          },
          {
            "duration": 0.451041666666697,
            "durationTicks": 433,
            "midi": 65,
            "name": "F4",
            "ticks": 581760,
            "time": 606,
            "velocity": 0.7007874015748031
          },
          {
            "duration": 0.451041666666697,
            "durationTicks": 433,
            "midi": 67,
            "name": "G4",
            "ticks": 581760,
            "time": 606,
            "velocity": 0.7007874015748031
          },
          {
            "duration": 0.451041666666697,
            "durationTicks": 433,
            "midi": 63,
            "name": "D#4",
            "ticks": 582240,
            "time": 606.5,
            "velocity": 0.7716535433070866
          },
          {
            "duration": 0.451041666666697,
            "durationTicks": 433,
            "midi": 67,
            "name": "G4",
            "ticks": 582240,
            "time": 606.5,
            "velocity": 0.7716535433070866
          },
          {
            "duration": 0.451041666666697,
            "durationTicks": 433,
            "midi": 65,
            "name": "F4",
            "ticks": 582720,
            "time": 607,
            "velocity": 0.7480314960629921
          },
          {
            "duration": 0.451041666666697,
            "durationTicks": 433,
            "midi": 67,
            "name": "G4",
            "ticks": 582720,
            "time": 607,
            "velocity": 0.7480314960629921
          },
          {
            "duration": 0.451041666666697,
            "durationTicks": 433,
            "midi": 63,
            "name": "D#4",
            "ticks": 583200,
            "time": 607.5,
            "velocity": 0.6850393700787402
          },
          {
            "duration": 0.22604166666667425,
            "durationTicks": 217,
            "midi": 67,
            "name": "G4",
            "ticks": 584400,
            "time": 608.75,
            "velocity": 0.7165354330708661
          },
          {
            "duration": 0.22604166666667425,
            "durationTicks": 217,
            "midi": 67,
            "name": "G4",
            "ticks": 584640,
            "time": 609,
            "velocity": 0.7716535433070866
          },
          {
            "duration": 0.22604166666667425,
            "durationTicks": 217,
            "midi": 67,
            "name": "G4",
            "ticks": 584880,
            "time": 609.25,
            "velocity": 0.7559055118110236
          },
          {
            "duration": 0.22604166666667425,
            "durationTicks": 217,
            "midi": 67,
            "name": "G4",
            "ticks": 585120,
            "time": 609.5,
            "velocity": 0.7874015748031497
          },
          {
            "duration": 0.22604166666667425,
            "durationTicks": 217,
            "midi": 67,
            "name": "G4",
            "ticks": 585360,
            "time": 609.75,
            "velocity": 0.7480314960629921
          },
          {
            "duration": 0.22604166666667425,
            "durationTicks": 217,
            "midi": 67,
            "name": "G4",
            "ticks": 585600,
            "time": 610,
            "velocity": 0.7795275590551181
          },
          {
            "duration": 0.22604166666667425,
            "durationTicks": 217,
            "midi": 67,
            "name": "G4",
            "ticks": 585840,
            "time": 610.25,
            "velocity": 0.7637795275590551
          },
          {
            "duration": 0.22604166666667425,
            "durationTicks": 217,
            "midi": 67,
            "name": "G4",
            "ticks": 586080,
            "time": 610.5,
            "velocity": 0.7716535433070866
          },
          {
            "duration": 0.22604166666667425,
            "durationTicks": 217,
            "midi": 67,
            "name": "G4",
            "ticks": 586320,
            "time": 610.75,
            "velocity": 0.7480314960629921
          },
          {
            "duration": 0.22604166666667425,
            "durationTicks": 217,
            "midi": 67,
            "name": "G4",
            "ticks": 586560,
            "time": 611,
            "velocity": 0.7559055118110236
          },
          {
            "duration": 0.22604166666667425,
            "durationTicks": 217,
            "midi": 67,
            "name": "G4",
            "ticks": 586800,
            "time": 611.25,
            "velocity": 0.7716535433070866
          },
          {
            "duration": 1.5,
            "durationTicks": 1440,
            "midi": 63,
            "name": "D#4",
            "ticks": 587040,
            "time": 611.5,
            "velocity": 0.7716535433070866
          },
          {
            "duration": 0.22604166666667425,
            "durationTicks": 217,
            "midi": 67,
            "name": "G4",
            "ticks": 588720,
            "time": 613.25,
            "velocity": 0.8346456692913385
          },
          {
            "duration": 0.22604166666667425,
            "durationTicks": 217,
            "midi": 67,
            "name": "G4",
            "ticks": 588960,
            "time": 613.5,
            "velocity": 0.889763779527559
          },
          {
            "duration": 0.22604166666667425,
            "durationTicks": 217,
            "midi": 67,
            "name": "G4",
            "ticks": 589200,
            "time": 613.75,
            "velocity": 0.905511811023622
          },
          {
            "duration": 2.5,
            "durationTicks": 2400,
            "midi": 67,
            "name": "G4",
            "ticks": 589440,
            "time": 614,
            "velocity": 0.905511811023622
          },
          {
            "duration": 0.22604166666667425,
            "durationTicks": 217,
            "midi": 67,
            "name": "G4",
            "ticks": 599760,
            "time": 624.75,
            "velocity": 0.7952755905511811
          },
          {
            "duration": 0.22604166666667425,
            "durationTicks": 217,
            "midi": 67,
            "name": "G4",
            "ticks": 600000,
            "time": 625,
            "velocity": 0.8661417322834646
          },
          {
            "duration": 0.22604166666667425,
            "durationTicks": 217,
            "midi": 67,
            "name": "G4",
            "ticks": 600240,
            "time": 625.25,
            "velocity": 0.8818897637795275
          },
          {
            "duration": 0.451041666666697,
            "durationTicks": 433,
            "midi": 67,
            "name": "G4",
            "ticks": 600480,
            "time": 625.5,
            "velocity": 0.905511811023622
          },
          {
            "duration": 0.22604166666667425,
            "durationTicks": 217,
            "midi": 67,
            "name": "G4",
            "ticks": 601680,
            "time": 626.75,
            "velocity": 0.8267716535433071
          },
          {
            "duration": 0.22604166666667425,
            "durationTicks": 217,
            "midi": 67,
            "name": "G4",
            "ticks": 601920,
            "time": 627,
            "velocity": 0.889763779527559
          },
          {
            "duration": 0.22604166666667425,
            "durationTicks": 217,
            "midi": 67,
            "name": "G4",
            "ticks": 602160,
            "time": 627.25,
            "velocity": 0.8661417322834646
          },
          {
            "duration": 0.451041666666697,
            "durationTicks": 433,
            "midi": 67,
            "name": "G4",
            "ticks": 602400,
            "time": 627.5,
            "velocity": 0.905511811023622
          },
          {
            "duration": 0.22604166666667425,
            "durationTicks": 217,
            "midi": 67,
            "name": "G4",
            "ticks": 603600,
            "time": 628.75,
            "velocity": 0.7637795275590551
          },
          {
            "duration": 0.22604166666667425,
            "durationTicks": 217,
            "midi": 67,
            "name": "G4",
            "ticks": 603840,
            "time": 629,
            "velocity": 0.8976377952755905
          },
          {
            "duration": 0.22604166666667425,
            "durationTicks": 217,
            "midi": 67,
            "name": "G4",
            "ticks": 604080,
            "time": 629.25,
            "velocity": 0.8740157480314961
          },
          {
            "duration": 0.451041666666697,
            "durationTicks": 433,
            "midi": 67,
            "name": "G4",
            "ticks": 604320,
            "time": 629.5,
            "velocity": 0.8818897637795275
          },
          {
            "duration": 0.451041666666697,
            "durationTicks": 433,
            "midi": 67,
            "name": "G4",
            "ticks": 604800,
            "time": 630,
            "velocity": 0.8976377952755905
          },
          {
            "duration": 0.451041666666697,
            "durationTicks": 433,
            "midi": 67,
            "name": "G4",
            "ticks": 605280,
            "time": 630.5,
            "velocity": 0.8818897637795275
          },
          {
            "duration": 0.451041666666697,
            "durationTicks": 433,
            "midi": 67,
            "name": "G4",
            "ticks": 605760,
            "time": 631,
            "velocity": 0.889763779527559
          },
          {
            "duration": 0.451041666666697,
            "durationTicks": 433,
            "midi": 67,
            "name": "G4",
            "ticks": 606240,
            "time": 631.5,
            "velocity": 0.8976377952755905
          },
          {
            "duration": 0.451041666666697,
            "durationTicks": 433,
            "midi": 67,
            "name": "G4",
            "ticks": 606720,
            "time": 632,
            "velocity": 0.889763779527559
          },
          {
            "duration": 0.451041666666697,
            "durationTicks": 433,
            "midi": 67,
            "name": "G4",
            "ticks": 607200,
            "time": 632.5,
            "velocity": 0.9133858267716536
          },
          {
            "duration": 0.451041666666697,
            "durationTicks": 433,
            "midi": 67,
            "name": "G4",
            "ticks": 607680,
            "time": 633,
            "velocity": 0.8818897637795275
          },
          {
            "duration": 0.451041666666697,
            "durationTicks": 433,
            "midi": 67,
            "name": "G4",
            "ticks": 608160,
            "time": 633.5,
            "velocity": 0.8818897637795275
          },
          {
            "duration": 0.451041666666697,
            "durationTicks": 433,
            "midi": 67,
            "name": "G4",
            "ticks": 609120,
            "time": 634.5,
            "velocity": 0.8031496062992126
          },
          {
            "duration": 0.451041666666697,
            "durationTicks": 433,
            "midi": 67,
            "name": "G4",
            "ticks": 610080,
            "time": 635.5,
            "velocity": 0.8031496062992126
          }
        ]
      },
      {
        "channel": 12,
        "controlChanges": {
          "7": [
            {
              "number": 7,
              "ticks": 0,
              "time": 0,
              "value": 0.2755905511811024
            }
          ],
          "10": [
            {
              "number": 10,
              "ticks": 0,
              "time": 0,
              "value": 0.905511811023622
            }
          ],
          "64": [
            {
              "number": 64,
              "ticks": 0,
              "time": 0,
              "value": 0
            }
          ],
          "121": [
            {
              "number": 121,
              "ticks": 0,
              "time": 0,
              "value": 0
            }
          ]
        },
        "pitchBends": [],
        "instrument": {
          "family": "brass",
          "number": 56,
          "name": "trumpet"
        },
        "name": "",
        "notes": [
          {
            "duration": 0.22604166666666714,
            "durationTicks": 217,
            "midi": 55,
            "name": "G3",
            "ticks": 17520,
            "time": 18.25,
            "velocity": 0.4330708661417323
          },
          {
            "duration": 0.22604166666666714,
            "durationTicks": 217,
            "midi": 67,
            "name": "G4",
            "ticks": 17520,
            "time": 18.25,
            "velocity": 0.4330708661417323
          },
          {
            "duration": 0.22604166666666714,
            "durationTicks": 217,
            "midi": 55,
            "name": "G3",
            "ticks": 17760,
            "time": 18.5,
            "velocity": 0.5433070866141733
          },
          {
            "duration": 0.22604166666666714,
            "durationTicks": 217,
            "midi": 67,
            "name": "G4",
            "ticks": 17760,
            "time": 18.5,
            "velocity": 0.5433070866141733
          },
          {
            "duration": 0.22604166666666714,
            "durationTicks": 217,
            "midi": 55,
            "name": "G3",
            "ticks": 18000,
            "time": 18.75,
            "velocity": 0.6220472440944882
          },
          {
            "duration": 0.22604166666666714,
            "durationTicks": 217,
            "midi": 67,
            "name": "G4",
            "ticks": 18000,
            "time": 18.75,
            "velocity": 0.6220472440944882
          },
          {
            "duration": 0.451041666666665,
            "durationTicks": 433,
            "midi": 60,
            "name": "C4",
            "ticks": 18240,
            "time": 19,
            "velocity": 0.8582677165354331
          },
          {
            "duration": 0.451041666666665,
            "durationTicks": 433,
            "midi": 72,
            "name": "C5",
            "ticks": 18240,
            "time": 19,
            "velocity": 0.8582677165354331
          },
          {
            "duration": 0.451041666666665,
            "durationTicks": 433,
            "midi": 60,
            "name": "C4",
            "ticks": 19200,
            "time": 20,
            "velocity": 0.7086614173228346
          },
          {
            "duration": 0.451041666666665,
            "durationTicks": 433,
            "midi": 72,
            "name": "C5",
            "ticks": 19200,
            "time": 20,
            "velocity": 0.7086614173228346
          },
          {
            "duration": 0.451041666666665,
            "durationTicks": 433,
            "midi": 55,
            "name": "G3",
            "ticks": 20160,
            "time": 21,
            "velocity": 0.6771653543307087
          },
          {
            "duration": 0.451041666666665,
            "durationTicks": 433,
            "midi": 67,
            "name": "G4",
            "ticks": 20160,
            "time": 21,
            "velocity": 0.6771653543307087
          },
          {
            "duration": 0.45104166666666856,
            "durationTicks": 433,
            "midi": 60,
            "name": "C4",
            "ticks": 42000,
            "time": 43.75,
            "velocity": 0.7007874015748031
          },
          {
            "duration": 0.45104166666666856,
            "durationTicks": 433,
            "midi": 72,
            "name": "C5",
            "ticks": 42000,
            "time": 43.75,
            "velocity": 0.7007874015748031
          },
          {
            "duration": 0.45104166666666856,
            "durationTicks": 433,
            "midi": 60,
            "name": "C4",
            "ticks": 42960,
            "time": 44.75,
            "velocity": 0.7007874015748031
          },
          {
            "duration": 0.45104166666666856,
            "durationTicks": 433,
            "midi": 72,
            "name": "C5",
            "ticks": 42960,
            "time": 44.75,
            "velocity": 0.7007874015748031
          },
          {
            "duration": 0.22604166666666714,
            "durationTicks": 217,
            "midi": 60,
            "name": "C4",
            "ticks": 46320,
            "time": 48.25,
            "velocity": 0.6614173228346457
          },
          {
            "duration": 0.22604166666666714,
            "durationTicks": 217,
            "midi": 72,
            "name": "C5",
            "ticks": 46320,
            "time": 48.25,
            "velocity": 0.6614173228346457
          },
          {
            "duration": 0.22604166666666714,
            "durationTicks": 217,
            "midi": 60,
            "name": "C4",
            "ticks": 46560,
            "time": 48.5,
            "velocity": 0.7480314960629921
          },
          {
            "duration": 0.22604166666666714,
            "durationTicks": 217,
            "midi": 72,
            "name": "C5",
            "ticks": 46560,
            "time": 48.5,
            "velocity": 0.7480314960629921
          },
          {
            "duration": 0.45104166666666856,
            "durationTicks": 433,
            "midi": 55,
            "name": "G3",
            "ticks": 46800,
            "time": 48.75,
            "velocity": 0.6535433070866141
          },
          {
            "duration": 0.45104166666666856,
            "durationTicks": 433,
            "midi": 67,
            "name": "G4",
            "ticks": 46800,
            "time": 48.75,
            "velocity": 0.6535433070866141
          },
          {
            "duration": 0.22604166666666714,
            "durationTicks": 217,
            "midi": 60,
            "name": "C4",
            "ticks": 50160,
            "time": 52.25,
            "velocity": 0.6692913385826772
          },
          {
            "duration": 0.22604166666666714,
            "durationTicks": 217,
            "midi": 72,
            "name": "C5",
            "ticks": 50160,
            "time": 52.25,
            "velocity": 0.6692913385826772
          },
          {
            "duration": 0.22604166666666714,
            "durationTicks": 217,
            "midi": 60,
            "name": "C4",
            "ticks": 50400,
            "time": 52.5,
            "velocity": 0.7716535433070866
          },
          {
            "duration": 0.22604166666666714,
            "durationTicks": 217,
            "midi": 72,
            "name": "C5",
            "ticks": 50400,
            "time": 52.5,
            "velocity": 0.7716535433070866
          },
          {
            "duration": 3.8999999999999986,
            "durationTicks": 3744,
            "midi": 60,
            "name": "C4",
            "ticks": 50640,
            "time": 52.75,
            "velocity": 0.8661417322834646
          },
          {
            "duration": 3.8999999999999986,
            "durationTicks": 3744,
            "midi": 72,
            "name": "C5",
            "ticks": 50640,
            "time": 52.75,
            "velocity": 0.8661417322834646
          },
          {
            "duration": 0.45104166666666856,
            "durationTicks": 433,
            "midi": 60,
            "name": "C4",
            "ticks": 54480,
            "time": 56.75,
            "velocity": 0.8976377952755905
          },
          {
            "duration": 0.45104166666666856,
            "durationTicks": 433,
            "midi": 72,
            "name": "C5",
            "ticks": 54480,
            "time": 56.75,
            "velocity": 0.8976377952755905
          },
          {
            "duration": 1.4510416666666686,
            "durationTicks": 1393,
            "midi": 77,
            "name": "F5",
            "ticks": 90960,
            "time": 94.75,
            "velocity": 0.7559055118110236
          },
          {
            "duration": 0.45104166666666856,
            "durationTicks": 433,
            "midi": 55,
            "name": "G3",
            "ticks": 94800,
            "time": 98.75,
            "velocity": 0.6929133858267716
          },
          {
            "duration": 0.45104166666666856,
            "durationTicks": 433,
            "midi": 67,
            "name": "G4",
            "ticks": 94800,
            "time": 98.75,
            "velocity": 0.6929133858267716
          },
          {
            "duration": 0.45104166666666856,
            "durationTicks": 433,
            "midi": 60,
            "name": "C4",
            "ticks": 95760,
            "time": 99.75,
            "velocity": 0.6929133858267716
          },
          {
            "duration": 0.45104166666666856,
            "durationTicks": 433,
            "midi": 72,
            "name": "C5",
            "ticks": 95760,
            "time": 99.75,
            "velocity": 0.6929133858267716
          },
          {
            "duration": 1.9000000000000057,
            "durationTicks": 1824,
            "midi": 77,
            "name": "F5",
            "ticks": 98640,
            "time": 102.75,
            "velocity": 0.8267716535433071
          },
          {
            "duration": 0.45104166666666856,
            "durationTicks": 433,
            "midi": 79,
            "name": "G5",
            "ticks": 100560,
            "time": 104.75,
            "velocity": 0.937007874015748
          },
          {
            "duration": 0.45104166666666856,
            "durationTicks": 433,
            "midi": 67,
            "name": "G4",
            "ticks": 101040,
            "time": 105.25,
            "velocity": 0.9212598425196851
          },
          {
            "duration": 0.45104166666666856,
            "durationTicks": 433,
            "midi": 79,
            "name": "G5",
            "ticks": 101040,
            "time": 105.25,
            "velocity": 0.9212598425196851
          },
          {
            "duration": 0.45104166666666856,
            "durationTicks": 433,
            "midi": 55,
            "name": "G3",
            "ticks": 102960,
            "time": 107.25,
            "velocity": 0.7716535433070866
          },
          {
            "duration": 0.45104166666666856,
            "durationTicks": 433,
            "midi": 67,
            "name": "G4",
            "ticks": 102960,
            "time": 107.25,
            "velocity": 0.7716535433070866
          },
          {
            "duration": 0.45104166666666856,
            "durationTicks": 433,
            "midi": 60,
            "name": "C4",
            "ticks": 103920,
            "time": 108.25,
            "velocity": 0.7874015748031497
          },
          {
            "duration": 0.45104166666666856,
            "durationTicks": 433,
            "midi": 72,
            "name": "C5",
            "ticks": 103920,
            "time": 108.25,
            "velocity": 0.7874015748031497
          },
          {
            "duration": 0.22604166666667425,
            "durationTicks": 217,
            "midi": 55,
            "name": "G3",
            "ticks": 138240,
            "time": 144,
            "velocity": 0.4330708661417323
          },
          {
            "duration": 0.22604166666667425,
            "durationTicks": 217,
            "midi": 67,
            "name": "G4",
            "ticks": 138240,
            "time": 144,
            "velocity": 0.4330708661417323
          },
          {
            "duration": 0.22604166666667425,
            "durationTicks": 217,
            "midi": 55,
            "name": "G3",
            "ticks": 138480,
            "time": 144.25,
            "velocity": 0.5118110236220472
          },
          {
            "duration": 0.22604166666667425,
            "durationTicks": 217,
            "midi": 67,
            "name": "G4",
            "ticks": 138480,
            "time": 144.25,
            "velocity": 0.5118110236220472
          },
          {
            "duration": 0.22604166666667425,
            "durationTicks": 217,
            "midi": 55,
            "name": "G3",
            "ticks": 138720,
            "time": 144.5,
            "velocity": 0.5826771653543307
          },
          {
            "duration": 0.22604166666667425,
            "durationTicks": 217,
            "midi": 67,
            "name": "G4",
            "ticks": 138720,
            "time": 144.5,
            "velocity": 0.5826771653543307
          },
          {
            "duration": 0.45104166666666856,
            "durationTicks": 433,
            "midi": 60,
            "name": "C4",
            "ticks": 138960,
            "time": 144.75,
            "velocity": 0.8346456692913385
          },
          {
            "duration": 0.45104166666666856,
            "durationTicks": 433,
            "midi": 72,
            "name": "C5",
            "ticks": 138960,
            "time": 144.75,
            "velocity": 0.8346456692913385
          },
          {
            "duration": 0.45104166666666856,
            "durationTicks": 433,
            "midi": 60,
            "name": "C4",
            "ticks": 139920,
            "time": 145.75,
            "velocity": 0.6929133858267716
          },
          {
            "duration": 0.45104166666666856,
            "durationTicks": 433,
            "midi": 72,
            "name": "C5",
            "ticks": 139920,
            "time": 145.75,
            "velocity": 0.6929133858267716
          },
          {
            "duration": 0.45104166666666856,
            "durationTicks": 433,
            "midi": 55,
            "name": "G3",
            "ticks": 140880,
            "time": 146.75,
            "velocity": 0.7007874015748031
          },
          {
            "duration": 0.45104166666666856,
            "durationTicks": 433,
            "midi": 67,
            "name": "G4",
            "ticks": 140880,
            "time": 146.75,
            "velocity": 0.7007874015748031
          },
          {
            "duration": 0.45104166666666856,
            "durationTicks": 433,
            "midi": 60,
            "name": "C4",
            "ticks": 162720,
            "time": 169.5,
            "velocity": 0.6535433070866141
          },
          {
            "duration": 0.45104166666666856,
            "durationTicks": 433,
            "midi": 72,
            "name": "C5",
            "ticks": 162720,
            "time": 169.5,
            "velocity": 0.6535433070866141
          },
          {
            "duration": 0.45104166666666856,
            "durationTicks": 433,
            "midi": 60,
            "name": "C4",
            "ticks": 163680,
            "time": 170.5,
            "velocity": 0.7165354330708661
          },
          {
            "duration": 0.45104166666666856,
            "durationTicks": 433,
            "midi": 72,
            "name": "C5",
            "ticks": 163680,
            "time": 170.5,
            "velocity": 0.7165354330708661
          },
          {
            "duration": 0.22604166666667425,
            "durationTicks": 217,
            "midi": 60,
            "name": "C4",
            "ticks": 167040,
            "time": 174,
            "velocity": 0.6850393700787402
          },
          {
            "duration": 0.22604166666667425,
            "durationTicks": 217,
            "midi": 72,
            "name": "C5",
            "ticks": 167040,
            "time": 174,
            "velocity": 0.6850393700787402
          },
          {
            "duration": 0.22604166666667425,
            "durationTicks": 217,
            "midi": 60,
            "name": "C4",
            "ticks": 167280,
            "time": 174.25,
            "velocity": 0.7480314960629921
          },
          {
            "duration": 0.22604166666667425,
            "durationTicks": 217,
            "midi": 72,
            "name": "C5",
            "ticks": 167280,
            "time": 174.25,
            "velocity": 0.7480314960629921
          },
          {
            "duration": 0.45104166666666856,
            "durationTicks": 433,
            "midi": 55,
            "name": "G3",
            "ticks": 167520,
            "time": 174.5,
            "velocity": 0.6456692913385826
          },
          {
            "duration": 0.45104166666666856,
            "durationTicks": 433,
            "midi": 67,
            "name": "G4",
            "ticks": 167520,
            "time": 174.5,
            "velocity": 0.6456692913385826
          },
          {
            "duration": 0.22604166666667425,
            "durationTicks": 217,
            "midi": 60,
            "name": "C4",
            "ticks": 170880,
            "time": 178,
            "velocity": 0.6850393700787402
          },
          {
            "duration": 0.22604166666667425,
            "durationTicks": 217,
            "midi": 72,
            "name": "C5",
            "ticks": 170880,
            "time": 178,
            "velocity": 0.6850393700787402
          },
          {
            "duration": 0.22604166666667425,
            "durationTicks": 217,
            "midi": 60,
            "name": "C4",
            "ticks": 171120,
            "time": 178.25,
            "velocity": 0.7244094488188977
          },
          {
            "duration": 0.22604166666667425,
            "durationTicks": 217,
            "midi": 72,
            "name": "C5",
            "ticks": 171120,
            "time": 178.25,
            "velocity": 0.7244094488188977
          },
          {
            "duration": 3.9000000000000057,
            "durationTicks": 3744,
            "midi": 60,
            "name": "C4",
            "ticks": 171360,
            "time": 178.5,
            "velocity": 0.8818897637795275
          },
          {
            "duration": 3.9000000000000057,
            "durationTicks": 3744,
            "midi": 72,
            "name": "C5",
            "ticks": 171360,
            "time": 178.5,
            "velocity": 0.8818897637795275
          },
          {
            "duration": 0.45104166666666856,
            "durationTicks": 433,
            "midi": 60,
            "name": "C4",
            "ticks": 175200,
            "time": 182.5,
            "velocity": 0.889763779527559
          },
          {
            "duration": 0.45104166666666856,
            "durationTicks": 433,
            "midi": 72,
            "name": "C5",
            "ticks": 175200,
            "time": 182.5,
            "velocity": 0.889763779527559
          },
          {
            "duration": 1.4510416666666686,
            "durationTicks": 1393,
            "midi": 77,
            "name": "F5",
            "ticks": 211680,
            "time": 220.5,
            "velocity": 0.7559055118110236
          },
          {
            "duration": 0.45104166666666856,
            "durationTicks": 433,
            "midi": 55,
            "name": "G3",
            "ticks": 215520,
            "time": 224.5,
            "velocity": 0.6929133858267716
          },
          {
            "duration": 0.45104166666666856,
            "durationTicks": 433,
            "midi": 67,
            "name": "G4",
            "ticks": 215520,
            "time": 224.5,
            "velocity": 0.6929133858267716
          },
          {
            "duration": 0.45104166666666856,
            "durationTicks": 433,
            "midi": 60,
            "name": "C4",
            "ticks": 216480,
            "time": 225.5,
            "velocity": 0.6614173228346457
          },
          {
            "duration": 0.45104166666666856,
            "durationTicks": 433,
            "midi": 72,
            "name": "C5",
            "ticks": 216480,
            "time": 225.5,
            "velocity": 0.6614173228346457
          },
          {
            "duration": 1.9000000000000057,
            "durationTicks": 1824,
            "midi": 77,
            "name": "F5",
            "ticks": 219360,
            "time": 228.5,
            "velocity": 0.8031496062992126
          },
          {
            "duration": 0.45104166666666856,
            "durationTicks": 433,
            "midi": 79,
            "name": "G5",
            "ticks": 221280,
            "time": 230.5,
            "velocity": 0.9448818897637795
          },
          {
            "duration": 0.45104166666666856,
            "durationTicks": 433,
            "midi": 67,
            "name": "G4",
            "ticks": 221760,
            "time": 231,
            "velocity": 0.9133858267716536
          },
          {
            "duration": 0.45104166666666856,
            "durationTicks": 433,
            "midi": 79,
            "name": "G5",
            "ticks": 221760,
            "time": 231,
            "velocity": 0.9133858267716536
          },
          {
            "duration": 0.45104166666666856,
            "durationTicks": 433,
            "midi": 55,
            "name": "G3",
            "ticks": 223680,
            "time": 233,
            "velocity": 0.8188976377952756
          },
          {
            "duration": 0.45104166666666856,
            "durationTicks": 433,
            "midi": 67,
            "name": "G4",
            "ticks": 223680,
            "time": 233,
            "velocity": 0.8188976377952756
          },
          {
            "duration": 0.45104166666666856,
            "durationTicks": 433,
            "midi": 60,
            "name": "C4",
            "ticks": 224640,
            "time": 234,
            "velocity": 0.7795275590551181
          },
          {
            "duration": 0.45104166666666856,
            "durationTicks": 433,
            "midi": 72,
            "name": "C5",
            "ticks": 224640,
            "time": 234,
            "velocity": 0.7795275590551181
          },
          {
            "duration": 0.45104166666664014,
            "durationTicks": 433,
            "midi": 55,
            "name": "G3",
            "ticks": 273600,
            "time": 285,
            "velocity": 0.31496062992125984
          },
          {
            "duration": 0.45104166666664014,
            "durationTicks": 433,
            "midi": 67,
            "name": "G4",
            "ticks": 273600,
            "time": 285,
            "velocity": 0.31496062992125984
          },
          {
            "duration": 0.45104166666664014,
            "durationTicks": 433,
            "midi": 60,
            "name": "C4",
            "ticks": 275520,
            "time": 287,
            "velocity": 0.4015748031496063
          },
          {
            "duration": 0.45104166666664014,
            "durationTicks": 433,
            "midi": 60,
            "name": "C4",
            "ticks": 277440,
            "time": 289,
            "velocity": 0.3464566929133858
          },
          {
            "duration": 0.45104166666664014,
            "durationTicks": 433,
            "midi": 55,
            "name": "G3",
            "ticks": 279360,
            "time": 291,
            "velocity": 0.3779527559055118
          },
          {
            "duration": 0.45104166666664014,
            "durationTicks": 433,
            "midi": 67,
            "name": "G4",
            "ticks": 279360,
            "time": 291,
            "velocity": 0.3779527559055118
          },
          {
            "duration": 0.45104166666664014,
            "durationTicks": 433,
            "midi": 55,
            "name": "G3",
            "ticks": 281280,
            "time": 293,
            "velocity": 0.3543307086614173
          },
          {
            "duration": 0.45104166666664014,
            "durationTicks": 433,
            "midi": 67,
            "name": "G4",
            "ticks": 281280,
            "time": 293,
            "velocity": 0.3543307086614173
          },
          {
            "duration": 1.8999999999999773,
            "durationTicks": 1824,
            "midi": 60,
            "name": "C4",
            "ticks": 283200,
            "time": 295,
            "velocity": 0.7086614173228346
          },
          {
            "duration": 1.8999999999999773,
            "durationTicks": 1824,
            "midi": 72,
            "name": "C5",
            "ticks": 283200,
            "time": 295,
            "velocity": 0.7086614173228346
          },
          {
            "duration": 0.45104166666664014,
            "durationTicks": 433,
            "midi": 60,
            "name": "C4",
            "ticks": 285120,
            "time": 297,
            "velocity": 0.7874015748031497
          },
          {
            "duration": 0.45104166666664014,
            "durationTicks": 433,
            "midi": 72,
            "name": "C5",
            "ticks": 285120,
            "time": 297,
            "velocity": 0.7874015748031497
          },
          {
            "duration": 0.22604166666667425,
            "durationTicks": 217,
            "midi": 64,
            "name": "E4",
            "ticks": 286320,
            "time": 298.25,
            "velocity": 0.6614173228346457
          },
          {
            "duration": 0.22604166666667425,
            "durationTicks": 217,
            "midi": 76,
            "name": "E5",
            "ticks": 286320,
            "time": 298.25,
            "velocity": 0.6614173228346457
          },
          {
            "duration": 0.22604166666667425,
            "durationTicks": 217,
            "midi": 64,
            "name": "E4",
            "ticks": 286560,
            "time": 298.5,
            "velocity": 0.7637795275590551
          },
          {
            "duration": 0.22604166666667425,
            "durationTicks": 217,
            "midi": 76,
            "name": "E5",
            "ticks": 286560,
            "time": 298.5,
            "velocity": 0.7637795275590551
          },
          {
            "duration": 0.22604166666667425,
            "durationTicks": 217,
            "midi": 64,
            "name": "E4",
            "ticks": 286800,
            "time": 298.75,
            "velocity": 0.7952755905511811
          },
          {
            "duration": 0.22604166666667425,
            "durationTicks": 217,
            "midi": 76,
            "name": "E5",
            "ticks": 286800,
            "time": 298.75,
            "velocity": 0.7952755905511811
          },
          {
            "duration": 1.8999999999999773,
            "durationTicks": 1824,
            "midi": 64,
            "name": "E4",
            "ticks": 287040,
            "time": 299,
            "velocity": 0.7874015748031497
          },
          {
            "duration": 1.8999999999999773,
            "durationTicks": 1824,
            "midi": 76,
            "name": "E5",
            "ticks": 287040,
            "time": 299,
            "velocity": 0.7874015748031497
          },
          {
            "duration": 0.45104166666664014,
            "durationTicks": 433,
            "midi": 64,
            "name": "E4",
            "ticks": 288960,
            "time": 301,
            "velocity": 0.7952755905511811
          },
          {
            "duration": 0.45104166666664014,
            "durationTicks": 433,
            "midi": 76,
            "name": "E5",
            "ticks": 288960,
            "time": 301,
            "velocity": 0.7952755905511811
          },
          {
            "duration": 0.22604166666667425,
            "durationTicks": 217,
            "midi": 67,
            "name": "G4",
            "ticks": 290160,
            "time": 302.25,
            "velocity": 0.7795275590551181
          },
          {
            "duration": 0.22604166666667425,
            "durationTicks": 217,
            "midi": 79,
            "name": "G5",
            "ticks": 290160,
            "time": 302.25,
            "velocity": 0.7795275590551181
          },
          {
            "duration": 0.22604166666667425,
            "durationTicks": 217,
            "midi": 67,
            "name": "G4",
            "ticks": 290400,
            "time": 302.5,
            "velocity": 0.7952755905511811
          },
          {
            "duration": 0.22604166666667425,
            "durationTicks": 217,
            "midi": 79,
            "name": "G5",
            "ticks": 290400,
            "time": 302.5,
            "velocity": 0.7952755905511811
          },
          {
            "duration": 0.22604166666667425,
            "durationTicks": 217,
            "midi": 67,
            "name": "G4",
            "ticks": 290640,
            "time": 302.75,
            "velocity": 0.8582677165354331
          },
          {
            "duration": 0.22604166666667425,
            "durationTicks": 217,
            "midi": 79,
            "name": "G5",
            "ticks": 290640,
            "time": 302.75,
            "velocity": 0.8582677165354331
          },
          {
            "duration": 0.45104166666664014,
            "durationTicks": 433,
            "midi": 67,
            "name": "G4",
            "ticks": 290880,
            "time": 303,
            "velocity": 0.84251968503937
          },
          {
            "duration": 0.45104166666664014,
            "durationTicks": 433,
            "midi": 79,
            "name": "G5",
            "ticks": 290880,
            "time": 303,
            "velocity": 0.84251968503937
          },
          {
            "duration": 0.22604166666667425,
            "durationTicks": 217,
            "midi": 67,
            "name": "G4",
            "ticks": 292320,
            "time": 304.5,
            "velocity": 0.7322834645669292
          },
          {
            "duration": 0.22604166666667425,
            "durationTicks": 217,
            "midi": 79,
            "name": "G5",
            "ticks": 292320,
            "time": 304.5,
            "velocity": 0.7322834645669292
          },
          {
            "duration": 0.22604166666667425,
            "durationTicks": 217,
            "midi": 67,
            "name": "G4",
            "ticks": 292560,
            "time": 304.75,
            "velocity": 0.8267716535433071
          },
          {
            "duration": 0.22604166666667425,
            "durationTicks": 217,
            "midi": 79,
            "name": "G5",
            "ticks": 292560,
            "time": 304.75,
            "velocity": 0.8267716535433071
          },
          {
            "duration": 0.45104166666664014,
            "durationTicks": 433,
            "midi": 67,
            "name": "G4",
            "ticks": 292800,
            "time": 305,
            "velocity": 0.8188976377952756
          },
          {
            "duration": 0.45104166666664014,
            "durationTicks": 433,
            "midi": 79,
            "name": "G5",
            "ticks": 292800,
            "time": 305,
            "velocity": 0.8188976377952756
          },
          {
            "duration": 0.45104166666664014,
            "durationTicks": 433,
            "midi": 74,
            "name": "D5",
            "ticks": 293760,
            "time": 306,
            "velocity": 0.7165354330708661
          },
          {
            "duration": 0.22604166666667425,
            "durationTicks": 217,
            "midi": 60,
            "name": "C4",
            "ticks": 297120,
            "time": 309.5,
            "velocity": 0.7086614173228346
          },
          {
            "duration": 0.22604166666667425,
            "durationTicks": 217,
            "midi": 60,
            "name": "C4",
            "ticks": 297360,
            "time": 309.75,
            "velocity": 0.7637795275590551
          },
          {
            "duration": 0.45104166666664014,
            "durationTicks": 433,
            "midi": 60,
            "name": "C4",
            "ticks": 297600,
            "time": 310,
            "velocity": 0.7401574803149606
          },
          {
            "duration": 0.22604166666667425,
            "durationTicks": 217,
            "midi": 74,
            "name": "D5",
            "ticks": 300960,
            "time": 313.5,
            "velocity": 0.7244094488188977
          },
          {
            "duration": 0.22604166666667425,
            "durationTicks": 217,
            "midi": 74,
            "name": "D5",
            "ticks": 301200,
            "time": 313.75,
            "velocity": 0.7322834645669292
          },
          {
            "duration": 0.45104166666664014,
            "durationTicks": 433,
            "midi": 67,
            "name": "G4",
            "ticks": 301440,
            "time": 314,
            "velocity": 0.7874015748031497
          },
          {
            "duration": 0.45104166666664014,
            "durationTicks": 433,
            "midi": 74,
            "name": "D5",
            "ticks": 301440,
            "time": 314,
            "velocity": 0.7874015748031497
          },
          {
            "duration": 0.22604166666667425,
            "durationTicks": 217,
            "midi": 55,
            "name": "G3",
            "ticks": 308640,
            "time": 321.5,
            "velocity": 0.7322834645669292
          },
          {
            "duration": 0.22604166666667425,
            "durationTicks": 217,
            "midi": 67,
            "name": "G4",
            "ticks": 308640,
            "time": 321.5,
            "velocity": 0.7322834645669292
          },
          {
            "duration": 0.22604166666667425,
            "durationTicks": 217,
            "midi": 55,
            "name": "G3",
            "ticks": 308880,
            "time": 321.75,
            "velocity": 0.7637795275590551
          },
          {
            "duration": 0.22604166666667425,
            "durationTicks": 217,
            "midi": 67,
            "name": "G4",
            "ticks": 308880,
            "time": 321.75,
            "velocity": 0.7637795275590551
          },
          {
            "duration": 0.45104166666664014,
            "durationTicks": 433,
            "midi": 60,
            "name": "C4",
            "ticks": 309120,
            "time": 322,
            "velocity": 0.905511811023622
          },
          {
            "duration": 0.45104166666664014,
            "durationTicks": 433,
            "midi": 72,
            "name": "C5",
            "ticks": 309120,
            "time": 322,
            "velocity": 0.905511811023622
          },
          {
            "duration": 0.8999999999999773,
            "durationTicks": 864,
            "midi": 60,
            "name": "C4",
            "ticks": 310080,
            "time": 323,
            "velocity": 0.6614173228346457
          },
          {
            "duration": 0.8999999999999773,
            "durationTicks": 864,
            "midi": 60,
            "name": "C4",
            "ticks": 311040,
            "time": 324,
            "velocity": 0.7637795275590551
          },
          {
            "duration": 0.8999999999999773,
            "durationTicks": 864,
            "midi": 60,
            "name": "C4",
            "ticks": 313920,
            "time": 327,
            "velocity": 0.7874015748031497
          },
          {
            "duration": 0.8999999999999773,
            "durationTicks": 864,
            "midi": 60,
            "name": "C4",
            "ticks": 314880,
            "time": 328,
            "velocity": 0.7480314960629921
          },
          {
            "duration": 0.22604166666667425,
            "durationTicks": 217,
            "midi": 74,
            "name": "D5",
            "ticks": 341040,
            "time": 355.25,
            "velocity": 0.7559055118110236
          },
          {
            "duration": 0.22604166666667425,
            "durationTicks": 217,
            "midi": 74,
            "name": "D5",
            "ticks": 341280,
            "time": 355.5,
            "velocity": 0.8818897637795275
          },
          {
            "duration": 0.22604166666667425,
            "durationTicks": 217,
            "midi": 74,
            "name": "D5",
            "ticks": 341520,
            "time": 355.75,
            "velocity": 0.8976377952755905
          },
          {
            "duration": 0.8999999999999773,
            "durationTicks": 864,
            "midi": 74,
            "name": "D5",
            "ticks": 341760,
            "time": 356,
            "velocity": 0.8818897637795275
          },
          {
            "duration": 0.8999999999999773,
            "durationTicks": 864,
            "midi": 74,
            "name": "D5",
            "ticks": 342720,
            "time": 357,
            "velocity": 0.9212598425196851
          },
          {
            "duration": 1.8999999999999773,
            "durationTicks": 1824,
            "midi": 74,
            "name": "D5",
            "ticks": 343680,
            "time": 358,
            "velocity": 0.8740157480314961
          },
          {
            "duration": 0.22604166666667425,
            "durationTicks": 217,
            "midi": 67,
            "name": "G4",
            "ticks": 360240,
            "time": 375.25,
            "velocity": 0.7952755905511811
          },
          {
            "duration": 0.22604166666667425,
            "durationTicks": 217,
            "midi": 79,
            "name": "G5",
            "ticks": 360240,
            "time": 375.25,
            "velocity": 0.7952755905511811
          },
          {
            "duration": 0.22604166666667425,
            "durationTicks": 217,
            "midi": 67,
            "name": "G4",
            "ticks": 360480,
            "time": 375.5,
            "velocity": 0.8818897637795275
          },
          {
            "duration": 0.22604166666667425,
            "durationTicks": 217,
            "midi": 79,
            "name": "G5",
            "ticks": 360480,
            "time": 375.5,
            "velocity": 0.8818897637795275
          },
          {
            "duration": 0.22604166666667425,
            "durationTicks": 217,
            "midi": 67,
            "name": "G4",
            "ticks": 360720,
            "time": 375.75,
            "velocity": 0.8740157480314961
          },
          {
            "duration": 0.22604166666667425,
            "durationTicks": 217,
            "midi": 79,
            "name": "G5",
            "ticks": 360720,
            "time": 375.75,
            "velocity": 0.8740157480314961
          },
          {
            "duration": 1.5,
            "durationTicks": 1440,
            "midi": 67,
            "name": "G4",
            "ticks": 360960,
            "time": 376,
            "velocity": 0.8818897637795275
          },
          {
            "duration": 1.5,
            "durationTicks": 1440,
            "midi": 79,
            "name": "G5",
            "ticks": 360960,
            "time": 376,
            "velocity": 0.8818897637795275
          },
          {
            "duration": 0.22604166666667425,
            "durationTicks": 217,
            "midi": 67,
            "name": "G4",
            "ticks": 362640,
            "time": 377.75,
            "velocity": 0.7952755905511811
          },
          {
            "duration": 0.22604166666667425,
            "durationTicks": 217,
            "midi": 79,
            "name": "G5",
            "ticks": 362640,
            "time": 377.75,
            "velocity": 0.7952755905511811
          },
          {
            "duration": 0.22604166666667425,
            "durationTicks": 217,
            "midi": 67,
            "name": "G4",
            "ticks": 362880,
            "time": 378,
            "velocity": 0.9212598425196851
          },
          {
            "duration": 0.22604166666667425,
            "durationTicks": 217,
            "midi": 79,
            "name": "G5",
            "ticks": 362880,
            "time": 378,
            "velocity": 0.9212598425196851
          },
          {
            "duration": 0.22604166666667425,
            "durationTicks": 217,
            "midi": 67,
            "name": "G4",
            "ticks": 363120,
            "time": 378.25,
            "velocity": 0.8818897637795275
          },
          {
            "duration": 0.22604166666667425,
            "durationTicks": 217,
            "midi": 79,
            "name": "G5",
            "ticks": 363120,
            "time": 378.25,
            "velocity": 0.8818897637795275
          },
          {
            "duration": 2.5,
            "durationTicks": 2400,
            "midi": 67,
            "name": "G4",
            "ticks": 363360,
            "time": 378.5,
            "velocity": 0.905511811023622
          },
          {
            "duration": 2.5,
            "durationTicks": 2400,
            "midi": 79,
            "name": "G5",
            "ticks": 363360,
            "time": 378.5,
            "velocity": 0.905511811023622
          },
          {
            "duration": 0.45104166666664014,
            "durationTicks": 433,
            "midi": 60,
            "name": "C4",
            "ticks": 379200,
            "time": 395,
            "velocity": 0.3858267716535433
          },
          {
            "duration": 0.45104166666664014,
            "durationTicks": 433,
            "midi": 72,
            "name": "C5",
            "ticks": 379200,
            "time": 395,
            "velocity": 0.3858267716535433
          },
          {
            "duration": 0.45104166666664014,
            "durationTicks": 433,
            "midi": 55,
            "name": "G3",
            "ticks": 380160,
            "time": 396,
            "velocity": 0.7086614173228346
          },
          {
            "duration": 0.45104166666664014,
            "durationTicks": 433,
            "midi": 67,
            "name": "G4",
            "ticks": 380160,
            "time": 396,
            "velocity": 0.7086614173228346
          },
          {
            "duration": 0.45104166666664014,
            "durationTicks": 433,
            "midi": 60,
            "name": "C4",
            "ticks": 394080,
            "time": 410.5,
            "velocity": 0.6771653543307087
          },
          {
            "duration": 0.45104166666664014,
            "durationTicks": 433,
            "midi": 72,
            "name": "C5",
            "ticks": 394080,
            "time": 410.5,
            "velocity": 0.6771653543307087
          },
          {
            "duration": 0.45104166666664014,
            "durationTicks": 433,
            "midi": 60,
            "name": "C4",
            "ticks": 396000,
            "time": 412.5,
            "velocity": 0.7007874015748031
          },
          {
            "duration": 0.45104166666664014,
            "durationTicks": 433,
            "midi": 72,
            "name": "C5",
            "ticks": 396000,
            "time": 412.5,
            "velocity": 0.7007874015748031
          },
          {
            "duration": 0.45104166666664014,
            "durationTicks": 433,
            "midi": 60,
            "name": "C4",
            "ticks": 402720,
            "time": 419.5,
            "velocity": 0.6850393700787402
          },
          {
            "duration": 0.45104166666664014,
            "durationTicks": 433,
            "midi": 72,
            "name": "C5",
            "ticks": 402720,
            "time": 419.5,
            "velocity": 0.6850393700787402
          },
          {
            "duration": 0.45104166666664014,
            "durationTicks": 433,
            "midi": 60,
            "name": "C4",
            "ticks": 403680,
            "time": 420.5,
            "velocity": 0.6929133858267716
          },
          {
            "duration": 0.45104166666664014,
            "durationTicks": 433,
            "midi": 72,
            "name": "C5",
            "ticks": 403680,
            "time": 420.5,
            "velocity": 0.6929133858267716
          },
          {
            "duration": 0.22604166666667425,
            "durationTicks": 217,
            "midi": 60,
            "name": "C4",
            "ticks": 407040,
            "time": 424,
            "velocity": 0.7165354330708661
          },
          {
            "duration": 0.22604166666667425,
            "durationTicks": 217,
            "midi": 72,
            "name": "C5",
            "ticks": 407040,
            "time": 424,
            "velocity": 0.7165354330708661
          },
          {
            "duration": 0.22604166666667425,
            "durationTicks": 217,
            "midi": 60,
            "name": "C4",
            "ticks": 407280,
            "time": 424.25,
            "velocity": 0.7322834645669292
          },
          {
            "duration": 0.22604166666667425,
            "durationTicks": 217,
            "midi": 72,
            "name": "C5",
            "ticks": 407280,
            "time": 424.25,
            "velocity": 0.7322834645669292
          },
          {
            "duration": 0.45104166666664014,
            "durationTicks": 433,
            "midi": 55,
            "name": "G3",
            "ticks": 407520,
            "time": 424.5,
            "velocity": 0.6614173228346457
          },
          {
            "duration": 0.45104166666664014,
            "durationTicks": 433,
            "midi": 67,
            "name": "G4",
            "ticks": 407520,
            "time": 424.5,
            "velocity": 0.6614173228346457
          },
          {
            "duration": 0.22604166666667425,
            "durationTicks": 217,
            "midi": 60,
            "name": "C4",
            "ticks": 410880,
            "time": 428,
            "velocity": 0.7086614173228346
          },
          {
            "duration": 0.22604166666667425,
            "durationTicks": 217,
            "midi": 72,
            "name": "C5",
            "ticks": 410880,
            "time": 428,
            "velocity": 0.7086614173228346
          },
          {
            "duration": 0.22604166666667425,
            "durationTicks": 217,
            "midi": 60,
            "name": "C4",
            "ticks": 411120,
            "time": 428.25,
            "velocity": 0.7480314960629921
          },
          {
            "duration": 0.22604166666667425,
            "durationTicks": 217,
            "midi": 72,
            "name": "C5",
            "ticks": 411120,
            "time": 428.25,
            "velocity": 0.7480314960629921
          },
          {
            "duration": 3.8999999999999773,
            "durationTicks": 3744,
            "midi": 60,
            "name": "C4",
            "ticks": 411360,
            "time": 428.5,
            "velocity": 0.9448818897637795
          },
          {
            "duration": 3.8999999999999773,
            "durationTicks": 3744,
            "midi": 72,
            "name": "C5",
            "ticks": 411360,
            "time": 428.5,
            "velocity": 0.9448818897637795
          },
          {
            "duration": 0.45104166666664014,
            "durationTicks": 433,
            "midi": 60,
            "name": "C4",
            "ticks": 415200,
            "time": 432.5,
            "velocity": 0.8740157480314961
          },
          {
            "duration": 0.45104166666664014,
            "durationTicks": 433,
            "midi": 72,
            "name": "C5",
            "ticks": 415200,
            "time": 432.5,
            "velocity": 0.8740157480314961
          },
          {
            "duration": 0.45104166666664014,
            "durationTicks": 433,
            "midi": 55,
            "name": "G3",
            "ticks": 417120,
            "time": 434.5,
            "velocity": 0.8031496062992126
          },
          {
            "duration": 0.45104166666664014,
            "durationTicks": 433,
            "midi": 67,
            "name": "G4",
            "ticks": 417120,
            "time": 434.5,
            "velocity": 0.8031496062992126
          },
          {
            "duration": 1.4510416666666401,
            "durationTicks": 1393,
            "midi": 67,
            "name": "G4",
            "ticks": 459360,
            "time": 478.5,
            "velocity": 0.8110236220472441
          },
          {
            "duration": 1.4510416666666401,
            "durationTicks": 1393,
            "midi": 74,
            "name": "D5",
            "ticks": 459360,
            "time": 478.5,
            "velocity": 0.8110236220472441
          },
          {
            "duration": 0.45104166666664014,
            "durationTicks": 433,
            "midi": 67,
            "name": "G4",
            "ticks": 460800,
            "time": 480,
            "velocity": 0.9448818897637795
          },
          {
            "duration": 0.45104166666664014,
            "durationTicks": 433,
            "midi": 74,
            "name": "D5",
            "ticks": 460800,
            "time": 480,
            "velocity": 0.9448818897637795
          },
          {
            "duration": 0.45104166666664014,
            "durationTicks": 433,
            "midi": 64,
            "name": "E4",
            "ticks": 461280,
            "time": 480.5,
            "velocity": 0.8110236220472441
          },
          {
            "duration": 0.45104166666664014,
            "durationTicks": 433,
            "midi": 72,
            "name": "C5",
            "ticks": 461280,
            "time": 480.5,
            "velocity": 0.8110236220472441
          },
          {
            "duration": 0.45104166666664014,
            "durationTicks": 433,
            "midi": 55,
            "name": "G3",
            "ticks": 462240,
            "time": 481.5,
            "velocity": 0.7637795275590551
          },
          {
            "duration": 0.45104166666664014,
            "durationTicks": 433,
            "midi": 67,
            "name": "G4",
            "ticks": 462240,
            "time": 481.5,
            "velocity": 0.7637795275590551
          },
          {
            "duration": 0.45104166666664014,
            "durationTicks": 433,
            "midi": 60,
            "name": "C4",
            "ticks": 463200,
            "time": 482.5,
            "velocity": 0.8110236220472441
          },
          {
            "duration": 0.45104166666664014,
            "durationTicks": 433,
            "midi": 72,
            "name": "C5",
            "ticks": 463200,
            "time": 482.5,
            "velocity": 0.8110236220472441
          },
          {
            "duration": 0.45104166666664014,
            "durationTicks": 433,
            "midi": 60,
            "name": "C4",
            "ticks": 464160,
            "time": 483.5,
            "velocity": 0.8031496062992126
          },
          {
            "duration": 0.45104166666664014,
            "durationTicks": 433,
            "midi": 72,
            "name": "C5",
            "ticks": 464160,
            "time": 483.5,
            "velocity": 0.8031496062992126
          },
          {
            "duration": 0.45104166666664014,
            "durationTicks": 433,
            "midi": 60,
            "name": "C4",
            "ticks": 465120,
            "time": 484.5,
            "velocity": 0.8110236220472441
          },
          {
            "duration": 0.45104166666664014,
            "durationTicks": 433,
            "midi": 72,
            "name": "C5",
            "ticks": 465120,
            "time": 484.5,
            "velocity": 0.8110236220472441
          },
          {
            "duration": 0.45104166666664014,
            "durationTicks": 433,
            "midi": 55,
            "name": "G3",
            "ticks": 466080,
            "time": 485.5,
            "velocity": 0.8031496062992126
          },
          {
            "duration": 0.45104166666664014,
            "durationTicks": 433,
            "midi": 67,
            "name": "G4",
            "ticks": 466080,
            "time": 485.5,
            "velocity": 0.8031496062992126
          },
          {
            "duration": 1.8999999999999773,
            "durationTicks": 1824,
            "midi": 67,
            "name": "G4",
            "ticks": 467040,
            "time": 486.5,
            "velocity": 0.7795275590551181
          },
          {
            "duration": 1.8999999999999773,
            "durationTicks": 1824,
            "midi": 74,
            "name": "D5",
            "ticks": 467040,
            "time": 486.5,
            "velocity": 0.7795275590551181
          },
          {
            "duration": 0.45104166666664014,
            "durationTicks": 433,
            "midi": 72,
            "name": "C5",
            "ticks": 468960,
            "time": 488.5,
            "velocity": 0.9606299212598425
          },
          {
            "duration": 0.45104166666664014,
            "durationTicks": 433,
            "midi": 76,
            "name": "E5",
            "ticks": 468960,
            "time": 488.5,
            "velocity": 0.9606299212598425
          },
          {
            "duration": 0.45104166666664014,
            "durationTicks": 433,
            "midi": 60,
            "name": "C4",
            "ticks": 469440,
            "time": 489,
            "velocity": 0.7952755905511811
          },
          {
            "duration": 0.45104166666664014,
            "durationTicks": 433,
            "midi": 72,
            "name": "C5",
            "ticks": 469440,
            "time": 489,
            "velocity": 0.7952755905511811
          },
          {
            "duration": 0.45104166666664014,
            "durationTicks": 433,
            "midi": 55,
            "name": "G3",
            "ticks": 470400,
            "time": 490,
            "velocity": 0.84251968503937
          },
          {
            "duration": 0.45104166666664014,
            "durationTicks": 433,
            "midi": 67,
            "name": "G4",
            "ticks": 470400,
            "time": 490,
            "velocity": 0.84251968503937
          },
          {
            "duration": 0.45104166666664014,
            "durationTicks": 433,
            "midi": 60,
            "name": "C4",
            "ticks": 471360,
            "time": 491,
            "velocity": 0.8110236220472441
          },
          {
            "duration": 0.45104166666664014,
            "durationTicks": 433,
            "midi": 72,
            "name": "C5",
            "ticks": 471360,
            "time": 491,
            "velocity": 0.8110236220472441
          },
          {
            "duration": 0.45104166666664014,
            "durationTicks": 433,
            "midi": 60,
            "name": "C4",
            "ticks": 472320,
            "time": 492,
            "velocity": 0.8188976377952756
          },
          {
            "duration": 0.45104166666664014,
            "durationTicks": 433,
            "midi": 72,
            "name": "C5",
            "ticks": 472320,
            "time": 492,
            "velocity": 0.8188976377952756
          },
          {
            "duration": 0.45104166666664014,
            "durationTicks": 433,
            "midi": 72,
            "name": "C5",
            "ticks": 473280,
            "time": 493,
            "velocity": 0.8110236220472441
          },
          {
            "duration": 0.45104166666664014,
            "durationTicks": 433,
            "midi": 76,
            "name": "E5",
            "ticks": 473280,
            "time": 493,
            "velocity": 0.8110236220472441
          },
          {
            "duration": 0.45104166666664014,
            "durationTicks": 433,
            "midi": 67,
            "name": "G4",
            "ticks": 474240,
            "time": 494,
            "velocity": 0.7952755905511811
          },
          {
            "duration": 0.45104166666664014,
            "durationTicks": 433,
            "midi": 74,
            "name": "D5",
            "ticks": 474240,
            "time": 494,
            "velocity": 0.7952755905511811
          },
          {
            "duration": 0.45104166666664014,
            "durationTicks": 433,
            "midi": 64,
            "name": "E4",
            "ticks": 474720,
            "time": 494.5,
            "velocity": 0.7874015748031497
          },
          {
            "duration": 0.45104166666664014,
            "durationTicks": 433,
            "midi": 72,
            "name": "C5",
            "ticks": 474720,
            "time": 494.5,
            "velocity": 0.7874015748031497
          },
          {
            "duration": 0.22604166666667425,
            "durationTicks": 217,
            "midi": 55,
            "name": "G3",
            "ticks": 477840,
            "time": 497.75,
            "velocity": 0.8031496062992126
          },
          {
            "duration": 0.22604166666667425,
            "durationTicks": 217,
            "midi": 67,
            "name": "G4",
            "ticks": 477840,
            "time": 497.75,
            "velocity": 0.8031496062992126
          },
          {
            "duration": 0.22604166666667425,
            "durationTicks": 217,
            "midi": 55,
            "name": "G3",
            "ticks": 478080,
            "time": 498,
            "velocity": 0.8582677165354331
          },
          {
            "duration": 0.22604166666667425,
            "durationTicks": 217,
            "midi": 67,
            "name": "G4",
            "ticks": 478080,
            "time": 498,
            "velocity": 0.8582677165354331
          },
          {
            "duration": 0.22604166666667425,
            "durationTicks": 217,
            "midi": 55,
            "name": "G3",
            "ticks": 478320,
            "time": 498.25,
            "velocity": 0.9212598425196851
          },
          {
            "duration": 0.22604166666667425,
            "durationTicks": 217,
            "midi": 67,
            "name": "G4",
            "ticks": 478320,
            "time": 498.25,
            "velocity": 0.9212598425196851
          },
          {
            "duration": 0.45104166666664014,
            "durationTicks": 433,
            "midi": 60,
            "name": "C4",
            "ticks": 478560,
            "time": 498.5,
            "velocity": 1
          },
          {
            "duration": 0.45104166666664014,
            "durationTicks": 433,
            "midi": 72,
            "name": "C5",
            "ticks": 478560,
            "time": 498.5,
            "velocity": 1
          },
          {
            "duration": 0.22604166666667425,
            "durationTicks": 217,
            "midi": 55,
            "name": "G3",
            "ticks": 481680,
            "time": 501.75,
            "velocity": 0.7874015748031497
          },
          {
            "duration": 0.22604166666667425,
            "durationTicks": 217,
            "midi": 67,
            "name": "G4",
            "ticks": 481680,
            "time": 501.75,
            "velocity": 0.7874015748031497
          },
          {
            "duration": 0.22604166666667425,
            "durationTicks": 217,
            "midi": 55,
            "name": "G3",
            "ticks": 481920,
            "time": 502,
            "velocity": 0.8661417322834646
          },
          {
            "duration": 0.22604166666667425,
            "durationTicks": 217,
            "midi": 67,
            "name": "G4",
            "ticks": 481920,
            "time": 502,
            "velocity": 0.8661417322834646
          },
          {
            "duration": 0.22604166666667425,
            "durationTicks": 217,
            "midi": 55,
            "name": "G3",
            "ticks": 482160,
            "time": 502.25,
            "velocity": 0.8818897637795275
          },
          {
            "duration": 0.22604166666667425,
            "durationTicks": 217,
            "midi": 67,
            "name": "G4",
            "ticks": 482160,
            "time": 502.25,
            "velocity": 0.8818897637795275
          },
          {
            "duration": 0.45104166666664014,
            "durationTicks": 433,
            "midi": 60,
            "name": "C4",
            "ticks": 482400,
            "time": 502.5,
            "velocity": 1
          },
          {
            "duration": 0.45104166666664014,
            "durationTicks": 433,
            "midi": 72,
            "name": "C5",
            "ticks": 482400,
            "time": 502.5,
            "velocity": 1
          },
          {
            "duration": 0.22604166666667425,
            "durationTicks": 217,
            "midi": 55,
            "name": "G3",
            "ticks": 483600,
            "time": 503.75,
            "velocity": 0.84251968503937
          },
          {
            "duration": 0.22604166666667425,
            "durationTicks": 217,
            "midi": 67,
            "name": "G4",
            "ticks": 483600,
            "time": 503.75,
            "velocity": 0.84251968503937
          },
          {
            "duration": 0.22604166666667425,
            "durationTicks": 217,
            "midi": 55,
            "name": "G3",
            "ticks": 483840,
            "time": 504,
            "velocity": 0.8818897637795275
          },
          {
            "duration": 0.22604166666667425,
            "durationTicks": 217,
            "midi": 67,
            "name": "G4",
            "ticks": 483840,
            "time": 504,
            "velocity": 0.8818897637795275
          },
          {
            "duration": 0.22604166666667425,
            "durationTicks": 217,
            "midi": 55,
            "name": "G3",
            "ticks": 484080,
            "time": 504.25,
            "velocity": 0.8582677165354331
          },
          {
            "duration": 0.22604166666667425,
            "durationTicks": 217,
            "midi": 67,
            "name": "G4",
            "ticks": 484080,
            "time": 504.25,
            "velocity": 0.8582677165354331
          },
          {
            "duration": 0.45104166666664014,
            "durationTicks": 433,
            "midi": 60,
            "name": "C4",
            "ticks": 484320,
            "time": 504.5,
            "velocity": 1
          },
          {
            "duration": 0.45104166666664014,
            "durationTicks": 433,
            "midi": 72,
            "name": "C5",
            "ticks": 484320,
            "time": 504.5,
            "velocity": 1
          },
          {
            "duration": 0.22604166666667425,
            "durationTicks": 217,
            "midi": 55,
            "name": "G3",
            "ticks": 485520,
            "time": 505.75,
            "velocity": 0.84251968503937
          },
          {
            "duration": 0.22604166666667425,
            "durationTicks": 217,
            "midi": 67,
            "name": "G4",
            "ticks": 485520,
            "time": 505.75,
            "velocity": 0.84251968503937
          },
          {
            "duration": 0.22604166666667425,
            "durationTicks": 217,
            "midi": 55,
            "name": "G3",
            "ticks": 485760,
            "time": 506,
            "velocity": 0.889763779527559
          },
          {
            "duration": 0.22604166666667425,
            "durationTicks": 217,
            "midi": 67,
            "name": "G4",
            "ticks": 485760,
            "time": 506,
            "velocity": 0.889763779527559
          },
          {
            "duration": 0.22604166666667425,
            "durationTicks": 217,
            "midi": 55,
            "name": "G3",
            "ticks": 486000,
            "time": 506.25,
            "velocity": 0.905511811023622
          },
          {
            "duration": 0.22604166666667425,
            "durationTicks": 217,
            "midi": 67,
            "name": "G4",
            "ticks": 486000,
            "time": 506.25,
            "velocity": 0.905511811023622
          },
          {
            "duration": 0.22604166666667425,
            "durationTicks": 217,
            "midi": 60,
            "name": "C4",
            "ticks": 486240,
            "time": 506.5,
            "velocity": 1
          },
          {
            "duration": 0.22604166666667425,
            "durationTicks": 217,
            "midi": 72,
            "name": "C5",
            "ticks": 486240,
            "time": 506.5,
            "velocity": 1
          },
          {
            "duration": 0.22604166666667425,
            "durationTicks": 217,
            "midi": 60,
            "name": "C4",
            "ticks": 486480,
            "time": 506.75,
            "velocity": 0.9606299212598425
          },
          {
            "duration": 0.22604166666667425,
            "durationTicks": 217,
            "midi": 72,
            "name": "C5",
            "ticks": 486480,
            "time": 506.75,
            "velocity": 0.9606299212598425
          },
          {
            "duration": 0.22604166666667425,
            "durationTicks": 217,
            "midi": 60,
            "name": "C4",
            "ticks": 486720,
            "time": 507,
            "velocity": 0.8976377952755905
          },
          {
            "duration": 0.22604166666667425,
            "durationTicks": 217,
            "midi": 72,
            "name": "C5",
            "ticks": 486720,
            "time": 507,
            "velocity": 0.8976377952755905
          },
          {
            "duration": 0.22604166666667425,
            "durationTicks": 217,
            "midi": 60,
            "name": "C4",
            "ticks": 486960,
            "time": 507.25,
            "velocity": 0.9133858267716536
          },
          {
            "duration": 0.22604166666667425,
            "durationTicks": 217,
            "midi": 72,
            "name": "C5",
            "ticks": 486960,
            "time": 507.25,
            "velocity": 0.9133858267716536
          },
          {
            "duration": 1.2260416666666742,
            "durationTicks": 1177,
            "midi": 60,
            "name": "C4",
            "ticks": 487200,
            "time": 507.5,
            "velocity": 0.8818897637795275
          },
          {
            "duration": 1.2260416666666742,
            "durationTicks": 1177,
            "midi": 72,
            "name": "C5",
            "ticks": 487200,
            "time": 507.5,
            "velocity": 0.8818897637795275
          },
          {
            "duration": 0.22604166666667425,
            "durationTicks": 217,
            "midi": 60,
            "name": "C4",
            "ticks": 488400,
            "time": 508.75,
            "velocity": 0.889763779527559
          },
          {
            "duration": 0.22604166666667425,
            "durationTicks": 217,
            "midi": 72,
            "name": "C5",
            "ticks": 488400,
            "time": 508.75,
            "velocity": 0.889763779527559
          },
          {
            "duration": 0.22604166666667425,
            "durationTicks": 217,
            "midi": 60,
            "name": "C4",
            "ticks": 488640,
            "time": 509,
            "velocity": 0.8740157480314961
          },
          {
            "duration": 0.22604166666667425,
            "durationTicks": 217,
            "midi": 72,
            "name": "C5",
            "ticks": 488640,
            "time": 509,
            "velocity": 0.8740157480314961
          },
          {
            "duration": 0.22604166666667425,
            "durationTicks": 217,
            "midi": 60,
            "name": "C4",
            "ticks": 488880,
            "time": 509.25,
            "velocity": 0.8740157480314961
          },
          {
            "duration": 0.22604166666667425,
            "durationTicks": 217,
            "midi": 72,
            "name": "C5",
            "ticks": 488880,
            "time": 509.25,
            "velocity": 0.8740157480314961
          },
          {
            "duration": 1.2260416666666742,
            "durationTicks": 1177,
            "midi": 60,
            "name": "C4",
            "ticks": 489120,
            "time": 509.5,
            "velocity": 0.889763779527559
          },
          {
            "duration": 1.2260416666666742,
            "durationTicks": 1177,
            "midi": 72,
            "name": "C5",
            "ticks": 489120,
            "time": 509.5,
            "velocity": 0.889763779527559
          },
          {
            "duration": 0.22604166666667425,
            "durationTicks": 217,
            "midi": 60,
            "name": "C4",
            "ticks": 490320,
            "time": 510.75,
            "velocity": 0.905511811023622
          },
          {
            "duration": 0.22604166666667425,
            "durationTicks": 217,
            "midi": 72,
            "name": "C5",
            "ticks": 490320,
            "time": 510.75,
            "velocity": 0.905511811023622
          },
          {
            "duration": 0.22604166666667425,
            "durationTicks": 217,
            "midi": 60,
            "name": "C4",
            "ticks": 490560,
            "time": 511,
            "velocity": 0.8740157480314961
          },
          {
            "duration": 0.22604166666667425,
            "durationTicks": 217,
            "midi": 72,
            "name": "C5",
            "ticks": 490560,
            "time": 511,
            "velocity": 0.8740157480314961
          },
          {
            "duration": 0.22604166666667425,
            "durationTicks": 217,
            "midi": 60,
            "name": "C4",
            "ticks": 490800,
            "time": 511.25,
            "velocity": 0.8661417322834646
          },
          {
            "duration": 0.22604166666667425,
            "durationTicks": 217,
            "midi": 72,
            "name": "C5",
            "ticks": 490800,
            "time": 511.25,
            "velocity": 0.8661417322834646
          },
          {
            "duration": 1.2260416666666742,
            "durationTicks": 1177,
            "midi": 60,
            "name": "C4",
            "ticks": 491040,
            "time": 511.5,
            "velocity": 0.889763779527559
          },
          {
            "duration": 1.2260416666666742,
            "durationTicks": 1177,
            "midi": 72,
            "name": "C5",
            "ticks": 491040,
            "time": 511.5,
            "velocity": 0.889763779527559
          },
          {
            "duration": 0.22604166666667425,
            "durationTicks": 217,
            "midi": 60,
            "name": "C4",
            "ticks": 492240,
            "time": 512.75,
            "velocity": 0.905511811023622
          },
          {
            "duration": 0.22604166666667425,
            "durationTicks": 217,
            "midi": 72,
            "name": "C5",
            "ticks": 492240,
            "time": 512.75,
            "velocity": 0.905511811023622
          },
          {
            "duration": 0.22604166666667425,
            "durationTicks": 217,
            "midi": 60,
            "name": "C4",
            "ticks": 492480,
            "time": 513,
            "velocity": 0.8976377952755905
          },
          {
            "duration": 0.22604166666667425,
            "durationTicks": 217,
            "midi": 72,
            "name": "C5",
            "ticks": 492480,
            "time": 513,
            "velocity": 0.8976377952755905
          },
          {
            "duration": 0.22604166666667425,
            "durationTicks": 217,
            "midi": 60,
            "name": "C4",
            "ticks": 492720,
            "time": 513.25,
            "velocity": 0.8976377952755905
          },
          {
            "duration": 0.22604166666667425,
            "durationTicks": 217,
            "midi": 72,
            "name": "C5",
            "ticks": 492720,
            "time": 513.25,
            "velocity": 0.8976377952755905
          },
          {
            "duration": 0.8999999999999773,
            "durationTicks": 864,
            "midi": 60,
            "name": "C4",
            "ticks": 492960,
            "time": 513.5,
            "velocity": 0.905511811023622
          },
          {
            "duration": 0.8999999999999773,
            "durationTicks": 864,
            "midi": 72,
            "name": "C5",
            "ticks": 492960,
            "time": 513.5,
            "velocity": 0.905511811023622
          },
          {
            "duration": 0.22604166666667425,
            "durationTicks": 217,
            "midi": 60,
            "name": "C4",
            "ticks": 501840,
            "time": 522.75,
            "velocity": 0.8346456692913385
          },
          {
            "duration": 0.22604166666667425,
            "durationTicks": 217,
            "midi": 72,
            "name": "C5",
            "ticks": 501840,
            "time": 522.75,
            "velocity": 0.8346456692913385
          },
          {
            "duration": 0.22604166666667425,
            "durationTicks": 217,
            "midi": 60,
            "name": "C4",
            "ticks": 502080,
            "time": 523,
            "velocity": 0.8818897637795275
          },
          {
            "duration": 0.22604166666667425,
            "durationTicks": 217,
            "midi": 72,
            "name": "C5",
            "ticks": 502080,
            "time": 523,
            "velocity": 0.8818897637795275
          },
          {
            "duration": 0.22604166666667425,
            "durationTicks": 217,
            "midi": 60,
            "name": "C4",
            "ticks": 502320,
            "time": 523.25,
            "velocity": 0.8818897637795275
          },
          {
            "duration": 0.22604166666667425,
            "durationTicks": 217,
            "midi": 72,
            "name": "C5",
            "ticks": 502320,
            "time": 523.25,
            "velocity": 0.8818897637795275
          },
          {
            "duration": 3.8999999999999773,
            "durationTicks": 3744,
            "midi": 60,
            "name": "C4",
            "ticks": 502560,
            "time": 523.5,
            "velocity": 0.8661417322834646
          },
          {
            "duration": 3.8999999999999773,
            "durationTicks": 3744,
            "midi": 72,
            "name": "C5",
            "ticks": 502560,
            "time": 523.5,
            "velocity": 0.8661417322834646
          },
          {
            "duration": 0.451041666666697,
            "durationTicks": 433,
            "midi": 60,
            "name": "C4",
            "ticks": 506400,
            "time": 527.5,
            "velocity": 0.8818897637795275
          },
          {
            "duration": 0.451041666666697,
            "durationTicks": 433,
            "midi": 72,
            "name": "C5",
            "ticks": 506400,
            "time": 527.5,
            "velocity": 0.8818897637795275
          },
          {
            "duration": 0.22604166666667425,
            "durationTicks": 217,
            "midi": 60,
            "name": "C4",
            "ticks": 507600,
            "time": 528.75,
            "velocity": 0.8110236220472441
          },
          {
            "duration": 0.22604166666667425,
            "durationTicks": 217,
            "midi": 72,
            "name": "C5",
            "ticks": 507600,
            "time": 528.75,
            "velocity": 0.8110236220472441
          },
          {
            "duration": 0.22604166666667425,
            "durationTicks": 217,
            "midi": 60,
            "name": "C4",
            "ticks": 507840,
            "time": 529,
            "velocity": 0.889763779527559
          },
          {
            "duration": 0.22604166666667425,
            "durationTicks": 217,
            "midi": 72,
            "name": "C5",
            "ticks": 507840,
            "time": 529,
            "velocity": 0.889763779527559
          },
          {
            "duration": 0.22604166666667425,
            "durationTicks": 217,
            "midi": 60,
            "name": "C4",
            "ticks": 508080,
            "time": 529.25,
            "velocity": 0.889763779527559
          },
          {
            "duration": 0.22604166666667425,
            "durationTicks": 217,
            "midi": 72,
            "name": "C5",
            "ticks": 508080,
            "time": 529.25,
            "velocity": 0.889763779527559
          },
          {
            "duration": 0.451041666666697,
            "durationTicks": 433,
            "midi": 60,
            "name": "C4",
            "ticks": 508320,
            "time": 529.5,
            "velocity": 0.9133858267716536
          },
          {
            "duration": 0.451041666666697,
            "durationTicks": 433,
            "midi": 72,
            "name": "C5",
            "ticks": 508320,
            "time": 529.5,
            "velocity": 0.9133858267716536
          },
          {
            "duration": 0.451041666666697,
            "durationTicks": 433,
            "midi": 55,
            "name": "G3",
            "ticks": 510240,
            "time": 531.5,
            "velocity": 0.6929133858267716
          },
          {
            "duration": 0.451041666666697,
            "durationTicks": 433,
            "midi": 67,
            "name": "G4",
            "ticks": 510240,
            "time": 531.5,
            "velocity": 0.6929133858267716
          },
          {
            "duration": 0.451041666666697,
            "durationTicks": 433,
            "midi": 55,
            "name": "G3",
            "ticks": 514080,
            "time": 535.5,
            "velocity": 0.6771653543307087
          },
          {
            "duration": 0.451041666666697,
            "durationTicks": 433,
            "midi": 67,
            "name": "G4",
            "ticks": 514080,
            "time": 535.5,
            "velocity": 0.6771653543307087
          },
          {
            "duration": 0.451041666666697,
            "durationTicks": 433,
            "midi": 55,
            "name": "G3",
            "ticks": 526080,
            "time": 548,
            "velocity": 0.7007874015748031
          },
          {
            "duration": 0.451041666666697,
            "durationTicks": 433,
            "midi": 67,
            "name": "G4",
            "ticks": 526080,
            "time": 548,
            "velocity": 0.7007874015748031
          },
          {
            "duration": 0.451041666666697,
            "durationTicks": 433,
            "midi": 55,
            "name": "G3",
            "ticks": 526560,
            "time": 548.5,
            "velocity": 0.7559055118110236
          },
          {
            "duration": 0.451041666666697,
            "durationTicks": 433,
            "midi": 67,
            "name": "G4",
            "ticks": 526560,
            "time": 548.5,
            "velocity": 0.7559055118110236
          },
          {
            "duration": 0.451041666666697,
            "durationTicks": 433,
            "midi": 55,
            "name": "G3",
            "ticks": 527040,
            "time": 549,
            "velocity": 0.7244094488188977
          },
          {
            "duration": 0.451041666666697,
            "durationTicks": 433,
            "midi": 67,
            "name": "G4",
            "ticks": 527040,
            "time": 549,
            "velocity": 0.7244094488188977
          },
          {
            "duration": 0.451041666666697,
            "durationTicks": 433,
            "midi": 55,
            "name": "G3",
            "ticks": 527520,
            "time": 549.5,
            "velocity": 0.7637795275590551
          },
          {
            "duration": 0.451041666666697,
            "durationTicks": 433,
            "midi": 67,
            "name": "G4",
            "ticks": 527520,
            "time": 549.5,
            "velocity": 0.7637795275590551
          },
          {
            "duration": 0.451041666666697,
            "durationTicks": 433,
            "midi": 55,
            "name": "G3",
            "ticks": 528000,
            "time": 550,
            "velocity": 0.7716535433070866
          },
          {
            "duration": 0.451041666666697,
            "durationTicks": 433,
            "midi": 67,
            "name": "G4",
            "ticks": 528000,
            "time": 550,
            "velocity": 0.7716535433070866
          },
          {
            "duration": 0.451041666666697,
            "durationTicks": 433,
            "midi": 55,
            "name": "G3",
            "ticks": 528480,
            "time": 550.5,
            "velocity": 0.8031496062992126
          },
          {
            "duration": 0.451041666666697,
            "durationTicks": 433,
            "midi": 67,
            "name": "G4",
            "ticks": 528480,
            "time": 550.5,
            "velocity": 0.8031496062992126
          },
          {
            "duration": 0.451041666666697,
            "durationTicks": 433,
            "midi": 60,
            "name": "C4",
            "ticks": 528960,
            "time": 551,
            "velocity": 0.905511811023622
          },
          {
            "duration": 0.451041666666697,
            "durationTicks": 433,
            "midi": 72,
            "name": "C5",
            "ticks": 528960,
            "time": 551,
            "velocity": 0.905511811023622
          },
          {
            "duration": 0.451041666666697,
            "durationTicks": 433,
            "midi": 60,
            "name": "C4",
            "ticks": 529440,
            "time": 551.5,
            "velocity": 0.7716535433070866
          },
          {
            "duration": 0.451041666666697,
            "durationTicks": 433,
            "midi": 72,
            "name": "C5",
            "ticks": 529440,
            "time": 551.5,
            "velocity": 0.7716535433070866
          },
          {
            "duration": 0.451041666666697,
            "durationTicks": 433,
            "midi": 60,
            "name": "C4",
            "ticks": 529920,
            "time": 552,
            "velocity": 0.7637795275590551
          },
          {
            "duration": 0.451041666666697,
            "durationTicks": 433,
            "midi": 72,
            "name": "C5",
            "ticks": 529920,
            "time": 552,
            "velocity": 0.7637795275590551
          },
          {
            "duration": 0.451041666666697,
            "durationTicks": 433,
            "midi": 60,
            "name": "C4",
            "ticks": 530400,
            "time": 552.5,
            "velocity": 0.7952755905511811
          },
          {
            "duration": 0.451041666666697,
            "durationTicks": 433,
            "midi": 72,
            "name": "C5",
            "ticks": 530400,
            "time": 552.5,
            "velocity": 0.7952755905511811
          },
          {
            "duration": 0.451041666666697,
            "durationTicks": 433,
            "midi": 55,
            "name": "G3",
            "ticks": 530880,
            "time": 553,
            "velocity": 0.6771653543307087
          },
          {
            "duration": 0.451041666666697,
            "durationTicks": 433,
            "midi": 67,
            "name": "G4",
            "ticks": 530880,
            "time": 553,
            "velocity": 0.6771653543307087
          },
          {
            "duration": 0.451041666666697,
            "durationTicks": 433,
            "midi": 55,
            "name": "G3",
            "ticks": 531360,
            "time": 553.5,
            "velocity": 0.7322834645669292
          },
          {
            "duration": 0.451041666666697,
            "durationTicks": 433,
            "midi": 67,
            "name": "G4",
            "ticks": 531360,
            "time": 553.5,
            "velocity": 0.7322834645669292
          },
          {
            "duration": 0.451041666666697,
            "durationTicks": 433,
            "midi": 55,
            "name": "G3",
            "ticks": 531840,
            "time": 554,
            "velocity": 0.7559055118110236
          },
          {
            "duration": 0.451041666666697,
            "durationTicks": 433,
            "midi": 67,
            "name": "G4",
            "ticks": 531840,
            "time": 554,
            "velocity": 0.7559055118110236
          },
          {
            "duration": 0.451041666666697,
            "durationTicks": 433,
            "midi": 55,
            "name": "G3",
            "ticks": 532320,
            "time": 554.5,
            "velocity": 0.8031496062992126
          },
          {
            "duration": 0.451041666666697,
            "durationTicks": 433,
            "midi": 67,
            "name": "G4",
            "ticks": 532320,
            "time": 554.5,
            "velocity": 0.8031496062992126
          },
          {
            "duration": 0.451041666666697,
            "durationTicks": 433,
            "midi": 55,
            "name": "G3",
            "ticks": 532800,
            "time": 555,
            "velocity": 0.7952755905511811
          },
          {
            "duration": 0.451041666666697,
            "durationTicks": 433,
            "midi": 67,
            "name": "G4",
            "ticks": 532800,
            "time": 555,
            "velocity": 0.7952755905511811
          },
          {
            "duration": 1.8999999999999773,
            "durationTicks": 1824,
            "midi": 60,
            "name": "C4",
            "ticks": 533280,
            "time": 555.5,
            "velocity": 0.8976377952755905
          },
          {
            "duration": 1.8999999999999773,
            "durationTicks": 1824,
            "midi": 72,
            "name": "C5",
            "ticks": 533280,
            "time": 555.5,
            "velocity": 0.8976377952755905
          },
          {
            "duration": 1.8999999999999773,
            "durationTicks": 1824,
            "midi": 60,
            "name": "C4",
            "ticks": 535200,
            "time": 557.5,
            "velocity": 0.7480314960629921
          },
          {
            "duration": 1.8999999999999773,
            "durationTicks": 1824,
            "midi": 72,
            "name": "C5",
            "ticks": 535200,
            "time": 557.5,
            "velocity": 0.7480314960629921
          },
          {
            "duration": 1.8999999999999773,
            "durationTicks": 1824,
            "midi": 60,
            "name": "C4",
            "ticks": 537120,
            "time": 559.5,
            "velocity": 0.7795275590551181
          },
          {
            "duration": 1.8999999999999773,
            "durationTicks": 1824,
            "midi": 72,
            "name": "C5",
            "ticks": 537120,
            "time": 559.5,
            "velocity": 0.7795275590551181
          },
          {
            "duration": 1.8999999999999773,
            "durationTicks": 1824,
            "midi": 60,
            "name": "C4",
            "ticks": 539040,
            "time": 561.5,
            "velocity": 0.7952755905511811
          },
          {
            "duration": 1.8999999999999773,
            "durationTicks": 1824,
            "midi": 72,
            "name": "C5",
            "ticks": 539040,
            "time": 561.5,
            "velocity": 0.7952755905511811
          },
          {
            "duration": 0.8999999999999773,
            "durationTicks": 864,
            "midi": 55,
            "name": "G3",
            "ticks": 540960,
            "time": 563.5,
            "velocity": 0.6771653543307087
          },
          {
            "duration": 0.8999999999999773,
            "durationTicks": 864,
            "midi": 67,
            "name": "G4",
            "ticks": 540960,
            "time": 563.5,
            "velocity": 0.6771653543307087
          },
          {
            "duration": 0.8999999999999773,
            "durationTicks": 864,
            "midi": 55,
            "name": "G3",
            "ticks": 541920,
            "time": 564.5,
            "velocity": 0.7795275590551181
          },
          {
            "duration": 0.8999999999999773,
            "durationTicks": 864,
            "midi": 67,
            "name": "G4",
            "ticks": 541920,
            "time": 564.5,
            "velocity": 0.7795275590551181
          },
          {
            "duration": 0.22500000000002274,
            "durationTicks": 216,
            "midi": 60,
            "name": "C4",
            "ticks": 542880,
            "time": 565.5,
            "velocity": 0.8818897637795275
          },
          {
            "duration": 0.22500000000002274,
            "durationTicks": 216,
            "midi": 72,
            "name": "C5",
            "ticks": 542880,
            "time": 565.5,
            "velocity": 0.8818897637795275
          },
          {
            "duration": 0.22500000000002274,
            "durationTicks": 216,
            "midi": 60,
            "name": "C4",
            "ticks": 543840,
            "time": 566.5,
            "velocity": 0.7165354330708661
          },
          {
            "duration": 0.22500000000002274,
            "durationTicks": 216,
            "midi": 72,
            "name": "C5",
            "ticks": 543840,
            "time": 566.5,
            "velocity": 0.7165354330708661
          },
          {
            "duration": 0.22500000000002274,
            "durationTicks": 216,
            "midi": 60,
            "name": "C4",
            "ticks": 544800,
            "time": 567.5,
            "velocity": 0.7007874015748031
          },
          {
            "duration": 0.22500000000002274,
            "durationTicks": 216,
            "midi": 72,
            "name": "C5",
            "ticks": 544800,
            "time": 567.5,
            "velocity": 0.7007874015748031
          },
          {
            "duration": 0.22500000000002274,
            "durationTicks": 216,
            "midi": 60,
            "name": "C4",
            "ticks": 545760,
            "time": 568.5,
            "velocity": 0.7322834645669292
          },
          {
            "duration": 0.22500000000002274,
            "durationTicks": 216,
            "midi": 72,
            "name": "C5",
            "ticks": 545760,
            "time": 568.5,
            "velocity": 0.7322834645669292
          },
          {
            "duration": 0.22500000000002274,
            "durationTicks": 216,
            "midi": 55,
            "name": "G3",
            "ticks": 546720,
            "time": 569.5,
            "velocity": 0.7007874015748031
          },
          {
            "duration": 0.22500000000002274,
            "durationTicks": 216,
            "midi": 67,
            "name": "G4",
            "ticks": 546720,
            "time": 569.5,
            "velocity": 0.7007874015748031
          },
          {
            "duration": 0.22500000000002274,
            "durationTicks": 216,
            "midi": 55,
            "name": "G3",
            "ticks": 547680,
            "time": 570.5,
            "velocity": 0.7244094488188977
          },
          {
            "duration": 0.22500000000002274,
            "durationTicks": 216,
            "midi": 67,
            "name": "G4",
            "ticks": 547680,
            "time": 570.5,
            "velocity": 0.7244094488188977
          },
          {
            "duration": 0.8999999999999773,
            "durationTicks": 864,
            "midi": 60,
            "name": "C4",
            "ticks": 548640,
            "time": 571.5,
            "velocity": 0.7244094488188977
          },
          {
            "duration": 0.8999999999999773,
            "durationTicks": 864,
            "midi": 72,
            "name": "C5",
            "ticks": 548640,
            "time": 571.5,
            "velocity": 0.7244094488188977
          },
          {
            "duration": 0.451041666666697,
            "durationTicks": 433,
            "midi": 60,
            "name": "C4",
            "ticks": 549600,
            "time": 572.5,
            "velocity": 0.7637795275590551
          },
          {
            "duration": 0.451041666666697,
            "durationTicks": 433,
            "midi": 72,
            "name": "C5",
            "ticks": 549600,
            "time": 572.5,
            "velocity": 0.7637795275590551
          },
          {
            "duration": 0.451041666666697,
            "durationTicks": 433,
            "midi": 60,
            "name": "C4",
            "ticks": 550080,
            "time": 573,
            "velocity": 0.7637795275590551
          },
          {
            "duration": 0.451041666666697,
            "durationTicks": 433,
            "midi": 72,
            "name": "C5",
            "ticks": 550080,
            "time": 573,
            "velocity": 0.7637795275590551
          },
          {
            "duration": 0.8999999999999773,
            "durationTicks": 864,
            "midi": 60,
            "name": "C4",
            "ticks": 550560,
            "time": 573.5,
            "velocity": 0.7795275590551181
          },
          {
            "duration": 0.8999999999999773,
            "durationTicks": 864,
            "midi": 72,
            "name": "C5",
            "ticks": 550560,
            "time": 573.5,
            "velocity": 0.7795275590551181
          },
          {
            "duration": 0.451041666666697,
            "durationTicks": 433,
            "midi": 60,
            "name": "C4",
            "ticks": 551520,
            "time": 574.5,
            "velocity": 0.7559055118110236
          },
          {
            "duration": 0.451041666666697,
            "durationTicks": 433,
            "midi": 72,
            "name": "C5",
            "ticks": 551520,
            "time": 574.5,
            "velocity": 0.7559055118110236
          },
          {
            "duration": 0.451041666666697,
            "durationTicks": 433,
            "midi": 60,
            "name": "C4",
            "ticks": 552000,
            "time": 575,
            "velocity": 0.7795275590551181
          },
          {
            "duration": 0.451041666666697,
            "durationTicks": 433,
            "midi": 72,
            "name": "C5",
            "ticks": 552000,
            "time": 575,
            "velocity": 0.7795275590551181
          },
          {
            "duration": 0.8999999999999773,
            "durationTicks": 864,
            "midi": 60,
            "name": "C4",
            "ticks": 552480,
            "time": 575.5,
            "velocity": 0.7874015748031497
          },
          {
            "duration": 0.8999999999999773,
            "durationTicks": 864,
            "midi": 72,
            "name": "C5",
            "ticks": 552480,
            "time": 575.5,
            "velocity": 0.7874015748031497
          },
          {
            "duration": 0.451041666666697,
            "durationTicks": 433,
            "midi": 60,
            "name": "C4",
            "ticks": 553440,
            "time": 576.5,
            "velocity": 0.7401574803149606
          },
          {
            "duration": 0.451041666666697,
            "durationTicks": 433,
            "midi": 72,
            "name": "C5",
            "ticks": 553440,
            "time": 576.5,
            "velocity": 0.7401574803149606
          },
          {
            "duration": 0.451041666666697,
            "durationTicks": 433,
            "midi": 60,
            "name": "C4",
            "ticks": 553920,
            "time": 577,
            "velocity": 0.7401574803149606
          },
          {
            "duration": 0.451041666666697,
            "durationTicks": 433,
            "midi": 72,
            "name": "C5",
            "ticks": 553920,
            "time": 577,
            "velocity": 0.7401574803149606
          },
          {
            "duration": 0.8999999999999773,
            "durationTicks": 864,
            "midi": 60,
            "name": "C4",
            "ticks": 554400,
            "time": 577.5,
            "velocity": 0.7795275590551181
          },
          {
            "duration": 0.8999999999999773,
            "durationTicks": 864,
            "midi": 72,
            "name": "C5",
            "ticks": 554400,
            "time": 577.5,
            "velocity": 0.7795275590551181
          },
          {
            "duration": 0.451041666666697,
            "durationTicks": 433,
            "midi": 55,
            "name": "G3",
            "ticks": 555360,
            "time": 578.5,
            "velocity": 0.6456692913385826
          },
          {
            "duration": 0.451041666666697,
            "durationTicks": 433,
            "midi": 67,
            "name": "G4",
            "ticks": 555360,
            "time": 578.5,
            "velocity": 0.6456692913385826
          },
          {
            "duration": 0.451041666666697,
            "durationTicks": 433,
            "midi": 55,
            "name": "G3",
            "ticks": 555840,
            "time": 579,
            "velocity": 0.7322834645669292
          },
          {
            "duration": 0.451041666666697,
            "durationTicks": 433,
            "midi": 67,
            "name": "G4",
            "ticks": 555840,
            "time": 579,
            "velocity": 0.7322834645669292
          },
          {
            "duration": 0.8999999999999773,
            "durationTicks": 864,
            "midi": 55,
            "name": "G3",
            "ticks": 556320,
            "time": 579.5,
            "velocity": 0.7795275590551181
          },
          {
            "duration": 0.8999999999999773,
            "durationTicks": 864,
            "midi": 67,
            "name": "G4",
            "ticks": 556320,
            "time": 579.5,
            "velocity": 0.7795275590551181
          },
          {
            "duration": 0.451041666666697,
            "durationTicks": 433,
            "midi": 55,
            "name": "G3",
            "ticks": 557280,
            "time": 580.5,
            "velocity": 0.7165354330708661
          },
          {
            "duration": 0.451041666666697,
            "durationTicks": 433,
            "midi": 67,
            "name": "G4",
            "ticks": 557280,
            "time": 580.5,
            "velocity": 0.7165354330708661
          },
          {
            "duration": 0.451041666666697,
            "durationTicks": 433,
            "midi": 55,
            "name": "G3",
            "ticks": 557760,
            "time": 581,
            "velocity": 0.7874015748031497
          },
          {
            "duration": 0.451041666666697,
            "durationTicks": 433,
            "midi": 67,
            "name": "G4",
            "ticks": 557760,
            "time": 581,
            "velocity": 0.7874015748031497
          },
          {
            "duration": 0.8999999999999773,
            "durationTicks": 864,
            "midi": 55,
            "name": "G3",
            "ticks": 558240,
            "time": 581.5,
            "velocity": 0.7716535433070866
          },
          {
            "duration": 0.8999999999999773,
            "durationTicks": 864,
            "midi": 67,
            "name": "G4",
            "ticks": 558240,
            "time": 581.5,
            "velocity": 0.7716535433070866
          },
          {
            "duration": 0.451041666666697,
            "durationTicks": 433,
            "midi": 55,
            "name": "G3",
            "ticks": 559200,
            "time": 582.5,
            "velocity": 0.7637795275590551
          },
          {
            "duration": 0.451041666666697,
            "durationTicks": 433,
            "midi": 67,
            "name": "G4",
            "ticks": 559200,
            "time": 582.5,
            "velocity": 0.7637795275590551
          },
          {
            "duration": 0.451041666666697,
            "durationTicks": 433,
            "midi": 55,
            "name": "G3",
            "ticks": 559680,
            "time": 583,
            "velocity": 0.8110236220472441
          },
          {
            "duration": 0.451041666666697,
            "durationTicks": 433,
            "midi": 67,
            "name": "G4",
            "ticks": 559680,
            "time": 583,
            "velocity": 0.8110236220472441
          },
          {
            "duration": 0.8999999999999773,
            "durationTicks": 864,
            "midi": 55,
            "name": "G3",
            "ticks": 560160,
            "time": 583.5,
            "velocity": 0.7637795275590551
          },
          {
            "duration": 0.8999999999999773,
            "durationTicks": 864,
            "midi": 67,
            "name": "G4",
            "ticks": 560160,
            "time": 583.5,
            "velocity": 0.7637795275590551
          },
          {
            "duration": 0.451041666666697,
            "durationTicks": 433,
            "midi": 55,
            "name": "G3",
            "ticks": 561120,
            "time": 584.5,
            "velocity": 0.7559055118110236
          },
          {
            "duration": 0.451041666666697,
            "durationTicks": 433,
            "midi": 67,
            "name": "G4",
            "ticks": 561120,
            "time": 584.5,
            "velocity": 0.7559055118110236
          },
          {
            "duration": 0.451041666666697,
            "durationTicks": 433,
            "midi": 55,
            "name": "G3",
            "ticks": 561600,
            "time": 585,
            "velocity": 0.7559055118110236
          },
          {
            "duration": 0.451041666666697,
            "durationTicks": 433,
            "midi": 67,
            "name": "G4",
            "ticks": 561600,
            "time": 585,
            "velocity": 0.7559055118110236
          },
          {
            "duration": 0.451041666666697,
            "durationTicks": 433,
            "midi": 60,
            "name": "C4",
            "ticks": 562080,
            "time": 585.5,
            "velocity": 0.7637795275590551
          },
          {
            "duration": 0.451041666666697,
            "durationTicks": 433,
            "midi": 67,
            "name": "G4",
            "ticks": 562080,
            "time": 585.5,
            "velocity": 0.7637795275590551
          },
          {
            "duration": 0.451041666666697,
            "durationTicks": 433,
            "midi": 60,
            "name": "C4",
            "ticks": 564960,
            "time": 588.5,
            "velocity": 0.6850393700787402
          },
          {
            "duration": 0.451041666666697,
            "durationTicks": 433,
            "midi": 72,
            "name": "C5",
            "ticks": 564960,
            "time": 588.5,
            "velocity": 0.6850393700787402
          },
          {
            "duration": 0.451041666666697,
            "durationTicks": 433,
            "midi": 60,
            "name": "C4",
            "ticks": 565440,
            "time": 589,
            "velocity": 0.7244094488188977
          },
          {
            "duration": 0.451041666666697,
            "durationTicks": 433,
            "midi": 72,
            "name": "C5",
            "ticks": 565440,
            "time": 589,
            "velocity": 0.7244094488188977
          },
          {
            "duration": 0.451041666666697,
            "durationTicks": 433,
            "midi": 60,
            "name": "C4",
            "ticks": 566880,
            "time": 590.5,
            "velocity": 0.7559055118110236
          },
          {
            "duration": 0.451041666666697,
            "durationTicks": 433,
            "midi": 72,
            "name": "C5",
            "ticks": 566880,
            "time": 590.5,
            "velocity": 0.7559055118110236
          },
          {
            "duration": 0.451041666666697,
            "durationTicks": 433,
            "midi": 60,
            "name": "C4",
            "ticks": 567360,
            "time": 591,
            "velocity": 0.7874015748031497
          },
          {
            "duration": 0.451041666666697,
            "durationTicks": 433,
            "midi": 72,
            "name": "C5",
            "ticks": 567360,
            "time": 591,
            "velocity": 0.7874015748031497
          },
          {
            "duration": 0.451041666666697,
            "durationTicks": 433,
            "midi": 55,
            "name": "G3",
            "ticks": 568320,
            "time": 592,
            "velocity": 0.7007874015748031
          },
          {
            "duration": 0.451041666666697,
            "durationTicks": 433,
            "midi": 67,
            "name": "G4",
            "ticks": 568320,
            "time": 592,
            "velocity": 0.7007874015748031
          },
          {
            "duration": 0.451041666666697,
            "durationTicks": 433,
            "midi": 55,
            "name": "G3",
            "ticks": 569280,
            "time": 593,
            "velocity": 0.6929133858267716
          },
          {
            "duration": 0.451041666666697,
            "durationTicks": 433,
            "midi": 67,
            "name": "G4",
            "ticks": 569280,
            "time": 593,
            "velocity": 0.6929133858267716
          },
          {
            "duration": 0.451041666666697,
            "durationTicks": 433,
            "midi": 60,
            "name": "C4",
            "ticks": 571680,
            "time": 595.5,
            "velocity": 0.84251968503937
          },
          {
            "duration": 0.451041666666697,
            "durationTicks": 433,
            "midi": 72,
            "name": "C5",
            "ticks": 571680,
            "time": 595.5,
            "velocity": 0.84251968503937
          },
          {
            "duration": 0.451041666666697,
            "durationTicks": 433,
            "midi": 60,
            "name": "C4",
            "ticks": 572160,
            "time": 596,
            "velocity": 0.7952755905511811
          },
          {
            "duration": 0.451041666666697,
            "durationTicks": 433,
            "midi": 72,
            "name": "C5",
            "ticks": 572160,
            "time": 596,
            "velocity": 0.7952755905511811
          },
          {
            "duration": 0.451041666666697,
            "durationTicks": 433,
            "midi": 60,
            "name": "C4",
            "ticks": 572640,
            "time": 596.5,
            "velocity": 0.7559055118110236
          },
          {
            "duration": 0.451041666666697,
            "durationTicks": 433,
            "midi": 72,
            "name": "C5",
            "ticks": 572640,
            "time": 596.5,
            "velocity": 0.7559055118110236
          },
          {
            "duration": 0.451041666666697,
            "durationTicks": 433,
            "midi": 60,
            "name": "C4",
            "ticks": 573120,
            "time": 597,
            "velocity": 0.7559055118110236
          },
          {
            "duration": 0.451041666666697,
            "durationTicks": 433,
            "midi": 72,
            "name": "C5",
            "ticks": 573120,
            "time": 597,
            "velocity": 0.7559055118110236
          },
          {
            "duration": 0.451041666666697,
            "durationTicks": 433,
            "midi": 60,
            "name": "C4",
            "ticks": 573600,
            "time": 597.5,
            "velocity": 0.8110236220472441
          },
          {
            "duration": 0.451041666666697,
            "durationTicks": 433,
            "midi": 72,
            "name": "C5",
            "ticks": 573600,
            "time": 597.5,
            "velocity": 0.8110236220472441
          },
          {
            "duration": 0.451041666666697,
            "durationTicks": 433,
            "midi": 60,
            "name": "C4",
            "ticks": 574080,
            "time": 598,
            "velocity": 0.7716535433070866
          },
          {
            "duration": 0.451041666666697,
            "durationTicks": 433,
            "midi": 72,
            "name": "C5",
            "ticks": 574080,
            "time": 598,
            "velocity": 0.7716535433070866
          },
          {
            "duration": 0.451041666666697,
            "durationTicks": 433,
            "midi": 60,
            "name": "C4",
            "ticks": 574560,
            "time": 598.5,
            "velocity": 0.7795275590551181
          },
          {
            "duration": 0.451041666666697,
            "durationTicks": 433,
            "midi": 72,
            "name": "C5",
            "ticks": 574560,
            "time": 598.5,
            "velocity": 0.7795275590551181
          },
          {
            "duration": 0.451041666666697,
            "durationTicks": 433,
            "midi": 60,
            "name": "C4",
            "ticks": 575040,
            "time": 599,
            "velocity": 0.7952755905511811
          },
          {
            "duration": 0.451041666666697,
            "durationTicks": 433,
            "midi": 72,
            "name": "C5",
            "ticks": 575040,
            "time": 599,
            "velocity": 0.7952755905511811
          },
          {
            "duration": 0.451041666666697,
            "durationTicks": 433,
            "midi": 55,
            "name": "G3",
            "ticks": 576000,
            "time": 600,
            "velocity": 0.6771653543307087
          },
          {
            "duration": 0.451041666666697,
            "durationTicks": 433,
            "midi": 67,
            "name": "G4",
            "ticks": 576000,
            "time": 600,
            "velocity": 0.6771653543307087
          },
          {
            "duration": 0.451041666666697,
            "durationTicks": 433,
            "midi": 55,
            "name": "G3",
            "ticks": 576960,
            "time": 601,
            "velocity": 0.7086614173228346
          },
          {
            "duration": 0.451041666666697,
            "durationTicks": 433,
            "midi": 67,
            "name": "G4",
            "ticks": 576960,
            "time": 601,
            "velocity": 0.7086614173228346
          },
          {
            "duration": 0.451041666666697,
            "durationTicks": 433,
            "midi": 60,
            "name": "C4",
            "ticks": 577440,
            "time": 601.5,
            "velocity": 0.8267716535433071
          },
          {
            "duration": 0.451041666666697,
            "durationTicks": 433,
            "midi": 72,
            "name": "C5",
            "ticks": 577440,
            "time": 601.5,
            "velocity": 0.8267716535433071
          },
          {
            "duration": 0.22604166666667425,
            "durationTicks": 217,
            "midi": 55,
            "name": "G3",
            "ticks": 582480,
            "time": 606.75,
            "velocity": 0.7007874015748031
          },
          {
            "duration": 0.22604166666667425,
            "durationTicks": 217,
            "midi": 67,
            "name": "G4",
            "ticks": 582480,
            "time": 606.75,
            "velocity": 0.7007874015748031
          },
          {
            "duration": 0.22604166666667425,
            "durationTicks": 217,
            "midi": 55,
            "name": "G3",
            "ticks": 582720,
            "time": 607,
            "velocity": 0.7401574803149606
          },
          {
            "duration": 0.22604166666667425,
            "durationTicks": 217,
            "midi": 67,
            "name": "G4",
            "ticks": 582720,
            "time": 607,
            "velocity": 0.7401574803149606
          },
          {
            "duration": 0.22604166666667425,
            "durationTicks": 217,
            "midi": 55,
            "name": "G3",
            "ticks": 582960,
            "time": 607.25,
            "velocity": 0.8110236220472441
          },
          {
            "duration": 0.22604166666667425,
            "durationTicks": 217,
            "midi": 67,
            "name": "G4",
            "ticks": 582960,
            "time": 607.25,
            "velocity": 0.8110236220472441
          },
          {
            "duration": 0.451041666666697,
            "durationTicks": 433,
            "midi": 60,
            "name": "C4",
            "ticks": 583200,
            "time": 607.5,
            "velocity": 0.9212598425196851
          },
          {
            "duration": 0.451041666666697,
            "durationTicks": 433,
            "midi": 72,
            "name": "C5",
            "ticks": 583200,
            "time": 607.5,
            "velocity": 0.9212598425196851
          },
          {
            "duration": 0.22604166666667425,
            "durationTicks": 217,
            "midi": 55,
            "name": "G3",
            "ticks": 586320,
            "time": 610.75,
            "velocity": 0.7086614173228346
          },
          {
            "duration": 0.22604166666667425,
            "durationTicks": 217,
            "midi": 67,
            "name": "G4",
            "ticks": 586320,
            "time": 610.75,
            "velocity": 0.7086614173228346
          },
          {
            "duration": 0.22604166666667425,
            "durationTicks": 217,
            "midi": 55,
            "name": "G3",
            "ticks": 586560,
            "time": 611,
            "velocity": 0.7637795275590551
          },
          {
            "duration": 0.22604166666667425,
            "durationTicks": 217,
            "midi": 67,
            "name": "G4",
            "ticks": 586560,
            "time": 611,
            "velocity": 0.7637795275590551
          },
          {
            "duration": 0.22604166666667425,
            "durationTicks": 217,
            "midi": 55,
            "name": "G3",
            "ticks": 586800,
            "time": 611.25,
            "velocity": 0.7165354330708661
          },
          {
            "duration": 0.22604166666667425,
            "durationTicks": 217,
            "midi": 67,
            "name": "G4",
            "ticks": 586800,
            "time": 611.25,
            "velocity": 0.7165354330708661
          },
          {
            "duration": 1.5,
            "durationTicks": 1440,
            "midi": 55,
            "name": "G3",
            "ticks": 587040,
            "time": 611.5,
            "velocity": 0.889763779527559
          },
          {
            "duration": 1.5,
            "durationTicks": 1440,
            "midi": 67,
            "name": "G4",
            "ticks": 587040,
            "time": 611.5,
            "velocity": 0.889763779527559
          },
          {
            "duration": 0.22604166666667425,
            "durationTicks": 217,
            "midi": 55,
            "name": "G3",
            "ticks": 588720,
            "time": 613.25,
            "velocity": 0.8110236220472441
          },
          {
            "duration": 0.22604166666667425,
            "durationTicks": 217,
            "midi": 67,
            "name": "G4",
            "ticks": 588720,
            "time": 613.25,
            "velocity": 0.8110236220472441
          },
          {
            "duration": 0.22604166666667425,
            "durationTicks": 217,
            "midi": 55,
            "name": "G3",
            "ticks": 588960,
            "time": 613.5,
            "velocity": 0.8976377952755905
          },
          {
            "duration": 0.22604166666667425,
            "durationTicks": 217,
            "midi": 67,
            "name": "G4",
            "ticks": 588960,
            "time": 613.5,
            "velocity": 0.8976377952755905
          },
          {
            "duration": 0.22604166666667425,
            "durationTicks": 217,
            "midi": 55,
            "name": "G3",
            "ticks": 589200,
            "time": 613.75,
            "velocity": 0.8818897637795275
          },
          {
            "duration": 0.22604166666667425,
            "durationTicks": 217,
            "midi": 67,
            "name": "G4",
            "ticks": 589200,
            "time": 613.75,
            "velocity": 0.8818897637795275
          },
          {
            "duration": 2.5,
            "durationTicks": 2400,
            "midi": 55,
            "name": "G3",
            "ticks": 589440,
            "time": 614,
            "velocity": 0.9133858267716536
          },
          {
            "duration": 2.5,
            "durationTicks": 2400,
            "midi": 67,
            "name": "G4",
            "ticks": 589440,
            "time": 614,
            "velocity": 0.9133858267716536
          },
          {
            "duration": 0.22604166666667425,
            "durationTicks": 217,
            "midi": 55,
            "name": "G3",
            "ticks": 599760,
            "time": 624.75,
            "velocity": 0.7952755905511811
          },
          {
            "duration": 0.22604166666667425,
            "durationTicks": 217,
            "midi": 67,
            "name": "G4",
            "ticks": 599760,
            "time": 624.75,
            "velocity": 0.7952755905511811
          },
          {
            "duration": 0.22604166666667425,
            "durationTicks": 217,
            "midi": 55,
            "name": "G3",
            "ticks": 600000,
            "time": 625,
            "velocity": 0.8818897637795275
          },
          {
            "duration": 0.22604166666667425,
            "durationTicks": 217,
            "midi": 67,
            "name": "G4",
            "ticks": 600000,
            "time": 625,
            "velocity": 0.8818897637795275
          },
          {
            "duration": 0.22604166666667425,
            "durationTicks": 217,
            "midi": 55,
            "name": "G3",
            "ticks": 600240,
            "time": 625.25,
            "velocity": 0.8976377952755905
          },
          {
            "duration": 0.22604166666667425,
            "durationTicks": 217,
            "midi": 67,
            "name": "G4",
            "ticks": 600240,
            "time": 625.25,
            "velocity": 0.8976377952755905
          },
          {
            "duration": 0.451041666666697,
            "durationTicks": 433,
            "midi": 60,
            "name": "C4",
            "ticks": 600480,
            "time": 625.5,
            "velocity": 1
          },
          {
            "duration": 0.451041666666697,
            "durationTicks": 433,
            "midi": 72,
            "name": "C5",
            "ticks": 600480,
            "time": 625.5,
            "velocity": 1
          },
          {
            "duration": 0.22604166666667425,
            "durationTicks": 217,
            "midi": 55,
            "name": "G3",
            "ticks": 601680,
            "time": 626.75,
            "velocity": 0.8188976377952756
          },
          {
            "duration": 0.22604166666667425,
            "durationTicks": 217,
            "midi": 67,
            "name": "G4",
            "ticks": 601680,
            "time": 626.75,
            "velocity": 0.8188976377952756
          },
          {
            "duration": 0.22604166666667425,
            "durationTicks": 217,
            "midi": 55,
            "name": "G3",
            "ticks": 601920,
            "time": 627,
            "velocity": 0.8661417322834646
          },
          {
            "duration": 0.22604166666667425,
            "durationTicks": 217,
            "midi": 67,
            "name": "G4",
            "ticks": 601920,
            "time": 627,
            "velocity": 0.8661417322834646
          },
          {
            "duration": 0.22604166666667425,
            "durationTicks": 217,
            "midi": 55,
            "name": "G3",
            "ticks": 602160,
            "time": 627.25,
            "velocity": 0.905511811023622
          },
          {
            "duration": 0.22604166666667425,
            "durationTicks": 217,
            "midi": 67,
            "name": "G4",
            "ticks": 602160,
            "time": 627.25,
            "velocity": 0.905511811023622
          },
          {
            "duration": 0.451041666666697,
            "durationTicks": 433,
            "midi": 60,
            "name": "C4",
            "ticks": 602400,
            "time": 627.5,
            "velocity": 1
          },
          {
            "duration": 0.451041666666697,
            "durationTicks": 433,
            "midi": 72,
            "name": "C5",
            "ticks": 602400,
            "time": 627.5,
            "velocity": 1
          },
          {
            "duration": 0.22604166666667425,
            "durationTicks": 217,
            "midi": 55,
            "name": "G3",
            "ticks": 603600,
            "time": 628.75,
            "velocity": 0.8031496062992126
          },
          {
            "duration": 0.22604166666667425,
            "durationTicks": 217,
            "midi": 67,
            "name": "G4",
            "ticks": 603600,
            "time": 628.75,
            "velocity": 0.8031496062992126
          },
          {
            "duration": 0.22604166666667425,
            "durationTicks": 217,
            "midi": 55,
            "name": "G3",
            "ticks": 603840,
            "time": 629,
            "velocity": 0.8740157480314961
          },
          {
            "duration": 0.22604166666667425,
            "durationTicks": 217,
            "midi": 67,
            "name": "G4",
            "ticks": 603840,
            "time": 629,
            "velocity": 0.8740157480314961
          },
          {
            "duration": 0.22604166666667425,
            "durationTicks": 217,
            "midi": 55,
            "name": "G3",
            "ticks": 604080,
            "time": 629.25,
            "velocity": 0.8818897637795275
          },
          {
            "duration": 0.22604166666667425,
            "durationTicks": 217,
            "midi": 67,
            "name": "G4",
            "ticks": 604080,
            "time": 629.25,
            "velocity": 0.8818897637795275
          },
          {
            "duration": 0.451041666666697,
            "durationTicks": 433,
            "midi": 60,
            "name": "C4",
            "ticks": 604320,
            "time": 629.5,
            "velocity": 1
          },
          {
            "duration": 0.451041666666697,
            "durationTicks": 433,
            "midi": 72,
            "name": "C5",
            "ticks": 604320,
            "time": 629.5,
            "velocity": 1
          },
          {
            "duration": 0.451041666666697,
            "durationTicks": 433,
            "midi": 55,
            "name": "G3",
            "ticks": 604800,
            "time": 630,
            "velocity": 0.8188976377952756
          },
          {
            "duration": 0.451041666666697,
            "durationTicks": 433,
            "midi": 67,
            "name": "G4",
            "ticks": 604800,
            "time": 630,
            "velocity": 0.8188976377952756
          },
          {
            "duration": 0.451041666666697,
            "durationTicks": 433,
            "midi": 60,
            "name": "C4",
            "ticks": 605280,
            "time": 630.5,
            "velocity": 1
          },
          {
            "duration": 0.451041666666697,
            "durationTicks": 433,
            "midi": 72,
            "name": "C5",
            "ticks": 605280,
            "time": 630.5,
            "velocity": 1
          },
          {
            "duration": 0.451041666666697,
            "durationTicks": 433,
            "midi": 55,
            "name": "G3",
            "ticks": 605760,
            "time": 631,
            "velocity": 0.8031496062992126
          },
          {
            "duration": 0.451041666666697,
            "durationTicks": 433,
            "midi": 67,
            "name": "G4",
            "ticks": 605760,
            "time": 631,
            "velocity": 0.8031496062992126
          },
          {
            "duration": 0.451041666666697,
            "durationTicks": 433,
            "midi": 60,
            "name": "C4",
            "ticks": 606240,
            "time": 631.5,
            "velocity": 1
          },
          {
            "duration": 0.451041666666697,
            "durationTicks": 433,
            "midi": 72,
            "name": "C5",
            "ticks": 606240,
            "time": 631.5,
            "velocity": 1
          },
          {
            "duration": 0.451041666666697,
            "durationTicks": 433,
            "midi": 55,
            "name": "G3",
            "ticks": 606720,
            "time": 632,
            "velocity": 0.7795275590551181
          },
          {
            "duration": 0.451041666666697,
            "durationTicks": 433,
            "midi": 67,
            "name": "G4",
            "ticks": 606720,
            "time": 632,
            "velocity": 0.7795275590551181
          },
          {
            "duration": 0.451041666666697,
            "durationTicks": 433,
            "midi": 60,
            "name": "C4",
            "ticks": 607200,
            "time": 632.5,
            "velocity": 0.984251968503937
          },
          {
            "duration": 0.451041666666697,
            "durationTicks": 433,
            "midi": 72,
            "name": "C5",
            "ticks": 607200,
            "time": 632.5,
            "velocity": 0.984251968503937
          },
          {
            "duration": 0.451041666666697,
            "durationTicks": 433,
            "midi": 55,
            "name": "G3",
            "ticks": 607680,
            "time": 633,
            "velocity": 0.7637795275590551
          },
          {
            "duration": 0.451041666666697,
            "durationTicks": 433,
            "midi": 67,
            "name": "G4",
            "ticks": 607680,
            "time": 633,
            "velocity": 0.7637795275590551
          },
          {
            "duration": 0.451041666666697,
            "durationTicks": 433,
            "midi": 60,
            "name": "C4",
            "ticks": 608160,
            "time": 633.5,
            "velocity": 0.9606299212598425
          },
          {
            "duration": 0.451041666666697,
            "durationTicks": 433,
            "midi": 72,
            "name": "C5",
            "ticks": 608160,
            "time": 633.5,
            "velocity": 0.9606299212598425
          },
          {
            "duration": 0.451041666666697,
            "durationTicks": 433,
            "midi": 55,
            "name": "G3",
            "ticks": 609120,
            "time": 634.5,
            "velocity": 0.7716535433070866
          },
          {
            "duration": 0.451041666666697,
            "durationTicks": 433,
            "midi": 67,
            "name": "G4",
            "ticks": 609120,
            "time": 634.5,
            "velocity": 0.7716535433070866
          },
          {
            "duration": 0.451041666666697,
            "durationTicks": 433,
            "midi": 60,
            "name": "C4",
            "ticks": 610080,
            "time": 635.5,
            "velocity": 0.7952755905511811
          }
        ]
      },
      {
        "channel": 5,
        "controlChanges": {
          "7": [
            {
              "number": 7,
              "ticks": 0,
              "time": 0,
              "value": 0.6141732283464567
            }
          ],
          "10": [
            {
              "number": 10,
              "ticks": 0,
              "time": 0,
              "value": 0.5039370078740157
            }
          ],
          "64": [
            {
              "number": 64,
              "ticks": 0,
              "time": 0,
              "value": 0
            }
          ],
          "121": [
            {
              "number": 121,
              "ticks": 0,
              "time": 0,
              "value": 0
            }
          ]
        },
        "pitchBends": [],
        "instrument": {
          "family": "strings",
          "number": 47,
          "name": "timpani"
        },
        "name": "",
        "notes": [
          {
            "duration": 0.22604166666666714,
            "durationTicks": 217,
            "midi": 43,
            "name": "G2",
            "ticks": 17520,
            "time": 18.25,
            "velocity": 0.41732283464566927
          },
          {
            "duration": 0.22604166666666714,
            "durationTicks": 217,
            "midi": 43,
            "name": "G2",
            "ticks": 17760,
            "time": 18.5,
            "velocity": 0.5354330708661418
          },
          {
            "duration": 0.22604166666666714,
            "durationTicks": 217,
            "midi": 43,
            "name": "G2",
            "ticks": 18000,
            "time": 18.75,
            "velocity": 0.6456692913385826
          },
          {
            "duration": 0.451041666666665,
            "durationTicks": 433,
            "midi": 48,
            "name": "C3",
            "ticks": 18240,
            "time": 19,
            "velocity": 0.8346456692913385
          },
          {
            "duration": 0.451041666666665,
            "durationTicks": 433,
            "midi": 48,
            "name": "C3",
            "ticks": 19200,
            "time": 20,
            "velocity": 0.6692913385826772
          },
          {
            "duration": 0.451041666666665,
            "durationTicks": 433,
            "midi": 43,
            "name": "G2",
            "ticks": 20160,
            "time": 21,
            "velocity": 0.7007874015748031
          },
          {
            "duration": 0.45104166666666856,
            "durationTicks": 433,
            "midi": 48,
            "name": "C3",
            "ticks": 42000,
            "time": 43.75,
            "velocity": 0.7165354330708661
          },
          {
            "duration": 0.45104166666666856,
            "durationTicks": 433,
            "midi": 48,
            "name": "C3",
            "ticks": 42960,
            "time": 44.75,
            "velocity": 0.6850393700787402
          },
          {
            "duration": 0.22604166666666714,
            "durationTicks": 217,
            "midi": 48,
            "name": "C3",
            "ticks": 46320,
            "time": 48.25,
            "velocity": 0.6771653543307087
          },
          {
            "duration": 0.22604166666666714,
            "durationTicks": 217,
            "midi": 48,
            "name": "C3",
            "ticks": 46560,
            "time": 48.5,
            "velocity": 0.7401574803149606
          },
          {
            "duration": 0.45104166666666856,
            "durationTicks": 433,
            "midi": 43,
            "name": "G2",
            "ticks": 46800,
            "time": 48.75,
            "velocity": 0.7165354330708661
          },
          {
            "duration": 0.22604166666666714,
            "durationTicks": 217,
            "midi": 48,
            "name": "C3",
            "ticks": 50160,
            "time": 52.25,
            "velocity": 0.6771653543307087
          },
          {
            "duration": 0.22604166666666714,
            "durationTicks": 217,
            "midi": 48,
            "name": "C3",
            "ticks": 50400,
            "time": 52.5,
            "velocity": 0.7795275590551181
          },
          {
            "duration": 0.22604166666666714,
            "durationTicks": 217,
            "midi": 48,
            "name": "C3",
            "ticks": 50640,
            "time": 52.75,
            "velocity": 0.9133858267716536
          },
          {
            "duration": 0.22604166666666714,
            "durationTicks": 217,
            "midi": 48,
            "name": "C3",
            "ticks": 50880,
            "time": 53,
            "velocity": 0.889763779527559
          },
          {
            "duration": 0.22604166666666714,
            "durationTicks": 217,
            "midi": 48,
            "name": "C3",
            "ticks": 51120,
            "time": 53.25,
            "velocity": 0.8818897637795275
          },
          {
            "duration": 0.22604166666666714,
            "durationTicks": 217,
            "midi": 48,
            "name": "C3",
            "ticks": 51360,
            "time": 53.5,
            "velocity": 0.889763779527559
          },
          {
            "duration": 0.22604166666666714,
            "durationTicks": 217,
            "midi": 48,
            "name": "C3",
            "ticks": 51600,
            "time": 53.75,
            "velocity": 0.905511811023622
          },
          {
            "duration": 0.22604166666666714,
            "durationTicks": 217,
            "midi": 48,
            "name": "C3",
            "ticks": 51840,
            "time": 54,
            "velocity": 0.905511811023622
          },
          {
            "duration": 0.22604166666666714,
            "durationTicks": 217,
            "midi": 48,
            "name": "C3",
            "ticks": 52080,
            "time": 54.25,
            "velocity": 0.8582677165354331
          },
          {
            "duration": 0.22604166666666714,
            "durationTicks": 217,
            "midi": 48,
            "name": "C3",
            "ticks": 52320,
            "time": 54.5,
            "velocity": 0.889763779527559
          },
          {
            "duration": 0.22604166666666714,
            "durationTicks": 217,
            "midi": 48,
            "name": "C3",
            "ticks": 52560,
            "time": 54.75,
            "velocity": 0.8740157480314961
          },
          {
            "duration": 0.22604166666666714,
            "durationTicks": 217,
            "midi": 48,
            "name": "C3",
            "ticks": 52800,
            "time": 55,
            "velocity": 0.889763779527559
          },
          {
            "duration": 0.22604166666666714,
            "durationTicks": 217,
            "midi": 48,
            "name": "C3",
            "ticks": 53040,
            "time": 55.25,
            "velocity": 0.905511811023622
          },
          {
            "duration": 0.22604166666666714,
            "durationTicks": 217,
            "midi": 48,
            "name": "C3",
            "ticks": 53280,
            "time": 55.5,
            "velocity": 0.8740157480314961
          },
          {
            "duration": 0.22604166666666714,
            "durationTicks": 217,
            "midi": 48,
            "name": "C3",
            "ticks": 53520,
            "time": 55.75,
            "velocity": 0.8661417322834646
          },
          {
            "duration": 0.22604166666666714,
            "durationTicks": 217,
            "midi": 48,
            "name": "C3",
            "ticks": 53760,
            "time": 56,
            "velocity": 0.905511811023622
          },
          {
            "duration": 0.22604166666666714,
            "durationTicks": 217,
            "midi": 48,
            "name": "C3",
            "ticks": 54000,
            "time": 56.25,
            "velocity": 0.905511811023622
          },
          {
            "duration": 0.22604166666666714,
            "durationTicks": 217,
            "midi": 48,
            "name": "C3",
            "ticks": 54240,
            "time": 56.5,
            "velocity": 0.8976377952755905
          },
          {
            "duration": 0.45104166666666856,
            "durationTicks": 433,
            "midi": 48,
            "name": "C3",
            "ticks": 54480,
            "time": 56.75,
            "velocity": 0.9133858267716536
          },
          {
            "duration": 0.45104166666666856,
            "durationTicks": 433,
            "midi": 43,
            "name": "G2",
            "ticks": 94800,
            "time": 98.75,
            "velocity": 0.6850393700787402
          },
          {
            "duration": 0.45104166666666856,
            "durationTicks": 433,
            "midi": 48,
            "name": "C3",
            "ticks": 95760,
            "time": 99.75,
            "velocity": 0.7007874015748031
          },
          {
            "duration": 0.45104166666666856,
            "durationTicks": 433,
            "midi": 43,
            "name": "G2",
            "ticks": 101040,
            "time": 105.25,
            "velocity": 0.6850393700787402
          },
          {
            "duration": 0.45104166666666856,
            "durationTicks": 433,
            "midi": 43,
            "name": "G2",
            "ticks": 102960,
            "time": 107.25,
            "velocity": 0.6692913385826772
          },
          {
            "duration": 0.45104166666666856,
            "durationTicks": 433,
            "midi": 48,
            "name": "C3",
            "ticks": 103920,
            "time": 108.25,
            "velocity": 0.6614173228346457
          },
          {
            "duration": 0.22604166666667425,
            "durationTicks": 217,
            "midi": 43,
            "name": "G2",
            "ticks": 138240,
            "time": 144,
            "velocity": 0.4409448818897638
          },
          {
            "duration": 0.22604166666667425,
            "durationTicks": 217,
            "midi": 43,
            "name": "G2",
            "ticks": 138480,
            "time": 144.25,
            "velocity": 0.5354330708661418
          },
          {
            "duration": 0.22604166666667425,
            "durationTicks": 217,
            "midi": 43,
            "name": "G2",
            "ticks": 138720,
            "time": 144.5,
            "velocity": 0.6220472440944882
          },
          {
            "duration": 0.45104166666666856,
            "durationTicks": 433,
            "midi": 48,
            "name": "C3",
            "ticks": 138960,
            "time": 144.75,
            "velocity": 0.8267716535433071
          },
          {
            "duration": 0.45104166666666856,
            "durationTicks": 433,
            "midi": 48,
            "name": "C3",
            "ticks": 139920,
            "time": 145.75,
            "velocity": 0.7007874015748031
          },
          {
            "duration": 0.45104166666666856,
            "durationTicks": 433,
            "midi": 43,
            "name": "G2",
            "ticks": 140880,
            "time": 146.75,
            "velocity": 0.6771653543307087
          },
          {
            "duration": 0.45104166666666856,
            "durationTicks": 433,
            "midi": 48,
            "name": "C3",
            "ticks": 162720,
            "time": 169.5,
            "velocity": 0.6771653543307087
          },
          {
            "duration": 0.45104166666666856,
            "durationTicks": 433,
            "midi": 48,
            "name": "C3",
            "ticks": 163680,
            "time": 170.5,
            "velocity": 0.6377952755905512
          },
          {
            "duration": 0.22604166666667425,
            "durationTicks": 217,
            "midi": 48,
            "name": "C3",
            "ticks": 167040,
            "time": 174,
            "velocity": 0.7086614173228346
          },
          {
            "duration": 0.22604166666667425,
            "durationTicks": 217,
            "midi": 48,
            "name": "C3",
            "ticks": 167280,
            "time": 174.25,
            "velocity": 0.7322834645669292
          },
          {
            "duration": 0.45104166666666856,
            "durationTicks": 433,
            "midi": 43,
            "name": "G2",
            "ticks": 167520,
            "time": 174.5,
            "velocity": 0.7165354330708661
          },
          {
            "duration": 0.22604166666667425,
            "durationTicks": 217,
            "midi": 48,
            "name": "C3",
            "ticks": 170880,
            "time": 178,
            "velocity": 0.7165354330708661
          },
          {
            "duration": 0.22604166666667425,
            "durationTicks": 217,
            "midi": 48,
            "name": "C3",
            "ticks": 171120,
            "time": 178.25,
            "velocity": 0.7637795275590551
          },
          {
            "duration": 0.22604166666667425,
            "durationTicks": 217,
            "midi": 48,
            "name": "C3",
            "ticks": 171360,
            "time": 178.5,
            "velocity": 0.8818897637795275
          },
          {
            "duration": 0.22604166666667425,
            "durationTicks": 217,
            "midi": 48,
            "name": "C3",
            "ticks": 171600,
            "time": 178.75,
            "velocity": 0.8818897637795275
          },
          {
            "duration": 0.22604166666667425,
            "durationTicks": 217,
            "midi": 48,
            "name": "C3",
            "ticks": 171840,
            "time": 179,
            "velocity": 0.889763779527559
          },
          {
            "duration": 0.22604166666667425,
            "durationTicks": 217,
            "midi": 48,
            "name": "C3",
            "ticks": 172080,
            "time": 179.25,
            "velocity": 0.889763779527559
          },
          {
            "duration": 0.22604166666667425,
            "durationTicks": 217,
            "midi": 48,
            "name": "C3",
            "ticks": 172320,
            "time": 179.5,
            "velocity": 0.8818897637795275
          },
          {
            "duration": 0.22604166666667425,
            "durationTicks": 217,
            "midi": 48,
            "name": "C3",
            "ticks": 172560,
            "time": 179.75,
            "velocity": 0.9133858267716536
          },
          {
            "duration": 0.22604166666667425,
            "durationTicks": 217,
            "midi": 48,
            "name": "C3",
            "ticks": 172800,
            "time": 180,
            "velocity": 0.9133858267716536
          },
          {
            "duration": 0.22604166666667425,
            "durationTicks": 217,
            "midi": 48,
            "name": "C3",
            "ticks": 173040,
            "time": 180.25,
            "velocity": 0.8582677165354331
          },
          {
            "duration": 0.22604166666667425,
            "durationTicks": 217,
            "midi": 48,
            "name": "C3",
            "ticks": 173280,
            "time": 180.5,
            "velocity": 0.889763779527559
          },
          {
            "duration": 0.22604166666667425,
            "durationTicks": 217,
            "midi": 48,
            "name": "C3",
            "ticks": 173520,
            "time": 180.75,
            "velocity": 0.8582677165354331
          },
          {
            "duration": 0.22604166666667425,
            "durationTicks": 217,
            "midi": 48,
            "name": "C3",
            "ticks": 173760,
            "time": 181,
            "velocity": 0.889763779527559
          },
          {
            "duration": 0.22604166666667425,
            "durationTicks": 217,
            "midi": 48,
            "name": "C3",
            "ticks": 174000,
            "time": 181.25,
            "velocity": 0.8976377952755905
          },
          {
            "duration": 0.22604166666667425,
            "durationTicks": 217,
            "midi": 48,
            "name": "C3",
            "ticks": 174240,
            "time": 181.5,
            "velocity": 0.9291338582677166
          },
          {
            "duration": 0.22604166666667425,
            "durationTicks": 217,
            "midi": 48,
            "name": "C3",
            "ticks": 174480,
            "time": 181.75,
            "velocity": 0.9291338582677166
          },
          {
            "duration": 0.22604166666667425,
            "durationTicks": 217,
            "midi": 48,
            "name": "C3",
            "ticks": 174720,
            "time": 182,
            "velocity": 0.905511811023622
          },
          {
            "duration": 0.22604166666667425,
            "durationTicks": 217,
            "midi": 48,
            "name": "C3",
            "ticks": 174960,
            "time": 182.25,
            "velocity": 0.8818897637795275
          },
          {
            "duration": 0.45104166666666856,
            "durationTicks": 433,
            "midi": 48,
            "name": "C3",
            "ticks": 175200,
            "time": 182.5,
            "velocity": 0.937007874015748
          },
          {
            "duration": 0.45104166666666856,
            "durationTicks": 433,
            "midi": 43,
            "name": "G2",
            "ticks": 215520,
            "time": 224.5,
            "velocity": 0.7244094488188977
          },
          {
            "duration": 0.45104166666666856,
            "durationTicks": 433,
            "midi": 48,
            "name": "C3",
            "ticks": 216480,
            "time": 225.5,
            "velocity": 0.6850393700787402
          },
          {
            "duration": 0.45104166666666856,
            "durationTicks": 433,
            "midi": 43,
            "name": "G2",
            "ticks": 221760,
            "time": 231,
            "velocity": 0.7086614173228346
          },
          {
            "duration": 0.45104166666666856,
            "durationTicks": 433,
            "midi": 43,
            "name": "G2",
            "ticks": 223680,
            "time": 233,
            "velocity": 0.7165354330708661
          },
          {
            "duration": 0.45104166666666856,
            "durationTicks": 433,
            "midi": 48,
            "name": "C3",
            "ticks": 224640,
            "time": 234,
            "velocity": 0.7086614173228346
          },
          {
            "duration": 0.45104166666664014,
            "durationTicks": 433,
            "midi": 43,
            "name": "G2",
            "ticks": 273600,
            "time": 285,
            "velocity": 0.3779527559055118
          },
          {
            "duration": 0.45104166666664014,
            "durationTicks": 433,
            "midi": 48,
            "name": "C3",
            "ticks": 275520,
            "time": 287,
            "velocity": 0.3228346456692913
          },
          {
            "duration": 0.45104166666664014,
            "durationTicks": 433,
            "midi": 48,
            "name": "C3",
            "ticks": 277440,
            "time": 289,
            "velocity": 0.36220472440944884
          },
          {
            "duration": 0.45104166666664014,
            "durationTicks": 433,
            "midi": 43,
            "name": "G2",
            "ticks": 279360,
            "time": 291,
            "velocity": 0.33858267716535434
          },
          {
            "duration": 0.45104166666664014,
            "durationTicks": 433,
            "midi": 43,
            "name": "G2",
            "ticks": 281280,
            "time": 293,
            "velocity": 0.3858267716535433
          },
          {
            "duration": 0.22604166666667425,
            "durationTicks": 217,
            "midi": 48,
            "name": "C3",
            "ticks": 283200,
            "time": 295,
            "velocity": 0.6771653543307087
          },
          {
            "duration": 0.22604166666667425,
            "durationTicks": 217,
            "midi": 48,
            "name": "C3",
            "ticks": 283440,
            "time": 295.25,
            "velocity": 0.7401574803149606
          },
          {
            "duration": 0.22604166666667425,
            "durationTicks": 217,
            "midi": 48,
            "name": "C3",
            "ticks": 283680,
            "time": 295.5,
            "velocity": 0.7716535433070866
          },
          {
            "duration": 0.22604166666667425,
            "durationTicks": 217,
            "midi": 48,
            "name": "C3",
            "ticks": 283920,
            "time": 295.75,
            "velocity": 0.7480314960629921
          },
          {
            "duration": 0.22604166666667425,
            "durationTicks": 217,
            "midi": 48,
            "name": "C3",
            "ticks": 284160,
            "time": 296,
            "velocity": 0.7716535433070866
          },
          {
            "duration": 0.22604166666667425,
            "durationTicks": 217,
            "midi": 48,
            "name": "C3",
            "ticks": 284400,
            "time": 296.25,
            "velocity": 0.7559055118110236
          },
          {
            "duration": 0.22604166666667425,
            "durationTicks": 217,
            "midi": 48,
            "name": "C3",
            "ticks": 284640,
            "time": 296.5,
            "velocity": 0.7952755905511811
          },
          {
            "duration": 0.22604166666667425,
            "durationTicks": 217,
            "midi": 48,
            "name": "C3",
            "ticks": 284880,
            "time": 296.75,
            "velocity": 0.7637795275590551
          },
          {
            "duration": 0.45104166666664014,
            "durationTicks": 433,
            "midi": 48,
            "name": "C3",
            "ticks": 285120,
            "time": 297,
            "velocity": 0.7874015748031497
          },
          {
            "duration": 0.22604166666667425,
            "durationTicks": 217,
            "midi": 43,
            "name": "G2",
            "ticks": 286320,
            "time": 298.25,
            "velocity": 0.7244094488188977
          },
          {
            "duration": 0.22604166666667425,
            "durationTicks": 217,
            "midi": 43,
            "name": "G2",
            "ticks": 286560,
            "time": 298.5,
            "velocity": 0.7480314960629921
          },
          {
            "duration": 0.22604166666667425,
            "durationTicks": 217,
            "midi": 43,
            "name": "G2",
            "ticks": 286800,
            "time": 298.75,
            "velocity": 0.7637795275590551
          },
          {
            "duration": 0.22604166666667425,
            "durationTicks": 217,
            "midi": 43,
            "name": "G2",
            "ticks": 287040,
            "time": 299,
            "velocity": 0.7637795275590551
          },
          {
            "duration": 0.22604166666667425,
            "durationTicks": 217,
            "midi": 43,
            "name": "G2",
            "ticks": 287280,
            "time": 299.25,
            "velocity": 0.7952755905511811
          },
          {
            "duration": 0.22604166666667425,
            "durationTicks": 217,
            "midi": 43,
            "name": "G2",
            "ticks": 287520,
            "time": 299.5,
            "velocity": 0.7244094488188977
          },
          {
            "duration": 0.22604166666667425,
            "durationTicks": 217,
            "midi": 43,
            "name": "G2",
            "ticks": 287760,
            "time": 299.75,
            "velocity": 0.8031496062992126
          },
          {
            "duration": 0.22604166666667425,
            "durationTicks": 217,
            "midi": 43,
            "name": "G2",
            "ticks": 288000,
            "time": 300,
            "velocity": 0.7716535433070866
          },
          {
            "duration": 0.22604166666667425,
            "durationTicks": 217,
            "midi": 43,
            "name": "G2",
            "ticks": 288240,
            "time": 300.25,
            "velocity": 0.7795275590551181
          },
          {
            "duration": 0.22604166666667425,
            "durationTicks": 217,
            "midi": 43,
            "name": "G2",
            "ticks": 288480,
            "time": 300.5,
            "velocity": 0.7559055118110236
          },
          {
            "duration": 0.22604166666667425,
            "durationTicks": 217,
            "midi": 43,
            "name": "G2",
            "ticks": 288720,
            "time": 300.75,
            "velocity": 0.7401574803149606
          },
          {
            "duration": 0.45104166666664014,
            "durationTicks": 433,
            "midi": 43,
            "name": "G2",
            "ticks": 288960,
            "time": 301,
            "velocity": 0.7716535433070866
          },
          {
            "duration": 0.22604166666667425,
            "durationTicks": 217,
            "midi": 43,
            "name": "G2",
            "ticks": 290160,
            "time": 302.25,
            "velocity": 0.7480314960629921
          },
          {
            "duration": 0.22604166666667425,
            "durationTicks": 217,
            "midi": 43,
            "name": "G2",
            "ticks": 290400,
            "time": 302.5,
            "velocity": 0.8188976377952756
          },
          {
            "duration": 0.22604166666667425,
            "durationTicks": 217,
            "midi": 43,
            "name": "G2",
            "ticks": 290640,
            "time": 302.75,
            "velocity": 0.8188976377952756
          },
          {
            "duration": 0.45104166666664014,
            "durationTicks": 433,
            "midi": 43,
            "name": "G2",
            "ticks": 290880,
            "time": 303,
            "velocity": 0.7952755905511811
          },
          {
            "duration": 0.22604166666667425,
            "durationTicks": 217,
            "midi": 43,
            "name": "G2",
            "ticks": 292320,
            "time": 304.5,
            "velocity": 0.7322834645669292
          },
          {
            "duration": 0.22604166666667425,
            "durationTicks": 217,
            "midi": 43,
            "name": "G2",
            "ticks": 292560,
            "time": 304.75,
            "velocity": 0.84251968503937
          },
          {
            "duration": 0.45104166666664014,
            "durationTicks": 433,
            "midi": 43,
            "name": "G2",
            "ticks": 292800,
            "time": 305,
            "velocity": 0.84251968503937
          },
          {
            "duration": 0.45104166666664014,
            "durationTicks": 433,
            "midi": 43,
            "name": "G2",
            "ticks": 301440,
            "time": 314,
            "velocity": 0.7401574803149606
          },
          {
            "duration": 0.22604166666667425,
            "durationTicks": 217,
            "midi": 43,
            "name": "G2",
            "ticks": 308640,
            "time": 321.5,
            "velocity": 0.6929133858267716
          },
          {
            "duration": 0.22604166666667425,
            "durationTicks": 217,
            "midi": 43,
            "name": "G2",
            "ticks": 308880,
            "time": 321.75,
            "velocity": 0.8188976377952756
          },
          {
            "duration": 0.45104166666664014,
            "durationTicks": 433,
            "midi": 48,
            "name": "C3",
            "ticks": 309120,
            "time": 322,
            "velocity": 0.8818897637795275
          },
          {
            "duration": 0.22604166666667425,
            "durationTicks": 217,
            "midi": 43,
            "name": "G2",
            "ticks": 360240,
            "time": 375.25,
            "velocity": 0.7952755905511811
          },
          {
            "duration": 0.22604166666667425,
            "durationTicks": 217,
            "midi": 43,
            "name": "G2",
            "ticks": 360480,
            "time": 375.5,
            "velocity": 0.8346456692913385
          },
          {
            "duration": 0.22604166666667425,
            "durationTicks": 217,
            "midi": 43,
            "name": "G2",
            "ticks": 360720,
            "time": 375.75,
            "velocity": 0.889763779527559
          },
          {
            "duration": 0.05833333333333712,
            "durationTicks": 56,
            "midi": 43,
            "name": "G2",
            "ticks": 360960,
            "time": 376,
            "velocity": 0.8740157480314961
          },
          {
            "duration": 0.05833333333333712,
            "durationTicks": 56,
            "midi": 44,
            "name": "G#2",
            "ticks": 361031,
            "time": 376.07395833333334,
            "velocity": 0.8740157480314961
          },
          {
            "duration": 0.05624999999997726,
            "durationTicks": 54,
            "midi": 43,
            "name": "G2",
            "ticks": 361101,
            "time": 376.146875,
            "velocity": 0.8740157480314961
          },
          {
            "duration": 0.0552083333333826,
            "durationTicks": 53,
            "midi": 44,
            "name": "G#2",
            "ticks": 361168,
            "time": 376.21666666666664,
            "velocity": 0.8740157480314961
          },
          {
            "duration": 0.0541666666666174,
            "durationTicks": 52,
            "midi": 43,
            "name": "G2",
            "ticks": 361236,
            "time": 376.2875,
            "velocity": 0.8740157480314961
          },
          {
            "duration": 0.055208333333325754,
            "durationTicks": 53,
            "midi": 44,
            "name": "G#2",
            "ticks": 361301,
            "time": 376.35520833333334,
            "velocity": 0.8740157480314961
          },
          {
            "duration": 0.0541666666666174,
            "durationTicks": 52,
            "midi": 43,
            "name": "G2",
            "ticks": 361367,
            "time": 376.42395833333336,
            "velocity": 0.8740157480314961
          },
          {
            "duration": 0.052083333333314386,
            "durationTicks": 50,
            "midi": 44,
            "name": "G#2",
            "ticks": 361431,
            "time": 376.490625,
            "velocity": 0.8740157480314961
          },
          {
            "duration": 0.05104166666666288,
            "durationTicks": 49,
            "midi": 43,
            "name": "G2",
            "ticks": 361492,
            "time": 376.5541666666667,
            "velocity": 0.8740157480314961
          },
          {
            "duration": 0.05104166666666288,
            "durationTicks": 49,
            "midi": 44,
            "name": "G#2",
            "ticks": 361554,
            "time": 376.61875,
            "velocity": 0.8740157480314961
          },
          {
            "duration": 0.04895833333335986,
            "durationTicks": 47,
            "midi": 43,
            "name": "G2",
            "ticks": 361614,
            "time": 376.68125,
            "velocity": 0.8740157480314961
          },
          {
            "duration": 0.04895833333335986,
            "durationTicks": 47,
            "midi": 44,
            "name": "G#2",
            "ticks": 361674,
            "time": 376.74375,
            "velocity": 0.8740157480314961
          },
          {
            "duration": 0.046875,
            "durationTicks": 45,
            "midi": 43,
            "name": "G2",
            "ticks": 361732,
            "time": 376.8041666666667,
            "velocity": 0.8740157480314961
          },
          {
            "duration": 0.04895833333330302,
            "durationTicks": 47,
            "midi": 44,
            "name": "G#2",
            "ticks": 361792,
            "time": 376.8666666666667,
            "velocity": 0.8740157480314961
          },
          {
            "duration": 0.04895833333330302,
            "durationTicks": 47,
            "midi": 43,
            "name": "G2",
            "ticks": 361852,
            "time": 376.9291666666667,
            "velocity": 0.8740157480314961
          },
          {
            "duration": 0.05104166666666288,
            "durationTicks": 49,
            "midi": 44,
            "name": "G#2",
            "ticks": 361914,
            "time": 376.99375,
            "velocity": 0.8740157480314961
          },
          {
            "duration": 0.05104166666666288,
            "durationTicks": 49,
            "midi": 43,
            "name": "G2",
            "ticks": 361976,
            "time": 377.05833333333334,
            "velocity": 0.8740157480314961
          },
          {
            "duration": 0.05312500000002274,
            "durationTicks": 51,
            "midi": 44,
            "name": "G#2",
            "ticks": 362040,
            "time": 377.125,
            "velocity": 0.8740157480314961
          },
          {
            "duration": 0.0541666666666174,
            "durationTicks": 52,
            "midi": 43,
            "name": "G2",
            "ticks": 362106,
            "time": 377.19375,
            "velocity": 0.8740157480314961
          },
          {
            "duration": 0.055208333333325754,
            "durationTicks": 53,
            "midi": 44,
            "name": "G#2",
            "ticks": 362171,
            "time": 377.26145833333334,
            "velocity": 0.8740157480314961
          },
          {
            "duration": 0.054166666666674246,
            "durationTicks": 52,
            "midi": 43,
            "name": "G2",
            "ticks": 362239,
            "time": 377.33229166666666,
            "velocity": 0.8740157480314961
          },
          {
            "duration": 0.056250000000034106,
            "durationTicks": 54,
            "midi": 44,
            "name": "G#2",
            "ticks": 362308,
            "time": 377.40416666666664,
            "velocity": 0.8740157480314961
          },
          {
            "duration": 0.021874999999965894,
            "durationTicks": 21,
            "midi": 43,
            "name": "G2",
            "ticks": 362377,
            "time": 377.4760416666667,
            "velocity": 0.8740157480314961
          },
          {
            "duration": 0.22604166666667425,
            "durationTicks": 217,
            "midi": 43,
            "name": "G2",
            "ticks": 362640,
            "time": 377.75,
            "velocity": 0.7716535433070866
          },
          {
            "duration": 0.22604166666667425,
            "durationTicks": 217,
            "midi": 43,
            "name": "G2",
            "ticks": 362880,
            "time": 378,
            "velocity": 0.889763779527559
          },
          {
            "duration": 0.22604166666667425,
            "durationTicks": 217,
            "midi": 43,
            "name": "G2",
            "ticks": 363120,
            "time": 378.25,
            "velocity": 0.8740157480314961
          },
          {
            "duration": 0.08958333333333712,
            "durationTicks": 86,
            "midi": 43,
            "name": "G2",
            "ticks": 363360,
            "time": 378.5,
            "velocity": 0.8818897637795275
          },
          {
            "duration": 0.08958333333333712,
            "durationTicks": 86,
            "midi": 44,
            "name": "G#2",
            "ticks": 363469,
            "time": 378.61354166666666,
            "velocity": 0.8818897637795275
          },
          {
            "duration": 0.08749999999997726,
            "durationTicks": 84,
            "midi": 43,
            "name": "G2",
            "ticks": 363576,
            "time": 378.725,
            "velocity": 0.8818897637795275
          },
          {
            "duration": 0.0854166666666174,
            "durationTicks": 82,
            "midi": 44,
            "name": "G#2",
            "ticks": 363681,
            "time": 378.834375,
            "velocity": 0.8818897637795275
          },
          {
            "duration": 0.08541666666667425,
            "durationTicks": 82,
            "midi": 43,
            "name": "G2",
            "ticks": 363784,
            "time": 378.94166666666666,
            "velocity": 0.8818897637795275
          },
          {
            "duration": 0.08437500000002274,
            "durationTicks": 81,
            "midi": 44,
            "name": "G#2",
            "ticks": 363885,
            "time": 379.046875,
            "velocity": 0.8818897637795275
          },
          {
            "duration": 0.08229166666666288,
            "durationTicks": 79,
            "midi": 43,
            "name": "G2",
            "ticks": 363984,
            "time": 379.15,
            "velocity": 0.8818897637795275
          },
          {
            "duration": 0.08020833333330302,
            "durationTicks": 77,
            "midi": 44,
            "name": "G#2",
            "ticks": 364082,
            "time": 379.25208333333336,
            "velocity": 0.8818897637795275
          },
          {
            "duration": 0.078125,
            "durationTicks": 75,
            "midi": 43,
            "name": "G2",
            "ticks": 364177,
            "time": 379.3510416666667,
            "velocity": 0.8818897637795275
          },
          {
            "duration": 0.078125,
            "durationTicks": 75,
            "midi": 44,
            "name": "G#2",
            "ticks": 364271,
            "time": 379.44895833333334,
            "velocity": 0.8818897637795275
          },
          {
            "duration": 0.07604166666669698,
            "durationTicks": 73,
            "midi": 43,
            "name": "G2",
            "ticks": 364363,
            "time": 379.54479166666664,
            "velocity": 0.8818897637795275
          },
          {
            "duration": 0.07395833333333712,
            "durationTicks": 71,
            "midi": 44,
            "name": "G#2",
            "ticks": 364453,
            "time": 379.63854166666664,
            "velocity": 0.8818897637795275
          },
          {
            "duration": 0.07395833333333712,
            "durationTicks": 71,
            "midi": 43,
            "name": "G2",
            "ticks": 364543,
            "time": 379.73229166666664,
            "velocity": 0.8818897637795275
          },
          {
            "duration": 0.07291666666668561,
            "durationTicks": 70,
            "midi": 44,
            "name": "G#2",
            "ticks": 364631,
            "time": 379.82395833333334,
            "velocity": 0.8818897637795275
          },
          {
            "duration": 0.07395833333333712,
            "durationTicks": 71,
            "midi": 43,
            "name": "G2",
            "ticks": 364721,
            "time": 379.91770833333334,
            "velocity": 0.8818897637795275
          },
          {
            "duration": 0.07604166666669698,
            "durationTicks": 73,
            "midi": 44,
            "name": "G#2",
            "ticks": 364813,
            "time": 380.01354166666664,
            "velocity": 0.8818897637795275
          },
          {
            "duration": 0.078125,
            "durationTicks": 75,
            "midi": 43,
            "name": "G2",
            "ticks": 364907,
            "time": 380.11145833333336,
            "velocity": 0.8818897637795275
          },
          {
            "duration": 0.078125,
            "durationTicks": 75,
            "midi": 44,
            "name": "G#2",
            "ticks": 365002,
            "time": 380.2104166666667,
            "velocity": 0.8818897637795275
          },
          {
            "duration": 0.078125,
            "durationTicks": 75,
            "midi": 43,
            "name": "G2",
            "ticks": 365098,
            "time": 380.31041666666664,
            "velocity": 0.8818897637795275
          },
          {
            "duration": 0.07916666666665151,
            "durationTicks": 76,
            "midi": 44,
            "name": "G#2",
            "ticks": 365196,
            "time": 380.4125,
            "velocity": 0.8818897637795275
          },
          {
            "duration": 0.08229166666666288,
            "durationTicks": 79,
            "midi": 43,
            "name": "G2",
            "ticks": 365295,
            "time": 380.515625,
            "velocity": 0.8818897637795275
          },
          {
            "duration": 0.08437500000002274,
            "durationTicks": 81,
            "midi": 44,
            "name": "G#2",
            "ticks": 365396,
            "time": 380.62083333333334,
            "velocity": 0.8818897637795275
          },
          {
            "duration": 0.0864583333333826,
            "durationTicks": 83,
            "midi": 43,
            "name": "G2",
            "ticks": 365499,
            "time": 380.728125,
            "velocity": 0.8818897637795275
          },
          {
            "duration": 0.0864583333333826,
            "durationTicks": 83,
            "midi": 44,
            "name": "G#2",
            "ticks": 365604,
            "time": 380.8375,
            "velocity": 0.8818897637795275
          },
          {
            "duration": 0.04895833333330302,
            "durationTicks": 47,
            "midi": 43,
            "name": "G2",
            "ticks": 365711,
            "time": 380.94895833333334,
            "velocity": 0.8818897637795275
          },
          {
            "duration": 0.45104166666664014,
            "durationTicks": 433,
            "midi": 48,
            "name": "C3",
            "ticks": 379200,
            "time": 395,
            "velocity": 0.5039370078740157
          },
          {
            "duration": 0.45104166666664014,
            "durationTicks": 433,
            "midi": 43,
            "name": "G2",
            "ticks": 380160,
            "time": 396,
            "velocity": 0.7244094488188977
          },
          {
            "duration": 0.45104166666664014,
            "durationTicks": 433,
            "midi": 48,
            "name": "C3",
            "ticks": 394080,
            "time": 410.5,
            "velocity": 0.6929133858267716
          },
          {
            "duration": 0.45104166666664014,
            "durationTicks": 433,
            "midi": 48,
            "name": "C3",
            "ticks": 396000,
            "time": 412.5,
            "velocity": 0.6771653543307087
          },
          {
            "duration": 0.45104166666664014,
            "durationTicks": 433,
            "midi": 48,
            "name": "C3",
            "ticks": 402720,
            "time": 419.5,
            "velocity": 0.6692913385826772
          },
          {
            "duration": 0.45104166666664014,
            "durationTicks": 433,
            "midi": 48,
            "name": "C3",
            "ticks": 403680,
            "time": 420.5,
            "velocity": 0.7322834645669292
          },
          {
            "duration": 0.22604166666667425,
            "durationTicks": 217,
            "midi": 48,
            "name": "C3",
            "ticks": 407040,
            "time": 424,
            "velocity": 0.6771653543307087
          },
          {
            "duration": 0.22604166666667425,
            "durationTicks": 217,
            "midi": 48,
            "name": "C3",
            "ticks": 407280,
            "time": 424.25,
            "velocity": 0.7637795275590551
          },
          {
            "duration": 0.45104166666664014,
            "durationTicks": 433,
            "midi": 43,
            "name": "G2",
            "ticks": 407520,
            "time": 424.5,
            "velocity": 0.7322834645669292
          },
          {
            "duration": 0.22604166666667425,
            "durationTicks": 217,
            "midi": 48,
            "name": "C3",
            "ticks": 410880,
            "time": 428,
            "velocity": 0.6692913385826772
          },
          {
            "duration": 0.22604166666667425,
            "durationTicks": 217,
            "midi": 48,
            "name": "C3",
            "ticks": 411120,
            "time": 428.25,
            "velocity": 0.7637795275590551
          },
          {
            "duration": 0.22604166666667425,
            "durationTicks": 217,
            "midi": 48,
            "name": "C3",
            "ticks": 411360,
            "time": 428.5,
            "velocity": 0.8582677165354331
          },
          {
            "duration": 0.22604166666667425,
            "durationTicks": 217,
            "midi": 48,
            "name": "C3",
            "ticks": 411600,
            "time": 428.75,
            "velocity": 0.8818897637795275
          },
          {
            "duration": 0.22604166666667425,
            "durationTicks": 217,
            "midi": 48,
            "name": "C3",
            "ticks": 411840,
            "time": 429,
            "velocity": 0.8976377952755905
          },
          {
            "duration": 0.22604166666667425,
            "durationTicks": 217,
            "midi": 48,
            "name": "C3",
            "ticks": 412080,
            "time": 429.25,
            "velocity": 0.8818897637795275
          },
          {
            "duration": 0.22604166666667425,
            "durationTicks": 217,
            "midi": 48,
            "name": "C3",
            "ticks": 412320,
            "time": 429.5,
            "velocity": 0.8740157480314961
          },
          {
            "duration": 0.22604166666667425,
            "durationTicks": 217,
            "midi": 48,
            "name": "C3",
            "ticks": 412560,
            "time": 429.75,
            "velocity": 0.905511811023622
          },
          {
            "duration": 0.22604166666667425,
            "durationTicks": 217,
            "midi": 48,
            "name": "C3",
            "ticks": 412800,
            "time": 430,
            "velocity": 0.8976377952755905
          },
          {
            "duration": 0.22604166666667425,
            "durationTicks": 217,
            "midi": 48,
            "name": "C3",
            "ticks": 413040,
            "time": 430.25,
            "velocity": 0.905511811023622
          },
          {
            "duration": 0.22604166666667425,
            "durationTicks": 217,
            "midi": 48,
            "name": "C3",
            "ticks": 413280,
            "time": 430.5,
            "velocity": 0.889763779527559
          },
          {
            "duration": 0.22604166666667425,
            "durationTicks": 217,
            "midi": 48,
            "name": "C3",
            "ticks": 413520,
            "time": 430.75,
            "velocity": 0.889763779527559
          },
          {
            "duration": 0.22604166666667425,
            "durationTicks": 217,
            "midi": 48,
            "name": "C3",
            "ticks": 413760,
            "time": 431,
            "velocity": 0.889763779527559
          },
          {
            "duration": 0.22604166666667425,
            "durationTicks": 217,
            "midi": 48,
            "name": "C3",
            "ticks": 414000,
            "time": 431.25,
            "velocity": 0.8976377952755905
          },
          {
            "duration": 0.22604166666667425,
            "durationTicks": 217,
            "midi": 48,
            "name": "C3",
            "ticks": 414240,
            "time": 431.5,
            "velocity": 0.9212598425196851
          },
          {
            "duration": 0.22604166666667425,
            "durationTicks": 217,
            "midi": 48,
            "name": "C3",
            "ticks": 414480,
            "time": 431.75,
            "velocity": 0.889763779527559
          },
          {
            "duration": 0.22604166666667425,
            "durationTicks": 217,
            "midi": 48,
            "name": "C3",
            "ticks": 414720,
            "time": 432,
            "velocity": 0.905511811023622
          },
          {
            "duration": 0.22604166666667425,
            "durationTicks": 217,
            "midi": 48,
            "name": "C3",
            "ticks": 414960,
            "time": 432.25,
            "velocity": 0.889763779527559
          },
          {
            "duration": 0.45104166666664014,
            "durationTicks": 433,
            "midi": 48,
            "name": "C3",
            "ticks": 415200,
            "time": 432.5,
            "velocity": 0.8818897637795275
          },
          {
            "duration": 0.45104166666664014,
            "durationTicks": 433,
            "midi": 43,
            "name": "G2",
            "ticks": 417120,
            "time": 434.5,
            "velocity": 0.7795275590551181
          },
          {
            "duration": 0.22604166666667425,
            "durationTicks": 217,
            "midi": 43,
            "name": "G2",
            "ticks": 427920,
            "time": 445.75,
            "velocity": 0.3937007874015748
          },
          {
            "duration": 0.22604166666667425,
            "durationTicks": 217,
            "midi": 43,
            "name": "G2",
            "ticks": 428160,
            "time": 446,
            "velocity": 0.47244094488188976
          },
          {
            "duration": 0.22604166666667425,
            "durationTicks": 217,
            "midi": 43,
            "name": "G2",
            "ticks": 428400,
            "time": 446.25,
            "velocity": 0.47244094488188976
          },
          {
            "duration": 0.45104166666664014,
            "durationTicks": 433,
            "midi": 48,
            "name": "C3",
            "ticks": 428640,
            "time": 446.5,
            "velocity": 0.5433070866141733
          },
          {
            "duration": 0.22604166666667425,
            "durationTicks": 217,
            "midi": 43,
            "name": "G2",
            "ticks": 435600,
            "time": 453.75,
            "velocity": 0.4330708661417323
          },
          {
            "duration": 0.22604166666667425,
            "durationTicks": 217,
            "midi": 43,
            "name": "G2",
            "ticks": 435840,
            "time": 454,
            "velocity": 0.4566929133858268
          },
          {
            "duration": 0.22604166666667425,
            "durationTicks": 217,
            "midi": 43,
            "name": "G2",
            "ticks": 436080,
            "time": 454.25,
            "velocity": 0.4881889763779528
          },
          {
            "duration": 0.45104166666664014,
            "durationTicks": 433,
            "midi": 48,
            "name": "C3",
            "ticks": 436320,
            "time": 454.5,
            "velocity": 0.5354330708661418
          },
          {
            "duration": 0.12083333333333712,
            "durationTicks": 116,
            "midi": 43,
            "name": "G2",
            "ticks": 459360,
            "time": 478.5,
            "velocity": 0.8031496062992126
          },
          {
            "duration": 0.1166666666666174,
            "durationTicks": 112,
            "midi": 44,
            "name": "G#2",
            "ticks": 459501,
            "time": 478.646875,
            "velocity": 0.8031496062992126
          },
          {
            "duration": 0.11041666666665151,
            "durationTicks": 106,
            "midi": 43,
            "name": "G2",
            "ticks": 459636,
            "time": 478.7875,
            "velocity": 0.8031496062992126
          },
          {
            "duration": 0.109375,
            "durationTicks": 105,
            "midi": 44,
            "name": "G#2",
            "ticks": 459767,
            "time": 478.92395833333336,
            "velocity": 0.8031496062992126
          },
          {
            "duration": 0.10416666666668561,
            "durationTicks": 100,
            "midi": 43,
            "name": "G2",
            "ticks": 459892,
            "time": 479.0541666666667,
            "velocity": 0.8031496062992126
          },
          {
            "duration": 0.0999999999999659,
            "durationTicks": 96,
            "midi": 44,
            "name": "G#2",
            "ticks": 460012,
            "time": 479.1791666666667,
            "velocity": 0.8031496062992126
          },
          {
            "duration": 0.0999999999999659,
            "durationTicks": 96,
            "midi": 43,
            "name": "G2",
            "ticks": 460132,
            "time": 479.3041666666667,
            "velocity": 0.8031496062992126
          },
          {
            "duration": 0.1031250000000341,
            "durationTicks": 99,
            "midi": 44,
            "name": "G#2",
            "ticks": 460258,
            "time": 479.43541666666664,
            "velocity": 0.8031496062992126
          },
          {
            "duration": 0.109375,
            "durationTicks": 105,
            "midi": 43,
            "name": "G2",
            "ticks": 460389,
            "time": 479.571875,
            "velocity": 0.8031496062992126
          },
          {
            "duration": 0.11145833333335986,
            "durationTicks": 107,
            "midi": 44,
            "name": "G#2",
            "ticks": 460524,
            "time": 479.7125,
            "velocity": 0.8031496062992126
          },
          {
            "duration": 0.08958333333333712,
            "durationTicks": 86,
            "midi": 43,
            "name": "G2",
            "ticks": 460665,
            "time": 479.859375,
            "velocity": 0.8031496062992126
          },
          {
            "duration": 0.45104166666664014,
            "durationTicks": 433,
            "midi": 43,
            "name": "G2",
            "ticks": 460800,
            "time": 480,
            "velocity": 0.8740157480314961
          },
          {
            "duration": 0.45104166666664014,
            "durationTicks": 433,
            "midi": 48,
            "name": "C3",
            "ticks": 461280,
            "time": 480.5,
            "velocity": 0.9291338582677166
          },
          {
            "duration": 0.45104166666664014,
            "durationTicks": 433,
            "midi": 43,
            "name": "G2",
            "ticks": 462240,
            "time": 481.5,
            "velocity": 0.8110236220472441
          },
          {
            "duration": 0.45104166666664014,
            "durationTicks": 433,
            "midi": 48,
            "name": "C3",
            "ticks": 463200,
            "time": 482.5,
            "velocity": 0.8110236220472441
          },
          {
            "duration": 0.45104166666664014,
            "durationTicks": 433,
            "midi": 48,
            "name": "C3",
            "ticks": 464160,
            "time": 483.5,
            "velocity": 0.8188976377952756
          },
          {
            "duration": 0.45104166666664014,
            "durationTicks": 433,
            "midi": 43,
            "name": "G2",
            "ticks": 465120,
            "time": 484.5,
            "velocity": 0.8031496062992126
          },
          {
            "duration": 0.45104166666664014,
            "durationTicks": 433,
            "midi": 43,
            "name": "G2",
            "ticks": 466080,
            "time": 485.5,
            "velocity": 0.8661417322834646
          },
          {
            "duration": 0.12083333333333712,
            "durationTicks": 116,
            "midi": 43,
            "name": "G2",
            "ticks": 467040,
            "time": 486.5,
            "velocity": 0.8188976377952756
          },
          {
            "duration": 0.11770833333332575,
            "durationTicks": 113,
            "midi": 44,
            "name": "G#2",
            "ticks": 467182,
            "time": 486.6479166666667,
            "velocity": 0.8188976377952756
          },
          {
            "duration": 0.11562500000002274,
            "durationTicks": 111,
            "midi": 43,
            "name": "G2",
            "ticks": 467321,
            "time": 486.79270833333334,
            "velocity": 0.8188976377952756
          },
          {
            "duration": 0.11145833333330302,
            "durationTicks": 107,
            "midi": 44,
            "name": "G#2",
            "ticks": 467456,
            "time": 486.93333333333334,
            "velocity": 0.8188976377952756
          },
          {
            "duration": 0.10729166666664014,
            "durationTicks": 103,
            "midi": 43,
            "name": "G2",
            "ticks": 467586,
            "time": 487.06875,
            "velocity": 0.8188976377952756
          },
          {
            "duration": 0.10416666666668561,
            "durationTicks": 100,
            "midi": 44,
            "name": "G#2",
            "ticks": 467711,
            "time": 487.19895833333334,
            "velocity": 0.8188976377952756
          },
          {
            "duration": 0.1020833333333826,
            "durationTicks": 98,
            "midi": 43,
            "name": "G2",
            "ticks": 467833,
            "time": 487.32604166666664,
            "velocity": 0.8188976377952756
          },
          {
            "duration": 0.09791666666666288,
            "durationTicks": 94,
            "midi": 44,
            "name": "G#2",
            "ticks": 467951,
            "time": 487.44895833333334,
            "velocity": 0.8188976377952756
          },
          {
            "duration": 0.10000000000002274,
            "durationTicks": 96,
            "midi": 43,
            "name": "G2",
            "ticks": 468071,
            "time": 487.57395833333334,
            "velocity": 0.8188976377952756
          },
          {
            "duration": 0.10104166666667425,
            "durationTicks": 97,
            "midi": 44,
            "name": "G#2",
            "ticks": 468195,
            "time": 487.703125,
            "velocity": 0.8188976377952756
          },
          {
            "duration": 0.10729166666669698,
            "durationTicks": 103,
            "midi": 43,
            "name": "G2",
            "ticks": 468324,
            "time": 487.8375,
            "velocity": 0.8188976377952756
          },
          {
            "duration": 0.109375,
            "durationTicks": 105,
            "midi": 44,
            "name": "G#2",
            "ticks": 468457,
            "time": 487.9760416666667,
            "velocity": 0.8188976377952756
          },
          {
            "duration": 0.11354166666666288,
            "durationTicks": 109,
            "midi": 43,
            "name": "G2",
            "ticks": 468594,
            "time": 488.11875,
            "velocity": 0.8188976377952756
          },
          {
            "duration": 0.11666666666667425,
            "durationTicks": 112,
            "midi": 44,
            "name": "G#2",
            "ticks": 468735,
            "time": 488.265625,
            "velocity": 0.8188976377952756
          },
          {
            "duration": 0.45104166666664014,
            "durationTicks": 433,
            "midi": 48,
            "name": "C3",
            "ticks": 468960,
            "time": 488.5,
            "velocity": 0.984251968503937
          },
          {
            "duration": 0.45104166666664014,
            "durationTicks": 433,
            "midi": 48,
            "name": "C3",
            "ticks": 469440,
            "time": 489,
            "velocity": 0.8818897637795275
          },
          {
            "duration": 0.45104166666664014,
            "durationTicks": 433,
            "midi": 43,
            "name": "G2",
            "ticks": 470400,
            "time": 490,
            "velocity": 0.7874015748031497
          },
          {
            "duration": 0.45104166666664014,
            "durationTicks": 433,
            "midi": 48,
            "name": "C3",
            "ticks": 471360,
            "time": 491,
            "velocity": 0.8110236220472441
          },
          {
            "duration": 0.45104166666664014,
            "durationTicks": 433,
            "midi": 48,
            "name": "C3",
            "ticks": 472320,
            "time": 492,
            "velocity": 0.7874015748031497
          },
          {
            "duration": 0.45104166666664014,
            "durationTicks": 433,
            "midi": 43,
            "name": "G2",
            "ticks": 473280,
            "time": 493,
            "velocity": 0.8031496062992126
          },
          {
            "duration": 0.45104166666664014,
            "durationTicks": 433,
            "midi": 43,
            "name": "G2",
            "ticks": 474240,
            "time": 494,
            "velocity": 0.8267716535433071
          },
          {
            "duration": 0.45104166666664014,
            "durationTicks": 433,
            "midi": 48,
            "name": "C3",
            "ticks": 474720,
            "time": 494.5,
            "velocity": 0.9606299212598425
          },
          {
            "duration": 0.22604166666667425,
            "durationTicks": 217,
            "midi": 43,
            "name": "G2",
            "ticks": 477840,
            "time": 497.75,
            "velocity": 0.8031496062992126
          },
          {
            "duration": 0.22604166666667425,
            "durationTicks": 217,
            "midi": 43,
            "name": "G2",
            "ticks": 478080,
            "time": 498,
            "velocity": 0.8976377952755905
          },
          {
            "duration": 0.22604166666667425,
            "durationTicks": 217,
            "midi": 43,
            "name": "G2",
            "ticks": 478320,
            "time": 498.25,
            "velocity": 0.8740157480314961
          },
          {
            "duration": 0.45104166666664014,
            "durationTicks": 433,
            "midi": 48,
            "name": "C3",
            "ticks": 478560,
            "time": 498.5,
            "velocity": 0.9606299212598425
          },
          {
            "duration": 0.22604166666667425,
            "durationTicks": 217,
            "midi": 43,
            "name": "G2",
            "ticks": 481680,
            "time": 501.75,
            "velocity": 0.7874015748031497
          },
          {
            "duration": 0.22604166666667425,
            "durationTicks": 217,
            "midi": 43,
            "name": "G2",
            "ticks": 481920,
            "time": 502,
            "velocity": 0.889763779527559
          },
          {
            "duration": 0.22604166666667425,
            "durationTicks": 217,
            "midi": 43,
            "name": "G2",
            "ticks": 482160,
            "time": 502.25,
            "velocity": 0.8818897637795275
          },
          {
            "duration": 0.45104166666664014,
            "durationTicks": 433,
            "midi": 48,
            "name": "C3",
            "ticks": 482400,
            "time": 502.5,
            "velocity": 0.937007874015748
          },
          {
            "duration": 0.22604166666667425,
            "durationTicks": 217,
            "midi": 43,
            "name": "G2",
            "ticks": 483600,
            "time": 503.75,
            "velocity": 0.8031496062992126
          },
          {
            "duration": 0.22604166666667425,
            "durationTicks": 217,
            "midi": 43,
            "name": "G2",
            "ticks": 483840,
            "time": 504,
            "velocity": 0.8582677165354331
          },
          {
            "duration": 0.22604166666667425,
            "durationTicks": 217,
            "midi": 43,
            "name": "G2",
            "ticks": 484080,
            "time": 504.25,
            "velocity": 0.8976377952755905
          },
          {
            "duration": 0.45104166666664014,
            "durationTicks": 433,
            "midi": 48,
            "name": "C3",
            "ticks": 484320,
            "time": 504.5,
            "velocity": 0.9212598425196851
          },
          {
            "duration": 0.22604166666667425,
            "durationTicks": 217,
            "midi": 43,
            "name": "G2",
            "ticks": 485520,
            "time": 505.75,
            "velocity": 0.7874015748031497
          },
          {
            "duration": 0.22604166666667425,
            "durationTicks": 217,
            "midi": 43,
            "name": "G2",
            "ticks": 485760,
            "time": 506,
            "velocity": 0.8740157480314961
          },
          {
            "duration": 0.22604166666667425,
            "durationTicks": 217,
            "midi": 43,
            "name": "G2",
            "ticks": 486000,
            "time": 506.25,
            "velocity": 0.8976377952755905
          },
          {
            "duration": 0.22604166666667425,
            "durationTicks": 217,
            "midi": 48,
            "name": "C3",
            "ticks": 486240,
            "time": 506.5,
            "velocity": 0.9606299212598425
          },
          {
            "duration": 0.22604166666667425,
            "durationTicks": 217,
            "midi": 48,
            "name": "C3",
            "ticks": 486480,
            "time": 506.75,
            "velocity": 0.9212598425196851
          },
          {
            "duration": 0.22604166666667425,
            "durationTicks": 217,
            "midi": 48,
            "name": "C3",
            "ticks": 486720,
            "time": 507,
            "velocity": 0.8976377952755905
          },
          {
            "duration": 0.22604166666667425,
            "durationTicks": 217,
            "midi": 48,
            "name": "C3",
            "ticks": 486960,
            "time": 507.25,
            "velocity": 0.9448818897637795
          },
          {
            "duration": 0.45104166666664014,
            "durationTicks": 433,
            "midi": 48,
            "name": "C3",
            "ticks": 487200,
            "time": 507.5,
            "velocity": 0.8976377952755905
          },
          {
            "duration": 0.22604166666667425,
            "durationTicks": 217,
            "midi": 48,
            "name": "C3",
            "ticks": 488400,
            "time": 508.75,
            "velocity": 0.8188976377952756
          },
          {
            "duration": 0.22604166666667425,
            "durationTicks": 217,
            "midi": 48,
            "name": "C3",
            "ticks": 488640,
            "time": 509,
            "velocity": 0.8503937007874016
          },
          {
            "duration": 0.22604166666667425,
            "durationTicks": 217,
            "midi": 48,
            "name": "C3",
            "ticks": 488880,
            "time": 509.25,
            "velocity": 0.8976377952755905
          },
          {
            "duration": 0.45104166666664014,
            "durationTicks": 433,
            "midi": 48,
            "name": "C3",
            "ticks": 489120,
            "time": 509.5,
            "velocity": 0.889763779527559
          },
          {
            "duration": 0.22604166666667425,
            "durationTicks": 217,
            "midi": 48,
            "name": "C3",
            "ticks": 490320,
            "time": 510.75,
            "velocity": 0.8031496062992126
          },
          {
            "duration": 0.22604166666667425,
            "durationTicks": 217,
            "midi": 48,
            "name": "C3",
            "ticks": 490560,
            "time": 511,
            "velocity": 0.8740157480314961
          },
          {
            "duration": 0.22604166666667425,
            "durationTicks": 217,
            "midi": 48,
            "name": "C3",
            "ticks": 490800,
            "time": 511.25,
            "velocity": 0.905511811023622
          },
          {
            "duration": 0.45104166666664014,
            "durationTicks": 433,
            "midi": 48,
            "name": "C3",
            "ticks": 491040,
            "time": 511.5,
            "velocity": 0.8740157480314961
          },
          {
            "duration": 0.22604166666667425,
            "durationTicks": 217,
            "midi": 48,
            "name": "C3",
            "ticks": 492240,
            "time": 512.75,
            "velocity": 0.8031496062992126
          },
          {
            "duration": 0.22604166666667425,
            "durationTicks": 217,
            "midi": 48,
            "name": "C3",
            "ticks": 492480,
            "time": 513,
            "velocity": 0.8818897637795275
          },
          {
            "duration": 0.22604166666667425,
            "durationTicks": 217,
            "midi": 48,
            "name": "C3",
            "ticks": 492720,
            "time": 513.25,
            "velocity": 0.8740157480314961
          },
          {
            "duration": 0.451041666666697,
            "durationTicks": 433,
            "midi": 48,
            "name": "C3",
            "ticks": 492960,
            "time": 513.5,
            "velocity": 0.9291338582677166
          },
          {
            "duration": 0.22604166666667425,
            "durationTicks": 217,
            "midi": 48,
            "name": "C3",
            "ticks": 501840,
            "time": 522.75,
            "velocity": 0.7795275590551181
          },
          {
            "duration": 0.22604166666667425,
            "durationTicks": 217,
            "midi": 48,
            "name": "C3",
            "ticks": 502080,
            "time": 523,
            "velocity": 0.8818897637795275
          },
          {
            "duration": 0.22604166666667425,
            "durationTicks": 217,
            "midi": 48,
            "name": "C3",
            "ticks": 502320,
            "time": 523.25,
            "velocity": 0.8976377952755905
          },
          {
            "duration": 0.22604166666667425,
            "durationTicks": 217,
            "midi": 48,
            "name": "C3",
            "ticks": 502560,
            "time": 523.5,
            "velocity": 0.889763779527559
          },
          {
            "duration": 0.22604166666667425,
            "durationTicks": 217,
            "midi": 48,
            "name": "C3",
            "ticks": 502800,
            "time": 523.75,
            "velocity": 0.9133858267716536
          },
          {
            "duration": 0.22604166666667425,
            "durationTicks": 217,
            "midi": 48,
            "name": "C3",
            "ticks": 503040,
            "time": 524,
            "velocity": 0.8976377952755905
          },
          {
            "duration": 0.22604166666667425,
            "durationTicks": 217,
            "midi": 48,
            "name": "C3",
            "ticks": 503280,
            "time": 524.25,
            "velocity": 0.8661417322834646
          },
          {
            "duration": 0.22604166666667425,
            "durationTicks": 217,
            "midi": 48,
            "name": "C3",
            "ticks": 503520,
            "time": 524.5,
            "velocity": 0.8818897637795275
          },
          {
            "duration": 0.22604166666667425,
            "durationTicks": 217,
            "midi": 48,
            "name": "C3",
            "ticks": 503760,
            "time": 524.75,
            "velocity": 0.9212598425196851
          },
          {
            "duration": 0.22604166666667425,
            "durationTicks": 217,
            "midi": 48,
            "name": "C3",
            "ticks": 504000,
            "time": 525,
            "velocity": 0.8740157480314961
          },
          {
            "duration": 0.22604166666667425,
            "durationTicks": 217,
            "midi": 48,
            "name": "C3",
            "ticks": 504240,
            "time": 525.25,
            "velocity": 0.8818897637795275
          },
          {
            "duration": 0.22604166666667425,
            "durationTicks": 217,
            "midi": 48,
            "name": "C3",
            "ticks": 504480,
            "time": 525.5,
            "velocity": 0.8818897637795275
          },
          {
            "duration": 0.22604166666667425,
            "durationTicks": 217,
            "midi": 48,
            "name": "C3",
            "ticks": 504720,
            "time": 525.75,
            "velocity": 0.8740157480314961
          },
          {
            "duration": 0.22604166666667425,
            "durationTicks": 217,
            "midi": 48,
            "name": "C3",
            "ticks": 504960,
            "time": 526,
            "velocity": 0.8976377952755905
          },
          {
            "duration": 0.22604166666667425,
            "durationTicks": 217,
            "midi": 48,
            "name": "C3",
            "ticks": 505200,
            "time": 526.25,
            "velocity": 0.8818897637795275
          },
          {
            "duration": 0.22604166666667425,
            "durationTicks": 217,
            "midi": 48,
            "name": "C3",
            "ticks": 505440,
            "time": 526.5,
            "velocity": 0.905511811023622
          },
          {
            "duration": 0.22604166666667425,
            "durationTicks": 217,
            "midi": 48,
            "name": "C3",
            "ticks": 505680,
            "time": 526.75,
            "velocity": 0.8740157480314961
          },
          {
            "duration": 0.22604166666667425,
            "durationTicks": 217,
            "midi": 48,
            "name": "C3",
            "ticks": 505920,
            "time": 527,
            "velocity": 0.9133858267716536
          },
          {
            "duration": 0.22604166666667425,
            "durationTicks": 217,
            "midi": 48,
            "name": "C3",
            "ticks": 506160,
            "time": 527.25,
            "velocity": 0.8740157480314961
          },
          {
            "duration": 0.451041666666697,
            "durationTicks": 433,
            "midi": 48,
            "name": "C3",
            "ticks": 506400,
            "time": 527.5,
            "velocity": 0.905511811023622
          },
          {
            "duration": 0.22604166666667425,
            "durationTicks": 217,
            "midi": 48,
            "name": "C3",
            "ticks": 507600,
            "time": 528.75,
            "velocity": 0.7795275590551181
          },
          {
            "duration": 0.22604166666667425,
            "durationTicks": 217,
            "midi": 48,
            "name": "C3",
            "ticks": 507840,
            "time": 529,
            "velocity": 0.889763779527559
          },
          {
            "duration": 0.22604166666667425,
            "durationTicks": 217,
            "midi": 48,
            "name": "C3",
            "ticks": 508080,
            "time": 529.25,
            "velocity": 0.9212598425196851
          },
          {
            "duration": 0.451041666666697,
            "durationTicks": 433,
            "midi": 48,
            "name": "C3",
            "ticks": 508320,
            "time": 529.5,
            "velocity": 0.9212598425196851
          },
          {
            "duration": 0.451041666666697,
            "durationTicks": 433,
            "midi": 43,
            "name": "G2",
            "ticks": 510240,
            "time": 531.5,
            "velocity": 0.8503937007874016
          },
          {
            "duration": 0.451041666666697,
            "durationTicks": 433,
            "midi": 43,
            "name": "G2",
            "ticks": 514080,
            "time": 535.5,
            "velocity": 0.8188976377952756
          },
          {
            "duration": 0.451041666666697,
            "durationTicks": 433,
            "midi": 43,
            "name": "G2",
            "ticks": 526080,
            "time": 548,
            "velocity": 0.7795275590551181
          },
          {
            "duration": 0.451041666666697,
            "durationTicks": 433,
            "midi": 43,
            "name": "G2",
            "ticks": 526560,
            "time": 548.5,
            "velocity": 0.8661417322834646
          },
          {
            "duration": 0.451041666666697,
            "durationTicks": 433,
            "midi": 43,
            "name": "G2",
            "ticks": 527040,
            "time": 549,
            "velocity": 0.8818897637795275
          },
          {
            "duration": 0.451041666666697,
            "durationTicks": 433,
            "midi": 43,
            "name": "G2",
            "ticks": 527520,
            "time": 549.5,
            "velocity": 0.8740157480314961
          },
          {
            "duration": 0.451041666666697,
            "durationTicks": 433,
            "midi": 43,
            "name": "G2",
            "ticks": 528000,
            "time": 550,
            "velocity": 0.8976377952755905
          },
          {
            "duration": 0.451041666666697,
            "durationTicks": 433,
            "midi": 43,
            "name": "G2",
            "ticks": 528480,
            "time": 550.5,
            "velocity": 0.8661417322834646
          },
          {
            "duration": 0.451041666666697,
            "durationTicks": 433,
            "midi": 48,
            "name": "C3",
            "ticks": 528960,
            "time": 551,
            "velocity": 0.9291338582677166
          },
          {
            "duration": 0.451041666666697,
            "durationTicks": 433,
            "midi": 48,
            "name": "C3",
            "ticks": 529440,
            "time": 551.5,
            "velocity": 0.9291338582677166
          },
          {
            "duration": 0.451041666666697,
            "durationTicks": 433,
            "midi": 48,
            "name": "C3",
            "ticks": 529920,
            "time": 552,
            "velocity": 0.8976377952755905
          },
          {
            "duration": 0.451041666666697,
            "durationTicks": 433,
            "midi": 48,
            "name": "C3",
            "ticks": 530400,
            "time": 552.5,
            "velocity": 0.8740157480314961
          },
          {
            "duration": 0.451041666666697,
            "durationTicks": 433,
            "midi": 43,
            "name": "G2",
            "ticks": 530880,
            "time": 553,
            "velocity": 0.8267716535433071
          },
          {
            "duration": 0.451041666666697,
            "durationTicks": 433,
            "midi": 43,
            "name": "G2",
            "ticks": 531360,
            "time": 553.5,
            "velocity": 0.8818897637795275
          },
          {
            "duration": 0.451041666666697,
            "durationTicks": 433,
            "midi": 43,
            "name": "G2",
            "ticks": 531840,
            "time": 554,
            "velocity": 0.9212598425196851
          },
          {
            "duration": 0.451041666666697,
            "durationTicks": 433,
            "midi": 43,
            "name": "G2",
            "ticks": 532320,
            "time": 554.5,
            "velocity": 0.8976377952755905
          },
          {
            "duration": 0.451041666666697,
            "durationTicks": 433,
            "midi": 43,
            "name": "G2",
            "ticks": 532800,
            "time": 555,
            "velocity": 0.8976377952755905
          },
          {
            "duration": 0.22604166666667425,
            "durationTicks": 217,
            "midi": 48,
            "name": "C3",
            "ticks": 533280,
            "time": 555.5,
            "velocity": 0.9606299212598425
          },
          {
            "duration": 0.22604166666667425,
            "durationTicks": 217,
            "midi": 48,
            "name": "C3",
            "ticks": 533520,
            "time": 555.75,
            "velocity": 0.9133858267716536
          },
          {
            "duration": 0.22604166666667425,
            "durationTicks": 217,
            "midi": 48,
            "name": "C3",
            "ticks": 533760,
            "time": 556,
            "velocity": 0.8818897637795275
          },
          {
            "duration": 0.22604166666667425,
            "durationTicks": 217,
            "midi": 48,
            "name": "C3",
            "ticks": 534000,
            "time": 556.25,
            "velocity": 0.889763779527559
          },
          {
            "duration": 0.451041666666697,
            "durationTicks": 433,
            "midi": 48,
            "name": "C3",
            "ticks": 534240,
            "time": 556.5,
            "velocity": 0.8818897637795275
          },
          {
            "duration": 0.22604166666667425,
            "durationTicks": 217,
            "midi": 48,
            "name": "C3",
            "ticks": 535200,
            "time": 557.5,
            "velocity": 0.8031496062992126
          },
          {
            "duration": 0.22604166666667425,
            "durationTicks": 217,
            "midi": 48,
            "name": "C3",
            "ticks": 535440,
            "time": 557.75,
            "velocity": 0.8976377952755905
          },
          {
            "duration": 0.22604166666667425,
            "durationTicks": 217,
            "midi": 48,
            "name": "C3",
            "ticks": 535680,
            "time": 558,
            "velocity": 0.9133858267716536
          },
          {
            "duration": 0.22604166666667425,
            "durationTicks": 217,
            "midi": 48,
            "name": "C3",
            "ticks": 535920,
            "time": 558.25,
            "velocity": 0.8582677165354331
          },
          {
            "duration": 0.451041666666697,
            "durationTicks": 433,
            "midi": 48,
            "name": "C3",
            "ticks": 536160,
            "time": 558.5,
            "velocity": 0.8818897637795275
          },
          {
            "duration": 0.22604166666667425,
            "durationTicks": 217,
            "midi": 48,
            "name": "C3",
            "ticks": 537120,
            "time": 559.5,
            "velocity": 0.7795275590551181
          },
          {
            "duration": 0.22604166666667425,
            "durationTicks": 217,
            "midi": 48,
            "name": "C3",
            "ticks": 537360,
            "time": 559.75,
            "velocity": 0.8582677165354331
          },
          {
            "duration": 0.22604166666667425,
            "durationTicks": 217,
            "midi": 48,
            "name": "C3",
            "ticks": 537600,
            "time": 560,
            "velocity": 0.9212598425196851
          },
          {
            "duration": 0.22604166666667425,
            "durationTicks": 217,
            "midi": 48,
            "name": "C3",
            "ticks": 537840,
            "time": 560.25,
            "velocity": 0.8661417322834646
          },
          {
            "duration": 0.451041666666697,
            "durationTicks": 433,
            "midi": 48,
            "name": "C3",
            "ticks": 538080,
            "time": 560.5,
            "velocity": 0.889763779527559
          },
          {
            "duration": 0.22604166666667425,
            "durationTicks": 217,
            "midi": 48,
            "name": "C3",
            "ticks": 539040,
            "time": 561.5,
            "velocity": 0.8110236220472441
          },
          {
            "duration": 0.22604166666667425,
            "durationTicks": 217,
            "midi": 48,
            "name": "C3",
            "ticks": 539280,
            "time": 561.75,
            "velocity": 0.8976377952755905
          },
          {
            "duration": 0.22604166666667425,
            "durationTicks": 217,
            "midi": 48,
            "name": "C3",
            "ticks": 539520,
            "time": 562,
            "velocity": 0.889763779527559
          },
          {
            "duration": 0.22604166666667425,
            "durationTicks": 217,
            "midi": 48,
            "name": "C3",
            "ticks": 539760,
            "time": 562.25,
            "velocity": 0.8818897637795275
          },
          {
            "duration": 0.451041666666697,
            "durationTicks": 433,
            "midi": 48,
            "name": "C3",
            "ticks": 540000,
            "time": 562.5,
            "velocity": 0.905511811023622
          },
          {
            "duration": 0.22604166666667425,
            "durationTicks": 217,
            "midi": 43,
            "name": "G2",
            "ticks": 540960,
            "time": 563.5,
            "velocity": 0.7874015748031497
          },
          {
            "duration": 0.22604166666667425,
            "durationTicks": 217,
            "midi": 43,
            "name": "G2",
            "ticks": 541200,
            "time": 563.75,
            "velocity": 0.8740157480314961
          },
          {
            "duration": 0.22604166666667425,
            "durationTicks": 217,
            "midi": 43,
            "name": "G2",
            "ticks": 541440,
            "time": 564,
            "velocity": 0.905511811023622
          },
          {
            "duration": 0.22604166666667425,
            "durationTicks": 217,
            "midi": 43,
            "name": "G2",
            "ticks": 541680,
            "time": 564.25,
            "velocity": 0.905511811023622
          },
          {
            "duration": 0.451041666666697,
            "durationTicks": 433,
            "midi": 43,
            "name": "G2",
            "ticks": 541920,
            "time": 564.5,
            "velocity": 0.8818897637795275
          },
          {
            "duration": 0.22500000000002274,
            "durationTicks": 216,
            "midi": 48,
            "name": "C3",
            "ticks": 542880,
            "time": 565.5,
            "velocity": 0.8188976377952756
          },
          {
            "duration": 0.22500000000002274,
            "durationTicks": 216,
            "midi": 48,
            "name": "C3",
            "ticks": 543840,
            "time": 566.5,
            "velocity": 0.8267716535433071
          },
          {
            "duration": 0.22500000000002274,
            "durationTicks": 216,
            "midi": 48,
            "name": "C3",
            "ticks": 544800,
            "time": 567.5,
            "velocity": 0.7952755905511811
          },
          {
            "duration": 0.22500000000002274,
            "durationTicks": 216,
            "midi": 48,
            "name": "C3",
            "ticks": 545760,
            "time": 568.5,
            "velocity": 0.7874015748031497
          },
          {
            "duration": 0.22500000000002274,
            "durationTicks": 216,
            "midi": 43,
            "name": "G2",
            "ticks": 546720,
            "time": 569.5,
            "velocity": 0.7795275590551181
          },
          {
            "duration": 0.22500000000002274,
            "durationTicks": 216,
            "midi": 43,
            "name": "G2",
            "ticks": 547680,
            "time": 570.5,
            "velocity": 0.8110236220472441
          },
          {
            "duration": 0.22500000000002274,
            "durationTicks": 216,
            "midi": 48,
            "name": "C3",
            "ticks": 548640,
            "time": 571.5,
            "velocity": 0.7795275590551181
          },
          {
            "duration": 0.451041666666697,
            "durationTicks": 433,
            "midi": 48,
            "name": "C3",
            "ticks": 549600,
            "time": 572.5,
            "velocity": 0.8188976377952756
          },
          {
            "duration": 0.451041666666697,
            "durationTicks": 433,
            "midi": 48,
            "name": "C3",
            "ticks": 550080,
            "time": 573,
            "velocity": 0.8740157480314961
          },
          {
            "duration": 0.451041666666697,
            "durationTicks": 433,
            "midi": 48,
            "name": "C3",
            "ticks": 550560,
            "time": 573.5,
            "velocity": 0.8976377952755905
          },
          {
            "duration": 0.451041666666697,
            "durationTicks": 433,
            "midi": 48,
            "name": "C3",
            "ticks": 551520,
            "time": 574.5,
            "velocity": 0.7952755905511811
          },
          {
            "duration": 0.451041666666697,
            "durationTicks": 433,
            "midi": 48,
            "name": "C3",
            "ticks": 552000,
            "time": 575,
            "velocity": 0.8976377952755905
          },
          {
            "duration": 0.451041666666697,
            "durationTicks": 433,
            "midi": 48,
            "name": "C3",
            "ticks": 552480,
            "time": 575.5,
            "velocity": 0.9133858267716536
          },
          {
            "duration": 0.451041666666697,
            "durationTicks": 433,
            "midi": 48,
            "name": "C3",
            "ticks": 553440,
            "time": 576.5,
            "velocity": 0.7874015748031497
          },
          {
            "duration": 0.451041666666697,
            "durationTicks": 433,
            "midi": 48,
            "name": "C3",
            "ticks": 553920,
            "time": 577,
            "velocity": 0.8818897637795275
          },
          {
            "duration": 0.451041666666697,
            "durationTicks": 433,
            "midi": 48,
            "name": "C3",
            "ticks": 554400,
            "time": 577.5,
            "velocity": 0.9133858267716536
          },
          {
            "duration": 0.451041666666697,
            "durationTicks": 433,
            "midi": 43,
            "name": "G2",
            "ticks": 555360,
            "time": 578.5,
            "velocity": 0.8031496062992126
          },
          {
            "duration": 0.451041666666697,
            "durationTicks": 433,
            "midi": 43,
            "name": "G2",
            "ticks": 555840,
            "time": 579,
            "velocity": 0.8976377952755905
          },
          {
            "duration": 0.451041666666697,
            "durationTicks": 433,
            "midi": 43,
            "name": "G2",
            "ticks": 556320,
            "time": 579.5,
            "velocity": 0.889763779527559
          },
          {
            "duration": 0.451041666666697,
            "durationTicks": 433,
            "midi": 43,
            "name": "G2",
            "ticks": 559200,
            "time": 582.5,
            "velocity": 0.7874015748031497
          },
          {
            "duration": 0.451041666666697,
            "durationTicks": 433,
            "midi": 43,
            "name": "G2",
            "ticks": 559680,
            "time": 583,
            "velocity": 0.8582677165354331
          },
          {
            "duration": 0.451041666666697,
            "durationTicks": 433,
            "midi": 43,
            "name": "G2",
            "ticks": 560160,
            "time": 583.5,
            "velocity": 0.9212598425196851
          },
          {
            "duration": 0.451041666666697,
            "durationTicks": 433,
            "midi": 48,
            "name": "C3",
            "ticks": 564960,
            "time": 588.5,
            "velocity": 0.8110236220472441
          },
          {
            "duration": 0.451041666666697,
            "durationTicks": 433,
            "midi": 48,
            "name": "C3",
            "ticks": 565440,
            "time": 589,
            "velocity": 0.8740157480314961
          },
          {
            "duration": 0.451041666666697,
            "durationTicks": 433,
            "midi": 48,
            "name": "C3",
            "ticks": 566880,
            "time": 590.5,
            "velocity": 0.8740157480314961
          },
          {
            "duration": 0.451041666666697,
            "durationTicks": 433,
            "midi": 48,
            "name": "C3",
            "ticks": 567360,
            "time": 591,
            "velocity": 0.84251968503937
          },
          {
            "duration": 0.451041666666697,
            "durationTicks": 433,
            "midi": 43,
            "name": "G2",
            "ticks": 568320,
            "time": 592,
            "velocity": 0.7952755905511811
          },
          {
            "duration": 0.451041666666697,
            "durationTicks": 433,
            "midi": 43,
            "name": "G2",
            "ticks": 569280,
            "time": 593,
            "velocity": 0.7952755905511811
          },
          {
            "duration": 0.451041666666697,
            "durationTicks": 433,
            "midi": 48,
            "name": "C3",
            "ticks": 571680,
            "time": 595.5,
            "velocity": 0.889763779527559
          },
          {
            "duration": 0.451041666666697,
            "durationTicks": 433,
            "midi": 48,
            "name": "C3",
            "ticks": 572160,
            "time": 596,
            "velocity": 0.905511811023622
          },
          {
            "duration": 0.451041666666697,
            "durationTicks": 433,
            "midi": 48,
            "name": "C3",
            "ticks": 572640,
            "time": 596.5,
            "velocity": 0.8740157480314961
          },
          {
            "duration": 0.451041666666697,
            "durationTicks": 433,
            "midi": 48,
            "name": "C3",
            "ticks": 573120,
            "time": 597,
            "velocity": 0.9291338582677166
          },
          {
            "duration": 0.451041666666697,
            "durationTicks": 433,
            "midi": 48,
            "name": "C3",
            "ticks": 573600,
            "time": 597.5,
            "velocity": 0.9212598425196851
          },
          {
            "duration": 0.451041666666697,
            "durationTicks": 433,
            "midi": 48,
            "name": "C3",
            "ticks": 574080,
            "time": 598,
            "velocity": 0.889763779527559
          },
          {
            "duration": 0.451041666666697,
            "durationTicks": 433,
            "midi": 48,
            "name": "C3",
            "ticks": 574560,
            "time": 598.5,
            "velocity": 0.84251968503937
          },
          {
            "duration": 0.451041666666697,
            "durationTicks": 433,
            "midi": 48,
            "name": "C3",
            "ticks": 575040,
            "time": 599,
            "velocity": 0.8503937007874016
          },
          {
            "duration": 0.451041666666697,
            "durationTicks": 433,
            "midi": 43,
            "name": "G2",
            "ticks": 576000,
            "time": 600,
            "velocity": 0.7795275590551181
          },
          {
            "duration": 0.451041666666697,
            "durationTicks": 433,
            "midi": 43,
            "name": "G2",
            "ticks": 576960,
            "time": 601,
            "velocity": 0.8188976377952756
          },
          {
            "duration": 0.451041666666697,
            "durationTicks": 433,
            "midi": 48,
            "name": "C3",
            "ticks": 577440,
            "time": 601.5,
            "velocity": 0.937007874015748
          },
          {
            "duration": 0.22604166666667425,
            "durationTicks": 217,
            "midi": 43,
            "name": "G2",
            "ticks": 582480,
            "time": 606.75,
            "velocity": 0.8031496062992126
          },
          {
            "duration": 0.22604166666667425,
            "durationTicks": 217,
            "midi": 43,
            "name": "G2",
            "ticks": 582720,
            "time": 607,
            "velocity": 0.8740157480314961
          },
          {
            "duration": 0.22604166666667425,
            "durationTicks": 217,
            "midi": 43,
            "name": "G2",
            "ticks": 582960,
            "time": 607.25,
            "velocity": 0.8503937007874016
          },
          {
            "duration": 0.451041666666697,
            "durationTicks": 433,
            "midi": 48,
            "name": "C3",
            "ticks": 583200,
            "time": 607.5,
            "velocity": 0.952755905511811
          },
          {
            "duration": 0.22604166666667425,
            "durationTicks": 217,
            "midi": 43,
            "name": "G2",
            "ticks": 586320,
            "time": 610.75,
            "velocity": 0.7874015748031497
          },
          {
            "duration": 0.22604166666667425,
            "durationTicks": 217,
            "midi": 43,
            "name": "G2",
            "ticks": 586560,
            "time": 611,
            "velocity": 0.8661417322834646
          },
          {
            "duration": 0.22604166666667425,
            "durationTicks": 217,
            "midi": 43,
            "name": "G2",
            "ticks": 586800,
            "time": 611.25,
            "velocity": 0.9133858267716536
          },
          {
            "duration": 0.05833333333328028,
            "durationTicks": 56,
            "midi": 43,
            "name": "G2",
            "ticks": 587040,
            "time": 611.5,
            "velocity": 0.8818897637795275
          },
          {
            "duration": 0.058333333333393966,
            "durationTicks": 56,
            "midi": 44,
            "name": "G#2",
            "ticks": 587111,
            "time": 611.5739583333333,
            "velocity": 0.8818897637795275
          },
          {
            "duration": 0.05624999999997726,
            "durationTicks": 54,
            "midi": 43,
            "name": "G2",
            "ticks": 587181,
            "time": 611.646875,
            "velocity": 0.8818897637795275
          },
          {
            "duration": 0.055208333333325754,
            "durationTicks": 53,
            "midi": 44,
            "name": "G#2",
            "ticks": 587248,
            "time": 611.7166666666667,
            "velocity": 0.8818897637795275
          },
          {
            "duration": 0.054166666666674246,
            "durationTicks": 52,
            "midi": 43,
            "name": "G2",
            "ticks": 587316,
            "time": 611.7875,
            "velocity": 0.8818897637795275
          },
          {
            "duration": 0.05520833333343944,
            "durationTicks": 53,
            "midi": 44,
            "name": "G#2",
            "ticks": 587381,
            "time": 611.8552083333333,
            "velocity": 0.8818897637795275
          },
          {
            "duration": 0.054166666666674246,
            "durationTicks": 52,
            "midi": 43,
            "name": "G2",
            "ticks": 587447,
            "time": 611.9239583333333,
            "velocity": 0.8818897637795275
          },
          {
            "duration": 0.05208333333325754,
            "durationTicks": 50,
            "midi": 44,
            "name": "G#2",
            "ticks": 587511,
            "time": 611.990625,
            "velocity": 0.8818897637795275
          },
          {
            "duration": 0.051041666666606034,
            "durationTicks": 49,
            "midi": 43,
            "name": "G2",
            "ticks": 587572,
            "time": 612.0541666666667,
            "velocity": 0.8818897637795275
          },
          {
            "duration": 0.05104166666671972,
            "durationTicks": 49,
            "midi": 44,
            "name": "G#2",
            "ticks": 587634,
            "time": 612.11875,
            "velocity": 0.8818897637795275
          },
          {
            "duration": 0.04895833333330302,
            "durationTicks": 47,
            "midi": 43,
            "name": "G2",
            "ticks": 587694,
            "time": 612.18125,
            "velocity": 0.8818897637795275
          },
          {
            "duration": 0.04895833333330302,
            "durationTicks": 47,
            "midi": 44,
            "name": "G#2",
            "ticks": 587754,
            "time": 612.24375,
            "velocity": 0.8818897637795275
          },
          {
            "duration": 0.046875,
            "durationTicks": 45,
            "midi": 43,
            "name": "G2",
            "ticks": 587812,
            "time": 612.3041666666667,
            "velocity": 0.8818897637795275
          },
          {
            "duration": 0.04895833333330302,
            "durationTicks": 47,
            "midi": 44,
            "name": "G#2",
            "ticks": 587872,
            "time": 612.3666666666667,
            "velocity": 0.8818897637795275
          },
          {
            "duration": 0.04895833333330302,
            "durationTicks": 47,
            "midi": 43,
            "name": "G2",
            "ticks": 587932,
            "time": 612.4291666666667,
            "velocity": 0.8818897637795275
          },
          {
            "duration": 0.05104166666671972,
            "durationTicks": 49,
            "midi": 44,
            "name": "G#2",
            "ticks": 587994,
            "time": 612.49375,
            "velocity": 0.8818897637795275
          },
          {
            "duration": 0.05104166666671972,
            "durationTicks": 49,
            "midi": 43,
            "name": "G2",
            "ticks": 588056,
            "time": 612.5583333333333,
            "velocity": 0.8818897637795275
          },
          {
            "duration": 0.05312500000002274,
            "durationTicks": 51,
            "midi": 44,
            "name": "G#2",
            "ticks": 588120,
            "time": 612.625,
            "velocity": 0.8818897637795275
          },
          {
            "duration": 0.054166666666674246,
            "durationTicks": 52,
            "midi": 43,
            "name": "G2",
            "ticks": 588186,
            "time": 612.69375,
            "velocity": 0.8818897637795275
          },
          {
            "duration": 0.05520833333343944,
            "durationTicks": 53,
            "midi": 44,
            "name": "G#2",
            "ticks": 588251,
            "time": 612.7614583333333,
            "velocity": 0.8818897637795275
          },
          {
            "duration": 0.05416666666656056,
            "durationTicks": 52,
            "midi": 43,
            "name": "G2",
            "ticks": 588319,
            "time": 612.8322916666667,
            "velocity": 0.8818897637795275
          },
          {
            "duration": 0.05624999999997726,
            "durationTicks": 54,
            "midi": 44,
            "name": "G#2",
            "ticks": 588388,
            "time": 612.9041666666667,
            "velocity": 0.8818897637795275
          },
          {
            "duration": 0.021875000000022737,
            "durationTicks": 21,
            "midi": 43,
            "name": "G2",
            "ticks": 588457,
            "time": 612.9760416666667,
            "velocity": 0.8818897637795275
          },
          {
            "duration": 0.22604166666667425,
            "durationTicks": 217,
            "midi": 43,
            "name": "G2",
            "ticks": 588720,
            "time": 613.25,
            "velocity": 0.7952755905511811
          },
          {
            "duration": 0.22604166666667425,
            "durationTicks": 217,
            "midi": 43,
            "name": "G2",
            "ticks": 588960,
            "time": 613.5,
            "velocity": 0.84251968503937
          },
          {
            "duration": 0.22604166666667425,
            "durationTicks": 217,
            "midi": 43,
            "name": "G2",
            "ticks": 589200,
            "time": 613.75,
            "velocity": 0.8818897637795275
          },
          {
            "duration": 0.05833333333328028,
            "durationTicks": 56,
            "midi": 43,
            "name": "G2",
            "ticks": 589440,
            "time": 614,
            "velocity": 0.905511811023622
          },
          {
            "duration": 0.058333333333393966,
            "durationTicks": 56,
            "midi": 44,
            "name": "G#2",
            "ticks": 589511,
            "time": 614.0739583333333,
            "velocity": 0.905511811023622
          },
          {
            "duration": 0.059375000000045475,
            "durationTicks": 57,
            "midi": 43,
            "name": "G2",
            "ticks": 589582,
            "time": 614.1479166666667,
            "velocity": 0.905511811023622
          },
          {
            "duration": 0.05624999999997726,
            "durationTicks": 54,
            "midi": 44,
            "name": "G#2",
            "ticks": 589652,
            "time": 614.2208333333333,
            "velocity": 0.905511811023622
          },
          {
            "duration": 0.05729166666674246,
            "durationTicks": 55,
            "midi": 43,
            "name": "G2",
            "ticks": 589721,
            "time": 614.2927083333333,
            "velocity": 0.905511811023622
          },
          {
            "duration": 0.05416666666656056,
            "durationTicks": 52,
            "midi": 44,
            "name": "G#2",
            "ticks": 589789,
            "time": 614.3635416666667,
            "velocity": 0.905511811023622
          },
          {
            "duration": 0.05520833333343944,
            "durationTicks": 53,
            "midi": 43,
            "name": "G2",
            "ticks": 589856,
            "time": 614.4333333333333,
            "velocity": 0.905511811023622
          },
          {
            "duration": 0.05416666666656056,
            "durationTicks": 52,
            "midi": 44,
            "name": "G#2",
            "ticks": 589924,
            "time": 614.5041666666667,
            "velocity": 0.905511811023622
          },
          {
            "duration": 0.055208333333325754,
            "durationTicks": 53,
            "midi": 43,
            "name": "G2",
            "ticks": 589989,
            "time": 614.571875,
            "velocity": 0.905511811023622
          },
          {
            "duration": 0.054166666666674246,
            "durationTicks": 52,
            "midi": 44,
            "name": "G#2",
            "ticks": 590055,
            "time": 614.640625,
            "velocity": 0.905511811023622
          },
          {
            "duration": 0.054166666666674246,
            "durationTicks": 52,
            "midi": 43,
            "name": "G2",
            "ticks": 590121,
            "time": 614.709375,
            "velocity": 0.905511811023622
          },
          {
            "duration": 0.05312500000002274,
            "durationTicks": 51,
            "midi": 44,
            "name": "G#2",
            "ticks": 590184,
            "time": 614.775,
            "velocity": 0.905511811023622
          },
          {
            "duration": 0.05312500000002274,
            "durationTicks": 51,
            "midi": 43,
            "name": "G2",
            "ticks": 590248,
            "time": 614.8416666666667,
            "velocity": 0.905511811023622
          },
          {
            "duration": 0.05104166666671972,
            "durationTicks": 49,
            "midi": 44,
            "name": "G#2",
            "ticks": 590310,
            "time": 614.90625,
            "velocity": 0.905511811023622
          },
          {
            "duration": 0.05104166666671972,
            "durationTicks": 49,
            "midi": 43,
            "name": "G2",
            "ticks": 590372,
            "time": 614.9708333333333,
            "velocity": 0.905511811023622
          },
          {
            "duration": 0.049999999999954525,
            "durationTicks": 48,
            "midi": 44,
            "name": "G#2",
            "ticks": 590434,
            "time": 615.0354166666667,
            "velocity": 0.905511811023622
          },
          {
            "duration": 0.04895833333330302,
            "durationTicks": 47,
            "midi": 43,
            "name": "G2",
            "ticks": 590494,
            "time": 615.0979166666667,
            "velocity": 0.905511811023622
          },
          {
            "duration": 0.04895833333330302,
            "durationTicks": 47,
            "midi": 44,
            "name": "G#2",
            "ticks": 590554,
            "time": 615.1604166666667,
            "velocity": 0.905511811023622
          },
          {
            "duration": 0.04895833333330302,
            "durationTicks": 47,
            "midi": 43,
            "name": "G2",
            "ticks": 590614,
            "time": 615.2229166666667,
            "velocity": 0.905511811023622
          },
          {
            "duration": 0.046875,
            "durationTicks": 45,
            "midi": 44,
            "name": "G#2",
            "ticks": 590672,
            "time": 615.2833333333333,
            "velocity": 0.905511811023622
          },
          {
            "duration": 0.046875,
            "durationTicks": 45,
            "midi": 43,
            "name": "G2",
            "ticks": 590730,
            "time": 615.34375,
            "velocity": 0.905511811023622
          },
          {
            "duration": 0.046875,
            "durationTicks": 45,
            "midi": 44,
            "name": "G#2",
            "ticks": 590788,
            "time": 615.4041666666667,
            "velocity": 0.905511811023622
          },
          {
            "duration": 0.04895833333330302,
            "durationTicks": 47,
            "midi": 43,
            "name": "G2",
            "ticks": 590848,
            "time": 615.4666666666667,
            "velocity": 0.905511811023622
          },
          {
            "duration": 0.04895833333330302,
            "durationTicks": 47,
            "midi": 44,
            "name": "G#2",
            "ticks": 590908,
            "time": 615.5291666666667,
            "velocity": 0.905511811023622
          },
          {
            "duration": 0.04895833333330302,
            "durationTicks": 47,
            "midi": 43,
            "name": "G2",
            "ticks": 590968,
            "time": 615.5916666666667,
            "velocity": 0.905511811023622
          },
          {
            "duration": 0.05104166666671972,
            "durationTicks": 49,
            "midi": 44,
            "name": "G#2",
            "ticks": 591030,
            "time": 615.65625,
            "velocity": 0.905511811023622
          },
          {
            "duration": 0.05104166666671972,
            "durationTicks": 49,
            "midi": 43,
            "name": "G2",
            "ticks": 591092,
            "time": 615.7208333333333,
            "velocity": 0.905511811023622
          },
          {
            "duration": 0.049999999999954525,
            "durationTicks": 48,
            "midi": 44,
            "name": "G#2",
            "ticks": 591154,
            "time": 615.7854166666667,
            "velocity": 0.905511811023622
          },
          {
            "duration": 0.05312500000002274,
            "durationTicks": 51,
            "midi": 43,
            "name": "G2",
            "ticks": 591217,
            "time": 615.8510416666667,
            "velocity": 0.905511811023622
          },
          {
            "duration": 0.05312500000002274,
            "durationTicks": 51,
            "midi": 44,
            "name": "G#2",
            "ticks": 591281,
            "time": 615.9177083333333,
            "velocity": 0.905511811023622
          },
          {
            "duration": 0.054166666666674246,
            "durationTicks": 52,
            "midi": 43,
            "name": "G2",
            "ticks": 591347,
            "time": 615.9864583333333,
            "velocity": 0.905511811023622
          },
          {
            "duration": 0.055208333333325754,
            "durationTicks": 53,
            "midi": 44,
            "name": "G#2",
            "ticks": 591412,
            "time": 616.0541666666667,
            "velocity": 0.905511811023622
          },
          {
            "duration": 0.055208333333325754,
            "durationTicks": 53,
            "midi": 43,
            "name": "G2",
            "ticks": 591478,
            "time": 616.1229166666667,
            "velocity": 0.905511811023622
          },
          {
            "duration": 0.054166666666674246,
            "durationTicks": 52,
            "midi": 44,
            "name": "G#2",
            "ticks": 591546,
            "time": 616.19375,
            "velocity": 0.905511811023622
          },
          {
            "duration": 0.055208333333325754,
            "durationTicks": 53,
            "midi": 43,
            "name": "G2",
            "ticks": 591613,
            "time": 616.2635416666667,
            "velocity": 0.905511811023622
          },
          {
            "duration": 0.05729166666662877,
            "durationTicks": 55,
            "midi": 44,
            "name": "G#2",
            "ticks": 591682,
            "time": 616.3354166666667,
            "velocity": 0.905511811023622
          },
          {
            "duration": 0.05624999999997726,
            "durationTicks": 54,
            "midi": 43,
            "name": "G2",
            "ticks": 591752,
            "time": 616.4083333333333,
            "velocity": 0.905511811023622
          },
          {
            "duration": 0.017708333333416704,
            "durationTicks": 17,
            "midi": 44,
            "name": "G#2",
            "ticks": 591821,
            "time": 616.4802083333333,
            "velocity": 0.905511811023622
          },
          {
            "duration": 0.22604166666667425,
            "durationTicks": 217,
            "midi": 43,
            "name": "G2",
            "ticks": 599760,
            "time": 624.75,
            "velocity": 0.8031496062992126
          },
          {
            "duration": 0.22604166666667425,
            "durationTicks": 217,
            "midi": 43,
            "name": "G2",
            "ticks": 600000,
            "time": 625,
            "velocity": 0.889763779527559
          },
          {
            "duration": 0.22604166666667425,
            "durationTicks": 217,
            "midi": 43,
            "name": "G2",
            "ticks": 600240,
            "time": 625.25,
            "velocity": 0.905511811023622
          },
          {
            "duration": 0.451041666666697,
            "durationTicks": 433,
            "midi": 48,
            "name": "C3",
            "ticks": 600480,
            "time": 625.5,
            "velocity": 0.9212598425196851
          },
          {
            "duration": 0.22604166666667425,
            "durationTicks": 217,
            "midi": 43,
            "name": "G2",
            "ticks": 601680,
            "time": 626.75,
            "velocity": 0.7952755905511811
          },
          {
            "duration": 0.22604166666667425,
            "durationTicks": 217,
            "midi": 43,
            "name": "G2",
            "ticks": 601920,
            "time": 627,
            "velocity": 0.8976377952755905
          },
          {
            "duration": 0.22604166666667425,
            "durationTicks": 217,
            "midi": 43,
            "name": "G2",
            "ticks": 602160,
            "time": 627.25,
            "velocity": 0.8818897637795275
          },
          {
            "duration": 0.451041666666697,
            "durationTicks": 433,
            "midi": 48,
            "name": "C3",
            "ticks": 602400,
            "time": 627.5,
            "velocity": 0.937007874015748
          },
          {
            "duration": 0.22604166666667425,
            "durationTicks": 217,
            "midi": 43,
            "name": "G2",
            "ticks": 603600,
            "time": 628.75,
            "velocity": 0.8110236220472441
          },
          {
            "duration": 0.22604166666667425,
            "durationTicks": 217,
            "midi": 43,
            "name": "G2",
            "ticks": 603840,
            "time": 629,
            "velocity": 0.8818897637795275
          },
          {
            "duration": 0.22604166666667425,
            "durationTicks": 217,
            "midi": 43,
            "name": "G2",
            "ticks": 604080,
            "time": 629.25,
            "velocity": 0.889763779527559
          },
          {
            "duration": 0.451041666666697,
            "durationTicks": 433,
            "midi": 48,
            "name": "C3",
            "ticks": 604320,
            "time": 629.5,
            "velocity": 0.9291338582677166
          },
          {
            "duration": 0.451041666666697,
            "durationTicks": 433,
            "midi": 43,
            "name": "G2",
            "ticks": 604800,
            "time": 630,
            "velocity": 0.8110236220472441
          },
          {
            "duration": 0.451041666666697,
            "durationTicks": 433,
            "midi": 48,
            "name": "C3",
            "ticks": 605280,
            "time": 630.5,
            "velocity": 0.9291338582677166
          },
          {
            "duration": 0.451041666666697,
            "durationTicks": 433,
            "midi": 43,
            "name": "G2",
            "ticks": 605760,
            "time": 631,
            "velocity": 0.8346456692913385
          },
          {
            "duration": 0.451041666666697,
            "durationTicks": 433,
            "midi": 48,
            "name": "C3",
            "ticks": 606240,
            "time": 631.5,
            "velocity": 0.9763779527559056
          },
          {
            "duration": 0.451041666666697,
            "durationTicks": 433,
            "midi": 43,
            "name": "G2",
            "ticks": 606720,
            "time": 632,
            "velocity": 0.8503937007874016
          },
          {
            "duration": 0.451041666666697,
            "durationTicks": 433,
            "midi": 48,
            "name": "C3",
            "ticks": 607200,
            "time": 632.5,
            "velocity": 0.9448818897637795
          },
          {
            "duration": 0.451041666666697,
            "durationTicks": 433,
            "midi": 43,
            "name": "G2",
            "ticks": 607680,
            "time": 633,
            "velocity": 0.8188976377952756
          },
          {
            "duration": 0.451041666666697,
            "durationTicks": 433,
            "midi": 48,
            "name": "C3",
            "ticks": 608160,
            "time": 633.5,
            "velocity": 0.9921259842519685
          },
          {
            "duration": 0.451041666666697,
            "durationTicks": 433,
            "midi": 43,
            "name": "G2",
            "ticks": 609120,
            "time": 634.5,
            "velocity": 0.7874015748031497
          },
          {
            "duration": 0.451041666666697,
            "durationTicks": 433,
            "midi": 48,
            "name": "C3",
            "ticks": 610080,
            "time": 635.5,
            "velocity": 0.8110236220472441
          }
        ]
      },
      {
        "channel": 6,
        "controlChanges": {
          "7": [
            {
              "number": 7,
              "ticks": 0,
              "time": 0,
              "value": 0.5826771653543307
            }
          ],
          "10": [
            {
              "number": 10,
              "ticks": 0,
              "time": 0,
              "value": 0.1968503937007874
            }
          ],
          "64": [
            {
              "number": 64,
              "ticks": 0,
              "time": 0,
              "value": 0
            }
          ],
          "121": [
            {
              "number": 121,
              "ticks": 0,
              "time": 0,
              "value": 0
            }
          ]
        },
        "pitchBends": [],
        "instrument": {
          "family": "ensemble",
          "number": 48,
          "name": "string ensemble 1"
        },
        "name": "",
        "notes": [
          {
            "duration": 0.22604166666666664,
            "durationTicks": 217,
            "midi": 67,
            "name": "G4",
            "ticks": 240,
            "time": 0.25,
            "velocity": 0.7874015748031497
          },
          {
            "duration": 0.2260416666666667,
            "durationTicks": 217,
            "midi": 67,
            "name": "G4",
            "ticks": 480,
            "time": 0.5,
            "velocity": 0.8582677165354331
          },
          {
            "duration": 0.2260416666666667,
            "durationTicks": 217,
            "midi": 67,
            "name": "G4",
            "ticks": 720,
            "time": 0.75,
            "velocity": 0.9133858267716536
          },
          {
            "duration": 1.5,
            "durationTicks": 1440,
            "midi": 63,
            "name": "D#4",
            "ticks": 960,
            "time": 1,
            "velocity": 0.8188976377952756
          },
          {
            "duration": 0.2260416666666667,
            "durationTicks": 217,
            "midi": 65,
            "name": "F4",
            "ticks": 2640,
            "time": 2.75,
            "velocity": 0.7952755905511811
          },
          {
            "duration": 0.2260416666666667,
            "durationTicks": 217,
            "midi": 65,
            "name": "F4",
            "ticks": 2880,
            "time": 3,
            "velocity": 0.8346456692913385
          },
          {
            "duration": 0.2260416666666667,
            "durationTicks": 217,
            "midi": 65,
            "name": "F4",
            "ticks": 3120,
            "time": 3.25,
            "velocity": 0.8976377952755905
          },
          {
            "duration": 2.5,
            "durationTicks": 2400,
            "midi": 62,
            "name": "D4",
            "ticks": 3360,
            "time": 3.5,
            "velocity": 0.7716535433070866
          },
          {
            "duration": 0.22604166666666714,
            "durationTicks": 217,
            "midi": 75,
            "name": "D#5",
            "ticks": 7920,
            "time": 8.25,
            "velocity": 0.44881889763779526
          },
          {
            "duration": 0.22604166666666714,
            "durationTicks": 217,
            "midi": 75,
            "name": "D#5",
            "ticks": 8160,
            "time": 8.5,
            "velocity": 0.47244094488188976
          },
          {
            "duration": 0.22604166666666714,
            "durationTicks": 217,
            "midi": 75,
            "name": "D#5",
            "ticks": 8400,
            "time": 8.75,
            "velocity": 0.44881889763779526
          },
          {
            "duration": 1.4510416666666668,
            "durationTicks": 1393,
            "midi": 72,
            "name": "C5",
            "ticks": 8640,
            "time": 9,
            "velocity": 0.44881889763779526
          },
          {
            "duration": 0.22604166666666714,
            "durationTicks": 217,
            "midi": 77,
            "name": "F5",
            "ticks": 11760,
            "time": 12.25,
            "velocity": 0.41732283464566927
          },
          {
            "duration": 0.22604166666666714,
            "durationTicks": 217,
            "midi": 77,
            "name": "F5",
            "ticks": 12000,
            "time": 12.5,
            "velocity": 0.4881889763779528
          },
          {
            "duration": 0.22604166666666714,
            "durationTicks": 217,
            "midi": 77,
            "name": "F5",
            "ticks": 12240,
            "time": 12.75,
            "velocity": 0.4881889763779528
          },
          {
            "duration": 1.2260416666666671,
            "durationTicks": 1177,
            "midi": 74,
            "name": "D5",
            "ticks": 12480,
            "time": 13,
            "velocity": 0.41732283464566927
          },
          {
            "duration": 0.22604166666666714,
            "durationTicks": 217,
            "midi": 79,
            "name": "G5",
            "ticks": 13680,
            "time": 14.25,
            "velocity": 0.5275590551181102
          },
          {
            "duration": 0.22604166666666714,
            "durationTicks": 217,
            "midi": 79,
            "name": "G5",
            "ticks": 13920,
            "time": 14.5,
            "velocity": 0.47244094488188976
          },
          {
            "duration": 0.22604166666666714,
            "durationTicks": 217,
            "midi": 77,
            "name": "F5",
            "ticks": 14160,
            "time": 14.75,
            "velocity": 0.4409448818897638
          },
          {
            "duration": 0.9000000000000004,
            "durationTicks": 864,
            "midi": 75,
            "name": "D#5",
            "ticks": 14400,
            "time": 15,
            "velocity": 0.4094488188976378
          },
          {
            "duration": 0.22604166666666714,
            "durationTicks": 217,
            "midi": 74,
            "name": "D5",
            "ticks": 15360,
            "time": 16,
            "velocity": 0.44881889763779526
          },
          {
            "duration": 0.22604166666666714,
            "durationTicks": 217,
            "midi": 79,
            "name": "G5",
            "ticks": 15600,
            "time": 16.25,
            "velocity": 0.5511811023622047
          },
          {
            "duration": 0.22604166666666714,
            "durationTicks": 217,
            "midi": 79,
            "name": "G5",
            "ticks": 15840,
            "time": 16.5,
            "velocity": 0.4881889763779528
          },
          {
            "duration": 0.22604166666666714,
            "durationTicks": 217,
            "midi": 77,
            "name": "F5",
            "ticks": 16080,
            "time": 16.75,
            "velocity": 0.48031496062992124
          },
          {
            "duration": 0.8999999999999986,
            "durationTicks": 864,
            "midi": 75,
            "name": "D#5",
            "ticks": 16320,
            "time": 17,
            "velocity": 0.4251968503937008
          },
          {
            "duration": 0.22604166666666714,
            "durationTicks": 217,
            "midi": 74,
            "name": "D5",
            "ticks": 17280,
            "time": 18,
            "velocity": 0.44881889763779526
          },
          {
            "duration": 0.22604166666666714,
            "durationTicks": 217,
            "midi": 79,
            "name": "G5",
            "ticks": 17520,
            "time": 18.25,
            "velocity": 0.5275590551181102
          },
          {
            "duration": 0.22604166666666714,
            "durationTicks": 217,
            "midi": 79,
            "name": "G5",
            "ticks": 17760,
            "time": 18.5,
            "velocity": 0.5748031496062992
          },
          {
            "duration": 0.22604166666666714,
            "durationTicks": 217,
            "midi": 77,
            "name": "F5",
            "ticks": 18000,
            "time": 18.75,
            "velocity": 0.5905511811023622
          },
          {
            "duration": 0.451041666666665,
            "durationTicks": 433,
            "midi": 75,
            "name": "D#5",
            "ticks": 18240,
            "time": 19,
            "velocity": 0.7007874015748031
          },
          {
            "duration": 0.05833333333333357,
            "durationTicks": 56,
            "midi": 56,
            "name": "G#3",
            "ticks": 19144,
            "time": 19.941666666666666,
            "velocity": 0.6850393700787402
          },
          {
            "duration": 0.451041666666665,
            "durationTicks": 433,
            "midi": 66,
            "name": "F#4",
            "ticks": 19172,
            "time": 19.970833333333335,
            "velocity": 0.6850393700787402
          },
          {
            "duration": 0.451041666666665,
            "durationTicks": 433,
            "midi": 72,
            "name": "C5",
            "ticks": 19200,
            "time": 20,
            "velocity": 0.6850393700787402
          },
          {
            "duration": 0.05833333333333357,
            "durationTicks": 56,
            "midi": 55,
            "name": "G3",
            "ticks": 20104,
            "time": 20.941666666666666,
            "velocity": 0.5511811023622047
          },
          {
            "duration": 0.05833333333333357,
            "durationTicks": 56,
            "midi": 62,
            "name": "D4",
            "ticks": 20104,
            "time": 20.941666666666666,
            "velocity": 0.5511811023622047
          },
          {
            "duration": 0.451041666666665,
            "durationTicks": 433,
            "midi": 71,
            "name": "B4",
            "ticks": 20132,
            "time": 20.970833333333335,
            "velocity": 0.5511811023622047
          },
          {
            "duration": 1.25,
            "durationTicks": 1200,
            "midi": 79,
            "name": "G5",
            "ticks": 20160,
            "time": 21,
            "velocity": 0.7165354330708661
          },
          {
            "duration": 0.22604166666666714,
            "durationTicks": 217,
            "midi": 68,
            "name": "G#4",
            "ticks": 21600,
            "time": 22.5,
            "velocity": 0.6850393700787402
          },
          {
            "duration": 0.22604166666666714,
            "durationTicks": 217,
            "midi": 68,
            "name": "G#4",
            "ticks": 21840,
            "time": 22.75,
            "velocity": 0.7874015748031497
          },
          {
            "duration": 0.22604166666666714,
            "durationTicks": 217,
            "midi": 68,
            "name": "G#4",
            "ticks": 22080,
            "time": 23,
            "velocity": 0.7716535433070866
          },
          {
            "duration": 2.5,
            "durationTicks": 2400,
            "midi": 65,
            "name": "F4",
            "ticks": 22320,
            "time": 23.25,
            "velocity": 0.6535433070866141
          },
          {
            "duration": 0.22604166666666714,
            "durationTicks": 217,
            "midi": 68,
            "name": "G#4",
            "ticks": 24960,
            "time": 26,
            "velocity": 0.44881889763779526
          },
          {
            "duration": 0.22604166666666714,
            "durationTicks": 217,
            "midi": 68,
            "name": "G#4",
            "ticks": 25200,
            "time": 26.25,
            "velocity": 0.49606299212598426
          },
          {
            "duration": 0.22604166666666714,
            "durationTicks": 217,
            "midi": 68,
            "name": "G#4",
            "ticks": 25440,
            "time": 26.5,
            "velocity": 0.44881889763779526
          },
          {
            "duration": 2.8999999999999986,
            "durationTicks": 2784,
            "midi": 65,
            "name": "F4",
            "ticks": 25680,
            "time": 26.75,
            "velocity": 0.4251968503937008
          },
          {
            "duration": 0.22604166666666714,
            "durationTicks": 217,
            "midi": 63,
            "name": "D#4",
            "ticks": 28560,
            "time": 29.75,
            "velocity": 0.4330708661417323
          },
          {
            "duration": 0.22604166666666714,
            "durationTicks": 217,
            "midi": 68,
            "name": "G#4",
            "ticks": 28800,
            "time": 30,
            "velocity": 0.5511811023622047
          },
          {
            "duration": 0.22604166666666714,
            "durationTicks": 217,
            "midi": 68,
            "name": "G#4",
            "ticks": 29040,
            "time": 30.25,
            "velocity": 0.49606299212598426
          },
          {
            "duration": 0.22604166666666714,
            "durationTicks": 217,
            "midi": 68,
            "name": "G#4",
            "ticks": 29280,
            "time": 30.5,
            "velocity": 0.4645669291338583
          },
          {
            "duration": 2.8999999999999986,
            "durationTicks": 2784,
            "midi": 65,
            "name": "F4",
            "ticks": 29520,
            "time": 30.75,
            "velocity": 0.44881889763779526
          },
          {
            "duration": 0.22604166666666714,
            "durationTicks": 217,
            "midi": 63,
            "name": "D#4",
            "ticks": 32400,
            "time": 33.75,
            "velocity": 0.4645669291338583
          },
          {
            "duration": 0.22604166666666714,
            "durationTicks": 217,
            "midi": 67,
            "name": "G4",
            "ticks": 32640,
            "time": 34,
            "velocity": 0.5275590551181102
          },
          {
            "duration": 0.22604166666666714,
            "durationTicks": 217,
            "midi": 72,
            "name": "C5",
            "ticks": 32880,
            "time": 34.25,
            "velocity": 0.5511811023622047
          },
          {
            "duration": 0.22604166666666714,
            "durationTicks": 217,
            "midi": 72,
            "name": "C5",
            "ticks": 33120,
            "time": 34.5,
            "velocity": 0.49606299212598426
          },
          {
            "duration": 0.8999999999999986,
            "durationTicks": 864,
            "midi": 72,
            "name": "C5",
            "ticks": 33360,
            "time": 34.75,
            "velocity": 0.5118110236220472
          },
          {
            "duration": 0.22604166666666714,
            "durationTicks": 217,
            "midi": 71,
            "name": "B4",
            "ticks": 34320,
            "time": 35.75,
            "velocity": 0.44881889763779526
          },
          {
            "duration": 0.22604166666666714,
            "durationTicks": 217,
            "midi": 71,
            "name": "B4",
            "ticks": 34560,
            "time": 36,
            "velocity": 0.5196850393700787
          },
          {
            "duration": 0.22604166666666714,
            "durationTicks": 217,
            "midi": 71,
            "name": "B4",
            "ticks": 34800,
            "time": 36.25,
            "velocity": 0.5354330708661418
          },
          {
            "duration": 0.22604166666666714,
            "durationTicks": 217,
            "midi": 74,
            "name": "D5",
            "ticks": 35040,
            "time": 36.5,
            "velocity": 0.5748031496062992
          },
          {
            "duration": 0.8999999999999986,
            "durationTicks": 864,
            "midi": 74,
            "name": "D5",
            "ticks": 35280,
            "time": 36.75,
            "velocity": 0.5590551181102362
          },
          {
            "duration": 0.22604166666666714,
            "durationTicks": 217,
            "midi": 72,
            "name": "C5",
            "ticks": 36240,
            "time": 37.75,
            "velocity": 0.5275590551181102
          },
          {
            "duration": 0.22604166666666714,
            "durationTicks": 217,
            "midi": 72,
            "name": "C5",
            "ticks": 36480,
            "time": 38,
            "velocity": 0.5905511811023622
          },
          {
            "duration": 0.22604166666666714,
            "durationTicks": 217,
            "midi": 72,
            "name": "C5",
            "ticks": 36720,
            "time": 38.25,
            "velocity": 0.5590551181102362
          },
          {
            "duration": 0.22604166666666714,
            "durationTicks": 217,
            "midi": 75,
            "name": "D#5",
            "ticks": 36960,
            "time": 38.5,
            "velocity": 0.6220472440944882
          },
          {
            "duration": 0.25416666666667,
            "durationTicks": 244,
            "midi": 75,
            "name": "D#5",
            "ticks": 37200,
            "time": 38.75,
            "velocity": 0.7007874015748031
          },
          {
            "duration": 0.23645833333333144,
            "durationTicks": 227,
            "midi": 74,
            "name": "D5",
            "ticks": 37440,
            "time": 39,
            "velocity": 0.5590551181102362
          },
          {
            "duration": 0.11354166666666998,
            "durationTicks": 109,
            "midi": 74,
            "name": "D5",
            "ticks": 37680,
            "time": 39.25,
            "velocity": 0.6535433070866141
          },
          {
            "duration": 0.11354166666666998,
            "durationTicks": 109,
            "midi": 77,
            "name": "F5",
            "ticks": 37920,
            "time": 39.5,
            "velocity": 0.6771653543307087
          },
          {
            "duration": 0.25416666666667,
            "durationTicks": 244,
            "midi": 77,
            "name": "F5",
            "ticks": 38160,
            "time": 39.75,
            "velocity": 0.7559055118110236
          },
          {
            "duration": 0.23645833333333144,
            "durationTicks": 227,
            "midi": 76,
            "name": "E5",
            "ticks": 38400,
            "time": 40,
            "velocity": 0.7086614173228346
          },
          {
            "duration": 0.11354166666666998,
            "durationTicks": 109,
            "midi": 76,
            "name": "E5",
            "ticks": 38640,
            "time": 40.25,
            "velocity": 0.6299212598425197
          },
          {
            "duration": 0.11354166666666998,
            "durationTicks": 109,
            "midi": 79,
            "name": "G5",
            "ticks": 38880,
            "time": 40.5,
            "velocity": 0.7165354330708661
          },
          {
            "duration": 0.25416666666667,
            "durationTicks": 244,
            "midi": 79,
            "name": "G5",
            "ticks": 39120,
            "time": 40.75,
            "velocity": 0.8110236220472441
          },
          {
            "duration": 0.23645833333333144,
            "durationTicks": 227,
            "midi": 77,
            "name": "F5",
            "ticks": 39360,
            "time": 41,
            "velocity": 0.6299212598425197
          },
          {
            "duration": 0.11354166666666998,
            "durationTicks": 109,
            "midi": 77,
            "name": "F5",
            "ticks": 39600,
            "time": 41.25,
            "velocity": 0.6692913385826772
          },
          {
            "duration": 0.11354166666666998,
            "durationTicks": 109,
            "midi": 80,
            "name": "G#5",
            "ticks": 39840,
            "time": 41.5,
            "velocity": 0.7480314960629921
          },
          {
            "duration": 0.25416666666667,
            "durationTicks": 244,
            "midi": 80,
            "name": "G#5",
            "ticks": 40080,
            "time": 41.75,
            "velocity": 0.8346456692913385
          },
          {
            "duration": 0.23645833333333144,
            "durationTicks": 227,
            "midi": 79,
            "name": "G5",
            "ticks": 40320,
            "time": 42,
            "velocity": 0.6692913385826772
          },
          {
            "duration": 0.11354166666666998,
            "durationTicks": 109,
            "midi": 79,
            "name": "G5",
            "ticks": 40560,
            "time": 42.25,
            "velocity": 0.7007874015748031
          },
          {
            "duration": 0.11354166666666998,
            "durationTicks": 109,
            "midi": 82,
            "name": "A#5",
            "ticks": 40800,
            "time": 42.5,
            "velocity": 0.7716535433070866
          },
          {
            "duration": 0.25416666666667,
            "durationTicks": 244,
            "midi": 82,
            "name": "A#5",
            "ticks": 41040,
            "time": 42.75,
            "velocity": 0.8188976377952756
          },
          {
            "duration": 0.23645833333333144,
            "durationTicks": 227,
            "midi": 80,
            "name": "G#5",
            "ticks": 41280,
            "time": 43,
            "velocity": 0.7007874015748031
          },
          {
            "duration": 0.11354166666666998,
            "durationTicks": 109,
            "midi": 80,
            "name": "G#5",
            "ticks": 41520,
            "time": 43.25,
            "velocity": 0.7165354330708661
          },
          {
            "duration": 0.11354166666666998,
            "durationTicks": 109,
            "midi": 84,
            "name": "C6",
            "ticks": 41760,
            "time": 43.5,
            "velocity": 0.7874015748031497
          },
          {
            "duration": 0.25416666666667,
            "durationTicks": 244,
            "midi": 84,
            "name": "C6",
            "ticks": 42000,
            "time": 43.75,
            "velocity": 0.8740157480314961
          },
          {
            "duration": 0.23645833333333144,
            "durationTicks": 227,
            "midi": 83,
            "name": "B5",
            "ticks": 42240,
            "time": 44,
            "velocity": 0.7086614173228346
          },
          {
            "duration": 0.11354166666666998,
            "durationTicks": 109,
            "midi": 83,
            "name": "B5",
            "ticks": 42480,
            "time": 44.25,
            "velocity": 0.7716535433070866
          },
          {
            "duration": 0.11354166666666998,
            "durationTicks": 109,
            "midi": 86,
            "name": "D6",
            "ticks": 42720,
            "time": 44.5,
            "velocity": 0.8267716535433071
          },
          {
            "duration": 0.22604166666666714,
            "durationTicks": 217,
            "midi": 84,
            "name": "C6",
            "ticks": 42960,
            "time": 44.75,
            "velocity": 0.7086614173228346
          },
          {
            "duration": 0.22604166666666714,
            "durationTicks": 217,
            "midi": 87,
            "name": "D#6",
            "ticks": 43200,
            "time": 45,
            "velocity": 0.84251968503937
          },
          {
            "duration": 0.22604166666666714,
            "durationTicks": 217,
            "midi": 87,
            "name": "D#6",
            "ticks": 43440,
            "time": 45.25,
            "velocity": 0.8110236220472441
          },
          {
            "duration": 0.22604166666666714,
            "durationTicks": 217,
            "midi": 87,
            "name": "D#6",
            "ticks": 43680,
            "time": 45.5,
            "velocity": 0.7401574803149606
          },
          {
            "duration": 0.22604166666666714,
            "durationTicks": 217,
            "midi": 84,
            "name": "C6",
            "ticks": 43920,
            "time": 45.75,
            "velocity": 0.7086614173228346
          },
          {
            "duration": 0.22604166666666714,
            "durationTicks": 217,
            "midi": 79,
            "name": "G5",
            "ticks": 44160,
            "time": 46,
            "velocity": 0.6771653543307087
          },
          {
            "duration": 0.22604166666666714,
            "durationTicks": 217,
            "midi": 79,
            "name": "G5",
            "ticks": 44400,
            "time": 46.25,
            "velocity": 0.7086614173228346
          },
          {
            "duration": 0.22604166666666714,
            "durationTicks": 217,
            "midi": 79,
            "name": "G5",
            "ticks": 44640,
            "time": 46.5,
            "velocity": 0.8031496062992126
          },
          {
            "duration": 0.22604166666666714,
            "durationTicks": 217,
            "midi": 75,
            "name": "D#5",
            "ticks": 44880,
            "time": 46.75,
            "velocity": 0.6692913385826772
          },
          {
            "duration": 0.22604166666666714,
            "durationTicks": 217,
            "midi": 72,
            "name": "C5",
            "ticks": 45120,
            "time": 47,
            "velocity": 0.6614173228346457
          },
          {
            "duration": 0.22604166666666714,
            "durationTicks": 217,
            "midi": 67,
            "name": "G4",
            "ticks": 45360,
            "time": 47.25,
            "velocity": 0.6456692913385826
          },
          {
            "duration": 0.22604166666666714,
            "durationTicks": 217,
            "midi": 67,
            "name": "G4",
            "ticks": 45600,
            "time": 47.5,
            "velocity": 0.7480314960629921
          },
          {
            "duration": 0.22604166666666714,
            "durationTicks": 217,
            "midi": 63,
            "name": "D#4",
            "ticks": 45840,
            "time": 47.75,
            "velocity": 0.6929133858267716
          },
          {
            "duration": 0.22604166666666714,
            "durationTicks": 217,
            "midi": 60,
            "name": "C4",
            "ticks": 46080,
            "time": 48,
            "velocity": 0.7165354330708661
          },
          {
            "duration": 0.22604166666666714,
            "durationTicks": 217,
            "midi": 60,
            "name": "C4",
            "ticks": 46320,
            "time": 48.25,
            "velocity": 0.7401574803149606
          },
          {
            "duration": 0.22604166666666714,
            "durationTicks": 217,
            "midi": 60,
            "name": "C4",
            "ticks": 46560,
            "time": 48.5,
            "velocity": 0.8031496062992126
          },
          {
            "duration": 0.22604166666666714,
            "durationTicks": 217,
            "midi": 59,
            "name": "B3",
            "ticks": 46800,
            "time": 48.75,
            "velocity": 0.7401574803149606
          },
          {
            "duration": 0.22604166666666714,
            "durationTicks": 217,
            "midi": 89,
            "name": "F6",
            "ticks": 47040,
            "time": 49,
            "velocity": 1
          },
          {
            "duration": 0.22604166666666714,
            "durationTicks": 217,
            "midi": 86,
            "name": "D6",
            "ticks": 47280,
            "time": 49.25,
            "velocity": 0.7401574803149606
          },
          {
            "duration": 0.22604166666666714,
            "durationTicks": 217,
            "midi": 86,
            "name": "D6",
            "ticks": 47520,
            "time": 49.5,
            "velocity": 0.7795275590551181
          },
          {
            "duration": 0.22604166666666714,
            "durationTicks": 217,
            "midi": 83,
            "name": "B5",
            "ticks": 47760,
            "time": 49.75,
            "velocity": 0.7480314960629921
          },
          {
            "duration": 0.22604166666666714,
            "durationTicks": 217,
            "midi": 79,
            "name": "G5",
            "ticks": 48000,
            "time": 50,
            "velocity": 0.6614173228346457
          },
          {
            "duration": 0.22604166666666714,
            "durationTicks": 217,
            "midi": 77,
            "name": "F5",
            "ticks": 48240,
            "time": 50.25,
            "velocity": 0.6929133858267716
          },
          {
            "duration": 0.22604166666666714,
            "durationTicks": 217,
            "midi": 77,
            "name": "F5",
            "ticks": 48480,
            "time": 50.5,
            "velocity": 0.7401574803149606
          },
          {
            "duration": 0.22604166666666714,
            "durationTicks": 217,
            "midi": 74,
            "name": "D5",
            "ticks": 48720,
            "time": 50.75,
            "velocity": 0.7007874015748031
          },
          {
            "duration": 0.22604166666666714,
            "durationTicks": 217,
            "midi": 71,
            "name": "B4",
            "ticks": 48960,
            "time": 51,
            "velocity": 0.7480314960629921
          },
          {
            "duration": 0.22604166666666714,
            "durationTicks": 217,
            "midi": 67,
            "name": "G4",
            "ticks": 49200,
            "time": 51.25,
            "velocity": 0.6929133858267716
          },
          {
            "duration": 0.22604166666666714,
            "durationTicks": 217,
            "midi": 65,
            "name": "F4",
            "ticks": 49440,
            "time": 51.5,
            "velocity": 0.6929133858267716
          },
          {
            "duration": 0.22604166666666714,
            "durationTicks": 217,
            "midi": 62,
            "name": "D4",
            "ticks": 49680,
            "time": 51.75,
            "velocity": 0.6929133858267716
          },
          {
            "duration": 0.22604166666666714,
            "durationTicks": 217,
            "midi": 59,
            "name": "B3",
            "ticks": 49920,
            "time": 52,
            "velocity": 0.7165354330708661
          },
          {
            "duration": 0.22604166666666714,
            "durationTicks": 217,
            "midi": 60,
            "name": "C4",
            "ticks": 50160,
            "time": 52.25,
            "velocity": 0.7952755905511811
          },
          {
            "duration": 0.22604166666666714,
            "durationTicks": 217,
            "midi": 60,
            "name": "C4",
            "ticks": 50400,
            "time": 52.5,
            "velocity": 0.7795275590551181
          },
          {
            "duration": 0.22604166666666714,
            "durationTicks": 217,
            "midi": 60,
            "name": "C4",
            "ticks": 50640,
            "time": 52.75,
            "velocity": 0.8976377952755905
          },
          {
            "duration": 0.22604166666666714,
            "durationTicks": 217,
            "midi": 87,
            "name": "D#6",
            "ticks": 50880,
            "time": 53,
            "velocity": 1
          },
          {
            "duration": 0.22604166666666714,
            "durationTicks": 217,
            "midi": 87,
            "name": "D#6",
            "ticks": 51120,
            "time": 53.25,
            "velocity": 0.9291338582677166
          },
          {
            "duration": 0.22604166666666714,
            "durationTicks": 217,
            "midi": 87,
            "name": "D#6",
            "ticks": 51360,
            "time": 53.5,
            "velocity": 0.8818897637795275
          },
          {
            "duration": 0.22604166666666714,
            "durationTicks": 217,
            "midi": 84,
            "name": "C6",
            "ticks": 51600,
            "time": 53.75,
            "velocity": 0.8110236220472441
          },
          {
            "duration": 0.22604166666666714,
            "durationTicks": 217,
            "midi": 81,
            "name": "A5",
            "ticks": 51840,
            "time": 54,
            "velocity": 0.8188976377952756
          },
          {
            "duration": 0.22604166666666714,
            "durationTicks": 217,
            "midi": 81,
            "name": "A5",
            "ticks": 52080,
            "time": 54.25,
            "velocity": 0.8740157480314961
          },
          {
            "duration": 0.22604166666666714,
            "durationTicks": 217,
            "midi": 81,
            "name": "A5",
            "ticks": 52320,
            "time": 54.5,
            "velocity": 0.8661417322834646
          },
          {
            "duration": 0.22604166666666714,
            "durationTicks": 217,
            "midi": 78,
            "name": "F#5",
            "ticks": 52560,
            "time": 54.75,
            "velocity": 0.8031496062992126
          },
          {
            "duration": 0.22604166666666714,
            "durationTicks": 217,
            "midi": 75,
            "name": "D#5",
            "ticks": 52800,
            "time": 55,
            "velocity": 0.8346456692913385
          },
          {
            "duration": 0.22604166666666714,
            "durationTicks": 217,
            "midi": 75,
            "name": "D#5",
            "ticks": 53040,
            "time": 55.25,
            "velocity": 0.8582677165354331
          },
          {
            "duration": 0.22604166666666714,
            "durationTicks": 217,
            "midi": 75,
            "name": "D#5",
            "ticks": 53280,
            "time": 55.5,
            "velocity": 0.9448818897637795
          },
          {
            "duration": 0.22604166666666714,
            "durationTicks": 217,
            "midi": 72,
            "name": "C5",
            "ticks": 53520,
            "time": 55.75,
            "velocity": 0.8267716535433071
          },
          {
            "duration": 0.22604166666666714,
            "durationTicks": 217,
            "midi": 57,
            "name": "A3",
            "ticks": 53760,
            "time": 56,
            "velocity": 0.7952755905511811
          },
          {
            "duration": 0.22604166666666714,
            "durationTicks": 217,
            "midi": 69,
            "name": "A4",
            "ticks": 53760,
            "time": 56,
            "velocity": 0.7952755905511811
          },
          {
            "duration": 0.22604166666666714,
            "durationTicks": 217,
            "midi": 57,
            "name": "A3",
            "ticks": 54000,
            "time": 56.25,
            "velocity": 0.889763779527559
          },
          {
            "duration": 0.22604166666666714,
            "durationTicks": 217,
            "midi": 69,
            "name": "A4",
            "ticks": 54000,
            "time": 56.25,
            "velocity": 0.889763779527559
          },
          {
            "duration": 0.22604166666666714,
            "durationTicks": 217,
            "midi": 57,
            "name": "A3",
            "ticks": 54240,
            "time": 56.5,
            "velocity": 0.8976377952755905
          },
          {
            "duration": 0.22604166666666714,
            "durationTicks": 217,
            "midi": 69,
            "name": "A4",
            "ticks": 54240,
            "time": 56.5,
            "velocity": 0.8976377952755905
          },
          {
            "duration": 0.45104166666666856,
            "durationTicks": 433,
            "midi": 57,
            "name": "A3",
            "ticks": 54480,
            "time": 56.75,
            "velocity": 0.8740157480314961
          },
          {
            "duration": 0.45104166666666856,
            "durationTicks": 433,
            "midi": 69,
            "name": "A4",
            "ticks": 54480,
            "time": 56.75,
            "velocity": 0.8740157480314961
          },
          {
            "duration": 0.05833333333333002,
            "durationTicks": 56,
            "midi": 58,
            "name": "A#3",
            "ticks": 56344,
            "time": 58.69166666666667,
            "velocity": 0.7874015748031497
          },
          {
            "duration": 0.45104166666666856,
            "durationTicks": 433,
            "midi": 65,
            "name": "F4",
            "ticks": 56372,
            "time": 58.72083333333333,
            "velocity": 0.7874015748031497
          },
          {
            "duration": 0.45104166666666856,
            "durationTicks": 433,
            "midi": 70,
            "name": "A#4",
            "ticks": 56400,
            "time": 58.75,
            "velocity": 0.7874015748031497
          },
          {
            "duration": 0.5093750000000057,
            "durationTicks": 489,
            "midi": 70,
            "name": "A#4",
            "ticks": 61200,
            "time": 63.75,
            "velocity": 0.4330708661417323
          },
          {
            "duration": 0.5093750000000057,
            "durationTicks": 489,
            "midi": 75,
            "name": "D#5",
            "ticks": 61680,
            "time": 64.25,
            "velocity": 0.4645669291338583
          },
          {
            "duration": 0.5093750000000057,
            "durationTicks": 489,
            "midi": 74,
            "name": "D5",
            "ticks": 62160,
            "time": 64.75,
            "velocity": 0.47244094488188976
          },
          {
            "duration": 0.5093750000000057,
            "durationTicks": 489,
            "midi": 75,
            "name": "D#5",
            "ticks": 62640,
            "time": 65.25,
            "velocity": 0.5039370078740157
          },
          {
            "duration": 0.5093750000000057,
            "durationTicks": 489,
            "midi": 77,
            "name": "F5",
            "ticks": 63120,
            "time": 65.75,
            "velocity": 0.49606299212598426
          },
          {
            "duration": 0.4749999999999943,
            "durationTicks": 456,
            "midi": 72,
            "name": "C5",
            "ticks": 63600,
            "time": 66.25,
            "velocity": 0.4330708661417323
          },
          {
            "duration": 0.5093750000000057,
            "durationTicks": 489,
            "midi": 72,
            "name": "C5",
            "ticks": 64080,
            "time": 66.75,
            "velocity": 0.48031496062992124
          },
          {
            "duration": 0.4749999999999943,
            "durationTicks": 456,
            "midi": 70,
            "name": "A#4",
            "ticks": 64560,
            "time": 67.25,
            "velocity": 0.44881889763779526
          },
          {
            "duration": 0.5093750000000057,
            "durationTicks": 489,
            "midi": 70,
            "name": "A#4",
            "ticks": 68880,
            "time": 71.75,
            "velocity": 0.4881889763779528
          },
          {
            "duration": 0.5093750000000057,
            "durationTicks": 489,
            "midi": 75,
            "name": "D#5",
            "ticks": 69360,
            "time": 72.25,
            "velocity": 0.5511811023622047
          },
          {
            "duration": 0.5093750000000057,
            "durationTicks": 489,
            "midi": 74,
            "name": "D5",
            "ticks": 69840,
            "time": 72.75,
            "velocity": 0.4645669291338583
          },
          {
            "duration": 0.5093750000000057,
            "durationTicks": 489,
            "midi": 75,
            "name": "D#5",
            "ticks": 70320,
            "time": 73.25,
            "velocity": 0.48031496062992124
          },
          {
            "duration": 0.5093750000000057,
            "durationTicks": 489,
            "midi": 77,
            "name": "F5",
            "ticks": 70800,
            "time": 73.75,
            "velocity": 0.5354330708661418
          },
          {
            "duration": 0.4749999999999943,
            "durationTicks": 456,
            "midi": 72,
            "name": "C5",
            "ticks": 71280,
            "time": 74.25,
            "velocity": 0.47244094488188976
          },
          {
            "duration": 0.5093750000000057,
            "durationTicks": 489,
            "midi": 72,
            "name": "C5",
            "ticks": 71760,
            "time": 74.75,
            "velocity": 0.47244094488188976
          },
          {
            "duration": 0.4749999999999943,
            "durationTicks": 456,
            "midi": 70,
            "name": "A#4",
            "ticks": 72240,
            "time": 75.25,
            "velocity": 0.4251968503937008
          },
          {
            "duration": 0.5093750000000057,
            "durationTicks": 489,
            "midi": 70,
            "name": "A#4",
            "ticks": 72720,
            "time": 75.75,
            "velocity": 0.4645669291338583
          },
          {
            "duration": 0.5093750000000057,
            "durationTicks": 489,
            "midi": 72,
            "name": "C5",
            "ticks": 73200,
            "time": 76.25,
            "velocity": 0.4881889763779528
          },
          {
            "duration": 0.5093750000000057,
            "durationTicks": 489,
            "midi": 73,
            "name": "C#5",
            "ticks": 73680,
            "time": 76.75,
            "velocity": 0.5039370078740157
          },
          {
            "duration": 0.4749999999999943,
            "durationTicks": 456,
            "midi": 72,
            "name": "C5",
            "ticks": 74160,
            "time": 77.25,
            "velocity": 0.5275590551181102
          },
          {
            "duration": 0.5093750000000057,
            "durationTicks": 489,
            "midi": 70,
            "name": "A#4",
            "ticks": 74640,
            "time": 77.75,
            "velocity": 0.4566929133858268
          },
          {
            "duration": 0.5093750000000057,
            "durationTicks": 489,
            "midi": 72,
            "name": "C5",
            "ticks": 75120,
            "time": 78.25,
            "velocity": 0.48031496062992124
          },
          {
            "duration": 0.5093750000000057,
            "durationTicks": 489,
            "midi": 70,
            "name": "A#4",
            "ticks": 75600,
            "time": 78.75,
            "velocity": 0.47244094488188976
          },
          {
            "duration": 0.4749999999999943,
            "durationTicks": 456,
            "midi": 68,
            "name": "G#4",
            "ticks": 76080,
            "time": 79.25,
            "velocity": 0.4409448818897638
          },
          {
            "duration": 0.5093750000000057,
            "durationTicks": 489,
            "midi": 73,
            "name": "C#5",
            "ticks": 76560,
            "time": 79.75,
            "velocity": 0.5433070866141733
          },
          {
            "duration": 0.5093750000000057,
            "durationTicks": 489,
            "midi": 75,
            "name": "D#5",
            "ticks": 77040,
            "time": 80.25,
            "velocity": 0.5669291338582677
          },
          {
            "duration": 0.5093750000000057,
            "durationTicks": 489,
            "midi": 77,
            "name": "F5",
            "ticks": 77520,
            "time": 80.75,
            "velocity": 0.5196850393700787
          },
          {
            "duration": 0.4749999999999943,
            "durationTicks": 456,
            "midi": 75,
            "name": "D#5",
            "ticks": 78000,
            "time": 81.25,
            "velocity": 0.5039370078740157
          },
          {
            "duration": 0.5093750000000057,
            "durationTicks": 489,
            "midi": 73,
            "name": "C#5",
            "ticks": 78480,
            "time": 81.75,
            "velocity": 0.4881889763779528
          },
          {
            "duration": 0.5093750000000057,
            "durationTicks": 489,
            "midi": 75,
            "name": "D#5",
            "ticks": 78960,
            "time": 82.25,
            "velocity": 0.5590551181102362
          },
          {
            "duration": 0.5093750000000057,
            "durationTicks": 489,
            "midi": 73,
            "name": "C#5",
            "ticks": 79440,
            "time": 82.75,
            "velocity": 0.44881889763779526
          },
          {
            "duration": 0.4749999999999943,
            "durationTicks": 456,
            "midi": 72,
            "name": "C5",
            "ticks": 79920,
            "time": 83.25,
            "velocity": 0.4094488188976378
          },
          {
            "duration": 0.5093750000000057,
            "durationTicks": 489,
            "midi": 75,
            "name": "D#5",
            "ticks": 80400,
            "time": 83.75,
            "velocity": 0.5275590551181102
          },
          {
            "duration": 0.5093750000000057,
            "durationTicks": 489,
            "midi": 77,
            "name": "F5",
            "ticks": 80880,
            "time": 84.25,
            "velocity": 0.5984251968503937
          },
          {
            "duration": 0.5093750000000057,
            "durationTicks": 489,
            "midi": 78,
            "name": "F#5",
            "ticks": 81360,
            "time": 84.75,
            "velocity": 0.48031496062992124
          },
          {
            "duration": 0.5093750000000057,
            "durationTicks": 489,
            "midi": 77,
            "name": "F5",
            "ticks": 81840,
            "time": 85.25,
            "velocity": 0.47244094488188976
          },
          {
            "duration": 0.5093750000000057,
            "durationTicks": 489,
            "midi": 75,
            "name": "D#5",
            "ticks": 82320,
            "time": 85.75,
            "velocity": 0.4094488188976378
          },
          {
            "duration": 0.4749999999999943,
            "durationTicks": 456,
            "midi": 77,
            "name": "F5",
            "ticks": 82800,
            "time": 86.25,
            "velocity": 0.4330708661417323
          },
          {
            "duration": 0.5093750000000057,
            "durationTicks": 489,
            "midi": 78,
            "name": "F#5",
            "ticks": 83280,
            "time": 86.75,
            "velocity": 0.5039370078740157
          },
          {
            "duration": 0.5093750000000057,
            "durationTicks": 489,
            "midi": 77,
            "name": "F5",
            "ticks": 83760,
            "time": 87.25,
            "velocity": 0.5354330708661418
          },
          {
            "duration": 0.5093750000000057,
            "durationTicks": 489,
            "midi": 75,
            "name": "D#5",
            "ticks": 84240,
            "time": 87.75,
            "velocity": 0.5196850393700787
          },
          {
            "duration": 0.4749999999999943,
            "durationTicks": 456,
            "midi": 77,
            "name": "F5",
            "ticks": 84720,
            "time": 88.25,
            "velocity": 0.6141732283464567
          },
          {
            "duration": 0.5093750000000057,
            "durationTicks": 489,
            "midi": 78,
            "name": "F#5",
            "ticks": 85200,
            "time": 88.75,
            "velocity": 0.5826771653543307
          },
          {
            "duration": 0.5093750000000057,
            "durationTicks": 489,
            "midi": 77,
            "name": "F5",
            "ticks": 85680,
            "time": 89.25,
            "velocity": 0.5669291338582677
          },
          {
            "duration": 0.5093750000000057,
            "durationTicks": 489,
            "midi": 75,
            "name": "D#5",
            "ticks": 86160,
            "time": 89.75,
            "velocity": 0.4881889763779528
          },
          {
            "duration": 0.4749999999999943,
            "durationTicks": 456,
            "midi": 77,
            "name": "F5",
            "ticks": 86640,
            "time": 90.25,
            "velocity": 0.6692913385826772
          },
          {
            "duration": 0.5093750000000057,
            "durationTicks": 489,
            "midi": 78,
            "name": "F#5",
            "ticks": 87120,
            "time": 90.75,
            "velocity": 0.7244094488188977
          },
          {
            "duration": 0.5093750000000057,
            "durationTicks": 489,
            "midi": 77,
            "name": "F5",
            "ticks": 87600,
            "time": 91.25,
            "velocity": 0.6929133858267716
          },
          {
            "duration": 0.5093750000000057,
            "durationTicks": 489,
            "midi": 75,
            "name": "D#5",
            "ticks": 88080,
            "time": 91.75,
            "velocity": 0.6062992125984252
          },
          {
            "duration": 0.5093750000000057,
            "durationTicks": 489,
            "midi": 77,
            "name": "F5",
            "ticks": 88560,
            "time": 92.25,
            "velocity": 0.6614173228346457
          },
          {
            "duration": 0.5093750000000057,
            "durationTicks": 489,
            "midi": 78,
            "name": "F#5",
            "ticks": 89040,
            "time": 92.75,
            "velocity": 0.8110236220472441
          },
          {
            "duration": 0.5093750000000057,
            "durationTicks": 489,
            "midi": 77,
            "name": "F5",
            "ticks": 89520,
            "time": 93.25,
            "velocity": 0.7874015748031497
          },
          {
            "duration": 0.5093750000000057,
            "durationTicks": 489,
            "midi": 78,
            "name": "F#5",
            "ticks": 90000,
            "time": 93.75,
            "velocity": 0.8031496062992126
          },
          {
            "duration": 0.4749999999999943,
            "durationTicks": 456,
            "midi": 81,
            "name": "A5",
            "ticks": 90480,
            "time": 94.25,
            "velocity": 0.8740157480314961
          },
          {
            "duration": 1.22604166666666,
            "durationTicks": 1177,
            "midi": 70,
            "name": "A#4",
            "ticks": 90960,
            "time": 94.75,
            "velocity": 0.9291338582677166
          },
          {
            "duration": 1.22604166666666,
            "durationTicks": 1177,
            "midi": 82,
            "name": "A#5",
            "ticks": 90960,
            "time": 94.75,
            "velocity": 0.9291338582677166
          },
          {
            "duration": 0.11354166666666288,
            "durationTicks": 109,
            "midi": 84,
            "name": "C6",
            "ticks": 92160,
            "time": 96,
            "velocity": 0.937007874015748
          },
          {
            "duration": 0.11354166666666288,
            "durationTicks": 109,
            "midi": 82,
            "name": "A#5",
            "ticks": 92400,
            "time": 96.25,
            "velocity": 0.8661417322834646
          },
          {
            "duration": 0.11354166666666288,
            "durationTicks": 109,
            "midi": 80,
            "name": "G#5",
            "ticks": 92640,
            "time": 96.5,
            "velocity": 0.8188976377952756
          },
          {
            "duration": 0.2541666666666629,
            "durationTicks": 244,
            "midi": 80,
            "name": "G#5",
            "ticks": 92880,
            "time": 96.75,
            "velocity": 0.8976377952755905
          },
          {
            "duration": 0.23645833333333144,
            "durationTicks": 227,
            "midi": 79,
            "name": "G5",
            "ticks": 93120,
            "time": 97,
            "velocity": 0.8661417322834646
          },
          {
            "duration": 0.11354166666666288,
            "durationTicks": 109,
            "midi": 77,
            "name": "F5",
            "ticks": 93360,
            "time": 97.25,
            "velocity": 0.84251968503937
          },
          {
            "duration": 0.11354166666666288,
            "durationTicks": 109,
            "midi": 75,
            "name": "D#5",
            "ticks": 93600,
            "time": 97.5,
            "velocity": 0.8188976377952756
          },
          {
            "duration": 0.2541666666666629,
            "durationTicks": 244,
            "midi": 75,
            "name": "D#5",
            "ticks": 93840,
            "time": 97.75,
            "velocity": 0.889763779527559
          },
          {
            "duration": 0.23645833333333144,
            "durationTicks": 227,
            "midi": 74,
            "name": "D5",
            "ticks": 94080,
            "time": 98,
            "velocity": 0.8110236220472441
          },
          {
            "duration": 0.11354166666666288,
            "durationTicks": 109,
            "midi": 72,
            "name": "C5",
            "ticks": 94320,
            "time": 98.25,
            "velocity": 0.8188976377952756
          },
          {
            "duration": 0.11354166666666288,
            "durationTicks": 109,
            "midi": 74,
            "name": "D5",
            "ticks": 94560,
            "time": 98.5,
            "velocity": 0.9291338582677166
          },
          {
            "duration": 0.2541666666666629,
            "durationTicks": 244,
            "midi": 77,
            "name": "F5",
            "ticks": 94800,
            "time": 98.75,
            "velocity": 0.9606299212598425
          },
          {
            "duration": 0.23645833333333144,
            "durationTicks": 227,
            "midi": 75,
            "name": "D#5",
            "ticks": 95040,
            "time": 99,
            "velocity": 0.889763779527559
          },
          {
            "duration": 0.11354166666666288,
            "durationTicks": 109,
            "midi": 70,
            "name": "A#4",
            "ticks": 95280,
            "time": 99.25,
            "velocity": 0.7322834645669292
          },
          {
            "duration": 0.11354166666666288,
            "durationTicks": 109,
            "midi": 67,
            "name": "G4",
            "ticks": 95520,
            "time": 99.5,
            "velocity": 0.7795275590551181
          },
          {
            "duration": 0.2541666666666629,
            "durationTicks": 244,
            "midi": 74,
            "name": "D5",
            "ticks": 95760,
            "time": 99.75,
            "velocity": 1
          },
          {
            "duration": 0.23645833333333144,
            "durationTicks": 227,
            "midi": 72,
            "name": "C5",
            "ticks": 96000,
            "time": 100,
            "velocity": 0.952755905511811
          },
          {
            "duration": 0.11354166666666288,
            "durationTicks": 109,
            "midi": 68,
            "name": "G#4",
            "ticks": 96240,
            "time": 100.25,
            "velocity": 0.7795275590551181
          },
          {
            "duration": 0.11354166666666288,
            "durationTicks": 109,
            "midi": 65,
            "name": "F4",
            "ticks": 96480,
            "time": 100.5,
            "velocity": 0.8346456692913385
          },
          {
            "duration": 0.2541666666666629,
            "durationTicks": 244,
            "midi": 72,
            "name": "C5",
            "ticks": 96720,
            "time": 100.75,
            "velocity": 1
          },
          {
            "duration": 0.23645833333333144,
            "durationTicks": 227,
            "midi": 70,
            "name": "A#4",
            "ticks": 96960,
            "time": 101,
            "velocity": 0.952755905511811
          },
          {
            "duration": 0.11354166666666288,
            "durationTicks": 109,
            "midi": 67,
            "name": "G4",
            "ticks": 97200,
            "time": 101.25,
            "velocity": 0.7952755905511811
          },
          {
            "duration": 0.11354166666666288,
            "durationTicks": 109,
            "midi": 63,
            "name": "D#4",
            "ticks": 97440,
            "time": 101.5,
            "velocity": 0.7716535433070866
          },
          {
            "duration": 0.22604166666666003,
            "durationTicks": 217,
            "midi": 58,
            "name": "A#3",
            "ticks": 97680,
            "time": 101.75,
            "velocity": 0.8188976377952756
          },
          {
            "duration": 0.2541666666666629,
            "durationTicks": 244,
            "midi": 81,
            "name": "A5",
            "ticks": 97920,
            "time": 102,
            "velocity": 1
          },
          {
            "duration": 0.2541666666666629,
            "durationTicks": 244,
            "midi": 82,
            "name": "A#5",
            "ticks": 98160,
            "time": 102.25,
            "velocity": 1
          },
          {
            "duration": 0.2541666666666629,
            "durationTicks": 244,
            "midi": 81,
            "name": "A5",
            "ticks": 98400,
            "time": 102.5,
            "velocity": 0.84251968503937
          },
          {
            "duration": 0.2541666666666629,
            "durationTicks": 244,
            "midi": 82,
            "name": "A#5",
            "ticks": 98640,
            "time": 102.75,
            "velocity": 0.9291338582677166
          },
          {
            "duration": 0.2541666666666629,
            "durationTicks": 244,
            "midi": 81,
            "name": "A5",
            "ticks": 98880,
            "time": 103,
            "velocity": 0.8976377952755905
          },
          {
            "duration": 0.2541666666666629,
            "durationTicks": 244,
            "midi": 82,
            "name": "A#5",
            "ticks": 99120,
            "time": 103.25,
            "velocity": 0.9133858267716536
          },
          {
            "duration": 0.23645833333333144,
            "durationTicks": 227,
            "midi": 81,
            "name": "A5",
            "ticks": 99360,
            "time": 103.5,
            "velocity": 0.8582677165354331
          },
          {
            "duration": 0.11354166666666288,
            "durationTicks": 109,
            "midi": 82,
            "name": "A#5",
            "ticks": 99600,
            "time": 103.75,
            "velocity": 0.8976377952755905
          },
          {
            "duration": 0.11354166666666288,
            "durationTicks": 109,
            "midi": 84,
            "name": "C6",
            "ticks": 99840,
            "time": 104,
            "velocity": 0.952755905511811
          },
          {
            "duration": 0.11354166666666288,
            "durationTicks": 109,
            "midi": 82,
            "name": "A#5",
            "ticks": 100080,
            "time": 104.25,
            "velocity": 0.8267716535433071
          },
          {
            "duration": 0.11354166666666288,
            "durationTicks": 109,
            "midi": 80,
            "name": "G#5",
            "ticks": 100320,
            "time": 104.5,
            "velocity": 0.8267716535433071
          },
          {
            "duration": 0.2541666666666629,
            "durationTicks": 244,
            "midi": 80,
            "name": "G#5",
            "ticks": 100560,
            "time": 104.75,
            "velocity": 0.9133858267716536
          },
          {
            "duration": 0.23645833333333144,
            "durationTicks": 227,
            "midi": 79,
            "name": "G5",
            "ticks": 100800,
            "time": 105,
            "velocity": 0.8661417322834646
          },
          {
            "duration": 0.11354166666666288,
            "durationTicks": 109,
            "midi": 77,
            "name": "F5",
            "ticks": 101040,
            "time": 105.25,
            "velocity": 0.7952755905511811
          },
          {
            "duration": 0.11354166666666288,
            "durationTicks": 109,
            "midi": 75,
            "name": "D#5",
            "ticks": 101280,
            "time": 105.5,
            "velocity": 0.84251968503937
          },
          {
            "duration": 0.2541666666666629,
            "durationTicks": 244,
            "midi": 75,
            "name": "D#5",
            "ticks": 101520,
            "time": 105.75,
            "velocity": 0.8976377952755905
          },
          {
            "duration": 0.23645833333333144,
            "durationTicks": 227,
            "midi": 74,
            "name": "D5",
            "ticks": 101760,
            "time": 106,
            "velocity": 0.8346456692913385
          },
          {
            "duration": 0.11354166666666288,
            "durationTicks": 109,
            "midi": 72,
            "name": "C5",
            "ticks": 102000,
            "time": 106.25,
            "velocity": 0.84251968503937
          },
          {
            "duration": 0.11354166666666288,
            "durationTicks": 109,
            "midi": 74,
            "name": "D5",
            "ticks": 102240,
            "time": 106.5,
            "velocity": 0.9606299212598425
          },
          {
            "duration": 0.2541666666666629,
            "durationTicks": 244,
            "midi": 77,
            "name": "F5",
            "ticks": 102480,
            "time": 106.75,
            "velocity": 0.952755905511811
          },
          {
            "duration": 0.23645833333333144,
            "durationTicks": 227,
            "midi": 75,
            "name": "D#5",
            "ticks": 102720,
            "time": 107,
            "velocity": 0.905511811023622
          },
          {
            "duration": 0.11354166666666288,
            "durationTicks": 109,
            "midi": 70,
            "name": "A#4",
            "ticks": 102960,
            "time": 107.25,
            "velocity": 0.7559055118110236
          },
          {
            "duration": 0.11354166666666288,
            "durationTicks": 109,
            "midi": 67,
            "name": "G4",
            "ticks": 103200,
            "time": 107.5,
            "velocity": 0.7952755905511811
          },
          {
            "duration": 0.2541666666666629,
            "durationTicks": 244,
            "midi": 74,
            "name": "D5",
            "ticks": 103440,
            "time": 107.75,
            "velocity": 1
          },
          {
            "duration": 0.23645833333333144,
            "durationTicks": 227,
            "midi": 72,
            "name": "C5",
            "ticks": 103680,
            "time": 108,
            "velocity": 0.9606299212598425
          },
          {
            "duration": 0.11354166666666288,
            "durationTicks": 109,
            "midi": 68,
            "name": "G#4",
            "ticks": 103920,
            "time": 108.25,
            "velocity": 0.7952755905511811
          },
          {
            "duration": 0.11354166666666288,
            "durationTicks": 109,
            "midi": 65,
            "name": "F4",
            "ticks": 104160,
            "time": 108.5,
            "velocity": 0.7480314960629921
          },
          {
            "duration": 0.2541666666666629,
            "durationTicks": 244,
            "midi": 72,
            "name": "C5",
            "ticks": 104400,
            "time": 108.75,
            "velocity": 1
          },
          {
            "duration": 0.23645833333333144,
            "durationTicks": 227,
            "midi": 70,
            "name": "A#4",
            "ticks": 104640,
            "time": 109,
            "velocity": 0.968503937007874
          },
          {
            "duration": 0.11354166666666288,
            "durationTicks": 109,
            "midi": 67,
            "name": "G4",
            "ticks": 104880,
            "time": 109.25,
            "velocity": 0.8503937007874016
          },
          {
            "duration": 0.11354166666666288,
            "durationTicks": 109,
            "midi": 63,
            "name": "D#4",
            "ticks": 105120,
            "time": 109.5,
            "velocity": 0.7559055118110236
          },
          {
            "duration": 0.22604166666666003,
            "durationTicks": 217,
            "midi": 58,
            "name": "A#3",
            "ticks": 105360,
            "time": 109.75,
            "velocity": 0.8110236220472441
          },
          {
            "duration": 0.22604166666666003,
            "durationTicks": 217,
            "midi": 70,
            "name": "A#4",
            "ticks": 105600,
            "time": 110,
            "velocity": 1
          },
          {
            "duration": 0.22604166666666003,
            "durationTicks": 217,
            "midi": 82,
            "name": "A#5",
            "ticks": 105840,
            "time": 110.25,
            "velocity": 1
          },
          {
            "duration": 0.22604166666666003,
            "durationTicks": 217,
            "midi": 82,
            "name": "A#5",
            "ticks": 106080,
            "time": 110.5,
            "velocity": 0.9606299212598425
          },
          {
            "duration": 3.22604166666666,
            "durationTicks": 3097,
            "midi": 75,
            "name": "D#5",
            "ticks": 106320,
            "time": 110.75,
            "velocity": 0.7244094488188977
          },
          {
            "duration": 0.22604166666666003,
            "durationTicks": 217,
            "midi": 77,
            "name": "F5",
            "ticks": 109440,
            "time": 114,
            "velocity": 0.968503937007874
          },
          {
            "duration": 0.22604166666666003,
            "durationTicks": 217,
            "midi": 77,
            "name": "F5",
            "ticks": 109680,
            "time": 114.25,
            "velocity": 0.889763779527559
          },
          {
            "duration": 0.22604166666666003,
            "durationTicks": 217,
            "midi": 77,
            "name": "F5",
            "ticks": 109920,
            "time": 114.5,
            "velocity": 0.8976377952755905
          },
          {
            "duration": 3.22604166666666,
            "durationTicks": 3097,
            "midi": 79,
            "name": "G5",
            "ticks": 110160,
            "time": 114.75,
            "velocity": 0.9606299212598425
          },
          {
            "duration": 0.22604166666666003,
            "durationTicks": 217,
            "midi": 70,
            "name": "A#4",
            "ticks": 113280,
            "time": 118,
            "velocity": 0.9606299212598425
          },
          {
            "duration": 0.22604166666666003,
            "durationTicks": 217,
            "midi": 82,
            "name": "A#5",
            "ticks": 113280,
            "time": 118,
            "velocity": 0.9606299212598425
          },
          {
            "duration": 0.22604166666666003,
            "durationTicks": 217,
            "midi": 70,
            "name": "A#4",
            "ticks": 113520,
            "time": 118.25,
            "velocity": 0.889763779527559
          },
          {
            "duration": 0.22604166666666003,
            "durationTicks": 217,
            "midi": 82,
            "name": "A#5",
            "ticks": 113520,
            "time": 118.25,
            "velocity": 0.889763779527559
          },
          {
            "duration": 0.22604166666666003,
            "durationTicks": 217,
            "midi": 70,
            "name": "A#4",
            "ticks": 113760,
            "time": 118.5,
            "velocity": 0.8582677165354331
          },
          {
            "duration": 0.22604166666666003,
            "durationTicks": 217,
            "midi": 82,
            "name": "A#5",
            "ticks": 113760,
            "time": 118.5,
            "velocity": 0.8582677165354331
          },
          {
            "duration": 0.45104166666666856,
            "durationTicks": 433,
            "midi": 70,
            "name": "A#4",
            "ticks": 114000,
            "time": 118.75,
            "velocity": 0.8582677165354331
          },
          {
            "duration": 0.45104166666666856,
            "durationTicks": 433,
            "midi": 82,
            "name": "A#5",
            "ticks": 114000,
            "time": 118.75,
            "velocity": 0.8582677165354331
          },
          {
            "duration": 0.22604166666666003,
            "durationTicks": 217,
            "midi": 70,
            "name": "A#4",
            "ticks": 115200,
            "time": 120,
            "velocity": 0.7952755905511811
          },
          {
            "duration": 0.22604166666666003,
            "durationTicks": 217,
            "midi": 82,
            "name": "A#5",
            "ticks": 115200,
            "time": 120,
            "velocity": 0.7952755905511811
          },
          {
            "duration": 0.22604166666666003,
            "durationTicks": 217,
            "midi": 70,
            "name": "A#4",
            "ticks": 115440,
            "time": 120.25,
            "velocity": 0.905511811023622
          },
          {
            "duration": 0.22604166666666003,
            "durationTicks": 217,
            "midi": 82,
            "name": "A#5",
            "ticks": 115440,
            "time": 120.25,
            "velocity": 0.905511811023622
          },
          {
            "duration": 0.22604166666666003,
            "durationTicks": 217,
            "midi": 70,
            "name": "A#4",
            "ticks": 115680,
            "time": 120.5,
            "velocity": 0.8582677165354331
          },
          {
            "duration": 0.22604166666666003,
            "durationTicks": 217,
            "midi": 82,
            "name": "A#5",
            "ticks": 115680,
            "time": 120.5,
            "velocity": 0.8582677165354331
          },
          {
            "duration": 0.45104166666666856,
            "durationTicks": 433,
            "midi": 70,
            "name": "A#4",
            "ticks": 115920,
            "time": 120.75,
            "velocity": 0.9133858267716536
          },
          {
            "duration": 0.45104166666666856,
            "durationTicks": 433,
            "midi": 82,
            "name": "A#5",
            "ticks": 115920,
            "time": 120.75,
            "velocity": 0.9133858267716536
          },
          {
            "duration": 0.22604166666666003,
            "durationTicks": 217,
            "midi": 77,
            "name": "F5",
            "ticks": 117120,
            "time": 122,
            "velocity": 0.7874015748031497
          },
          {
            "duration": 0.22604166666666003,
            "durationTicks": 217,
            "midi": 86,
            "name": "D6",
            "ticks": 117120,
            "time": 122,
            "velocity": 0.7874015748031497
          },
          {
            "duration": 0.22604166666666003,
            "durationTicks": 217,
            "midi": 77,
            "name": "F5",
            "ticks": 117360,
            "time": 122.25,
            "velocity": 0.8740157480314961
          },
          {
            "duration": 0.22604166666666003,
            "durationTicks": 217,
            "midi": 86,
            "name": "D6",
            "ticks": 117360,
            "time": 122.25,
            "velocity": 0.8740157480314961
          },
          {
            "duration": 0.22604166666666003,
            "durationTicks": 217,
            "midi": 77,
            "name": "F5",
            "ticks": 117600,
            "time": 122.5,
            "velocity": 0.889763779527559
          },
          {
            "duration": 0.22604166666666003,
            "durationTicks": 217,
            "midi": 86,
            "name": "D6",
            "ticks": 117600,
            "time": 122.5,
            "velocity": 0.889763779527559
          },
          {
            "duration": 0.45104166666666856,
            "durationTicks": 433,
            "midi": 79,
            "name": "G5",
            "ticks": 117840,
            "time": 122.75,
            "velocity": 0.9606299212598425
          },
          {
            "duration": 0.45104166666666856,
            "durationTicks": 433,
            "midi": 87,
            "name": "D#6",
            "ticks": 117840,
            "time": 122.75,
            "velocity": 0.9606299212598425
          },
          {
            "duration": 0.22604166666666003,
            "durationTicks": 217,
            "midi": 67,
            "name": "G4",
            "ticks": 120960,
            "time": 126,
            "velocity": 0.7716535433070866
          },
          {
            "duration": 0.22604166666666003,
            "durationTicks": 217,
            "midi": 67,
            "name": "G4",
            "ticks": 121200,
            "time": 126.25,
            "velocity": 0.84251968503937
          },
          {
            "duration": 0.22604166666666003,
            "durationTicks": 217,
            "midi": 67,
            "name": "G4",
            "ticks": 121440,
            "time": 126.5,
            "velocity": 0.8661417322834646
          },
          {
            "duration": 1.5,
            "durationTicks": 1440,
            "midi": 63,
            "name": "D#4",
            "ticks": 121680,
            "time": 126.75,
            "velocity": 0.7716535433070866
          },
          {
            "duration": 0.22604166666667425,
            "durationTicks": 217,
            "midi": 65,
            "name": "F4",
            "ticks": 123360,
            "time": 128.5,
            "velocity": 0.8031496062992126
          },
          {
            "duration": 0.22604166666667425,
            "durationTicks": 217,
            "midi": 65,
            "name": "F4",
            "ticks": 123600,
            "time": 128.75,
            "velocity": 0.84251968503937
          },
          {
            "duration": 0.22604166666667425,
            "durationTicks": 217,
            "midi": 65,
            "name": "F4",
            "ticks": 123840,
            "time": 129,
            "velocity": 0.8818897637795275
          },
          {
            "duration": 2.5,
            "durationTicks": 2400,
            "midi": 62,
            "name": "D4",
            "ticks": 124080,
            "time": 129.25,
            "velocity": 0.7952755905511811
          },
          {
            "duration": 0.22604166666667425,
            "durationTicks": 217,
            "midi": 75,
            "name": "D#5",
            "ticks": 128640,
            "time": 134,
            "velocity": 0.44881889763779526
          },
          {
            "duration": 0.22604166666667425,
            "durationTicks": 217,
            "midi": 75,
            "name": "D#5",
            "ticks": 128880,
            "time": 134.25,
            "velocity": 0.4645669291338583
          },
          {
            "duration": 0.22604166666667425,
            "durationTicks": 217,
            "midi": 75,
            "name": "D#5",
            "ticks": 129120,
            "time": 134.5,
            "velocity": 0.44881889763779526
          },
          {
            "duration": 1.4510416666666686,
            "durationTicks": 1393,
            "midi": 72,
            "name": "C5",
            "ticks": 129360,
            "time": 134.75,
            "velocity": 0.4645669291338583
          },
          {
            "duration": 0.22604166666667425,
            "durationTicks": 217,
            "midi": 77,
            "name": "F5",
            "ticks": 132480,
            "time": 138,
            "velocity": 0.4409448818897638
          },
          {
            "duration": 0.22604166666667425,
            "durationTicks": 217,
            "midi": 77,
            "name": "F5",
            "ticks": 132720,
            "time": 138.25,
            "velocity": 0.4645669291338583
          },
          {
            "duration": 0.22604166666667425,
            "durationTicks": 217,
            "midi": 77,
            "name": "F5",
            "ticks": 132960,
            "time": 138.5,
            "velocity": 0.5039370078740157
          },
          {
            "duration": 1.2260416666666742,
            "durationTicks": 1177,
            "midi": 74,
            "name": "D5",
            "ticks": 133200,
            "time": 138.75,
            "velocity": 0.4409448818897638
          },
          {
            "duration": 0.22604166666667425,
            "durationTicks": 217,
            "midi": 79,
            "name": "G5",
            "ticks": 134400,
            "time": 140,
            "velocity": 0.5354330708661418
          },
          {
            "duration": 0.22604166666667425,
            "durationTicks": 217,
            "midi": 79,
            "name": "G5",
            "ticks": 134640,
            "time": 140.25,
            "velocity": 0.5118110236220472
          },
          {
            "duration": 0.22604166666667425,
            "durationTicks": 217,
            "midi": 77,
            "name": "F5",
            "ticks": 134880,
            "time": 140.5,
            "velocity": 0.4645669291338583
          },
          {
            "duration": 0.9000000000000057,
            "durationTicks": 864,
            "midi": 75,
            "name": "D#5",
            "ticks": 135120,
            "time": 140.75,
            "velocity": 0.4645669291338583
          },
          {
            "duration": 0.22604166666667425,
            "durationTicks": 217,
            "midi": 74,
            "name": "D5",
            "ticks": 136080,
            "time": 141.75,
            "velocity": 0.4251968503937008
          },
          {
            "duration": 0.22604166666667425,
            "durationTicks": 217,
            "midi": 79,
            "name": "G5",
            "ticks": 136320,
            "time": 142,
            "velocity": 0.5433070866141733
          },
          {
            "duration": 0.22604166666667425,
            "durationTicks": 217,
            "midi": 79,
            "name": "G5",
            "ticks": 136560,
            "time": 142.25,
            "velocity": 0.5039370078740157
          },
          {
            "duration": 0.22604166666667425,
            "durationTicks": 217,
            "midi": 77,
            "name": "F5",
            "ticks": 136800,
            "time": 142.5,
            "velocity": 0.4094488188976378
          },
          {
            "duration": 0.9000000000000057,
            "durationTicks": 864,
            "midi": 75,
            "name": "D#5",
            "ticks": 137040,
            "time": 142.75,
            "velocity": 0.44881889763779526
          },
          {
            "duration": 0.22604166666667425,
            "durationTicks": 217,
            "midi": 74,
            "name": "D5",
            "ticks": 138000,
            "time": 143.75,
            "velocity": 0.48031496062992124
          },
          {
            "duration": 0.22604166666667425,
            "durationTicks": 217,
            "midi": 79,
            "name": "G5",
            "ticks": 138240,
            "time": 144,
            "velocity": 0.5433070866141733
          },
          {
            "duration": 0.22604166666667425,
            "durationTicks": 217,
            "midi": 79,
            "name": "G5",
            "ticks": 138480,
            "time": 144.25,
            "velocity": 0.5590551181102362
          },
          {
            "duration": 0.22604166666667425,
            "durationTicks": 217,
            "midi": 77,
            "name": "F5",
            "ticks": 138720,
            "time": 144.5,
            "velocity": 0.5748031496062992
          },
          {
            "duration": 0.45104166666666856,
            "durationTicks": 433,
            "midi": 75,
            "name": "D#5",
            "ticks": 138960,
            "time": 144.75,
            "velocity": 0.6850393700787402
          },
          {
            "duration": 0.05833333333333712,
            "durationTicks": 56,
            "midi": 56,
            "name": "G#3",
            "ticks": 139864,
            "time": 145.69166666666666,
            "velocity": 0.6535433070866141
          },
          {
            "duration": 0.45104166666666856,
            "durationTicks": 433,
            "midi": 66,
            "name": "F#4",
            "ticks": 139892,
            "time": 145.72083333333333,
            "velocity": 0.6535433070866141
          },
          {
            "duration": 0.45104166666666856,
            "durationTicks": 433,
            "midi": 72,
            "name": "C5",
            "ticks": 139920,
            "time": 145.75,
            "velocity": 0.6535433070866141
          },
          {
            "duration": 0.05833333333333712,
            "durationTicks": 56,
            "midi": 55,
            "name": "G3",
            "ticks": 140824,
            "time": 146.69166666666666,
            "velocity": 0.5354330708661418
          },
          {
            "duration": 0.05833333333333712,
            "durationTicks": 56,
            "midi": 62,
            "name": "D4",
            "ticks": 140824,
            "time": 146.69166666666666,
            "velocity": 0.5354330708661418
          },
          {
            "duration": 0.45104166666666856,
            "durationTicks": 433,
            "midi": 71,
            "name": "B4",
            "ticks": 140852,
            "time": 146.72083333333333,
            "velocity": 0.5354330708661418
          },
          {
            "duration": 1.25,
            "durationTicks": 1200,
            "midi": 79,
            "name": "G5",
            "ticks": 140880,
            "time": 146.75,
            "velocity": 0.6929133858267716
          },
          {
            "duration": 0.22604166666667425,
            "durationTicks": 217,
            "midi": 68,
            "name": "G#4",
            "ticks": 142320,
            "time": 148.25,
            "velocity": 0.7007874015748031
          },
          {
            "duration": 0.22604166666667425,
            "durationTicks": 217,
            "midi": 68,
            "name": "G#4",
            "ticks": 142560,
            "time": 148.5,
            "velocity": 0.7244094488188977
          },
          {
            "duration": 0.22604166666667425,
            "durationTicks": 217,
            "midi": 68,
            "name": "G#4",
            "ticks": 142800,
            "time": 148.75,
            "velocity": 0.7795275590551181
          },
          {
            "duration": 2.5,
            "durationTicks": 2400,
            "midi": 65,
            "name": "F4",
            "ticks": 143040,
            "time": 149,
            "velocity": 0.7244094488188977
          },
          {
            "duration": 0.22604166666667425,
            "durationTicks": 217,
            "midi": 68,
            "name": "G#4",
            "ticks": 145680,
            "time": 151.75,
            "velocity": 0.4645669291338583
          },
          {
            "duration": 0.22604166666667425,
            "durationTicks": 217,
            "midi": 68,
            "name": "G#4",
            "ticks": 145920,
            "time": 152,
            "velocity": 0.4645669291338583
          },
          {
            "duration": 0.22604166666667425,
            "durationTicks": 217,
            "midi": 68,
            "name": "G#4",
            "ticks": 146160,
            "time": 152.25,
            "velocity": 0.48031496062992124
          },
          {
            "duration": 2.9000000000000057,
            "durationTicks": 2784,
            "midi": 65,
            "name": "F4",
            "ticks": 146400,
            "time": 152.5,
            "velocity": 0.4566929133858268
          },
          {
            "duration": 0.22604166666667425,
            "durationTicks": 217,
            "midi": 63,
            "name": "D#4",
            "ticks": 149280,
            "time": 155.5,
            "velocity": 0.44881889763779526
          },
          {
            "duration": 0.22604166666667425,
            "durationTicks": 217,
            "midi": 68,
            "name": "G#4",
            "ticks": 149520,
            "time": 155.75,
            "velocity": 0.5590551181102362
          },
          {
            "duration": 0.22604166666667425,
            "durationTicks": 217,
            "midi": 68,
            "name": "G#4",
            "ticks": 149760,
            "time": 156,
            "velocity": 0.47244094488188976
          },
          {
            "duration": 0.22604166666667425,
            "durationTicks": 217,
            "midi": 68,
            "name": "G#4",
            "ticks": 150000,
            "time": 156.25,
            "velocity": 0.4645669291338583
          },
          {
            "duration": 2.9000000000000057,
            "durationTicks": 2784,
            "midi": 65,
            "name": "F4",
            "ticks": 150240,
            "time": 156.5,
            "velocity": 0.41732283464566927
          },
          {
            "duration": 0.22604166666667425,
            "durationTicks": 217,
            "midi": 63,
            "name": "D#4",
            "ticks": 153120,
            "time": 159.5,
            "velocity": 0.4409448818897638
          },
          {
            "duration": 0.22604166666667425,
            "durationTicks": 217,
            "midi": 67,
            "name": "G4",
            "ticks": 153360,
            "time": 159.75,
            "velocity": 0.5275590551181102
          },
          {
            "duration": 0.22604166666667425,
            "durationTicks": 217,
            "midi": 72,
            "name": "C5",
            "ticks": 153600,
            "time": 160,
            "velocity": 0.5590551181102362
          },
          {
            "duration": 0.22604166666667425,
            "durationTicks": 217,
            "midi": 72,
            "name": "C5",
            "ticks": 153840,
            "time": 160.25,
            "velocity": 0.48031496062992124
          },
          {
            "duration": 0.9000000000000057,
            "durationTicks": 864,
            "midi": 72,
            "name": "C5",
            "ticks": 154080,
            "time": 160.5,
            "velocity": 0.4881889763779528
          },
          {
            "duration": 0.22604166666667425,
            "durationTicks": 217,
            "midi": 71,
            "name": "B4",
            "ticks": 155040,
            "time": 161.5,
            "velocity": 0.5196850393700787
          },
          {
            "duration": 0.22604166666667425,
            "durationTicks": 217,
            "midi": 71,
            "name": "B4",
            "ticks": 155280,
            "time": 161.75,
            "velocity": 0.5039370078740157
          },
          {
            "duration": 0.22604166666667425,
            "durationTicks": 217,
            "midi": 71,
            "name": "B4",
            "ticks": 155520,
            "time": 162,
            "velocity": 0.5039370078740157
          },
          {
            "duration": 0.22604166666667425,
            "durationTicks": 217,
            "midi": 74,
            "name": "D5",
            "ticks": 155760,
            "time": 162.25,
            "velocity": 0.6062992125984252
          },
          {
            "duration": 0.9000000000000057,
            "durationTicks": 864,
            "midi": 74,
            "name": "D5",
            "ticks": 156000,
            "time": 162.5,
            "velocity": 0.5275590551181102
          },
          {
            "duration": 0.22604166666667425,
            "durationTicks": 217,
            "midi": 72,
            "name": "C5",
            "ticks": 156960,
            "time": 163.5,
            "velocity": 0.5196850393700787
          },
          {
            "duration": 0.22604166666667425,
            "durationTicks": 217,
            "midi": 72,
            "name": "C5",
            "ticks": 157200,
            "time": 163.75,
            "velocity": 0.5433070866141733
          },
          {
            "duration": 0.22604166666667425,
            "durationTicks": 217,
            "midi": 72,
            "name": "C5",
            "ticks": 157440,
            "time": 164,
            "velocity": 0.5590551181102362
          },
          {
            "duration": 0.22604166666667425,
            "durationTicks": 217,
            "midi": 75,
            "name": "D#5",
            "ticks": 157680,
            "time": 164.25,
            "velocity": 0.6220472440944882
          },
          {
            "duration": 0.2541666666666629,
            "durationTicks": 244,
            "midi": 75,
            "name": "D#5",
            "ticks": 157920,
            "time": 164.5,
            "velocity": 0.7244094488188977
          },
          {
            "duration": 0.23645833333333144,
            "durationTicks": 227,
            "midi": 74,
            "name": "D5",
            "ticks": 158160,
            "time": 164.75,
            "velocity": 0.5826771653543307
          },
          {
            "duration": 0.11354166666666288,
            "durationTicks": 109,
            "midi": 74,
            "name": "D5",
            "ticks": 158400,
            "time": 165,
            "velocity": 0.5984251968503937
          },
          {
            "duration": 0.11354166666666288,
            "durationTicks": 109,
            "midi": 77,
            "name": "F5",
            "ticks": 158640,
            "time": 165.25,
            "velocity": 0.7244094488188977
          },
          {
            "duration": 0.2541666666666629,
            "durationTicks": 244,
            "midi": 77,
            "name": "F5",
            "ticks": 158880,
            "time": 165.5,
            "velocity": 0.7874015748031497
          },
          {
            "duration": 0.23645833333333144,
            "durationTicks": 227,
            "midi": 76,
            "name": "E5",
            "ticks": 159120,
            "time": 165.75,
            "velocity": 0.7165354330708661
          },
          {
            "duration": 0.11354166666666288,
            "durationTicks": 109,
            "midi": 76,
            "name": "E5",
            "ticks": 159360,
            "time": 166,
            "velocity": 0.6299212598425197
          },
          {
            "duration": 0.11354166666666288,
            "durationTicks": 109,
            "midi": 79,
            "name": "G5",
            "ticks": 159600,
            "time": 166.25,
            "velocity": 0.7086614173228346
          },
          {
            "duration": 0.2541666666666629,
            "durationTicks": 244,
            "midi": 79,
            "name": "G5",
            "ticks": 159840,
            "time": 166.5,
            "velocity": 0.7716535433070866
          },
          {
            "duration": 0.23645833333333144,
            "durationTicks": 227,
            "midi": 77,
            "name": "F5",
            "ticks": 160080,
            "time": 166.75,
            "velocity": 0.6535433070866141
          },
          {
            "duration": 0.11354166666666288,
            "durationTicks": 109,
            "midi": 77,
            "name": "F5",
            "ticks": 160320,
            "time": 167,
            "velocity": 0.6929133858267716
          },
          {
            "duration": 0.11354166666666288,
            "durationTicks": 109,
            "midi": 80,
            "name": "G#5",
            "ticks": 160560,
            "time": 167.25,
            "velocity": 0.7637795275590551
          },
          {
            "duration": 0.2541666666666629,
            "durationTicks": 244,
            "midi": 80,
            "name": "G#5",
            "ticks": 160800,
            "time": 167.5,
            "velocity": 0.8031496062992126
          },
          {
            "duration": 0.23645833333333144,
            "durationTicks": 227,
            "midi": 79,
            "name": "G5",
            "ticks": 161040,
            "time": 167.75,
            "velocity": 0.6614173228346457
          },
          {
            "duration": 0.11354166666666288,
            "durationTicks": 109,
            "midi": 79,
            "name": "G5",
            "ticks": 161280,
            "time": 168,
            "velocity": 0.7007874015748031
          },
          {
            "duration": 0.11354166666666288,
            "durationTicks": 109,
            "midi": 82,
            "name": "A#5",
            "ticks": 161520,
            "time": 168.25,
            "velocity": 0.7559055118110236
          },
          {
            "duration": 0.2541666666666629,
            "durationTicks": 244,
            "midi": 82,
            "name": "A#5",
            "ticks": 161760,
            "time": 168.5,
            "velocity": 0.8267716535433071
          },
          {
            "duration": 0.23645833333333144,
            "durationTicks": 227,
            "midi": 80,
            "name": "G#5",
            "ticks": 162000,
            "time": 168.75,
            "velocity": 0.6692913385826772
          },
          {
            "duration": 0.11354166666666288,
            "durationTicks": 109,
            "midi": 80,
            "name": "G#5",
            "ticks": 162240,
            "time": 169,
            "velocity": 0.7244094488188977
          },
          {
            "duration": 0.11354166666666288,
            "durationTicks": 109,
            "midi": 84,
            "name": "C6",
            "ticks": 162480,
            "time": 169.25,
            "velocity": 0.7952755905511811
          },
          {
            "duration": 0.2541666666666629,
            "durationTicks": 244,
            "midi": 84,
            "name": "C6",
            "ticks": 162720,
            "time": 169.5,
            "velocity": 0.8503937007874016
          },
          {
            "duration": 0.23645833333333144,
            "durationTicks": 227,
            "midi": 83,
            "name": "B5",
            "ticks": 162960,
            "time": 169.75,
            "velocity": 0.7165354330708661
          },
          {
            "duration": 0.11354166666666288,
            "durationTicks": 109,
            "midi": 83,
            "name": "B5",
            "ticks": 163200,
            "time": 170,
            "velocity": 0.7322834645669292
          },
          {
            "duration": 0.11354166666666288,
            "durationTicks": 109,
            "midi": 86,
            "name": "D6",
            "ticks": 163440,
            "time": 170.25,
            "velocity": 0.8346456692913385
          },
          {
            "duration": 0.22604166666667425,
            "durationTicks": 217,
            "midi": 84,
            "name": "C6",
            "ticks": 163680,
            "time": 170.5,
            "velocity": 0.7322834645669292
          },
          {
            "duration": 0.22604166666667425,
            "durationTicks": 217,
            "midi": 87,
            "name": "D#6",
            "ticks": 163920,
            "time": 170.75,
            "velocity": 0.8346456692913385
          },
          {
            "duration": 0.22604166666667425,
            "durationTicks": 217,
            "midi": 87,
            "name": "D#6",
            "ticks": 164160,
            "time": 171,
            "velocity": 0.7874015748031497
          },
          {
            "duration": 0.22604166666667425,
            "durationTicks": 217,
            "midi": 87,
            "name": "D#6",
            "ticks": 164400,
            "time": 171.25,
            "velocity": 0.8031496062992126
          },
          {
            "duration": 0.22604166666667425,
            "durationTicks": 217,
            "midi": 84,
            "name": "C6",
            "ticks": 164640,
            "time": 171.5,
            "velocity": 0.7007874015748031
          },
          {
            "duration": 0.22604166666667425,
            "durationTicks": 217,
            "midi": 79,
            "name": "G5",
            "ticks": 164880,
            "time": 171.75,
            "velocity": 0.6692913385826772
          },
          {
            "duration": 0.22604166666667425,
            "durationTicks": 217,
            "midi": 79,
            "name": "G5",
            "ticks": 165120,
            "time": 172,
            "velocity": 0.7716535433070866
          },
          {
            "duration": 0.22604166666667425,
            "durationTicks": 217,
            "midi": 79,
            "name": "G5",
            "ticks": 165360,
            "time": 172.25,
            "velocity": 0.7795275590551181
          },
          {
            "duration": 0.22604166666667425,
            "durationTicks": 217,
            "midi": 75,
            "name": "D#5",
            "ticks": 165600,
            "time": 172.5,
            "velocity": 0.6614173228346457
          },
          {
            "duration": 0.22604166666667425,
            "durationTicks": 217,
            "midi": 72,
            "name": "C5",
            "ticks": 165840,
            "time": 172.75,
            "velocity": 0.6850393700787402
          },
          {
            "duration": 0.22604166666667425,
            "durationTicks": 217,
            "midi": 67,
            "name": "G4",
            "ticks": 166080,
            "time": 173,
            "velocity": 0.6141732283464567
          },
          {
            "duration": 0.22604166666667425,
            "durationTicks": 217,
            "midi": 67,
            "name": "G4",
            "ticks": 166320,
            "time": 173.25,
            "velocity": 0.7480314960629921
          },
          {
            "duration": 0.22604166666667425,
            "durationTicks": 217,
            "midi": 63,
            "name": "D#4",
            "ticks": 166560,
            "time": 173.5,
            "velocity": 0.6929133858267716
          },
          {
            "duration": 0.22604166666667425,
            "durationTicks": 217,
            "midi": 60,
            "name": "C4",
            "ticks": 166800,
            "time": 173.75,
            "velocity": 0.7007874015748031
          },
          {
            "duration": 0.22604166666667425,
            "durationTicks": 217,
            "midi": 60,
            "name": "C4",
            "ticks": 167040,
            "time": 174,
            "velocity": 0.7795275590551181
          },
          {
            "duration": 0.22604166666667425,
            "durationTicks": 217,
            "midi": 60,
            "name": "C4",
            "ticks": 167280,
            "time": 174.25,
            "velocity": 0.7795275590551181
          },
          {
            "duration": 0.22604166666667425,
            "durationTicks": 217,
            "midi": 59,
            "name": "B3",
            "ticks": 167520,
            "time": 174.5,
            "velocity": 0.7716535433070866
          },
          {
            "duration": 0.22604166666667425,
            "durationTicks": 217,
            "midi": 89,
            "name": "F6",
            "ticks": 167760,
            "time": 174.75,
            "velocity": 0.9606299212598425
          },
          {
            "duration": 0.22604166666667425,
            "durationTicks": 217,
            "midi": 86,
            "name": "D6",
            "ticks": 168000,
            "time": 175,
            "velocity": 0.7244094488188977
          },
          {
            "duration": 0.22604166666667425,
            "durationTicks": 217,
            "midi": 86,
            "name": "D6",
            "ticks": 168240,
            "time": 175.25,
            "velocity": 0.7480314960629921
          },
          {
            "duration": 0.22604166666667425,
            "durationTicks": 217,
            "midi": 83,
            "name": "B5",
            "ticks": 168480,
            "time": 175.5,
            "velocity": 0.6850393700787402
          },
          {
            "duration": 0.22604166666667425,
            "durationTicks": 217,
            "midi": 79,
            "name": "G5",
            "ticks": 168720,
            "time": 175.75,
            "velocity": 0.6692913385826772
          },
          {
            "duration": 0.22604166666667425,
            "durationTicks": 217,
            "midi": 77,
            "name": "F5",
            "ticks": 168960,
            "time": 176,
            "velocity": 0.6850393700787402
          },
          {
            "duration": 0.22604166666667425,
            "durationTicks": 217,
            "midi": 77,
            "name": "F5",
            "ticks": 169200,
            "time": 176.25,
            "velocity": 0.7637795275590551
          },
          {
            "duration": 0.22604166666667425,
            "durationTicks": 217,
            "midi": 74,
            "name": "D5",
            "ticks": 169440,
            "time": 176.5,
            "velocity": 0.6850393700787402
          },
          {
            "duration": 0.22604166666667425,
            "durationTicks": 217,
            "midi": 71,
            "name": "B4",
            "ticks": 169680,
            "time": 176.75,
            "velocity": 0.6771653543307087
          },
          {
            "duration": 0.22604166666667425,
            "durationTicks": 217,
            "midi": 67,
            "name": "G4",
            "ticks": 169920,
            "time": 177,
            "velocity": 0.6535433070866141
          },
          {
            "duration": 0.22604166666667425,
            "durationTicks": 217,
            "midi": 65,
            "name": "F4",
            "ticks": 170160,
            "time": 177.25,
            "velocity": 0.6771653543307087
          },
          {
            "duration": 0.22604166666667425,
            "durationTicks": 217,
            "midi": 62,
            "name": "D4",
            "ticks": 170400,
            "time": 177.5,
            "velocity": 0.6929133858267716
          },
          {
            "duration": 0.22604166666667425,
            "durationTicks": 217,
            "midi": 59,
            "name": "B3",
            "ticks": 170640,
            "time": 177.75,
            "velocity": 0.7401574803149606
          },
          {
            "duration": 0.22604166666667425,
            "durationTicks": 217,
            "midi": 60,
            "name": "C4",
            "ticks": 170880,
            "time": 178,
            "velocity": 0.8267716535433071
          },
          {
            "duration": 0.22604166666667425,
            "durationTicks": 217,
            "midi": 60,
            "name": "C4",
            "ticks": 171120,
            "time": 178.25,
            "velocity": 0.7795275590551181
          },
          {
            "duration": 0.22604166666667425,
            "durationTicks": 217,
            "midi": 60,
            "name": "C4",
            "ticks": 171360,
            "time": 178.5,
            "velocity": 0.8976377952755905
          },
          {
            "duration": 0.22604166666667425,
            "durationTicks": 217,
            "midi": 87,
            "name": "D#6",
            "ticks": 171600,
            "time": 178.75,
            "velocity": 1
          },
          {
            "duration": 0.22604166666667425,
            "durationTicks": 217,
            "midi": 87,
            "name": "D#6",
            "ticks": 171840,
            "time": 179,
            "velocity": 0.937007874015748
          },
          {
            "duration": 0.22604166666667425,
            "durationTicks": 217,
            "midi": 87,
            "name": "D#6",
            "ticks": 172080,
            "time": 179.25,
            "velocity": 0.9212598425196851
          },
          {
            "duration": 0.22604166666667425,
            "durationTicks": 217,
            "midi": 84,
            "name": "C6",
            "ticks": 172320,
            "time": 179.5,
            "velocity": 0.8110236220472441
          },
          {
            "duration": 0.22604166666667425,
            "durationTicks": 217,
            "midi": 81,
            "name": "A5",
            "ticks": 172560,
            "time": 179.75,
            "velocity": 0.8188976377952756
          },
          {
            "duration": 0.22604166666667425,
            "durationTicks": 217,
            "midi": 81,
            "name": "A5",
            "ticks": 172800,
            "time": 180,
            "velocity": 0.8582677165354331
          },
          {
            "duration": 0.22604166666667425,
            "durationTicks": 217,
            "midi": 81,
            "name": "A5",
            "ticks": 173040,
            "time": 180.25,
            "velocity": 0.889763779527559
          },
          {
            "duration": 0.22604166666667425,
            "durationTicks": 217,
            "midi": 78,
            "name": "F#5",
            "ticks": 173280,
            "time": 180.5,
            "velocity": 0.8031496062992126
          },
          {
            "duration": 0.22604166666667425,
            "durationTicks": 217,
            "midi": 75,
            "name": "D#5",
            "ticks": 173520,
            "time": 180.75,
            "velocity": 0.8031496062992126
          },
          {
            "duration": 0.22604166666667425,
            "durationTicks": 217,
            "midi": 75,
            "name": "D#5",
            "ticks": 173760,
            "time": 181,
            "velocity": 0.8582677165354331
          },
          {
            "duration": 0.22604166666667425,
            "durationTicks": 217,
            "midi": 75,
            "name": "D#5",
            "ticks": 174000,
            "time": 181.25,
            "velocity": 0.8976377952755905
          },
          {
            "duration": 0.22604166666667425,
            "durationTicks": 217,
            "midi": 72,
            "name": "C5",
            "ticks": 174240,
            "time": 181.5,
            "velocity": 0.8110236220472441
          },
          {
            "duration": 0.22604166666667425,
            "durationTicks": 217,
            "midi": 57,
            "name": "A3",
            "ticks": 174480,
            "time": 181.75,
            "velocity": 0.8267716535433071
          },
          {
            "duration": 0.22604166666667425,
            "durationTicks": 217,
            "midi": 69,
            "name": "A4",
            "ticks": 174480,
            "time": 181.75,
            "velocity": 0.8267716535433071
          },
          {
            "duration": 0.22604166666667425,
            "durationTicks": 217,
            "midi": 57,
            "name": "A3",
            "ticks": 174720,
            "time": 182,
            "velocity": 0.84251968503937
          },
          {
            "duration": 0.22604166666667425,
            "durationTicks": 217,
            "midi": 69,
            "name": "A4",
            "ticks": 174720,
            "time": 182,
            "velocity": 0.84251968503937
          },
          {
            "duration": 0.22604166666667425,
            "durationTicks": 217,
            "midi": 57,
            "name": "A3",
            "ticks": 174960,
            "time": 182.25,
            "velocity": 0.889763779527559
          },
          {
            "duration": 0.22604166666667425,
            "durationTicks": 217,
            "midi": 69,
            "name": "A4",
            "ticks": 174960,
            "time": 182.25,
            "velocity": 0.889763779527559
          },
          {
            "duration": 0.45104166666666856,
            "durationTicks": 433,
            "midi": 57,
            "name": "A3",
            "ticks": 175200,
            "time": 182.5,
            "velocity": 0.9133858267716536
          },
          {
            "duration": 0.45104166666666856,
            "durationTicks": 433,
            "midi": 69,
            "name": "A4",
            "ticks": 175200,
            "time": 182.5,
            "velocity": 0.9133858267716536
          },
          {
            "duration": 0.05833333333333712,
            "durationTicks": 56,
            "midi": 58,
            "name": "A#3",
            "ticks": 177064,
            "time": 184.44166666666666,
            "velocity": 0.8031496062992126
          },
          {
            "duration": 0.45104166666666856,
            "durationTicks": 433,
            "midi": 65,
            "name": "F4",
            "ticks": 177092,
            "time": 184.47083333333333,
            "velocity": 0.8031496062992126
          },
          {
            "duration": 0.45104166666666856,
            "durationTicks": 433,
            "midi": 70,
            "name": "A#4",
            "ticks": 177120,
            "time": 184.5,
            "velocity": 0.8031496062992126
          },
          {
            "duration": 0.5093750000000057,
            "durationTicks": 489,
            "midi": 70,
            "name": "A#4",
            "ticks": 181920,
            "time": 189.5,
            "velocity": 0.44881889763779526
          },
          {
            "duration": 0.5093750000000057,
            "durationTicks": 489,
            "midi": 75,
            "name": "D#5",
            "ticks": 182400,
            "time": 190,
            "velocity": 0.5039370078740157
          },
          {
            "duration": 0.5093750000000057,
            "durationTicks": 489,
            "midi": 74,
            "name": "D5",
            "ticks": 182880,
            "time": 190.5,
            "velocity": 0.4566929133858268
          },
          {
            "duration": 0.5093750000000057,
            "durationTicks": 489,
            "midi": 75,
            "name": "D#5",
            "ticks": 183360,
            "time": 191,
            "velocity": 0.5118110236220472
          },
          {
            "duration": 0.5093750000000057,
            "durationTicks": 489,
            "midi": 77,
            "name": "F5",
            "ticks": 183840,
            "time": 191.5,
            "velocity": 0.5118110236220472
          },
          {
            "duration": 0.4749999999999943,
            "durationTicks": 456,
            "midi": 72,
            "name": "C5",
            "ticks": 184320,
            "time": 192,
            "velocity": 0.44881889763779526
          },
          {
            "duration": 0.5093750000000057,
            "durationTicks": 489,
            "midi": 72,
            "name": "C5",
            "ticks": 184800,
            "time": 192.5,
            "velocity": 0.4645669291338583
          },
          {
            "duration": 0.4749999999999943,
            "durationTicks": 456,
            "midi": 70,
            "name": "A#4",
            "ticks": 185280,
            "time": 193,
            "velocity": 0.41732283464566927
          },
          {
            "duration": 0.5093750000000057,
            "durationTicks": 489,
            "midi": 70,
            "name": "A#4",
            "ticks": 189600,
            "time": 197.5,
            "velocity": 0.47244094488188976
          },
          {
            "duration": 0.5093750000000057,
            "durationTicks": 489,
            "midi": 75,
            "name": "D#5",
            "ticks": 190080,
            "time": 198,
            "velocity": 0.5590551181102362
          },
          {
            "duration": 0.5093750000000057,
            "durationTicks": 489,
            "midi": 74,
            "name": "D5",
            "ticks": 190560,
            "time": 198.5,
            "velocity": 0.47244094488188976
          },
          {
            "duration": 0.5093750000000057,
            "durationTicks": 489,
            "midi": 75,
            "name": "D#5",
            "ticks": 191040,
            "time": 199,
            "velocity": 0.48031496062992124
          },
          {
            "duration": 0.5093750000000057,
            "durationTicks": 489,
            "midi": 77,
            "name": "F5",
            "ticks": 191520,
            "time": 199.5,
            "velocity": 0.5275590551181102
          },
          {
            "duration": 0.4749999999999943,
            "durationTicks": 456,
            "midi": 72,
            "name": "C5",
            "ticks": 192000,
            "time": 200,
            "velocity": 0.4645669291338583
          },
          {
            "duration": 0.5093750000000057,
            "durationTicks": 489,
            "midi": 72,
            "name": "C5",
            "ticks": 192480,
            "time": 200.5,
            "velocity": 0.4566929133858268
          },
          {
            "duration": 0.4749999999999943,
            "durationTicks": 456,
            "midi": 70,
            "name": "A#4",
            "ticks": 192960,
            "time": 201,
            "velocity": 0.3937007874015748
          },
          {
            "duration": 0.5093750000000057,
            "durationTicks": 489,
            "midi": 70,
            "name": "A#4",
            "ticks": 193440,
            "time": 201.5,
            "velocity": 0.48031496062992124
          },
          {
            "duration": 0.5093750000000057,
            "durationTicks": 489,
            "midi": 72,
            "name": "C5",
            "ticks": 193920,
            "time": 202,
            "velocity": 0.5275590551181102
          },
          {
            "duration": 0.5093750000000057,
            "durationTicks": 489,
            "midi": 73,
            "name": "C#5",
            "ticks": 194400,
            "time": 202.5,
            "velocity": 0.5118110236220472
          },
          {
            "duration": 0.4749999999999943,
            "durationTicks": 456,
            "midi": 72,
            "name": "C5",
            "ticks": 194880,
            "time": 203,
            "velocity": 0.4409448818897638
          },
          {
            "duration": 0.5093750000000057,
            "durationTicks": 489,
            "midi": 70,
            "name": "A#4",
            "ticks": 195360,
            "time": 203.5,
            "velocity": 0.4251968503937008
          },
          {
            "duration": 0.5093750000000057,
            "durationTicks": 489,
            "midi": 72,
            "name": "C5",
            "ticks": 195840,
            "time": 204,
            "velocity": 0.4251968503937008
          },
          {
            "duration": 0.5093750000000057,
            "durationTicks": 489,
            "midi": 70,
            "name": "A#4",
            "ticks": 196320,
            "time": 204.5,
            "velocity": 0.4409448818897638
          },
          {
            "duration": 0.4749999999999943,
            "durationTicks": 456,
            "midi": 68,
            "name": "G#4",
            "ticks": 196800,
            "time": 205,
            "velocity": 0.4094488188976378
          },
          {
            "duration": 0.5093750000000057,
            "durationTicks": 489,
            "midi": 73,
            "name": "C#5",
            "ticks": 197280,
            "time": 205.5,
            "velocity": 0.5511811023622047
          },
          {
            "duration": 0.5093750000000057,
            "durationTicks": 489,
            "midi": 75,
            "name": "D#5",
            "ticks": 197760,
            "time": 206,
            "velocity": 0.6062992125984252
          },
          {
            "duration": 0.5093750000000057,
            "durationTicks": 489,
            "midi": 77,
            "name": "F5",
            "ticks": 198240,
            "time": 206.5,
            "velocity": 0.5118110236220472
          },
          {
            "duration": 0.4749999999999943,
            "durationTicks": 456,
            "midi": 75,
            "name": "D#5",
            "ticks": 198720,
            "time": 207,
            "velocity": 0.47244094488188976
          },
          {
            "duration": 0.5093750000000057,
            "durationTicks": 489,
            "midi": 73,
            "name": "C#5",
            "ticks": 199200,
            "time": 207.5,
            "velocity": 0.48031496062992124
          },
          {
            "duration": 0.5093750000000057,
            "durationTicks": 489,
            "midi": 75,
            "name": "D#5",
            "ticks": 199680,
            "time": 208,
            "velocity": 0.5039370078740157
          },
          {
            "duration": 0.5093750000000057,
            "durationTicks": 489,
            "midi": 73,
            "name": "C#5",
            "ticks": 200160,
            "time": 208.5,
            "velocity": 0.4566929133858268
          },
          {
            "duration": 0.4749999999999943,
            "durationTicks": 456,
            "midi": 72,
            "name": "C5",
            "ticks": 200640,
            "time": 209,
            "velocity": 0.44881889763779526
          },
          {
            "duration": 0.5093750000000057,
            "durationTicks": 489,
            "midi": 75,
            "name": "D#5",
            "ticks": 201120,
            "time": 209.5,
            "velocity": 0.5433070866141733
          },
          {
            "duration": 0.5093750000000057,
            "durationTicks": 489,
            "midi": 77,
            "name": "F5",
            "ticks": 201600,
            "time": 210,
            "velocity": 0.6062992125984252
          },
          {
            "duration": 0.5093750000000057,
            "durationTicks": 489,
            "midi": 78,
            "name": "F#5",
            "ticks": 202080,
            "time": 210.5,
            "velocity": 0.5196850393700787
          },
          {
            "duration": 0.5093750000000057,
            "durationTicks": 489,
            "midi": 77,
            "name": "F5",
            "ticks": 202560,
            "time": 211,
            "velocity": 0.5039370078740157
          },
          {
            "duration": 0.5093750000000057,
            "durationTicks": 489,
            "midi": 75,
            "name": "D#5",
            "ticks": 203040,
            "time": 211.5,
            "velocity": 0.48031496062992124
          },
          {
            "duration": 0.4749999999999943,
            "durationTicks": 456,
            "midi": 77,
            "name": "F5",
            "ticks": 203520,
            "time": 212,
            "velocity": 0.4881889763779528
          },
          {
            "duration": 0.5093750000000057,
            "durationTicks": 489,
            "midi": 78,
            "name": "F#5",
            "ticks": 204000,
            "time": 212.5,
            "velocity": 0.5433070866141733
          },
          {
            "duration": 0.5093750000000057,
            "durationTicks": 489,
            "midi": 77,
            "name": "F5",
            "ticks": 204480,
            "time": 213,
            "velocity": 0.5196850393700787
          },
          {
            "duration": 0.5093750000000057,
            "durationTicks": 489,
            "midi": 75,
            "name": "D#5",
            "ticks": 204960,
            "time": 213.5,
            "velocity": 0.5039370078740157
          },
          {
            "duration": 0.4749999999999943,
            "durationTicks": 456,
            "midi": 77,
            "name": "F5",
            "ticks": 205440,
            "time": 214,
            "velocity": 0.5826771653543307
          },
          {
            "duration": 0.5093750000000057,
            "durationTicks": 489,
            "midi": 78,
            "name": "F#5",
            "ticks": 205920,
            "time": 214.5,
            "velocity": 0.5905511811023622
          },
          {
            "duration": 0.5093750000000057,
            "durationTicks": 489,
            "midi": 77,
            "name": "F5",
            "ticks": 206400,
            "time": 215,
            "velocity": 0.5669291338582677
          },
          {
            "duration": 0.5093750000000057,
            "durationTicks": 489,
            "midi": 75,
            "name": "D#5",
            "ticks": 206880,
            "time": 215.5,
            "velocity": 0.5196850393700787
          },
          {
            "duration": 0.4749999999999943,
            "durationTicks": 456,
            "midi": 77,
            "name": "F5",
            "ticks": 207360,
            "time": 216,
            "velocity": 0.6850393700787402
          },
          {
            "duration": 0.5093750000000057,
            "durationTicks": 489,
            "midi": 78,
            "name": "F#5",
            "ticks": 207840,
            "time": 216.5,
            "velocity": 0.6929133858267716
          },
          {
            "duration": 0.5093750000000057,
            "durationTicks": 489,
            "midi": 77,
            "name": "F5",
            "ticks": 208320,
            "time": 217,
            "velocity": 0.6929133858267716
          },
          {
            "duration": 0.5093750000000057,
            "durationTicks": 489,
            "midi": 75,
            "name": "D#5",
            "ticks": 208800,
            "time": 217.5,
            "velocity": 0.6299212598425197
          },
          {
            "duration": 0.5093750000000057,
            "durationTicks": 489,
            "midi": 77,
            "name": "F5",
            "ticks": 209280,
            "time": 218,
            "velocity": 0.6535433070866141
          },
          {
            "duration": 0.5093750000000057,
            "durationTicks": 489,
            "midi": 78,
            "name": "F#5",
            "ticks": 209760,
            "time": 218.5,
            "velocity": 0.7952755905511811
          },
          {
            "duration": 0.5093750000000057,
            "durationTicks": 489,
            "midi": 77,
            "name": "F5",
            "ticks": 210240,
            "time": 219,
            "velocity": 0.7716535433070866
          },
          {
            "duration": 0.5093750000000057,
            "durationTicks": 489,
            "midi": 78,
            "name": "F#5",
            "ticks": 210720,
            "time": 219.5,
            "velocity": 0.7716535433070866
          },
          {
            "duration": 0.4749999999999943,
            "durationTicks": 456,
            "midi": 81,
            "name": "A5",
            "ticks": 211200,
            "time": 220,
            "velocity": 0.84251968503937
          },
          {
            "duration": 1.2260416666666742,
            "durationTicks": 1177,
            "midi": 70,
            "name": "A#4",
            "ticks": 211680,
            "time": 220.5,
            "velocity": 0.952755905511811
          },
          {
            "duration": 1.2260416666666742,
            "durationTicks": 1177,
            "midi": 82,
            "name": "A#5",
            "ticks": 211680,
            "time": 220.5,
            "velocity": 0.952755905511811
          },
          {
            "duration": 0.11354166666666288,
            "durationTicks": 109,
            "midi": 84,
            "name": "C6",
            "ticks": 212880,
            "time": 221.75,
            "velocity": 0.9448818897637795
          },
          {
            "duration": 0.11354166666666288,
            "durationTicks": 109,
            "midi": 82,
            "name": "A#5",
            "ticks": 213120,
            "time": 222,
            "velocity": 0.8661417322834646
          },
          {
            "duration": 0.11354166666666288,
            "durationTicks": 109,
            "midi": 80,
            "name": "G#5",
            "ticks": 213360,
            "time": 222.25,
            "velocity": 0.8031496062992126
          },
          {
            "duration": 0.2541666666666629,
            "durationTicks": 244,
            "midi": 80,
            "name": "G#5",
            "ticks": 213600,
            "time": 222.5,
            "velocity": 0.8503937007874016
          },
          {
            "duration": 0.23645833333333144,
            "durationTicks": 227,
            "midi": 79,
            "name": "G5",
            "ticks": 213840,
            "time": 222.75,
            "velocity": 0.7401574803149606
          },
          {
            "duration": 0.11354166666666288,
            "durationTicks": 109,
            "midi": 77,
            "name": "F5",
            "ticks": 214080,
            "time": 223,
            "velocity": 0.8346456692913385
          },
          {
            "duration": 0.11354166666666288,
            "durationTicks": 109,
            "midi": 75,
            "name": "D#5",
            "ticks": 214320,
            "time": 223.25,
            "velocity": 0.8503937007874016
          },
          {
            "duration": 0.2541666666666629,
            "durationTicks": 244,
            "midi": 75,
            "name": "D#5",
            "ticks": 214560,
            "time": 223.5,
            "velocity": 0.8976377952755905
          },
          {
            "duration": 0.23645833333333144,
            "durationTicks": 227,
            "midi": 74,
            "name": "D5",
            "ticks": 214800,
            "time": 223.75,
            "velocity": 0.8740157480314961
          },
          {
            "duration": 0.11354166666666288,
            "durationTicks": 109,
            "midi": 72,
            "name": "C5",
            "ticks": 215040,
            "time": 224,
            "velocity": 0.8188976377952756
          },
          {
            "duration": 0.11354166666666288,
            "durationTicks": 109,
            "midi": 74,
            "name": "D5",
            "ticks": 215280,
            "time": 224.25,
            "velocity": 0.937007874015748
          },
          {
            "duration": 0.2541666666666629,
            "durationTicks": 244,
            "midi": 77,
            "name": "F5",
            "ticks": 215520,
            "time": 224.5,
            "velocity": 0.9763779527559056
          },
          {
            "duration": 0.23645833333333144,
            "durationTicks": 227,
            "midi": 75,
            "name": "D#5",
            "ticks": 215760,
            "time": 224.75,
            "velocity": 0.9291338582677166
          },
          {
            "duration": 0.11354166666666288,
            "durationTicks": 109,
            "midi": 70,
            "name": "A#4",
            "ticks": 216000,
            "time": 225,
            "velocity": 0.7952755905511811
          },
          {
            "duration": 0.11354166666666288,
            "durationTicks": 109,
            "midi": 67,
            "name": "G4",
            "ticks": 216240,
            "time": 225.25,
            "velocity": 0.8031496062992126
          },
          {
            "duration": 0.2541666666666629,
            "durationTicks": 244,
            "midi": 74,
            "name": "D5",
            "ticks": 216480,
            "time": 225.5,
            "velocity": 1
          },
          {
            "duration": 0.23645833333333144,
            "durationTicks": 227,
            "midi": 72,
            "name": "C5",
            "ticks": 216720,
            "time": 225.75,
            "velocity": 0.9763779527559056
          },
          {
            "duration": 0.11354166666666288,
            "durationTicks": 109,
            "midi": 68,
            "name": "G#4",
            "ticks": 216960,
            "time": 226,
            "velocity": 0.8267716535433071
          },
          {
            "duration": 0.11354166666666288,
            "durationTicks": 109,
            "midi": 65,
            "name": "F4",
            "ticks": 217200,
            "time": 226.25,
            "velocity": 0.7716535433070866
          },
          {
            "duration": 0.2541666666666629,
            "durationTicks": 244,
            "midi": 72,
            "name": "C5",
            "ticks": 217440,
            "time": 226.5,
            "velocity": 1
          },
          {
            "duration": 0.23645833333333144,
            "durationTicks": 227,
            "midi": 70,
            "name": "A#4",
            "ticks": 217680,
            "time": 226.75,
            "velocity": 0.952755905511811
          },
          {
            "duration": 0.11354166666666288,
            "durationTicks": 109,
            "midi": 67,
            "name": "G4",
            "ticks": 217920,
            "time": 227,
            "velocity": 0.8110236220472441
          },
          {
            "duration": 0.11354166666666288,
            "durationTicks": 109,
            "midi": 63,
            "name": "D#4",
            "ticks": 218160,
            "time": 227.25,
            "velocity": 0.7874015748031497
          },
          {
            "duration": 0.22604166666667425,
            "durationTicks": 217,
            "midi": 58,
            "name": "A#3",
            "ticks": 218400,
            "time": 227.5,
            "velocity": 0.84251968503937
          },
          {
            "duration": 0.2541666666666629,
            "durationTicks": 244,
            "midi": 81,
            "name": "A5",
            "ticks": 218640,
            "time": 227.75,
            "velocity": 1
          },
          {
            "duration": 0.2541666666666629,
            "durationTicks": 244,
            "midi": 82,
            "name": "A#5",
            "ticks": 218880,
            "time": 228,
            "velocity": 1
          },
          {
            "duration": 0.2541666666666629,
            "durationTicks": 244,
            "midi": 81,
            "name": "A5",
            "ticks": 219120,
            "time": 228.25,
            "velocity": 0.8346456692913385
          },
          {
            "duration": 0.2541666666666629,
            "durationTicks": 244,
            "midi": 82,
            "name": "A#5",
            "ticks": 219360,
            "time": 228.5,
            "velocity": 0.968503937007874
          },
          {
            "duration": 0.2541666666666629,
            "durationTicks": 244,
            "midi": 81,
            "name": "A5",
            "ticks": 219600,
            "time": 228.75,
            "velocity": 0.9133858267716536
          },
          {
            "duration": 0.2541666666666629,
            "durationTicks": 244,
            "midi": 82,
            "name": "A#5",
            "ticks": 219840,
            "time": 229,
            "velocity": 0.9606299212598425
          },
          {
            "duration": 0.23645833333333144,
            "durationTicks": 227,
            "midi": 81,
            "name": "A5",
            "ticks": 220080,
            "time": 229.25,
            "velocity": 0.9448818897637795
          },
          {
            "duration": 0.11354166666666288,
            "durationTicks": 109,
            "midi": 82,
            "name": "A#5",
            "ticks": 220320,
            "time": 229.5,
            "velocity": 0.9133858267716536
          },
          {
            "duration": 0.11354166666666288,
            "durationTicks": 109,
            "midi": 84,
            "name": "C6",
            "ticks": 220560,
            "time": 229.75,
            "velocity": 0.9448818897637795
          },
          {
            "duration": 0.11354166666666288,
            "durationTicks": 109,
            "midi": 82,
            "name": "A#5",
            "ticks": 220800,
            "time": 230,
            "velocity": 0.8267716535433071
          },
          {
            "duration": 0.11354166666666288,
            "durationTicks": 109,
            "midi": 80,
            "name": "G#5",
            "ticks": 221040,
            "time": 230.25,
            "velocity": 0.8267716535433071
          },
          {
            "duration": 0.2541666666666629,
            "durationTicks": 244,
            "midi": 80,
            "name": "G#5",
            "ticks": 221280,
            "time": 230.5,
            "velocity": 0.889763779527559
          },
          {
            "duration": 0.23645833333333144,
            "durationTicks": 227,
            "midi": 79,
            "name": "G5",
            "ticks": 221520,
            "time": 230.75,
            "velocity": 0.8818897637795275
          },
          {
            "duration": 0.11354166666666288,
            "durationTicks": 109,
            "midi": 77,
            "name": "F5",
            "ticks": 221760,
            "time": 231,
            "velocity": 0.8346456692913385
          },
          {
            "duration": 0.11354166666666288,
            "durationTicks": 109,
            "midi": 75,
            "name": "D#5",
            "ticks": 222000,
            "time": 231.25,
            "velocity": 0.8582677165354331
          },
          {
            "duration": 0.2541666666666629,
            "durationTicks": 244,
            "midi": 75,
            "name": "D#5",
            "ticks": 222240,
            "time": 231.5,
            "velocity": 0.8661417322834646
          },
          {
            "duration": 0.23645833333333144,
            "durationTicks": 227,
            "midi": 74,
            "name": "D5",
            "ticks": 222480,
            "time": 231.75,
            "velocity": 0.8582677165354331
          },
          {
            "duration": 0.11354166666666288,
            "durationTicks": 109,
            "midi": 72,
            "name": "C5",
            "ticks": 222720,
            "time": 232,
            "velocity": 0.8110236220472441
          },
          {
            "duration": 0.11354166666666288,
            "durationTicks": 109,
            "midi": 74,
            "name": "D5",
            "ticks": 222960,
            "time": 232.25,
            "velocity": 0.9212598425196851
          },
          {
            "duration": 0.2541666666666629,
            "durationTicks": 244,
            "midi": 77,
            "name": "F5",
            "ticks": 223200,
            "time": 232.5,
            "velocity": 0.9448818897637795
          },
          {
            "duration": 0.23645833333333144,
            "durationTicks": 227,
            "midi": 75,
            "name": "D#5",
            "ticks": 223440,
            "time": 232.75,
            "velocity": 0.8976377952755905
          },
          {
            "duration": 0.11354166666666288,
            "durationTicks": 109,
            "midi": 70,
            "name": "A#4",
            "ticks": 223680,
            "time": 233,
            "velocity": 0.7716535433070866
          },
          {
            "duration": 0.11354166666666288,
            "durationTicks": 109,
            "midi": 67,
            "name": "G4",
            "ticks": 223920,
            "time": 233.25,
            "velocity": 0.7637795275590551
          },
          {
            "duration": 0.2541666666666629,
            "durationTicks": 244,
            "midi": 74,
            "name": "D5",
            "ticks": 224160,
            "time": 233.5,
            "velocity": 1
          },
          {
            "duration": 0.23645833333333144,
            "durationTicks": 227,
            "midi": 72,
            "name": "C5",
            "ticks": 224400,
            "time": 233.75,
            "velocity": 0.9606299212598425
          },
          {
            "duration": 0.11354166666666288,
            "durationTicks": 109,
            "midi": 68,
            "name": "G#4",
            "ticks": 224640,
            "time": 234,
            "velocity": 0.8267716535433071
          },
          {
            "duration": 0.11354166666666288,
            "durationTicks": 109,
            "midi": 65,
            "name": "F4",
            "ticks": 224880,
            "time": 234.25,
            "velocity": 0.7952755905511811
          },
          {
            "duration": 0.2541666666666629,
            "durationTicks": 244,
            "midi": 72,
            "name": "C5",
            "ticks": 225120,
            "time": 234.5,
            "velocity": 1
          },
          {
            "duration": 0.23645833333333144,
            "durationTicks": 227,
            "midi": 70,
            "name": "A#4",
            "ticks": 225360,
            "time": 234.75,
            "velocity": 0.9763779527559056
          },
          {
            "duration": 0.11354166666666288,
            "durationTicks": 109,
            "midi": 67,
            "name": "G4",
            "ticks": 225600,
            "time": 235,
            "velocity": 0.8346456692913385
          },
          {
            "duration": 0.11354166666666288,
            "durationTicks": 109,
            "midi": 63,
            "name": "D#4",
            "ticks": 225840,
            "time": 235.25,
            "velocity": 0.7716535433070866
          },
          {
            "duration": 0.22604166666667425,
            "durationTicks": 217,
            "midi": 58,
            "name": "A#3",
            "ticks": 226080,
            "time": 235.5,
            "velocity": 0.8267716535433071
          },
          {
            "duration": 0.22604166666667425,
            "durationTicks": 217,
            "midi": 70,
            "name": "A#4",
            "ticks": 226320,
            "time": 235.75,
            "velocity": 1
          },
          {
            "duration": 0.22604166666667425,
            "durationTicks": 217,
            "midi": 82,
            "name": "A#5",
            "ticks": 226560,
            "time": 236,
            "velocity": 1
          },
          {
            "duration": 0.22604166666667425,
            "durationTicks": 217,
            "midi": 82,
            "name": "A#5",
            "ticks": 226800,
            "time": 236.25,
            "velocity": 0.9763779527559056
          },
          {
            "duration": 3.2260416666666742,
            "durationTicks": 3097,
            "midi": 75,
            "name": "D#5",
            "ticks": 227040,
            "time": 236.5,
            "velocity": 0.7480314960629921
          },
          {
            "duration": 0.22604166666667425,
            "durationTicks": 217,
            "midi": 77,
            "name": "F5",
            "ticks": 230160,
            "time": 239.75,
            "velocity": 0.952755905511811
          },
          {
            "duration": 0.22604166666667425,
            "durationTicks": 217,
            "midi": 77,
            "name": "F5",
            "ticks": 230400,
            "time": 240,
            "velocity": 0.8740157480314961
          },
          {
            "duration": 0.22604166666667425,
            "durationTicks": 217,
            "midi": 77,
            "name": "F5",
            "ticks": 230640,
            "time": 240.25,
            "velocity": 0.8976377952755905
          },
          {
            "duration": 3.2260416666666742,
            "durationTicks": 3097,
            "midi": 79,
            "name": "G5",
            "ticks": 230880,
            "time": 240.5,
            "velocity": 0.9291338582677166
          },
          {
            "duration": 0.22604166666667425,
            "durationTicks": 217,
            "midi": 70,
            "name": "A#4",
            "ticks": 234000,
            "time": 243.75,
            "velocity": 0.9763779527559056
          },
          {
            "duration": 0.22604166666667425,
            "durationTicks": 217,
            "midi": 82,
            "name": "A#5",
            "ticks": 234000,
            "time": 243.75,
            "velocity": 0.9763779527559056
          },
          {
            "duration": 0.22604166666667425,
            "durationTicks": 217,
            "midi": 70,
            "name": "A#4",
            "ticks": 234240,
            "time": 244,
            "velocity": 0.8740157480314961
          },
          {
            "duration": 0.22604166666667425,
            "durationTicks": 217,
            "midi": 82,
            "name": "A#5",
            "ticks": 234240,
            "time": 244,
            "velocity": 0.8740157480314961
          },
          {
            "duration": 0.22604166666667425,
            "durationTicks": 217,
            "midi": 70,
            "name": "A#4",
            "ticks": 234480,
            "time": 244.25,
            "velocity": 0.8661417322834646
          },
          {
            "duration": 0.22604166666667425,
            "durationTicks": 217,
            "midi": 82,
            "name": "A#5",
            "ticks": 234480,
            "time": 244.25,
            "velocity": 0.8661417322834646
          },
          {
            "duration": 0.45104166666666856,
            "durationTicks": 433,
            "midi": 70,
            "name": "A#4",
            "ticks": 234720,
            "time": 244.5,
            "velocity": 0.8976377952755905
          },
          {
            "duration": 0.45104166666666856,
            "durationTicks": 433,
            "midi": 82,
            "name": "A#5",
            "ticks": 234720,
            "time": 244.5,
            "velocity": 0.8976377952755905
          },
          {
            "duration": 0.22604166666667425,
            "durationTicks": 217,
            "midi": 70,
            "name": "A#4",
            "ticks": 235920,
            "time": 245.75,
            "velocity": 0.7952755905511811
          },
          {
            "duration": 0.22604166666667425,
            "durationTicks": 217,
            "midi": 82,
            "name": "A#5",
            "ticks": 235920,
            "time": 245.75,
            "velocity": 0.7952755905511811
          },
          {
            "duration": 0.22604166666667425,
            "durationTicks": 217,
            "midi": 70,
            "name": "A#4",
            "ticks": 236160,
            "time": 246,
            "velocity": 0.8740157480314961
          },
          {
            "duration": 0.22604166666667425,
            "durationTicks": 217,
            "midi": 82,
            "name": "A#5",
            "ticks": 236160,
            "time": 246,
            "velocity": 0.8740157480314961
          },
          {
            "duration": 0.22604166666667425,
            "durationTicks": 217,
            "midi": 70,
            "name": "A#4",
            "ticks": 236400,
            "time": 246.25,
            "velocity": 0.8740157480314961
          },
          {
            "duration": 0.22604166666667425,
            "durationTicks": 217,
            "midi": 82,
            "name": "A#5",
            "ticks": 236400,
            "time": 246.25,
            "velocity": 0.8740157480314961
          },
          {
            "duration": 0.45104166666666856,
            "durationTicks": 433,
            "midi": 70,
            "name": "A#4",
            "ticks": 236640,
            "time": 246.5,
            "velocity": 0.889763779527559
          },
          {
            "duration": 0.45104166666666856,
            "durationTicks": 433,
            "midi": 82,
            "name": "A#5",
            "ticks": 236640,
            "time": 246.5,
            "velocity": 0.889763779527559
          },
          {
            "duration": 0.22604166666667425,
            "durationTicks": 217,
            "midi": 77,
            "name": "F5",
            "ticks": 237840,
            "time": 247.75,
            "velocity": 0.8267716535433071
          },
          {
            "duration": 0.22604166666667425,
            "durationTicks": 217,
            "midi": 86,
            "name": "D6",
            "ticks": 237840,
            "time": 247.75,
            "velocity": 0.8267716535433071
          },
          {
            "duration": 0.22604166666667425,
            "durationTicks": 217,
            "midi": 77,
            "name": "F5",
            "ticks": 238080,
            "time": 248,
            "velocity": 0.9133858267716536
          },
          {
            "duration": 0.22604166666667425,
            "durationTicks": 217,
            "midi": 86,
            "name": "D6",
            "ticks": 238080,
            "time": 248,
            "velocity": 0.9133858267716536
          },
          {
            "duration": 0.22604166666667425,
            "durationTicks": 217,
            "midi": 77,
            "name": "F5",
            "ticks": 238320,
            "time": 248.25,
            "velocity": 0.8740157480314961
          },
          {
            "duration": 0.22604166666667425,
            "durationTicks": 217,
            "midi": 86,
            "name": "D6",
            "ticks": 238320,
            "time": 248.25,
            "velocity": 0.8740157480314961
          },
          {
            "duration": 0.45104166666666856,
            "durationTicks": 433,
            "midi": 79,
            "name": "G5",
            "ticks": 238560,
            "time": 248.5,
            "velocity": 0.9212598425196851
          },
          {
            "duration": 0.45104166666666856,
            "durationTicks": 433,
            "midi": 87,
            "name": "D#6",
            "ticks": 238560,
            "time": 248.5,
            "velocity": 0.9212598425196851
          },
          {
            "duration": 0.22604166666667425,
            "durationTicks": 217,
            "midi": 61,
            "name": "C#4",
            "ticks": 242640,
            "time": 252.75,
            "velocity": 0.8110236220472441
          },
          {
            "duration": 0.22604166666667425,
            "durationTicks": 217,
            "midi": 61,
            "name": "C#4",
            "ticks": 242880,
            "time": 253,
            "velocity": 0.889763779527559
          },
          {
            "duration": 0.22604166666667425,
            "durationTicks": 217,
            "midi": 61,
            "name": "C#4",
            "ticks": 243120,
            "time": 253.25,
            "velocity": 0.9291338582677166
          },
          {
            "duration": 2.5,
            "durationTicks": 2400,
            "midi": 60,
            "name": "C4",
            "ticks": 243360,
            "time": 253.5,
            "velocity": 0.8346456692913385
          },
          {
            "duration": 0.22604166666667425,
            "durationTicks": 217,
            "midi": 80,
            "name": "G#5",
            "ticks": 247920,
            "time": 258.25,
            "velocity": 0.44881889763779526
          },
          {
            "duration": 0.22604166666667425,
            "durationTicks": 217,
            "midi": 80,
            "name": "G#5",
            "ticks": 248160,
            "time": 258.5,
            "velocity": 0.48031496062992124
          },
          {
            "duration": 0.22604166666667425,
            "durationTicks": 217,
            "midi": 80,
            "name": "G#5",
            "ticks": 248400,
            "time": 258.75,
            "velocity": 0.5118110236220472
          },
          {
            "duration": 1.4510416666666401,
            "durationTicks": 1393,
            "midi": 77,
            "name": "F5",
            "ticks": 248640,
            "time": 259,
            "velocity": 0.4409448818897638
          },
          {
            "duration": 0.22604166666667425,
            "durationTicks": 217,
            "midi": 82,
            "name": "A#5",
            "ticks": 251760,
            "time": 262.25,
            "velocity": 0.4409448818897638
          },
          {
            "duration": 0.22604166666667425,
            "durationTicks": 217,
            "midi": 82,
            "name": "A#5",
            "ticks": 252000,
            "time": 262.5,
            "velocity": 0.49606299212598426
          },
          {
            "duration": 0.22604166666667425,
            "durationTicks": 217,
            "midi": 82,
            "name": "A#5",
            "ticks": 252240,
            "time": 262.75,
            "velocity": 0.49606299212598426
          },
          {
            "duration": 1.2260416666666742,
            "durationTicks": 1177,
            "midi": 79,
            "name": "G5",
            "ticks": 252480,
            "time": 263,
            "velocity": 0.4566929133858268
          },
          {
            "duration": 0.22604166666667425,
            "durationTicks": 217,
            "midi": 84,
            "name": "C6",
            "ticks": 253680,
            "time": 264.25,
            "velocity": 0.5669291338582677
          },
          {
            "duration": 0.22604166666667425,
            "durationTicks": 217,
            "midi": 84,
            "name": "C6",
            "ticks": 253920,
            "time": 264.5,
            "velocity": 0.4881889763779528
          },
          {
            "duration": 0.22604166666667425,
            "durationTicks": 217,
            "midi": 82,
            "name": "A#5",
            "ticks": 254160,
            "time": 264.75,
            "velocity": 0.44881889763779526
          },
          {
            "duration": 1.0197916666666629,
            "durationTicks": 979,
            "midi": 80,
            "name": "G#5",
            "ticks": 254400,
            "time": 265,
            "velocity": 0.4015748031496063
          },
          {
            "duration": 0.23645833333335986,
            "durationTicks": 227,
            "midi": 79,
            "name": "G5",
            "ticks": 255360,
            "time": 266,
            "velocity": 0.36220472440944884
          },
          {
            "duration": 0.22604166666667425,
            "durationTicks": 217,
            "midi": 84,
            "name": "C6",
            "ticks": 255600,
            "time": 266.25,
            "velocity": 0.5118110236220472
          },
          {
            "duration": 0.22604166666667425,
            "durationTicks": 217,
            "midi": 84,
            "name": "C6",
            "ticks": 255840,
            "time": 266.5,
            "velocity": 0.48031496062992124
          },
          {
            "duration": 0.22604166666667425,
            "durationTicks": 217,
            "midi": 82,
            "name": "A#5",
            "ticks": 256080,
            "time": 266.75,
            "velocity": 0.4094488188976378
          },
          {
            "duration": 1.0197916666666629,
            "durationTicks": 979,
            "midi": 80,
            "name": "G#5",
            "ticks": 256320,
            "time": 267,
            "velocity": 0.4251968503937008
          },
          {
            "duration": 0.23645833333335986,
            "durationTicks": 227,
            "midi": 79,
            "name": "G5",
            "ticks": 257280,
            "time": 268,
            "velocity": 0.4251968503937008
          },
          {
            "duration": 0.22604166666667425,
            "durationTicks": 217,
            "midi": 84,
            "name": "C6",
            "ticks": 257520,
            "time": 268.25,
            "velocity": 0.5354330708661418
          },
          {
            "duration": 0.22604166666667425,
            "durationTicks": 217,
            "midi": 84,
            "name": "C6",
            "ticks": 257760,
            "time": 268.5,
            "velocity": 0.48031496062992124
          },
          {
            "duration": 0.22604166666667425,
            "durationTicks": 217,
            "midi": 82,
            "name": "A#5",
            "ticks": 258000,
            "time": 268.75,
            "velocity": 0.48031496062992124
          },
          {
            "duration": 0.22604166666667425,
            "durationTicks": 217,
            "midi": 80,
            "name": "G#5",
            "ticks": 258240,
            "time": 269,
            "velocity": 0.44881889763779526
          },
          {
            "duration": 0.22604166666667425,
            "durationTicks": 217,
            "midi": 80,
            "name": "G#5",
            "ticks": 258480,
            "time": 269.25,
            "velocity": 0.5039370078740157
          },
          {
            "duration": 0.22604166666667425,
            "durationTicks": 217,
            "midi": 80,
            "name": "G#5",
            "ticks": 258720,
            "time": 269.5,
            "velocity": 0.5039370078740157
          },
          {
            "duration": 0.22604166666667425,
            "durationTicks": 217,
            "midi": 79,
            "name": "G5",
            "ticks": 258960,
            "time": 269.75,
            "velocity": 0.48031496062992124
          },
          {
            "duration": 0.22604166666667425,
            "durationTicks": 217,
            "midi": 77,
            "name": "F5",
            "ticks": 259200,
            "time": 270,
            "velocity": 0.4094488188976378
          },
          {
            "duration": 0.22604166666667425,
            "durationTicks": 217,
            "midi": 77,
            "name": "F5",
            "ticks": 259440,
            "time": 270.25,
            "velocity": 0.4409448818897638
          },
          {
            "duration": 0.22604166666667425,
            "durationTicks": 217,
            "midi": 77,
            "name": "F5",
            "ticks": 259680,
            "time": 270.5,
            "velocity": 0.4645669291338583
          },
          {
            "duration": 0.22604166666667425,
            "durationTicks": 217,
            "midi": 75,
            "name": "D#5",
            "ticks": 259920,
            "time": 270.75,
            "velocity": 0.4330708661417323
          },
          {
            "duration": 0.22604166666667425,
            "durationTicks": 217,
            "midi": 74,
            "name": "D5",
            "ticks": 260160,
            "time": 271,
            "velocity": 0.47244094488188976
          },
          {
            "duration": 0.22604166666667425,
            "durationTicks": 217,
            "midi": 74,
            "name": "D5",
            "ticks": 260400,
            "time": 271.25,
            "velocity": 0.5196850393700787
          },
          {
            "duration": 0.22604166666667425,
            "durationTicks": 217,
            "midi": 74,
            "name": "D5",
            "ticks": 260640,
            "time": 271.5,
            "velocity": 0.5118110236220472
          },
          {
            "duration": 0.22604166666667425,
            "durationTicks": 217,
            "midi": 72,
            "name": "C5",
            "ticks": 260880,
            "time": 271.75,
            "velocity": 0.41732283464566927
          },
          {
            "duration": 0.45104166666664014,
            "durationTicks": 433,
            "midi": 71,
            "name": "B4",
            "ticks": 261120,
            "time": 272,
            "velocity": 0.4409448818897638
          },
          {
            "duration": 0.22604166666667425,
            "durationTicks": 217,
            "midi": 75,
            "name": "D#5",
            "ticks": 262320,
            "time": 273.25,
            "velocity": 0.4251968503937008
          },
          {
            "duration": 0.22604166666667425,
            "durationTicks": 217,
            "midi": 75,
            "name": "D#5",
            "ticks": 262560,
            "time": 273.5,
            "velocity": 0.4409448818897638
          },
          {
            "duration": 0.22604166666667425,
            "durationTicks": 217,
            "midi": 77,
            "name": "F5",
            "ticks": 262800,
            "time": 273.75,
            "velocity": 0.5118110236220472
          },
          {
            "duration": 1.2260416666666742,
            "durationTicks": 1177,
            "midi": 79,
            "name": "G5",
            "ticks": 263040,
            "time": 274,
            "velocity": 0.49606299212598426
          },
          {
            "duration": 0.22604166666667425,
            "durationTicks": 217,
            "midi": 75,
            "name": "D#5",
            "ticks": 264240,
            "time": 275.25,
            "velocity": 0.4251968503937008
          },
          {
            "duration": 0.22604166666667425,
            "durationTicks": 217,
            "midi": 75,
            "name": "D#5",
            "ticks": 264480,
            "time": 275.5,
            "velocity": 0.4409448818897638
          },
          {
            "duration": 0.22604166666667425,
            "durationTicks": 217,
            "midi": 77,
            "name": "F5",
            "ticks": 264720,
            "time": 275.75,
            "velocity": 0.5275590551181102
          },
          {
            "duration": 1.8999999999999773,
            "durationTicks": 1824,
            "midi": 79,
            "name": "G5",
            "ticks": 264960,
            "time": 276,
            "velocity": 0.5196850393700787
          },
          {
            "duration": 0.5093749999999773,
            "durationTicks": 489,
            "midi": 81,
            "name": "A5",
            "ticks": 266880,
            "time": 278,
            "velocity": 0.5984251968503937
          },
          {
            "duration": 0.5093749999999773,
            "durationTicks": 489,
            "midi": 82,
            "name": "A#5",
            "ticks": 267360,
            "time": 278.5,
            "velocity": 0.5984251968503937
          },
          {
            "duration": 0.5093749999999773,
            "durationTicks": 489,
            "midi": 84,
            "name": "C6",
            "ticks": 267840,
            "time": 279,
            "velocity": 0.6141732283464567
          },
          {
            "duration": 0.47500000000002274,
            "durationTicks": 456,
            "midi": 85,
            "name": "C#6",
            "ticks": 268320,
            "time": 279.5,
            "velocity": 0.6929133858267716
          },
          {
            "duration": 1.8999999999999773,
            "durationTicks": 1824,
            "midi": 74,
            "name": "D5",
            "ticks": 268800,
            "time": 280,
            "velocity": 0.5039370078740157
          },
          {
            "duration": 1.8999999999999773,
            "durationTicks": 1824,
            "midi": 86,
            "name": "D6",
            "ticks": 268800,
            "time": 280,
            "velocity": 0.5039370078740157
          },
          {
            "duration": 1.8999999999999773,
            "durationTicks": 1824,
            "midi": 74,
            "name": "D5",
            "ticks": 270720,
            "time": 282,
            "velocity": 0.49606299212598426
          },
          {
            "duration": 1.8999999999999773,
            "durationTicks": 1824,
            "midi": 86,
            "name": "D6",
            "ticks": 270720,
            "time": 282,
            "velocity": 0.49606299212598426
          },
          {
            "duration": 1.2260416666666742,
            "durationTicks": 1177,
            "midi": 74,
            "name": "D5",
            "ticks": 272640,
            "time": 284,
            "velocity": 0.4881889763779528
          },
          {
            "duration": 1.2260416666666742,
            "durationTicks": 1177,
            "midi": 86,
            "name": "D6",
            "ticks": 272640,
            "time": 284,
            "velocity": 0.4881889763779528
          },
          {
            "duration": 0.22604166666667425,
            "durationTicks": 217,
            "midi": 79,
            "name": "G5",
            "ticks": 273840,
            "time": 285.25,
            "velocity": 0.36220472440944884
          },
          {
            "duration": 0.22604166666667425,
            "durationTicks": 217,
            "midi": 79,
            "name": "G5",
            "ticks": 274080,
            "time": 285.5,
            "velocity": 0.4645669291338583
          },
          {
            "duration": 0.22604166666667425,
            "durationTicks": 217,
            "midi": 81,
            "name": "A5",
            "ticks": 274320,
            "time": 285.75,
            "velocity": 0.5354330708661418
          },
          {
            "duration": 0.45104166666664014,
            "durationTicks": 433,
            "midi": 82,
            "name": "A#5",
            "ticks": 274560,
            "time": 286,
            "velocity": 0.5196850393700787
          },
          {
            "duration": 0.22604166666667425,
            "durationTicks": 217,
            "midi": 77,
            "name": "F5",
            "ticks": 275760,
            "time": 287.25,
            "velocity": 0.4094488188976378
          },
          {
            "duration": 0.22604166666667425,
            "durationTicks": 217,
            "midi": 81,
            "name": "A5",
            "ticks": 276000,
            "time": 287.5,
            "velocity": 0.5196850393700787
          },
          {
            "duration": 0.22604166666667425,
            "durationTicks": 217,
            "midi": 82,
            "name": "A#5",
            "ticks": 276240,
            "time": 287.75,
            "velocity": 0.48031496062992124
          },
          {
            "duration": 0.45104166666664014,
            "durationTicks": 433,
            "midi": 84,
            "name": "C6",
            "ticks": 276480,
            "time": 288,
            "velocity": 0.5275590551181102
          },
          {
            "duration": 0.22604166666667425,
            "durationTicks": 217,
            "midi": 77,
            "name": "F5",
            "ticks": 277680,
            "time": 289.25,
            "velocity": 0.4330708661417323
          },
          {
            "duration": 0.22604166666667425,
            "durationTicks": 217,
            "midi": 81,
            "name": "A5",
            "ticks": 277920,
            "time": 289.5,
            "velocity": 0.5354330708661418
          },
          {
            "duration": 0.22604166666667425,
            "durationTicks": 217,
            "midi": 82,
            "name": "A#5",
            "ticks": 278160,
            "time": 289.75,
            "velocity": 0.5196850393700787
          },
          {
            "duration": 0.45104166666664014,
            "durationTicks": 433,
            "midi": 84,
            "name": "C6",
            "ticks": 278400,
            "time": 290,
            "velocity": 0.5354330708661418
          },
          {
            "duration": 0.22604166666667425,
            "durationTicks": 217,
            "midi": 79,
            "name": "G5",
            "ticks": 279600,
            "time": 291.25,
            "velocity": 0.4251968503937008
          },
          {
            "duration": 0.22604166666667425,
            "durationTicks": 217,
            "midi": 82,
            "name": "A#5",
            "ticks": 279840,
            "time": 291.5,
            "velocity": 0.5039370078740157
          },
          {
            "duration": 0.22604166666667425,
            "durationTicks": 217,
            "midi": 84,
            "name": "C6",
            "ticks": 280080,
            "time": 291.75,
            "velocity": 0.4881889763779528
          },
          {
            "duration": 0.45104166666664014,
            "durationTicks": 433,
            "midi": 86,
            "name": "D6",
            "ticks": 280320,
            "time": 292,
            "velocity": 0.47244094488188976
          },
          {
            "duration": 0.22604166666667425,
            "durationTicks": 217,
            "midi": 79,
            "name": "G5",
            "ticks": 281520,
            "time": 293.25,
            "velocity": 0.4330708661417323
          },
          {
            "duration": 0.22604166666667425,
            "durationTicks": 217,
            "midi": 82,
            "name": "A#5",
            "ticks": 281760,
            "time": 293.5,
            "velocity": 0.5118110236220472
          },
          {
            "duration": 0.22604166666667425,
            "durationTicks": 217,
            "midi": 84,
            "name": "C6",
            "ticks": 282000,
            "time": 293.75,
            "velocity": 0.5984251968503937
          },
          {
            "duration": 0.22604166666667425,
            "durationTicks": 217,
            "midi": 86,
            "name": "D6",
            "ticks": 282240,
            "time": 294,
            "velocity": 0.5905511811023622
          },
          {
            "duration": 0.22604166666667425,
            "durationTicks": 217,
            "midi": 82,
            "name": "A#5",
            "ticks": 282480,
            "time": 294.25,
            "velocity": 0.49606299212598426
          },
          {
            "duration": 0.22604166666667425,
            "durationTicks": 217,
            "midi": 84,
            "name": "C6",
            "ticks": 282720,
            "time": 294.5,
            "velocity": 0.6062992125984252
          },
          {
            "duration": 0.22604166666667425,
            "durationTicks": 217,
            "midi": 86,
            "name": "D6",
            "ticks": 282960,
            "time": 294.75,
            "velocity": 0.7244094488188977
          },
          {
            "duration": 0.22604166666667425,
            "durationTicks": 217,
            "midi": 75,
            "name": "D#5",
            "ticks": 283200,
            "time": 295,
            "velocity": 0.8188976377952756
          },
          {
            "duration": 0.22604166666667425,
            "durationTicks": 217,
            "midi": 87,
            "name": "D#6",
            "ticks": 283200,
            "time": 295,
            "velocity": 0.8188976377952756
          },
          {
            "duration": 0.22604166666667425,
            "durationTicks": 217,
            "midi": 75,
            "name": "D#5",
            "ticks": 283440,
            "time": 295.25,
            "velocity": 0.7637795275590551
          },
          {
            "duration": 0.22604166666667425,
            "durationTicks": 217,
            "midi": 87,
            "name": "D#6",
            "ticks": 283440,
            "time": 295.25,
            "velocity": 0.7637795275590551
          },
          {
            "duration": 0.22604166666667425,
            "durationTicks": 217,
            "midi": 75,
            "name": "D#5",
            "ticks": 283680,
            "time": 295.5,
            "velocity": 0.7480314960629921
          },
          {
            "duration": 0.22604166666667425,
            "durationTicks": 217,
            "midi": 87,
            "name": "D#6",
            "ticks": 283680,
            "time": 295.5,
            "velocity": 0.7480314960629921
          },
          {
            "duration": 0.22604166666667425,
            "durationTicks": 217,
            "midi": 75,
            "name": "D#5",
            "ticks": 283920,
            "time": 295.75,
            "velocity": 0.7716535433070866
          },
          {
            "duration": 0.22604166666667425,
            "durationTicks": 217,
            "midi": 87,
            "name": "D#6",
            "ticks": 283920,
            "time": 295.75,
            "velocity": 0.7716535433070866
          },
          {
            "duration": 0.22604166666667425,
            "durationTicks": 217,
            "midi": 75,
            "name": "D#5",
            "ticks": 284160,
            "time": 296,
            "velocity": 0.8110236220472441
          },
          {
            "duration": 0.22604166666667425,
            "durationTicks": 217,
            "midi": 87,
            "name": "D#6",
            "ticks": 284160,
            "time": 296,
            "velocity": 0.8110236220472441
          },
          {
            "duration": 0.22604166666667425,
            "durationTicks": 217,
            "midi": 75,
            "name": "D#5",
            "ticks": 284400,
            "time": 296.25,
            "velocity": 0.7716535433070866
          },
          {
            "duration": 0.22604166666667425,
            "durationTicks": 217,
            "midi": 87,
            "name": "D#6",
            "ticks": 284400,
            "time": 296.25,
            "velocity": 0.7716535433070866
          },
          {
            "duration": 0.22604166666667425,
            "durationTicks": 217,
            "midi": 75,
            "name": "D#5",
            "ticks": 284640,
            "time": 296.5,
            "velocity": 0.7322834645669292
          },
          {
            "duration": 0.22604166666667425,
            "durationTicks": 217,
            "midi": 87,
            "name": "D#6",
            "ticks": 284640,
            "time": 296.5,
            "velocity": 0.7322834645669292
          },
          {
            "duration": 0.22604166666667425,
            "durationTicks": 217,
            "midi": 75,
            "name": "D#5",
            "ticks": 284880,
            "time": 296.75,
            "velocity": 0.7795275590551181
          },
          {
            "duration": 0.22604166666667425,
            "durationTicks": 217,
            "midi": 87,
            "name": "D#6",
            "ticks": 284880,
            "time": 296.75,
            "velocity": 0.7795275590551181
          },
          {
            "duration": 0.45104166666664014,
            "durationTicks": 433,
            "midi": 75,
            "name": "D#5",
            "ticks": 285120,
            "time": 297,
            "velocity": 0.7716535433070866
          },
          {
            "duration": 0.45104166666664014,
            "durationTicks": 433,
            "midi": 87,
            "name": "D#6",
            "ticks": 285120,
            "time": 297,
            "velocity": 0.7716535433070866
          },
          {
            "duration": 0.22604166666667425,
            "durationTicks": 217,
            "midi": 76,
            "name": "E5",
            "ticks": 286320,
            "time": 298.25,
            "velocity": 0.7007874015748031
          },
          {
            "duration": 0.22604166666667425,
            "durationTicks": 217,
            "midi": 88,
            "name": "E6",
            "ticks": 286320,
            "time": 298.25,
            "velocity": 0.7007874015748031
          },
          {
            "duration": 0.22604166666667425,
            "durationTicks": 217,
            "midi": 76,
            "name": "E5",
            "ticks": 286560,
            "time": 298.5,
            "velocity": 0.7244094488188977
          },
          {
            "duration": 0.22604166666667425,
            "durationTicks": 217,
            "midi": 88,
            "name": "E6",
            "ticks": 286560,
            "time": 298.5,
            "velocity": 0.7244094488188977
          },
          {
            "duration": 0.22604166666667425,
            "durationTicks": 217,
            "midi": 76,
            "name": "E5",
            "ticks": 286800,
            "time": 298.75,
            "velocity": 0.7480314960629921
          },
          {
            "duration": 0.22604166666667425,
            "durationTicks": 217,
            "midi": 88,
            "name": "E6",
            "ticks": 286800,
            "time": 298.75,
            "velocity": 0.7480314960629921
          },
          {
            "duration": 0.22604166666667425,
            "durationTicks": 217,
            "midi": 76,
            "name": "E5",
            "ticks": 287040,
            "time": 299,
            "velocity": 0.7952755905511811
          },
          {
            "duration": 0.22604166666667425,
            "durationTicks": 217,
            "midi": 88,
            "name": "E6",
            "ticks": 287040,
            "time": 299,
            "velocity": 0.7952755905511811
          },
          {
            "duration": 0.22604166666667425,
            "durationTicks": 217,
            "midi": 76,
            "name": "E5",
            "ticks": 287280,
            "time": 299.25,
            "velocity": 0.8110236220472441
          },
          {
            "duration": 0.22604166666667425,
            "durationTicks": 217,
            "midi": 88,
            "name": "E6",
            "ticks": 287280,
            "time": 299.25,
            "velocity": 0.8110236220472441
          },
          {
            "duration": 0.22604166666667425,
            "durationTicks": 217,
            "midi": 76,
            "name": "E5",
            "ticks": 287520,
            "time": 299.5,
            "velocity": 0.7952755905511811
          },
          {
            "duration": 0.22604166666667425,
            "durationTicks": 217,
            "midi": 88,
            "name": "E6",
            "ticks": 287520,
            "time": 299.5,
            "velocity": 0.7952755905511811
          },
          {
            "duration": 0.22604166666667425,
            "durationTicks": 217,
            "midi": 76,
            "name": "E5",
            "ticks": 287760,
            "time": 299.75,
            "velocity": 0.7480314960629921
          },
          {
            "duration": 0.22604166666667425,
            "durationTicks": 217,
            "midi": 88,
            "name": "E6",
            "ticks": 287760,
            "time": 299.75,
            "velocity": 0.7480314960629921
          },
          {
            "duration": 0.22604166666667425,
            "durationTicks": 217,
            "midi": 76,
            "name": "E5",
            "ticks": 288000,
            "time": 300,
            "velocity": 0.7559055118110236
          },
          {
            "duration": 0.22604166666667425,
            "durationTicks": 217,
            "midi": 88,
            "name": "E6",
            "ticks": 288000,
            "time": 300,
            "velocity": 0.7559055118110236
          },
          {
            "duration": 0.22604166666667425,
            "durationTicks": 217,
            "midi": 76,
            "name": "E5",
            "ticks": 288240,
            "time": 300.25,
            "velocity": 0.7874015748031497
          },
          {
            "duration": 0.22604166666667425,
            "durationTicks": 217,
            "midi": 88,
            "name": "E6",
            "ticks": 288240,
            "time": 300.25,
            "velocity": 0.7874015748031497
          },
          {
            "duration": 0.22604166666667425,
            "durationTicks": 217,
            "midi": 76,
            "name": "E5",
            "ticks": 288480,
            "time": 300.5,
            "velocity": 0.7637795275590551
          },
          {
            "duration": 0.22604166666667425,
            "durationTicks": 217,
            "midi": 88,
            "name": "E6",
            "ticks": 288480,
            "time": 300.5,
            "velocity": 0.7637795275590551
          },
          {
            "duration": 0.22604166666667425,
            "durationTicks": 217,
            "midi": 76,
            "name": "E5",
            "ticks": 288720,
            "time": 300.75,
            "velocity": 0.7637795275590551
          },
          {
            "duration": 0.22604166666667425,
            "durationTicks": 217,
            "midi": 88,
            "name": "E6",
            "ticks": 288720,
            "time": 300.75,
            "velocity": 0.7637795275590551
          },
          {
            "duration": 0.45104166666664014,
            "durationTicks": 433,
            "midi": 76,
            "name": "E5",
            "ticks": 288960,
            "time": 301,
            "velocity": 0.8267716535433071
          },
          {
            "duration": 0.45104166666664014,
            "durationTicks": 433,
            "midi": 88,
            "name": "E6",
            "ticks": 288960,
            "time": 301,
            "velocity": 0.8267716535433071
          },
          {
            "duration": 0.22604166666667425,
            "durationTicks": 217,
            "midi": 74,
            "name": "D5",
            "ticks": 290160,
            "time": 302.25,
            "velocity": 0.7559055118110236
          },
          {
            "duration": 0.22604166666667425,
            "durationTicks": 217,
            "midi": 86,
            "name": "D6",
            "ticks": 290160,
            "time": 302.25,
            "velocity": 0.7559055118110236
          },
          {
            "duration": 0.22604166666667425,
            "durationTicks": 217,
            "midi": 74,
            "name": "D5",
            "ticks": 290400,
            "time": 302.5,
            "velocity": 0.8188976377952756
          },
          {
            "duration": 0.22604166666667425,
            "durationTicks": 217,
            "midi": 86,
            "name": "D6",
            "ticks": 290400,
            "time": 302.5,
            "velocity": 0.8188976377952756
          },
          {
            "duration": 0.22604166666667425,
            "durationTicks": 217,
            "midi": 74,
            "name": "D5",
            "ticks": 290640,
            "time": 302.75,
            "velocity": 0.84251968503937
          },
          {
            "duration": 0.22604166666667425,
            "durationTicks": 217,
            "midi": 86,
            "name": "D6",
            "ticks": 290640,
            "time": 302.75,
            "velocity": 0.84251968503937
          },
          {
            "duration": 0.45104166666664014,
            "durationTicks": 433,
            "midi": 74,
            "name": "D5",
            "ticks": 290880,
            "time": 303,
            "velocity": 0.7952755905511811
          },
          {
            "duration": 0.45104166666664014,
            "durationTicks": 433,
            "midi": 86,
            "name": "D6",
            "ticks": 290880,
            "time": 303,
            "velocity": 0.7952755905511811
          },
          {
            "duration": 0.22604166666667425,
            "durationTicks": 217,
            "midi": 85,
            "name": "C#6",
            "ticks": 292320,
            "time": 304.5,
            "velocity": 0.7322834645669292
          },
          {
            "duration": 0.22604166666667425,
            "durationTicks": 217,
            "midi": 85,
            "name": "C#6",
            "ticks": 292560,
            "time": 304.75,
            "velocity": 0.8188976377952756
          },
          {
            "duration": 0.8999999999999773,
            "durationTicks": 864,
            "midi": 85,
            "name": "C#6",
            "ticks": 292800,
            "time": 305,
            "velocity": 0.8110236220472441
          },
          {
            "duration": 0.22604166666667425,
            "durationTicks": 217,
            "midi": 86,
            "name": "D6",
            "ticks": 293760,
            "time": 306,
            "velocity": 0.8582677165354331
          },
          {
            "duration": 0.22604166666667425,
            "durationTicks": 217,
            "midi": 86,
            "name": "D6",
            "ticks": 294000,
            "time": 306.25,
            "velocity": 0.905511811023622
          },
          {
            "duration": 0.22604166666667425,
            "durationTicks": 217,
            "midi": 86,
            "name": "D6",
            "ticks": 294240,
            "time": 306.5,
            "velocity": 0.8818897637795275
          },
          {
            "duration": 0.22604166666667425,
            "durationTicks": 217,
            "midi": 86,
            "name": "D6",
            "ticks": 294480,
            "time": 306.75,
            "velocity": 0.8818897637795275
          },
          {
            "duration": 0.8999999999999773,
            "durationTicks": 864,
            "midi": 79,
            "name": "G5",
            "ticks": 294720,
            "time": 307,
            "velocity": 0.8582677165354331
          },
          {
            "duration": 0.8999999999999773,
            "durationTicks": 864,
            "midi": 81,
            "name": "A5",
            "ticks": 295680,
            "time": 308,
            "velocity": 1
          },
          {
            "duration": 3.45104166666664,
            "durationTicks": 3313,
            "midi": 74,
            "name": "D5",
            "ticks": 296640,
            "time": 309,
            "velocity": 0.8346456692913385
          },
          {
            "duration": 0.22604166666667425,
            "durationTicks": 217,
            "midi": 78,
            "name": "F#5",
            "ticks": 300000,
            "time": 312.5,
            "velocity": 0.9921259842519685
          },
          {
            "duration": 0.22604166666667425,
            "durationTicks": 217,
            "midi": 78,
            "name": "F#5",
            "ticks": 300240,
            "time": 312.75,
            "velocity": 0.9212598425196851
          },
          {
            "duration": 0.45104166666664014,
            "durationTicks": 433,
            "midi": 81,
            "name": "A5",
            "ticks": 300480,
            "time": 313,
            "velocity": 0.9606299212598425
          },
          {
            "duration": 0.22604166666667425,
            "durationTicks": 217,
            "midi": 86,
            "name": "D6",
            "ticks": 300960,
            "time": 313.5,
            "velocity": 1
          },
          {
            "duration": 0.22604166666667425,
            "durationTicks": 217,
            "midi": 86,
            "name": "D6",
            "ticks": 301200,
            "time": 313.75,
            "velocity": 0.905511811023622
          },
          {
            "duration": 0.22604166666667425,
            "durationTicks": 217,
            "midi": 83,
            "name": "B5",
            "ticks": 301440,
            "time": 314,
            "velocity": 0.8346456692913385
          },
          {
            "duration": 0.22604166666667425,
            "durationTicks": 217,
            "midi": 79,
            "name": "G5",
            "ticks": 301680,
            "time": 314.25,
            "velocity": 0.7716535433070866
          },
          {
            "duration": 0.22604166666667425,
            "durationTicks": 217,
            "midi": 79,
            "name": "G5",
            "ticks": 301920,
            "time": 314.5,
            "velocity": 0.84251968503937
          },
          {
            "duration": 0.22604166666667425,
            "durationTicks": 217,
            "midi": 79,
            "name": "G5",
            "ticks": 302160,
            "time": 314.75,
            "velocity": 0.9133858267716536
          },
          {
            "duration": 0.8999999999999773,
            "durationTicks": 864,
            "midi": 72,
            "name": "C5",
            "ticks": 302400,
            "time": 315,
            "velocity": 0.8110236220472441
          },
          {
            "duration": 0.8999999999999773,
            "durationTicks": 864,
            "midi": 74,
            "name": "D5",
            "ticks": 303360,
            "time": 316,
            "velocity": 1
          },
          {
            "duration": 3.45104166666664,
            "durationTicks": 3313,
            "midi": 67,
            "name": "G4",
            "ticks": 304320,
            "time": 317,
            "velocity": 0.8267716535433071
          },
          {
            "duration": 0.22604166666667425,
            "durationTicks": 217,
            "midi": 71,
            "name": "B4",
            "ticks": 307680,
            "time": 320.5,
            "velocity": 1
          },
          {
            "duration": 0.22604166666667425,
            "durationTicks": 217,
            "midi": 71,
            "name": "B4",
            "ticks": 307920,
            "time": 320.75,
            "velocity": 0.9212598425196851
          },
          {
            "duration": 0.45104166666664014,
            "durationTicks": 433,
            "midi": 74,
            "name": "D5",
            "ticks": 308160,
            "time": 321,
            "velocity": 0.9763779527559056
          },
          {
            "duration": 0.22604166666667425,
            "durationTicks": 217,
            "midi": 79,
            "name": "G5",
            "ticks": 308640,
            "time": 321.5,
            "velocity": 1
          },
          {
            "duration": 0.22604166666667425,
            "durationTicks": 217,
            "midi": 79,
            "name": "G5",
            "ticks": 308880,
            "time": 321.75,
            "velocity": 0.9448818897637795
          },
          {
            "duration": 0.45104166666664014,
            "durationTicks": 433,
            "midi": 76,
            "name": "E5",
            "ticks": 309120,
            "time": 322,
            "velocity": 0.8110236220472441
          },
          {
            "duration": 1.0197916666666629,
            "durationTicks": 979,
            "midi": 55,
            "name": "G3",
            "ticks": 312000,
            "time": 325,
            "velocity": 0.7716535433070866
          },
          {
            "duration": 1.0197916666666629,
            "durationTicks": 979,
            "midi": 64,
            "name": "E4",
            "ticks": 312000,
            "time": 325,
            "velocity": 0.7716535433070866
          },
          {
            "duration": 0.9489583333333371,
            "durationTicks": 911,
            "midi": 56,
            "name": "G#3",
            "ticks": 312960,
            "time": 326,
            "velocity": 0.8031496062992126
          },
          {
            "duration": 0.9489583333333371,
            "durationTicks": 911,
            "midi": 65,
            "name": "F4",
            "ticks": 312960,
            "time": 326,
            "velocity": 0.8031496062992126
          },
          {
            "duration": 1.0197916666666629,
            "durationTicks": 979,
            "midi": 55,
            "name": "G3",
            "ticks": 315840,
            "time": 329,
            "velocity": 0.84251968503937
          },
          {
            "duration": 1.0197916666666629,
            "durationTicks": 979,
            "midi": 64,
            "name": "E4",
            "ticks": 315840,
            "time": 329,
            "velocity": 0.84251968503937
          },
          {
            "duration": 0.9489583333333371,
            "durationTicks": 911,
            "midi": 56,
            "name": "G#3",
            "ticks": 316800,
            "time": 330,
            "velocity": 0.8661417322834646
          },
          {
            "duration": 0.9489583333333371,
            "durationTicks": 911,
            "midi": 65,
            "name": "F4",
            "ticks": 316800,
            "time": 330,
            "velocity": 0.8661417322834646
          },
          {
            "duration": 1.0197916666666629,
            "durationTicks": 979,
            "midi": 66,
            "name": "F#4",
            "ticks": 319680,
            "time": 333,
            "velocity": 0.9133858267716536
          },
          {
            "duration": 0.9489583333333371,
            "durationTicks": 911,
            "midi": 69,
            "name": "A4",
            "ticks": 320640,
            "time": 334,
            "velocity": 1
          },
          {
            "duration": 0.8999999999999773,
            "durationTicks": 864,
            "midi": 70,
            "name": "A#4",
            "ticks": 323520,
            "time": 337,
            "velocity": 0.9212598425196851
          },
          {
            "duration": 0.8999999999999773,
            "durationTicks": 864,
            "midi": 71,
            "name": "B4",
            "ticks": 325440,
            "time": 339,
            "velocity": 0.7165354330708661
          },
          {
            "duration": 0.8999999999999773,
            "durationTicks": 864,
            "midi": 73,
            "name": "C#5",
            "ticks": 327360,
            "time": 341,
            "velocity": 0.6141732283464567
          },
          {
            "duration": 0.8999999999999773,
            "durationTicks": 864,
            "midi": 61,
            "name": "C#4",
            "ticks": 329280,
            "time": 343,
            "velocity": 0.3937007874015748
          },
          {
            "duration": 0.8999999999999773,
            "durationTicks": 864,
            "midi": 61,
            "name": "C#4",
            "ticks": 331200,
            "time": 345,
            "velocity": 0.4251968503937008
          },
          {
            "duration": 0.8999999999999773,
            "durationTicks": 864,
            "midi": 61,
            "name": "C#4",
            "ticks": 333120,
            "time": 347,
            "velocity": 0.44881889763779526
          },
          {
            "duration": 0.8999999999999773,
            "durationTicks": 864,
            "midi": 62,
            "name": "D4",
            "ticks": 335040,
            "time": 349,
            "velocity": 0.4251968503937008
          },
          {
            "duration": 0.8999999999999773,
            "durationTicks": 864,
            "midi": 62,
            "name": "D4",
            "ticks": 336960,
            "time": 351,
            "velocity": 0.41732283464566927
          },
          {
            "duration": 0.8999999999999773,
            "durationTicks": 864,
            "midi": 62,
            "name": "D4",
            "ticks": 338880,
            "time": 353,
            "velocity": 0.4015748031496063
          },
          {
            "duration": 0.22604166666667425,
            "durationTicks": 217,
            "midi": 62,
            "name": "D4",
            "ticks": 340800,
            "time": 355,
            "velocity": 0.8976377952755905
          },
          {
            "duration": 0.22604166666667425,
            "durationTicks": 217,
            "midi": 74,
            "name": "D5",
            "ticks": 341040,
            "time": 355.25,
            "velocity": 1
          },
          {
            "duration": 0.22604166666667425,
            "durationTicks": 217,
            "midi": 74,
            "name": "D5",
            "ticks": 341280,
            "time": 355.5,
            "velocity": 0.9606299212598425
          },
          {
            "duration": 0.22604166666667425,
            "durationTicks": 217,
            "midi": 74,
            "name": "D5",
            "ticks": 341520,
            "time": 355.75,
            "velocity": 0.9291338582677166
          },
          {
            "duration": 0.8999999999999773,
            "durationTicks": 864,
            "midi": 71,
            "name": "B4",
            "ticks": 341760,
            "time": 356,
            "velocity": 0.8188976377952756
          },
          {
            "duration": 0.8999999999999773,
            "durationTicks": 864,
            "midi": 72,
            "name": "C5",
            "ticks": 342720,
            "time": 357,
            "velocity": 0.9212598425196851
          },
          {
            "duration": 1.8999999999999773,
            "durationTicks": 1824,
            "midi": 69,
            "name": "A4",
            "ticks": 343680,
            "time": 358,
            "velocity": 0.8110236220472441
          },
          {
            "duration": 0.8999999999999773,
            "durationTicks": 864,
            "midi": 62,
            "name": "D4",
            "ticks": 346560,
            "time": 361,
            "velocity": 0.33858267716535434
          },
          {
            "duration": 0.8999999999999773,
            "durationTicks": 864,
            "midi": 62,
            "name": "D4",
            "ticks": 348480,
            "time": 363,
            "velocity": 0.4015748031496063
          },
          {
            "duration": 0.8999999999999773,
            "durationTicks": 864,
            "midi": 62,
            "name": "D4",
            "ticks": 350400,
            "time": 365,
            "velocity": 0.4251968503937008
          },
          {
            "duration": 0.45104166666664014,
            "durationTicks": 433,
            "midi": 62,
            "name": "D4",
            "ticks": 352320,
            "time": 367,
            "velocity": 0.7637795275590551
          },
          {
            "duration": 0.22604166666667425,
            "durationTicks": 217,
            "midi": 80,
            "name": "G#5",
            "ticks": 353520,
            "time": 368.25,
            "velocity": 0.6456692913385826
          },
          {
            "duration": 0.22604166666667425,
            "durationTicks": 217,
            "midi": 80,
            "name": "G#5",
            "ticks": 353760,
            "time": 368.5,
            "velocity": 0.7165354330708661
          },
          {
            "duration": 0.22604166666667425,
            "durationTicks": 217,
            "midi": 80,
            "name": "G#5",
            "ticks": 354000,
            "time": 368.75,
            "velocity": 0.7559055118110236
          },
          {
            "duration": 1.2260416666666742,
            "durationTicks": 1177,
            "midi": 77,
            "name": "F5",
            "ticks": 354240,
            "time": 369,
            "velocity": 0.7165354330708661
          },
          {
            "duration": 0.22604166666667425,
            "durationTicks": 217,
            "midi": 80,
            "name": "G#5",
            "ticks": 355440,
            "time": 370.25,
            "velocity": 0.8188976377952756
          },
          {
            "duration": 0.22604166666667425,
            "durationTicks": 217,
            "midi": 80,
            "name": "G#5",
            "ticks": 355680,
            "time": 370.5,
            "velocity": 0.7716535433070866
          },
          {
            "duration": 0.22604166666667425,
            "durationTicks": 217,
            "midi": 80,
            "name": "G#5",
            "ticks": 355920,
            "time": 370.75,
            "velocity": 0.7795275590551181
          },
          {
            "duration": 1.2260416666666742,
            "durationTicks": 1177,
            "midi": 77,
            "name": "F5",
            "ticks": 356160,
            "time": 371,
            "velocity": 0.7007874015748031
          },
          {
            "duration": 0.22604166666667425,
            "durationTicks": 217,
            "midi": 80,
            "name": "G#5",
            "ticks": 357360,
            "time": 372.25,
            "velocity": 0.8188976377952756
          },
          {
            "duration": 0.22604166666667425,
            "durationTicks": 217,
            "midi": 80,
            "name": "G#5",
            "ticks": 357600,
            "time": 372.5,
            "velocity": 0.8031496062992126
          },
          {
            "duration": 0.22604166666667425,
            "durationTicks": 217,
            "midi": 80,
            "name": "G#5",
            "ticks": 357840,
            "time": 372.75,
            "velocity": 0.7874015748031497
          },
          {
            "duration": 0.22604166666667425,
            "durationTicks": 217,
            "midi": 77,
            "name": "F5",
            "ticks": 358080,
            "time": 373,
            "velocity": 0.7086614173228346
          },
          {
            "duration": 0.22604166666667425,
            "durationTicks": 217,
            "midi": 80,
            "name": "G#5",
            "ticks": 358320,
            "time": 373.25,
            "velocity": 0.8110236220472441
          },
          {
            "duration": 0.22604166666667425,
            "durationTicks": 217,
            "midi": 80,
            "name": "G#5",
            "ticks": 358560,
            "time": 373.5,
            "velocity": 0.7637795275590551
          },
          {
            "duration": 0.22604166666667425,
            "durationTicks": 217,
            "midi": 80,
            "name": "G#5",
            "ticks": 358800,
            "time": 373.75,
            "velocity": 0.7559055118110236
          },
          {
            "duration": 0.22604166666667425,
            "durationTicks": 217,
            "midi": 77,
            "name": "F5",
            "ticks": 359040,
            "time": 374,
            "velocity": 0.7086614173228346
          },
          {
            "duration": 0.22604166666667425,
            "durationTicks": 217,
            "midi": 80,
            "name": "G#5",
            "ticks": 359280,
            "time": 374.25,
            "velocity": 0.7952755905511811
          },
          {
            "duration": 0.22604166666667425,
            "durationTicks": 217,
            "midi": 80,
            "name": "G#5",
            "ticks": 359520,
            "time": 374.5,
            "velocity": 0.7637795275590551
          },
          {
            "duration": 0.22604166666667425,
            "durationTicks": 217,
            "midi": 80,
            "name": "G#5",
            "ticks": 359760,
            "time": 374.75,
            "velocity": 0.7716535433070866
          },
          {
            "duration": 0.22604166666667425,
            "durationTicks": 217,
            "midi": 77,
            "name": "F5",
            "ticks": 360000,
            "time": 375,
            "velocity": 0.7165354330708661
          },
          {
            "duration": 0.22604166666667425,
            "durationTicks": 217,
            "midi": 79,
            "name": "G5",
            "ticks": 360240,
            "time": 375.25,
            "velocity": 0.7795275590551181
          },
          {
            "duration": 0.22604166666667425,
            "durationTicks": 217,
            "midi": 79,
            "name": "G5",
            "ticks": 360480,
            "time": 375.5,
            "velocity": 0.8188976377952756
          },
          {
            "duration": 0.22604166666667425,
            "durationTicks": 217,
            "midi": 79,
            "name": "G5",
            "ticks": 360720,
            "time": 375.75,
            "velocity": 0.7480314960629921
          },
          {
            "duration": 1.5,
            "durationTicks": 1440,
            "midi": 75,
            "name": "D#5",
            "ticks": 360960,
            "time": 376,
            "velocity": 0.6535433070866141
          },
          {
            "duration": 0.22604166666667425,
            "durationTicks": 217,
            "midi": 77,
            "name": "F5",
            "ticks": 362640,
            "time": 377.75,
            "velocity": 0.6929133858267716
          },
          {
            "duration": 0.22604166666667425,
            "durationTicks": 217,
            "midi": 77,
            "name": "F5",
            "ticks": 362880,
            "time": 378,
            "velocity": 0.7401574803149606
          },
          {
            "duration": 0.22604166666667425,
            "durationTicks": 217,
            "midi": 77,
            "name": "F5",
            "ticks": 363120,
            "time": 378.25,
            "velocity": 0.7874015748031497
          },
          {
            "duration": 2.5,
            "durationTicks": 2400,
            "midi": 74,
            "name": "D5",
            "ticks": 363360,
            "time": 378.5,
            "velocity": 0.7322834645669292
          },
          {
            "duration": 0.22604166666667425,
            "durationTicks": 217,
            "midi": 68,
            "name": "G#4",
            "ticks": 366960,
            "time": 382.25,
            "velocity": 0.3858267716535433
          },
          {
            "duration": 0.22604166666667425,
            "durationTicks": 217,
            "midi": 68,
            "name": "G#4",
            "ticks": 367200,
            "time": 382.5,
            "velocity": 0.44881889763779526
          },
          {
            "duration": 0.22604166666667425,
            "durationTicks": 217,
            "midi": 68,
            "name": "G#4",
            "ticks": 367440,
            "time": 382.75,
            "velocity": 0.49606299212598426
          },
          {
            "duration": 0.22604166666667425,
            "durationTicks": 217,
            "midi": 67,
            "name": "G4",
            "ticks": 367680,
            "time": 383,
            "velocity": 0.4566929133858268
          },
          {
            "duration": 0.22604166666667425,
            "durationTicks": 217,
            "midi": 75,
            "name": "D#5",
            "ticks": 367920,
            "time": 383.25,
            "velocity": 0.5748031496062992
          },
          {
            "duration": 0.22604166666667425,
            "durationTicks": 217,
            "midi": 75,
            "name": "D#5",
            "ticks": 368160,
            "time": 383.5,
            "velocity": 0.5039370078740157
          },
          {
            "duration": 0.22604166666667425,
            "durationTicks": 217,
            "midi": 75,
            "name": "D#5",
            "ticks": 368400,
            "time": 383.75,
            "velocity": 0.4645669291338583
          },
          {
            "duration": 0.45104166666664014,
            "durationTicks": 433,
            "midi": 72,
            "name": "C5",
            "ticks": 368640,
            "time": 384,
            "velocity": 0.44881889763779526
          },
          {
            "duration": 0.22604166666667425,
            "durationTicks": 217,
            "midi": 68,
            "name": "G#4",
            "ticks": 370800,
            "time": 386.25,
            "velocity": 0.4566929133858268
          },
          {
            "duration": 0.22604166666667425,
            "durationTicks": 217,
            "midi": 68,
            "name": "G#4",
            "ticks": 371040,
            "time": 386.5,
            "velocity": 0.48031496062992124
          },
          {
            "duration": 0.22604166666667425,
            "durationTicks": 217,
            "midi": 68,
            "name": "G#4",
            "ticks": 371280,
            "time": 386.75,
            "velocity": 0.4566929133858268
          },
          {
            "duration": 0.22604166666667425,
            "durationTicks": 217,
            "midi": 67,
            "name": "G4",
            "ticks": 371520,
            "time": 387,
            "velocity": 0.44881889763779526
          },
          {
            "duration": 0.22604166666667425,
            "durationTicks": 217,
            "midi": 77,
            "name": "F5",
            "ticks": 371760,
            "time": 387.25,
            "velocity": 0.5905511811023622
          },
          {
            "duration": 0.22604166666667425,
            "durationTicks": 217,
            "midi": 77,
            "name": "F5",
            "ticks": 372000,
            "time": 387.5,
            "velocity": 0.5196850393700787
          },
          {
            "duration": 0.22604166666667425,
            "durationTicks": 217,
            "midi": 77,
            "name": "F5",
            "ticks": 372240,
            "time": 387.75,
            "velocity": 0.48031496062992124
          },
          {
            "duration": 1.2260416666666742,
            "durationTicks": 1177,
            "midi": 74,
            "name": "D5",
            "ticks": 372480,
            "time": 388,
            "velocity": 0.4566929133858268
          },
          {
            "duration": 0.22604166666667425,
            "durationTicks": 217,
            "midi": 79,
            "name": "G5",
            "ticks": 373680,
            "time": 389.25,
            "velocity": 0.5433070866141733
          },
          {
            "duration": 0.22604166666667425,
            "durationTicks": 217,
            "midi": 79,
            "name": "G5",
            "ticks": 373920,
            "time": 389.5,
            "velocity": 0.48031496062992124
          },
          {
            "duration": 0.22604166666667425,
            "durationTicks": 217,
            "midi": 77,
            "name": "F5",
            "ticks": 374160,
            "time": 389.75,
            "velocity": 0.4566929133858268
          },
          {
            "duration": 0.8999999999999773,
            "durationTicks": 864,
            "midi": 75,
            "name": "D#5",
            "ticks": 374400,
            "time": 390,
            "velocity": 0.4645669291338583
          },
          {
            "duration": 0.22604166666667425,
            "durationTicks": 217,
            "midi": 74,
            "name": "D5",
            "ticks": 375360,
            "time": 391,
            "velocity": 0.44881889763779526
          },
          {
            "duration": 0.22604166666667425,
            "durationTicks": 217,
            "midi": 79,
            "name": "G5",
            "ticks": 375600,
            "time": 391.25,
            "velocity": 0.5354330708661418
          },
          {
            "duration": 0.22604166666667425,
            "durationTicks": 217,
            "midi": 79,
            "name": "G5",
            "ticks": 375840,
            "time": 391.5,
            "velocity": 0.49606299212598426
          },
          {
            "duration": 0.22604166666667425,
            "durationTicks": 217,
            "midi": 77,
            "name": "F5",
            "ticks": 376080,
            "time": 391.75,
            "velocity": 0.4409448818897638
          },
          {
            "duration": 0.8999999999999773,
            "durationTicks": 864,
            "midi": 75,
            "name": "D#5",
            "ticks": 376320,
            "time": 392,
            "velocity": 0.4645669291338583
          },
          {
            "duration": 0.22604166666667425,
            "durationTicks": 217,
            "midi": 74,
            "name": "D5",
            "ticks": 377280,
            "time": 393,
            "velocity": 0.4251968503937008
          },
          {
            "duration": 0.22604166666667425,
            "durationTicks": 217,
            "midi": 79,
            "name": "G5",
            "ticks": 377520,
            "time": 393.25,
            "velocity": 0.5118110236220472
          },
          {
            "duration": 0.22604166666667425,
            "durationTicks": 217,
            "midi": 79,
            "name": "G5",
            "ticks": 377760,
            "time": 393.5,
            "velocity": 0.47244094488188976
          },
          {
            "duration": 0.22604166666667425,
            "durationTicks": 217,
            "midi": 77,
            "name": "F5",
            "ticks": 378000,
            "time": 393.75,
            "velocity": 0.47244094488188976
          },
          {
            "duration": 0.45104166666664014,
            "durationTicks": 433,
            "midi": 75,
            "name": "D#5",
            "ticks": 378240,
            "time": 394,
            "velocity": 0.5039370078740157
          },
          {
            "duration": 0.45104166666664014,
            "durationTicks": 433,
            "midi": 56,
            "name": "G#3",
            "ticks": 379200,
            "time": 395,
            "velocity": 0.5039370078740157
          },
          {
            "duration": 0.33749999999997726,
            "durationTicks": 324,
            "midi": 66,
            "name": "F#4",
            "ticks": 379309,
            "time": 395.11354166666666,
            "velocity": 0.5039370078740157
          },
          {
            "duration": 0.2249999999999659,
            "durationTicks": 216,
            "midi": 72,
            "name": "C5",
            "ticks": 379417,
            "time": 395.2260416666667,
            "velocity": 0.5039370078740157
          },
          {
            "duration": 0.45104166666664014,
            "durationTicks": 433,
            "midi": 55,
            "name": "G3",
            "ticks": 380160,
            "time": 396,
            "velocity": 0.6062992125984252
          },
          {
            "duration": 0.359375,
            "durationTicks": 345,
            "midi": 62,
            "name": "D4",
            "ticks": 380248,
            "time": 396.09166666666664,
            "velocity": 0.6062992125984252
          },
          {
            "duration": 0.267708333333303,
            "durationTicks": 257,
            "midi": 71,
            "name": "B4",
            "ticks": 380336,
            "time": 396.18333333333334,
            "velocity": 0.6062992125984252
          },
          {
            "duration": 0.17604166666666288,
            "durationTicks": 169,
            "midi": 79,
            "name": "G5",
            "ticks": 380424,
            "time": 396.275,
            "velocity": 0.6062992125984252
          },
          {
            "duration": 0.22604166666667425,
            "durationTicks": 217,
            "midi": 68,
            "name": "G#4",
            "ticks": 385680,
            "time": 401.75,
            "velocity": 0.4566929133858268
          },
          {
            "duration": 0.22604166666667425,
            "durationTicks": 217,
            "midi": 68,
            "name": "G#4",
            "ticks": 385920,
            "time": 402,
            "velocity": 0.48031496062992124
          },
          {
            "duration": 0.22604166666667425,
            "durationTicks": 217,
            "midi": 68,
            "name": "G#4",
            "ticks": 386160,
            "time": 402.25,
            "velocity": 0.47244094488188976
          },
          {
            "duration": 2.8999999999999773,
            "durationTicks": 2784,
            "midi": 65,
            "name": "F4",
            "ticks": 386400,
            "time": 402.5,
            "velocity": 0.47244094488188976
          },
          {
            "duration": 0.22604166666667425,
            "durationTicks": 217,
            "midi": 63,
            "name": "D#4",
            "ticks": 389280,
            "time": 405.5,
            "velocity": 0.4409448818897638
          },
          {
            "duration": 0.22604166666667425,
            "durationTicks": 217,
            "midi": 68,
            "name": "G#4",
            "ticks": 389520,
            "time": 405.75,
            "velocity": 0.5354330708661418
          },
          {
            "duration": 0.22604166666667425,
            "durationTicks": 217,
            "midi": 68,
            "name": "G#4",
            "ticks": 389760,
            "time": 406,
            "velocity": 0.48031496062992124
          },
          {
            "duration": 0.22604166666667425,
            "durationTicks": 217,
            "midi": 68,
            "name": "G#4",
            "ticks": 390000,
            "time": 406.25,
            "velocity": 0.4645669291338583
          },
          {
            "duration": 0.22604166666667425,
            "durationTicks": 217,
            "midi": 65,
            "name": "F4",
            "ticks": 390240,
            "time": 406.5,
            "velocity": 0.5275590551181102
          },
          {
            "duration": 0.22604166666667425,
            "durationTicks": 217,
            "midi": 62,
            "name": "D4",
            "ticks": 390480,
            "time": 406.75,
            "velocity": 0.48031496062992124
          },
          {
            "duration": 0.22604166666667425,
            "durationTicks": 217,
            "midi": 62,
            "name": "D4",
            "ticks": 390720,
            "time": 407,
            "velocity": 0.5590551181102362
          },
          {
            "duration": 0.22604166666667425,
            "durationTicks": 217,
            "midi": 62,
            "name": "D4",
            "ticks": 390960,
            "time": 407.25,
            "velocity": 0.5433070866141733
          },
          {
            "duration": 0.22604166666667425,
            "durationTicks": 217,
            "midi": 59,
            "name": "B3",
            "ticks": 391200,
            "time": 407.5,
            "velocity": 0.5118110236220472
          },
          {
            "duration": 0.22604166666667425,
            "durationTicks": 217,
            "midi": 56,
            "name": "G#3",
            "ticks": 391440,
            "time": 407.75,
            "velocity": 0.5354330708661418
          },
          {
            "duration": 0.22604166666667425,
            "durationTicks": 217,
            "midi": 56,
            "name": "G#3",
            "ticks": 391680,
            "time": 408,
            "velocity": 0.6377952755905512
          },
          {
            "duration": 0.22604166666667425,
            "durationTicks": 217,
            "midi": 56,
            "name": "G#3",
            "ticks": 391920,
            "time": 408.25,
            "velocity": 0.6377952755905512
          },
          {
            "duration": 0.22604166666667425,
            "durationTicks": 217,
            "midi": 55,
            "name": "G3",
            "ticks": 392160,
            "time": 408.5,
            "velocity": 0.6771653543307087
          },
          {
            "duration": 0.22604166666667425,
            "durationTicks": 217,
            "midi": 71,
            "name": "B4",
            "ticks": 392400,
            "time": 408.75,
            "velocity": 0.8188976377952756
          },
          {
            "duration": 0.22604166666667425,
            "durationTicks": 217,
            "midi": 71,
            "name": "B4",
            "ticks": 392640,
            "time": 409,
            "velocity": 0.7244094488188977
          },
          {
            "duration": 0.22604166666667425,
            "durationTicks": 217,
            "midi": 71,
            "name": "B4",
            "ticks": 392880,
            "time": 409.25,
            "velocity": 0.6614173228346457
          },
          {
            "duration": 0.22604166666667425,
            "durationTicks": 217,
            "midi": 72,
            "name": "C5",
            "ticks": 393120,
            "time": 409.5,
            "velocity": 0.8031496062992126
          },
          {
            "duration": 0.22604166666667425,
            "durationTicks": 217,
            "midi": 67,
            "name": "G4",
            "ticks": 393360,
            "time": 409.75,
            "velocity": 0.6850393700787402
          },
          {
            "duration": 0.22604166666667425,
            "durationTicks": 217,
            "midi": 72,
            "name": "C5",
            "ticks": 393600,
            "time": 410,
            "velocity": 0.84251968503937
          },
          {
            "duration": 0.22604166666667425,
            "durationTicks": 217,
            "midi": 72,
            "name": "C5",
            "ticks": 393840,
            "time": 410.25,
            "velocity": 0.8031496062992126
          },
          {
            "duration": 0.8999999999999773,
            "durationTicks": 864,
            "midi": 72,
            "name": "C5",
            "ticks": 394080,
            "time": 410.5,
            "velocity": 0.7637795275590551
          },
          {
            "duration": 0.22604166666667425,
            "durationTicks": 217,
            "midi": 71,
            "name": "B4",
            "ticks": 395040,
            "time": 411.5,
            "velocity": 0.7559055118110236
          },
          {
            "duration": 0.22604166666667425,
            "durationTicks": 217,
            "midi": 71,
            "name": "B4",
            "ticks": 395280,
            "time": 411.75,
            "velocity": 0.8110236220472441
          },
          {
            "duration": 0.22604166666667425,
            "durationTicks": 217,
            "midi": 71,
            "name": "B4",
            "ticks": 395520,
            "time": 412,
            "velocity": 0.7795275590551181
          },
          {
            "duration": 0.22604166666667425,
            "durationTicks": 217,
            "midi": 74,
            "name": "D5",
            "ticks": 395760,
            "time": 412.25,
            "velocity": 0.8346456692913385
          },
          {
            "duration": 0.8999999999999773,
            "durationTicks": 864,
            "midi": 74,
            "name": "D5",
            "ticks": 396000,
            "time": 412.5,
            "velocity": 0.7637795275590551
          },
          {
            "duration": 0.22604166666667425,
            "durationTicks": 217,
            "midi": 72,
            "name": "C5",
            "ticks": 396960,
            "time": 413.5,
            "velocity": 0.7086614173228346
          },
          {
            "duration": 0.22604166666667425,
            "durationTicks": 217,
            "midi": 72,
            "name": "C5",
            "ticks": 397200,
            "time": 413.75,
            "velocity": 0.7480314960629921
          },
          {
            "duration": 0.22604166666667425,
            "durationTicks": 217,
            "midi": 72,
            "name": "C5",
            "ticks": 397440,
            "time": 414,
            "velocity": 0.7637795275590551
          },
          {
            "duration": 0.22604166666667425,
            "durationTicks": 217,
            "midi": 75,
            "name": "D#5",
            "ticks": 397680,
            "time": 414.25,
            "velocity": 0.84251968503937
          },
          {
            "duration": 0.2541666666666629,
            "durationTicks": 244,
            "midi": 75,
            "name": "D#5",
            "ticks": 397920,
            "time": 414.5,
            "velocity": 0.905511811023622
          },
          {
            "duration": 0.23645833333335986,
            "durationTicks": 227,
            "midi": 74,
            "name": "D5",
            "ticks": 398160,
            "time": 414.75,
            "velocity": 0.8740157480314961
          },
          {
            "duration": 0.11354166666666288,
            "durationTicks": 109,
            "midi": 74,
            "name": "D5",
            "ticks": 398400,
            "time": 415,
            "velocity": 0.7322834645669292
          },
          {
            "duration": 0.11354166666666288,
            "durationTicks": 109,
            "midi": 77,
            "name": "F5",
            "ticks": 398640,
            "time": 415.25,
            "velocity": 0.8582677165354331
          },
          {
            "duration": 0.2541666666666629,
            "durationTicks": 244,
            "midi": 77,
            "name": "F5",
            "ticks": 398880,
            "time": 415.5,
            "velocity": 0.9212598425196851
          },
          {
            "duration": 0.23645833333335986,
            "durationTicks": 227,
            "midi": 76,
            "name": "E5",
            "ticks": 399120,
            "time": 415.75,
            "velocity": 0.9212598425196851
          },
          {
            "duration": 0.11354166666666288,
            "durationTicks": 109,
            "midi": 76,
            "name": "E5",
            "ticks": 399360,
            "time": 416,
            "velocity": 0.7874015748031497
          },
          {
            "duration": 0.11354166666666288,
            "durationTicks": 109,
            "midi": 79,
            "name": "G5",
            "ticks": 399600,
            "time": 416.25,
            "velocity": 0.8661417322834646
          },
          {
            "duration": 0.2541666666666629,
            "durationTicks": 244,
            "midi": 79,
            "name": "G5",
            "ticks": 399840,
            "time": 416.5,
            "velocity": 0.9133858267716536
          },
          {
            "duration": 0.23645833333335986,
            "durationTicks": 227,
            "midi": 77,
            "name": "F5",
            "ticks": 400080,
            "time": 416.75,
            "velocity": 0.84251968503937
          },
          {
            "duration": 0.11354166666666288,
            "durationTicks": 109,
            "midi": 77,
            "name": "F5",
            "ticks": 400320,
            "time": 417,
            "velocity": 0.7795275590551181
          },
          {
            "duration": 0.11354166666666288,
            "durationTicks": 109,
            "midi": 80,
            "name": "G#5",
            "ticks": 400560,
            "time": 417.25,
            "velocity": 0.8188976377952756
          },
          {
            "duration": 0.2541666666666629,
            "durationTicks": 244,
            "midi": 80,
            "name": "G#5",
            "ticks": 400800,
            "time": 417.5,
            "velocity": 0.8976377952755905
          },
          {
            "duration": 0.23645833333335986,
            "durationTicks": 227,
            "midi": 79,
            "name": "G5",
            "ticks": 401040,
            "time": 417.75,
            "velocity": 0.8503937007874016
          },
          {
            "duration": 0.11354166666666288,
            "durationTicks": 109,
            "midi": 79,
            "name": "G5",
            "ticks": 401280,
            "time": 418,
            "velocity": 0.7637795275590551
          },
          {
            "duration": 0.11354166666666288,
            "durationTicks": 109,
            "midi": 82,
            "name": "A#5",
            "ticks": 401520,
            "time": 418.25,
            "velocity": 0.8661417322834646
          },
          {
            "duration": 0.2541666666666629,
            "durationTicks": 244,
            "midi": 82,
            "name": "A#5",
            "ticks": 401760,
            "time": 418.5,
            "velocity": 0.8818897637795275
          },
          {
            "duration": 0.23645833333335986,
            "durationTicks": 227,
            "midi": 80,
            "name": "G#5",
            "ticks": 402000,
            "time": 418.75,
            "velocity": 0.8267716535433071
          },
          {
            "duration": 0.11354166666666288,
            "durationTicks": 109,
            "midi": 80,
            "name": "G#5",
            "ticks": 402240,
            "time": 419,
            "velocity": 0.7480314960629921
          },
          {
            "duration": 0.11354166666666288,
            "durationTicks": 109,
            "midi": 84,
            "name": "C6",
            "ticks": 402480,
            "time": 419.25,
            "velocity": 0.84251968503937
          },
          {
            "duration": 0.11354166666666288,
            "durationTicks": 109,
            "midi": 84,
            "name": "C6",
            "ticks": 402720,
            "time": 419.5,
            "velocity": 0.9133858267716536
          },
          {
            "duration": 0.11354166666666288,
            "durationTicks": 109,
            "midi": 83,
            "name": "B5",
            "ticks": 402960,
            "time": 419.75,
            "velocity": 0.7401574803149606
          },
          {
            "duration": 0.11354166666666288,
            "durationTicks": 109,
            "midi": 83,
            "name": "B5",
            "ticks": 403200,
            "time": 420,
            "velocity": 0.7795275590551181
          },
          {
            "duration": 0.11354166666666288,
            "durationTicks": 109,
            "midi": 86,
            "name": "D6",
            "ticks": 403440,
            "time": 420.25,
            "velocity": 0.8267716535433071
          },
          {
            "duration": 0.22604166666667425,
            "durationTicks": 217,
            "midi": 84,
            "name": "C6",
            "ticks": 403680,
            "time": 420.5,
            "velocity": 0.7401574803149606
          },
          {
            "duration": 0.22604166666667425,
            "durationTicks": 217,
            "midi": 87,
            "name": "D#6",
            "ticks": 403920,
            "time": 420.75,
            "velocity": 0.84251968503937
          },
          {
            "duration": 0.22604166666667425,
            "durationTicks": 217,
            "midi": 87,
            "name": "D#6",
            "ticks": 404160,
            "time": 421,
            "velocity": 0.7165354330708661
          },
          {
            "duration": 0.22604166666667425,
            "durationTicks": 217,
            "midi": 87,
            "name": "D#6",
            "ticks": 404400,
            "time": 421.25,
            "velocity": 0.7637795275590551
          },
          {
            "duration": 0.22604166666667425,
            "durationTicks": 217,
            "midi": 84,
            "name": "C6",
            "ticks": 404640,
            "time": 421.5,
            "velocity": 0.7244094488188977
          },
          {
            "duration": 0.22604166666667425,
            "durationTicks": 217,
            "midi": 79,
            "name": "G5",
            "ticks": 404880,
            "time": 421.75,
            "velocity": 0.6535433070866141
          },
          {
            "duration": 0.22604166666667425,
            "durationTicks": 217,
            "midi": 79,
            "name": "G5",
            "ticks": 405120,
            "time": 422,
            "velocity": 0.7559055118110236
          },
          {
            "duration": 0.22604166666667425,
            "durationTicks": 217,
            "midi": 79,
            "name": "G5",
            "ticks": 405360,
            "time": 422.25,
            "velocity": 0.8110236220472441
          },
          {
            "duration": 0.22604166666667425,
            "durationTicks": 217,
            "midi": 75,
            "name": "D#5",
            "ticks": 405600,
            "time": 422.5,
            "velocity": 0.6535433070866141
          },
          {
            "duration": 0.22604166666667425,
            "durationTicks": 217,
            "midi": 72,
            "name": "C5",
            "ticks": 405840,
            "time": 422.75,
            "velocity": 0.6850393700787402
          },
          {
            "duration": 0.22604166666667425,
            "durationTicks": 217,
            "midi": 67,
            "name": "G4",
            "ticks": 406080,
            "time": 423,
            "velocity": 0.6220472440944882
          },
          {
            "duration": 0.22604166666667425,
            "durationTicks": 217,
            "midi": 67,
            "name": "G4",
            "ticks": 406320,
            "time": 423.25,
            "velocity": 0.7716535433070866
          },
          {
            "duration": 0.22604166666667425,
            "durationTicks": 217,
            "midi": 63,
            "name": "D#4",
            "ticks": 406560,
            "time": 423.5,
            "velocity": 0.6692913385826772
          },
          {
            "duration": 0.22604166666667425,
            "durationTicks": 217,
            "midi": 60,
            "name": "C4",
            "ticks": 406800,
            "time": 423.75,
            "velocity": 0.6614173228346457
          },
          {
            "duration": 0.22604166666667425,
            "durationTicks": 217,
            "midi": 60,
            "name": "C4",
            "ticks": 407040,
            "time": 424,
            "velocity": 0.7480314960629921
          },
          {
            "duration": 0.22604166666667425,
            "durationTicks": 217,
            "midi": 60,
            "name": "C4",
            "ticks": 407280,
            "time": 424.25,
            "velocity": 0.8031496062992126
          },
          {
            "duration": 0.22604166666667425,
            "durationTicks": 217,
            "midi": 59,
            "name": "B3",
            "ticks": 407520,
            "time": 424.5,
            "velocity": 0.7559055118110236
          },
          {
            "duration": 0.22604166666667425,
            "durationTicks": 217,
            "midi": 89,
            "name": "F6",
            "ticks": 407760,
            "time": 424.75,
            "velocity": 0.9763779527559056
          },
          {
            "duration": 0.22604166666667425,
            "durationTicks": 217,
            "midi": 86,
            "name": "D6",
            "ticks": 408000,
            "time": 425,
            "velocity": 0.7559055118110236
          },
          {
            "duration": 0.22604166666667425,
            "durationTicks": 217,
            "midi": 86,
            "name": "D6",
            "ticks": 408240,
            "time": 425.25,
            "velocity": 0.7401574803149606
          },
          {
            "duration": 0.22604166666667425,
            "durationTicks": 217,
            "midi": 83,
            "name": "B5",
            "ticks": 408480,
            "time": 425.5,
            "velocity": 0.7007874015748031
          },
          {
            "duration": 0.22604166666667425,
            "durationTicks": 217,
            "midi": 79,
            "name": "G5",
            "ticks": 408720,
            "time": 425.75,
            "velocity": 0.6850393700787402
          },
          {
            "duration": 0.22604166666667425,
            "durationTicks": 217,
            "midi": 77,
            "name": "F5",
            "ticks": 408960,
            "time": 426,
            "velocity": 0.7007874015748031
          },
          {
            "duration": 0.22604166666667425,
            "durationTicks": 217,
            "midi": 77,
            "name": "F5",
            "ticks": 409200,
            "time": 426.25,
            "velocity": 0.7244094488188977
          },
          {
            "duration": 0.22604166666667425,
            "durationTicks": 217,
            "midi": 74,
            "name": "D5",
            "ticks": 409440,
            "time": 426.5,
            "velocity": 0.7244094488188977
          },
          {
            "duration": 0.22604166666667425,
            "durationTicks": 217,
            "midi": 71,
            "name": "B4",
            "ticks": 409680,
            "time": 426.75,
            "velocity": 0.6692913385826772
          },
          {
            "duration": 0.22604166666667425,
            "durationTicks": 217,
            "midi": 67,
            "name": "G4",
            "ticks": 409920,
            "time": 427,
            "velocity": 0.6929133858267716
          },
          {
            "duration": 0.22604166666667425,
            "durationTicks": 217,
            "midi": 65,
            "name": "F4",
            "ticks": 410160,
            "time": 427.25,
            "velocity": 0.7244094488188977
          },
          {
            "duration": 0.22604166666667425,
            "durationTicks": 217,
            "midi": 62,
            "name": "D4",
            "ticks": 410400,
            "time": 427.5,
            "velocity": 0.6692913385826772
          },
          {
            "duration": 0.22604166666667425,
            "durationTicks": 217,
            "midi": 59,
            "name": "B3",
            "ticks": 410640,
            "time": 427.75,
            "velocity": 0.7480314960629921
          },
          {
            "duration": 0.22604166666667425,
            "durationTicks": 217,
            "midi": 60,
            "name": "C4",
            "ticks": 410880,
            "time": 428,
            "velocity": 0.7874015748031497
          },
          {
            "duration": 0.22604166666667425,
            "durationTicks": 217,
            "midi": 60,
            "name": "C4",
            "ticks": 411120,
            "time": 428.25,
            "velocity": 0.7952755905511811
          },
          {
            "duration": 0.22604166666667425,
            "durationTicks": 217,
            "midi": 60,
            "name": "C4",
            "ticks": 411360,
            "time": 428.5,
            "velocity": 0.9133858267716536
          },
          {
            "duration": 0.22604166666667425,
            "durationTicks": 217,
            "midi": 87,
            "name": "D#6",
            "ticks": 411600,
            "time": 428.75,
            "velocity": 1
          },
          {
            "duration": 0.22604166666667425,
            "durationTicks": 217,
            "midi": 87,
            "name": "D#6",
            "ticks": 411840,
            "time": 429,
            "velocity": 0.937007874015748
          },
          {
            "duration": 0.22604166666667425,
            "durationTicks": 217,
            "midi": 87,
            "name": "D#6",
            "ticks": 412080,
            "time": 429.25,
            "velocity": 0.8976377952755905
          },
          {
            "duration": 0.22604166666667425,
            "durationTicks": 217,
            "midi": 84,
            "name": "C6",
            "ticks": 412320,
            "time": 429.5,
            "velocity": 0.7795275590551181
          },
          {
            "duration": 0.22604166666667425,
            "durationTicks": 217,
            "midi": 81,
            "name": "A5",
            "ticks": 412560,
            "time": 429.75,
            "velocity": 0.7874015748031497
          },
          {
            "duration": 0.22604166666667425,
            "durationTicks": 217,
            "midi": 81,
            "name": "A5",
            "ticks": 412800,
            "time": 430,
            "velocity": 0.8818897637795275
          },
          {
            "duration": 0.22604166666667425,
            "durationTicks": 217,
            "midi": 81,
            "name": "A5",
            "ticks": 413040,
            "time": 430.25,
            "velocity": 0.9212598425196851
          },
          {
            "duration": 0.22604166666667425,
            "durationTicks": 217,
            "midi": 78,
            "name": "F#5",
            "ticks": 413280,
            "time": 430.5,
            "velocity": 0.8031496062992126
          },
          {
            "duration": 0.22604166666667425,
            "durationTicks": 217,
            "midi": 75,
            "name": "D#5",
            "ticks": 413520,
            "time": 430.75,
            "velocity": 0.8346456692913385
          },
          {
            "duration": 0.22604166666667425,
            "durationTicks": 217,
            "midi": 75,
            "name": "D#5",
            "ticks": 413760,
            "time": 431,
            "velocity": 0.8818897637795275
          },
          {
            "duration": 0.22604166666667425,
            "durationTicks": 217,
            "midi": 75,
            "name": "D#5",
            "ticks": 414000,
            "time": 431.25,
            "velocity": 0.8976377952755905
          },
          {
            "duration": 0.22604166666667425,
            "durationTicks": 217,
            "midi": 72,
            "name": "C5",
            "ticks": 414240,
            "time": 431.5,
            "velocity": 0.8188976377952756
          },
          {
            "duration": 0.22604166666667425,
            "durationTicks": 217,
            "midi": 69,
            "name": "A4",
            "ticks": 414480,
            "time": 431.75,
            "velocity": 0.84251968503937
          },
          {
            "duration": 0.22604166666667425,
            "durationTicks": 217,
            "midi": 69,
            "name": "A4",
            "ticks": 414720,
            "time": 432,
            "velocity": 0.8740157480314961
          },
          {
            "duration": 0.22604166666667425,
            "durationTicks": 217,
            "midi": 69,
            "name": "A4",
            "ticks": 414960,
            "time": 432.25,
            "velocity": 0.8976377952755905
          },
          {
            "duration": 0.45104166666664014,
            "durationTicks": 433,
            "midi": 66,
            "name": "F#4",
            "ticks": 415200,
            "time": 432.5,
            "velocity": 0.8188976377952756
          },
          {
            "duration": 0.45104166666664014,
            "durationTicks": 433,
            "midi": 55,
            "name": "G3",
            "ticks": 417120,
            "time": 434.5,
            "velocity": 0.7952755905511811
          },
          {
            "duration": 0.45104166666664014,
            "durationTicks": 433,
            "midi": 67,
            "name": "G4",
            "ticks": 417120,
            "time": 434.5,
            "velocity": 0.7952755905511811
          },
          {
            "duration": 0.5093749999999773,
            "durationTicks": 489,
            "midi": 67,
            "name": "G4",
            "ticks": 421920,
            "time": 439.5,
            "velocity": 0.4330708661417323
          },
          {
            "duration": 0.5093749999999773,
            "durationTicks": 489,
            "midi": 72,
            "name": "C5",
            "ticks": 422400,
            "time": 440,
            "velocity": 0.4645669291338583
          },
          {
            "duration": 0.5093749999999773,
            "durationTicks": 489,
            "midi": 71,
            "name": "B4",
            "ticks": 422880,
            "time": 440.5,
            "velocity": 0.47244094488188976
          },
          {
            "duration": 0.5093749999999773,
            "durationTicks": 489,
            "midi": 72,
            "name": "C5",
            "ticks": 423360,
            "time": 441,
            "velocity": 0.5196850393700787
          },
          {
            "duration": 0.5093749999999773,
            "durationTicks": 489,
            "midi": 74,
            "name": "D5",
            "ticks": 423840,
            "time": 441.5,
            "velocity": 0.5039370078740157
          },
          {
            "duration": 0.47500000000002274,
            "durationTicks": 456,
            "midi": 69,
            "name": "A4",
            "ticks": 424320,
            "time": 442,
            "velocity": 0.47244094488188976
          },
          {
            "duration": 0.5093749999999773,
            "durationTicks": 489,
            "midi": 69,
            "name": "A4",
            "ticks": 424800,
            "time": 442.5,
            "velocity": 0.4330708661417323
          },
          {
            "duration": 0.47500000000002274,
            "durationTicks": 456,
            "midi": 67,
            "name": "G4",
            "ticks": 425280,
            "time": 443,
            "velocity": 0.3937007874015748
          },
          {
            "duration": 0.5093749999999773,
            "durationTicks": 489,
            "midi": 67,
            "name": "G4",
            "ticks": 429600,
            "time": 447.5,
            "velocity": 0.5118110236220472
          },
          {
            "duration": 0.5093749999999773,
            "durationTicks": 489,
            "midi": 72,
            "name": "C5",
            "ticks": 430080,
            "time": 448,
            "velocity": 0.5984251968503937
          },
          {
            "duration": 0.5093749999999773,
            "durationTicks": 489,
            "midi": 71,
            "name": "B4",
            "ticks": 430560,
            "time": 448.5,
            "velocity": 0.4409448818897638
          },
          {
            "duration": 0.5093749999999773,
            "durationTicks": 489,
            "midi": 72,
            "name": "C5",
            "ticks": 431040,
            "time": 449,
            "velocity": 0.4645669291338583
          },
          {
            "duration": 0.5093749999999773,
            "durationTicks": 489,
            "midi": 74,
            "name": "D5",
            "ticks": 431520,
            "time": 449.5,
            "velocity": 0.49606299212598426
          },
          {
            "duration": 0.47500000000002274,
            "durationTicks": 456,
            "midi": 69,
            "name": "A4",
            "ticks": 432000,
            "time": 450,
            "velocity": 0.4251968503937008
          },
          {
            "duration": 0.5093749999999773,
            "durationTicks": 489,
            "midi": 69,
            "name": "A4",
            "ticks": 432480,
            "time": 450.5,
            "velocity": 0.44881889763779526
          },
          {
            "duration": 0.47500000000002274,
            "durationTicks": 456,
            "midi": 67,
            "name": "G4",
            "ticks": 432960,
            "time": 451,
            "velocity": 0.4330708661417323
          },
          {
            "duration": 0.5093749999999773,
            "durationTicks": 489,
            "midi": 70,
            "name": "A#4",
            "ticks": 437280,
            "time": 455.5,
            "velocity": 0.5118110236220472
          },
          {
            "duration": 0.5093749999999773,
            "durationTicks": 489,
            "midi": 72,
            "name": "C5",
            "ticks": 437760,
            "time": 456,
            "velocity": 0.5196850393700787
          },
          {
            "duration": 0.5093749999999773,
            "durationTicks": 489,
            "midi": 73,
            "name": "C#5",
            "ticks": 438240,
            "time": 456.5,
            "velocity": 0.49606299212598426
          },
          {
            "duration": 0.47500000000002274,
            "durationTicks": 456,
            "midi": 72,
            "name": "C5",
            "ticks": 438720,
            "time": 457,
            "velocity": 0.48031496062992124
          },
          {
            "duration": 0.5093749999999773,
            "durationTicks": 489,
            "midi": 72,
            "name": "C5",
            "ticks": 441120,
            "time": 459.5,
            "velocity": 0.4645669291338583
          },
          {
            "duration": 0.5093749999999773,
            "durationTicks": 489,
            "midi": 74,
            "name": "D5",
            "ticks": 441600,
            "time": 460,
            "velocity": 0.48031496062992124
          },
          {
            "duration": 0.5093749999999773,
            "durationTicks": 489,
            "midi": 75,
            "name": "D#5",
            "ticks": 442080,
            "time": 460.5,
            "velocity": 0.47244094488188976
          },
          {
            "duration": 0.47500000000002274,
            "durationTicks": 456,
            "midi": 74,
            "name": "D5",
            "ticks": 442560,
            "time": 461,
            "velocity": 0.4566929133858268
          },
          {
            "duration": 0.5093749999999773,
            "durationTicks": 489,
            "midi": 77,
            "name": "F5",
            "ticks": 444960,
            "time": 463.5,
            "velocity": 0.5354330708661418
          },
          {
            "duration": 0.5093749999999773,
            "durationTicks": 489,
            "midi": 79,
            "name": "G5",
            "ticks": 445440,
            "time": 464,
            "velocity": 0.5748031496062992
          },
          {
            "duration": 0.5093749999999773,
            "durationTicks": 489,
            "midi": 80,
            "name": "G#5",
            "ticks": 445920,
            "time": 464.5,
            "velocity": 0.5039370078740157
          },
          {
            "duration": 0.5093749999999773,
            "durationTicks": 489,
            "midi": 79,
            "name": "G5",
            "ticks": 446400,
            "time": 465,
            "velocity": 0.4330708661417323
          },
          {
            "duration": 0.5093749999999773,
            "durationTicks": 489,
            "midi": 77,
            "name": "F5",
            "ticks": 446880,
            "time": 465.5,
            "velocity": 0.4645669291338583
          },
          {
            "duration": 0.47500000000002274,
            "durationTicks": 456,
            "midi": 79,
            "name": "G5",
            "ticks": 447360,
            "time": 466,
            "velocity": 0.49606299212598426
          },
          {
            "duration": 0.5093749999999773,
            "durationTicks": 489,
            "midi": 80,
            "name": "G#5",
            "ticks": 447840,
            "time": 466.5,
            "velocity": 0.5275590551181102
          },
          {
            "duration": 0.5093749999999773,
            "durationTicks": 489,
            "midi": 79,
            "name": "G5",
            "ticks": 448320,
            "time": 467,
            "velocity": 0.48031496062992124
          },
          {
            "duration": 0.5093749999999773,
            "durationTicks": 489,
            "midi": 77,
            "name": "F5",
            "ticks": 448800,
            "time": 467.5,
            "velocity": 0.4645669291338583
          },
          {
            "duration": 0.47500000000002274,
            "durationTicks": 456,
            "midi": 79,
            "name": "G5",
            "ticks": 449280,
            "time": 468,
            "velocity": 0.49606299212598426
          },
          {
            "duration": 0.5093749999999773,
            "durationTicks": 489,
            "midi": 80,
            "name": "G#5",
            "ticks": 449760,
            "time": 468.5,
            "velocity": 0.48031496062992124
          },
          {
            "duration": 0.5093749999999773,
            "durationTicks": 489,
            "midi": 79,
            "name": "G5",
            "ticks": 450240,
            "time": 469,
            "velocity": 0.5354330708661418
          },
          {
            "duration": 0.5093749999999773,
            "durationTicks": 489,
            "midi": 77,
            "name": "F5",
            "ticks": 450720,
            "time": 469.5,
            "velocity": 0.5196850393700787
          },
          {
            "duration": 0.47500000000002274,
            "durationTicks": 456,
            "midi": 79,
            "name": "G5",
            "ticks": 451200,
            "time": 470,
            "velocity": 0.6141732283464567
          },
          {
            "duration": 0.5093749999999773,
            "durationTicks": 489,
            "midi": 80,
            "name": "G#5",
            "ticks": 451680,
            "time": 470.5,
            "velocity": 0.5984251968503937
          },
          {
            "duration": 0.5093749999999773,
            "durationTicks": 489,
            "midi": 79,
            "name": "G5",
            "ticks": 452160,
            "time": 471,
            "velocity": 0.6220472440944882
          },
          {
            "duration": 0.5093749999999773,
            "durationTicks": 489,
            "midi": 78,
            "name": "F#5",
            "ticks": 452640,
            "time": 471.5,
            "velocity": 0.5118110236220472
          },
          {
            "duration": 0.47500000000002274,
            "durationTicks": 456,
            "midi": 79,
            "name": "G5",
            "ticks": 453120,
            "time": 472,
            "velocity": 0.5669291338582677
          },
          {
            "duration": 0.5093749999999773,
            "durationTicks": 489,
            "midi": 81,
            "name": "A5",
            "ticks": 453600,
            "time": 472.5,
            "velocity": 0.6141732283464567
          },
          {
            "duration": 0.5093749999999773,
            "durationTicks": 489,
            "midi": 79,
            "name": "G5",
            "ticks": 454080,
            "time": 473,
            "velocity": 0.6141732283464567
          },
          {
            "duration": 0.5093749999999773,
            "durationTicks": 489,
            "midi": 78,
            "name": "F#5",
            "ticks": 454560,
            "time": 473.5,
            "velocity": 0.5984251968503937
          },
          {
            "duration": 0.47500000000002274,
            "durationTicks": 456,
            "midi": 79,
            "name": "G5",
            "ticks": 455040,
            "time": 474,
            "velocity": 0.6929133858267716
          },
          {
            "duration": 0.5093749999999773,
            "durationTicks": 489,
            "midi": 81,
            "name": "A5",
            "ticks": 455520,
            "time": 474.5,
            "velocity": 0.7086614173228346
          },
          {
            "duration": 0.5093749999999773,
            "durationTicks": 489,
            "midi": 79,
            "name": "G5",
            "ticks": 456000,
            "time": 475,
            "velocity": 0.6456692913385826
          },
          {
            "duration": 0.5093749999999773,
            "durationTicks": 489,
            "midi": 78,
            "name": "F#5",
            "ticks": 456480,
            "time": 475.5,
            "velocity": 0.6535433070866141
          },
          {
            "duration": 0.5093749999999773,
            "durationTicks": 489,
            "midi": 79,
            "name": "G5",
            "ticks": 456960,
            "time": 476,
            "velocity": 0.6692913385826772
          },
          {
            "duration": 0.5093749999999773,
            "durationTicks": 489,
            "midi": 78,
            "name": "F#5",
            "ticks": 457440,
            "time": 476.5,
            "velocity": 0.6377952755905512
          },
          {
            "duration": 0.5093749999999773,
            "durationTicks": 489,
            "midi": 79,
            "name": "G5",
            "ticks": 457920,
            "time": 477,
            "velocity": 0.8188976377952756
          },
          {
            "duration": 0.5093749999999773,
            "durationTicks": 489,
            "midi": 78,
            "name": "F#5",
            "ticks": 458400,
            "time": 477.5,
            "velocity": 0.7559055118110236
          },
          {
            "duration": 0.47500000000002274,
            "durationTicks": 456,
            "midi": 79,
            "name": "G5",
            "ticks": 458880,
            "time": 478,
            "velocity": 0.7874015748031497
          },
          {
            "duration": 1.2260416666666742,
            "durationTicks": 1177,
            "midi": 79,
            "name": "G5",
            "ticks": 459360,
            "time": 478.5,
            "velocity": 0.9133858267716536
          },
          {
            "duration": 0.11354166666666288,
            "durationTicks": 109,
            "midi": 81,
            "name": "A5",
            "ticks": 460560,
            "time": 479.75,
            "velocity": 0.968503937007874
          },
          {
            "duration": 0.11354166666666288,
            "durationTicks": 109,
            "midi": 79,
            "name": "G5",
            "ticks": 460800,
            "time": 480,
            "velocity": 0.8188976377952756
          },
          {
            "duration": 0.11354166666666288,
            "durationTicks": 109,
            "midi": 77,
            "name": "F5",
            "ticks": 461040,
            "time": 480.25,
            "velocity": 0.84251968503937
          },
          {
            "duration": 0.2541666666666629,
            "durationTicks": 244,
            "midi": 77,
            "name": "F5",
            "ticks": 461280,
            "time": 480.5,
            "velocity": 0.8582677165354331
          },
          {
            "duration": 0.23645833333335986,
            "durationTicks": 227,
            "midi": 76,
            "name": "E5",
            "ticks": 461520,
            "time": 480.75,
            "velocity": 0.84251968503937
          },
          {
            "duration": 0.11354166666666288,
            "durationTicks": 109,
            "midi": 74,
            "name": "D5",
            "ticks": 461760,
            "time": 481,
            "velocity": 0.7952755905511811
          },
          {
            "duration": 0.11354166666666288,
            "durationTicks": 109,
            "midi": 72,
            "name": "C5",
            "ticks": 462000,
            "time": 481.25,
            "velocity": 0.8188976377952756
          },
          {
            "duration": 0.2541666666666629,
            "durationTicks": 244,
            "midi": 72,
            "name": "C5",
            "ticks": 462240,
            "time": 481.5,
            "velocity": 0.889763779527559
          },
          {
            "duration": 0.23645833333335986,
            "durationTicks": 227,
            "midi": 71,
            "name": "B4",
            "ticks": 462480,
            "time": 481.75,
            "velocity": 0.8582677165354331
          },
          {
            "duration": 0.11354166666666288,
            "durationTicks": 109,
            "midi": 69,
            "name": "A4",
            "ticks": 462720,
            "time": 482,
            "velocity": 0.8346456692913385
          },
          {
            "duration": 0.11354166666666288,
            "durationTicks": 109,
            "midi": 71,
            "name": "B4",
            "ticks": 462960,
            "time": 482.25,
            "velocity": 0.952755905511811
          },
          {
            "duration": 0.2541666666666629,
            "durationTicks": 244,
            "midi": 74,
            "name": "D5",
            "ticks": 463200,
            "time": 482.5,
            "velocity": 0.9921259842519685
          },
          {
            "duration": 0.23645833333335986,
            "durationTicks": 227,
            "midi": 72,
            "name": "C5",
            "ticks": 463440,
            "time": 482.75,
            "velocity": 0.952755905511811
          },
          {
            "duration": 0.11354166666666288,
            "durationTicks": 109,
            "midi": 67,
            "name": "G4",
            "ticks": 463680,
            "time": 483,
            "velocity": 0.7559055118110236
          },
          {
            "duration": 0.11354166666666288,
            "durationTicks": 109,
            "midi": 64,
            "name": "E4",
            "ticks": 463920,
            "time": 483.25,
            "velocity": 0.7795275590551181
          },
          {
            "duration": 0.2541666666666629,
            "durationTicks": 244,
            "midi": 71,
            "name": "B4",
            "ticks": 464160,
            "time": 483.5,
            "velocity": 1
          },
          {
            "duration": 0.23645833333335986,
            "durationTicks": 227,
            "midi": 69,
            "name": "A4",
            "ticks": 464400,
            "time": 483.75,
            "velocity": 0.968503937007874
          },
          {
            "duration": 0.11354166666666288,
            "durationTicks": 109,
            "midi": 65,
            "name": "F4",
            "ticks": 464640,
            "time": 484,
            "velocity": 0.7952755905511811
          },
          {
            "duration": 0.11354166666666288,
            "durationTicks": 109,
            "midi": 62,
            "name": "D4",
            "ticks": 464880,
            "time": 484.25,
            "velocity": 0.7952755905511811
          },
          {
            "duration": 0.2541666666666629,
            "durationTicks": 244,
            "midi": 69,
            "name": "A4",
            "ticks": 465120,
            "time": 484.5,
            "velocity": 1
          },
          {
            "duration": 0.23645833333335986,
            "durationTicks": 227,
            "midi": 67,
            "name": "G4",
            "ticks": 465360,
            "time": 484.75,
            "velocity": 0.9212598425196851
          },
          {
            "duration": 0.11354166666666288,
            "durationTicks": 109,
            "midi": 64,
            "name": "E4",
            "ticks": 465600,
            "time": 485,
            "velocity": 0.7795275590551181
          },
          {
            "duration": 0.11354166666666288,
            "durationTicks": 109,
            "midi": 60,
            "name": "C4",
            "ticks": 465840,
            "time": 485.25,
            "velocity": 0.7559055118110236
          },
          {
            "duration": 0.11354166666666288,
            "durationTicks": 109,
            "midi": 55,
            "name": "G3",
            "ticks": 466080,
            "time": 485.5,
            "velocity": 0.84251968503937
          },
          {
            "duration": 0.2541666666666629,
            "durationTicks": 244,
            "midi": 78,
            "name": "F#5",
            "ticks": 466320,
            "time": 485.75,
            "velocity": 1
          },
          {
            "duration": 0.2541666666666629,
            "durationTicks": 244,
            "midi": 79,
            "name": "G5",
            "ticks": 466560,
            "time": 486,
            "velocity": 1
          },
          {
            "duration": 0.2541666666666629,
            "durationTicks": 244,
            "midi": 78,
            "name": "F#5",
            "ticks": 466800,
            "time": 486.25,
            "velocity": 0.8740157480314961
          },
          {
            "duration": 0.2541666666666629,
            "durationTicks": 244,
            "midi": 79,
            "name": "G5",
            "ticks": 467040,
            "time": 486.5,
            "velocity": 0.889763779527559
          },
          {
            "duration": 0.2541666666666629,
            "durationTicks": 244,
            "midi": 78,
            "name": "F#5",
            "ticks": 467280,
            "time": 486.75,
            "velocity": 0.84251968503937
          },
          {
            "duration": 0.2541666666666629,
            "durationTicks": 244,
            "midi": 79,
            "name": "G5",
            "ticks": 467520,
            "time": 487,
            "velocity": 0.8661417322834646
          },
          {
            "duration": 0.23645833333335986,
            "durationTicks": 227,
            "midi": 78,
            "name": "F#5",
            "ticks": 467760,
            "time": 487.25,
            "velocity": 0.8582677165354331
          },
          {
            "duration": 0.11354166666666288,
            "durationTicks": 109,
            "midi": 79,
            "name": "G5",
            "ticks": 468000,
            "time": 487.5,
            "velocity": 0.9133858267716536
          },
          {
            "duration": 0.11354166666666288,
            "durationTicks": 109,
            "midi": 81,
            "name": "A5",
            "ticks": 468240,
            "time": 487.75,
            "velocity": 0.952755905511811
          },
          {
            "duration": 0.11354166666666288,
            "durationTicks": 109,
            "midi": 79,
            "name": "G5",
            "ticks": 468480,
            "time": 488,
            "velocity": 0.84251968503937
          },
          {
            "duration": 0.11354166666666288,
            "durationTicks": 109,
            "midi": 77,
            "name": "F5",
            "ticks": 468720,
            "time": 488.25,
            "velocity": 0.84251968503937
          },
          {
            "duration": 0.2541666666666629,
            "durationTicks": 244,
            "midi": 77,
            "name": "F5",
            "ticks": 468960,
            "time": 488.5,
            "velocity": 0.8503937007874016
          },
          {
            "duration": 0.23645833333335986,
            "durationTicks": 227,
            "midi": 76,
            "name": "E5",
            "ticks": 469200,
            "time": 488.75,
            "velocity": 0.7874015748031497
          },
          {
            "duration": 0.11354166666666288,
            "durationTicks": 109,
            "midi": 74,
            "name": "D5",
            "ticks": 469440,
            "time": 489,
            "velocity": 0.8267716535433071
          },
          {
            "duration": 0.11354166666666288,
            "durationTicks": 109,
            "midi": 72,
            "name": "C5",
            "ticks": 469680,
            "time": 489.25,
            "velocity": 0.8110236220472441
          },
          {
            "duration": 0.2541666666666629,
            "durationTicks": 244,
            "midi": 72,
            "name": "C5",
            "ticks": 469920,
            "time": 489.5,
            "velocity": 0.8661417322834646
          },
          {
            "duration": 0.23645833333335986,
            "durationTicks": 227,
            "midi": 71,
            "name": "B4",
            "ticks": 470160,
            "time": 489.75,
            "velocity": 0.84251968503937
          },
          {
            "duration": 0.11354166666666288,
            "durationTicks": 109,
            "midi": 69,
            "name": "A4",
            "ticks": 470400,
            "time": 490,
            "velocity": 0.8031496062992126
          },
          {
            "duration": 0.11354166666666288,
            "durationTicks": 109,
            "midi": 71,
            "name": "B4",
            "ticks": 470640,
            "time": 490.25,
            "velocity": 0.9763779527559056
          },
          {
            "duration": 0.2541666666666629,
            "durationTicks": 244,
            "midi": 74,
            "name": "D5",
            "ticks": 470880,
            "time": 490.5,
            "velocity": 1
          },
          {
            "duration": 0.23645833333335986,
            "durationTicks": 227,
            "midi": 72,
            "name": "C5",
            "ticks": 471120,
            "time": 490.75,
            "velocity": 0.968503937007874
          },
          {
            "duration": 0.11354166666666288,
            "durationTicks": 109,
            "midi": 67,
            "name": "G4",
            "ticks": 471360,
            "time": 491,
            "velocity": 0.7559055118110236
          },
          {
            "duration": 0.11354166666666288,
            "durationTicks": 109,
            "midi": 64,
            "name": "E4",
            "ticks": 471600,
            "time": 491.25,
            "velocity": 0.7874015748031497
          },
          {
            "duration": 0.2541666666666629,
            "durationTicks": 244,
            "midi": 71,
            "name": "B4",
            "ticks": 471840,
            "time": 491.5,
            "velocity": 1
          },
          {
            "duration": 0.23645833333335986,
            "durationTicks": 227,
            "midi": 69,
            "name": "A4",
            "ticks": 472080,
            "time": 491.75,
            "velocity": 0.968503937007874
          },
          {
            "duration": 0.11354166666666288,
            "durationTicks": 109,
            "midi": 65,
            "name": "F4",
            "ticks": 472320,
            "time": 492,
            "velocity": 0.7716535433070866
          },
          {
            "duration": 0.11354166666666288,
            "durationTicks": 109,
            "midi": 62,
            "name": "D4",
            "ticks": 472560,
            "time": 492.25,
            "velocity": 0.8346456692913385
          },
          {
            "duration": 0.2541666666666629,
            "durationTicks": 244,
            "midi": 69,
            "name": "A4",
            "ticks": 472800,
            "time": 492.5,
            "velocity": 1
          },
          {
            "duration": 0.23645833333335986,
            "durationTicks": 227,
            "midi": 67,
            "name": "G4",
            "ticks": 473040,
            "time": 492.75,
            "velocity": 0.9921259842519685
          },
          {
            "duration": 0.11354166666666288,
            "durationTicks": 109,
            "midi": 64,
            "name": "E4",
            "ticks": 473280,
            "time": 493,
            "velocity": 0.8031496062992126
          },
          {
            "duration": 0.11354166666666288,
            "durationTicks": 109,
            "midi": 60,
            "name": "C4",
            "ticks": 473520,
            "time": 493.25,
            "velocity": 0.7559055118110236
          },
          {
            "duration": 0.22604166666667425,
            "durationTicks": 217,
            "midi": 55,
            "name": "G3",
            "ticks": 473760,
            "time": 493.5,
            "velocity": 0.8188976377952756
          },
          {
            "duration": 0.22604166666667425,
            "durationTicks": 217,
            "midi": 67,
            "name": "G4",
            "ticks": 474000,
            "time": 493.75,
            "velocity": 1
          },
          {
            "duration": 0.22604166666667425,
            "durationTicks": 217,
            "midi": 79,
            "name": "G5",
            "ticks": 474240,
            "time": 494,
            "velocity": 1
          },
          {
            "duration": 0.22604166666667425,
            "durationTicks": 217,
            "midi": 79,
            "name": "G5",
            "ticks": 474480,
            "time": 494.25,
            "velocity": 0.9212598425196851
          },
          {
            "duration": 3.2260416666666742,
            "durationTicks": 3097,
            "midi": 72,
            "name": "C5",
            "ticks": 474720,
            "time": 494.5,
            "velocity": 0.7401574803149606
          },
          {
            "duration": 0.22604166666667425,
            "durationTicks": 217,
            "midi": 74,
            "name": "D5",
            "ticks": 477840,
            "time": 497.75,
            "velocity": 0.968503937007874
          },
          {
            "duration": 0.22604166666667425,
            "durationTicks": 217,
            "midi": 74,
            "name": "D5",
            "ticks": 478080,
            "time": 498,
            "velocity": 0.8818897637795275
          },
          {
            "duration": 0.22604166666667425,
            "durationTicks": 217,
            "midi": 74,
            "name": "D5",
            "ticks": 478320,
            "time": 498.25,
            "velocity": 0.8976377952755905
          },
          {
            "duration": 3.2260416666666742,
            "durationTicks": 3097,
            "midi": 76,
            "name": "E5",
            "ticks": 478560,
            "time": 498.5,
            "velocity": 0.937007874015748
          },
          {
            "duration": 0.22604166666667425,
            "durationTicks": 217,
            "midi": 79,
            "name": "G5",
            "ticks": 481680,
            "time": 501.75,
            "velocity": 1
          },
          {
            "duration": 0.22604166666667425,
            "durationTicks": 217,
            "midi": 79,
            "name": "G5",
            "ticks": 481920,
            "time": 502,
            "velocity": 0.9212598425196851
          },
          {
            "duration": 0.22604166666667425,
            "durationTicks": 217,
            "midi": 79,
            "name": "G5",
            "ticks": 482160,
            "time": 502.25,
            "velocity": 0.9133858267716536
          },
          {
            "duration": 0.45104166666664014,
            "durationTicks": 433,
            "midi": 79,
            "name": "G5",
            "ticks": 482400,
            "time": 502.5,
            "velocity": 0.889763779527559
          },
          {
            "duration": 0.22604166666667425,
            "durationTicks": 217,
            "midi": 79,
            "name": "G5",
            "ticks": 483600,
            "time": 503.75,
            "velocity": 0.8031496062992126
          },
          {
            "duration": 0.22604166666667425,
            "durationTicks": 217,
            "midi": 79,
            "name": "G5",
            "ticks": 483840,
            "time": 504,
            "velocity": 0.8818897637795275
          },
          {
            "duration": 0.22604166666667425,
            "durationTicks": 217,
            "midi": 79,
            "name": "G5",
            "ticks": 484080,
            "time": 504.25,
            "velocity": 0.9133858267716536
          },
          {
            "duration": 0.45104166666664014,
            "durationTicks": 433,
            "midi": 79,
            "name": "G5",
            "ticks": 484320,
            "time": 504.5,
            "velocity": 0.905511811023622
          },
          {
            "duration": 0.22604166666667425,
            "durationTicks": 217,
            "midi": 74,
            "name": "D5",
            "ticks": 485520,
            "time": 505.75,
            "velocity": 0.7952755905511811
          },
          {
            "duration": 0.22604166666667425,
            "durationTicks": 217,
            "midi": 83,
            "name": "B5",
            "ticks": 485520,
            "time": 505.75,
            "velocity": 0.7952755905511811
          },
          {
            "duration": 0.22604166666667425,
            "durationTicks": 217,
            "midi": 74,
            "name": "D5",
            "ticks": 485760,
            "time": 506,
            "velocity": 0.8582677165354331
          },
          {
            "duration": 0.22604166666667425,
            "durationTicks": 217,
            "midi": 83,
            "name": "B5",
            "ticks": 485760,
            "time": 506,
            "velocity": 0.8582677165354331
          },
          {
            "duration": 0.22604166666667425,
            "durationTicks": 217,
            "midi": 74,
            "name": "D5",
            "ticks": 486000,
            "time": 506.25,
            "velocity": 0.8976377952755905
          },
          {
            "duration": 0.22604166666667425,
            "durationTicks": 217,
            "midi": 83,
            "name": "B5",
            "ticks": 486000,
            "time": 506.25,
            "velocity": 0.8976377952755905
          },
          {
            "duration": 1.2260416666666742,
            "durationTicks": 1177,
            "midi": 84,
            "name": "C6",
            "ticks": 486240,
            "time": 506.5,
            "velocity": 1
          },
          {
            "duration": 0.22604166666667425,
            "durationTicks": 217,
            "midi": 84,
            "name": "C6",
            "ticks": 487440,
            "time": 507.75,
            "velocity": 0.8976377952755905
          },
          {
            "duration": 0.22604166666667425,
            "durationTicks": 217,
            "midi": 84,
            "name": "C6",
            "ticks": 487680,
            "time": 508,
            "velocity": 0.8503937007874016
          },
          {
            "duration": 0.22604166666667425,
            "durationTicks": 217,
            "midi": 84,
            "name": "C6",
            "ticks": 487920,
            "time": 508.25,
            "velocity": 0.8818897637795275
          },
          {
            "duration": 1.2260416666666742,
            "durationTicks": 1177,
            "midi": 84,
            "name": "C6",
            "ticks": 488160,
            "time": 508.5,
            "velocity": 1
          },
          {
            "duration": 0.22604166666667425,
            "durationTicks": 217,
            "midi": 84,
            "name": "C6",
            "ticks": 489360,
            "time": 509.75,
            "velocity": 0.889763779527559
          },
          {
            "duration": 0.22604166666667425,
            "durationTicks": 217,
            "midi": 84,
            "name": "C6",
            "ticks": 489600,
            "time": 510,
            "velocity": 0.84251968503937
          },
          {
            "duration": 0.22604166666667425,
            "durationTicks": 217,
            "midi": 84,
            "name": "C6",
            "ticks": 489840,
            "time": 510.25,
            "velocity": 0.8818897637795275
          },
          {
            "duration": 1.2260416666666742,
            "durationTicks": 1177,
            "midi": 84,
            "name": "C6",
            "ticks": 490080,
            "time": 510.5,
            "velocity": 0.984251968503937
          },
          {
            "duration": 0.22604166666667425,
            "durationTicks": 217,
            "midi": 84,
            "name": "C6",
            "ticks": 491280,
            "time": 511.75,
            "velocity": 0.889763779527559
          },
          {
            "duration": 0.22604166666667425,
            "durationTicks": 217,
            "midi": 84,
            "name": "C6",
            "ticks": 491520,
            "time": 512,
            "velocity": 0.8976377952755905
          },
          {
            "duration": 0.22604166666667425,
            "durationTicks": 217,
            "midi": 84,
            "name": "C6",
            "ticks": 491760,
            "time": 512.25,
            "velocity": 0.8818897637795275
          },
          {
            "duration": 1.2260416666666742,
            "durationTicks": 1177,
            "midi": 84,
            "name": "C6",
            "ticks": 492000,
            "time": 512.5,
            "velocity": 1
          },
          {
            "duration": 0.22604166666667425,
            "durationTicks": 217,
            "midi": 84,
            "name": "C6",
            "ticks": 493200,
            "time": 513.75,
            "velocity": 0.8740157480314961
          },
          {
            "duration": 0.22604166666667425,
            "durationTicks": 217,
            "midi": 84,
            "name": "C6",
            "ticks": 493440,
            "time": 514,
            "velocity": 0.905511811023622
          },
          {
            "duration": 0.22604166666667425,
            "durationTicks": 217,
            "midi": 84,
            "name": "C6",
            "ticks": 493680,
            "time": 514.25,
            "velocity": 0.8740157480314961
          },
          {
            "duration": 0.22604166666667425,
            "durationTicks": 217,
            "midi": 85,
            "name": "C#6",
            "ticks": 493920,
            "time": 514.5,
            "velocity": 0.9212598425196851
          },
          {
            "duration": 0.22604166666667425,
            "durationTicks": 217,
            "midi": 85,
            "name": "C#6",
            "ticks": 494160,
            "time": 514.75,
            "velocity": 0.889763779527559
          },
          {
            "duration": 0.22604166666667425,
            "durationTicks": 217,
            "midi": 85,
            "name": "C#6",
            "ticks": 494400,
            "time": 515,
            "velocity": 0.9291338582677166
          },
          {
            "duration": 0.22604166666667425,
            "durationTicks": 217,
            "midi": 85,
            "name": "C#6",
            "ticks": 494640,
            "time": 515.25,
            "velocity": 0.905511811023622
          },
          {
            "duration": 0.22604166666667425,
            "durationTicks": 217,
            "midi": 85,
            "name": "C#6",
            "ticks": 494880,
            "time": 515.5,
            "velocity": 0.8976377952755905
          },
          {
            "duration": 0.22604166666667425,
            "durationTicks": 217,
            "midi": 85,
            "name": "C#6",
            "ticks": 495120,
            "time": 515.75,
            "velocity": 0.8661417322834646
          },
          {
            "duration": 0.22604166666667425,
            "durationTicks": 217,
            "midi": 85,
            "name": "C#6",
            "ticks": 495360,
            "time": 516,
            "velocity": 0.8818897637795275
          },
          {
            "duration": 0.22604166666667425,
            "durationTicks": 217,
            "midi": 85,
            "name": "C#6",
            "ticks": 495600,
            "time": 516.25,
            "velocity": 0.8976377952755905
          },
          {
            "duration": 0.22604166666667425,
            "durationTicks": 217,
            "midi": 85,
            "name": "C#6",
            "ticks": 495840,
            "time": 516.5,
            "velocity": 0.905511811023622
          },
          {
            "duration": 0.22604166666667425,
            "durationTicks": 217,
            "midi": 85,
            "name": "C#6",
            "ticks": 496080,
            "time": 516.75,
            "velocity": 0.8818897637795275
          },
          {
            "duration": 0.22604166666667425,
            "durationTicks": 217,
            "midi": 85,
            "name": "C#6",
            "ticks": 496320,
            "time": 517,
            "velocity": 0.8818897637795275
          },
          {
            "duration": 0.22604166666667425,
            "durationTicks": 217,
            "midi": 85,
            "name": "C#6",
            "ticks": 496560,
            "time": 517.25,
            "velocity": 0.9133858267716536
          },
          {
            "duration": 0.22604166666667425,
            "durationTicks": 217,
            "midi": 85,
            "name": "C#6",
            "ticks": 496800,
            "time": 517.5,
            "velocity": 0.905511811023622
          },
          {
            "duration": 0.22604166666667425,
            "durationTicks": 217,
            "midi": 85,
            "name": "C#6",
            "ticks": 497040,
            "time": 517.75,
            "velocity": 0.8818897637795275
          },
          {
            "duration": 0.22604166666667425,
            "durationTicks": 217,
            "midi": 85,
            "name": "C#6",
            "ticks": 497280,
            "time": 518,
            "velocity": 0.8582677165354331
          },
          {
            "duration": 0.22604166666667425,
            "durationTicks": 217,
            "midi": 85,
            "name": "C#6",
            "ticks": 497520,
            "time": 518.25,
            "velocity": 0.9133858267716536
          },
          {
            "duration": 0.451041666666697,
            "durationTicks": 433,
            "midi": 85,
            "name": "C#6",
            "ticks": 497760,
            "time": 518.5,
            "velocity": 0.8661417322834646
          },
          {
            "duration": 0.22604166666667425,
            "durationTicks": 217,
            "midi": 75,
            "name": "D#5",
            "ticks": 501840,
            "time": 522.75,
            "velocity": 0.8031496062992126
          },
          {
            "duration": 0.22604166666667425,
            "durationTicks": 217,
            "midi": 87,
            "name": "D#6",
            "ticks": 501840,
            "time": 522.75,
            "velocity": 0.8031496062992126
          },
          {
            "duration": 0.22604166666667425,
            "durationTicks": 217,
            "midi": 75,
            "name": "D#5",
            "ticks": 502080,
            "time": 523,
            "velocity": 0.889763779527559
          },
          {
            "duration": 0.22604166666667425,
            "durationTicks": 217,
            "midi": 87,
            "name": "D#6",
            "ticks": 502080,
            "time": 523,
            "velocity": 0.889763779527559
          },
          {
            "duration": 0.22604166666667425,
            "durationTicks": 217,
            "midi": 75,
            "name": "D#5",
            "ticks": 502320,
            "time": 523.25,
            "velocity": 0.889763779527559
          },
          {
            "duration": 0.22604166666667425,
            "durationTicks": 217,
            "midi": 87,
            "name": "D#6",
            "ticks": 502320,
            "time": 523.25,
            "velocity": 0.889763779527559
          },
          {
            "duration": 0.22604166666667425,
            "durationTicks": 217,
            "midi": 75,
            "name": "D#5",
            "ticks": 502560,
            "time": 523.5,
            "velocity": 0.8976377952755905
          },
          {
            "duration": 0.22604166666667425,
            "durationTicks": 217,
            "midi": 87,
            "name": "D#6",
            "ticks": 502560,
            "time": 523.5,
            "velocity": 0.8976377952755905
          },
          {
            "duration": 0.22604166666667425,
            "durationTicks": 217,
            "midi": 75,
            "name": "D#5",
            "ticks": 502800,
            "time": 523.75,
            "velocity": 0.8740157480314961
          },
          {
            "duration": 0.22604166666667425,
            "durationTicks": 217,
            "midi": 87,
            "name": "D#6",
            "ticks": 502800,
            "time": 523.75,
            "velocity": 0.8740157480314961
          },
          {
            "duration": 0.22604166666667425,
            "durationTicks": 217,
            "midi": 75,
            "name": "D#5",
            "ticks": 503040,
            "time": 524,
            "velocity": 0.8818897637795275
          },
          {
            "duration": 0.22604166666667425,
            "durationTicks": 217,
            "midi": 87,
            "name": "D#6",
            "ticks": 503040,
            "time": 524,
            "velocity": 0.8818897637795275
          },
          {
            "duration": 0.22604166666667425,
            "durationTicks": 217,
            "midi": 75,
            "name": "D#5",
            "ticks": 503280,
            "time": 524.25,
            "velocity": 0.9291338582677166
          },
          {
            "duration": 0.22604166666667425,
            "durationTicks": 217,
            "midi": 87,
            "name": "D#6",
            "ticks": 503280,
            "time": 524.25,
            "velocity": 0.9291338582677166
          },
          {
            "duration": 0.22604166666667425,
            "durationTicks": 217,
            "midi": 75,
            "name": "D#5",
            "ticks": 503520,
            "time": 524.5,
            "velocity": 0.8740157480314961
          },
          {
            "duration": 0.22604166666667425,
            "durationTicks": 217,
            "midi": 87,
            "name": "D#6",
            "ticks": 503520,
            "time": 524.5,
            "velocity": 0.8740157480314961
          },
          {
            "duration": 0.22604166666667425,
            "durationTicks": 217,
            "midi": 75,
            "name": "D#5",
            "ticks": 503760,
            "time": 524.75,
            "velocity": 0.905511811023622
          },
          {
            "duration": 0.22604166666667425,
            "durationTicks": 217,
            "midi": 87,
            "name": "D#6",
            "ticks": 503760,
            "time": 524.75,
            "velocity": 0.905511811023622
          },
          {
            "duration": 0.22604166666667425,
            "durationTicks": 217,
            "midi": 75,
            "name": "D#5",
            "ticks": 504000,
            "time": 525,
            "velocity": 0.889763779527559
          },
          {
            "duration": 0.22604166666667425,
            "durationTicks": 217,
            "midi": 87,
            "name": "D#6",
            "ticks": 504000,
            "time": 525,
            "velocity": 0.889763779527559
          },
          {
            "duration": 0.22604166666667425,
            "durationTicks": 217,
            "midi": 75,
            "name": "D#5",
            "ticks": 504240,
            "time": 525.25,
            "velocity": 0.8976377952755905
          },
          {
            "duration": 0.22604166666667425,
            "durationTicks": 217,
            "midi": 87,
            "name": "D#6",
            "ticks": 504240,
            "time": 525.25,
            "velocity": 0.8976377952755905
          },
          {
            "duration": 0.22604166666667425,
            "durationTicks": 217,
            "midi": 75,
            "name": "D#5",
            "ticks": 504480,
            "time": 525.5,
            "velocity": 0.889763779527559
          },
          {
            "duration": 0.22604166666667425,
            "durationTicks": 217,
            "midi": 87,
            "name": "D#6",
            "ticks": 504480,
            "time": 525.5,
            "velocity": 0.889763779527559
          },
          {
            "duration": 0.22604166666667425,
            "durationTicks": 217,
            "midi": 75,
            "name": "D#5",
            "ticks": 504720,
            "time": 525.75,
            "velocity": 0.8503937007874016
          },
          {
            "duration": 0.22604166666667425,
            "durationTicks": 217,
            "midi": 87,
            "name": "D#6",
            "ticks": 504720,
            "time": 525.75,
            "velocity": 0.8503937007874016
          },
          {
            "duration": 0.22604166666667425,
            "durationTicks": 217,
            "midi": 75,
            "name": "D#5",
            "ticks": 504960,
            "time": 526,
            "velocity": 0.8582677165354331
          },
          {
            "duration": 0.22604166666667425,
            "durationTicks": 217,
            "midi": 87,
            "name": "D#6",
            "ticks": 504960,
            "time": 526,
            "velocity": 0.8582677165354331
          },
          {
            "duration": 0.22604166666667425,
            "durationTicks": 217,
            "midi": 75,
            "name": "D#5",
            "ticks": 505200,
            "time": 526.25,
            "velocity": 0.8976377952755905
          },
          {
            "duration": 0.22604166666667425,
            "durationTicks": 217,
            "midi": 87,
            "name": "D#6",
            "ticks": 505200,
            "time": 526.25,
            "velocity": 0.8976377952755905
          },
          {
            "duration": 0.22604166666667425,
            "durationTicks": 217,
            "midi": 75,
            "name": "D#5",
            "ticks": 505440,
            "time": 526.5,
            "velocity": 0.8661417322834646
          },
          {
            "duration": 0.22604166666667425,
            "durationTicks": 217,
            "midi": 87,
            "name": "D#6",
            "ticks": 505440,
            "time": 526.5,
            "velocity": 0.8661417322834646
          },
          {
            "duration": 0.22604166666667425,
            "durationTicks": 217,
            "midi": 75,
            "name": "D#5",
            "ticks": 505680,
            "time": 526.75,
            "velocity": 0.889763779527559
          },
          {
            "duration": 0.22604166666667425,
            "durationTicks": 217,
            "midi": 87,
            "name": "D#6",
            "ticks": 505680,
            "time": 526.75,
            "velocity": 0.889763779527559
          },
          {
            "duration": 0.22604166666667425,
            "durationTicks": 217,
            "midi": 75,
            "name": "D#5",
            "ticks": 505920,
            "time": 527,
            "velocity": 0.8582677165354331
          },
          {
            "duration": 0.22604166666667425,
            "durationTicks": 217,
            "midi": 87,
            "name": "D#6",
            "ticks": 505920,
            "time": 527,
            "velocity": 0.8582677165354331
          },
          {
            "duration": 0.22604166666667425,
            "durationTicks": 217,
            "midi": 75,
            "name": "D#5",
            "ticks": 506160,
            "time": 527.25,
            "velocity": 0.905511811023622
          },
          {
            "duration": 0.22604166666667425,
            "durationTicks": 217,
            "midi": 87,
            "name": "D#6",
            "ticks": 506160,
            "time": 527.25,
            "velocity": 0.905511811023622
          },
          {
            "duration": 0.451041666666697,
            "durationTicks": 433,
            "midi": 75,
            "name": "D#5",
            "ticks": 506400,
            "time": 527.5,
            "velocity": 0.9133858267716536
          },
          {
            "duration": 0.451041666666697,
            "durationTicks": 433,
            "midi": 87,
            "name": "D#6",
            "ticks": 506400,
            "time": 527.5,
            "velocity": 0.9133858267716536
          },
          {
            "duration": 0.2541666666667197,
            "durationTicks": 244,
            "midi": 71,
            "name": "B4",
            "ticks": 511200,
            "time": 532.5,
            "velocity": 0.8031496062992126
          },
          {
            "duration": 0.2541666666667197,
            "durationTicks": 244,
            "midi": 72,
            "name": "C5",
            "ticks": 511440,
            "time": 532.75,
            "velocity": 0.8346456692913385
          },
          {
            "duration": 0.2541666666667197,
            "durationTicks": 244,
            "midi": 74,
            "name": "D5",
            "ticks": 511680,
            "time": 533,
            "velocity": 0.937007874015748
          },
          {
            "duration": 0.2541666666667197,
            "durationTicks": 244,
            "midi": 75,
            "name": "D#5",
            "ticks": 511920,
            "time": 533.25,
            "velocity": 0.984251968503937
          },
          {
            "duration": 0.2541666666667197,
            "durationTicks": 244,
            "midi": 77,
            "name": "F5",
            "ticks": 512160,
            "time": 533.5,
            "velocity": 0.968503937007874
          },
          {
            "duration": 0.2541666666667197,
            "durationTicks": 244,
            "midi": 79,
            "name": "G5",
            "ticks": 512400,
            "time": 533.75,
            "velocity": 1
          },
          {
            "duration": 0.2541666666667197,
            "durationTicks": 244,
            "midi": 80,
            "name": "G#5",
            "ticks": 512640,
            "time": 534,
            "velocity": 0.9921259842519685
          },
          {
            "duration": 0.2541666666667197,
            "durationTicks": 244,
            "midi": 79,
            "name": "G5",
            "ticks": 512880,
            "time": 534.25,
            "velocity": 0.9212598425196851
          },
          {
            "duration": 0.2541666666667197,
            "durationTicks": 244,
            "midi": 80,
            "name": "G#5",
            "ticks": 513120,
            "time": 534.5,
            "velocity": 0.9212598425196851
          },
          {
            "duration": 0.2541666666667197,
            "durationTicks": 244,
            "midi": 79,
            "name": "G5",
            "ticks": 513360,
            "time": 534.75,
            "velocity": 0.8818897637795275
          },
          {
            "duration": 0.2541666666667197,
            "durationTicks": 244,
            "midi": 80,
            "name": "G#5",
            "ticks": 513600,
            "time": 535,
            "velocity": 0.9763779527559056
          },
          {
            "duration": 0.23645833333330302,
            "durationTicks": 227,
            "midi": 79,
            "name": "G5",
            "ticks": 513840,
            "time": 535.25,
            "velocity": 0.952755905511811
          },
          {
            "duration": 0.2541666666667197,
            "durationTicks": 244,
            "midi": 71,
            "name": "B4",
            "ticks": 515040,
            "time": 536.5,
            "velocity": 0.7322834645669292
          },
          {
            "duration": 0.2541666666667197,
            "durationTicks": 244,
            "midi": 72,
            "name": "C5",
            "ticks": 515280,
            "time": 536.75,
            "velocity": 0.7480314960629921
          },
          {
            "duration": 0.2541666666667197,
            "durationTicks": 244,
            "midi": 74,
            "name": "D5",
            "ticks": 515520,
            "time": 537,
            "velocity": 0.984251968503937
          },
          {
            "duration": 0.2541666666667197,
            "durationTicks": 244,
            "midi": 75,
            "name": "D#5",
            "ticks": 515760,
            "time": 537.25,
            "velocity": 1
          },
          {
            "duration": 0.2541666666667197,
            "durationTicks": 244,
            "midi": 77,
            "name": "F5",
            "ticks": 516000,
            "time": 537.5,
            "velocity": 0.9212598425196851
          },
          {
            "duration": 0.2541666666667197,
            "durationTicks": 244,
            "midi": 79,
            "name": "G5",
            "ticks": 516240,
            "time": 537.75,
            "velocity": 0.9921259842519685
          },
          {
            "duration": 0.2541666666667197,
            "durationTicks": 244,
            "midi": 80,
            "name": "G#5",
            "ticks": 516480,
            "time": 538,
            "velocity": 0.952755905511811
          },
          {
            "duration": 0.2541666666667197,
            "durationTicks": 244,
            "midi": 79,
            "name": "G5",
            "ticks": 516720,
            "time": 538.25,
            "velocity": 0.9448818897637795
          },
          {
            "duration": 0.2541666666667197,
            "durationTicks": 244,
            "midi": 80,
            "name": "G#5",
            "ticks": 516960,
            "time": 538.5,
            "velocity": 0.984251968503937
          },
          {
            "duration": 0.2541666666667197,
            "durationTicks": 244,
            "midi": 79,
            "name": "G5",
            "ticks": 517200,
            "time": 538.75,
            "velocity": 0.984251968503937
          },
          {
            "duration": 0.2541666666667197,
            "durationTicks": 244,
            "midi": 80,
            "name": "G#5",
            "ticks": 517440,
            "time": 539,
            "velocity": 0.905511811023622
          },
          {
            "duration": 0.23645833333330302,
            "durationTicks": 227,
            "midi": 79,
            "name": "G5",
            "ticks": 517680,
            "time": 539.25,
            "velocity": 0.8582677165354331
          },
          {
            "duration": 0.22604166666667425,
            "durationTicks": 217,
            "midi": 80,
            "name": "G#5",
            "ticks": 517920,
            "time": 539.5,
            "velocity": 0.9448818897637795
          },
          {
            "duration": 0.22604166666667425,
            "durationTicks": 217,
            "midi": 79,
            "name": "G5",
            "ticks": 518160,
            "time": 539.75,
            "velocity": 0.8582677165354331
          },
          {
            "duration": 0.22604166666667425,
            "durationTicks": 217,
            "midi": 82,
            "name": "A#5",
            "ticks": 518400,
            "time": 540,
            "velocity": 0.9448818897637795
          },
          {
            "duration": 0.22604166666667425,
            "durationTicks": 217,
            "midi": 80,
            "name": "G#5",
            "ticks": 518640,
            "time": 540.25,
            "velocity": 0.8503937007874016
          },
          {
            "duration": 0.22604166666667425,
            "durationTicks": 217,
            "midi": 79,
            "name": "G5",
            "ticks": 518880,
            "time": 540.5,
            "velocity": 0.8503937007874016
          },
          {
            "duration": 0.22604166666667425,
            "durationTicks": 217,
            "midi": 77,
            "name": "F5",
            "ticks": 519120,
            "time": 540.75,
            "velocity": 0.84251968503937
          },
          {
            "duration": 0.22604166666667425,
            "durationTicks": 217,
            "midi": 80,
            "name": "G#5",
            "ticks": 519360,
            "time": 541,
            "velocity": 0.968503937007874
          },
          {
            "duration": 0.22604166666667425,
            "durationTicks": 217,
            "midi": 79,
            "name": "G5",
            "ticks": 519600,
            "time": 541.25,
            "velocity": 0.84251968503937
          },
          {
            "duration": 0.22604166666667425,
            "durationTicks": 217,
            "midi": 77,
            "name": "F5",
            "ticks": 519840,
            "time": 541.5,
            "velocity": 0.8267716535433071
          },
          {
            "duration": 0.22604166666667425,
            "durationTicks": 217,
            "midi": 75,
            "name": "D#5",
            "ticks": 520080,
            "time": 541.75,
            "velocity": 0.8267716535433071
          },
          {
            "duration": 0.22604166666667425,
            "durationTicks": 217,
            "midi": 79,
            "name": "G5",
            "ticks": 520320,
            "time": 542,
            "velocity": 0.968503937007874
          },
          {
            "duration": 0.22604166666667425,
            "durationTicks": 217,
            "midi": 77,
            "name": "F5",
            "ticks": 520560,
            "time": 542.25,
            "velocity": 0.84251968503937
          },
          {
            "duration": 0.22604166666667425,
            "durationTicks": 217,
            "midi": 75,
            "name": "D#5",
            "ticks": 520800,
            "time": 542.5,
            "velocity": 0.8346456692913385
          },
          {
            "duration": 0.22604166666667425,
            "durationTicks": 217,
            "midi": 74,
            "name": "D5",
            "ticks": 521040,
            "time": 542.75,
            "velocity": 0.889763779527559
          },
          {
            "duration": 0.22604166666667425,
            "durationTicks": 217,
            "midi": 77,
            "name": "F5",
            "ticks": 521280,
            "time": 543,
            "velocity": 0.9606299212598425
          },
          {
            "duration": 0.22604166666667425,
            "durationTicks": 217,
            "midi": 75,
            "name": "D#5",
            "ticks": 521520,
            "time": 543.25,
            "velocity": 0.8582677165354331
          },
          {
            "duration": 0.22604166666667425,
            "durationTicks": 217,
            "midi": 74,
            "name": "D5",
            "ticks": 521760,
            "time": 543.5,
            "velocity": 0.84251968503937
          },
          {
            "duration": 0.22604166666667425,
            "durationTicks": 217,
            "midi": 72,
            "name": "C5",
            "ticks": 522000,
            "time": 543.75,
            "velocity": 0.8188976377952756
          },
          {
            "duration": 0.22604166666667425,
            "durationTicks": 217,
            "midi": 75,
            "name": "D#5",
            "ticks": 522240,
            "time": 544,
            "velocity": 0.968503937007874
          },
          {
            "duration": 0.22604166666667425,
            "durationTicks": 217,
            "midi": 74,
            "name": "D5",
            "ticks": 522480,
            "time": 544.25,
            "velocity": 0.8976377952755905
          },
          {
            "duration": 0.22604166666667425,
            "durationTicks": 217,
            "midi": 72,
            "name": "C5",
            "ticks": 522720,
            "time": 544.5,
            "velocity": 0.84251968503937
          },
          {
            "duration": 0.22604166666667425,
            "durationTicks": 217,
            "midi": 70,
            "name": "A#4",
            "ticks": 522960,
            "time": 544.75,
            "velocity": 0.8346456692913385
          },
          {
            "duration": 0.22604166666667425,
            "durationTicks": 217,
            "midi": 74,
            "name": "D5",
            "ticks": 523200,
            "time": 545,
            "velocity": 0.952755905511811
          },
          {
            "duration": 0.22604166666667425,
            "durationTicks": 217,
            "midi": 72,
            "name": "C5",
            "ticks": 523440,
            "time": 545.25,
            "velocity": 0.8740157480314961
          },
          {
            "duration": 0.22604166666667425,
            "durationTicks": 217,
            "midi": 70,
            "name": "A#4",
            "ticks": 523680,
            "time": 545.5,
            "velocity": 0.84251968503937
          },
          {
            "duration": 0.22604166666667425,
            "durationTicks": 217,
            "midi": 68,
            "name": "G#4",
            "ticks": 523920,
            "time": 545.75,
            "velocity": 0.8031496062992126
          },
          {
            "duration": 0.22604166666667425,
            "durationTicks": 217,
            "midi": 72,
            "name": "C5",
            "ticks": 524160,
            "time": 546,
            "velocity": 0.9606299212598425
          },
          {
            "duration": 0.22604166666667425,
            "durationTicks": 217,
            "midi": 70,
            "name": "A#4",
            "ticks": 524400,
            "time": 546.25,
            "velocity": 0.8503937007874016
          },
          {
            "duration": 0.22604166666667425,
            "durationTicks": 217,
            "midi": 68,
            "name": "G#4",
            "ticks": 524640,
            "time": 546.5,
            "velocity": 0.8188976377952756
          },
          {
            "duration": 0.22604166666667425,
            "durationTicks": 217,
            "midi": 67,
            "name": "G4",
            "ticks": 524880,
            "time": 546.75,
            "velocity": 0.8582677165354331
          },
          {
            "duration": 0.22604166666667425,
            "durationTicks": 217,
            "midi": 70,
            "name": "A#4",
            "ticks": 525120,
            "time": 547,
            "velocity": 0.9448818897637795
          },
          {
            "duration": 0.22604166666667425,
            "durationTicks": 217,
            "midi": 68,
            "name": "G#4",
            "ticks": 525360,
            "time": 547.25,
            "velocity": 0.8503937007874016
          },
          {
            "duration": 0.22604166666667425,
            "durationTicks": 217,
            "midi": 65,
            "name": "F4",
            "ticks": 525600,
            "time": 547.5,
            "velocity": 0.8188976377952756
          },
          {
            "duration": 0.22604166666667425,
            "durationTicks": 217,
            "midi": 67,
            "name": "G4",
            "ticks": 525840,
            "time": 547.75,
            "velocity": 0.9133858267716536
          },
          {
            "duration": 0.22604166666667425,
            "durationTicks": 217,
            "midi": 63,
            "name": "D#4",
            "ticks": 526080,
            "time": 548,
            "velocity": 0.7952755905511811
          },
          {
            "duration": 0.22604166666667425,
            "durationTicks": 217,
            "midi": 67,
            "name": "G4",
            "ticks": 526320,
            "time": 548.25,
            "velocity": 0.9448818897637795
          },
          {
            "duration": 0.22604166666667425,
            "durationTicks": 217,
            "midi": 62,
            "name": "D4",
            "ticks": 526560,
            "time": 548.5,
            "velocity": 0.7874015748031497
          },
          {
            "duration": 0.22604166666667425,
            "durationTicks": 217,
            "midi": 67,
            "name": "G4",
            "ticks": 526800,
            "time": 548.75,
            "velocity": 0.984251968503937
          },
          {
            "duration": 0.22604166666667425,
            "durationTicks": 217,
            "midi": 63,
            "name": "D#4",
            "ticks": 527040,
            "time": 549,
            "velocity": 0.8267716535433071
          },
          {
            "duration": 0.22604166666667425,
            "durationTicks": 217,
            "midi": 67,
            "name": "G4",
            "ticks": 527280,
            "time": 549.25,
            "velocity": 0.968503937007874
          },
          {
            "duration": 0.22604166666667425,
            "durationTicks": 217,
            "midi": 65,
            "name": "F4",
            "ticks": 527520,
            "time": 549.5,
            "velocity": 0.84251968503937
          },
          {
            "duration": 0.22604166666667425,
            "durationTicks": 217,
            "midi": 67,
            "name": "G4",
            "ticks": 527760,
            "time": 549.75,
            "velocity": 0.952755905511811
          },
          {
            "duration": 0.22604166666667425,
            "durationTicks": 217,
            "midi": 63,
            "name": "D#4",
            "ticks": 528000,
            "time": 550,
            "velocity": 0.8346456692913385
          },
          {
            "duration": 0.22604166666667425,
            "durationTicks": 217,
            "midi": 67,
            "name": "G4",
            "ticks": 528240,
            "time": 550.25,
            "velocity": 0.9448818897637795
          },
          {
            "duration": 0.22604166666667425,
            "durationTicks": 217,
            "midi": 65,
            "name": "F4",
            "ticks": 528480,
            "time": 550.5,
            "velocity": 0.8661417322834646
          },
          {
            "duration": 0.22604166666667425,
            "durationTicks": 217,
            "midi": 67,
            "name": "G4",
            "ticks": 528720,
            "time": 550.75,
            "velocity": 0.9291338582677166
          },
          {
            "duration": 0.22604166666667425,
            "durationTicks": 217,
            "midi": 67,
            "name": "G4",
            "ticks": 528960,
            "time": 551,
            "velocity": 0.8976377952755905
          },
          {
            "duration": 0.22604166666667425,
            "durationTicks": 217,
            "midi": 72,
            "name": "C5",
            "ticks": 529200,
            "time": 551.25,
            "velocity": 1
          },
          {
            "duration": 0.22604166666667425,
            "durationTicks": 217,
            "midi": 68,
            "name": "G#4",
            "ticks": 529440,
            "time": 551.5,
            "velocity": 0.8267716535433071
          },
          {
            "duration": 0.22604166666667425,
            "durationTicks": 217,
            "midi": 72,
            "name": "C5",
            "ticks": 529680,
            "time": 551.75,
            "velocity": 0.968503937007874
          },
          {
            "duration": 0.22604166666667425,
            "durationTicks": 217,
            "midi": 67,
            "name": "G4",
            "ticks": 529920,
            "time": 552,
            "velocity": 0.7874015748031497
          },
          {
            "duration": 0.22604166666667425,
            "durationTicks": 217,
            "midi": 72,
            "name": "C5",
            "ticks": 530160,
            "time": 552.25,
            "velocity": 1
          },
          {
            "duration": 0.22604166666667425,
            "durationTicks": 217,
            "midi": 68,
            "name": "G#4",
            "ticks": 530400,
            "time": 552.5,
            "velocity": 0.8188976377952756
          },
          {
            "duration": 0.22604166666667425,
            "durationTicks": 217,
            "midi": 72,
            "name": "C5",
            "ticks": 530640,
            "time": 552.75,
            "velocity": 1
          },
          {
            "duration": 0.22604166666667425,
            "durationTicks": 217,
            "midi": 71,
            "name": "B4",
            "ticks": 530880,
            "time": 553,
            "velocity": 0.8503937007874016
          },
          {
            "duration": 0.22604166666667425,
            "durationTicks": 217,
            "midi": 77,
            "name": "F5",
            "ticks": 531120,
            "time": 553.25,
            "velocity": 1
          },
          {
            "duration": 0.22604166666667425,
            "durationTicks": 217,
            "midi": 72,
            "name": "C5",
            "ticks": 531360,
            "time": 553.5,
            "velocity": 0.8031496062992126
          },
          {
            "duration": 0.22604166666667425,
            "durationTicks": 217,
            "midi": 77,
            "name": "F5",
            "ticks": 531600,
            "time": 553.75,
            "velocity": 1
          },
          {
            "duration": 0.22604166666667425,
            "durationTicks": 217,
            "midi": 71,
            "name": "B4",
            "ticks": 531840,
            "time": 554,
            "velocity": 0.7559055118110236
          },
          {
            "duration": 0.22604166666667425,
            "durationTicks": 217,
            "midi": 77,
            "name": "F5",
            "ticks": 532080,
            "time": 554.25,
            "velocity": 1
          },
          {
            "duration": 0.22604166666667425,
            "durationTicks": 217,
            "midi": 72,
            "name": "C5",
            "ticks": 532320,
            "time": 554.5,
            "velocity": 0.8188976377952756
          },
          {
            "duration": 0.22604166666667425,
            "durationTicks": 217,
            "midi": 77,
            "name": "F5",
            "ticks": 532560,
            "time": 554.75,
            "velocity": 0.9763779527559056
          },
          {
            "duration": 0.22604166666667425,
            "durationTicks": 217,
            "midi": 74,
            "name": "D5",
            "ticks": 532800,
            "time": 555,
            "velocity": 0.8188976377952756
          },
          {
            "duration": 0.22604166666667425,
            "durationTicks": 217,
            "midi": 79,
            "name": "G5",
            "ticks": 533040,
            "time": 555.25,
            "velocity": 1
          },
          {
            "duration": 0.5093749999999773,
            "durationTicks": 489,
            "midi": 75,
            "name": "D#5",
            "ticks": 533280,
            "time": 555.5,
            "velocity": 0.905511811023622
          },
          {
            "duration": 0.47500000000002274,
            "durationTicks": 456,
            "midi": 72,
            "name": "C5",
            "ticks": 533760,
            "time": 556,
            "velocity": 0.8188976377952756
          },
          {
            "duration": 0.22500000000002274,
            "durationTicks": 216,
            "midi": 74,
            "name": "D5",
            "ticks": 534240,
            "time": 556.5,
            "velocity": 0.9291338582677166
          },
          {
            "duration": 0.22500000000002274,
            "durationTicks": 216,
            "midi": 75,
            "name": "D#5",
            "ticks": 534720,
            "time": 557,
            "velocity": 0.968503937007874
          },
          {
            "duration": 0.5093749999999773,
            "durationTicks": 489,
            "midi": 77,
            "name": "F5",
            "ticks": 535200,
            "time": 557.5,
            "velocity": 1
          },
          {
            "duration": 0.47500000000002274,
            "durationTicks": 456,
            "midi": 74,
            "name": "D5",
            "ticks": 535680,
            "time": 558,
            "velocity": 0.937007874015748
          },
          {
            "duration": 0.22500000000002274,
            "durationTicks": 216,
            "midi": 75,
            "name": "D#5",
            "ticks": 536160,
            "time": 558.5,
            "velocity": 0.8661417322834646
          },
          {
            "duration": 0.22500000000002274,
            "durationTicks": 216,
            "midi": 77,
            "name": "F5",
            "ticks": 536640,
            "time": 559,
            "velocity": 0.9448818897637795
          },
          {
            "duration": 0.5093749999999773,
            "durationTicks": 489,
            "midi": 79,
            "name": "G5",
            "ticks": 537120,
            "time": 559.5,
            "velocity": 0.9606299212598425
          },
          {
            "duration": 0.47500000000002274,
            "durationTicks": 456,
            "midi": 75,
            "name": "D#5",
            "ticks": 537600,
            "time": 560,
            "velocity": 0.905511811023622
          },
          {
            "duration": 0.22500000000002274,
            "durationTicks": 216,
            "midi": 77,
            "name": "F5",
            "ticks": 538080,
            "time": 560.5,
            "velocity": 0.9291338582677166
          },
          {
            "duration": 0.22500000000002274,
            "durationTicks": 216,
            "midi": 79,
            "name": "G5",
            "ticks": 538560,
            "time": 561,
            "velocity": 0.9606299212598425
          },
          {
            "duration": 0.5093749999999773,
            "durationTicks": 489,
            "midi": 80,
            "name": "G#5",
            "ticks": 539040,
            "time": 561.5,
            "velocity": 0.9291338582677166
          },
          {
            "duration": 0.47500000000002274,
            "durationTicks": 456,
            "midi": 77,
            "name": "F5",
            "ticks": 539520,
            "time": 562,
            "velocity": 0.8740157480314961
          },
          {
            "duration": 0.22500000000002274,
            "durationTicks": 216,
            "midi": 79,
            "name": "G5",
            "ticks": 540000,
            "time": 562.5,
            "velocity": 0.9763779527559056
          },
          {
            "duration": 0.22500000000002274,
            "durationTicks": 216,
            "midi": 81,
            "name": "A5",
            "ticks": 540480,
            "time": 563,
            "velocity": 0.9291338582677166
          },
          {
            "duration": 0.5093749999999773,
            "durationTicks": 489,
            "midi": 83,
            "name": "B5",
            "ticks": 540960,
            "time": 563.5,
            "velocity": 0.937007874015748
          },
          {
            "duration": 0.47500000000002274,
            "durationTicks": 456,
            "midi": 79,
            "name": "G5",
            "ticks": 541440,
            "time": 564,
            "velocity": 0.8346456692913385
          },
          {
            "duration": 0.22500000000002274,
            "durationTicks": 216,
            "midi": 81,
            "name": "A5",
            "ticks": 541920,
            "time": 564.5,
            "velocity": 0.937007874015748
          },
          {
            "duration": 0.22500000000002274,
            "durationTicks": 216,
            "midi": 83,
            "name": "B5",
            "ticks": 542400,
            "time": 565,
            "velocity": 0.937007874015748
          },
          {
            "duration": 0.5093749999999773,
            "durationTicks": 489,
            "midi": 84,
            "name": "C6",
            "ticks": 542880,
            "time": 565.5,
            "velocity": 0.905511811023622
          },
          {
            "duration": 0.47500000000002274,
            "durationTicks": 456,
            "midi": 79,
            "name": "G5",
            "ticks": 543360,
            "time": 566,
            "velocity": 0.8031496062992126
          },
          {
            "duration": 0.22500000000002274,
            "durationTicks": 216,
            "midi": 80,
            "name": "G#5",
            "ticks": 543840,
            "time": 566.5,
            "velocity": 0.889763779527559
          },
          {
            "duration": 0.22500000000002274,
            "durationTicks": 216,
            "midi": 75,
            "name": "D#5",
            "ticks": 544320,
            "time": 567,
            "velocity": 0.7874015748031497
          },
          {
            "duration": 0.22500000000002274,
            "durationTicks": 216,
            "midi": 77,
            "name": "F5",
            "ticks": 544800,
            "time": 567.5,
            "velocity": 0.9291338582677166
          },
          {
            "duration": 0.22500000000002274,
            "durationTicks": 216,
            "midi": 74,
            "name": "D5",
            "ticks": 545280,
            "time": 568,
            "velocity": 0.8267716535433071
          },
          {
            "duration": 0.22500000000002274,
            "durationTicks": 216,
            "midi": 75,
            "name": "D#5",
            "ticks": 545760,
            "time": 568.5,
            "velocity": 0.8976377952755905
          },
          {
            "duration": 0.22500000000002274,
            "durationTicks": 216,
            "midi": 77,
            "name": "F5",
            "ticks": 546240,
            "time": 569,
            "velocity": 0.937007874015748
          },
          {
            "duration": 0.22500000000002274,
            "durationTicks": 216,
            "midi": 79,
            "name": "G5",
            "ticks": 546720,
            "time": 569.5,
            "velocity": 0.952755905511811
          },
          {
            "duration": 0.22500000000002274,
            "durationTicks": 216,
            "midi": 78,
            "name": "F#5",
            "ticks": 547200,
            "time": 570,
            "velocity": 0.8503937007874016
          },
          {
            "duration": 0.22500000000002274,
            "durationTicks": 216,
            "midi": 79,
            "name": "G5",
            "ticks": 547680,
            "time": 570.5,
            "velocity": 0.9212598425196851
          },
          {
            "duration": 0.22500000000002274,
            "durationTicks": 216,
            "midi": 67,
            "name": "G4",
            "ticks": 548160,
            "time": 571,
            "velocity": 0.6850393700787402
          },
          {
            "duration": 0.22500000000002274,
            "durationTicks": 216,
            "midi": 72,
            "name": "C5",
            "ticks": 548640,
            "time": 571.5,
            "velocity": 0.9763779527559056
          },
          {
            "duration": 0.22500000000002274,
            "durationTicks": 216,
            "midi": 63,
            "name": "D#4",
            "ticks": 551520,
            "time": 574.5,
            "velocity": 0.8188976377952756
          },
          {
            "duration": 0.22500000000002274,
            "durationTicks": 216,
            "midi": 65,
            "name": "F4",
            "ticks": 552000,
            "time": 575,
            "velocity": 0.9212598425196851
          },
          {
            "duration": 0.5093749999999773,
            "durationTicks": 489,
            "midi": 67,
            "name": "G4",
            "ticks": 552480,
            "time": 575.5,
            "velocity": 0.9448818897637795
          },
          {
            "duration": 0.47500000000002274,
            "durationTicks": 456,
            "midi": 63,
            "name": "D#4",
            "ticks": 552960,
            "time": 576,
            "velocity": 0.8582677165354331
          },
          {
            "duration": 0.22500000000002274,
            "durationTicks": 216,
            "midi": 71,
            "name": "B4",
            "ticks": 555360,
            "time": 578.5,
            "velocity": 1
          },
          {
            "duration": 0.22500000000002274,
            "durationTicks": 216,
            "midi": 72,
            "name": "C5",
            "ticks": 555840,
            "time": 579,
            "velocity": 0.9763779527559056
          },
          {
            "duration": 0.5093749999999773,
            "durationTicks": 489,
            "midi": 74,
            "name": "D5",
            "ticks": 556320,
            "time": 579.5,
            "velocity": 0.9291338582677166
          },
          {
            "duration": 0.47500000000002274,
            "durationTicks": 456,
            "midi": 71,
            "name": "B4",
            "ticks": 556800,
            "time": 580,
            "velocity": 0.84251968503937
          },
          {
            "duration": 0.22500000000002274,
            "durationTicks": 216,
            "midi": 71,
            "name": "B4",
            "ticks": 559200,
            "time": 582.5,
            "velocity": 0.8818897637795275
          },
          {
            "duration": 0.22500000000002274,
            "durationTicks": 216,
            "midi": 72,
            "name": "C5",
            "ticks": 559680,
            "time": 583,
            "velocity": 0.9212598425196851
          },
          {
            "duration": 0.5093749999999773,
            "durationTicks": 489,
            "midi": 74,
            "name": "D5",
            "ticks": 560160,
            "time": 583.5,
            "velocity": 0.952755905511811
          },
          {
            "duration": 0.47500000000002274,
            "durationTicks": 456,
            "midi": 71,
            "name": "B4",
            "ticks": 560640,
            "time": 584,
            "velocity": 0.8740157480314961
          },
          {
            "duration": 0.5093749999999773,
            "durationTicks": 489,
            "midi": 68,
            "name": "G#4",
            "ticks": 564960,
            "time": 588.5,
            "velocity": 0.9133858267716536
          },
          {
            "duration": 0.47500000000002274,
            "durationTicks": 456,
            "midi": 67,
            "name": "G4",
            "ticks": 565440,
            "time": 589,
            "velocity": 0.8740157480314961
          },
          {
            "duration": 0.5093749999999773,
            "durationTicks": 489,
            "midi": 80,
            "name": "G#5",
            "ticks": 566880,
            "time": 590.5,
            "velocity": 1
          },
          {
            "duration": 0.47500000000002274,
            "durationTicks": 456,
            "midi": 79,
            "name": "G5",
            "ticks": 567360,
            "time": 591,
            "velocity": 1
          },
          {
            "duration": 0.05833333333328028,
            "durationTicks": 56,
            "midi": 55,
            "name": "G3",
            "ticks": 567784,
            "time": 591.4416666666667,
            "velocity": 0.8976377952755905
          },
          {
            "duration": 0.05833333333328028,
            "durationTicks": 56,
            "midi": 63,
            "name": "D#4",
            "ticks": 567784,
            "time": 591.4416666666667,
            "velocity": 0.8976377952755905
          },
          {
            "duration": 0.451041666666697,
            "durationTicks": 433,
            "midi": 72,
            "name": "C5",
            "ticks": 567812,
            "time": 591.4708333333333,
            "velocity": 0.8976377952755905
          },
          {
            "duration": 0.451041666666697,
            "durationTicks": 433,
            "midi": 79,
            "name": "G5",
            "ticks": 567840,
            "time": 591.5,
            "velocity": 0.8976377952755905
          },
          {
            "duration": 0.05833333333328028,
            "durationTicks": 56,
            "midi": 55,
            "name": "G3",
            "ticks": 568744,
            "time": 592.4416666666667,
            "velocity": 0.7874015748031497
          },
          {
            "duration": 0.05833333333328028,
            "durationTicks": 56,
            "midi": 62,
            "name": "D4",
            "ticks": 568744,
            "time": 592.4416666666667,
            "velocity": 0.7874015748031497
          },
          {
            "duration": 0.451041666666697,
            "durationTicks": 433,
            "midi": 71,
            "name": "B4",
            "ticks": 568772,
            "time": 592.4708333333333,
            "velocity": 0.7874015748031497
          },
          {
            "duration": 0.451041666666697,
            "durationTicks": 433,
            "midi": 79,
            "name": "G5",
            "ticks": 568800,
            "time": 592.5,
            "velocity": 0.7874015748031497
          },
          {
            "duration": 0.5093749999999773,
            "durationTicks": 489,
            "midi": 75,
            "name": "D#5",
            "ticks": 569760,
            "time": 593.5,
            "velocity": 0.8110236220472441
          },
          {
            "duration": 0.5093749999999773,
            "durationTicks": 489,
            "midi": 74,
            "name": "D5",
            "ticks": 570240,
            "time": 594,
            "velocity": 0.7401574803149606
          },
          {
            "duration": 0.5093749999999773,
            "durationTicks": 489,
            "midi": 72,
            "name": "C5",
            "ticks": 570720,
            "time": 594.5,
            "velocity": 0.8346456692913385
          },
          {
            "duration": 0.5093749999999773,
            "durationTicks": 489,
            "midi": 70,
            "name": "A#4",
            "ticks": 571200,
            "time": 595,
            "velocity": 0.7952755905511811
          },
          {
            "duration": 0.5093749999999773,
            "durationTicks": 489,
            "midi": 68,
            "name": "G#4",
            "ticks": 571680,
            "time": 595.5,
            "velocity": 0.8661417322834646
          },
          {
            "duration": 0.47500000000002274,
            "durationTicks": 456,
            "midi": 67,
            "name": "G4",
            "ticks": 572160,
            "time": 596,
            "velocity": 0.84251968503937
          },
          {
            "duration": 0.5093749999999773,
            "durationTicks": 489,
            "midi": 68,
            "name": "G#4",
            "ticks": 573600,
            "time": 597.5,
            "velocity": 0.9133858267716536
          },
          {
            "duration": 0.47500000000002274,
            "durationTicks": 456,
            "midi": 67,
            "name": "G4",
            "ticks": 574080,
            "time": 598,
            "velocity": 0.9133858267716536
          },
          {
            "duration": 0.5093749999999773,
            "durationTicks": 489,
            "midi": 80,
            "name": "G#5",
            "ticks": 574560,
            "time": 598.5,
            "velocity": 1
          },
          {
            "duration": 0.47500000000002274,
            "durationTicks": 456,
            "midi": 79,
            "name": "G5",
            "ticks": 575040,
            "time": 599,
            "velocity": 1
          },
          {
            "duration": 0.05833333333328028,
            "durationTicks": 56,
            "midi": 55,
            "name": "G3",
            "ticks": 575464,
            "time": 599.4416666666667,
            "velocity": 0.905511811023622
          },
          {
            "duration": 0.05833333333328028,
            "durationTicks": 56,
            "midi": 63,
            "name": "D#4",
            "ticks": 575464,
            "time": 599.4416666666667,
            "velocity": 0.905511811023622
          },
          {
            "duration": 0.451041666666697,
            "durationTicks": 433,
            "midi": 72,
            "name": "C5",
            "ticks": 575492,
            "time": 599.4708333333333,
            "velocity": 0.905511811023622
          },
          {
            "duration": 0.451041666666697,
            "durationTicks": 433,
            "midi": 79,
            "name": "G5",
            "ticks": 575520,
            "time": 599.5,
            "velocity": 0.905511811023622
          },
          {
            "duration": 0.05833333333328028,
            "durationTicks": 56,
            "midi": 55,
            "name": "G3",
            "ticks": 576424,
            "time": 600.4416666666667,
            "velocity": 0.8110236220472441
          },
          {
            "duration": 0.05833333333328028,
            "durationTicks": 56,
            "midi": 62,
            "name": "D4",
            "ticks": 576424,
            "time": 600.4416666666667,
            "velocity": 0.8110236220472441
          },
          {
            "duration": 0.451041666666697,
            "durationTicks": 433,
            "midi": 71,
            "name": "B4",
            "ticks": 576452,
            "time": 600.4708333333333,
            "velocity": 0.8110236220472441
          },
          {
            "duration": 0.451041666666697,
            "durationTicks": 433,
            "midi": 79,
            "name": "G5",
            "ticks": 576480,
            "time": 600.5,
            "velocity": 0.8110236220472441
          },
          {
            "duration": 0.22604166666656056,
            "durationTicks": 217,
            "midi": 55,
            "name": "G3",
            "ticks": 577384,
            "time": 601.4416666666667,
            "velocity": 0.7559055118110236
          },
          {
            "duration": 0.22604166666667425,
            "durationTicks": 217,
            "midi": 63,
            "name": "D#4",
            "ticks": 577440,
            "time": 601.5,
            "velocity": 0.7559055118110236
          },
          {
            "duration": 0.22604166666667425,
            "durationTicks": 217,
            "midi": 72,
            "name": "C5",
            "ticks": 577440,
            "time": 601.5,
            "velocity": 0.7559055118110236
          },
          {
            "duration": 0.22604166666667425,
            "durationTicks": 217,
            "midi": 79,
            "name": "G5",
            "ticks": 577680,
            "time": 601.75,
            "velocity": 1
          },
          {
            "duration": 0.22604166666667425,
            "durationTicks": 217,
            "midi": 79,
            "name": "G5",
            "ticks": 577920,
            "time": 602,
            "velocity": 0.9133858267716536
          },
          {
            "duration": 0.22604166666667425,
            "durationTicks": 217,
            "midi": 79,
            "name": "G5",
            "ticks": 578160,
            "time": 602.25,
            "velocity": 0.889763779527559
          },
          {
            "duration": 4.226041666666674,
            "durationTicks": 4057,
            "midi": 79,
            "name": "G5",
            "ticks": 578400,
            "time": 602.5,
            "velocity": 0.8661417322834646
          },
          {
            "duration": 0.22604166666667425,
            "durationTicks": 217,
            "midi": 79,
            "name": "G5",
            "ticks": 582480,
            "time": 606.75,
            "velocity": 0.8976377952755905
          },
          {
            "duration": 0.22604166666667425,
            "durationTicks": 217,
            "midi": 79,
            "name": "G5",
            "ticks": 582720,
            "time": 607,
            "velocity": 0.8818897637795275
          },
          {
            "duration": 0.22604166666667425,
            "durationTicks": 217,
            "midi": 79,
            "name": "G5",
            "ticks": 582960,
            "time": 607.25,
            "velocity": 0.8740157480314961
          },
          {
            "duration": 0.22604166666667425,
            "durationTicks": 217,
            "midi": 72,
            "name": "C5",
            "ticks": 583200,
            "time": 607.5,
            "velocity": 0.6850393700787402
          },
          {
            "duration": 0.22604166666667425,
            "durationTicks": 217,
            "midi": 79,
            "name": "G5",
            "ticks": 583440,
            "time": 607.75,
            "velocity": 1
          },
          {
            "duration": 0.22604166666667425,
            "durationTicks": 217,
            "midi": 79,
            "name": "G5",
            "ticks": 583680,
            "time": 608,
            "velocity": 0.9291338582677166
          },
          {
            "duration": 0.22604166666667425,
            "durationTicks": 217,
            "midi": 79,
            "name": "G5",
            "ticks": 583920,
            "time": 608.25,
            "velocity": 0.9291338582677166
          },
          {
            "duration": 0.22604166666667425,
            "durationTicks": 217,
            "midi": 79,
            "name": "G5",
            "ticks": 584160,
            "time": 608.5,
            "velocity": 0.8976377952755905
          },
          {
            "duration": 0.22604166666667425,
            "durationTicks": 217,
            "midi": 79,
            "name": "G5",
            "ticks": 584400,
            "time": 608.75,
            "velocity": 0.9133858267716536
          },
          {
            "duration": 0.22604166666667425,
            "durationTicks": 217,
            "midi": 79,
            "name": "G5",
            "ticks": 584640,
            "time": 609,
            "velocity": 0.9212598425196851
          },
          {
            "duration": 0.22604166666667425,
            "durationTicks": 217,
            "midi": 79,
            "name": "G5",
            "ticks": 584880,
            "time": 609.25,
            "velocity": 0.8661417322834646
          },
          {
            "duration": 0.22604166666667425,
            "durationTicks": 217,
            "midi": 79,
            "name": "G5",
            "ticks": 585120,
            "time": 609.5,
            "velocity": 0.8818897637795275
          },
          {
            "duration": 0.22604166666667425,
            "durationTicks": 217,
            "midi": 79,
            "name": "G5",
            "ticks": 585360,
            "time": 609.75,
            "velocity": 0.8818897637795275
          },
          {
            "duration": 0.22604166666667425,
            "durationTicks": 217,
            "midi": 79,
            "name": "G5",
            "ticks": 585600,
            "time": 610,
            "velocity": 0.8503937007874016
          },
          {
            "duration": 0.22604166666667425,
            "durationTicks": 217,
            "midi": 79,
            "name": "G5",
            "ticks": 585840,
            "time": 610.25,
            "velocity": 0.8818897637795275
          },
          {
            "duration": 0.22604166666667425,
            "durationTicks": 217,
            "midi": 79,
            "name": "G5",
            "ticks": 586080,
            "time": 610.5,
            "velocity": 0.8661417322834646
          },
          {
            "duration": 0.22604166666667425,
            "durationTicks": 217,
            "midi": 79,
            "name": "G5",
            "ticks": 586320,
            "time": 610.75,
            "velocity": 0.9212598425196851
          },
          {
            "duration": 0.22604166666667425,
            "durationTicks": 217,
            "midi": 79,
            "name": "G5",
            "ticks": 586560,
            "time": 611,
            "velocity": 0.9212598425196851
          },
          {
            "duration": 0.22604166666667425,
            "durationTicks": 217,
            "midi": 79,
            "name": "G5",
            "ticks": 586800,
            "time": 611.25,
            "velocity": 0.8661417322834646
          },
          {
            "duration": 1.5,
            "durationTicks": 1440,
            "midi": 75,
            "name": "D#5",
            "ticks": 587040,
            "time": 611.5,
            "velocity": 0.7795275590551181
          },
          {
            "duration": 0.22604166666667425,
            "durationTicks": 217,
            "midi": 77,
            "name": "F5",
            "ticks": 588720,
            "time": 613.25,
            "velocity": 0.7874015748031497
          },
          {
            "duration": 0.22604166666667425,
            "durationTicks": 217,
            "midi": 77,
            "name": "F5",
            "ticks": 588960,
            "time": 613.5,
            "velocity": 0.8661417322834646
          },
          {
            "duration": 0.22604166666667425,
            "durationTicks": 217,
            "midi": 77,
            "name": "F5",
            "ticks": 589200,
            "time": 613.75,
            "velocity": 0.8976377952755905
          },
          {
            "duration": 2.5,
            "durationTicks": 2400,
            "midi": 74,
            "name": "D5",
            "ticks": 589440,
            "time": 614,
            "velocity": 0.7874015748031497
          },
          {
            "duration": 0.22604166666667425,
            "durationTicks": 217,
            "midi": 68,
            "name": "G#4",
            "ticks": 593040,
            "time": 617.75,
            "velocity": 0.3228346456692913
          },
          {
            "duration": 0.22604166666667425,
            "durationTicks": 217,
            "midi": 68,
            "name": "G#4",
            "ticks": 593280,
            "time": 618,
            "velocity": 0.4015748031496063
          },
          {
            "duration": 0.22604166666667425,
            "durationTicks": 217,
            "midi": 68,
            "name": "G#4",
            "ticks": 593520,
            "time": 618.25,
            "velocity": 0.3779527559055118
          },
          {
            "duration": 0.22604166666667425,
            "durationTicks": 217,
            "midi": 67,
            "name": "G4",
            "ticks": 593760,
            "time": 618.5,
            "velocity": 0.3937007874015748
          },
          {
            "duration": 0.22604166666667425,
            "durationTicks": 217,
            "midi": 75,
            "name": "D#5",
            "ticks": 594000,
            "time": 618.75,
            "velocity": 0.4645669291338583
          },
          {
            "duration": 0.22604166666667425,
            "durationTicks": 217,
            "midi": 75,
            "name": "D#5",
            "ticks": 594240,
            "time": 619,
            "velocity": 0.4094488188976378
          },
          {
            "duration": 0.22604166666667425,
            "durationTicks": 217,
            "midi": 75,
            "name": "D#5",
            "ticks": 594480,
            "time": 619.25,
            "velocity": 0.4015748031496063
          },
          {
            "duration": 1.451041666666697,
            "durationTicks": 1393,
            "midi": 72,
            "name": "C5",
            "ticks": 594720,
            "time": 619.5,
            "velocity": 0.36220472440944884
          },
          {
            "duration": 0.22604166666667425,
            "durationTicks": 217,
            "midi": 68,
            "name": "G#4",
            "ticks": 596880,
            "time": 621.75,
            "velocity": 0.36220472440944884
          },
          {
            "duration": 0.22604166666667425,
            "durationTicks": 217,
            "midi": 68,
            "name": "G#4",
            "ticks": 597120,
            "time": 622,
            "velocity": 0.4330708661417323
          },
          {
            "duration": 0.22604166666667425,
            "durationTicks": 217,
            "midi": 68,
            "name": "G#4",
            "ticks": 597360,
            "time": 622.25,
            "velocity": 0.3779527559055118
          },
          {
            "duration": 0.22604166666667425,
            "durationTicks": 217,
            "midi": 67,
            "name": "G4",
            "ticks": 597600,
            "time": 622.5,
            "velocity": 0.3543307086614173
          },
          {
            "duration": 0.22604166666667425,
            "durationTicks": 217,
            "midi": 75,
            "name": "D#5",
            "ticks": 597840,
            "time": 622.75,
            "velocity": 0.48031496062992124
          },
          {
            "duration": 0.22604166666667425,
            "durationTicks": 217,
            "midi": 75,
            "name": "D#5",
            "ticks": 598080,
            "time": 623,
            "velocity": 0.4330708661417323
          },
          {
            "duration": 0.22604166666667425,
            "durationTicks": 217,
            "midi": 75,
            "name": "D#5",
            "ticks": 598320,
            "time": 623.25,
            "velocity": 0.41732283464566927
          },
          {
            "duration": 1.2260416666666742,
            "durationTicks": 1177,
            "midi": 72,
            "name": "C5",
            "ticks": 598560,
            "time": 623.5,
            "velocity": 0.36220472440944884
          },
          {
            "duration": 0.22604166666667425,
            "durationTicks": 217,
            "midi": 71,
            "name": "B4",
            "ticks": 599760,
            "time": 624.75,
            "velocity": 1
          },
          {
            "duration": 0.22604166666667425,
            "durationTicks": 217,
            "midi": 79,
            "name": "G5",
            "ticks": 599760,
            "time": 624.75,
            "velocity": 1
          },
          {
            "duration": 0.22604166666667425,
            "durationTicks": 217,
            "midi": 71,
            "name": "B4",
            "ticks": 600000,
            "time": 625,
            "velocity": 0.9212598425196851
          },
          {
            "duration": 0.22604166666667425,
            "durationTicks": 217,
            "midi": 79,
            "name": "G5",
            "ticks": 600000,
            "time": 625,
            "velocity": 0.9212598425196851
          },
          {
            "duration": 0.22604166666667425,
            "durationTicks": 217,
            "midi": 71,
            "name": "B4",
            "ticks": 600240,
            "time": 625.25,
            "velocity": 0.889763779527559
          },
          {
            "duration": 0.22604166666667425,
            "durationTicks": 217,
            "midi": 79,
            "name": "G5",
            "ticks": 600240,
            "time": 625.25,
            "velocity": 0.889763779527559
          },
          {
            "duration": 0.451041666666697,
            "durationTicks": 433,
            "midi": 72,
            "name": "C5",
            "ticks": 600480,
            "time": 625.5,
            "velocity": 0.889763779527559
          },
          {
            "duration": 0.451041666666697,
            "durationTicks": 433,
            "midi": 79,
            "name": "G5",
            "ticks": 600480,
            "time": 625.5,
            "velocity": 0.889763779527559
          },
          {
            "duration": 0.22604166666667425,
            "durationTicks": 217,
            "midi": 71,
            "name": "B4",
            "ticks": 601680,
            "time": 626.75,
            "velocity": 0.7795275590551181
          },
          {
            "duration": 0.22604166666667425,
            "durationTicks": 217,
            "midi": 79,
            "name": "G5",
            "ticks": 601680,
            "time": 626.75,
            "velocity": 0.7795275590551181
          },
          {
            "duration": 0.22604166666667425,
            "durationTicks": 217,
            "midi": 71,
            "name": "B4",
            "ticks": 601920,
            "time": 627,
            "velocity": 0.8582677165354331
          },
          {
            "duration": 0.22604166666667425,
            "durationTicks": 217,
            "midi": 79,
            "name": "G5",
            "ticks": 601920,
            "time": 627,
            "velocity": 0.8582677165354331
          },
          {
            "duration": 0.22604166666667425,
            "durationTicks": 217,
            "midi": 71,
            "name": "B4",
            "ticks": 602160,
            "time": 627.25,
            "velocity": 0.8740157480314961
          },
          {
            "duration": 0.22604166666667425,
            "durationTicks": 217,
            "midi": 79,
            "name": "G5",
            "ticks": 602160,
            "time": 627.25,
            "velocity": 0.8740157480314961
          },
          {
            "duration": 0.451041666666697,
            "durationTicks": 433,
            "midi": 72,
            "name": "C5",
            "ticks": 602400,
            "time": 627.5,
            "velocity": 0.889763779527559
          },
          {
            "duration": 0.451041666666697,
            "durationTicks": 433,
            "midi": 79,
            "name": "G5",
            "ticks": 602400,
            "time": 627.5,
            "velocity": 0.889763779527559
          },
          {
            "duration": 0.22604166666667425,
            "durationTicks": 217,
            "midi": 71,
            "name": "B4",
            "ticks": 603600,
            "time": 628.75,
            "velocity": 0.8188976377952756
          },
          {
            "duration": 0.22604166666667425,
            "durationTicks": 217,
            "midi": 79,
            "name": "G5",
            "ticks": 603600,
            "time": 628.75,
            "velocity": 0.8188976377952756
          },
          {
            "duration": 0.22604166666667425,
            "durationTicks": 217,
            "midi": 71,
            "name": "B4",
            "ticks": 603840,
            "time": 629,
            "velocity": 0.8818897637795275
          },
          {
            "duration": 0.22604166666667425,
            "durationTicks": 217,
            "midi": 79,
            "name": "G5",
            "ticks": 603840,
            "time": 629,
            "velocity": 0.8818897637795275
          },
          {
            "duration": 0.22604166666667425,
            "durationTicks": 217,
            "midi": 71,
            "name": "B4",
            "ticks": 604080,
            "time": 629.25,
            "velocity": 0.8818897637795275
          },
          {
            "duration": 0.22604166666667425,
            "durationTicks": 217,
            "midi": 79,
            "name": "G5",
            "ticks": 604080,
            "time": 629.25,
            "velocity": 0.8818897637795275
          },
          {
            "duration": 0.451041666666697,
            "durationTicks": 433,
            "midi": 72,
            "name": "C5",
            "ticks": 604320,
            "time": 629.5,
            "velocity": 0.889763779527559
          },
          {
            "duration": 0.451041666666697,
            "durationTicks": 433,
            "midi": 79,
            "name": "G5",
            "ticks": 604320,
            "time": 629.5,
            "velocity": 0.889763779527559
          },
          {
            "duration": 0.05833333333328028,
            "durationTicks": 56,
            "midi": 62,
            "name": "D4",
            "ticks": 604744,
            "time": 629.9416666666667,
            "velocity": 0.9133858267716536
          },
          {
            "duration": 0.451041666666697,
            "durationTicks": 433,
            "midi": 71,
            "name": "B4",
            "ticks": 604772,
            "time": 629.9708333333333,
            "velocity": 0.9133858267716536
          },
          {
            "duration": 0.451041666666697,
            "durationTicks": 433,
            "midi": 79,
            "name": "G5",
            "ticks": 604800,
            "time": 630,
            "velocity": 0.9133858267716536
          },
          {
            "duration": 0.05833333333328028,
            "durationTicks": 56,
            "midi": 63,
            "name": "D#4",
            "ticks": 605224,
            "time": 630.4416666666667,
            "velocity": 0.889763779527559
          },
          {
            "duration": 0.451041666666697,
            "durationTicks": 433,
            "midi": 72,
            "name": "C5",
            "ticks": 605252,
            "time": 630.4708333333333,
            "velocity": 0.889763779527559
          },
          {
            "duration": 0.451041666666697,
            "durationTicks": 433,
            "midi": 79,
            "name": "G5",
            "ticks": 605280,
            "time": 630.5,
            "velocity": 0.889763779527559
          },
          {
            "duration": 0.05833333333328028,
            "durationTicks": 56,
            "midi": 62,
            "name": "D4",
            "ticks": 605704,
            "time": 630.9416666666667,
            "velocity": 0.9133858267716536
          },
          {
            "duration": 0.451041666666697,
            "durationTicks": 433,
            "midi": 71,
            "name": "B4",
            "ticks": 605732,
            "time": 630.9708333333333,
            "velocity": 0.9133858267716536
          },
          {
            "duration": 0.451041666666697,
            "durationTicks": 433,
            "midi": 79,
            "name": "G5",
            "ticks": 605760,
            "time": 631,
            "velocity": 0.9133858267716536
          },
          {
            "duration": 0.05833333333328028,
            "durationTicks": 56,
            "midi": 63,
            "name": "D#4",
            "ticks": 606184,
            "time": 631.4416666666667,
            "velocity": 0.8661417322834646
          },
          {
            "duration": 0.451041666666697,
            "durationTicks": 433,
            "midi": 72,
            "name": "C5",
            "ticks": 606212,
            "time": 631.4708333333333,
            "velocity": 0.8661417322834646
          },
          {
            "duration": 0.451041666666697,
            "durationTicks": 433,
            "midi": 79,
            "name": "G5",
            "ticks": 606240,
            "time": 631.5,
            "velocity": 0.8661417322834646
          },
          {
            "duration": 0.05833333333328028,
            "durationTicks": 56,
            "midi": 67,
            "name": "G4",
            "ticks": 606664,
            "time": 631.9416666666667,
            "velocity": 0.9606299212598425
          },
          {
            "duration": 0.451041666666697,
            "durationTicks": 433,
            "midi": 74,
            "name": "D5",
            "ticks": 606692,
            "time": 631.9708333333333,
            "velocity": 0.9606299212598425
          },
          {
            "duration": 0.451041666666697,
            "durationTicks": 433,
            "midi": 83,
            "name": "B5",
            "ticks": 606720,
            "time": 632,
            "velocity": 0.9606299212598425
          },
          {
            "duration": 0.05833333333328028,
            "durationTicks": 56,
            "midi": 67,
            "name": "G4",
            "ticks": 607144,
            "time": 632.4416666666667,
            "velocity": 0.984251968503937
          },
          {
            "duration": 0.451041666666697,
            "durationTicks": 433,
            "midi": 75,
            "name": "D#5",
            "ticks": 607172,
            "time": 632.4708333333333,
            "velocity": 0.984251968503937
          },
          {
            "duration": 0.451041666666697,
            "durationTicks": 433,
            "midi": 84,
            "name": "C6",
            "ticks": 607200,
            "time": 632.5,
            "velocity": 0.984251968503937
          },
          {
            "duration": 0.05833333333328028,
            "durationTicks": 56,
            "midi": 67,
            "name": "G4",
            "ticks": 607624,
            "time": 632.9416666666667,
            "velocity": 0.8818897637795275
          },
          {
            "duration": 0.451041666666697,
            "durationTicks": 433,
            "midi": 74,
            "name": "D5",
            "ticks": 607652,
            "time": 632.9708333333333,
            "velocity": 0.8818897637795275
          },
          {
            "duration": 0.451041666666697,
            "durationTicks": 433,
            "midi": 83,
            "name": "B5",
            "ticks": 607680,
            "time": 633,
            "velocity": 0.8818897637795275
          },
          {
            "duration": 0.05833333333328028,
            "durationTicks": 56,
            "midi": 67,
            "name": "G4",
            "ticks": 608104,
            "time": 633.4416666666667,
            "velocity": 0.9133858267716536
          },
          {
            "duration": 0.451041666666697,
            "durationTicks": 433,
            "midi": 75,
            "name": "D#5",
            "ticks": 608132,
            "time": 633.4708333333333,
            "velocity": 0.9133858267716536
          },
          {
            "duration": 0.451041666666697,
            "durationTicks": 433,
            "midi": 84,
            "name": "C6",
            "ticks": 608160,
            "time": 633.5,
            "velocity": 0.9133858267716536
          },
          {
            "duration": 0.05833333333328028,
            "durationTicks": 56,
            "midi": 55,
            "name": "G3",
            "ticks": 609064,
            "time": 634.4416666666667,
            "velocity": 0.7795275590551181
          },
          {
            "duration": 0.451041666666697,
            "durationTicks": 433,
            "midi": 62,
            "name": "D4",
            "ticks": 609092,
            "time": 634.4708333333333,
            "velocity": 0.7795275590551181
          },
          {
            "duration": 0.451041666666697,
            "durationTicks": 433,
            "midi": 71,
            "name": "B4",
            "ticks": 609120,
            "time": 634.5,
            "velocity": 0.7795275590551181
          },
          {
            "duration": 0.05833333333328028,
            "durationTicks": 56,
            "midi": 55,
            "name": "G3",
            "ticks": 610024,
            "time": 635.4416666666667,
            "velocity": 0.8267716535433071
          },
          {
            "duration": 0.451041666666697,
            "durationTicks": 433,
            "midi": 63,
            "name": "D#4",
            "ticks": 610052,
            "time": 635.4708333333333,
            "velocity": 0.8267716535433071
          },
          {
            "duration": 0.451041666666697,
            "durationTicks": 433,
            "midi": 72,
            "name": "C5",
            "ticks": 610080,
            "time": 635.5,
            "velocity": 0.8267716535433071
          }
        ]
      },
      {
        "channel": 7,
        "controlChanges": {
          "7": [
            {
              "number": 7,
              "ticks": 0,
              "time": 0,
              "value": 0.5748031496062992
            }
          ],
          "10": [
            {
              "number": 10,
              "ticks": 0,
              "time": 0,
              "value": 0.3464566929133858
            }
          ],
          "64": [
            {
              "number": 64,
              "ticks": 0,
              "time": 0,
              "value": 0
            }
          ],
          "121": [
            {
              "number": 121,
              "ticks": 0,
              "time": 0,
              "value": 0
            }
          ]
        },
        "pitchBends": [],
        "instrument": {
          "family": "ensemble",
          "number": 48,
          "name": "string ensemble 1"
        },
        "name": "",
        "notes": [
          {
            "duration": 0.22604166666666664,
            "durationTicks": 217,
            "midi": 67,
            "name": "G4",
            "ticks": 240,
            "time": 0.25,
            "velocity": 0.7952755905511811
          },
          {
            "duration": 0.2260416666666667,
            "durationTicks": 217,
            "midi": 67,
            "name": "G4",
            "ticks": 480,
            "time": 0.5,
            "velocity": 0.8346456692913385
          },
          {
            "duration": 0.2260416666666667,
            "durationTicks": 217,
            "midi": 67,
            "name": "G4",
            "ticks": 720,
            "time": 0.75,
            "velocity": 0.9133858267716536
          },
          {
            "duration": 1.5,
            "durationTicks": 1440,
            "midi": 63,
            "name": "D#4",
            "ticks": 960,
            "time": 1,
            "velocity": 0.7952755905511811
          },
          {
            "duration": 0.2260416666666667,
            "durationTicks": 217,
            "midi": 65,
            "name": "F4",
            "ticks": 2640,
            "time": 2.75,
            "velocity": 0.8110236220472441
          },
          {
            "duration": 0.2260416666666667,
            "durationTicks": 217,
            "midi": 65,
            "name": "F4",
            "ticks": 2880,
            "time": 3,
            "velocity": 0.8818897637795275
          },
          {
            "duration": 0.2260416666666667,
            "durationTicks": 217,
            "midi": 65,
            "name": "F4",
            "ticks": 3120,
            "time": 3.25,
            "velocity": 0.8582677165354331
          },
          {
            "duration": 2.5,
            "durationTicks": 2400,
            "midi": 62,
            "name": "D4",
            "ticks": 3360,
            "time": 3.5,
            "velocity": 0.7795275590551181
          },
          {
            "duration": 0.22604166666666625,
            "durationTicks": 217,
            "midi": 67,
            "name": "G4",
            "ticks": 6000,
            "time": 6.25,
            "velocity": 0.41732283464566927
          },
          {
            "duration": 0.22604166666666625,
            "durationTicks": 217,
            "midi": 67,
            "name": "G4",
            "ticks": 6240,
            "time": 6.5,
            "velocity": 0.49606299212598426
          },
          {
            "duration": 0.22604166666666625,
            "durationTicks": 217,
            "midi": 67,
            "name": "G4",
            "ticks": 6480,
            "time": 6.75,
            "velocity": 0.4881889763779528
          },
          {
            "duration": 3.226041666666667,
            "durationTicks": 3097,
            "midi": 63,
            "name": "D#4",
            "ticks": 6720,
            "time": 7,
            "velocity": 0.4094488188976378
          },
          {
            "duration": 0.22604166666666714,
            "durationTicks": 217,
            "midi": 67,
            "name": "G4",
            "ticks": 9840,
            "time": 10.25,
            "velocity": 0.5118110236220472
          },
          {
            "duration": 0.22604166666666714,
            "durationTicks": 217,
            "midi": 67,
            "name": "G4",
            "ticks": 10080,
            "time": 10.5,
            "velocity": 0.4645669291338583
          },
          {
            "duration": 0.22604166666666714,
            "durationTicks": 217,
            "midi": 67,
            "name": "G4",
            "ticks": 10320,
            "time": 10.75,
            "velocity": 0.48031496062992124
          },
          {
            "duration": 1.9000000000000004,
            "durationTicks": 1824,
            "midi": 62,
            "name": "D4",
            "ticks": 10560,
            "time": 11,
            "velocity": 0.41732283464566927
          },
          {
            "duration": 2.226041666666667,
            "durationTicks": 2137,
            "midi": 67,
            "name": "G4",
            "ticks": 12480,
            "time": 13,
            "velocity": 0.5354330708661418
          },
          {
            "duration": 0.22604166666666714,
            "durationTicks": 217,
            "midi": 63,
            "name": "D#4",
            "ticks": 14640,
            "time": 15.25,
            "velocity": 0.44881889763779526
          },
          {
            "duration": 0.22604166666666714,
            "durationTicks": 217,
            "midi": 63,
            "name": "D#4",
            "ticks": 14880,
            "time": 15.5,
            "velocity": 0.4881889763779528
          },
          {
            "duration": 0.22604166666666714,
            "durationTicks": 217,
            "midi": 65,
            "name": "F4",
            "ticks": 15120,
            "time": 15.75,
            "velocity": 0.5118110236220472
          },
          {
            "duration": 1.2260416666666671,
            "durationTicks": 1177,
            "midi": 67,
            "name": "G4",
            "ticks": 15360,
            "time": 16,
            "velocity": 0.4881889763779528
          },
          {
            "duration": 0.22604166666666714,
            "durationTicks": 217,
            "midi": 63,
            "name": "D#4",
            "ticks": 16560,
            "time": 17.25,
            "velocity": 0.3937007874015748
          },
          {
            "duration": 0.22604166666666714,
            "durationTicks": 217,
            "midi": 63,
            "name": "D#4",
            "ticks": 16800,
            "time": 17.5,
            "velocity": 0.44881889763779526
          },
          {
            "duration": 0.22604166666666714,
            "durationTicks": 217,
            "midi": 65,
            "name": "F4",
            "ticks": 17040,
            "time": 17.75,
            "velocity": 0.5433070866141733
          },
          {
            "duration": 0.22604166666666714,
            "durationTicks": 217,
            "midi": 67,
            "name": "G4",
            "ticks": 17280,
            "time": 18,
            "velocity": 0.49606299212598426
          },
          {
            "duration": 0.22604166666666714,
            "durationTicks": 217,
            "midi": 74,
            "name": "D5",
            "ticks": 17520,
            "time": 18.25,
            "velocity": 0.5748031496062992
          },
          {
            "duration": 0.22604166666666714,
            "durationTicks": 217,
            "midi": 74,
            "name": "D5",
            "ticks": 17760,
            "time": 18.5,
            "velocity": 0.5669291338582677
          },
          {
            "duration": 0.22604166666666714,
            "durationTicks": 217,
            "midi": 67,
            "name": "G4",
            "ticks": 18000,
            "time": 18.75,
            "velocity": 0.5275590551181102
          },
          {
            "duration": 0.05833333333333357,
            "durationTicks": 56,
            "midi": 60,
            "name": "C4",
            "ticks": 18184,
            "time": 18.941666666666666,
            "velocity": 0.905511811023622
          },
          {
            "duration": 0.451041666666665,
            "durationTicks": 433,
            "midi": 67,
            "name": "G4",
            "ticks": 18212,
            "time": 18.970833333333335,
            "velocity": 0.905511811023622
          },
          {
            "duration": 0.451041666666665,
            "durationTicks": 433,
            "midi": 75,
            "name": "D#5",
            "ticks": 18240,
            "time": 19,
            "velocity": 0.905511811023622
          },
          {
            "duration": 0.05833333333333357,
            "durationTicks": 56,
            "midi": 56,
            "name": "G#3",
            "ticks": 19144,
            "time": 19.941666666666666,
            "velocity": 0.7165354330708661
          },
          {
            "duration": 0.451041666666665,
            "durationTicks": 433,
            "midi": 66,
            "name": "F#4",
            "ticks": 19172,
            "time": 19.970833333333335,
            "velocity": 0.7165354330708661
          },
          {
            "duration": 0.451041666666665,
            "durationTicks": 433,
            "midi": 72,
            "name": "C5",
            "ticks": 19200,
            "time": 20,
            "velocity": 0.7165354330708661
          },
          {
            "duration": 0.05833333333333357,
            "durationTicks": 56,
            "midi": 55,
            "name": "G3",
            "ticks": 20104,
            "time": 20.941666666666666,
            "velocity": 0.6771653543307087
          },
          {
            "duration": 0.451041666666665,
            "durationTicks": 433,
            "midi": 62,
            "name": "D4",
            "ticks": 20132,
            "time": 20.970833333333335,
            "velocity": 0.6771653543307087
          },
          {
            "duration": 0.451041666666665,
            "durationTicks": 433,
            "midi": 71,
            "name": "B4",
            "ticks": 20160,
            "time": 21,
            "velocity": 0.6771653543307087
          },
          {
            "duration": 0.22604166666666714,
            "durationTicks": 217,
            "midi": 68,
            "name": "G#4",
            "ticks": 21600,
            "time": 22.5,
            "velocity": 0.6850393700787402
          },
          {
            "duration": 0.22604166666666714,
            "durationTicks": 217,
            "midi": 68,
            "name": "G#4",
            "ticks": 21840,
            "time": 22.75,
            "velocity": 0.7165354330708661
          },
          {
            "duration": 0.22604166666666714,
            "durationTicks": 217,
            "midi": 68,
            "name": "G#4",
            "ticks": 22080,
            "time": 23,
            "velocity": 0.7874015748031497
          },
          {
            "duration": 2.5,
            "durationTicks": 2400,
            "midi": 65,
            "name": "F4",
            "ticks": 22320,
            "time": 23.25,
            "velocity": 0.7165354330708661
          },
          {
            "duration": 0.22604166666666714,
            "durationTicks": 217,
            "midi": 62,
            "name": "D4",
            "ticks": 25920,
            "time": 27,
            "velocity": 0.4566929133858268
          },
          {
            "duration": 0.22604166666666714,
            "durationTicks": 217,
            "midi": 62,
            "name": "D4",
            "ticks": 26160,
            "time": 27.25,
            "velocity": 0.4409448818897638
          },
          {
            "duration": 0.22604166666666714,
            "durationTicks": 217,
            "midi": 62,
            "name": "D4",
            "ticks": 26400,
            "time": 27.5,
            "velocity": 0.4566929133858268
          },
          {
            "duration": 1.8999999999999986,
            "durationTicks": 1824,
            "midi": 59,
            "name": "B3",
            "ticks": 26640,
            "time": 27.75,
            "velocity": 0.44881889763779526
          },
          {
            "duration": 0.451041666666665,
            "durationTicks": 433,
            "midi": 60,
            "name": "C4",
            "ticks": 28560,
            "time": 29.75,
            "velocity": 0.5196850393700787
          },
          {
            "duration": 0.22604166666666714,
            "durationTicks": 217,
            "midi": 62,
            "name": "D4",
            "ticks": 29760,
            "time": 31,
            "velocity": 0.4330708661417323
          },
          {
            "duration": 0.22604166666666714,
            "durationTicks": 217,
            "midi": 62,
            "name": "D4",
            "ticks": 30000,
            "time": 31.25,
            "velocity": 0.47244094488188976
          },
          {
            "duration": 0.22604166666666714,
            "durationTicks": 217,
            "midi": 62,
            "name": "D4",
            "ticks": 30240,
            "time": 31.5,
            "velocity": 0.48031496062992124
          },
          {
            "duration": 1.8999999999999986,
            "durationTicks": 1824,
            "midi": 59,
            "name": "B3",
            "ticks": 30480,
            "time": 31.75,
            "velocity": 0.44881889763779526
          },
          {
            "duration": 0.22604166666666714,
            "durationTicks": 217,
            "midi": 60,
            "name": "C4",
            "ticks": 32400,
            "time": 33.75,
            "velocity": 0.5196850393700787
          },
          {
            "duration": 0.22604166666666714,
            "durationTicks": 217,
            "midi": 67,
            "name": "G4",
            "ticks": 32640,
            "time": 34,
            "velocity": 0.5354330708661418
          },
          {
            "duration": 0.22604166666666714,
            "durationTicks": 217,
            "midi": 67,
            "name": "G4",
            "ticks": 32880,
            "time": 34.25,
            "velocity": 0.4881889763779528
          },
          {
            "duration": 0.22604166666666714,
            "durationTicks": 217,
            "midi": 63,
            "name": "D#4",
            "ticks": 33120,
            "time": 34.5,
            "velocity": 0.4409448818897638
          },
          {
            "duration": 1.2260416666666671,
            "durationTicks": 1177,
            "midi": 65,
            "name": "F4",
            "ticks": 33360,
            "time": 34.75,
            "velocity": 0.5196850393700787
          },
          {
            "duration": 0.22604166666666714,
            "durationTicks": 217,
            "midi": 68,
            "name": "G#4",
            "ticks": 34560,
            "time": 36,
            "velocity": 0.5748031496062992
          },
          {
            "duration": 0.22604166666666714,
            "durationTicks": 217,
            "midi": 68,
            "name": "G#4",
            "ticks": 34800,
            "time": 36.25,
            "velocity": 0.5275590551181102
          },
          {
            "duration": 0.22604166666666714,
            "durationTicks": 217,
            "midi": 65,
            "name": "F4",
            "ticks": 35040,
            "time": 36.5,
            "velocity": 0.49606299212598426
          },
          {
            "duration": 1.2260416666666671,
            "durationTicks": 1177,
            "midi": 67,
            "name": "G4",
            "ticks": 35280,
            "time": 36.75,
            "velocity": 0.5984251968503937
          },
          {
            "duration": 0.22604166666666714,
            "durationTicks": 217,
            "midi": 67,
            "name": "G4",
            "ticks": 36480,
            "time": 38,
            "velocity": 0.5354330708661418
          },
          {
            "duration": 0.22604166666666714,
            "durationTicks": 217,
            "midi": 67,
            "name": "G4",
            "ticks": 36720,
            "time": 38.25,
            "velocity": 0.5511811023622047
          },
          {
            "duration": 0.22604166666666714,
            "durationTicks": 217,
            "midi": 63,
            "name": "D#4",
            "ticks": 36960,
            "time": 38.5,
            "velocity": 0.5118110236220472
          },
          {
            "duration": 0.22604166666666714,
            "durationTicks": 217,
            "midi": 68,
            "name": "G#4",
            "ticks": 37200,
            "time": 38.75,
            "velocity": 0.7559055118110236
          },
          {
            "duration": 0.22604166666666714,
            "durationTicks": 217,
            "midi": 68,
            "name": "G#4",
            "ticks": 37440,
            "time": 39,
            "velocity": 0.6141732283464567
          },
          {
            "duration": 0.22604166666666714,
            "durationTicks": 217,
            "midi": 68,
            "name": "G#4",
            "ticks": 37680,
            "time": 39.25,
            "velocity": 0.5905511811023622
          },
          {
            "duration": 0.22604166666666714,
            "durationTicks": 217,
            "midi": 65,
            "name": "F4",
            "ticks": 37920,
            "time": 39.5,
            "velocity": 0.5511811023622047
          },
          {
            "duration": 0.22604166666666714,
            "durationTicks": 217,
            "midi": 70,
            "name": "A#4",
            "ticks": 38160,
            "time": 39.75,
            "velocity": 0.7716535433070866
          },
          {
            "duration": 0.22604166666666714,
            "durationTicks": 217,
            "midi": 70,
            "name": "A#4",
            "ticks": 38400,
            "time": 40,
            "velocity": 0.6141732283464567
          },
          {
            "duration": 0.22604166666666714,
            "durationTicks": 217,
            "midi": 70,
            "name": "A#4",
            "ticks": 38640,
            "time": 40.25,
            "velocity": 0.6220472440944882
          },
          {
            "duration": 0.22604166666666714,
            "durationTicks": 217,
            "midi": 67,
            "name": "G4",
            "ticks": 38880,
            "time": 40.5,
            "velocity": 0.6062992125984252
          },
          {
            "duration": 0.22604166666666714,
            "durationTicks": 217,
            "midi": 72,
            "name": "C5",
            "ticks": 39120,
            "time": 40.75,
            "velocity": 0.8346456692913385
          },
          {
            "duration": 0.22604166666666714,
            "durationTicks": 217,
            "midi": 60,
            "name": "C4",
            "ticks": 39360,
            "time": 41,
            "velocity": 0.4645669291338583
          },
          {
            "duration": 0.22604166666666714,
            "durationTicks": 217,
            "midi": 60,
            "name": "C4",
            "ticks": 39600,
            "time": 41.25,
            "velocity": 0.6377952755905512
          },
          {
            "duration": 0.22604166666666714,
            "durationTicks": 217,
            "midi": 56,
            "name": "G#3",
            "ticks": 39840,
            "time": 41.5,
            "velocity": 0.6299212598425197
          },
          {
            "duration": 0.22604166666666714,
            "durationTicks": 217,
            "midi": 64,
            "name": "E4",
            "ticks": 40080,
            "time": 41.75,
            "velocity": 0.905511811023622
          },
          {
            "duration": 0.22604166666666714,
            "durationTicks": 217,
            "midi": 64,
            "name": "E4",
            "ticks": 40320,
            "time": 42,
            "velocity": 0.7007874015748031
          },
          {
            "duration": 0.22604166666666714,
            "durationTicks": 217,
            "midi": 64,
            "name": "E4",
            "ticks": 40560,
            "time": 42.25,
            "velocity": 0.6771653543307087
          },
          {
            "duration": 0.22604166666666714,
            "durationTicks": 217,
            "midi": 58,
            "name": "A#3",
            "ticks": 40800,
            "time": 42.5,
            "velocity": 0.6377952755905512
          },
          {
            "duration": 0.22604166666666714,
            "durationTicks": 217,
            "midi": 65,
            "name": "F4",
            "ticks": 41040,
            "time": 42.75,
            "velocity": 0.968503937007874
          },
          {
            "duration": 0.22604166666666714,
            "durationTicks": 217,
            "midi": 65,
            "name": "F4",
            "ticks": 41280,
            "time": 43,
            "velocity": 0.7716535433070866
          },
          {
            "duration": 0.22604166666666714,
            "durationTicks": 217,
            "midi": 65,
            "name": "F4",
            "ticks": 41520,
            "time": 43.25,
            "velocity": 0.7007874015748031
          },
          {
            "duration": 0.22604166666666714,
            "durationTicks": 217,
            "midi": 60,
            "name": "C4",
            "ticks": 41760,
            "time": 43.5,
            "velocity": 0.6456692913385826
          },
          {
            "duration": 0.22604166666666714,
            "durationTicks": 217,
            "midi": 68,
            "name": "G#4",
            "ticks": 42000,
            "time": 43.75,
            "velocity": 1
          },
          {
            "duration": 0.22604166666666714,
            "durationTicks": 217,
            "midi": 68,
            "name": "G#4",
            "ticks": 42240,
            "time": 44,
            "velocity": 0.7716535433070866
          },
          {
            "duration": 0.22604166666666714,
            "durationTicks": 217,
            "midi": 68,
            "name": "G#4",
            "ticks": 42480,
            "time": 44.25,
            "velocity": 0.7559055118110236
          },
          {
            "duration": 0.22604166666666714,
            "durationTicks": 217,
            "midi": 65,
            "name": "F4",
            "ticks": 42720,
            "time": 44.5,
            "velocity": 0.7086614173228346
          },
          {
            "duration": 0.22604166666666714,
            "durationTicks": 217,
            "midi": 67,
            "name": "G4",
            "ticks": 42960,
            "time": 44.75,
            "velocity": 0.7637795275590551
          },
          {
            "duration": 0.22604166666666714,
            "durationTicks": 217,
            "midi": 63,
            "name": "D#4",
            "ticks": 43200,
            "time": 45,
            "velocity": 0.8818897637795275
          },
          {
            "duration": 0.22604166666666714,
            "durationTicks": 217,
            "midi": 72,
            "name": "C5",
            "ticks": 43200,
            "time": 45,
            "velocity": 0.8818897637795275
          },
          {
            "duration": 0.22604166666666714,
            "durationTicks": 217,
            "midi": 63,
            "name": "D#4",
            "ticks": 43440,
            "time": 45.25,
            "velocity": 0.7637795275590551
          },
          {
            "duration": 0.22604166666666714,
            "durationTicks": 217,
            "midi": 72,
            "name": "C5",
            "ticks": 43440,
            "time": 45.25,
            "velocity": 0.7637795275590551
          },
          {
            "duration": 0.22604166666666714,
            "durationTicks": 217,
            "midi": 63,
            "name": "D#4",
            "ticks": 43680,
            "time": 45.5,
            "velocity": 0.7401574803149606
          },
          {
            "duration": 0.22604166666666714,
            "durationTicks": 217,
            "midi": 72,
            "name": "C5",
            "ticks": 43680,
            "time": 45.5,
            "velocity": 0.7401574803149606
          },
          {
            "duration": 0.22604166666666714,
            "durationTicks": 217,
            "midi": 63,
            "name": "D#4",
            "ticks": 43920,
            "time": 45.75,
            "velocity": 0.8267716535433071
          },
          {
            "duration": 0.22604166666666714,
            "durationTicks": 217,
            "midi": 72,
            "name": "C5",
            "ticks": 43920,
            "time": 45.75,
            "velocity": 0.8267716535433071
          },
          {
            "duration": 0.22604166666666714,
            "durationTicks": 217,
            "midi": 63,
            "name": "D#4",
            "ticks": 44160,
            "time": 46,
            "velocity": 0.7716535433070866
          },
          {
            "duration": 0.22604166666666714,
            "durationTicks": 217,
            "midi": 72,
            "name": "C5",
            "ticks": 44160,
            "time": 46,
            "velocity": 0.7716535433070866
          },
          {
            "duration": 0.22604166666666714,
            "durationTicks": 217,
            "midi": 63,
            "name": "D#4",
            "ticks": 44400,
            "time": 46.25,
            "velocity": 0.7716535433070866
          },
          {
            "duration": 0.22604166666666714,
            "durationTicks": 217,
            "midi": 72,
            "name": "C5",
            "ticks": 44400,
            "time": 46.25,
            "velocity": 0.7716535433070866
          },
          {
            "duration": 0.22604166666666714,
            "durationTicks": 217,
            "midi": 63,
            "name": "D#4",
            "ticks": 44640,
            "time": 46.5,
            "velocity": 0.7716535433070866
          },
          {
            "duration": 0.22604166666666714,
            "durationTicks": 217,
            "midi": 72,
            "name": "C5",
            "ticks": 44640,
            "time": 46.5,
            "velocity": 0.7716535433070866
          },
          {
            "duration": 0.22604166666666714,
            "durationTicks": 217,
            "midi": 63,
            "name": "D#4",
            "ticks": 44880,
            "time": 46.75,
            "velocity": 0.7480314960629921
          },
          {
            "duration": 0.22604166666666714,
            "durationTicks": 217,
            "midi": 72,
            "name": "C5",
            "ticks": 44880,
            "time": 46.75,
            "velocity": 0.7480314960629921
          },
          {
            "duration": 0.22604166666666714,
            "durationTicks": 217,
            "midi": 63,
            "name": "D#4",
            "ticks": 45120,
            "time": 47,
            "velocity": 0.7401574803149606
          },
          {
            "duration": 0.22604166666666714,
            "durationTicks": 217,
            "midi": 72,
            "name": "C5",
            "ticks": 45120,
            "time": 47,
            "velocity": 0.7401574803149606
          },
          {
            "duration": 0.22604166666666714,
            "durationTicks": 217,
            "midi": 63,
            "name": "D#4",
            "ticks": 45360,
            "time": 47.25,
            "velocity": 0.7795275590551181
          },
          {
            "duration": 0.22604166666666714,
            "durationTicks": 217,
            "midi": 72,
            "name": "C5",
            "ticks": 45360,
            "time": 47.25,
            "velocity": 0.7795275590551181
          },
          {
            "duration": 0.22604166666666714,
            "durationTicks": 217,
            "midi": 63,
            "name": "D#4",
            "ticks": 45600,
            "time": 47.5,
            "velocity": 0.7480314960629921
          },
          {
            "duration": 0.22604166666666714,
            "durationTicks": 217,
            "midi": 72,
            "name": "C5",
            "ticks": 45600,
            "time": 47.5,
            "velocity": 0.7480314960629921
          },
          {
            "duration": 0.22604166666666714,
            "durationTicks": 217,
            "midi": 63,
            "name": "D#4",
            "ticks": 45840,
            "time": 47.75,
            "velocity": 0.7637795275590551
          },
          {
            "duration": 0.22604166666666714,
            "durationTicks": 217,
            "midi": 72,
            "name": "C5",
            "ticks": 45840,
            "time": 47.75,
            "velocity": 0.7637795275590551
          },
          {
            "duration": 0.22604166666666714,
            "durationTicks": 217,
            "midi": 63,
            "name": "D#4",
            "ticks": 46080,
            "time": 48,
            "velocity": 0.8031496062992126
          },
          {
            "duration": 0.22604166666666714,
            "durationTicks": 217,
            "midi": 72,
            "name": "C5",
            "ticks": 46080,
            "time": 48,
            "velocity": 0.8031496062992126
          },
          {
            "duration": 0.22604166666666714,
            "durationTicks": 217,
            "midi": 63,
            "name": "D#4",
            "ticks": 46320,
            "time": 48.25,
            "velocity": 0.7559055118110236
          },
          {
            "duration": 0.22604166666666714,
            "durationTicks": 217,
            "midi": 72,
            "name": "C5",
            "ticks": 46320,
            "time": 48.25,
            "velocity": 0.7559055118110236
          },
          {
            "duration": 0.22604166666666714,
            "durationTicks": 217,
            "midi": 63,
            "name": "D#4",
            "ticks": 46560,
            "time": 48.5,
            "velocity": 0.7480314960629921
          },
          {
            "duration": 0.22604166666666714,
            "durationTicks": 217,
            "midi": 72,
            "name": "C5",
            "ticks": 46560,
            "time": 48.5,
            "velocity": 0.7480314960629921
          },
          {
            "duration": 0.22604166666666714,
            "durationTicks": 217,
            "midi": 62,
            "name": "D4",
            "ticks": 46800,
            "time": 48.75,
            "velocity": 0.7322834645669292
          },
          {
            "duration": 0.22604166666666714,
            "durationTicks": 217,
            "midi": 71,
            "name": "B4",
            "ticks": 46800,
            "time": 48.75,
            "velocity": 0.7322834645669292
          },
          {
            "duration": 0.22604166666666714,
            "durationTicks": 217,
            "midi": 77,
            "name": "F5",
            "ticks": 47040,
            "time": 49,
            "velocity": 0.8740157480314961
          },
          {
            "duration": 0.22604166666666714,
            "durationTicks": 217,
            "midi": 74,
            "name": "D5",
            "ticks": 47280,
            "time": 49.25,
            "velocity": 0.7795275590551181
          },
          {
            "duration": 0.22604166666666714,
            "durationTicks": 217,
            "midi": 74,
            "name": "D5",
            "ticks": 47520,
            "time": 49.5,
            "velocity": 0.7637795275590551
          },
          {
            "duration": 0.22604166666666714,
            "durationTicks": 217,
            "midi": 71,
            "name": "B4",
            "ticks": 47760,
            "time": 49.75,
            "velocity": 0.7401574803149606
          },
          {
            "duration": 0.22604166666666714,
            "durationTicks": 217,
            "midi": 67,
            "name": "G4",
            "ticks": 48000,
            "time": 50,
            "velocity": 0.6850393700787402
          },
          {
            "duration": 0.22604166666666714,
            "durationTicks": 217,
            "midi": 65,
            "name": "F4",
            "ticks": 48240,
            "time": 50.25,
            "velocity": 0.6850393700787402
          },
          {
            "duration": 0.22604166666666714,
            "durationTicks": 217,
            "midi": 65,
            "name": "F4",
            "ticks": 48480,
            "time": 50.5,
            "velocity": 0.7559055118110236
          },
          {
            "duration": 0.22604166666666714,
            "durationTicks": 217,
            "midi": 62,
            "name": "D4",
            "ticks": 48720,
            "time": 50.75,
            "velocity": 0.6929133858267716
          },
          {
            "duration": 0.22604166666666714,
            "durationTicks": 217,
            "midi": 59,
            "name": "B3",
            "ticks": 48960,
            "time": 51,
            "velocity": 0.7165354330708661
          },
          {
            "duration": 0.22604166666666714,
            "durationTicks": 217,
            "midi": 55,
            "name": "G3",
            "ticks": 49200,
            "time": 51.25,
            "velocity": 0.7165354330708661
          },
          {
            "duration": 0.22604166666666714,
            "durationTicks": 217,
            "midi": 65,
            "name": "F4",
            "ticks": 49440,
            "time": 51.5,
            "velocity": 0.9291338582677166
          },
          {
            "duration": 0.22604166666666714,
            "durationTicks": 217,
            "midi": 62,
            "name": "D4",
            "ticks": 49680,
            "time": 51.75,
            "velocity": 0.7244094488188977
          },
          {
            "duration": 0.22604166666666714,
            "durationTicks": 217,
            "midi": 59,
            "name": "B3",
            "ticks": 49920,
            "time": 52,
            "velocity": 0.7086614173228346
          },
          {
            "duration": 0.22604166666666714,
            "durationTicks": 217,
            "midi": 60,
            "name": "C4",
            "ticks": 50160,
            "time": 52.25,
            "velocity": 0.7952755905511811
          },
          {
            "duration": 0.22604166666666714,
            "durationTicks": 217,
            "midi": 60,
            "name": "C4",
            "ticks": 50400,
            "time": 52.5,
            "velocity": 0.7637795275590551
          },
          {
            "duration": 0.22604166666666714,
            "durationTicks": 217,
            "midi": 72,
            "name": "C5",
            "ticks": 50640,
            "time": 52.75,
            "velocity": 1
          },
          {
            "duration": 0.22604166666666714,
            "durationTicks": 217,
            "midi": 75,
            "name": "D#5",
            "ticks": 50880,
            "time": 53,
            "velocity": 0.9448818897637795
          },
          {
            "duration": 0.22604166666666714,
            "durationTicks": 217,
            "midi": 75,
            "name": "D#5",
            "ticks": 51120,
            "time": 53.25,
            "velocity": 0.8976377952755905
          },
          {
            "duration": 0.22604166666666714,
            "durationTicks": 217,
            "midi": 75,
            "name": "D#5",
            "ticks": 51360,
            "time": 53.5,
            "velocity": 0.905511811023622
          },
          {
            "duration": 0.22604166666666714,
            "durationTicks": 217,
            "midi": 72,
            "name": "C5",
            "ticks": 51600,
            "time": 53.75,
            "velocity": 0.7874015748031497
          },
          {
            "duration": 0.22604166666666714,
            "durationTicks": 217,
            "midi": 69,
            "name": "A4",
            "ticks": 51840,
            "time": 54,
            "velocity": 0.8031496062992126
          },
          {
            "duration": 0.22604166666666714,
            "durationTicks": 217,
            "midi": 69,
            "name": "A4",
            "ticks": 52080,
            "time": 54.25,
            "velocity": 0.889763779527559
          },
          {
            "duration": 0.22604166666666714,
            "durationTicks": 217,
            "midi": 69,
            "name": "A4",
            "ticks": 52320,
            "time": 54.5,
            "velocity": 0.8740157480314961
          },
          {
            "duration": 0.22604166666666714,
            "durationTicks": 217,
            "midi": 66,
            "name": "F#4",
            "ticks": 52560,
            "time": 54.75,
            "velocity": 0.8188976377952756
          },
          {
            "duration": 0.22604166666666714,
            "durationTicks": 217,
            "midi": 63,
            "name": "D#4",
            "ticks": 52800,
            "time": 55,
            "velocity": 0.8188976377952756
          },
          {
            "duration": 0.22604166666666714,
            "durationTicks": 217,
            "midi": 63,
            "name": "D#4",
            "ticks": 53040,
            "time": 55.25,
            "velocity": 0.8582677165354331
          },
          {
            "duration": 0.22604166666666714,
            "durationTicks": 217,
            "midi": 63,
            "name": "D#4",
            "ticks": 53280,
            "time": 55.5,
            "velocity": 0.905511811023622
          },
          {
            "duration": 0.22604166666666714,
            "durationTicks": 217,
            "midi": 60,
            "name": "C4",
            "ticks": 53520,
            "time": 55.75,
            "velocity": 0.8188976377952756
          },
          {
            "duration": 0.22604166666666714,
            "durationTicks": 217,
            "midi": 57,
            "name": "A3",
            "ticks": 53760,
            "time": 56,
            "velocity": 1
          },
          {
            "duration": 0.22604166666666714,
            "durationTicks": 217,
            "midi": 69,
            "name": "A4",
            "ticks": 53760,
            "time": 56,
            "velocity": 1
          },
          {
            "duration": 0.22604166666666714,
            "durationTicks": 217,
            "midi": 57,
            "name": "A3",
            "ticks": 54000,
            "time": 56.25,
            "velocity": 0.9133858267716536
          },
          {
            "duration": 0.22604166666666714,
            "durationTicks": 217,
            "midi": 69,
            "name": "A4",
            "ticks": 54000,
            "time": 56.25,
            "velocity": 0.9133858267716536
          },
          {
            "duration": 0.22604166666666714,
            "durationTicks": 217,
            "midi": 57,
            "name": "A3",
            "ticks": 54240,
            "time": 56.5,
            "velocity": 0.8818897637795275
          },
          {
            "duration": 0.22604166666666714,
            "durationTicks": 217,
            "midi": 69,
            "name": "A4",
            "ticks": 54240,
            "time": 56.5,
            "velocity": 0.8818897637795275
          },
          {
            "duration": 0.45104166666666856,
            "durationTicks": 433,
            "midi": 57,
            "name": "A3",
            "ticks": 54480,
            "time": 56.75,
            "velocity": 0.8818897637795275
          },
          {
            "duration": 0.45104166666666856,
            "durationTicks": 433,
            "midi": 69,
            "name": "A4",
            "ticks": 54480,
            "time": 56.75,
            "velocity": 0.8818897637795275
          },
          {
            "duration": 0.05833333333333002,
            "durationTicks": 56,
            "midi": 58,
            "name": "A#3",
            "ticks": 56344,
            "time": 58.69166666666667,
            "velocity": 0.7874015748031497
          },
          {
            "duration": 0.45104166666666856,
            "durationTicks": 433,
            "midi": 65,
            "name": "F4",
            "ticks": 56372,
            "time": 58.72083333333333,
            "velocity": 0.7874015748031497
          },
          {
            "duration": 0.45104166666666856,
            "durationTicks": 433,
            "midi": 70,
            "name": "A#4",
            "ticks": 56400,
            "time": 58.75,
            "velocity": 0.7874015748031497
          },
          {
            "duration": 1.0197916666666629,
            "durationTicks": 979,
            "midi": 67,
            "name": "G4",
            "ticks": 61200,
            "time": 63.75,
            "velocity": 0.41732283464566927
          },
          {
            "duration": 0.9489583333333371,
            "durationTicks": 911,
            "midi": 68,
            "name": "G#4",
            "ticks": 62160,
            "time": 64.75,
            "velocity": 0.4409448818897638
          },
          {
            "duration": 1.0197916666666629,
            "durationTicks": 979,
            "midi": 68,
            "name": "G#4",
            "ticks": 63120,
            "time": 65.75,
            "velocity": 0.4645669291338583
          },
          {
            "duration": 0.9489583333333371,
            "durationTicks": 911,
            "midi": 67,
            "name": "G4",
            "ticks": 64080,
            "time": 66.75,
            "velocity": 0.4330708661417323
          },
          {
            "duration": 1.0197916666666629,
            "durationTicks": 979,
            "midi": 67,
            "name": "G4",
            "ticks": 65040,
            "time": 67.75,
            "velocity": 0.47244094488188976
          },
          {
            "duration": 0.9489583333333371,
            "durationTicks": 911,
            "midi": 68,
            "name": "G#4",
            "ticks": 66000,
            "time": 68.75,
            "velocity": 0.49606299212598426
          },
          {
            "duration": 1.0197916666666629,
            "durationTicks": 979,
            "midi": 68,
            "name": "G#4",
            "ticks": 66960,
            "time": 69.75,
            "velocity": 0.49606299212598426
          },
          {
            "duration": 0.9489583333333371,
            "durationTicks": 911,
            "midi": 67,
            "name": "G4",
            "ticks": 67920,
            "time": 70.75,
            "velocity": 0.48031496062992124
          },
          {
            "duration": 1.0197916666666629,
            "durationTicks": 979,
            "midi": 67,
            "name": "G4",
            "ticks": 68880,
            "time": 71.75,
            "velocity": 0.47244094488188976
          },
          {
            "duration": 0.9489583333333371,
            "durationTicks": 911,
            "midi": 68,
            "name": "G#4",
            "ticks": 69840,
            "time": 72.75,
            "velocity": 0.49606299212598426
          },
          {
            "duration": 1.0197916666666629,
            "durationTicks": 979,
            "midi": 68,
            "name": "G#4",
            "ticks": 70800,
            "time": 73.75,
            "velocity": 0.5118110236220472
          },
          {
            "duration": 0.9489583333333371,
            "durationTicks": 911,
            "midi": 67,
            "name": "G4",
            "ticks": 71760,
            "time": 74.75,
            "velocity": 0.4881889763779528
          },
          {
            "duration": 1.9000000000000057,
            "durationTicks": 1824,
            "midi": 67,
            "name": "G4",
            "ticks": 72720,
            "time": 75.75,
            "velocity": 0.4409448818897638
          },
          {
            "duration": 1.0197916666666629,
            "durationTicks": 979,
            "midi": 67,
            "name": "G4",
            "ticks": 74640,
            "time": 77.75,
            "velocity": 0.47244094488188976
          },
          {
            "duration": 0.9489583333333371,
            "durationTicks": 911,
            "midi": 65,
            "name": "F4",
            "ticks": 75600,
            "time": 78.75,
            "velocity": 0.47244094488188976
          },
          {
            "duration": 1.0197916666666629,
            "durationTicks": 979,
            "midi": 68,
            "name": "G#4",
            "ticks": 76560,
            "time": 79.75,
            "velocity": 0.5354330708661418
          },
          {
            "duration": 0.9489583333333371,
            "durationTicks": 911,
            "midi": 70,
            "name": "A#4",
            "ticks": 77520,
            "time": 80.75,
            "velocity": 0.5826771653543307
          },
          {
            "duration": 1.0197916666666629,
            "durationTicks": 979,
            "midi": 70,
            "name": "A#4",
            "ticks": 78480,
            "time": 81.75,
            "velocity": 0.49606299212598426
          },
          {
            "duration": 0.9489583333333371,
            "durationTicks": 911,
            "midi": 68,
            "name": "G#4",
            "ticks": 79440,
            "time": 82.75,
            "velocity": 0.47244094488188976
          },
          {
            "duration": 0.5093750000000057,
            "durationTicks": 489,
            "midi": 63,
            "name": "D#4",
            "ticks": 80400,
            "time": 83.75,
            "velocity": 0.4094488188976378
          },
          {
            "duration": 0.5093750000000057,
            "durationTicks": 489,
            "midi": 65,
            "name": "F4",
            "ticks": 80880,
            "time": 84.25,
            "velocity": 0.4409448818897638
          },
          {
            "duration": 0.5093750000000057,
            "durationTicks": 489,
            "midi": 66,
            "name": "F#4",
            "ticks": 81360,
            "time": 84.75,
            "velocity": 0.4881889763779528
          },
          {
            "duration": 0.5093750000000057,
            "durationTicks": 489,
            "midi": 65,
            "name": "F4",
            "ticks": 81840,
            "time": 85.25,
            "velocity": 0.48031496062992124
          },
          {
            "duration": 0.5093750000000057,
            "durationTicks": 489,
            "midi": 63,
            "name": "D#4",
            "ticks": 82320,
            "time": 85.75,
            "velocity": 0.44881889763779526
          },
          {
            "duration": 0.4749999999999943,
            "durationTicks": 456,
            "midi": 65,
            "name": "F4",
            "ticks": 82800,
            "time": 86.25,
            "velocity": 0.5039370078740157
          },
          {
            "duration": 0.5093750000000057,
            "durationTicks": 489,
            "midi": 66,
            "name": "F#4",
            "ticks": 83280,
            "time": 86.75,
            "velocity": 0.5748031496062992
          },
          {
            "duration": 0.5093750000000057,
            "durationTicks": 489,
            "midi": 65,
            "name": "F4",
            "ticks": 83760,
            "time": 87.25,
            "velocity": 0.5748031496062992
          },
          {
            "duration": 0.5093750000000057,
            "durationTicks": 489,
            "midi": 63,
            "name": "D#4",
            "ticks": 84240,
            "time": 87.75,
            "velocity": 0.5511811023622047
          },
          {
            "duration": 0.4749999999999943,
            "durationTicks": 456,
            "midi": 65,
            "name": "F4",
            "ticks": 84720,
            "time": 88.25,
            "velocity": 0.5511811023622047
          },
          {
            "duration": 0.5093750000000057,
            "durationTicks": 489,
            "midi": 66,
            "name": "F#4",
            "ticks": 85200,
            "time": 88.75,
            "velocity": 0.6929133858267716
          },
          {
            "duration": 0.5093750000000057,
            "durationTicks": 489,
            "midi": 65,
            "name": "F4",
            "ticks": 85680,
            "time": 89.25,
            "velocity": 0.6614173228346457
          },
          {
            "duration": 0.5093750000000057,
            "durationTicks": 489,
            "midi": 63,
            "name": "D#4",
            "ticks": 86160,
            "time": 89.75,
            "velocity": 0.6299212598425197
          },
          {
            "duration": 0.4749999999999943,
            "durationTicks": 456,
            "midi": 65,
            "name": "F4",
            "ticks": 86640,
            "time": 90.25,
            "velocity": 0.6535433070866141
          },
          {
            "duration": 0.5093750000000057,
            "durationTicks": 489,
            "midi": 66,
            "name": "F#4",
            "ticks": 87120,
            "time": 90.75,
            "velocity": 0.7244094488188977
          },
          {
            "duration": 0.5093750000000057,
            "durationTicks": 489,
            "midi": 65,
            "name": "F4",
            "ticks": 87600,
            "time": 91.25,
            "velocity": 0.6850393700787402
          },
          {
            "duration": 0.5093750000000057,
            "durationTicks": 489,
            "midi": 63,
            "name": "D#4",
            "ticks": 88080,
            "time": 91.75,
            "velocity": 0.6141732283464567
          },
          {
            "duration": 0.5093750000000057,
            "durationTicks": 489,
            "midi": 65,
            "name": "F4",
            "ticks": 88560,
            "time": 92.25,
            "velocity": 0.7952755905511811
          },
          {
            "duration": 0.5093750000000057,
            "durationTicks": 489,
            "midi": 66,
            "name": "F#4",
            "ticks": 89040,
            "time": 92.75,
            "velocity": 0.8188976377952756
          },
          {
            "duration": 0.5093750000000057,
            "durationTicks": 489,
            "midi": 65,
            "name": "F4",
            "ticks": 89520,
            "time": 93.25,
            "velocity": 0.7322834645669292
          },
          {
            "duration": 0.5093750000000057,
            "durationTicks": 489,
            "midi": 66,
            "name": "F#4",
            "ticks": 90000,
            "time": 93.75,
            "velocity": 0.7165354330708661
          },
          {
            "duration": 0.4749999999999943,
            "durationTicks": 456,
            "midi": 69,
            "name": "A4",
            "ticks": 90480,
            "time": 94.25,
            "velocity": 0.8582677165354331
          },
          {
            "duration": 1.22604166666666,
            "durationTicks": 1177,
            "midi": 70,
            "name": "A#4",
            "ticks": 90960,
            "time": 94.75,
            "velocity": 1
          },
          {
            "duration": 1.22604166666666,
            "durationTicks": 1177,
            "midi": 82,
            "name": "A#5",
            "ticks": 90960,
            "time": 94.75,
            "velocity": 1
          },
          {
            "duration": 0.11354166666666288,
            "durationTicks": 109,
            "midi": 84,
            "name": "C6",
            "ticks": 92160,
            "time": 96,
            "velocity": 0.968503937007874
          },
          {
            "duration": 0.11354166666666288,
            "durationTicks": 109,
            "midi": 82,
            "name": "A#5",
            "ticks": 92400,
            "time": 96.25,
            "velocity": 0.8582677165354331
          },
          {
            "duration": 0.11354166666666288,
            "durationTicks": 109,
            "midi": 80,
            "name": "G#5",
            "ticks": 92640,
            "time": 96.5,
            "velocity": 0.8188976377952756
          },
          {
            "duration": 0.2541666666666629,
            "durationTicks": 244,
            "midi": 80,
            "name": "G#5",
            "ticks": 92880,
            "time": 96.75,
            "velocity": 0.8661417322834646
          },
          {
            "duration": 0.23645833333333144,
            "durationTicks": 227,
            "midi": 79,
            "name": "G5",
            "ticks": 93120,
            "time": 97,
            "velocity": 0.8267716535433071
          },
          {
            "duration": 0.11354166666666288,
            "durationTicks": 109,
            "midi": 77,
            "name": "F5",
            "ticks": 93360,
            "time": 97.25,
            "velocity": 0.8031496062992126
          },
          {
            "duration": 0.11354166666666288,
            "durationTicks": 109,
            "midi": 75,
            "name": "D#5",
            "ticks": 93600,
            "time": 97.5,
            "velocity": 0.8031496062992126
          },
          {
            "duration": 0.2541666666666629,
            "durationTicks": 244,
            "midi": 75,
            "name": "D#5",
            "ticks": 93840,
            "time": 97.75,
            "velocity": 0.889763779527559
          },
          {
            "duration": 0.23645833333333144,
            "durationTicks": 227,
            "midi": 74,
            "name": "D5",
            "ticks": 94080,
            "time": 98,
            "velocity": 0.8582677165354331
          },
          {
            "duration": 0.11354166666666288,
            "durationTicks": 109,
            "midi": 72,
            "name": "C5",
            "ticks": 94320,
            "time": 98.25,
            "velocity": 0.8267716535433071
          },
          {
            "duration": 0.11354166666666288,
            "durationTicks": 109,
            "midi": 74,
            "name": "D5",
            "ticks": 94560,
            "time": 98.5,
            "velocity": 0.9448818897637795
          },
          {
            "duration": 0.2541666666666629,
            "durationTicks": 244,
            "midi": 77,
            "name": "F5",
            "ticks": 94800,
            "time": 98.75,
            "velocity": 0.9921259842519685
          },
          {
            "duration": 0.23645833333333144,
            "durationTicks": 227,
            "midi": 75,
            "name": "D#5",
            "ticks": 95040,
            "time": 99,
            "velocity": 0.9448818897637795
          },
          {
            "duration": 0.11354166666666288,
            "durationTicks": 109,
            "midi": 70,
            "name": "A#4",
            "ticks": 95280,
            "time": 99.25,
            "velocity": 0.7716535433070866
          },
          {
            "duration": 0.11354166666666288,
            "durationTicks": 109,
            "midi": 67,
            "name": "G4",
            "ticks": 95520,
            "time": 99.5,
            "velocity": 0.7480314960629921
          },
          {
            "duration": 0.2541666666666629,
            "durationTicks": 244,
            "midi": 74,
            "name": "D5",
            "ticks": 95760,
            "time": 99.75,
            "velocity": 1
          },
          {
            "duration": 0.23645833333333144,
            "durationTicks": 227,
            "midi": 72,
            "name": "C5",
            "ticks": 96000,
            "time": 100,
            "velocity": 0.9212598425196851
          },
          {
            "duration": 0.11354166666666288,
            "durationTicks": 109,
            "midi": 68,
            "name": "G#4",
            "ticks": 96240,
            "time": 100.25,
            "velocity": 0.7952755905511811
          },
          {
            "duration": 0.11354166666666288,
            "durationTicks": 109,
            "midi": 65,
            "name": "F4",
            "ticks": 96480,
            "time": 100.5,
            "velocity": 0.8267716535433071
          },
          {
            "duration": 0.2541666666666629,
            "durationTicks": 244,
            "midi": 72,
            "name": "C5",
            "ticks": 96720,
            "time": 100.75,
            "velocity": 1
          },
          {
            "duration": 0.23645833333333144,
            "durationTicks": 227,
            "midi": 70,
            "name": "A#4",
            "ticks": 96960,
            "time": 101,
            "velocity": 1
          },
          {
            "duration": 0.11354166666666288,
            "durationTicks": 109,
            "midi": 67,
            "name": "G4",
            "ticks": 97200,
            "time": 101.25,
            "velocity": 0.8110236220472441
          },
          {
            "duration": 0.11354166666666288,
            "durationTicks": 109,
            "midi": 63,
            "name": "D#4",
            "ticks": 97440,
            "time": 101.5,
            "velocity": 0.7637795275590551
          },
          {
            "duration": 0.22604166666666003,
            "durationTicks": 217,
            "midi": 58,
            "name": "A#3",
            "ticks": 97680,
            "time": 101.75,
            "velocity": 0.7952755905511811
          },
          {
            "duration": 0.2541666666666629,
            "durationTicks": 244,
            "midi": 69,
            "name": "A4",
            "ticks": 97920,
            "time": 102,
            "velocity": 1
          },
          {
            "duration": 0.2541666666666629,
            "durationTicks": 244,
            "midi": 70,
            "name": "A#4",
            "ticks": 98160,
            "time": 102.25,
            "velocity": 1
          },
          {
            "duration": 0.2541666666666629,
            "durationTicks": 244,
            "midi": 69,
            "name": "A4",
            "ticks": 98400,
            "time": 102.5,
            "velocity": 0.9212598425196851
          },
          {
            "duration": 0.2541666666666629,
            "durationTicks": 244,
            "midi": 70,
            "name": "A#4",
            "ticks": 98640,
            "time": 102.75,
            "velocity": 0.9212598425196851
          },
          {
            "duration": 0.2541666666666629,
            "durationTicks": 244,
            "midi": 69,
            "name": "A4",
            "ticks": 98880,
            "time": 103,
            "velocity": 0.8740157480314961
          },
          {
            "duration": 0.23645833333333144,
            "durationTicks": 227,
            "midi": 70,
            "name": "A#4",
            "ticks": 99120,
            "time": 103.25,
            "velocity": 0.937007874015748
          },
          {
            "duration": 0.22604166666666003,
            "durationTicks": 217,
            "midi": 69,
            "name": "A4",
            "ticks": 99360,
            "time": 103.5,
            "velocity": 0.8818897637795275
          },
          {
            "duration": 0.11354166666666288,
            "durationTicks": 109,
            "midi": 70,
            "name": "A#4",
            "ticks": 99600,
            "time": 103.75,
            "velocity": 0.937007874015748
          },
          {
            "duration": 0.11354166666666288,
            "durationTicks": 109,
            "midi": 84,
            "name": "C6",
            "ticks": 99840,
            "time": 104,
            "velocity": 1
          },
          {
            "duration": 0.11354166666666288,
            "durationTicks": 109,
            "midi": 82,
            "name": "A#5",
            "ticks": 100080,
            "time": 104.25,
            "velocity": 0.8346456692913385
          },
          {
            "duration": 0.11354166666666288,
            "durationTicks": 109,
            "midi": 80,
            "name": "G#5",
            "ticks": 100320,
            "time": 104.5,
            "velocity": 0.8346456692913385
          },
          {
            "duration": 0.2541666666666629,
            "durationTicks": 244,
            "midi": 80,
            "name": "G#5",
            "ticks": 100560,
            "time": 104.75,
            "velocity": 0.84251968503937
          },
          {
            "duration": 0.23645833333333144,
            "durationTicks": 227,
            "midi": 79,
            "name": "G5",
            "ticks": 100800,
            "time": 105,
            "velocity": 0.7874015748031497
          },
          {
            "duration": 0.11354166666666288,
            "durationTicks": 109,
            "midi": 77,
            "name": "F5",
            "ticks": 101040,
            "time": 105.25,
            "velocity": 0.8346456692913385
          },
          {
            "duration": 0.11354166666666288,
            "durationTicks": 109,
            "midi": 75,
            "name": "D#5",
            "ticks": 101280,
            "time": 105.5,
            "velocity": 0.7874015748031497
          },
          {
            "duration": 0.2541666666666629,
            "durationTicks": 244,
            "midi": 75,
            "name": "D#5",
            "ticks": 101520,
            "time": 105.75,
            "velocity": 0.8818897637795275
          },
          {
            "duration": 0.23645833333333144,
            "durationTicks": 227,
            "midi": 74,
            "name": "D5",
            "ticks": 101760,
            "time": 106,
            "velocity": 0.8267716535433071
          },
          {
            "duration": 0.11354166666666288,
            "durationTicks": 109,
            "midi": 72,
            "name": "C5",
            "ticks": 102000,
            "time": 106.25,
            "velocity": 0.8031496062992126
          },
          {
            "duration": 0.11354166666666288,
            "durationTicks": 109,
            "midi": 74,
            "name": "D5",
            "ticks": 102240,
            "time": 106.5,
            "velocity": 0.937007874015748
          },
          {
            "duration": 0.2541666666666629,
            "durationTicks": 244,
            "midi": 77,
            "name": "F5",
            "ticks": 102480,
            "time": 106.75,
            "velocity": 0.984251968503937
          },
          {
            "duration": 0.23645833333333144,
            "durationTicks": 227,
            "midi": 75,
            "name": "D#5",
            "ticks": 102720,
            "time": 107,
            "velocity": 0.9133858267716536
          },
          {
            "duration": 0.11354166666666288,
            "durationTicks": 109,
            "midi": 70,
            "name": "A#4",
            "ticks": 102960,
            "time": 107.25,
            "velocity": 0.7716535433070866
          },
          {
            "duration": 0.11354166666666288,
            "durationTicks": 109,
            "midi": 67,
            "name": "G4",
            "ticks": 103200,
            "time": 107.5,
            "velocity": 0.7716535433070866
          },
          {
            "duration": 0.2541666666666629,
            "durationTicks": 244,
            "midi": 74,
            "name": "D5",
            "ticks": 103440,
            "time": 107.75,
            "velocity": 1
          },
          {
            "duration": 0.23645833333333144,
            "durationTicks": 227,
            "midi": 72,
            "name": "C5",
            "ticks": 103680,
            "time": 108,
            "velocity": 0.9606299212598425
          },
          {
            "duration": 0.11354166666666288,
            "durationTicks": 109,
            "midi": 68,
            "name": "G#4",
            "ticks": 103920,
            "time": 108.25,
            "velocity": 0.7874015748031497
          },
          {
            "duration": 0.11354166666666288,
            "durationTicks": 109,
            "midi": 65,
            "name": "F4",
            "ticks": 104160,
            "time": 108.5,
            "velocity": 0.7637795275590551
          },
          {
            "duration": 0.2541666666666629,
            "durationTicks": 244,
            "midi": 72,
            "name": "C5",
            "ticks": 104400,
            "time": 108.75,
            "velocity": 1
          },
          {
            "duration": 0.23645833333333144,
            "durationTicks": 227,
            "midi": 70,
            "name": "A#4",
            "ticks": 104640,
            "time": 109,
            "velocity": 0.9606299212598425
          },
          {
            "duration": 0.11354166666666288,
            "durationTicks": 109,
            "midi": 67,
            "name": "G4",
            "ticks": 104880,
            "time": 109.25,
            "velocity": 0.84251968503937
          },
          {
            "duration": 0.11354166666666288,
            "durationTicks": 109,
            "midi": 63,
            "name": "D#4",
            "ticks": 105120,
            "time": 109.5,
            "velocity": 0.7637795275590551
          },
          {
            "duration": 0.22604166666666003,
            "durationTicks": 217,
            "midi": 58,
            "name": "A#3",
            "ticks": 105360,
            "time": 109.75,
            "velocity": 0.7952755905511811
          },
          {
            "duration": 0.22604166666666003,
            "durationTicks": 217,
            "midi": 70,
            "name": "A#4",
            "ticks": 105600,
            "time": 110,
            "velocity": 1
          },
          {
            "duration": 0.22604166666666003,
            "durationTicks": 217,
            "midi": 82,
            "name": "A#5",
            "ticks": 105840,
            "time": 110.25,
            "velocity": 1
          },
          {
            "duration": 0.22604166666666003,
            "durationTicks": 217,
            "midi": 82,
            "name": "A#5",
            "ticks": 106080,
            "time": 110.5,
            "velocity": 0.905511811023622
          },
          {
            "duration": 3.22604166666666,
            "durationTicks": 3097,
            "midi": 63,
            "name": "D#4",
            "ticks": 106320,
            "time": 110.75,
            "velocity": 0.6771653543307087
          },
          {
            "duration": 0.22604166666666003,
            "durationTicks": 217,
            "midi": 62,
            "name": "D4",
            "ticks": 109440,
            "time": 114,
            "velocity": 0.8188976377952756
          },
          {
            "duration": 0.22604166666666003,
            "durationTicks": 217,
            "midi": 62,
            "name": "D4",
            "ticks": 109680,
            "time": 114.25,
            "velocity": 0.8661417322834646
          },
          {
            "duration": 0.22604166666666003,
            "durationTicks": 217,
            "midi": 62,
            "name": "D4",
            "ticks": 109920,
            "time": 114.5,
            "velocity": 0.889763779527559
          },
          {
            "duration": 3.22604166666666,
            "durationTicks": 3097,
            "midi": 63,
            "name": "D#4",
            "ticks": 110160,
            "time": 114.75,
            "velocity": 0.937007874015748
          },
          {
            "duration": 0.22604166666666003,
            "durationTicks": 217,
            "midi": 65,
            "name": "F4",
            "ticks": 113280,
            "time": 118,
            "velocity": 1
          },
          {
            "duration": 0.22604166666666003,
            "durationTicks": 217,
            "midi": 74,
            "name": "D5",
            "ticks": 113280,
            "time": 118,
            "velocity": 1
          },
          {
            "duration": 0.22604166666666003,
            "durationTicks": 217,
            "midi": 65,
            "name": "F4",
            "ticks": 113520,
            "time": 118.25,
            "velocity": 0.952755905511811
          },
          {
            "duration": 0.22604166666666003,
            "durationTicks": 217,
            "midi": 74,
            "name": "D5",
            "ticks": 113520,
            "time": 118.25,
            "velocity": 0.952755905511811
          },
          {
            "duration": 0.22604166666666003,
            "durationTicks": 217,
            "midi": 65,
            "name": "F4",
            "ticks": 113760,
            "time": 118.5,
            "velocity": 0.8976377952755905
          },
          {
            "duration": 0.22604166666666003,
            "durationTicks": 217,
            "midi": 74,
            "name": "D5",
            "ticks": 113760,
            "time": 118.5,
            "velocity": 0.8976377952755905
          },
          {
            "duration": 0.45104166666666856,
            "durationTicks": 433,
            "midi": 67,
            "name": "G4",
            "ticks": 114000,
            "time": 118.75,
            "velocity": 0.889763779527559
          },
          {
            "duration": 0.45104166666666856,
            "durationTicks": 433,
            "midi": 75,
            "name": "D#5",
            "ticks": 114000,
            "time": 118.75,
            "velocity": 0.889763779527559
          },
          {
            "duration": 0.22604166666666003,
            "durationTicks": 217,
            "midi": 65,
            "name": "F4",
            "ticks": 115200,
            "time": 120,
            "velocity": 0.7795275590551181
          },
          {
            "duration": 0.22604166666666003,
            "durationTicks": 217,
            "midi": 74,
            "name": "D5",
            "ticks": 115200,
            "time": 120,
            "velocity": 0.7795275590551181
          },
          {
            "duration": 0.22604166666666003,
            "durationTicks": 217,
            "midi": 65,
            "name": "F4",
            "ticks": 115440,
            "time": 120.25,
            "velocity": 0.905511811023622
          },
          {
            "duration": 0.22604166666666003,
            "durationTicks": 217,
            "midi": 74,
            "name": "D5",
            "ticks": 115440,
            "time": 120.25,
            "velocity": 0.905511811023622
          },
          {
            "duration": 0.22604166666666003,
            "durationTicks": 217,
            "midi": 65,
            "name": "F4",
            "ticks": 115680,
            "time": 120.5,
            "velocity": 0.8740157480314961
          },
          {
            "duration": 0.22604166666666003,
            "durationTicks": 217,
            "midi": 74,
            "name": "D5",
            "ticks": 115680,
            "time": 120.5,
            "velocity": 0.8740157480314961
          },
          {
            "duration": 0.45104166666666856,
            "durationTicks": 433,
            "midi": 67,
            "name": "G4",
            "ticks": 115920,
            "time": 120.75,
            "velocity": 0.9133858267716536
          },
          {
            "duration": 0.45104166666666856,
            "durationTicks": 433,
            "midi": 75,
            "name": "D#5",
            "ticks": 115920,
            "time": 120.75,
            "velocity": 0.9133858267716536
          },
          {
            "duration": 0.22604166666666003,
            "durationTicks": 217,
            "midi": 70,
            "name": "A#4",
            "ticks": 117120,
            "time": 122,
            "velocity": 0.8346456692913385
          },
          {
            "duration": 0.22604166666666003,
            "durationTicks": 217,
            "midi": 77,
            "name": "F5",
            "ticks": 117120,
            "time": 122,
            "velocity": 0.8346456692913385
          },
          {
            "duration": 0.22604166666666003,
            "durationTicks": 217,
            "midi": 70,
            "name": "A#4",
            "ticks": 117360,
            "time": 122.25,
            "velocity": 0.8661417322834646
          },
          {
            "duration": 0.22604166666666003,
            "durationTicks": 217,
            "midi": 77,
            "name": "F5",
            "ticks": 117360,
            "time": 122.25,
            "velocity": 0.8661417322834646
          },
          {
            "duration": 0.22604166666666003,
            "durationTicks": 217,
            "midi": 70,
            "name": "A#4",
            "ticks": 117600,
            "time": 122.5,
            "velocity": 0.9133858267716536
          },
          {
            "duration": 0.22604166666666003,
            "durationTicks": 217,
            "midi": 77,
            "name": "F5",
            "ticks": 117600,
            "time": 122.5,
            "velocity": 0.9133858267716536
          },
          {
            "duration": 0.05833333333333712,
            "durationTicks": 56,
            "midi": 63,
            "name": "D#4",
            "ticks": 117784,
            "time": 122.69166666666666,
            "velocity": 0.9291338582677166
          },
          {
            "duration": 0.45104166666666856,
            "durationTicks": 433,
            "midi": 70,
            "name": "A#4",
            "ticks": 117812,
            "time": 122.72083333333333,
            "velocity": 0.9291338582677166
          },
          {
            "duration": 0.45104166666666856,
            "durationTicks": 433,
            "midi": 79,
            "name": "G5",
            "ticks": 117840,
            "time": 122.75,
            "velocity": 0.9291338582677166
          },
          {
            "duration": 0.22604166666666003,
            "durationTicks": 217,
            "midi": 67,
            "name": "G4",
            "ticks": 120960,
            "time": 126,
            "velocity": 0.8188976377952756
          },
          {
            "duration": 0.22604166666666003,
            "durationTicks": 217,
            "midi": 67,
            "name": "G4",
            "ticks": 121200,
            "time": 126.25,
            "velocity": 0.8740157480314961
          },
          {
            "duration": 0.22604166666666003,
            "durationTicks": 217,
            "midi": 67,
            "name": "G4",
            "ticks": 121440,
            "time": 126.5,
            "velocity": 0.9133858267716536
          },
          {
            "duration": 1.5,
            "durationTicks": 1440,
            "midi": 63,
            "name": "D#4",
            "ticks": 121680,
            "time": 126.75,
            "velocity": 0.7795275590551181
          },
          {
            "duration": 0.22604166666667425,
            "durationTicks": 217,
            "midi": 65,
            "name": "F4",
            "ticks": 123360,
            "time": 128.5,
            "velocity": 0.7952755905511811
          },
          {
            "duration": 0.22604166666667425,
            "durationTicks": 217,
            "midi": 65,
            "name": "F4",
            "ticks": 123600,
            "time": 128.75,
            "velocity": 0.889763779527559
          },
          {
            "duration": 0.22604166666667425,
            "durationTicks": 217,
            "midi": 65,
            "name": "F4",
            "ticks": 123840,
            "time": 129,
            "velocity": 0.889763779527559
          },
          {
            "duration": 2.5,
            "durationTicks": 2400,
            "midi": 62,
            "name": "D4",
            "ticks": 124080,
            "time": 129.25,
            "velocity": 0.8503937007874016
          },
          {
            "duration": 0.22604166666667425,
            "durationTicks": 217,
            "midi": 67,
            "name": "G4",
            "ticks": 126720,
            "time": 132,
            "velocity": 0.4330708661417323
          },
          {
            "duration": 0.22604166666667425,
            "durationTicks": 217,
            "midi": 67,
            "name": "G4",
            "ticks": 126960,
            "time": 132.25,
            "velocity": 0.49606299212598426
          },
          {
            "duration": 0.22604166666667425,
            "durationTicks": 217,
            "midi": 67,
            "name": "G4",
            "ticks": 127200,
            "time": 132.5,
            "velocity": 0.4330708661417323
          },
          {
            "duration": 3.2260416666666742,
            "durationTicks": 3097,
            "midi": 63,
            "name": "D#4",
            "ticks": 127440,
            "time": 132.75,
            "velocity": 0.4409448818897638
          },
          {
            "duration": 0.22604166666667425,
            "durationTicks": 217,
            "midi": 67,
            "name": "G4",
            "ticks": 130560,
            "time": 136,
            "velocity": 0.5275590551181102
          },
          {
            "duration": 0.22604166666667425,
            "durationTicks": 217,
            "midi": 67,
            "name": "G4",
            "ticks": 130800,
            "time": 136.25,
            "velocity": 0.4409448818897638
          },
          {
            "duration": 0.22604166666667425,
            "durationTicks": 217,
            "midi": 67,
            "name": "G4",
            "ticks": 131040,
            "time": 136.5,
            "velocity": 0.5039370078740157
          },
          {
            "duration": 1.9000000000000057,
            "durationTicks": 1824,
            "midi": 62,
            "name": "D4",
            "ticks": 131280,
            "time": 136.75,
            "velocity": 0.3937007874015748
          },
          {
            "duration": 2.2260416666666742,
            "durationTicks": 2137,
            "midi": 67,
            "name": "G4",
            "ticks": 133200,
            "time": 138.75,
            "velocity": 0.5433070866141733
          },
          {
            "duration": 0.22604166666667425,
            "durationTicks": 217,
            "midi": 63,
            "name": "D#4",
            "ticks": 135360,
            "time": 141,
            "velocity": 0.4251968503937008
          },
          {
            "duration": 0.22604166666667425,
            "durationTicks": 217,
            "midi": 63,
            "name": "D#4",
            "ticks": 135600,
            "time": 141.25,
            "velocity": 0.48031496062992124
          },
          {
            "duration": 0.22604166666667425,
            "durationTicks": 217,
            "midi": 65,
            "name": "F4",
            "ticks": 135840,
            "time": 141.5,
            "velocity": 0.5275590551181102
          },
          {
            "duration": 1.2260416666666742,
            "durationTicks": 1177,
            "midi": 67,
            "name": "G4",
            "ticks": 136080,
            "time": 141.75,
            "velocity": 0.5039370078740157
          },
          {
            "duration": 0.22604166666667425,
            "durationTicks": 217,
            "midi": 63,
            "name": "D#4",
            "ticks": 137280,
            "time": 143,
            "velocity": 0.4409448818897638
          },
          {
            "duration": 0.22604166666667425,
            "durationTicks": 217,
            "midi": 63,
            "name": "D#4",
            "ticks": 137520,
            "time": 143.25,
            "velocity": 0.4251968503937008
          },
          {
            "duration": 0.22604166666667425,
            "durationTicks": 217,
            "midi": 65,
            "name": "F4",
            "ticks": 137760,
            "time": 143.5,
            "velocity": 0.5039370078740157
          },
          {
            "duration": 0.22604166666667425,
            "durationTicks": 217,
            "midi": 67,
            "name": "G4",
            "ticks": 138000,
            "time": 143.75,
            "velocity": 0.5354330708661418
          },
          {
            "duration": 0.22604166666667425,
            "durationTicks": 217,
            "midi": 74,
            "name": "D5",
            "ticks": 138240,
            "time": 144,
            "velocity": 0.5590551181102362
          },
          {
            "duration": 0.22604166666667425,
            "durationTicks": 217,
            "midi": 74,
            "name": "D5",
            "ticks": 138480,
            "time": 144.25,
            "velocity": 0.5826771653543307
          },
          {
            "duration": 0.22604166666667425,
            "durationTicks": 217,
            "midi": 67,
            "name": "G4",
            "ticks": 138720,
            "time": 144.5,
            "velocity": 0.49606299212598426
          },
          {
            "duration": 0.05833333333333712,
            "durationTicks": 56,
            "midi": 60,
            "name": "C4",
            "ticks": 138904,
            "time": 144.69166666666666,
            "velocity": 0.889763779527559
          },
          {
            "duration": 0.45104166666666856,
            "durationTicks": 433,
            "midi": 67,
            "name": "G4",
            "ticks": 138932,
            "time": 144.72083333333333,
            "velocity": 0.889763779527559
          },
          {
            "duration": 0.45104166666666856,
            "durationTicks": 433,
            "midi": 75,
            "name": "D#5",
            "ticks": 138960,
            "time": 144.75,
            "velocity": 0.889763779527559
          },
          {
            "duration": 0.05833333333333712,
            "durationTicks": 56,
            "midi": 56,
            "name": "G#3",
            "ticks": 139864,
            "time": 145.69166666666666,
            "velocity": 0.6929133858267716
          },
          {
            "duration": 0.45104166666666856,
            "durationTicks": 433,
            "midi": 66,
            "name": "F#4",
            "ticks": 139892,
            "time": 145.72083333333333,
            "velocity": 0.6929133858267716
          },
          {
            "duration": 0.45104166666666856,
            "durationTicks": 433,
            "midi": 72,
            "name": "C5",
            "ticks": 139920,
            "time": 145.75,
            "velocity": 0.6929133858267716
          },
          {
            "duration": 0.05833333333333712,
            "durationTicks": 56,
            "midi": 55,
            "name": "G3",
            "ticks": 140824,
            "time": 146.69166666666666,
            "velocity": 0.6850393700787402
          },
          {
            "duration": 0.45104166666666856,
            "durationTicks": 433,
            "midi": 62,
            "name": "D4",
            "ticks": 140852,
            "time": 146.72083333333333,
            "velocity": 0.6850393700787402
          },
          {
            "duration": 0.45104166666666856,
            "durationTicks": 433,
            "midi": 71,
            "name": "B4",
            "ticks": 140880,
            "time": 146.75,
            "velocity": 0.6850393700787402
          },
          {
            "duration": 0.22604166666667425,
            "durationTicks": 217,
            "midi": 68,
            "name": "G#4",
            "ticks": 142320,
            "time": 148.25,
            "velocity": 0.6535433070866141
          },
          {
            "duration": 0.22604166666667425,
            "durationTicks": 217,
            "midi": 68,
            "name": "G#4",
            "ticks": 142560,
            "time": 148.5,
            "velocity": 0.7716535433070866
          },
          {
            "duration": 0.22604166666667425,
            "durationTicks": 217,
            "midi": 68,
            "name": "G#4",
            "ticks": 142800,
            "time": 148.75,
            "velocity": 0.7716535433070866
          },
          {
            "duration": 2.5,
            "durationTicks": 2400,
            "midi": 65,
            "name": "F4",
            "ticks": 143040,
            "time": 149,
            "velocity": 0.7086614173228346
          },
          {
            "duration": 0.22604166666667425,
            "durationTicks": 217,
            "midi": 62,
            "name": "D4",
            "ticks": 146640,
            "time": 152.75,
            "velocity": 0.4330708661417323
          },
          {
            "duration": 0.22604166666667425,
            "durationTicks": 217,
            "midi": 62,
            "name": "D4",
            "ticks": 146880,
            "time": 153,
            "velocity": 0.4645669291338583
          },
          {
            "duration": 0.22604166666667425,
            "durationTicks": 217,
            "midi": 62,
            "name": "D4",
            "ticks": 147120,
            "time": 153.25,
            "velocity": 0.4881889763779528
          },
          {
            "duration": 1.9000000000000057,
            "durationTicks": 1824,
            "midi": 59,
            "name": "B3",
            "ticks": 147360,
            "time": 153.5,
            "velocity": 0.4645669291338583
          },
          {
            "duration": 0.45104166666666856,
            "durationTicks": 433,
            "midi": 60,
            "name": "C4",
            "ticks": 149280,
            "time": 155.5,
            "velocity": 0.5354330708661418
          },
          {
            "duration": 0.22604166666667425,
            "durationTicks": 217,
            "midi": 62,
            "name": "D4",
            "ticks": 150480,
            "time": 156.75,
            "velocity": 0.4566929133858268
          },
          {
            "duration": 0.22604166666667425,
            "durationTicks": 217,
            "midi": 62,
            "name": "D4",
            "ticks": 150720,
            "time": 157,
            "velocity": 0.47244094488188976
          },
          {
            "duration": 0.22604166666667425,
            "durationTicks": 217,
            "midi": 62,
            "name": "D4",
            "ticks": 150960,
            "time": 157.25,
            "velocity": 0.49606299212598426
          },
          {
            "duration": 1.9000000000000057,
            "durationTicks": 1824,
            "midi": 59,
            "name": "B3",
            "ticks": 151200,
            "time": 157.5,
            "velocity": 0.4330708661417323
          },
          {
            "duration": 0.22604166666667425,
            "durationTicks": 217,
            "midi": 60,
            "name": "C4",
            "ticks": 153120,
            "time": 159.5,
            "velocity": 0.5196850393700787
          },
          {
            "duration": 0.22604166666667425,
            "durationTicks": 217,
            "midi": 67,
            "name": "G4",
            "ticks": 153360,
            "time": 159.75,
            "velocity": 0.5905511811023622
          },
          {
            "duration": 0.22604166666667425,
            "durationTicks": 217,
            "midi": 67,
            "name": "G4",
            "ticks": 153600,
            "time": 160,
            "velocity": 0.49606299212598426
          },
          {
            "duration": 0.22604166666667425,
            "durationTicks": 217,
            "midi": 63,
            "name": "D#4",
            "ticks": 153840,
            "time": 160.25,
            "velocity": 0.4251968503937008
          },
          {
            "duration": 1.2260416666666742,
            "durationTicks": 1177,
            "midi": 65,
            "name": "F4",
            "ticks": 154080,
            "time": 160.5,
            "velocity": 0.5039370078740157
          },
          {
            "duration": 0.22604166666667425,
            "durationTicks": 217,
            "midi": 68,
            "name": "G#4",
            "ticks": 155280,
            "time": 161.75,
            "velocity": 0.5590551181102362
          },
          {
            "duration": 0.22604166666667425,
            "durationTicks": 217,
            "midi": 68,
            "name": "G#4",
            "ticks": 155520,
            "time": 162,
            "velocity": 0.5039370078740157
          },
          {
            "duration": 0.22604166666667425,
            "durationTicks": 217,
            "midi": 65,
            "name": "F4",
            "ticks": 155760,
            "time": 162.25,
            "velocity": 0.47244094488188976
          },
          {
            "duration": 1.2260416666666742,
            "durationTicks": 1177,
            "midi": 67,
            "name": "G4",
            "ticks": 156000,
            "time": 162.5,
            "velocity": 0.5590551181102362
          },
          {
            "duration": 0.22604166666667425,
            "durationTicks": 217,
            "midi": 67,
            "name": "G4",
            "ticks": 157200,
            "time": 163.75,
            "velocity": 0.5196850393700787
          },
          {
            "duration": 0.22604166666667425,
            "durationTicks": 217,
            "midi": 67,
            "name": "G4",
            "ticks": 157440,
            "time": 164,
            "velocity": 0.5511811023622047
          },
          {
            "duration": 0.22604166666667425,
            "durationTicks": 217,
            "midi": 63,
            "name": "D#4",
            "ticks": 157680,
            "time": 164.25,
            "velocity": 0.5118110236220472
          },
          {
            "duration": 0.22604166666667425,
            "durationTicks": 217,
            "midi": 68,
            "name": "G#4",
            "ticks": 157920,
            "time": 164.5,
            "velocity": 0.7244094488188977
          },
          {
            "duration": 0.22604166666667425,
            "durationTicks": 217,
            "midi": 68,
            "name": "G#4",
            "ticks": 158160,
            "time": 164.75,
            "velocity": 0.5984251968503937
          },
          {
            "duration": 0.22604166666667425,
            "durationTicks": 217,
            "midi": 68,
            "name": "G#4",
            "ticks": 158400,
            "time": 165,
            "velocity": 0.6062992125984252
          },
          {
            "duration": 0.22604166666667425,
            "durationTicks": 217,
            "midi": 65,
            "name": "F4",
            "ticks": 158640,
            "time": 165.25,
            "velocity": 0.5354330708661418
          },
          {
            "duration": 0.22604166666667425,
            "durationTicks": 217,
            "midi": 70,
            "name": "A#4",
            "ticks": 158880,
            "time": 165.5,
            "velocity": 0.7795275590551181
          },
          {
            "duration": 0.22604166666667425,
            "durationTicks": 217,
            "midi": 70,
            "name": "A#4",
            "ticks": 159120,
            "time": 165.75,
            "velocity": 0.6456692913385826
          },
          {
            "duration": 0.22604166666667425,
            "durationTicks": 217,
            "midi": 70,
            "name": "A#4",
            "ticks": 159360,
            "time": 166,
            "velocity": 0.6692913385826772
          },
          {
            "duration": 0.22604166666667425,
            "durationTicks": 217,
            "midi": 67,
            "name": "G4",
            "ticks": 159600,
            "time": 166.25,
            "velocity": 0.5984251968503937
          },
          {
            "duration": 0.22604166666667425,
            "durationTicks": 217,
            "midi": 72,
            "name": "C5",
            "ticks": 159840,
            "time": 166.5,
            "velocity": 0.8740157480314961
          },
          {
            "duration": 0.22604166666667425,
            "durationTicks": 217,
            "midi": 60,
            "name": "C4",
            "ticks": 160080,
            "time": 166.75,
            "velocity": 0.5039370078740157
          },
          {
            "duration": 0.22604166666667425,
            "durationTicks": 217,
            "midi": 60,
            "name": "C4",
            "ticks": 160320,
            "time": 167,
            "velocity": 0.5905511811023622
          },
          {
            "duration": 0.22604166666667425,
            "durationTicks": 217,
            "midi": 56,
            "name": "G#3",
            "ticks": 160560,
            "time": 167.25,
            "velocity": 0.6062992125984252
          },
          {
            "duration": 0.22604166666667425,
            "durationTicks": 217,
            "midi": 64,
            "name": "E4",
            "ticks": 160800,
            "time": 167.5,
            "velocity": 0.968503937007874
          },
          {
            "duration": 0.22604166666667425,
            "durationTicks": 217,
            "midi": 64,
            "name": "E4",
            "ticks": 161040,
            "time": 167.75,
            "velocity": 0.6692913385826772
          },
          {
            "duration": 0.22604166666667425,
            "durationTicks": 217,
            "midi": 64,
            "name": "E4",
            "ticks": 161280,
            "time": 168,
            "velocity": 0.6850393700787402
          },
          {
            "duration": 0.22604166666667425,
            "durationTicks": 217,
            "midi": 58,
            "name": "A#3",
            "ticks": 161520,
            "time": 168.25,
            "velocity": 0.6377952755905512
          },
          {
            "duration": 0.22604166666667425,
            "durationTicks": 217,
            "midi": 65,
            "name": "F4",
            "ticks": 161760,
            "time": 168.5,
            "velocity": 0.9448818897637795
          },
          {
            "duration": 0.22604166666667425,
            "durationTicks": 217,
            "midi": 65,
            "name": "F4",
            "ticks": 162000,
            "time": 168.75,
            "velocity": 0.7559055118110236
          },
          {
            "duration": 0.22604166666667425,
            "durationTicks": 217,
            "midi": 65,
            "name": "F4",
            "ticks": 162240,
            "time": 169,
            "velocity": 0.7086614173228346
          },
          {
            "duration": 0.22604166666667425,
            "durationTicks": 217,
            "midi": 60,
            "name": "C4",
            "ticks": 162480,
            "time": 169.25,
            "velocity": 0.6377952755905512
          },
          {
            "duration": 0.22604166666667425,
            "durationTicks": 217,
            "midi": 68,
            "name": "G#4",
            "ticks": 162720,
            "time": 169.5,
            "velocity": 0.9921259842519685
          },
          {
            "duration": 0.22604166666667425,
            "durationTicks": 217,
            "midi": 68,
            "name": "G#4",
            "ticks": 162960,
            "time": 169.75,
            "velocity": 0.7401574803149606
          },
          {
            "duration": 0.22604166666667425,
            "durationTicks": 217,
            "midi": 68,
            "name": "G#4",
            "ticks": 163200,
            "time": 170,
            "velocity": 0.7322834645669292
          },
          {
            "duration": 0.22604166666667425,
            "durationTicks": 217,
            "midi": 65,
            "name": "F4",
            "ticks": 163440,
            "time": 170.25,
            "velocity": 0.6850393700787402
          },
          {
            "duration": 0.22604166666667425,
            "durationTicks": 217,
            "midi": 67,
            "name": "G4",
            "ticks": 163680,
            "time": 170.5,
            "velocity": 0.8267716535433071
          },
          {
            "duration": 0.22604166666667425,
            "durationTicks": 217,
            "midi": 63,
            "name": "D#4",
            "ticks": 163920,
            "time": 170.75,
            "velocity": 0.8503937007874016
          },
          {
            "duration": 0.22604166666667425,
            "durationTicks": 217,
            "midi": 72,
            "name": "C5",
            "ticks": 163920,
            "time": 170.75,
            "velocity": 0.8503937007874016
          },
          {
            "duration": 0.22604166666667425,
            "durationTicks": 217,
            "midi": 63,
            "name": "D#4",
            "ticks": 164160,
            "time": 171,
            "velocity": 0.7716535433070866
          },
          {
            "duration": 0.22604166666667425,
            "durationTicks": 217,
            "midi": 72,
            "name": "C5",
            "ticks": 164160,
            "time": 171,
            "velocity": 0.7716535433070866
          },
          {
            "duration": 0.22604166666667425,
            "durationTicks": 217,
            "midi": 63,
            "name": "D#4",
            "ticks": 164400,
            "time": 171.25,
            "velocity": 0.7244094488188977
          },
          {
            "duration": 0.22604166666667425,
            "durationTicks": 217,
            "midi": 72,
            "name": "C5",
            "ticks": 164400,
            "time": 171.25,
            "velocity": 0.7244094488188977
          },
          {
            "duration": 0.22604166666667425,
            "durationTicks": 217,
            "midi": 63,
            "name": "D#4",
            "ticks": 164640,
            "time": 171.5,
            "velocity": 0.7637795275590551
          },
          {
            "duration": 0.22604166666667425,
            "durationTicks": 217,
            "midi": 72,
            "name": "C5",
            "ticks": 164640,
            "time": 171.5,
            "velocity": 0.7637795275590551
          },
          {
            "duration": 0.22604166666667425,
            "durationTicks": 217,
            "midi": 63,
            "name": "D#4",
            "ticks": 164880,
            "time": 171.75,
            "velocity": 0.7716535433070866
          },
          {
            "duration": 0.22604166666667425,
            "durationTicks": 217,
            "midi": 72,
            "name": "C5",
            "ticks": 164880,
            "time": 171.75,
            "velocity": 0.7716535433070866
          },
          {
            "duration": 0.22604166666667425,
            "durationTicks": 217,
            "midi": 63,
            "name": "D#4",
            "ticks": 165120,
            "time": 172,
            "velocity": 0.7480314960629921
          },
          {
            "duration": 0.22604166666667425,
            "durationTicks": 217,
            "midi": 72,
            "name": "C5",
            "ticks": 165120,
            "time": 172,
            "velocity": 0.7480314960629921
          },
          {
            "duration": 0.22604166666667425,
            "durationTicks": 217,
            "midi": 63,
            "name": "D#4",
            "ticks": 165360,
            "time": 172.25,
            "velocity": 0.7559055118110236
          },
          {
            "duration": 0.22604166666667425,
            "durationTicks": 217,
            "midi": 72,
            "name": "C5",
            "ticks": 165360,
            "time": 172.25,
            "velocity": 0.7559055118110236
          },
          {
            "duration": 0.22604166666667425,
            "durationTicks": 217,
            "midi": 63,
            "name": "D#4",
            "ticks": 165600,
            "time": 172.5,
            "velocity": 0.7716535433070866
          },
          {
            "duration": 0.22604166666667425,
            "durationTicks": 217,
            "midi": 72,
            "name": "C5",
            "ticks": 165600,
            "time": 172.5,
            "velocity": 0.7716535433070866
          },
          {
            "duration": 0.22604166666667425,
            "durationTicks": 217,
            "midi": 63,
            "name": "D#4",
            "ticks": 165840,
            "time": 172.75,
            "velocity": 0.7795275590551181
          },
          {
            "duration": 0.22604166666667425,
            "durationTicks": 217,
            "midi": 72,
            "name": "C5",
            "ticks": 165840,
            "time": 172.75,
            "velocity": 0.7795275590551181
          },
          {
            "duration": 0.22604166666667425,
            "durationTicks": 217,
            "midi": 63,
            "name": "D#4",
            "ticks": 166080,
            "time": 173,
            "velocity": 0.7874015748031497
          },
          {
            "duration": 0.22604166666667425,
            "durationTicks": 217,
            "midi": 72,
            "name": "C5",
            "ticks": 166080,
            "time": 173,
            "velocity": 0.7874015748031497
          },
          {
            "duration": 0.22604166666667425,
            "durationTicks": 217,
            "midi": 63,
            "name": "D#4",
            "ticks": 166320,
            "time": 173.25,
            "velocity": 0.7716535433070866
          },
          {
            "duration": 0.22604166666667425,
            "durationTicks": 217,
            "midi": 72,
            "name": "C5",
            "ticks": 166320,
            "time": 173.25,
            "velocity": 0.7716535433070866
          },
          {
            "duration": 0.22604166666667425,
            "durationTicks": 217,
            "midi": 63,
            "name": "D#4",
            "ticks": 166560,
            "time": 173.5,
            "velocity": 0.7716535433070866
          },
          {
            "duration": 0.22604166666667425,
            "durationTicks": 217,
            "midi": 72,
            "name": "C5",
            "ticks": 166560,
            "time": 173.5,
            "velocity": 0.7716535433070866
          },
          {
            "duration": 0.22604166666667425,
            "durationTicks": 217,
            "midi": 63,
            "name": "D#4",
            "ticks": 166800,
            "time": 173.75,
            "velocity": 0.7716535433070866
          },
          {
            "duration": 0.22604166666667425,
            "durationTicks": 217,
            "midi": 72,
            "name": "C5",
            "ticks": 166800,
            "time": 173.75,
            "velocity": 0.7716535433070866
          },
          {
            "duration": 0.22604166666667425,
            "durationTicks": 217,
            "midi": 63,
            "name": "D#4",
            "ticks": 167040,
            "time": 174,
            "velocity": 0.7795275590551181
          },
          {
            "duration": 0.22604166666667425,
            "durationTicks": 217,
            "midi": 72,
            "name": "C5",
            "ticks": 167040,
            "time": 174,
            "velocity": 0.7795275590551181
          },
          {
            "duration": 0.22604166666667425,
            "durationTicks": 217,
            "midi": 63,
            "name": "D#4",
            "ticks": 167280,
            "time": 174.25,
            "velocity": 0.7559055118110236
          },
          {
            "duration": 0.22604166666667425,
            "durationTicks": 217,
            "midi": 72,
            "name": "C5",
            "ticks": 167280,
            "time": 174.25,
            "velocity": 0.7559055118110236
          },
          {
            "duration": 0.22604166666667425,
            "durationTicks": 217,
            "midi": 62,
            "name": "D4",
            "ticks": 167520,
            "time": 174.5,
            "velocity": 0.7401574803149606
          },
          {
            "duration": 0.22604166666667425,
            "durationTicks": 217,
            "midi": 71,
            "name": "B4",
            "ticks": 167520,
            "time": 174.5,
            "velocity": 0.7401574803149606
          },
          {
            "duration": 0.22604166666667425,
            "durationTicks": 217,
            "midi": 77,
            "name": "F5",
            "ticks": 167760,
            "time": 174.75,
            "velocity": 0.8976377952755905
          },
          {
            "duration": 0.22604166666667425,
            "durationTicks": 217,
            "midi": 74,
            "name": "D5",
            "ticks": 168000,
            "time": 175,
            "velocity": 0.7007874015748031
          },
          {
            "duration": 0.22604166666667425,
            "durationTicks": 217,
            "midi": 74,
            "name": "D5",
            "ticks": 168240,
            "time": 175.25,
            "velocity": 0.7559055118110236
          },
          {
            "duration": 0.22604166666667425,
            "durationTicks": 217,
            "midi": 71,
            "name": "B4",
            "ticks": 168480,
            "time": 175.5,
            "velocity": 0.7401574803149606
          },
          {
            "duration": 0.22604166666667425,
            "durationTicks": 217,
            "midi": 67,
            "name": "G4",
            "ticks": 168720,
            "time": 175.75,
            "velocity": 0.6692913385826772
          },
          {
            "duration": 0.22604166666667425,
            "durationTicks": 217,
            "midi": 65,
            "name": "F4",
            "ticks": 168960,
            "time": 176,
            "velocity": 0.7007874015748031
          },
          {
            "duration": 0.22604166666667425,
            "durationTicks": 217,
            "midi": 65,
            "name": "F4",
            "ticks": 169200,
            "time": 176.25,
            "velocity": 0.7716535433070866
          },
          {
            "duration": 0.22604166666667425,
            "durationTicks": 217,
            "midi": 62,
            "name": "D4",
            "ticks": 169440,
            "time": 176.5,
            "velocity": 0.7322834645669292
          },
          {
            "duration": 0.22604166666667425,
            "durationTicks": 217,
            "midi": 59,
            "name": "B3",
            "ticks": 169680,
            "time": 176.75,
            "velocity": 0.7480314960629921
          },
          {
            "duration": 0.22604166666667425,
            "durationTicks": 217,
            "midi": 55,
            "name": "G3",
            "ticks": 169920,
            "time": 177,
            "velocity": 0.7165354330708661
          },
          {
            "duration": 0.22604166666667425,
            "durationTicks": 217,
            "midi": 65,
            "name": "F4",
            "ticks": 170160,
            "time": 177.25,
            "velocity": 0.9921259842519685
          },
          {
            "duration": 0.22604166666667425,
            "durationTicks": 217,
            "midi": 62,
            "name": "D4",
            "ticks": 170400,
            "time": 177.5,
            "velocity": 0.7559055118110236
          },
          {
            "duration": 0.22604166666667425,
            "durationTicks": 217,
            "midi": 59,
            "name": "B3",
            "ticks": 170640,
            "time": 177.75,
            "velocity": 0.7244094488188977
          },
          {
            "duration": 0.22604166666667425,
            "durationTicks": 217,
            "midi": 60,
            "name": "C4",
            "ticks": 170880,
            "time": 178,
            "velocity": 0.8031496062992126
          },
          {
            "duration": 0.22604166666667425,
            "durationTicks": 217,
            "midi": 60,
            "name": "C4",
            "ticks": 171120,
            "time": 178.25,
            "velocity": 0.7480314960629921
          },
          {
            "duration": 0.22604166666667425,
            "durationTicks": 217,
            "midi": 72,
            "name": "C5",
            "ticks": 171360,
            "time": 178.5,
            "velocity": 1
          },
          {
            "duration": 0.22604166666667425,
            "durationTicks": 217,
            "midi": 75,
            "name": "D#5",
            "ticks": 171600,
            "time": 178.75,
            "velocity": 1
          },
          {
            "duration": 0.22604166666667425,
            "durationTicks": 217,
            "midi": 75,
            "name": "D#5",
            "ticks": 171840,
            "time": 179,
            "velocity": 0.8976377952755905
          },
          {
            "duration": 0.22604166666667425,
            "durationTicks": 217,
            "midi": 75,
            "name": "D#5",
            "ticks": 172080,
            "time": 179.25,
            "velocity": 0.8976377952755905
          },
          {
            "duration": 0.22604166666667425,
            "durationTicks": 217,
            "midi": 72,
            "name": "C5",
            "ticks": 172320,
            "time": 179.5,
            "velocity": 0.84251968503937
          },
          {
            "duration": 0.22604166666667425,
            "durationTicks": 217,
            "midi": 69,
            "name": "A4",
            "ticks": 172560,
            "time": 179.75,
            "velocity": 0.7952755905511811
          },
          {
            "duration": 0.22604166666667425,
            "durationTicks": 217,
            "midi": 69,
            "name": "A4",
            "ticks": 172800,
            "time": 180,
            "velocity": 0.8503937007874016
          },
          {
            "duration": 0.22604166666667425,
            "durationTicks": 217,
            "midi": 69,
            "name": "A4",
            "ticks": 173040,
            "time": 180.25,
            "velocity": 0.9133858267716536
          },
          {
            "duration": 0.22604166666667425,
            "durationTicks": 217,
            "midi": 66,
            "name": "F#4",
            "ticks": 173280,
            "time": 180.5,
            "velocity": 0.8503937007874016
          },
          {
            "duration": 0.22604166666667425,
            "durationTicks": 217,
            "midi": 63,
            "name": "D#4",
            "ticks": 173520,
            "time": 180.75,
            "velocity": 0.7716535433070866
          },
          {
            "duration": 0.22604166666667425,
            "durationTicks": 217,
            "midi": 63,
            "name": "D#4",
            "ticks": 173760,
            "time": 181,
            "velocity": 0.889763779527559
          },
          {
            "duration": 0.22604166666667425,
            "durationTicks": 217,
            "midi": 63,
            "name": "D#4",
            "ticks": 174000,
            "time": 181.25,
            "velocity": 0.9212598425196851
          },
          {
            "duration": 0.22604166666667425,
            "durationTicks": 217,
            "midi": 60,
            "name": "C4",
            "ticks": 174240,
            "time": 181.5,
            "velocity": 0.7952755905511811
          },
          {
            "duration": 0.22604166666667425,
            "durationTicks": 217,
            "midi": 57,
            "name": "A3",
            "ticks": 174480,
            "time": 181.75,
            "velocity": 1
          },
          {
            "duration": 0.22604166666667425,
            "durationTicks": 217,
            "midi": 69,
            "name": "A4",
            "ticks": 174480,
            "time": 181.75,
            "velocity": 1
          },
          {
            "duration": 0.22604166666667425,
            "durationTicks": 217,
            "midi": 57,
            "name": "A3",
            "ticks": 174720,
            "time": 182,
            "velocity": 0.9291338582677166
          },
          {
            "duration": 0.22604166666667425,
            "durationTicks": 217,
            "midi": 69,
            "name": "A4",
            "ticks": 174720,
            "time": 182,
            "velocity": 0.9291338582677166
          },
          {
            "duration": 0.22604166666667425,
            "durationTicks": 217,
            "midi": 57,
            "name": "A3",
            "ticks": 174960,
            "time": 182.25,
            "velocity": 0.889763779527559
          },
          {
            "duration": 0.22604166666667425,
            "durationTicks": 217,
            "midi": 69,
            "name": "A4",
            "ticks": 174960,
            "time": 182.25,
            "velocity": 0.889763779527559
          },
          {
            "duration": 0.45104166666666856,
            "durationTicks": 433,
            "midi": 57,
            "name": "A3",
            "ticks": 175200,
            "time": 182.5,
            "velocity": 0.8818897637795275
          },
          {
            "duration": 0.45104166666666856,
            "durationTicks": 433,
            "midi": 69,
            "name": "A4",
            "ticks": 175200,
            "time": 182.5,
            "velocity": 0.8818897637795275
          },
          {
            "duration": 0.05833333333333712,
            "durationTicks": 56,
            "midi": 58,
            "name": "A#3",
            "ticks": 177064,
            "time": 184.44166666666666,
            "velocity": 0.8031496062992126
          },
          {
            "duration": 0.45104166666666856,
            "durationTicks": 433,
            "midi": 65,
            "name": "F4",
            "ticks": 177092,
            "time": 184.47083333333333,
            "velocity": 0.8031496062992126
          },
          {
            "duration": 0.45104166666666856,
            "durationTicks": 433,
            "midi": 70,
            "name": "A#4",
            "ticks": 177120,
            "time": 184.5,
            "velocity": 0.8031496062992126
          },
          {
            "duration": 1.0197916666666629,
            "durationTicks": 979,
            "midi": 67,
            "name": "G4",
            "ticks": 181920,
            "time": 189.5,
            "velocity": 0.4409448818897638
          },
          {
            "duration": 0.9489583333333371,
            "durationTicks": 911,
            "midi": 68,
            "name": "G#4",
            "ticks": 182880,
            "time": 190.5,
            "velocity": 0.4015748031496063
          },
          {
            "duration": 1.0197916666666629,
            "durationTicks": 979,
            "midi": 68,
            "name": "G#4",
            "ticks": 183840,
            "time": 191.5,
            "velocity": 0.4881889763779528
          },
          {
            "duration": 0.9489583333333371,
            "durationTicks": 911,
            "midi": 67,
            "name": "G4",
            "ticks": 184800,
            "time": 192.5,
            "velocity": 0.4645669291338583
          },
          {
            "duration": 1.0197916666666629,
            "durationTicks": 979,
            "midi": 67,
            "name": "G4",
            "ticks": 185760,
            "time": 193.5,
            "velocity": 0.48031496062992124
          },
          {
            "duration": 0.9489583333333371,
            "durationTicks": 911,
            "midi": 68,
            "name": "G#4",
            "ticks": 186720,
            "time": 194.5,
            "velocity": 0.47244094488188976
          },
          {
            "duration": 1.0197916666666629,
            "durationTicks": 979,
            "midi": 68,
            "name": "G#4",
            "ticks": 187680,
            "time": 195.5,
            "velocity": 0.48031496062992124
          },
          {
            "duration": 0.9489583333333371,
            "durationTicks": 911,
            "midi": 67,
            "name": "G4",
            "ticks": 188640,
            "time": 196.5,
            "velocity": 0.47244094488188976
          },
          {
            "duration": 1.0197916666666629,
            "durationTicks": 979,
            "midi": 67,
            "name": "G4",
            "ticks": 189600,
            "time": 197.5,
            "velocity": 0.47244094488188976
          },
          {
            "duration": 0.9489583333333371,
            "durationTicks": 911,
            "midi": 68,
            "name": "G#4",
            "ticks": 190560,
            "time": 198.5,
            "velocity": 0.5118110236220472
          },
          {
            "duration": 1.0197916666666629,
            "durationTicks": 979,
            "midi": 68,
            "name": "G#4",
            "ticks": 191520,
            "time": 199.5,
            "velocity": 0.47244094488188976
          },
          {
            "duration": 0.9489583333333371,
            "durationTicks": 911,
            "midi": 67,
            "name": "G4",
            "ticks": 192480,
            "time": 200.5,
            "velocity": 0.47244094488188976
          },
          {
            "duration": 1.9000000000000057,
            "durationTicks": 1824,
            "midi": 67,
            "name": "G4",
            "ticks": 193440,
            "time": 201.5,
            "velocity": 0.5118110236220472
          },
          {
            "duration": 1.0197916666666629,
            "durationTicks": 979,
            "midi": 67,
            "name": "G4",
            "ticks": 195360,
            "time": 203.5,
            "velocity": 0.48031496062992124
          },
          {
            "duration": 0.9489583333333371,
            "durationTicks": 911,
            "midi": 65,
            "name": "F4",
            "ticks": 196320,
            "time": 204.5,
            "velocity": 0.4645669291338583
          },
          {
            "duration": 1.0197916666666629,
            "durationTicks": 979,
            "midi": 68,
            "name": "G#4",
            "ticks": 197280,
            "time": 205.5,
            "velocity": 0.5354330708661418
          },
          {
            "duration": 0.9489583333333371,
            "durationTicks": 911,
            "midi": 70,
            "name": "A#4",
            "ticks": 198240,
            "time": 206.5,
            "velocity": 0.5590551181102362
          },
          {
            "duration": 1.0197916666666629,
            "durationTicks": 979,
            "midi": 70,
            "name": "A#4",
            "ticks": 199200,
            "time": 207.5,
            "velocity": 0.4566929133858268
          },
          {
            "duration": 0.9489583333333371,
            "durationTicks": 911,
            "midi": 68,
            "name": "G#4",
            "ticks": 200160,
            "time": 208.5,
            "velocity": 0.4251968503937008
          },
          {
            "duration": 0.5093750000000057,
            "durationTicks": 489,
            "midi": 63,
            "name": "D#4",
            "ticks": 201120,
            "time": 209.5,
            "velocity": 0.4409448818897638
          },
          {
            "duration": 0.5093750000000057,
            "durationTicks": 489,
            "midi": 65,
            "name": "F4",
            "ticks": 201600,
            "time": 210,
            "velocity": 0.4330708661417323
          },
          {
            "duration": 0.5093750000000057,
            "durationTicks": 489,
            "midi": 66,
            "name": "F#4",
            "ticks": 202080,
            "time": 210.5,
            "velocity": 0.5039370078740157
          },
          {
            "duration": 0.5093750000000057,
            "durationTicks": 489,
            "midi": 65,
            "name": "F4",
            "ticks": 202560,
            "time": 211,
            "velocity": 0.5118110236220472
          },
          {
            "duration": 0.5093750000000057,
            "durationTicks": 489,
            "midi": 63,
            "name": "D#4",
            "ticks": 203040,
            "time": 211.5,
            "velocity": 0.4566929133858268
          },
          {
            "duration": 0.4749999999999943,
            "durationTicks": 456,
            "midi": 65,
            "name": "F4",
            "ticks": 203520,
            "time": 212,
            "velocity": 0.5039370078740157
          },
          {
            "duration": 0.5093750000000057,
            "durationTicks": 489,
            "midi": 66,
            "name": "F#4",
            "ticks": 204000,
            "time": 212.5,
            "velocity": 0.5905511811023622
          },
          {
            "duration": 0.5093750000000057,
            "durationTicks": 489,
            "midi": 65,
            "name": "F4",
            "ticks": 204480,
            "time": 213,
            "velocity": 0.5354330708661418
          },
          {
            "duration": 0.5093750000000057,
            "durationTicks": 489,
            "midi": 63,
            "name": "D#4",
            "ticks": 204960,
            "time": 213.5,
            "velocity": 0.5354330708661418
          },
          {
            "duration": 0.4749999999999943,
            "durationTicks": 456,
            "midi": 65,
            "name": "F4",
            "ticks": 205440,
            "time": 214,
            "velocity": 0.5826771653543307
          },
          {
            "duration": 0.5093750000000057,
            "durationTicks": 489,
            "midi": 66,
            "name": "F#4",
            "ticks": 205920,
            "time": 214.5,
            "velocity": 0.7007874015748031
          },
          {
            "duration": 0.5093750000000057,
            "durationTicks": 489,
            "midi": 65,
            "name": "F4",
            "ticks": 206400,
            "time": 215,
            "velocity": 0.6377952755905512
          },
          {
            "duration": 0.5093750000000057,
            "durationTicks": 489,
            "midi": 63,
            "name": "D#4",
            "ticks": 206880,
            "time": 215.5,
            "velocity": 0.6141732283464567
          },
          {
            "duration": 0.4749999999999943,
            "durationTicks": 456,
            "midi": 65,
            "name": "F4",
            "ticks": 207360,
            "time": 216,
            "velocity": 0.6771653543307087
          },
          {
            "duration": 0.5093750000000057,
            "durationTicks": 489,
            "midi": 66,
            "name": "F#4",
            "ticks": 207840,
            "time": 216.5,
            "velocity": 0.7086614173228346
          },
          {
            "duration": 0.5093750000000057,
            "durationTicks": 489,
            "midi": 65,
            "name": "F4",
            "ticks": 208320,
            "time": 217,
            "velocity": 0.7007874015748031
          },
          {
            "duration": 0.5093750000000057,
            "durationTicks": 489,
            "midi": 63,
            "name": "D#4",
            "ticks": 208800,
            "time": 217.5,
            "velocity": 0.6377952755905512
          },
          {
            "duration": 0.5093750000000057,
            "durationTicks": 489,
            "midi": 65,
            "name": "F4",
            "ticks": 209280,
            "time": 218,
            "velocity": 0.8031496062992126
          },
          {
            "duration": 0.5093750000000057,
            "durationTicks": 489,
            "midi": 66,
            "name": "F#4",
            "ticks": 209760,
            "time": 218.5,
            "velocity": 0.8346456692913385
          },
          {
            "duration": 0.5093750000000057,
            "durationTicks": 489,
            "midi": 65,
            "name": "F4",
            "ticks": 210240,
            "time": 219,
            "velocity": 0.7559055118110236
          },
          {
            "duration": 0.5093750000000057,
            "durationTicks": 489,
            "midi": 66,
            "name": "F#4",
            "ticks": 210720,
            "time": 219.5,
            "velocity": 0.8031496062992126
          },
          {
            "duration": 0.4749999999999943,
            "durationTicks": 456,
            "midi": 69,
            "name": "A4",
            "ticks": 211200,
            "time": 220,
            "velocity": 0.84251968503937
          },
          {
            "duration": 1.2260416666666742,
            "durationTicks": 1177,
            "midi": 70,
            "name": "A#4",
            "ticks": 211680,
            "time": 220.5,
            "velocity": 1
          },
          {
            "duration": 1.2260416666666742,
            "durationTicks": 1177,
            "midi": 82,
            "name": "A#5",
            "ticks": 211680,
            "time": 220.5,
            "velocity": 1
          },
          {
            "duration": 0.11354166666666288,
            "durationTicks": 109,
            "midi": 84,
            "name": "C6",
            "ticks": 212880,
            "time": 221.75,
            "velocity": 0.937007874015748
          },
          {
            "duration": 0.11354166666666288,
            "durationTicks": 109,
            "midi": 82,
            "name": "A#5",
            "ticks": 213120,
            "time": 222,
            "velocity": 0.84251968503937
          },
          {
            "duration": 0.11354166666666288,
            "durationTicks": 109,
            "midi": 80,
            "name": "G#5",
            "ticks": 213360,
            "time": 222.25,
            "velocity": 0.8503937007874016
          },
          {
            "duration": 0.2541666666666629,
            "durationTicks": 244,
            "midi": 80,
            "name": "G#5",
            "ticks": 213600,
            "time": 222.5,
            "velocity": 0.8740157480314961
          },
          {
            "duration": 0.23645833333333144,
            "durationTicks": 227,
            "midi": 79,
            "name": "G5",
            "ticks": 213840,
            "time": 222.75,
            "velocity": 0.8346456692913385
          },
          {
            "duration": 0.11354166666666288,
            "durationTicks": 109,
            "midi": 77,
            "name": "F5",
            "ticks": 214080,
            "time": 223,
            "velocity": 0.8110236220472441
          },
          {
            "duration": 0.11354166666666288,
            "durationTicks": 109,
            "midi": 75,
            "name": "D#5",
            "ticks": 214320,
            "time": 223.25,
            "velocity": 0.84251968503937
          },
          {
            "duration": 0.2541666666666629,
            "durationTicks": 244,
            "midi": 75,
            "name": "D#5",
            "ticks": 214560,
            "time": 223.5,
            "velocity": 0.8818897637795275
          },
          {
            "duration": 0.23645833333333144,
            "durationTicks": 227,
            "midi": 74,
            "name": "D5",
            "ticks": 214800,
            "time": 223.75,
            "velocity": 0.889763779527559
          },
          {
            "duration": 0.11354166666666288,
            "durationTicks": 109,
            "midi": 72,
            "name": "C5",
            "ticks": 215040,
            "time": 224,
            "velocity": 0.8188976377952756
          },
          {
            "duration": 0.11354166666666288,
            "durationTicks": 109,
            "midi": 74,
            "name": "D5",
            "ticks": 215280,
            "time": 224.25,
            "velocity": 0.9212598425196851
          },
          {
            "duration": 0.2541666666666629,
            "durationTicks": 244,
            "midi": 77,
            "name": "F5",
            "ticks": 215520,
            "time": 224.5,
            "velocity": 0.984251968503937
          },
          {
            "duration": 0.23645833333333144,
            "durationTicks": 227,
            "midi": 75,
            "name": "D#5",
            "ticks": 215760,
            "time": 224.75,
            "velocity": 0.968503937007874
          },
          {
            "duration": 0.11354166666666288,
            "durationTicks": 109,
            "midi": 70,
            "name": "A#4",
            "ticks": 216000,
            "time": 225,
            "velocity": 0.7716535433070866
          },
          {
            "duration": 0.11354166666666288,
            "durationTicks": 109,
            "midi": 67,
            "name": "G4",
            "ticks": 216240,
            "time": 225.25,
            "velocity": 0.7952755905511811
          },
          {
            "duration": 0.2541666666666629,
            "durationTicks": 244,
            "midi": 74,
            "name": "D5",
            "ticks": 216480,
            "time": 225.5,
            "velocity": 1
          },
          {
            "duration": 0.23645833333333144,
            "durationTicks": 227,
            "midi": 72,
            "name": "C5",
            "ticks": 216720,
            "time": 225.75,
            "velocity": 0.9606299212598425
          },
          {
            "duration": 0.11354166666666288,
            "durationTicks": 109,
            "midi": 68,
            "name": "G#4",
            "ticks": 216960,
            "time": 226,
            "velocity": 0.7874015748031497
          },
          {
            "duration": 0.11354166666666288,
            "durationTicks": 109,
            "midi": 65,
            "name": "F4",
            "ticks": 217200,
            "time": 226.25,
            "velocity": 0.7874015748031497
          },
          {
            "duration": 0.2541666666666629,
            "durationTicks": 244,
            "midi": 72,
            "name": "C5",
            "ticks": 217440,
            "time": 226.5,
            "velocity": 1
          },
          {
            "duration": 0.23645833333333144,
            "durationTicks": 227,
            "midi": 70,
            "name": "A#4",
            "ticks": 217680,
            "time": 226.75,
            "velocity": 0.9763779527559056
          },
          {
            "duration": 0.11354166666666288,
            "durationTicks": 109,
            "midi": 67,
            "name": "G4",
            "ticks": 217920,
            "time": 227,
            "velocity": 0.8188976377952756
          },
          {
            "duration": 0.11354166666666288,
            "durationTicks": 109,
            "midi": 63,
            "name": "D#4",
            "ticks": 218160,
            "time": 227.25,
            "velocity": 0.8031496062992126
          },
          {
            "duration": 0.22604166666667425,
            "durationTicks": 217,
            "midi": 58,
            "name": "A#3",
            "ticks": 218400,
            "time": 227.5,
            "velocity": 0.8110236220472441
          },
          {
            "duration": 0.2541666666666629,
            "durationTicks": 244,
            "midi": 69,
            "name": "A4",
            "ticks": 218640,
            "time": 227.75,
            "velocity": 1
          },
          {
            "duration": 0.2541666666666629,
            "durationTicks": 244,
            "midi": 70,
            "name": "A#4",
            "ticks": 218880,
            "time": 228,
            "velocity": 1
          },
          {
            "duration": 0.2541666666666629,
            "durationTicks": 244,
            "midi": 69,
            "name": "A4",
            "ticks": 219120,
            "time": 228.25,
            "velocity": 0.8582677165354331
          },
          {
            "duration": 0.2541666666666629,
            "durationTicks": 244,
            "midi": 70,
            "name": "A#4",
            "ticks": 219360,
            "time": 228.5,
            "velocity": 0.9291338582677166
          },
          {
            "duration": 0.2541666666666629,
            "durationTicks": 244,
            "midi": 69,
            "name": "A4",
            "ticks": 219600,
            "time": 228.75,
            "velocity": 0.8740157480314961
          },
          {
            "duration": 0.23645833333333144,
            "durationTicks": 227,
            "midi": 70,
            "name": "A#4",
            "ticks": 219840,
            "time": 229,
            "velocity": 0.937007874015748
          },
          {
            "duration": 0.22604166666667425,
            "durationTicks": 217,
            "midi": 69,
            "name": "A4",
            "ticks": 220080,
            "time": 229.25,
            "velocity": 0.889763779527559
          },
          {
            "duration": 0.11354166666666288,
            "durationTicks": 109,
            "midi": 70,
            "name": "A#4",
            "ticks": 220320,
            "time": 229.5,
            "velocity": 0.9606299212598425
          },
          {
            "duration": 0.11354166666666288,
            "durationTicks": 109,
            "midi": 84,
            "name": "C6",
            "ticks": 220560,
            "time": 229.75,
            "velocity": 1
          },
          {
            "duration": 0.11354166666666288,
            "durationTicks": 109,
            "midi": 82,
            "name": "A#5",
            "ticks": 220800,
            "time": 230,
            "velocity": 0.8503937007874016
          },
          {
            "duration": 0.11354166666666288,
            "durationTicks": 109,
            "midi": 80,
            "name": "G#5",
            "ticks": 221040,
            "time": 230.25,
            "velocity": 0.8188976377952756
          },
          {
            "duration": 0.2541666666666629,
            "durationTicks": 244,
            "midi": 80,
            "name": "G#5",
            "ticks": 221280,
            "time": 230.5,
            "velocity": 0.8661417322834646
          },
          {
            "duration": 0.23645833333333144,
            "durationTicks": 227,
            "midi": 79,
            "name": "G5",
            "ticks": 221520,
            "time": 230.75,
            "velocity": 0.8503937007874016
          },
          {
            "duration": 0.11354166666666288,
            "durationTicks": 109,
            "midi": 77,
            "name": "F5",
            "ticks": 221760,
            "time": 231,
            "velocity": 0.8346456692913385
          },
          {
            "duration": 0.11354166666666288,
            "durationTicks": 109,
            "midi": 75,
            "name": "D#5",
            "ticks": 222000,
            "time": 231.25,
            "velocity": 0.8031496062992126
          },
          {
            "duration": 0.2541666666666629,
            "durationTicks": 244,
            "midi": 75,
            "name": "D#5",
            "ticks": 222240,
            "time": 231.5,
            "velocity": 0.889763779527559
          },
          {
            "duration": 0.23645833333333144,
            "durationTicks": 227,
            "midi": 74,
            "name": "D5",
            "ticks": 222480,
            "time": 231.75,
            "velocity": 0.8503937007874016
          },
          {
            "duration": 0.11354166666666288,
            "durationTicks": 109,
            "midi": 72,
            "name": "C5",
            "ticks": 222720,
            "time": 232,
            "velocity": 0.8188976377952756
          },
          {
            "duration": 0.11354166666666288,
            "durationTicks": 109,
            "midi": 74,
            "name": "D5",
            "ticks": 222960,
            "time": 232.25,
            "velocity": 0.8976377952755905
          },
          {
            "duration": 0.2541666666666629,
            "durationTicks": 244,
            "midi": 77,
            "name": "F5",
            "ticks": 223200,
            "time": 232.5,
            "velocity": 0.9763779527559056
          },
          {
            "duration": 0.23645833333333144,
            "durationTicks": 227,
            "midi": 75,
            "name": "D#5",
            "ticks": 223440,
            "time": 232.75,
            "velocity": 0.9133858267716536
          },
          {
            "duration": 0.11354166666666288,
            "durationTicks": 109,
            "midi": 70,
            "name": "A#4",
            "ticks": 223680,
            "time": 233,
            "velocity": 0.7716535433070866
          },
          {
            "duration": 0.11354166666666288,
            "durationTicks": 109,
            "midi": 67,
            "name": "G4",
            "ticks": 223920,
            "time": 233.25,
            "velocity": 0.7795275590551181
          },
          {
            "duration": 0.2541666666666629,
            "durationTicks": 244,
            "midi": 74,
            "name": "D5",
            "ticks": 224160,
            "time": 233.5,
            "velocity": 1
          },
          {
            "duration": 0.23645833333333144,
            "durationTicks": 227,
            "midi": 72,
            "name": "C5",
            "ticks": 224400,
            "time": 233.75,
            "velocity": 0.937007874015748
          },
          {
            "duration": 0.11354166666666288,
            "durationTicks": 109,
            "midi": 68,
            "name": "G#4",
            "ticks": 224640,
            "time": 234,
            "velocity": 0.8267716535433071
          },
          {
            "duration": 0.11354166666666288,
            "durationTicks": 109,
            "midi": 65,
            "name": "F4",
            "ticks": 224880,
            "time": 234.25,
            "velocity": 0.7795275590551181
          },
          {
            "duration": 0.2541666666666629,
            "durationTicks": 244,
            "midi": 72,
            "name": "C5",
            "ticks": 225120,
            "time": 234.5,
            "velocity": 1
          },
          {
            "duration": 0.23645833333333144,
            "durationTicks": 227,
            "midi": 70,
            "name": "A#4",
            "ticks": 225360,
            "time": 234.75,
            "velocity": 0.968503937007874
          },
          {
            "duration": 0.11354166666666288,
            "durationTicks": 109,
            "midi": 67,
            "name": "G4",
            "ticks": 225600,
            "time": 235,
            "velocity": 0.7795275590551181
          },
          {
            "duration": 0.11354166666666288,
            "durationTicks": 109,
            "midi": 63,
            "name": "D#4",
            "ticks": 225840,
            "time": 235.25,
            "velocity": 0.7795275590551181
          },
          {
            "duration": 0.22604166666667425,
            "durationTicks": 217,
            "midi": 58,
            "name": "A#3",
            "ticks": 226080,
            "time": 235.5,
            "velocity": 0.8110236220472441
          },
          {
            "duration": 0.22604166666667425,
            "durationTicks": 217,
            "midi": 70,
            "name": "A#4",
            "ticks": 226320,
            "time": 235.75,
            "velocity": 1
          },
          {
            "duration": 0.22604166666667425,
            "durationTicks": 217,
            "midi": 82,
            "name": "A#5",
            "ticks": 226560,
            "time": 236,
            "velocity": 1
          },
          {
            "duration": 0.22604166666667425,
            "durationTicks": 217,
            "midi": 82,
            "name": "A#5",
            "ticks": 226800,
            "time": 236.25,
            "velocity": 0.9763779527559056
          },
          {
            "duration": 3.2260416666666742,
            "durationTicks": 3097,
            "midi": 63,
            "name": "D#4",
            "ticks": 227040,
            "time": 236.5,
            "velocity": 0.6692913385826772
          },
          {
            "duration": 0.22604166666667425,
            "durationTicks": 217,
            "midi": 62,
            "name": "D4",
            "ticks": 230160,
            "time": 239.75,
            "velocity": 0.84251968503937
          },
          {
            "duration": 0.22604166666667425,
            "durationTicks": 217,
            "midi": 62,
            "name": "D4",
            "ticks": 230400,
            "time": 240,
            "velocity": 0.8818897637795275
          },
          {
            "duration": 0.22604166666667425,
            "durationTicks": 217,
            "midi": 62,
            "name": "D4",
            "ticks": 230640,
            "time": 240.25,
            "velocity": 0.905511811023622
          },
          {
            "duration": 3.2260416666666742,
            "durationTicks": 3097,
            "midi": 63,
            "name": "D#4",
            "ticks": 230880,
            "time": 240.5,
            "velocity": 0.9606299212598425
          },
          {
            "duration": 0.22604166666667425,
            "durationTicks": 217,
            "midi": 65,
            "name": "F4",
            "ticks": 234000,
            "time": 243.75,
            "velocity": 1
          },
          {
            "duration": 0.22604166666667425,
            "durationTicks": 217,
            "midi": 74,
            "name": "D5",
            "ticks": 234000,
            "time": 243.75,
            "velocity": 1
          },
          {
            "duration": 0.22604166666667425,
            "durationTicks": 217,
            "midi": 65,
            "name": "F4",
            "ticks": 234240,
            "time": 244,
            "velocity": 0.9606299212598425
          },
          {
            "duration": 0.22604166666667425,
            "durationTicks": 217,
            "midi": 74,
            "name": "D5",
            "ticks": 234240,
            "time": 244,
            "velocity": 0.9606299212598425
          },
          {
            "duration": 0.22604166666667425,
            "durationTicks": 217,
            "midi": 65,
            "name": "F4",
            "ticks": 234480,
            "time": 244.25,
            "velocity": 0.8818897637795275
          },
          {
            "duration": 0.22604166666667425,
            "durationTicks": 217,
            "midi": 74,
            "name": "D5",
            "ticks": 234480,
            "time": 244.25,
            "velocity": 0.8818897637795275
          },
          {
            "duration": 0.45104166666666856,
            "durationTicks": 433,
            "midi": 67,
            "name": "G4",
            "ticks": 234720,
            "time": 244.5,
            "velocity": 0.9291338582677166
          },
          {
            "duration": 0.45104166666666856,
            "durationTicks": 433,
            "midi": 75,
            "name": "D#5",
            "ticks": 234720,
            "time": 244.5,
            "velocity": 0.9291338582677166
          },
          {
            "duration": 0.22604166666667425,
            "durationTicks": 217,
            "midi": 65,
            "name": "F4",
            "ticks": 235920,
            "time": 245.75,
            "velocity": 0.7952755905511811
          },
          {
            "duration": 0.22604166666667425,
            "durationTicks": 217,
            "midi": 74,
            "name": "D5",
            "ticks": 235920,
            "time": 245.75,
            "velocity": 0.7952755905511811
          },
          {
            "duration": 0.22604166666667425,
            "durationTicks": 217,
            "midi": 65,
            "name": "F4",
            "ticks": 236160,
            "time": 246,
            "velocity": 0.889763779527559
          },
          {
            "duration": 0.22604166666667425,
            "durationTicks": 217,
            "midi": 74,
            "name": "D5",
            "ticks": 236160,
            "time": 246,
            "velocity": 0.889763779527559
          },
          {
            "duration": 0.22604166666667425,
            "durationTicks": 217,
            "midi": 65,
            "name": "F4",
            "ticks": 236400,
            "time": 246.25,
            "velocity": 0.8976377952755905
          },
          {
            "duration": 0.22604166666667425,
            "durationTicks": 217,
            "midi": 74,
            "name": "D5",
            "ticks": 236400,
            "time": 246.25,
            "velocity": 0.8976377952755905
          },
          {
            "duration": 0.45104166666666856,
            "durationTicks": 433,
            "midi": 67,
            "name": "G4",
            "ticks": 236640,
            "time": 246.5,
            "velocity": 0.937007874015748
          },
          {
            "duration": 0.45104166666666856,
            "durationTicks": 433,
            "midi": 75,
            "name": "D#5",
            "ticks": 236640,
            "time": 246.5,
            "velocity": 0.937007874015748
          },
          {
            "duration": 0.22604166666667425,
            "durationTicks": 217,
            "midi": 70,
            "name": "A#4",
            "ticks": 237840,
            "time": 247.75,
            "velocity": 0.7795275590551181
          },
          {
            "duration": 0.22604166666667425,
            "durationTicks": 217,
            "midi": 77,
            "name": "F5",
            "ticks": 237840,
            "time": 247.75,
            "velocity": 0.7795275590551181
          },
          {
            "duration": 0.22604166666667425,
            "durationTicks": 217,
            "midi": 70,
            "name": "A#4",
            "ticks": 238080,
            "time": 248,
            "velocity": 0.8740157480314961
          },
          {
            "duration": 0.22604166666667425,
            "durationTicks": 217,
            "midi": 77,
            "name": "F5",
            "ticks": 238080,
            "time": 248,
            "velocity": 0.8740157480314961
          },
          {
            "duration": 0.22604166666667425,
            "durationTicks": 217,
            "midi": 70,
            "name": "A#4",
            "ticks": 238320,
            "time": 248.25,
            "velocity": 0.8818897637795275
          },
          {
            "duration": 0.22604166666667425,
            "durationTicks": 217,
            "midi": 77,
            "name": "F5",
            "ticks": 238320,
            "time": 248.25,
            "velocity": 0.8818897637795275
          },
          {
            "duration": 0.05833333333333712,
            "durationTicks": 56,
            "midi": 63,
            "name": "D#4",
            "ticks": 238504,
            "time": 248.44166666666666,
            "velocity": 0.9606299212598425
          },
          {
            "duration": 0.45104166666666856,
            "durationTicks": 433,
            "midi": 70,
            "name": "A#4",
            "ticks": 238532,
            "time": 248.47083333333333,
            "velocity": 0.9606299212598425
          },
          {
            "duration": 0.45104166666666856,
            "durationTicks": 433,
            "midi": 79,
            "name": "G5",
            "ticks": 238560,
            "time": 248.5,
            "velocity": 0.9606299212598425
          },
          {
            "duration": 0.22604166666667425,
            "durationTicks": 217,
            "midi": 61,
            "name": "C#4",
            "ticks": 242640,
            "time": 252.75,
            "velocity": 0.8031496062992126
          },
          {
            "duration": 0.22604166666667425,
            "durationTicks": 217,
            "midi": 61,
            "name": "C#4",
            "ticks": 242880,
            "time": 253,
            "velocity": 0.889763779527559
          },
          {
            "duration": 0.22604166666667425,
            "durationTicks": 217,
            "midi": 61,
            "name": "C#4",
            "ticks": 243120,
            "time": 253.25,
            "velocity": 0.8740157480314961
          },
          {
            "duration": 2.5,
            "durationTicks": 2400,
            "midi": 60,
            "name": "C4",
            "ticks": 243360,
            "time": 253.5,
            "velocity": 0.84251968503937
          },
          {
            "duration": 0.22604166666667425,
            "durationTicks": 217,
            "midi": 72,
            "name": "C5",
            "ticks": 246000,
            "time": 256.25,
            "velocity": 0.41732283464566927
          },
          {
            "duration": 0.22604166666667425,
            "durationTicks": 217,
            "midi": 72,
            "name": "C5",
            "ticks": 246240,
            "time": 256.5,
            "velocity": 0.47244094488188976
          },
          {
            "duration": 0.22604166666667425,
            "durationTicks": 217,
            "midi": 72,
            "name": "C5",
            "ticks": 246480,
            "time": 256.75,
            "velocity": 0.48031496062992124
          },
          {
            "duration": 3.2260416666666742,
            "durationTicks": 3097,
            "midi": 68,
            "name": "G#4",
            "ticks": 246720,
            "time": 257,
            "velocity": 0.44881889763779526
          },
          {
            "duration": 0.22604166666667425,
            "durationTicks": 217,
            "midi": 72,
            "name": "C5",
            "ticks": 249840,
            "time": 260.25,
            "velocity": 0.5433070866141733
          },
          {
            "duration": 0.22604166666667425,
            "durationTicks": 217,
            "midi": 72,
            "name": "C5",
            "ticks": 250080,
            "time": 260.5,
            "velocity": 0.49606299212598426
          },
          {
            "duration": 0.22604166666667425,
            "durationTicks": 217,
            "midi": 72,
            "name": "C5",
            "ticks": 250320,
            "time": 260.75,
            "velocity": 0.48031496062992124
          },
          {
            "duration": 3.8999999999999773,
            "durationTicks": 3744,
            "midi": 67,
            "name": "G4",
            "ticks": 250560,
            "time": 261,
            "velocity": 0.4015748031496063
          },
          {
            "duration": 0.22604166666667425,
            "durationTicks": 217,
            "midi": 68,
            "name": "G#4",
            "ticks": 254400,
            "time": 265,
            "velocity": 0.48031496062992124
          },
          {
            "duration": 0.22604166666667425,
            "durationTicks": 217,
            "midi": 68,
            "name": "G#4",
            "ticks": 254640,
            "time": 265.25,
            "velocity": 0.5118110236220472
          },
          {
            "duration": 0.22604166666667425,
            "durationTicks": 217,
            "midi": 68,
            "name": "G#4",
            "ticks": 254880,
            "time": 265.5,
            "velocity": 0.4881889763779528
          },
          {
            "duration": 0.22604166666667425,
            "durationTicks": 217,
            "midi": 70,
            "name": "A#4",
            "ticks": 255120,
            "time": 265.75,
            "velocity": 0.5039370078740157
          },
          {
            "duration": 1.2260416666666742,
            "durationTicks": 1177,
            "midi": 72,
            "name": "C5",
            "ticks": 255360,
            "time": 266,
            "velocity": 0.5118110236220472
          },
          {
            "duration": 0.22604166666667425,
            "durationTicks": 217,
            "midi": 68,
            "name": "G#4",
            "ticks": 256560,
            "time": 267.25,
            "velocity": 0.4566929133858268
          },
          {
            "duration": 0.22604166666667425,
            "durationTicks": 217,
            "midi": 68,
            "name": "G#4",
            "ticks": 256800,
            "time": 267.5,
            "velocity": 0.4881889763779528
          },
          {
            "duration": 0.22604166666667425,
            "durationTicks": 217,
            "midi": 70,
            "name": "A#4",
            "ticks": 257040,
            "time": 267.75,
            "velocity": 0.5118110236220472
          },
          {
            "duration": 1.4510416666666401,
            "durationTicks": 1393,
            "midi": 72,
            "name": "C5",
            "ticks": 257280,
            "time": 268,
            "velocity": 0.5590551181102362
          },
          {
            "duration": 0.22604166666667425,
            "durationTicks": 217,
            "midi": 63,
            "name": "D#4",
            "ticks": 262320,
            "time": 273.25,
            "velocity": 0.4251968503937008
          },
          {
            "duration": 0.22604166666667425,
            "durationTicks": 217,
            "midi": 63,
            "name": "D#4",
            "ticks": 262560,
            "time": 273.5,
            "velocity": 0.48031496062992124
          },
          {
            "duration": 0.22604166666667425,
            "durationTicks": 217,
            "midi": 65,
            "name": "F4",
            "ticks": 262800,
            "time": 273.75,
            "velocity": 0.5196850393700787
          },
          {
            "duration": 1.2260416666666742,
            "durationTicks": 1177,
            "midi": 67,
            "name": "G4",
            "ticks": 263040,
            "time": 274,
            "velocity": 0.5118110236220472
          },
          {
            "duration": 0.22604166666667425,
            "durationTicks": 217,
            "midi": 63,
            "name": "D#4",
            "ticks": 264240,
            "time": 275.25,
            "velocity": 0.41732283464566927
          },
          {
            "duration": 0.22604166666667425,
            "durationTicks": 217,
            "midi": 63,
            "name": "D#4",
            "ticks": 264480,
            "time": 275.5,
            "velocity": 0.4881889763779528
          },
          {
            "duration": 0.22604166666667425,
            "durationTicks": 217,
            "midi": 65,
            "name": "F4",
            "ticks": 264720,
            "time": 275.75,
            "velocity": 0.5039370078740157
          },
          {
            "duration": 1.8999999999999773,
            "durationTicks": 1824,
            "midi": 67,
            "name": "G4",
            "ticks": 264960,
            "time": 276,
            "velocity": 0.5196850393700787
          },
          {
            "duration": 0.5093749999999773,
            "durationTicks": 489,
            "midi": 69,
            "name": "A4",
            "ticks": 266880,
            "time": 278,
            "velocity": 0.5905511811023622
          },
          {
            "duration": 0.5093749999999773,
            "durationTicks": 489,
            "midi": 70,
            "name": "A#4",
            "ticks": 267360,
            "time": 278.5,
            "velocity": 0.6141732283464567
          },
          {
            "duration": 0.5093749999999773,
            "durationTicks": 489,
            "midi": 72,
            "name": "C5",
            "ticks": 267840,
            "time": 279,
            "velocity": 0.7086614173228346
          },
          {
            "duration": 0.47500000000002274,
            "durationTicks": 456,
            "midi": 73,
            "name": "C#5",
            "ticks": 268320,
            "time": 279.5,
            "velocity": 0.7401574803149606
          },
          {
            "duration": 1.2260416666666742,
            "durationTicks": 1177,
            "midi": 74,
            "name": "D5",
            "ticks": 268800,
            "time": 280,
            "velocity": 0.5196850393700787
          },
          {
            "duration": 0.22604166666667425,
            "durationTicks": 217,
            "midi": 67,
            "name": "G4",
            "ticks": 270000,
            "time": 281.25,
            "velocity": 0.4330708661417323
          },
          {
            "duration": 0.22604166666667425,
            "durationTicks": 217,
            "midi": 67,
            "name": "G4",
            "ticks": 270240,
            "time": 281.5,
            "velocity": 0.44881889763779526
          },
          {
            "duration": 0.22604166666667425,
            "durationTicks": 217,
            "midi": 69,
            "name": "A4",
            "ticks": 270480,
            "time": 281.75,
            "velocity": 0.49606299212598426
          },
          {
            "duration": 0.45104166666664014,
            "durationTicks": 433,
            "midi": 66,
            "name": "F#4",
            "ticks": 270720,
            "time": 282,
            "velocity": 0.4645669291338583
          },
          {
            "duration": 0.22604166666667425,
            "durationTicks": 217,
            "midi": 79,
            "name": "G5",
            "ticks": 271920,
            "time": 283.25,
            "velocity": 0.44881889763779526
          },
          {
            "duration": 0.22604166666667425,
            "durationTicks": 217,
            "midi": 79,
            "name": "G5",
            "ticks": 272160,
            "time": 283.5,
            "velocity": 0.47244094488188976
          },
          {
            "duration": 0.22604166666667425,
            "durationTicks": 217,
            "midi": 81,
            "name": "A5",
            "ticks": 272400,
            "time": 283.75,
            "velocity": 0.5275590551181102
          },
          {
            "duration": 0.45104166666664014,
            "durationTicks": 433,
            "midi": 78,
            "name": "F#5",
            "ticks": 272640,
            "time": 284,
            "velocity": 0.44881889763779526
          },
          {
            "duration": 0.7260416666666742,
            "durationTicks": 697,
            "midi": 74,
            "name": "D5",
            "ticks": 273120,
            "time": 284.5,
            "velocity": 0.3937007874015748
          },
          {
            "duration": 0.22604166666667425,
            "durationTicks": 217,
            "midi": 67,
            "name": "G4",
            "ticks": 273840,
            "time": 285.25,
            "velocity": 0.36220472440944884
          },
          {
            "duration": 0.22604166666667425,
            "durationTicks": 217,
            "midi": 67,
            "name": "G4",
            "ticks": 274080,
            "time": 285.5,
            "velocity": 0.48031496062992124
          },
          {
            "duration": 0.22604166666667425,
            "durationTicks": 217,
            "midi": 69,
            "name": "A4",
            "ticks": 274320,
            "time": 285.75,
            "velocity": 0.5196850393700787
          },
          {
            "duration": 0.45104166666664014,
            "durationTicks": 433,
            "midi": 70,
            "name": "A#4",
            "ticks": 274560,
            "time": 286,
            "velocity": 0.4881889763779528
          },
          {
            "duration": 0.22604166666667425,
            "durationTicks": 217,
            "midi": 65,
            "name": "F4",
            "ticks": 275760,
            "time": 287.25,
            "velocity": 0.44881889763779526
          },
          {
            "duration": 0.22604166666667425,
            "durationTicks": 217,
            "midi": 69,
            "name": "A4",
            "ticks": 276000,
            "time": 287.5,
            "velocity": 0.5196850393700787
          },
          {
            "duration": 0.22604166666667425,
            "durationTicks": 217,
            "midi": 70,
            "name": "A#4",
            "ticks": 276240,
            "time": 287.75,
            "velocity": 0.49606299212598426
          },
          {
            "duration": 0.45104166666664014,
            "durationTicks": 433,
            "midi": 72,
            "name": "C5",
            "ticks": 276480,
            "time": 288,
            "velocity": 0.4881889763779528
          },
          {
            "duration": 0.22604166666667425,
            "durationTicks": 217,
            "midi": 65,
            "name": "F4",
            "ticks": 277680,
            "time": 289.25,
            "velocity": 0.41732283464566927
          },
          {
            "duration": 0.22604166666667425,
            "durationTicks": 217,
            "midi": 69,
            "name": "A4",
            "ticks": 277920,
            "time": 289.5,
            "velocity": 0.49606299212598426
          },
          {
            "duration": 0.22604166666667425,
            "durationTicks": 217,
            "midi": 70,
            "name": "A#4",
            "ticks": 278160,
            "time": 289.75,
            "velocity": 0.5511811023622047
          },
          {
            "duration": 0.45104166666664014,
            "durationTicks": 433,
            "midi": 72,
            "name": "C5",
            "ticks": 278400,
            "time": 290,
            "velocity": 0.5275590551181102
          },
          {
            "duration": 0.22604166666667425,
            "durationTicks": 217,
            "midi": 67,
            "name": "G4",
            "ticks": 279600,
            "time": 291.25,
            "velocity": 0.4094488188976378
          },
          {
            "duration": 0.22604166666667425,
            "durationTicks": 217,
            "midi": 70,
            "name": "A#4",
            "ticks": 279840,
            "time": 291.5,
            "velocity": 0.5433070866141733
          },
          {
            "duration": 0.22604166666667425,
            "durationTicks": 217,
            "midi": 72,
            "name": "C5",
            "ticks": 280080,
            "time": 291.75,
            "velocity": 0.5669291338582677
          },
          {
            "duration": 0.45104166666664014,
            "durationTicks": 433,
            "midi": 74,
            "name": "D5",
            "ticks": 280320,
            "time": 292,
            "velocity": 0.49606299212598426
          },
          {
            "duration": 0.22604166666667425,
            "durationTicks": 217,
            "midi": 67,
            "name": "G4",
            "ticks": 281520,
            "time": 293.25,
            "velocity": 0.4330708661417323
          },
          {
            "duration": 0.22604166666667425,
            "durationTicks": 217,
            "midi": 70,
            "name": "A#4",
            "ticks": 281760,
            "time": 293.5,
            "velocity": 0.5905511811023622
          },
          {
            "duration": 0.22604166666667425,
            "durationTicks": 217,
            "midi": 72,
            "name": "C5",
            "ticks": 282000,
            "time": 293.75,
            "velocity": 0.6141732283464567
          },
          {
            "duration": 0.22604166666667425,
            "durationTicks": 217,
            "midi": 74,
            "name": "D5",
            "ticks": 282240,
            "time": 294,
            "velocity": 0.6062992125984252
          },
          {
            "duration": 0.22604166666667425,
            "durationTicks": 217,
            "midi": 70,
            "name": "A#4",
            "ticks": 282480,
            "time": 294.25,
            "velocity": 0.47244094488188976
          },
          {
            "duration": 0.22604166666667425,
            "durationTicks": 217,
            "midi": 72,
            "name": "C5",
            "ticks": 282720,
            "time": 294.5,
            "velocity": 0.6771653543307087
          },
          {
            "duration": 0.22604166666667425,
            "durationTicks": 217,
            "midi": 74,
            "name": "D5",
            "ticks": 282960,
            "time": 294.75,
            "velocity": 0.7086614173228346
          },
          {
            "duration": 0.22604166666667425,
            "durationTicks": 217,
            "midi": 69,
            "name": "A4",
            "ticks": 283200,
            "time": 295,
            "velocity": 0.6456692913385826
          },
          {
            "duration": 0.22604166666667425,
            "durationTicks": 217,
            "midi": 69,
            "name": "A4",
            "ticks": 283440,
            "time": 295.25,
            "velocity": 0.9133858267716536
          },
          {
            "duration": 0.22604166666667425,
            "durationTicks": 217,
            "midi": 78,
            "name": "F#5",
            "ticks": 283440,
            "time": 295.25,
            "velocity": 0.9133858267716536
          },
          {
            "duration": 0.22604166666667425,
            "durationTicks": 217,
            "midi": 69,
            "name": "A4",
            "ticks": 283680,
            "time": 295.5,
            "velocity": 0.7637795275590551
          },
          {
            "duration": 0.22604166666667425,
            "durationTicks": 217,
            "midi": 78,
            "name": "F#5",
            "ticks": 283680,
            "time": 295.5,
            "velocity": 0.7637795275590551
          },
          {
            "duration": 0.22604166666667425,
            "durationTicks": 217,
            "midi": 69,
            "name": "A4",
            "ticks": 283920,
            "time": 295.75,
            "velocity": 0.7637795275590551
          },
          {
            "duration": 0.22604166666667425,
            "durationTicks": 217,
            "midi": 78,
            "name": "F#5",
            "ticks": 283920,
            "time": 295.75,
            "velocity": 0.7637795275590551
          },
          {
            "duration": 0.22604166666667425,
            "durationTicks": 217,
            "midi": 69,
            "name": "A4",
            "ticks": 284160,
            "time": 296,
            "velocity": 0.7480314960629921
          },
          {
            "duration": 0.22604166666667425,
            "durationTicks": 217,
            "midi": 78,
            "name": "F#5",
            "ticks": 284160,
            "time": 296,
            "velocity": 0.7480314960629921
          },
          {
            "duration": 0.22604166666667425,
            "durationTicks": 217,
            "midi": 69,
            "name": "A4",
            "ticks": 284400,
            "time": 296.25,
            "velocity": 0.7637795275590551
          },
          {
            "duration": 0.22604166666667425,
            "durationTicks": 217,
            "midi": 78,
            "name": "F#5",
            "ticks": 284400,
            "time": 296.25,
            "velocity": 0.7637795275590551
          },
          {
            "duration": 0.22604166666667425,
            "durationTicks": 217,
            "midi": 69,
            "name": "A4",
            "ticks": 284640,
            "time": 296.5,
            "velocity": 0.7401574803149606
          },
          {
            "duration": 0.22604166666667425,
            "durationTicks": 217,
            "midi": 78,
            "name": "F#5",
            "ticks": 284640,
            "time": 296.5,
            "velocity": 0.7401574803149606
          },
          {
            "duration": 0.22604166666667425,
            "durationTicks": 217,
            "midi": 69,
            "name": "A4",
            "ticks": 284880,
            "time": 296.75,
            "velocity": 0.7874015748031497
          },
          {
            "duration": 0.22604166666667425,
            "durationTicks": 217,
            "midi": 78,
            "name": "F#5",
            "ticks": 284880,
            "time": 296.75,
            "velocity": 0.7874015748031497
          },
          {
            "duration": 0.45104166666664014,
            "durationTicks": 433,
            "midi": 69,
            "name": "A4",
            "ticks": 285120,
            "time": 297,
            "velocity": 0.7559055118110236
          },
          {
            "duration": 0.45104166666664014,
            "durationTicks": 433,
            "midi": 78,
            "name": "F#5",
            "ticks": 285120,
            "time": 297,
            "velocity": 0.7559055118110236
          },
          {
            "duration": 0.22604166666667425,
            "durationTicks": 217,
            "midi": 67,
            "name": "G4",
            "ticks": 286320,
            "time": 298.25,
            "velocity": 0.6850393700787402
          },
          {
            "duration": 0.22604166666667425,
            "durationTicks": 217,
            "midi": 70,
            "name": "A#4",
            "ticks": 286320,
            "time": 298.25,
            "velocity": 0.6850393700787402
          },
          {
            "duration": 0.22604166666667425,
            "durationTicks": 217,
            "midi": 67,
            "name": "G4",
            "ticks": 286560,
            "time": 298.5,
            "velocity": 0.7559055118110236
          },
          {
            "duration": 0.22604166666667425,
            "durationTicks": 217,
            "midi": 70,
            "name": "A#4",
            "ticks": 286560,
            "time": 298.5,
            "velocity": 0.7559055118110236
          },
          {
            "duration": 0.22604166666667425,
            "durationTicks": 217,
            "midi": 67,
            "name": "G4",
            "ticks": 286800,
            "time": 298.75,
            "velocity": 0.7559055118110236
          },
          {
            "duration": 0.22604166666667425,
            "durationTicks": 217,
            "midi": 70,
            "name": "A#4",
            "ticks": 286800,
            "time": 298.75,
            "velocity": 0.7559055118110236
          },
          {
            "duration": 0.22604166666667425,
            "durationTicks": 217,
            "midi": 67,
            "name": "G4",
            "ticks": 287040,
            "time": 299,
            "velocity": 0.7480314960629921
          },
          {
            "duration": 0.22604166666667425,
            "durationTicks": 217,
            "midi": 70,
            "name": "A#4",
            "ticks": 287040,
            "time": 299,
            "velocity": 0.7480314960629921
          },
          {
            "duration": 0.22604166666667425,
            "durationTicks": 217,
            "midi": 70,
            "name": "A#4",
            "ticks": 287280,
            "time": 299.25,
            "velocity": 0.9291338582677166
          },
          {
            "duration": 0.22604166666667425,
            "durationTicks": 217,
            "midi": 79,
            "name": "G5",
            "ticks": 287280,
            "time": 299.25,
            "velocity": 0.9291338582677166
          },
          {
            "duration": 0.22604166666667425,
            "durationTicks": 217,
            "midi": 70,
            "name": "A#4",
            "ticks": 287520,
            "time": 299.5,
            "velocity": 0.8188976377952756
          },
          {
            "duration": 0.22604166666667425,
            "durationTicks": 217,
            "midi": 79,
            "name": "G5",
            "ticks": 287520,
            "time": 299.5,
            "velocity": 0.8188976377952756
          },
          {
            "duration": 0.22604166666667425,
            "durationTicks": 217,
            "midi": 70,
            "name": "A#4",
            "ticks": 287760,
            "time": 299.75,
            "velocity": 0.7480314960629921
          },
          {
            "duration": 0.22604166666667425,
            "durationTicks": 217,
            "midi": 79,
            "name": "G5",
            "ticks": 287760,
            "time": 299.75,
            "velocity": 0.7480314960629921
          },
          {
            "duration": 0.22604166666667425,
            "durationTicks": 217,
            "midi": 70,
            "name": "A#4",
            "ticks": 288000,
            "time": 300,
            "velocity": 0.7559055118110236
          },
          {
            "duration": 0.22604166666667425,
            "durationTicks": 217,
            "midi": 79,
            "name": "G5",
            "ticks": 288000,
            "time": 300,
            "velocity": 0.7559055118110236
          },
          {
            "duration": 0.22604166666667425,
            "durationTicks": 217,
            "midi": 70,
            "name": "A#4",
            "ticks": 288240,
            "time": 300.25,
            "velocity": 0.7637795275590551
          },
          {
            "duration": 0.22604166666667425,
            "durationTicks": 217,
            "midi": 79,
            "name": "G5",
            "ticks": 288240,
            "time": 300.25,
            "velocity": 0.7637795275590551
          },
          {
            "duration": 0.22604166666667425,
            "durationTicks": 217,
            "midi": 70,
            "name": "A#4",
            "ticks": 288480,
            "time": 300.5,
            "velocity": 0.7637795275590551
          },
          {
            "duration": 0.22604166666667425,
            "durationTicks": 217,
            "midi": 79,
            "name": "G5",
            "ticks": 288480,
            "time": 300.5,
            "velocity": 0.7637795275590551
          },
          {
            "duration": 0.22604166666667425,
            "durationTicks": 217,
            "midi": 70,
            "name": "A#4",
            "ticks": 288720,
            "time": 300.75,
            "velocity": 0.7637795275590551
          },
          {
            "duration": 0.22604166666667425,
            "durationTicks": 217,
            "midi": 79,
            "name": "G5",
            "ticks": 288720,
            "time": 300.75,
            "velocity": 0.7637795275590551
          },
          {
            "duration": 0.45104166666664014,
            "durationTicks": 433,
            "midi": 70,
            "name": "A#4",
            "ticks": 288960,
            "time": 301,
            "velocity": 0.7874015748031497
          },
          {
            "duration": 0.45104166666664014,
            "durationTicks": 433,
            "midi": 79,
            "name": "G5",
            "ticks": 288960,
            "time": 301,
            "velocity": 0.7874015748031497
          },
          {
            "duration": 0.22604166666667425,
            "durationTicks": 217,
            "midi": 70,
            "name": "A#4",
            "ticks": 290160,
            "time": 302.25,
            "velocity": 0.7244094488188977
          },
          {
            "duration": 0.22604166666667425,
            "durationTicks": 217,
            "midi": 79,
            "name": "G5",
            "ticks": 290160,
            "time": 302.25,
            "velocity": 0.7244094488188977
          },
          {
            "duration": 0.22604166666667425,
            "durationTicks": 217,
            "midi": 70,
            "name": "A#4",
            "ticks": 290400,
            "time": 302.5,
            "velocity": 0.84251968503937
          },
          {
            "duration": 0.22604166666667425,
            "durationTicks": 217,
            "midi": 79,
            "name": "G5",
            "ticks": 290400,
            "time": 302.5,
            "velocity": 0.84251968503937
          },
          {
            "duration": 0.22604166666667425,
            "durationTicks": 217,
            "midi": 70,
            "name": "A#4",
            "ticks": 290640,
            "time": 302.75,
            "velocity": 0.8188976377952756
          },
          {
            "duration": 0.22604166666667425,
            "durationTicks": 217,
            "midi": 79,
            "name": "G5",
            "ticks": 290640,
            "time": 302.75,
            "velocity": 0.8188976377952756
          },
          {
            "duration": 0.45104166666664014,
            "durationTicks": 433,
            "midi": 70,
            "name": "A#4",
            "ticks": 290880,
            "time": 303,
            "velocity": 0.8188976377952756
          },
          {
            "duration": 0.45104166666664014,
            "durationTicks": 433,
            "midi": 79,
            "name": "G5",
            "ticks": 290880,
            "time": 303,
            "velocity": 0.8188976377952756
          },
          {
            "duration": 0.22604166666667425,
            "durationTicks": 217,
            "midi": 73,
            "name": "C#5",
            "ticks": 292320,
            "time": 304.5,
            "velocity": 0.7795275590551181
          },
          {
            "duration": 0.22604166666667425,
            "durationTicks": 217,
            "midi": 73,
            "name": "C#5",
            "ticks": 292560,
            "time": 304.75,
            "velocity": 0.84251968503937
          },
          {
            "duration": 0.45104166666664014,
            "durationTicks": 433,
            "midi": 73,
            "name": "C#5",
            "ticks": 292800,
            "time": 305,
            "velocity": 0.8110236220472441
          },
          {
            "duration": 0.22604166666667425,
            "durationTicks": 217,
            "midi": 74,
            "name": "D5",
            "ticks": 293280,
            "time": 305.5,
            "velocity": 0.8346456692913385
          },
          {
            "duration": 0.22604166666667425,
            "durationTicks": 217,
            "midi": 74,
            "name": "D5",
            "ticks": 293520,
            "time": 305.75,
            "velocity": 0.8346456692913385
          },
          {
            "duration": 0.22604166666667425,
            "durationTicks": 217,
            "midi": 74,
            "name": "D5",
            "ticks": 293760,
            "time": 306,
            "velocity": 0.8031496062992126
          },
          {
            "duration": 0.22604166666667425,
            "durationTicks": 217,
            "midi": 74,
            "name": "D5",
            "ticks": 294000,
            "time": 306.25,
            "velocity": 0.8818897637795275
          },
          {
            "duration": 0.22604166666667425,
            "durationTicks": 217,
            "midi": 74,
            "name": "D5",
            "ticks": 294240,
            "time": 306.5,
            "velocity": 0.905511811023622
          },
          {
            "duration": 0.22604166666667425,
            "durationTicks": 217,
            "midi": 74,
            "name": "D5",
            "ticks": 294480,
            "time": 306.75,
            "velocity": 0.889763779527559
          },
          {
            "duration": 0.8999999999999773,
            "durationTicks": 864,
            "midi": 67,
            "name": "G4",
            "ticks": 294720,
            "time": 307,
            "velocity": 0.8503937007874016
          },
          {
            "duration": 0.8999999999999773,
            "durationTicks": 864,
            "midi": 69,
            "name": "A4",
            "ticks": 295680,
            "time": 308,
            "velocity": 1
          },
          {
            "duration": 3.45104166666664,
            "durationTicks": 3313,
            "midi": 62,
            "name": "D4",
            "ticks": 296640,
            "time": 309,
            "velocity": 0.8110236220472441
          },
          {
            "duration": 0.22604166666667425,
            "durationTicks": 217,
            "midi": 66,
            "name": "F#4",
            "ticks": 300000,
            "time": 312.5,
            "velocity": 0.9921259842519685
          },
          {
            "duration": 0.22604166666667425,
            "durationTicks": 217,
            "midi": 66,
            "name": "F#4",
            "ticks": 300240,
            "time": 312.75,
            "velocity": 0.9448818897637795
          },
          {
            "duration": 0.45104166666664014,
            "durationTicks": 433,
            "midi": 69,
            "name": "A4",
            "ticks": 300480,
            "time": 313,
            "velocity": 0.9763779527559056
          },
          {
            "duration": 0.22604166666667425,
            "durationTicks": 217,
            "midi": 74,
            "name": "D5",
            "ticks": 300960,
            "time": 313.5,
            "velocity": 1
          },
          {
            "duration": 0.22604166666667425,
            "durationTicks": 217,
            "midi": 74,
            "name": "D5",
            "ticks": 301200,
            "time": 313.75,
            "velocity": 0.905511811023622
          },
          {
            "duration": 0.22604166666667425,
            "durationTicks": 217,
            "midi": 71,
            "name": "B4",
            "ticks": 301440,
            "time": 314,
            "velocity": 0.84251968503937
          },
          {
            "duration": 0.22604166666667425,
            "durationTicks": 217,
            "midi": 67,
            "name": "G4",
            "ticks": 301680,
            "time": 314.25,
            "velocity": 0.7716535433070866
          },
          {
            "duration": 0.22604166666667425,
            "durationTicks": 217,
            "midi": 67,
            "name": "G4",
            "ticks": 301920,
            "time": 314.5,
            "velocity": 0.905511811023622
          },
          {
            "duration": 0.22604166666667425,
            "durationTicks": 217,
            "midi": 67,
            "name": "G4",
            "ticks": 302160,
            "time": 314.75,
            "velocity": 0.889763779527559
          },
          {
            "duration": 0.8999999999999773,
            "durationTicks": 864,
            "midi": 60,
            "name": "C4",
            "ticks": 302400,
            "time": 315,
            "velocity": 0.8110236220472441
          },
          {
            "duration": 0.8999999999999773,
            "durationTicks": 864,
            "midi": 62,
            "name": "D4",
            "ticks": 303360,
            "time": 316,
            "velocity": 1
          },
          {
            "duration": 3.45104166666664,
            "durationTicks": 3313,
            "midi": 55,
            "name": "G3",
            "ticks": 304320,
            "time": 317,
            "velocity": 0.9212598425196851
          },
          {
            "duration": 0.22604166666667425,
            "durationTicks": 217,
            "midi": 59,
            "name": "B3",
            "ticks": 307680,
            "time": 320.5,
            "velocity": 0.968503937007874
          },
          {
            "duration": 0.22604166666667425,
            "durationTicks": 217,
            "midi": 59,
            "name": "B3",
            "ticks": 307920,
            "time": 320.75,
            "velocity": 0.889763779527559
          },
          {
            "duration": 0.45104166666664014,
            "durationTicks": 433,
            "midi": 62,
            "name": "D4",
            "ticks": 308160,
            "time": 321,
            "velocity": 0.9763779527559056
          },
          {
            "duration": 0.22604166666667425,
            "durationTicks": 217,
            "midi": 67,
            "name": "G4",
            "ticks": 308640,
            "time": 321.5,
            "velocity": 1
          },
          {
            "duration": 0.22604166666667425,
            "durationTicks": 217,
            "midi": 67,
            "name": "G4",
            "ticks": 308880,
            "time": 321.75,
            "velocity": 0.905511811023622
          },
          {
            "duration": 0.45104166666664014,
            "durationTicks": 433,
            "midi": 64,
            "name": "E4",
            "ticks": 309120,
            "time": 322,
            "velocity": 0.84251968503937
          },
          {
            "duration": 1.0197916666666629,
            "durationTicks": 979,
            "midi": 58,
            "name": "A#3",
            "ticks": 312000,
            "time": 325,
            "velocity": 0.7952755905511811
          },
          {
            "duration": 0.9489583333333371,
            "durationTicks": 911,
            "midi": 60,
            "name": "C4",
            "ticks": 312960,
            "time": 326,
            "velocity": 0.8740157480314961
          },
          {
            "duration": 1.0197916666666629,
            "durationTicks": 979,
            "midi": 58,
            "name": "A#3",
            "ticks": 315840,
            "time": 329,
            "velocity": 0.8818897637795275
          },
          {
            "duration": 0.9489583333333371,
            "durationTicks": 911,
            "midi": 60,
            "name": "C4",
            "ticks": 316800,
            "time": 330,
            "velocity": 0.8976377952755905
          },
          {
            "duration": 1.0197916666666629,
            "durationTicks": 979,
            "midi": 61,
            "name": "C#4",
            "ticks": 319680,
            "time": 333,
            "velocity": 0.9133858267716536
          },
          {
            "duration": 0.9489583333333371,
            "durationTicks": 911,
            "midi": 57,
            "name": "A3",
            "ticks": 320640,
            "time": 334,
            "velocity": 0.889763779527559
          },
          {
            "duration": 0.8999999999999773,
            "durationTicks": 864,
            "midi": 65,
            "name": "F4",
            "ticks": 323520,
            "time": 337,
            "velocity": 1
          },
          {
            "duration": 0.8999999999999773,
            "durationTicks": 864,
            "midi": 59,
            "name": "B3",
            "ticks": 325440,
            "time": 339,
            "velocity": 0.6299212598425197
          },
          {
            "duration": 0.8999999999999773,
            "durationTicks": 864,
            "midi": 56,
            "name": "G#3",
            "ticks": 327360,
            "time": 341,
            "velocity": 0.5196850393700787
          },
          {
            "duration": 0.8999999999999773,
            "durationTicks": 864,
            "midi": 57,
            "name": "A3",
            "ticks": 329280,
            "time": 343,
            "velocity": 0.4881889763779528
          },
          {
            "duration": 0.8999999999999773,
            "durationTicks": 864,
            "midi": 57,
            "name": "A3",
            "ticks": 331200,
            "time": 345,
            "velocity": 0.4330708661417323
          },
          {
            "duration": 0.8999999999999773,
            "durationTicks": 864,
            "midi": 57,
            "name": "A3",
            "ticks": 333120,
            "time": 347,
            "velocity": 0.4330708661417323
          },
          {
            "duration": 0.8999999999999773,
            "durationTicks": 864,
            "midi": 57,
            "name": "A3",
            "ticks": 335040,
            "time": 349,
            "velocity": 0.3779527559055118
          },
          {
            "duration": 0.8999999999999773,
            "durationTicks": 864,
            "midi": 57,
            "name": "A3",
            "ticks": 336960,
            "time": 351,
            "velocity": 0.36220472440944884
          },
          {
            "duration": 0.8999999999999773,
            "durationTicks": 864,
            "midi": 57,
            "name": "A3",
            "ticks": 338880,
            "time": 353,
            "velocity": 0.41732283464566927
          },
          {
            "duration": 0.22604166666667425,
            "durationTicks": 217,
            "midi": 57,
            "name": "A3",
            "ticks": 340800,
            "time": 355,
            "velocity": 0.8976377952755905
          },
          {
            "duration": 0.22604166666667425,
            "durationTicks": 217,
            "midi": 62,
            "name": "D4",
            "ticks": 341040,
            "time": 355.25,
            "velocity": 1
          },
          {
            "duration": 0.22604166666667425,
            "durationTicks": 217,
            "midi": 62,
            "name": "D4",
            "ticks": 341280,
            "time": 355.5,
            "velocity": 0.9212598425196851
          },
          {
            "duration": 0.22604166666667425,
            "durationTicks": 217,
            "midi": 62,
            "name": "D4",
            "ticks": 341520,
            "time": 355.75,
            "velocity": 0.8503937007874016
          },
          {
            "duration": 0.8999999999999773,
            "durationTicks": 864,
            "midi": 59,
            "name": "B3",
            "ticks": 341760,
            "time": 356,
            "velocity": 0.84251968503937
          },
          {
            "duration": 0.8999999999999773,
            "durationTicks": 864,
            "midi": 60,
            "name": "C4",
            "ticks": 342720,
            "time": 357,
            "velocity": 0.9291338582677166
          },
          {
            "duration": 1.8999999999999773,
            "durationTicks": 1824,
            "midi": 57,
            "name": "A3",
            "ticks": 343680,
            "time": 358,
            "velocity": 0.8661417322834646
          },
          {
            "duration": 0.8999999999999773,
            "durationTicks": 864,
            "midi": 56,
            "name": "G#3",
            "ticks": 346560,
            "time": 361,
            "velocity": 0.36220472440944884
          },
          {
            "duration": 0.8999999999999773,
            "durationTicks": 864,
            "midi": 56,
            "name": "G#3",
            "ticks": 348480,
            "time": 363,
            "velocity": 0.3937007874015748
          },
          {
            "duration": 0.8999999999999773,
            "durationTicks": 864,
            "midi": 56,
            "name": "G#3",
            "ticks": 350400,
            "time": 365,
            "velocity": 0.3937007874015748
          },
          {
            "duration": 0.45104166666664014,
            "durationTicks": 433,
            "midi": 56,
            "name": "G#3",
            "ticks": 352320,
            "time": 367,
            "velocity": 0.7716535433070866
          },
          {
            "duration": 0.22604166666667425,
            "durationTicks": 217,
            "midi": 68,
            "name": "G#4",
            "ticks": 353520,
            "time": 368.25,
            "velocity": 0.6850393700787402
          },
          {
            "duration": 0.22604166666667425,
            "durationTicks": 217,
            "midi": 68,
            "name": "G#4",
            "ticks": 353760,
            "time": 368.5,
            "velocity": 0.7322834645669292
          },
          {
            "duration": 0.22604166666667425,
            "durationTicks": 217,
            "midi": 68,
            "name": "G#4",
            "ticks": 354000,
            "time": 368.75,
            "velocity": 0.7322834645669292
          },
          {
            "duration": 1.2260416666666742,
            "durationTicks": 1177,
            "midi": 65,
            "name": "F4",
            "ticks": 354240,
            "time": 369,
            "velocity": 0.7086614173228346
          },
          {
            "duration": 0.22604166666667425,
            "durationTicks": 217,
            "midi": 68,
            "name": "G#4",
            "ticks": 355440,
            "time": 370.25,
            "velocity": 0.8740157480314961
          },
          {
            "duration": 0.22604166666667425,
            "durationTicks": 217,
            "midi": 68,
            "name": "G#4",
            "ticks": 355680,
            "time": 370.5,
            "velocity": 0.7795275590551181
          },
          {
            "duration": 0.22604166666667425,
            "durationTicks": 217,
            "midi": 68,
            "name": "G#4",
            "ticks": 355920,
            "time": 370.75,
            "velocity": 0.8031496062992126
          },
          {
            "duration": 1.2260416666666742,
            "durationTicks": 1177,
            "midi": 65,
            "name": "F4",
            "ticks": 356160,
            "time": 371,
            "velocity": 0.7165354330708661
          },
          {
            "duration": 0.22604166666667425,
            "durationTicks": 217,
            "midi": 68,
            "name": "G#4",
            "ticks": 357360,
            "time": 372.25,
            "velocity": 0.84251968503937
          },
          {
            "duration": 0.22604166666667425,
            "durationTicks": 217,
            "midi": 68,
            "name": "G#4",
            "ticks": 357600,
            "time": 372.5,
            "velocity": 0.7952755905511811
          },
          {
            "duration": 0.22604166666667425,
            "durationTicks": 217,
            "midi": 68,
            "name": "G#4",
            "ticks": 357840,
            "time": 372.75,
            "velocity": 0.7165354330708661
          },
          {
            "duration": 0.22604166666667425,
            "durationTicks": 217,
            "midi": 65,
            "name": "F4",
            "ticks": 358080,
            "time": 373,
            "velocity": 0.7401574803149606
          },
          {
            "duration": 0.22604166666667425,
            "durationTicks": 217,
            "midi": 68,
            "name": "G#4",
            "ticks": 358320,
            "time": 373.25,
            "velocity": 0.8110236220472441
          },
          {
            "duration": 0.22604166666667425,
            "durationTicks": 217,
            "midi": 68,
            "name": "G#4",
            "ticks": 358560,
            "time": 373.5,
            "velocity": 0.7716535433070866
          },
          {
            "duration": 0.22604166666667425,
            "durationTicks": 217,
            "midi": 68,
            "name": "G#4",
            "ticks": 358800,
            "time": 373.75,
            "velocity": 0.7637795275590551
          },
          {
            "duration": 0.22604166666667425,
            "durationTicks": 217,
            "midi": 65,
            "name": "F4",
            "ticks": 359040,
            "time": 374,
            "velocity": 0.6929133858267716
          },
          {
            "duration": 0.22604166666667425,
            "durationTicks": 217,
            "midi": 68,
            "name": "G#4",
            "ticks": 359280,
            "time": 374.25,
            "velocity": 0.84251968503937
          },
          {
            "duration": 0.22604166666667425,
            "durationTicks": 217,
            "midi": 68,
            "name": "G#4",
            "ticks": 359520,
            "time": 374.5,
            "velocity": 0.7559055118110236
          },
          {
            "duration": 0.22604166666667425,
            "durationTicks": 217,
            "midi": 68,
            "name": "G#4",
            "ticks": 359760,
            "time": 374.75,
            "velocity": 0.7480314960629921
          },
          {
            "duration": 0.22604166666667425,
            "durationTicks": 217,
            "midi": 65,
            "name": "F4",
            "ticks": 360000,
            "time": 375,
            "velocity": 0.6771653543307087
          },
          {
            "duration": 0.22604166666667425,
            "durationTicks": 217,
            "midi": 67,
            "name": "G4",
            "ticks": 360240,
            "time": 375.25,
            "velocity": 0.8188976377952756
          },
          {
            "duration": 0.22604166666667425,
            "durationTicks": 217,
            "midi": 67,
            "name": "G4",
            "ticks": 360480,
            "time": 375.5,
            "velocity": 0.7952755905511811
          },
          {
            "duration": 0.22604166666667425,
            "durationTicks": 217,
            "midi": 67,
            "name": "G4",
            "ticks": 360720,
            "time": 375.75,
            "velocity": 0.7637795275590551
          },
          {
            "duration": 1.5,
            "durationTicks": 1440,
            "midi": 63,
            "name": "D#4",
            "ticks": 360960,
            "time": 376,
            "velocity": 0.6614173228346457
          },
          {
            "duration": 0.22604166666667425,
            "durationTicks": 217,
            "midi": 65,
            "name": "F4",
            "ticks": 362640,
            "time": 377.75,
            "velocity": 0.7007874015748031
          },
          {
            "duration": 0.22604166666667425,
            "durationTicks": 217,
            "midi": 65,
            "name": "F4",
            "ticks": 362880,
            "time": 378,
            "velocity": 0.7637795275590551
          },
          {
            "duration": 0.22604166666667425,
            "durationTicks": 217,
            "midi": 65,
            "name": "F4",
            "ticks": 363120,
            "time": 378.25,
            "velocity": 0.7401574803149606
          },
          {
            "duration": 2.5,
            "durationTicks": 2400,
            "midi": 62,
            "name": "D4",
            "ticks": 363360,
            "time": 378.5,
            "velocity": 0.6850393700787402
          },
          {
            "duration": 0.22604166666667425,
            "durationTicks": 217,
            "midi": 67,
            "name": "G4",
            "ticks": 366000,
            "time": 381.25,
            "velocity": 0.4251968503937008
          },
          {
            "duration": 0.22604166666667425,
            "durationTicks": 217,
            "midi": 67,
            "name": "G4",
            "ticks": 366240,
            "time": 381.5,
            "velocity": 0.4645669291338583
          },
          {
            "duration": 0.22604166666667425,
            "durationTicks": 217,
            "midi": 67,
            "name": "G4",
            "ticks": 366480,
            "time": 381.75,
            "velocity": 0.49606299212598426
          },
          {
            "duration": 2.45104166666664,
            "durationTicks": 2353,
            "midi": 63,
            "name": "D#4",
            "ticks": 366720,
            "time": 382,
            "velocity": 0.4015748031496063
          },
          {
            "duration": 0.22604166666667425,
            "durationTicks": 217,
            "midi": 67,
            "name": "G4",
            "ticks": 369840,
            "time": 385.25,
            "velocity": 0.41732283464566927
          },
          {
            "duration": 0.22604166666667425,
            "durationTicks": 217,
            "midi": 67,
            "name": "G4",
            "ticks": 370080,
            "time": 385.5,
            "velocity": 0.48031496062992124
          },
          {
            "duration": 0.22604166666667425,
            "durationTicks": 217,
            "midi": 67,
            "name": "G4",
            "ticks": 370320,
            "time": 385.75,
            "velocity": 0.48031496062992124
          },
          {
            "duration": 2.45104166666664,
            "durationTicks": 2353,
            "midi": 62,
            "name": "D4",
            "ticks": 370560,
            "time": 386,
            "velocity": 0.4330708661417323
          },
          {
            "duration": 0.22604166666667425,
            "durationTicks": 217,
            "midi": 63,
            "name": "D#4",
            "ticks": 374640,
            "time": 390.25,
            "velocity": 0.44881889763779526
          },
          {
            "duration": 0.22604166666667425,
            "durationTicks": 217,
            "midi": 63,
            "name": "D#4",
            "ticks": 374880,
            "time": 390.5,
            "velocity": 0.48031496062992124
          },
          {
            "duration": 0.22604166666667425,
            "durationTicks": 217,
            "midi": 65,
            "name": "F4",
            "ticks": 375120,
            "time": 390.75,
            "velocity": 0.5118110236220472
          },
          {
            "duration": 1.2260416666666742,
            "durationTicks": 1177,
            "midi": 67,
            "name": "G4",
            "ticks": 375360,
            "time": 391,
            "velocity": 0.5275590551181102
          },
          {
            "duration": 0.22604166666667425,
            "durationTicks": 217,
            "midi": 63,
            "name": "D#4",
            "ticks": 376560,
            "time": 392.25,
            "velocity": 0.41732283464566927
          },
          {
            "duration": 0.22604166666667425,
            "durationTicks": 217,
            "midi": 63,
            "name": "D#4",
            "ticks": 376800,
            "time": 392.5,
            "velocity": 0.4566929133858268
          },
          {
            "duration": 0.22604166666667425,
            "durationTicks": 217,
            "midi": 65,
            "name": "F4",
            "ticks": 377040,
            "time": 392.75,
            "velocity": 0.4881889763779528
          },
          {
            "duration": 0.22604166666667425,
            "durationTicks": 217,
            "midi": 67,
            "name": "G4",
            "ticks": 377280,
            "time": 393,
            "velocity": 0.5118110236220472
          },
          {
            "duration": 0.22604166666667425,
            "durationTicks": 217,
            "midi": 59,
            "name": "B3",
            "ticks": 377520,
            "time": 393.25,
            "velocity": 0.4566929133858268
          },
          {
            "duration": 0.22604166666667425,
            "durationTicks": 217,
            "midi": 60,
            "name": "C4",
            "ticks": 377760,
            "time": 393.5,
            "velocity": 0.5118110236220472
          },
          {
            "duration": 0.22604166666667425,
            "durationTicks": 217,
            "midi": 62,
            "name": "D4",
            "ticks": 378000,
            "time": 393.75,
            "velocity": 0.4645669291338583
          },
          {
            "duration": 0.45104166666664014,
            "durationTicks": 433,
            "midi": 63,
            "name": "D#4",
            "ticks": 378240,
            "time": 394,
            "velocity": 0.5669291338582677
          },
          {
            "duration": 0.45104166666664014,
            "durationTicks": 433,
            "midi": 56,
            "name": "G#3",
            "ticks": 379200,
            "time": 395,
            "velocity": 0.5826771653543307
          },
          {
            "duration": 0.33749999999997726,
            "durationTicks": 324,
            "midi": 66,
            "name": "F#4",
            "ticks": 379309,
            "time": 395.11354166666666,
            "velocity": 0.5826771653543307
          },
          {
            "duration": 0.2249999999999659,
            "durationTicks": 216,
            "midi": 72,
            "name": "C5",
            "ticks": 379417,
            "time": 395.2260416666667,
            "velocity": 0.5826771653543307
          },
          {
            "duration": 0.45104166666664014,
            "durationTicks": 433,
            "midi": 55,
            "name": "G3",
            "ticks": 380160,
            "time": 396,
            "velocity": 0.6220472440944882
          },
          {
            "duration": 0.359375,
            "durationTicks": 345,
            "midi": 62,
            "name": "D4",
            "ticks": 380248,
            "time": 396.09166666666664,
            "velocity": 0.6220472440944882
          },
          {
            "duration": 0.267708333333303,
            "durationTicks": 257,
            "midi": 71,
            "name": "B4",
            "ticks": 380336,
            "time": 396.18333333333334,
            "velocity": 0.6220472440944882
          },
          {
            "duration": 0.17604166666666288,
            "durationTicks": 169,
            "midi": 79,
            "name": "G5",
            "ticks": 380424,
            "time": 396.275,
            "velocity": 0.6220472440944882
          },
          {
            "duration": 0.22604166666667425,
            "durationTicks": 217,
            "midi": 62,
            "name": "D4",
            "ticks": 386640,
            "time": 402.75,
            "velocity": 0.4251968503937008
          },
          {
            "duration": 0.22604166666667425,
            "durationTicks": 217,
            "midi": 62,
            "name": "D4",
            "ticks": 386880,
            "time": 403,
            "velocity": 0.48031496062992124
          },
          {
            "duration": 0.22604166666667425,
            "durationTicks": 217,
            "midi": 62,
            "name": "D4",
            "ticks": 387120,
            "time": 403.25,
            "velocity": 0.4881889763779528
          },
          {
            "duration": 1.8999999999999773,
            "durationTicks": 1824,
            "midi": 59,
            "name": "B3",
            "ticks": 387360,
            "time": 403.5,
            "velocity": 0.4566929133858268
          },
          {
            "duration": 0.22604166666667425,
            "durationTicks": 217,
            "midi": 60,
            "name": "C4",
            "ticks": 389280,
            "time": 405.5,
            "velocity": 0.47244094488188976
          },
          {
            "duration": 0.22604166666667425,
            "durationTicks": 217,
            "midi": 68,
            "name": "G#4",
            "ticks": 389520,
            "time": 405.75,
            "velocity": 0.5826771653543307
          },
          {
            "duration": 0.22604166666667425,
            "durationTicks": 217,
            "midi": 68,
            "name": "G#4",
            "ticks": 389760,
            "time": 406,
            "velocity": 0.49606299212598426
          },
          {
            "duration": 0.22604166666667425,
            "durationTicks": 217,
            "midi": 68,
            "name": "G#4",
            "ticks": 390000,
            "time": 406.25,
            "velocity": 0.47244094488188976
          },
          {
            "duration": 0.22604166666667425,
            "durationTicks": 217,
            "midi": 65,
            "name": "F4",
            "ticks": 390240,
            "time": 406.5,
            "velocity": 0.44881889763779526
          },
          {
            "duration": 0.22604166666667425,
            "durationTicks": 217,
            "midi": 62,
            "name": "D4",
            "ticks": 390480,
            "time": 406.75,
            "velocity": 0.3937007874015748
          },
          {
            "duration": 0.22604166666667425,
            "durationTicks": 217,
            "midi": 62,
            "name": "D4",
            "ticks": 390720,
            "time": 407,
            "velocity": 0.5590551181102362
          },
          {
            "duration": 0.22604166666667425,
            "durationTicks": 217,
            "midi": 62,
            "name": "D4",
            "ticks": 390960,
            "time": 407.25,
            "velocity": 0.5275590551181102
          },
          {
            "duration": 0.22604166666667425,
            "durationTicks": 217,
            "midi": 59,
            "name": "B3",
            "ticks": 391200,
            "time": 407.5,
            "velocity": 0.5354330708661418
          },
          {
            "duration": 0.22604166666667425,
            "durationTicks": 217,
            "midi": 56,
            "name": "G#3",
            "ticks": 391440,
            "time": 407.75,
            "velocity": 0.5118110236220472
          },
          {
            "duration": 0.22604166666667425,
            "durationTicks": 217,
            "midi": 56,
            "name": "G#3",
            "ticks": 391680,
            "time": 408,
            "velocity": 0.5905511811023622
          },
          {
            "duration": 0.22604166666667425,
            "durationTicks": 217,
            "midi": 56,
            "name": "G#3",
            "ticks": 391920,
            "time": 408.25,
            "velocity": 0.5511811023622047
          },
          {
            "duration": 0.22604166666667425,
            "durationTicks": 217,
            "midi": 55,
            "name": "G3",
            "ticks": 392160,
            "time": 408.5,
            "velocity": 0.6299212598425197
          },
          {
            "duration": 0.22604166666667425,
            "durationTicks": 217,
            "midi": 62,
            "name": "D4",
            "ticks": 392400,
            "time": 408.75,
            "velocity": 0.7952755905511811
          },
          {
            "duration": 0.22604166666667425,
            "durationTicks": 217,
            "midi": 62,
            "name": "D4",
            "ticks": 392640,
            "time": 409,
            "velocity": 0.6377952755905512
          },
          {
            "duration": 0.22604166666667425,
            "durationTicks": 217,
            "midi": 62,
            "name": "D4",
            "ticks": 392880,
            "time": 409.25,
            "velocity": 0.6299212598425197
          },
          {
            "duration": 0.22604166666667425,
            "durationTicks": 217,
            "midi": 63,
            "name": "D#4",
            "ticks": 393120,
            "time": 409.5,
            "velocity": 0.7795275590551181
          },
          {
            "duration": 0.22604166666667425,
            "durationTicks": 217,
            "midi": 63,
            "name": "D#4",
            "ticks": 393360,
            "time": 409.75,
            "velocity": 0.7401574803149606
          },
          {
            "duration": 0.22604166666667425,
            "durationTicks": 217,
            "midi": 67,
            "name": "G4",
            "ticks": 393600,
            "time": 410,
            "velocity": 0.8818897637795275
          },
          {
            "duration": 0.22604166666667425,
            "durationTicks": 217,
            "midi": 67,
            "name": "G4",
            "ticks": 393840,
            "time": 410.25,
            "velocity": 0.7952755905511811
          },
          {
            "duration": 1.2260416666666742,
            "durationTicks": 1177,
            "midi": 65,
            "name": "F4",
            "ticks": 394080,
            "time": 410.5,
            "velocity": 0.6929133858267716
          },
          {
            "duration": 0.22604166666667425,
            "durationTicks": 217,
            "midi": 68,
            "name": "G#4",
            "ticks": 395280,
            "time": 411.75,
            "velocity": 0.8582677165354331
          },
          {
            "duration": 0.22604166666667425,
            "durationTicks": 217,
            "midi": 68,
            "name": "G#4",
            "ticks": 395520,
            "time": 412,
            "velocity": 0.7716535433070866
          },
          {
            "duration": 0.22604166666667425,
            "durationTicks": 217,
            "midi": 65,
            "name": "F4",
            "ticks": 395760,
            "time": 412.25,
            "velocity": 0.6929133858267716
          },
          {
            "duration": 1.2260416666666742,
            "durationTicks": 1177,
            "midi": 67,
            "name": "G4",
            "ticks": 396000,
            "time": 412.5,
            "velocity": 0.7952755905511811
          },
          {
            "duration": 0.22604166666667425,
            "durationTicks": 217,
            "midi": 67,
            "name": "G4",
            "ticks": 397200,
            "time": 413.75,
            "velocity": 0.7795275590551181
          },
          {
            "duration": 0.22604166666667425,
            "durationTicks": 217,
            "midi": 67,
            "name": "G4",
            "ticks": 397440,
            "time": 414,
            "velocity": 0.7716535433070866
          },
          {
            "duration": 0.22604166666667425,
            "durationTicks": 217,
            "midi": 63,
            "name": "D#4",
            "ticks": 397680,
            "time": 414.25,
            "velocity": 0.7244094488188977
          },
          {
            "duration": 0.22604166666667425,
            "durationTicks": 217,
            "midi": 68,
            "name": "G#4",
            "ticks": 397920,
            "time": 414.5,
            "velocity": 1
          },
          {
            "duration": 0.22604166666667425,
            "durationTicks": 217,
            "midi": 68,
            "name": "G#4",
            "ticks": 398160,
            "time": 414.75,
            "velocity": 0.8110236220472441
          },
          {
            "duration": 0.22604166666667425,
            "durationTicks": 217,
            "midi": 68,
            "name": "G#4",
            "ticks": 398400,
            "time": 415,
            "velocity": 0.7559055118110236
          },
          {
            "duration": 0.22604166666667425,
            "durationTicks": 217,
            "midi": 65,
            "name": "F4",
            "ticks": 398640,
            "time": 415.25,
            "velocity": 0.7244094488188977
          },
          {
            "duration": 0.22604166666667425,
            "durationTicks": 217,
            "midi": 70,
            "name": "A#4",
            "ticks": 398880,
            "time": 415.5,
            "velocity": 0.9448818897637795
          },
          {
            "duration": 0.22604166666667425,
            "durationTicks": 217,
            "midi": 70,
            "name": "A#4",
            "ticks": 399120,
            "time": 415.75,
            "velocity": 0.8110236220472441
          },
          {
            "duration": 0.22604166666667425,
            "durationTicks": 217,
            "midi": 70,
            "name": "A#4",
            "ticks": 399360,
            "time": 416,
            "velocity": 0.7952755905511811
          },
          {
            "duration": 0.22604166666667425,
            "durationTicks": 217,
            "midi": 67,
            "name": "G4",
            "ticks": 399600,
            "time": 416.25,
            "velocity": 0.6929133858267716
          },
          {
            "duration": 0.22604166666667425,
            "durationTicks": 217,
            "midi": 72,
            "name": "C5",
            "ticks": 399840,
            "time": 416.5,
            "velocity": 0.9763779527559056
          },
          {
            "duration": 0.22604166666667425,
            "durationTicks": 217,
            "midi": 60,
            "name": "C4",
            "ticks": 400080,
            "time": 416.75,
            "velocity": 0.5748031496062992
          },
          {
            "duration": 0.22604166666667425,
            "durationTicks": 217,
            "midi": 60,
            "name": "C4",
            "ticks": 400320,
            "time": 417,
            "velocity": 0.7401574803149606
          },
          {
            "duration": 0.22604166666667425,
            "durationTicks": 217,
            "midi": 56,
            "name": "G#3",
            "ticks": 400560,
            "time": 417.25,
            "velocity": 0.7086614173228346
          },
          {
            "duration": 0.22604166666667425,
            "durationTicks": 217,
            "midi": 64,
            "name": "E4",
            "ticks": 400800,
            "time": 417.5,
            "velocity": 1
          },
          {
            "duration": 0.22604166666667425,
            "durationTicks": 217,
            "midi": 64,
            "name": "E4",
            "ticks": 401040,
            "time": 417.75,
            "velocity": 0.7952755905511811
          },
          {
            "duration": 0.22604166666667425,
            "durationTicks": 217,
            "midi": 64,
            "name": "E4",
            "ticks": 401280,
            "time": 418,
            "velocity": 0.7716535433070866
          },
          {
            "duration": 0.22604166666667425,
            "durationTicks": 217,
            "midi": 58,
            "name": "A#3",
            "ticks": 401520,
            "time": 418.25,
            "velocity": 0.7244094488188977
          },
          {
            "duration": 0.22604166666667425,
            "durationTicks": 217,
            "midi": 65,
            "name": "F4",
            "ticks": 401760,
            "time": 418.5,
            "velocity": 1
          },
          {
            "duration": 0.22604166666667425,
            "durationTicks": 217,
            "midi": 65,
            "name": "F4",
            "ticks": 402000,
            "time": 418.75,
            "velocity": 0.7637795275590551
          },
          {
            "duration": 0.22604166666667425,
            "durationTicks": 217,
            "midi": 65,
            "name": "F4",
            "ticks": 402240,
            "time": 419,
            "velocity": 0.7401574803149606
          },
          {
            "duration": 0.22604166666667425,
            "durationTicks": 217,
            "midi": 60,
            "name": "C4",
            "ticks": 402480,
            "time": 419.25,
            "velocity": 0.6771653543307087
          },
          {
            "duration": 0.22604166666667425,
            "durationTicks": 217,
            "midi": 68,
            "name": "G#4",
            "ticks": 402720,
            "time": 419.5,
            "velocity": 1
          },
          {
            "duration": 0.22604166666667425,
            "durationTicks": 217,
            "midi": 68,
            "name": "G#4",
            "ticks": 402960,
            "time": 419.75,
            "velocity": 0.7874015748031497
          },
          {
            "duration": 0.22604166666667425,
            "durationTicks": 217,
            "midi": 68,
            "name": "G#4",
            "ticks": 403200,
            "time": 420,
            "velocity": 0.7716535433070866
          },
          {
            "duration": 0.22604166666667425,
            "durationTicks": 217,
            "midi": 65,
            "name": "F4",
            "ticks": 403440,
            "time": 420.25,
            "velocity": 0.6850393700787402
          },
          {
            "duration": 0.22604166666667425,
            "durationTicks": 217,
            "midi": 67,
            "name": "G4",
            "ticks": 403680,
            "time": 420.5,
            "velocity": 0.7716535433070866
          },
          {
            "duration": 0.22604166666667425,
            "durationTicks": 217,
            "midi": 63,
            "name": "D#4",
            "ticks": 403920,
            "time": 420.75,
            "velocity": 0.8582677165354331
          },
          {
            "duration": 0.22604166666667425,
            "durationTicks": 217,
            "midi": 72,
            "name": "C5",
            "ticks": 403920,
            "time": 420.75,
            "velocity": 0.8582677165354331
          },
          {
            "duration": 0.22604166666667425,
            "durationTicks": 217,
            "midi": 63,
            "name": "D#4",
            "ticks": 404160,
            "time": 421,
            "velocity": 0.8031496062992126
          },
          {
            "duration": 0.22604166666667425,
            "durationTicks": 217,
            "midi": 72,
            "name": "C5",
            "ticks": 404160,
            "time": 421,
            "velocity": 0.8031496062992126
          },
          {
            "duration": 0.22604166666667425,
            "durationTicks": 217,
            "midi": 63,
            "name": "D#4",
            "ticks": 404400,
            "time": 421.25,
            "velocity": 0.7716535433070866
          },
          {
            "duration": 0.22604166666667425,
            "durationTicks": 217,
            "midi": 72,
            "name": "C5",
            "ticks": 404400,
            "time": 421.25,
            "velocity": 0.7716535433070866
          },
          {
            "duration": 0.22604166666667425,
            "durationTicks": 217,
            "midi": 63,
            "name": "D#4",
            "ticks": 404640,
            "time": 421.5,
            "velocity": 0.7795275590551181
          },
          {
            "duration": 0.22604166666667425,
            "durationTicks": 217,
            "midi": 72,
            "name": "C5",
            "ticks": 404640,
            "time": 421.5,
            "velocity": 0.7795275590551181
          },
          {
            "duration": 0.22604166666667425,
            "durationTicks": 217,
            "midi": 63,
            "name": "D#4",
            "ticks": 404880,
            "time": 421.75,
            "velocity": 0.7952755905511811
          },
          {
            "duration": 0.22604166666667425,
            "durationTicks": 217,
            "midi": 72,
            "name": "C5",
            "ticks": 404880,
            "time": 421.75,
            "velocity": 0.7952755905511811
          },
          {
            "duration": 0.22604166666667425,
            "durationTicks": 217,
            "midi": 63,
            "name": "D#4",
            "ticks": 405120,
            "time": 422,
            "velocity": 0.7716535433070866
          },
          {
            "duration": 0.22604166666667425,
            "durationTicks": 217,
            "midi": 72,
            "name": "C5",
            "ticks": 405120,
            "time": 422,
            "velocity": 0.7716535433070866
          },
          {
            "duration": 0.22604166666667425,
            "durationTicks": 217,
            "midi": 63,
            "name": "D#4",
            "ticks": 405360,
            "time": 422.25,
            "velocity": 0.7716535433070866
          },
          {
            "duration": 0.22604166666667425,
            "durationTicks": 217,
            "midi": 72,
            "name": "C5",
            "ticks": 405360,
            "time": 422.25,
            "velocity": 0.7716535433070866
          },
          {
            "duration": 0.22604166666667425,
            "durationTicks": 217,
            "midi": 63,
            "name": "D#4",
            "ticks": 405600,
            "time": 422.5,
            "velocity": 0.7874015748031497
          },
          {
            "duration": 0.22604166666667425,
            "durationTicks": 217,
            "midi": 72,
            "name": "C5",
            "ticks": 405600,
            "time": 422.5,
            "velocity": 0.7874015748031497
          },
          {
            "duration": 0.22604166666667425,
            "durationTicks": 217,
            "midi": 63,
            "name": "D#4",
            "ticks": 405840,
            "time": 422.75,
            "velocity": 0.7795275590551181
          },
          {
            "duration": 0.22604166666667425,
            "durationTicks": 217,
            "midi": 72,
            "name": "C5",
            "ticks": 405840,
            "time": 422.75,
            "velocity": 0.7795275590551181
          },
          {
            "duration": 0.22604166666667425,
            "durationTicks": 217,
            "midi": 63,
            "name": "D#4",
            "ticks": 406080,
            "time": 423,
            "velocity": 0.7795275590551181
          },
          {
            "duration": 0.22604166666667425,
            "durationTicks": 217,
            "midi": 72,
            "name": "C5",
            "ticks": 406080,
            "time": 423,
            "velocity": 0.7795275590551181
          },
          {
            "duration": 0.22604166666667425,
            "durationTicks": 217,
            "midi": 63,
            "name": "D#4",
            "ticks": 406320,
            "time": 423.25,
            "velocity": 0.7795275590551181
          },
          {
            "duration": 0.22604166666667425,
            "durationTicks": 217,
            "midi": 72,
            "name": "C5",
            "ticks": 406320,
            "time": 423.25,
            "velocity": 0.7795275590551181
          },
          {
            "duration": 0.22604166666667425,
            "durationTicks": 217,
            "midi": 63,
            "name": "D#4",
            "ticks": 406560,
            "time": 423.5,
            "velocity": 0.7874015748031497
          },
          {
            "duration": 0.22604166666667425,
            "durationTicks": 217,
            "midi": 72,
            "name": "C5",
            "ticks": 406560,
            "time": 423.5,
            "velocity": 0.7874015748031497
          },
          {
            "duration": 0.22604166666667425,
            "durationTicks": 217,
            "midi": 63,
            "name": "D#4",
            "ticks": 406800,
            "time": 423.75,
            "velocity": 0.7637795275590551
          },
          {
            "duration": 0.22604166666667425,
            "durationTicks": 217,
            "midi": 72,
            "name": "C5",
            "ticks": 406800,
            "time": 423.75,
            "velocity": 0.7637795275590551
          },
          {
            "duration": 0.22604166666667425,
            "durationTicks": 217,
            "midi": 63,
            "name": "D#4",
            "ticks": 407040,
            "time": 424,
            "velocity": 0.7637795275590551
          },
          {
            "duration": 0.22604166666667425,
            "durationTicks": 217,
            "midi": 72,
            "name": "C5",
            "ticks": 407040,
            "time": 424,
            "velocity": 0.7637795275590551
          },
          {
            "duration": 0.22604166666667425,
            "durationTicks": 217,
            "midi": 63,
            "name": "D#4",
            "ticks": 407280,
            "time": 424.25,
            "velocity": 0.7637795275590551
          },
          {
            "duration": 0.22604166666667425,
            "durationTicks": 217,
            "midi": 72,
            "name": "C5",
            "ticks": 407280,
            "time": 424.25,
            "velocity": 0.7637795275590551
          },
          {
            "duration": 0.22604166666667425,
            "durationTicks": 217,
            "midi": 62,
            "name": "D4",
            "ticks": 407520,
            "time": 424.5,
            "velocity": 0.7165354330708661
          },
          {
            "duration": 0.22604166666667425,
            "durationTicks": 217,
            "midi": 71,
            "name": "B4",
            "ticks": 407520,
            "time": 424.5,
            "velocity": 0.7165354330708661
          },
          {
            "duration": 0.22604166666667425,
            "durationTicks": 217,
            "midi": 77,
            "name": "F5",
            "ticks": 407760,
            "time": 424.75,
            "velocity": 0.9212598425196851
          },
          {
            "duration": 0.22604166666667425,
            "durationTicks": 217,
            "midi": 74,
            "name": "D5",
            "ticks": 408000,
            "time": 425,
            "velocity": 0.6771653543307087
          },
          {
            "duration": 0.22604166666667425,
            "durationTicks": 217,
            "midi": 74,
            "name": "D5",
            "ticks": 408240,
            "time": 425.25,
            "velocity": 0.7401574803149606
          },
          {
            "duration": 0.22604166666667425,
            "durationTicks": 217,
            "midi": 71,
            "name": "B4",
            "ticks": 408480,
            "time": 425.5,
            "velocity": 0.7165354330708661
          },
          {
            "duration": 0.22604166666667425,
            "durationTicks": 217,
            "midi": 67,
            "name": "G4",
            "ticks": 408720,
            "time": 425.75,
            "velocity": 0.6850393700787402
          },
          {
            "duration": 0.22604166666667425,
            "durationTicks": 217,
            "midi": 65,
            "name": "F4",
            "ticks": 408960,
            "time": 426,
            "velocity": 0.7086614173228346
          },
          {
            "duration": 0.22604166666667425,
            "durationTicks": 217,
            "midi": 65,
            "name": "F4",
            "ticks": 409200,
            "time": 426.25,
            "velocity": 0.7952755905511811
          },
          {
            "duration": 0.22604166666667425,
            "durationTicks": 217,
            "midi": 62,
            "name": "D4",
            "ticks": 409440,
            "time": 426.5,
            "velocity": 0.6850393700787402
          },
          {
            "duration": 0.22604166666667425,
            "durationTicks": 217,
            "midi": 59,
            "name": "B3",
            "ticks": 409680,
            "time": 426.75,
            "velocity": 0.7401574803149606
          },
          {
            "duration": 0.22604166666667425,
            "durationTicks": 217,
            "midi": 55,
            "name": "G3",
            "ticks": 409920,
            "time": 427,
            "velocity": 0.7322834645669292
          },
          {
            "duration": 0.22604166666667425,
            "durationTicks": 217,
            "midi": 65,
            "name": "F4",
            "ticks": 410160,
            "time": 427.25,
            "velocity": 0.937007874015748
          },
          {
            "duration": 0.22604166666667425,
            "durationTicks": 217,
            "midi": 62,
            "name": "D4",
            "ticks": 410400,
            "time": 427.5,
            "velocity": 0.7322834645669292
          },
          {
            "duration": 0.22604166666667425,
            "durationTicks": 217,
            "midi": 59,
            "name": "B3",
            "ticks": 410640,
            "time": 427.75,
            "velocity": 0.7165354330708661
          },
          {
            "duration": 0.22604166666667425,
            "durationTicks": 217,
            "midi": 60,
            "name": "C4",
            "ticks": 410880,
            "time": 428,
            "velocity": 0.7795275590551181
          },
          {
            "duration": 0.22604166666667425,
            "durationTicks": 217,
            "midi": 60,
            "name": "C4",
            "ticks": 411120,
            "time": 428.25,
            "velocity": 0.7559055118110236
          },
          {
            "duration": 0.22604166666667425,
            "durationTicks": 217,
            "midi": 72,
            "name": "C5",
            "ticks": 411360,
            "time": 428.5,
            "velocity": 1
          },
          {
            "duration": 0.22604166666667425,
            "durationTicks": 217,
            "midi": 87,
            "name": "D#6",
            "ticks": 411600,
            "time": 428.75,
            "velocity": 1
          },
          {
            "duration": 0.22604166666667425,
            "durationTicks": 217,
            "midi": 87,
            "name": "D#6",
            "ticks": 411840,
            "time": 429,
            "velocity": 0.968503937007874
          },
          {
            "duration": 0.22604166666667425,
            "durationTicks": 217,
            "midi": 87,
            "name": "D#6",
            "ticks": 412080,
            "time": 429.25,
            "velocity": 0.905511811023622
          },
          {
            "duration": 0.22604166666667425,
            "durationTicks": 217,
            "midi": 84,
            "name": "C6",
            "ticks": 412320,
            "time": 429.5,
            "velocity": 0.8267716535433071
          },
          {
            "duration": 0.22604166666667425,
            "durationTicks": 217,
            "midi": 81,
            "name": "A5",
            "ticks": 412560,
            "time": 429.75,
            "velocity": 0.8110236220472441
          },
          {
            "duration": 0.22604166666667425,
            "durationTicks": 217,
            "midi": 81,
            "name": "A5",
            "ticks": 412800,
            "time": 430,
            "velocity": 0.8740157480314961
          },
          {
            "duration": 0.22604166666667425,
            "durationTicks": 217,
            "midi": 81,
            "name": "A5",
            "ticks": 413040,
            "time": 430.25,
            "velocity": 0.8976377952755905
          },
          {
            "duration": 0.22604166666667425,
            "durationTicks": 217,
            "midi": 78,
            "name": "F#5",
            "ticks": 413280,
            "time": 430.5,
            "velocity": 0.7637795275590551
          },
          {
            "duration": 0.22604166666667425,
            "durationTicks": 217,
            "midi": 75,
            "name": "D#5",
            "ticks": 413520,
            "time": 430.75,
            "velocity": 0.7716535433070866
          },
          {
            "duration": 0.22604166666667425,
            "durationTicks": 217,
            "midi": 75,
            "name": "D#5",
            "ticks": 413760,
            "time": 431,
            "velocity": 0.8976377952755905
          },
          {
            "duration": 0.22604166666667425,
            "durationTicks": 217,
            "midi": 75,
            "name": "D#5",
            "ticks": 414000,
            "time": 431.25,
            "velocity": 0.8582677165354331
          },
          {
            "duration": 0.22604166666667425,
            "durationTicks": 217,
            "midi": 72,
            "name": "C5",
            "ticks": 414240,
            "time": 431.5,
            "velocity": 0.8267716535433071
          },
          {
            "duration": 0.22604166666667425,
            "durationTicks": 217,
            "midi": 69,
            "name": "A4",
            "ticks": 414480,
            "time": 431.75,
            "velocity": 0.7874015748031497
          },
          {
            "duration": 0.22604166666667425,
            "durationTicks": 217,
            "midi": 69,
            "name": "A4",
            "ticks": 414720,
            "time": 432,
            "velocity": 0.8818897637795275
          },
          {
            "duration": 0.22604166666667425,
            "durationTicks": 217,
            "midi": 69,
            "name": "A4",
            "ticks": 414960,
            "time": 432.25,
            "velocity": 0.889763779527559
          },
          {
            "duration": 0.45104166666664014,
            "durationTicks": 433,
            "midi": 57,
            "name": "A3",
            "ticks": 415200,
            "time": 432.5,
            "velocity": 0.7480314960629921
          },
          {
            "duration": 0.45104166666664014,
            "durationTicks": 433,
            "midi": 55,
            "name": "G3",
            "ticks": 417120,
            "time": 434.5,
            "velocity": 0.8110236220472441
          },
          {
            "duration": 0.45104166666664014,
            "durationTicks": 433,
            "midi": 67,
            "name": "G4",
            "ticks": 417120,
            "time": 434.5,
            "velocity": 0.8110236220472441
          },
          {
            "duration": 1.0197916666666629,
            "durationTicks": 979,
            "midi": 64,
            "name": "E4",
            "ticks": 421920,
            "time": 439.5,
            "velocity": 0.4645669291338583
          },
          {
            "duration": 0.9489583333333371,
            "durationTicks": 911,
            "midi": 65,
            "name": "F4",
            "ticks": 422880,
            "time": 440.5,
            "velocity": 0.4881889763779528
          },
          {
            "duration": 1.0197916666666629,
            "durationTicks": 979,
            "midi": 65,
            "name": "F4",
            "ticks": 423840,
            "time": 441.5,
            "velocity": 0.4566929133858268
          },
          {
            "duration": 0.9489583333333371,
            "durationTicks": 911,
            "midi": 64,
            "name": "E4",
            "ticks": 424800,
            "time": 442.5,
            "velocity": 0.4251968503937008
          },
          {
            "duration": 1.0197916666666629,
            "durationTicks": 979,
            "midi": 64,
            "name": "E4",
            "ticks": 429600,
            "time": 447.5,
            "velocity": 0.4881889763779528
          },
          {
            "duration": 0.9489583333333371,
            "durationTicks": 911,
            "midi": 65,
            "name": "F4",
            "ticks": 430560,
            "time": 448.5,
            "velocity": 0.5354330708661418
          },
          {
            "duration": 1.0197916666666629,
            "durationTicks": 979,
            "midi": 65,
            "name": "F4",
            "ticks": 431520,
            "time": 449.5,
            "velocity": 0.48031496062992124
          },
          {
            "duration": 0.9489583333333371,
            "durationTicks": 911,
            "midi": 64,
            "name": "E4",
            "ticks": 432480,
            "time": 450.5,
            "velocity": 0.4645669291338583
          },
          {
            "duration": 1.0197916666666629,
            "durationTicks": 979,
            "midi": 70,
            "name": "A#4",
            "ticks": 437280,
            "time": 455.5,
            "velocity": 0.5275590551181102
          },
          {
            "duration": 0.9489583333333371,
            "durationTicks": 911,
            "midi": 67,
            "name": "G4",
            "ticks": 438240,
            "time": 456.5,
            "velocity": 0.5118110236220472
          },
          {
            "duration": 1.0197916666666629,
            "durationTicks": 979,
            "midi": 67,
            "name": "G4",
            "ticks": 439200,
            "time": 457.5,
            "velocity": 0.4645669291338583
          },
          {
            "duration": 0.9489583333333371,
            "durationTicks": 911,
            "midi": 65,
            "name": "F4",
            "ticks": 440160,
            "time": 458.5,
            "velocity": 0.44881889763779526
          },
          {
            "duration": 1.8999999999999773,
            "durationTicks": 1824,
            "midi": 69,
            "name": "A4",
            "ticks": 441120,
            "time": 459.5,
            "velocity": 0.5118110236220472
          },
          {
            "duration": 1.0197916666666629,
            "durationTicks": 979,
            "midi": 69,
            "name": "A4",
            "ticks": 443040,
            "time": 461.5,
            "velocity": 0.5196850393700787
          },
          {
            "duration": 0.9489583333333371,
            "durationTicks": 911,
            "midi": 67,
            "name": "G4",
            "ticks": 444000,
            "time": 462.5,
            "velocity": 0.5196850393700787
          },
          {
            "duration": 0.5093749999999773,
            "durationTicks": 489,
            "midi": 65,
            "name": "F4",
            "ticks": 444960,
            "time": 463.5,
            "velocity": 0.4566929133858268
          },
          {
            "duration": 0.5093749999999773,
            "durationTicks": 489,
            "midi": 67,
            "name": "G4",
            "ticks": 445440,
            "time": 464,
            "velocity": 0.49606299212598426
          },
          {
            "duration": 0.5093749999999773,
            "durationTicks": 489,
            "midi": 68,
            "name": "G#4",
            "ticks": 445920,
            "time": 464.5,
            "velocity": 0.48031496062992124
          },
          {
            "duration": 0.5093749999999773,
            "durationTicks": 489,
            "midi": 67,
            "name": "G4",
            "ticks": 446400,
            "time": 465,
            "velocity": 0.48031496062992124
          },
          {
            "duration": 0.5093749999999773,
            "durationTicks": 489,
            "midi": 65,
            "name": "F4",
            "ticks": 446880,
            "time": 465.5,
            "velocity": 0.47244094488188976
          },
          {
            "duration": 0.47500000000002274,
            "durationTicks": 456,
            "midi": 67,
            "name": "G4",
            "ticks": 447360,
            "time": 466,
            "velocity": 0.5039370078740157
          },
          {
            "duration": 0.5093749999999773,
            "durationTicks": 489,
            "midi": 68,
            "name": "G#4",
            "ticks": 447840,
            "time": 466.5,
            "velocity": 0.5433070866141733
          },
          {
            "duration": 0.5093749999999773,
            "durationTicks": 489,
            "midi": 67,
            "name": "G4",
            "ticks": 448320,
            "time": 467,
            "velocity": 0.5196850393700787
          },
          {
            "duration": 0.5093749999999773,
            "durationTicks": 489,
            "midi": 65,
            "name": "F4",
            "ticks": 448800,
            "time": 467.5,
            "velocity": 0.4566929133858268
          },
          {
            "duration": 0.47500000000002274,
            "durationTicks": 456,
            "midi": 67,
            "name": "G4",
            "ticks": 449280,
            "time": 468,
            "velocity": 0.5905511811023622
          },
          {
            "duration": 0.5093749999999773,
            "durationTicks": 489,
            "midi": 68,
            "name": "G#4",
            "ticks": 449760,
            "time": 468.5,
            "velocity": 0.5354330708661418
          },
          {
            "duration": 0.5093749999999773,
            "durationTicks": 489,
            "midi": 67,
            "name": "G4",
            "ticks": 450240,
            "time": 469,
            "velocity": 0.5354330708661418
          },
          {
            "duration": 0.5093749999999773,
            "durationTicks": 489,
            "midi": 65,
            "name": "F4",
            "ticks": 450720,
            "time": 469.5,
            "velocity": 0.5275590551181102
          },
          {
            "duration": 0.47500000000002274,
            "durationTicks": 456,
            "midi": 67,
            "name": "G4",
            "ticks": 451200,
            "time": 470,
            "velocity": 0.5669291338582677
          },
          {
            "duration": 0.5093749999999773,
            "durationTicks": 489,
            "midi": 68,
            "name": "G#4",
            "ticks": 451680,
            "time": 470.5,
            "velocity": 0.5748031496062992
          },
          {
            "duration": 0.5093749999999773,
            "durationTicks": 489,
            "midi": 67,
            "name": "G4",
            "ticks": 452160,
            "time": 471,
            "velocity": 0.5590551181102362
          },
          {
            "duration": 0.5093749999999773,
            "durationTicks": 489,
            "midi": 66,
            "name": "F#4",
            "ticks": 452640,
            "time": 471.5,
            "velocity": 0.5905511811023622
          },
          {
            "duration": 0.47500000000002274,
            "durationTicks": 456,
            "midi": 67,
            "name": "G4",
            "ticks": 453120,
            "time": 472,
            "velocity": 0.6220472440944882
          },
          {
            "duration": 0.5093749999999773,
            "durationTicks": 489,
            "midi": 69,
            "name": "A4",
            "ticks": 453600,
            "time": 472.5,
            "velocity": 0.7401574803149606
          },
          {
            "duration": 0.5093749999999773,
            "durationTicks": 489,
            "midi": 67,
            "name": "G4",
            "ticks": 454080,
            "time": 473,
            "velocity": 0.7086614173228346
          },
          {
            "duration": 0.5093749999999773,
            "durationTicks": 489,
            "midi": 66,
            "name": "F#4",
            "ticks": 454560,
            "time": 473.5,
            "velocity": 0.5984251968503937
          },
          {
            "duration": 0.47500000000002274,
            "durationTicks": 456,
            "midi": 67,
            "name": "G4",
            "ticks": 455040,
            "time": 474,
            "velocity": 0.6614173228346457
          },
          {
            "duration": 0.5093749999999773,
            "durationTicks": 489,
            "midi": 69,
            "name": "A4",
            "ticks": 455520,
            "time": 474.5,
            "velocity": 0.6850393700787402
          },
          {
            "duration": 0.5093749999999773,
            "durationTicks": 489,
            "midi": 67,
            "name": "G4",
            "ticks": 456000,
            "time": 475,
            "velocity": 0.6850393700787402
          },
          {
            "duration": 0.5093749999999773,
            "durationTicks": 489,
            "midi": 66,
            "name": "F#4",
            "ticks": 456480,
            "time": 475.5,
            "velocity": 0.6929133858267716
          },
          {
            "duration": 0.5093749999999773,
            "durationTicks": 489,
            "midi": 67,
            "name": "G4",
            "ticks": 456960,
            "time": 476,
            "velocity": 0.7086614173228346
          },
          {
            "duration": 0.5093749999999773,
            "durationTicks": 489,
            "midi": 66,
            "name": "F#4",
            "ticks": 457440,
            "time": 476.5,
            "velocity": 0.7559055118110236
          },
          {
            "duration": 0.5093749999999773,
            "durationTicks": 489,
            "midi": 67,
            "name": "G4",
            "ticks": 457920,
            "time": 477,
            "velocity": 0.7952755905511811
          },
          {
            "duration": 0.5093749999999773,
            "durationTicks": 489,
            "midi": 66,
            "name": "F#4",
            "ticks": 458400,
            "time": 477.5,
            "velocity": 0.7480314960629921
          },
          {
            "duration": 0.47500000000002274,
            "durationTicks": 456,
            "midi": 67,
            "name": "G4",
            "ticks": 458880,
            "time": 478,
            "velocity": 0.7716535433070866
          },
          {
            "duration": 1.2260416666666742,
            "durationTicks": 1177,
            "midi": 79,
            "name": "G5",
            "ticks": 459360,
            "time": 478.5,
            "velocity": 1
          },
          {
            "duration": 0.11354166666666288,
            "durationTicks": 109,
            "midi": 81,
            "name": "A5",
            "ticks": 460560,
            "time": 479.75,
            "velocity": 0.952755905511811
          },
          {
            "duration": 0.11354166666666288,
            "durationTicks": 109,
            "midi": 79,
            "name": "G5",
            "ticks": 460800,
            "time": 480,
            "velocity": 0.8267716535433071
          },
          {
            "duration": 0.11354166666666288,
            "durationTicks": 109,
            "midi": 77,
            "name": "F5",
            "ticks": 461040,
            "time": 480.25,
            "velocity": 0.8346456692913385
          },
          {
            "duration": 0.2541666666666629,
            "durationTicks": 244,
            "midi": 77,
            "name": "F5",
            "ticks": 461280,
            "time": 480.5,
            "velocity": 0.8818897637795275
          },
          {
            "duration": 0.23645833333335986,
            "durationTicks": 227,
            "midi": 76,
            "name": "E5",
            "ticks": 461520,
            "time": 480.75,
            "velocity": 0.8503937007874016
          },
          {
            "duration": 0.11354166666666288,
            "durationTicks": 109,
            "midi": 74,
            "name": "D5",
            "ticks": 461760,
            "time": 481,
            "velocity": 0.8346456692913385
          },
          {
            "duration": 0.11354166666666288,
            "durationTicks": 109,
            "midi": 72,
            "name": "C5",
            "ticks": 462000,
            "time": 481.25,
            "velocity": 0.8346456692913385
          },
          {
            "duration": 0.2541666666666629,
            "durationTicks": 244,
            "midi": 72,
            "name": "C5",
            "ticks": 462240,
            "time": 481.5,
            "velocity": 0.8818897637795275
          },
          {
            "duration": 0.23645833333335986,
            "durationTicks": 227,
            "midi": 71,
            "name": "B4",
            "ticks": 462480,
            "time": 481.75,
            "velocity": 0.8582677165354331
          },
          {
            "duration": 0.11354166666666288,
            "durationTicks": 109,
            "midi": 69,
            "name": "A4",
            "ticks": 462720,
            "time": 482,
            "velocity": 0.8188976377952756
          },
          {
            "duration": 0.11354166666666288,
            "durationTicks": 109,
            "midi": 71,
            "name": "B4",
            "ticks": 462960,
            "time": 482.25,
            "velocity": 0.937007874015748
          },
          {
            "duration": 0.2541666666666629,
            "durationTicks": 244,
            "midi": 74,
            "name": "D5",
            "ticks": 463200,
            "time": 482.5,
            "velocity": 1
          },
          {
            "duration": 0.23645833333335986,
            "durationTicks": 227,
            "midi": 72,
            "name": "C5",
            "ticks": 463440,
            "time": 482.75,
            "velocity": 0.9763779527559056
          },
          {
            "duration": 0.11354166666666288,
            "durationTicks": 109,
            "midi": 67,
            "name": "G4",
            "ticks": 463680,
            "time": 483,
            "velocity": 0.7637795275590551
          },
          {
            "duration": 0.11354166666666288,
            "durationTicks": 109,
            "midi": 64,
            "name": "E4",
            "ticks": 463920,
            "time": 483.25,
            "velocity": 0.8031496062992126
          },
          {
            "duration": 0.2541666666666629,
            "durationTicks": 244,
            "midi": 71,
            "name": "B4",
            "ticks": 464160,
            "time": 483.5,
            "velocity": 1
          },
          {
            "duration": 0.23645833333335986,
            "durationTicks": 227,
            "midi": 69,
            "name": "A4",
            "ticks": 464400,
            "time": 483.75,
            "velocity": 0.9606299212598425
          },
          {
            "duration": 0.11354166666666288,
            "durationTicks": 109,
            "midi": 65,
            "name": "F4",
            "ticks": 464640,
            "time": 484,
            "velocity": 0.7874015748031497
          },
          {
            "duration": 0.11354166666666288,
            "durationTicks": 109,
            "midi": 62,
            "name": "D4",
            "ticks": 464880,
            "time": 484.25,
            "velocity": 0.8031496062992126
          },
          {
            "duration": 0.22604166666667425,
            "durationTicks": 217,
            "midi": 55,
            "name": "G3",
            "ticks": 465120,
            "time": 484.5,
            "velocity": 0.8031496062992126
          },
          {
            "duration": 0.22604166666667425,
            "durationTicks": 217,
            "midi": 55,
            "name": "G3",
            "ticks": 465360,
            "time": 484.75,
            "velocity": 0.8818897637795275
          },
          {
            "duration": 0.22604166666667425,
            "durationTicks": 217,
            "midi": 60,
            "name": "C4",
            "ticks": 465600,
            "time": 485,
            "velocity": 1
          },
          {
            "duration": 0.22604166666667425,
            "durationTicks": 217,
            "midi": 60,
            "name": "C4",
            "ticks": 465840,
            "time": 485.25,
            "velocity": 0.8976377952755905
          },
          {
            "duration": 0.11354166666666288,
            "durationTicks": 109,
            "midi": 59,
            "name": "B3",
            "ticks": 466080,
            "time": 485.5,
            "velocity": 0.8740157480314961
          },
          {
            "duration": 0.2541666666666629,
            "durationTicks": 244,
            "midi": 66,
            "name": "F#4",
            "ticks": 466320,
            "time": 485.75,
            "velocity": 1
          },
          {
            "duration": 0.2541666666666629,
            "durationTicks": 244,
            "midi": 67,
            "name": "G4",
            "ticks": 466560,
            "time": 486,
            "velocity": 1
          },
          {
            "duration": 0.2541666666666629,
            "durationTicks": 244,
            "midi": 66,
            "name": "F#4",
            "ticks": 466800,
            "time": 486.25,
            "velocity": 0.8818897637795275
          },
          {
            "duration": 0.2541666666666629,
            "durationTicks": 244,
            "midi": 67,
            "name": "G4",
            "ticks": 467040,
            "time": 486.5,
            "velocity": 0.8976377952755905
          },
          {
            "duration": 0.2541666666666629,
            "durationTicks": 244,
            "midi": 66,
            "name": "F#4",
            "ticks": 467280,
            "time": 486.75,
            "velocity": 0.8582677165354331
          },
          {
            "duration": 0.2541666666666629,
            "durationTicks": 244,
            "midi": 67,
            "name": "G4",
            "ticks": 467520,
            "time": 487,
            "velocity": 0.905511811023622
          },
          {
            "duration": 0.23645833333335986,
            "durationTicks": 227,
            "midi": 66,
            "name": "F#4",
            "ticks": 467760,
            "time": 487.25,
            "velocity": 0.8582677165354331
          },
          {
            "duration": 0.11354166666666288,
            "durationTicks": 109,
            "midi": 67,
            "name": "G4",
            "ticks": 468000,
            "time": 487.5,
            "velocity": 0.9291338582677166
          },
          {
            "duration": 0.11354166666666288,
            "durationTicks": 109,
            "midi": 81,
            "name": "A5",
            "ticks": 468240,
            "time": 487.75,
            "velocity": 1
          },
          {
            "duration": 0.11354166666666288,
            "durationTicks": 109,
            "midi": 79,
            "name": "G5",
            "ticks": 468480,
            "time": 488,
            "velocity": 0.8503937007874016
          },
          {
            "duration": 0.11354166666666288,
            "durationTicks": 109,
            "midi": 77,
            "name": "F5",
            "ticks": 468720,
            "time": 488.25,
            "velocity": 0.8031496062992126
          },
          {
            "duration": 0.2541666666666629,
            "durationTicks": 244,
            "midi": 77,
            "name": "F5",
            "ticks": 468960,
            "time": 488.5,
            "velocity": 0.889763779527559
          },
          {
            "duration": 0.23645833333335986,
            "durationTicks": 227,
            "midi": 76,
            "name": "E5",
            "ticks": 469200,
            "time": 488.75,
            "velocity": 0.8661417322834646
          },
          {
            "duration": 0.11354166666666288,
            "durationTicks": 109,
            "midi": 74,
            "name": "D5",
            "ticks": 469440,
            "time": 489,
            "velocity": 0.8346456692913385
          },
          {
            "duration": 0.11354166666666288,
            "durationTicks": 109,
            "midi": 72,
            "name": "C5",
            "ticks": 469680,
            "time": 489.25,
            "velocity": 0.7874015748031497
          },
          {
            "duration": 0.2541666666666629,
            "durationTicks": 244,
            "midi": 72,
            "name": "C5",
            "ticks": 469920,
            "time": 489.5,
            "velocity": 0.9133858267716536
          },
          {
            "duration": 0.23645833333335986,
            "durationTicks": 227,
            "midi": 71,
            "name": "B4",
            "ticks": 470160,
            "time": 489.75,
            "velocity": 0.8818897637795275
          },
          {
            "duration": 0.11354166666666288,
            "durationTicks": 109,
            "midi": 69,
            "name": "A4",
            "ticks": 470400,
            "time": 490,
            "velocity": 0.8346456692913385
          },
          {
            "duration": 0.11354166666666288,
            "durationTicks": 109,
            "midi": 71,
            "name": "B4",
            "ticks": 470640,
            "time": 490.25,
            "velocity": 0.9133858267716536
          },
          {
            "duration": 0.2541666666666629,
            "durationTicks": 244,
            "midi": 74,
            "name": "D5",
            "ticks": 470880,
            "time": 490.5,
            "velocity": 0.9763779527559056
          },
          {
            "duration": 0.23645833333335986,
            "durationTicks": 227,
            "midi": 72,
            "name": "C5",
            "ticks": 471120,
            "time": 490.75,
            "velocity": 0.952755905511811
          },
          {
            "duration": 0.11354166666666288,
            "durationTicks": 109,
            "midi": 67,
            "name": "G4",
            "ticks": 471360,
            "time": 491,
            "velocity": 0.7637795275590551
          },
          {
            "duration": 0.11354166666666288,
            "durationTicks": 109,
            "midi": 64,
            "name": "E4",
            "ticks": 471600,
            "time": 491.25,
            "velocity": 0.8188976377952756
          },
          {
            "duration": 0.2541666666666629,
            "durationTicks": 244,
            "midi": 71,
            "name": "B4",
            "ticks": 471840,
            "time": 491.5,
            "velocity": 1
          },
          {
            "duration": 0.23645833333335986,
            "durationTicks": 227,
            "midi": 69,
            "name": "A4",
            "ticks": 472080,
            "time": 491.75,
            "velocity": 0.9763779527559056
          },
          {
            "duration": 0.11354166666666288,
            "durationTicks": 109,
            "midi": 65,
            "name": "F4",
            "ticks": 472320,
            "time": 492,
            "velocity": 0.7874015748031497
          },
          {
            "duration": 0.11354166666666288,
            "durationTicks": 109,
            "midi": 62,
            "name": "D4",
            "ticks": 472560,
            "time": 492.25,
            "velocity": 0.8188976377952756
          },
          {
            "duration": 0.2541666666666629,
            "durationTicks": 244,
            "midi": 69,
            "name": "A4",
            "ticks": 472800,
            "time": 492.5,
            "velocity": 1
          },
          {
            "duration": 0.23645833333335986,
            "durationTicks": 227,
            "midi": 67,
            "name": "G4",
            "ticks": 473040,
            "time": 492.75,
            "velocity": 0.9133858267716536
          },
          {
            "duration": 0.11354166666666288,
            "durationTicks": 109,
            "midi": 64,
            "name": "E4",
            "ticks": 473280,
            "time": 493,
            "velocity": 0.7952755905511811
          },
          {
            "duration": 0.11354166666666288,
            "durationTicks": 109,
            "midi": 60,
            "name": "C4",
            "ticks": 473520,
            "time": 493.25,
            "velocity": 0.7795275590551181
          },
          {
            "duration": 0.22604166666667425,
            "durationTicks": 217,
            "midi": 55,
            "name": "G3",
            "ticks": 473760,
            "time": 493.5,
            "velocity": 0.84251968503937
          },
          {
            "duration": 0.22604166666667425,
            "durationTicks": 217,
            "midi": 67,
            "name": "G4",
            "ticks": 474000,
            "time": 493.75,
            "velocity": 1
          },
          {
            "duration": 0.22604166666667425,
            "durationTicks": 217,
            "midi": 79,
            "name": "G5",
            "ticks": 474240,
            "time": 494,
            "velocity": 1
          },
          {
            "duration": 0.22604166666667425,
            "durationTicks": 217,
            "midi": 79,
            "name": "G5",
            "ticks": 474480,
            "time": 494.25,
            "velocity": 0.9291338582677166
          },
          {
            "duration": 3.2260416666666742,
            "durationTicks": 3097,
            "midi": 64,
            "name": "E4",
            "ticks": 474720,
            "time": 494.5,
            "velocity": 0.6850393700787402
          },
          {
            "duration": 0.22604166666667425,
            "durationTicks": 217,
            "midi": 59,
            "name": "B3",
            "ticks": 477840,
            "time": 497.75,
            "velocity": 0.8031496062992126
          },
          {
            "duration": 0.22604166666667425,
            "durationTicks": 217,
            "midi": 59,
            "name": "B3",
            "ticks": 478080,
            "time": 498,
            "velocity": 0.8661417322834646
          },
          {
            "duration": 0.22604166666667425,
            "durationTicks": 217,
            "midi": 59,
            "name": "B3",
            "ticks": 478320,
            "time": 498.25,
            "velocity": 0.8976377952755905
          },
          {
            "duration": 3.2260416666666742,
            "durationTicks": 3097,
            "midi": 60,
            "name": "C4",
            "ticks": 478560,
            "time": 498.5,
            "velocity": 0.9448818897637795
          },
          {
            "duration": 0.22604166666667425,
            "durationTicks": 217,
            "midi": 62,
            "name": "D4",
            "ticks": 481680,
            "time": 501.75,
            "velocity": 1
          },
          {
            "duration": 0.22604166666667425,
            "durationTicks": 217,
            "midi": 71,
            "name": "B4",
            "ticks": 481680,
            "time": 501.75,
            "velocity": 1
          },
          {
            "duration": 0.22604166666667425,
            "durationTicks": 217,
            "midi": 62,
            "name": "D4",
            "ticks": 481920,
            "time": 502,
            "velocity": 0.9291338582677166
          },
          {
            "duration": 0.22604166666667425,
            "durationTicks": 217,
            "midi": 71,
            "name": "B4",
            "ticks": 481920,
            "time": 502,
            "velocity": 0.9291338582677166
          },
          {
            "duration": 0.22604166666667425,
            "durationTicks": 217,
            "midi": 62,
            "name": "D4",
            "ticks": 482160,
            "time": 502.25,
            "velocity": 0.8976377952755905
          },
          {
            "duration": 0.22604166666667425,
            "durationTicks": 217,
            "midi": 71,
            "name": "B4",
            "ticks": 482160,
            "time": 502.25,
            "velocity": 0.8976377952755905
          },
          {
            "duration": 0.45104166666664014,
            "durationTicks": 433,
            "midi": 64,
            "name": "E4",
            "ticks": 482400,
            "time": 502.5,
            "velocity": 0.9606299212598425
          },
          {
            "duration": 0.45104166666664014,
            "durationTicks": 433,
            "midi": 72,
            "name": "C5",
            "ticks": 482400,
            "time": 502.5,
            "velocity": 0.9606299212598425
          },
          {
            "duration": 0.22604166666667425,
            "durationTicks": 217,
            "midi": 62,
            "name": "D4",
            "ticks": 483600,
            "time": 503.75,
            "velocity": 0.8110236220472441
          },
          {
            "duration": 0.22604166666667425,
            "durationTicks": 217,
            "midi": 71,
            "name": "B4",
            "ticks": 483600,
            "time": 503.75,
            "velocity": 0.8110236220472441
          },
          {
            "duration": 0.22604166666667425,
            "durationTicks": 217,
            "midi": 62,
            "name": "D4",
            "ticks": 483840,
            "time": 504,
            "velocity": 0.8740157480314961
          },
          {
            "duration": 0.22604166666667425,
            "durationTicks": 217,
            "midi": 71,
            "name": "B4",
            "ticks": 483840,
            "time": 504,
            "velocity": 0.8740157480314961
          },
          {
            "duration": 0.22604166666667425,
            "durationTicks": 217,
            "midi": 62,
            "name": "D4",
            "ticks": 484080,
            "time": 504.25,
            "velocity": 0.84251968503937
          },
          {
            "duration": 0.22604166666667425,
            "durationTicks": 217,
            "midi": 71,
            "name": "B4",
            "ticks": 484080,
            "time": 504.25,
            "velocity": 0.84251968503937
          },
          {
            "duration": 0.45104166666664014,
            "durationTicks": 433,
            "midi": 64,
            "name": "E4",
            "ticks": 484320,
            "time": 504.5,
            "velocity": 0.905511811023622
          },
          {
            "duration": 0.45104166666664014,
            "durationTicks": 433,
            "midi": 72,
            "name": "C5",
            "ticks": 484320,
            "time": 504.5,
            "velocity": 0.905511811023622
          },
          {
            "duration": 0.22604166666667425,
            "durationTicks": 217,
            "midi": 71,
            "name": "B4",
            "ticks": 485520,
            "time": 505.75,
            "velocity": 0.7952755905511811
          },
          {
            "duration": 0.22604166666667425,
            "durationTicks": 217,
            "midi": 79,
            "name": "G5",
            "ticks": 485520,
            "time": 505.75,
            "velocity": 0.7952755905511811
          },
          {
            "duration": 0.22604166666667425,
            "durationTicks": 217,
            "midi": 71,
            "name": "B4",
            "ticks": 485760,
            "time": 506,
            "velocity": 0.905511811023622
          },
          {
            "duration": 0.22604166666667425,
            "durationTicks": 217,
            "midi": 79,
            "name": "G5",
            "ticks": 485760,
            "time": 506,
            "velocity": 0.905511811023622
          },
          {
            "duration": 0.22604166666667425,
            "durationTicks": 217,
            "midi": 71,
            "name": "B4",
            "ticks": 486000,
            "time": 506.25,
            "velocity": 0.9291338582677166
          },
          {
            "duration": 0.22604166666667425,
            "durationTicks": 217,
            "midi": 79,
            "name": "G5",
            "ticks": 486000,
            "time": 506.25,
            "velocity": 0.9291338582677166
          },
          {
            "duration": 1.2260416666666742,
            "durationTicks": 1177,
            "midi": 76,
            "name": "E5",
            "ticks": 486240,
            "time": 506.5,
            "velocity": 0.8976377952755905
          },
          {
            "duration": 0.22604166666667425,
            "durationTicks": 217,
            "midi": 76,
            "name": "E5",
            "ticks": 487440,
            "time": 507.75,
            "velocity": 0.889763779527559
          },
          {
            "duration": 0.22604166666667425,
            "durationTicks": 217,
            "midi": 76,
            "name": "E5",
            "ticks": 487680,
            "time": 508,
            "velocity": 0.889763779527559
          },
          {
            "duration": 0.22604166666667425,
            "durationTicks": 217,
            "midi": 76,
            "name": "E5",
            "ticks": 487920,
            "time": 508.25,
            "velocity": 0.905511811023622
          },
          {
            "duration": 1.2260416666666742,
            "durationTicks": 1177,
            "midi": 72,
            "name": "C5",
            "ticks": 488160,
            "time": 508.5,
            "velocity": 1
          },
          {
            "duration": 1.2260416666666742,
            "durationTicks": 1177,
            "midi": 77,
            "name": "F5",
            "ticks": 488160,
            "time": 508.5,
            "velocity": 1
          },
          {
            "duration": 0.22604166666667425,
            "durationTicks": 217,
            "midi": 72,
            "name": "C5",
            "ticks": 489360,
            "time": 509.75,
            "velocity": 0.889763779527559
          },
          {
            "duration": 0.22604166666667425,
            "durationTicks": 217,
            "midi": 77,
            "name": "F5",
            "ticks": 489360,
            "time": 509.75,
            "velocity": 0.889763779527559
          },
          {
            "duration": 0.22604166666667425,
            "durationTicks": 217,
            "midi": 72,
            "name": "C5",
            "ticks": 489600,
            "time": 510,
            "velocity": 0.8818897637795275
          },
          {
            "duration": 0.22604166666667425,
            "durationTicks": 217,
            "midi": 77,
            "name": "F5",
            "ticks": 489600,
            "time": 510,
            "velocity": 0.8818897637795275
          },
          {
            "duration": 0.22604166666667425,
            "durationTicks": 217,
            "midi": 72,
            "name": "C5",
            "ticks": 489840,
            "time": 510.25,
            "velocity": 0.8818897637795275
          },
          {
            "duration": 0.22604166666667425,
            "durationTicks": 217,
            "midi": 77,
            "name": "F5",
            "ticks": 489840,
            "time": 510.25,
            "velocity": 0.8818897637795275
          },
          {
            "duration": 1.2260416666666742,
            "durationTicks": 1177,
            "midi": 72,
            "name": "C5",
            "ticks": 490080,
            "time": 510.5,
            "velocity": 1
          },
          {
            "duration": 1.2260416666666742,
            "durationTicks": 1177,
            "midi": 79,
            "name": "G5",
            "ticks": 490080,
            "time": 510.5,
            "velocity": 1
          },
          {
            "duration": 0.22604166666667425,
            "durationTicks": 217,
            "midi": 72,
            "name": "C5",
            "ticks": 491280,
            "time": 511.75,
            "velocity": 0.905511811023622
          },
          {
            "duration": 0.22604166666667425,
            "durationTicks": 217,
            "midi": 79,
            "name": "G5",
            "ticks": 491280,
            "time": 511.75,
            "velocity": 0.905511811023622
          },
          {
            "duration": 0.22604166666667425,
            "durationTicks": 217,
            "midi": 72,
            "name": "C5",
            "ticks": 491520,
            "time": 512,
            "velocity": 0.8976377952755905
          },
          {
            "duration": 0.22604166666667425,
            "durationTicks": 217,
            "midi": 79,
            "name": "G5",
            "ticks": 491520,
            "time": 512,
            "velocity": 0.8976377952755905
          },
          {
            "duration": 0.22604166666667425,
            "durationTicks": 217,
            "midi": 72,
            "name": "C5",
            "ticks": 491760,
            "time": 512.25,
            "velocity": 0.8818897637795275
          },
          {
            "duration": 0.22604166666667425,
            "durationTicks": 217,
            "midi": 79,
            "name": "G5",
            "ticks": 491760,
            "time": 512.25,
            "velocity": 0.8818897637795275
          },
          {
            "duration": 1.2260416666666742,
            "durationTicks": 1177,
            "midi": 72,
            "name": "C5",
            "ticks": 492000,
            "time": 512.5,
            "velocity": 1
          },
          {
            "duration": 1.2260416666666742,
            "durationTicks": 1177,
            "midi": 80,
            "name": "G#5",
            "ticks": 492000,
            "time": 512.5,
            "velocity": 1
          },
          {
            "duration": 0.22604166666667425,
            "durationTicks": 217,
            "midi": 72,
            "name": "C5",
            "ticks": 493200,
            "time": 513.75,
            "velocity": 0.9133858267716536
          },
          {
            "duration": 0.22604166666667425,
            "durationTicks": 217,
            "midi": 80,
            "name": "G#5",
            "ticks": 493200,
            "time": 513.75,
            "velocity": 0.9133858267716536
          },
          {
            "duration": 0.22604166666667425,
            "durationTicks": 217,
            "midi": 72,
            "name": "C5",
            "ticks": 493440,
            "time": 514,
            "velocity": 0.889763779527559
          },
          {
            "duration": 0.22604166666667425,
            "durationTicks": 217,
            "midi": 80,
            "name": "G#5",
            "ticks": 493440,
            "time": 514,
            "velocity": 0.889763779527559
          },
          {
            "duration": 0.22604166666667425,
            "durationTicks": 217,
            "midi": 72,
            "name": "C5",
            "ticks": 493680,
            "time": 514.25,
            "velocity": 0.8976377952755905
          },
          {
            "duration": 0.22604166666667425,
            "durationTicks": 217,
            "midi": 80,
            "name": "G#5",
            "ticks": 493680,
            "time": 514.25,
            "velocity": 0.8976377952755905
          },
          {
            "duration": 0.22604166666667425,
            "durationTicks": 217,
            "midi": 73,
            "name": "C#5",
            "ticks": 493920,
            "time": 514.5,
            "velocity": 0.7322834645669292
          },
          {
            "duration": 0.22604166666667425,
            "durationTicks": 217,
            "midi": 73,
            "name": "C#5",
            "ticks": 494160,
            "time": 514.75,
            "velocity": 0.8582677165354331
          },
          {
            "duration": 0.22604166666667425,
            "durationTicks": 217,
            "midi": 73,
            "name": "C#5",
            "ticks": 494400,
            "time": 515,
            "velocity": 0.905511811023622
          },
          {
            "duration": 0.22604166666667425,
            "durationTicks": 217,
            "midi": 73,
            "name": "C#5",
            "ticks": 494640,
            "time": 515.25,
            "velocity": 0.905511811023622
          },
          {
            "duration": 0.22604166666667425,
            "durationTicks": 217,
            "midi": 73,
            "name": "C#5",
            "ticks": 494880,
            "time": 515.5,
            "velocity": 0.889763779527559
          },
          {
            "duration": 0.22604166666667425,
            "durationTicks": 217,
            "midi": 73,
            "name": "C#5",
            "ticks": 495120,
            "time": 515.75,
            "velocity": 0.8976377952755905
          },
          {
            "duration": 0.22604166666667425,
            "durationTicks": 217,
            "midi": 73,
            "name": "C#5",
            "ticks": 495360,
            "time": 516,
            "velocity": 0.8582677165354331
          },
          {
            "duration": 0.22604166666667425,
            "durationTicks": 217,
            "midi": 73,
            "name": "C#5",
            "ticks": 495600,
            "time": 516.25,
            "velocity": 0.9133858267716536
          },
          {
            "duration": 0.22604166666667425,
            "durationTicks": 217,
            "midi": 73,
            "name": "C#5",
            "ticks": 495840,
            "time": 516.5,
            "velocity": 0.8976377952755905
          },
          {
            "duration": 0.22604166666667425,
            "durationTicks": 217,
            "midi": 73,
            "name": "C#5",
            "ticks": 496080,
            "time": 516.75,
            "velocity": 0.8661417322834646
          },
          {
            "duration": 0.22604166666667425,
            "durationTicks": 217,
            "midi": 73,
            "name": "C#5",
            "ticks": 496320,
            "time": 517,
            "velocity": 0.8818897637795275
          },
          {
            "duration": 0.22604166666667425,
            "durationTicks": 217,
            "midi": 73,
            "name": "C#5",
            "ticks": 496560,
            "time": 517.25,
            "velocity": 0.8582677165354331
          },
          {
            "duration": 0.22604166666667425,
            "durationTicks": 217,
            "midi": 73,
            "name": "C#5",
            "ticks": 496800,
            "time": 517.5,
            "velocity": 0.905511811023622
          },
          {
            "duration": 0.22604166666667425,
            "durationTicks": 217,
            "midi": 73,
            "name": "C#5",
            "ticks": 497040,
            "time": 517.75,
            "velocity": 0.8976377952755905
          },
          {
            "duration": 0.22604166666667425,
            "durationTicks": 217,
            "midi": 73,
            "name": "C#5",
            "ticks": 497280,
            "time": 518,
            "velocity": 0.905511811023622
          },
          {
            "duration": 0.22604166666667425,
            "durationTicks": 217,
            "midi": 73,
            "name": "C#5",
            "ticks": 497520,
            "time": 518.25,
            "velocity": 0.8976377952755905
          },
          {
            "duration": 0.451041666666697,
            "durationTicks": 433,
            "midi": 73,
            "name": "C#5",
            "ticks": 497760,
            "time": 518.5,
            "velocity": 0.9133858267716536
          },
          {
            "duration": 0.22604166666667425,
            "durationTicks": 217,
            "midi": 75,
            "name": "D#5",
            "ticks": 501840,
            "time": 522.75,
            "velocity": 0.8110236220472441
          },
          {
            "duration": 0.22604166666667425,
            "durationTicks": 217,
            "midi": 84,
            "name": "C6",
            "ticks": 501840,
            "time": 522.75,
            "velocity": 0.8110236220472441
          },
          {
            "duration": 0.22604166666667425,
            "durationTicks": 217,
            "midi": 75,
            "name": "D#5",
            "ticks": 502080,
            "time": 523,
            "velocity": 0.8818897637795275
          },
          {
            "duration": 0.22604166666667425,
            "durationTicks": 217,
            "midi": 84,
            "name": "C6",
            "ticks": 502080,
            "time": 523,
            "velocity": 0.8818897637795275
          },
          {
            "duration": 0.22604166666667425,
            "durationTicks": 217,
            "midi": 75,
            "name": "D#5",
            "ticks": 502320,
            "time": 523.25,
            "velocity": 0.889763779527559
          },
          {
            "duration": 0.22604166666667425,
            "durationTicks": 217,
            "midi": 84,
            "name": "C6",
            "ticks": 502320,
            "time": 523.25,
            "velocity": 0.889763779527559
          },
          {
            "duration": 0.22604166666667425,
            "durationTicks": 217,
            "midi": 75,
            "name": "D#5",
            "ticks": 502560,
            "time": 523.5,
            "velocity": 0.8976377952755905
          },
          {
            "duration": 0.22604166666667425,
            "durationTicks": 217,
            "midi": 84,
            "name": "C6",
            "ticks": 502560,
            "time": 523.5,
            "velocity": 0.8976377952755905
          },
          {
            "duration": 0.22604166666667425,
            "durationTicks": 217,
            "midi": 75,
            "name": "D#5",
            "ticks": 502800,
            "time": 523.75,
            "velocity": 0.9133858267716536
          },
          {
            "duration": 0.22604166666667425,
            "durationTicks": 217,
            "midi": 84,
            "name": "C6",
            "ticks": 502800,
            "time": 523.75,
            "velocity": 0.9133858267716536
          },
          {
            "duration": 0.22604166666667425,
            "durationTicks": 217,
            "midi": 75,
            "name": "D#5",
            "ticks": 503040,
            "time": 524,
            "velocity": 0.8661417322834646
          },
          {
            "duration": 0.22604166666667425,
            "durationTicks": 217,
            "midi": 84,
            "name": "C6",
            "ticks": 503040,
            "time": 524,
            "velocity": 0.8661417322834646
          },
          {
            "duration": 0.22604166666667425,
            "durationTicks": 217,
            "midi": 75,
            "name": "D#5",
            "ticks": 503280,
            "time": 524.25,
            "velocity": 0.9212598425196851
          },
          {
            "duration": 0.22604166666667425,
            "durationTicks": 217,
            "midi": 84,
            "name": "C6",
            "ticks": 503280,
            "time": 524.25,
            "velocity": 0.9212598425196851
          },
          {
            "duration": 0.22604166666667425,
            "durationTicks": 217,
            "midi": 75,
            "name": "D#5",
            "ticks": 503520,
            "time": 524.5,
            "velocity": 0.905511811023622
          },
          {
            "duration": 0.22604166666667425,
            "durationTicks": 217,
            "midi": 84,
            "name": "C6",
            "ticks": 503520,
            "time": 524.5,
            "velocity": 0.905511811023622
          },
          {
            "duration": 0.22604166666667425,
            "durationTicks": 217,
            "midi": 75,
            "name": "D#5",
            "ticks": 503760,
            "time": 524.75,
            "velocity": 0.8582677165354331
          },
          {
            "duration": 0.22604166666667425,
            "durationTicks": 217,
            "midi": 84,
            "name": "C6",
            "ticks": 503760,
            "time": 524.75,
            "velocity": 0.8582677165354331
          },
          {
            "duration": 0.22604166666667425,
            "durationTicks": 217,
            "midi": 75,
            "name": "D#5",
            "ticks": 504000,
            "time": 525,
            "velocity": 0.8976377952755905
          },
          {
            "duration": 0.22604166666667425,
            "durationTicks": 217,
            "midi": 84,
            "name": "C6",
            "ticks": 504000,
            "time": 525,
            "velocity": 0.8976377952755905
          },
          {
            "duration": 0.22604166666667425,
            "durationTicks": 217,
            "midi": 75,
            "name": "D#5",
            "ticks": 504240,
            "time": 525.25,
            "velocity": 0.9448818897637795
          },
          {
            "duration": 0.22604166666667425,
            "durationTicks": 217,
            "midi": 84,
            "name": "C6",
            "ticks": 504240,
            "time": 525.25,
            "velocity": 0.9448818897637795
          },
          {
            "duration": 0.22604166666667425,
            "durationTicks": 217,
            "midi": 75,
            "name": "D#5",
            "ticks": 504480,
            "time": 525.5,
            "velocity": 0.905511811023622
          },
          {
            "duration": 0.22604166666667425,
            "durationTicks": 217,
            "midi": 84,
            "name": "C6",
            "ticks": 504480,
            "time": 525.5,
            "velocity": 0.905511811023622
          },
          {
            "duration": 0.22604166666667425,
            "durationTicks": 217,
            "midi": 75,
            "name": "D#5",
            "ticks": 504720,
            "time": 525.75,
            "velocity": 0.905511811023622
          },
          {
            "duration": 0.22604166666667425,
            "durationTicks": 217,
            "midi": 84,
            "name": "C6",
            "ticks": 504720,
            "time": 525.75,
            "velocity": 0.905511811023622
          },
          {
            "duration": 0.22604166666667425,
            "durationTicks": 217,
            "midi": 75,
            "name": "D#5",
            "ticks": 504960,
            "time": 526,
            "velocity": 0.8740157480314961
          },
          {
            "duration": 0.22604166666667425,
            "durationTicks": 217,
            "midi": 84,
            "name": "C6",
            "ticks": 504960,
            "time": 526,
            "velocity": 0.8740157480314961
          },
          {
            "duration": 0.22604166666667425,
            "durationTicks": 217,
            "midi": 75,
            "name": "D#5",
            "ticks": 505200,
            "time": 526.25,
            "velocity": 0.905511811023622
          },
          {
            "duration": 0.22604166666667425,
            "durationTicks": 217,
            "midi": 84,
            "name": "C6",
            "ticks": 505200,
            "time": 526.25,
            "velocity": 0.905511811023622
          },
          {
            "duration": 0.22604166666667425,
            "durationTicks": 217,
            "midi": 75,
            "name": "D#5",
            "ticks": 505440,
            "time": 526.5,
            "velocity": 0.8976377952755905
          },
          {
            "duration": 0.22604166666667425,
            "durationTicks": 217,
            "midi": 84,
            "name": "C6",
            "ticks": 505440,
            "time": 526.5,
            "velocity": 0.8976377952755905
          },
          {
            "duration": 0.22604166666667425,
            "durationTicks": 217,
            "midi": 75,
            "name": "D#5",
            "ticks": 505680,
            "time": 526.75,
            "velocity": 0.9133858267716536
          },
          {
            "duration": 0.22604166666667425,
            "durationTicks": 217,
            "midi": 84,
            "name": "C6",
            "ticks": 505680,
            "time": 526.75,
            "velocity": 0.9133858267716536
          },
          {
            "duration": 0.22604166666667425,
            "durationTicks": 217,
            "midi": 75,
            "name": "D#5",
            "ticks": 505920,
            "time": 527,
            "velocity": 0.8503937007874016
          },
          {
            "duration": 0.22604166666667425,
            "durationTicks": 217,
            "midi": 84,
            "name": "C6",
            "ticks": 505920,
            "time": 527,
            "velocity": 0.8503937007874016
          },
          {
            "duration": 0.22604166666667425,
            "durationTicks": 217,
            "midi": 75,
            "name": "D#5",
            "ticks": 506160,
            "time": 527.25,
            "velocity": 0.8661417322834646
          },
          {
            "duration": 0.22604166666667425,
            "durationTicks": 217,
            "midi": 84,
            "name": "C6",
            "ticks": 506160,
            "time": 527.25,
            "velocity": 0.8661417322834646
          },
          {
            "duration": 0.451041666666697,
            "durationTicks": 433,
            "midi": 75,
            "name": "D#5",
            "ticks": 506400,
            "time": 527.5,
            "velocity": 0.8740157480314961
          },
          {
            "duration": 0.451041666666697,
            "durationTicks": 433,
            "midi": 84,
            "name": "C6",
            "ticks": 506400,
            "time": 527.5,
            "velocity": 0.8740157480314961
          },
          {
            "duration": 0.2541666666667197,
            "durationTicks": 244,
            "midi": 71,
            "name": "B4",
            "ticks": 511200,
            "time": 532.5,
            "velocity": 0.8110236220472441
          },
          {
            "duration": 0.2541666666667197,
            "durationTicks": 244,
            "midi": 72,
            "name": "C5",
            "ticks": 511440,
            "time": 532.75,
            "velocity": 0.8503937007874016
          },
          {
            "duration": 0.2541666666667197,
            "durationTicks": 244,
            "midi": 74,
            "name": "D5",
            "ticks": 511680,
            "time": 533,
            "velocity": 0.9291338582677166
          },
          {
            "duration": 0.2541666666667197,
            "durationTicks": 244,
            "midi": 75,
            "name": "D#5",
            "ticks": 511920,
            "time": 533.25,
            "velocity": 0.9763779527559056
          },
          {
            "duration": 0.2541666666667197,
            "durationTicks": 244,
            "midi": 77,
            "name": "F5",
            "ticks": 512160,
            "time": 533.5,
            "velocity": 0.9606299212598425
          },
          {
            "duration": 0.2541666666667197,
            "durationTicks": 244,
            "midi": 79,
            "name": "G5",
            "ticks": 512400,
            "time": 533.75,
            "velocity": 1
          },
          {
            "duration": 0.2541666666667197,
            "durationTicks": 244,
            "midi": 80,
            "name": "G#5",
            "ticks": 512640,
            "time": 534,
            "velocity": 0.9448818897637795
          },
          {
            "duration": 0.2541666666667197,
            "durationTicks": 244,
            "midi": 79,
            "name": "G5",
            "ticks": 512880,
            "time": 534.25,
            "velocity": 0.905511811023622
          },
          {
            "duration": 0.2541666666667197,
            "durationTicks": 244,
            "midi": 80,
            "name": "G#5",
            "ticks": 513120,
            "time": 534.5,
            "velocity": 0.889763779527559
          },
          {
            "duration": 0.2541666666667197,
            "durationTicks": 244,
            "midi": 79,
            "name": "G5",
            "ticks": 513360,
            "time": 534.75,
            "velocity": 0.8267716535433071
          },
          {
            "duration": 0.2541666666667197,
            "durationTicks": 244,
            "midi": 80,
            "name": "G#5",
            "ticks": 513600,
            "time": 535,
            "velocity": 0.952755905511811
          },
          {
            "duration": 0.23645833333330302,
            "durationTicks": 227,
            "midi": 79,
            "name": "G5",
            "ticks": 513840,
            "time": 535.25,
            "velocity": 0.9291338582677166
          },
          {
            "duration": 0.2541666666667197,
            "durationTicks": 244,
            "midi": 71,
            "name": "B4",
            "ticks": 515040,
            "time": 536.5,
            "velocity": 0.7086614173228346
          },
          {
            "duration": 0.2541666666667197,
            "durationTicks": 244,
            "midi": 72,
            "name": "C5",
            "ticks": 515280,
            "time": 536.75,
            "velocity": 0.7244094488188977
          },
          {
            "duration": 0.2541666666667197,
            "durationTicks": 244,
            "midi": 74,
            "name": "D5",
            "ticks": 515520,
            "time": 537,
            "velocity": 0.984251968503937
          },
          {
            "duration": 0.2541666666667197,
            "durationTicks": 244,
            "midi": 75,
            "name": "D#5",
            "ticks": 515760,
            "time": 537.25,
            "velocity": 1
          },
          {
            "duration": 0.2541666666667197,
            "durationTicks": 244,
            "midi": 77,
            "name": "F5",
            "ticks": 516000,
            "time": 537.5,
            "velocity": 0.952755905511811
          },
          {
            "duration": 0.2541666666667197,
            "durationTicks": 244,
            "midi": 79,
            "name": "G5",
            "ticks": 516240,
            "time": 537.75,
            "velocity": 1
          },
          {
            "duration": 0.2541666666667197,
            "durationTicks": 244,
            "midi": 80,
            "name": "G#5",
            "ticks": 516480,
            "time": 538,
            "velocity": 0.9448818897637795
          },
          {
            "duration": 0.2541666666667197,
            "durationTicks": 244,
            "midi": 79,
            "name": "G5",
            "ticks": 516720,
            "time": 538.25,
            "velocity": 0.905511811023622
          },
          {
            "duration": 0.2541666666667197,
            "durationTicks": 244,
            "midi": 80,
            "name": "G#5",
            "ticks": 516960,
            "time": 538.5,
            "velocity": 0.9448818897637795
          },
          {
            "duration": 0.2541666666667197,
            "durationTicks": 244,
            "midi": 79,
            "name": "G5",
            "ticks": 517200,
            "time": 538.75,
            "velocity": 0.905511811023622
          },
          {
            "duration": 0.2541666666667197,
            "durationTicks": 244,
            "midi": 80,
            "name": "G#5",
            "ticks": 517440,
            "time": 539,
            "velocity": 0.905511811023622
          },
          {
            "duration": 0.23645833333330302,
            "durationTicks": 227,
            "midi": 79,
            "name": "G5",
            "ticks": 517680,
            "time": 539.25,
            "velocity": 0.8582677165354331
          },
          {
            "duration": 0.22604166666667425,
            "durationTicks": 217,
            "midi": 80,
            "name": "G#5",
            "ticks": 517920,
            "time": 539.5,
            "velocity": 0.9448818897637795
          },
          {
            "duration": 0.22604166666667425,
            "durationTicks": 217,
            "midi": 79,
            "name": "G5",
            "ticks": 518160,
            "time": 539.75,
            "velocity": 0.8110236220472441
          },
          {
            "duration": 0.22604166666667425,
            "durationTicks": 217,
            "midi": 82,
            "name": "A#5",
            "ticks": 518400,
            "time": 540,
            "velocity": 0.9606299212598425
          },
          {
            "duration": 0.22604166666667425,
            "durationTicks": 217,
            "midi": 80,
            "name": "G#5",
            "ticks": 518640,
            "time": 540.25,
            "velocity": 0.8582677165354331
          },
          {
            "duration": 0.22604166666667425,
            "durationTicks": 217,
            "midi": 79,
            "name": "G5",
            "ticks": 518880,
            "time": 540.5,
            "velocity": 0.8188976377952756
          },
          {
            "duration": 0.22604166666667425,
            "durationTicks": 217,
            "midi": 77,
            "name": "F5",
            "ticks": 519120,
            "time": 540.75,
            "velocity": 0.8503937007874016
          },
          {
            "duration": 0.22604166666667425,
            "durationTicks": 217,
            "midi": 80,
            "name": "G#5",
            "ticks": 519360,
            "time": 541,
            "velocity": 0.952755905511811
          },
          {
            "duration": 0.22604166666667425,
            "durationTicks": 217,
            "midi": 79,
            "name": "G5",
            "ticks": 519600,
            "time": 541.25,
            "velocity": 0.8346456692913385
          },
          {
            "duration": 0.22604166666667425,
            "durationTicks": 217,
            "midi": 77,
            "name": "F5",
            "ticks": 519840,
            "time": 541.5,
            "velocity": 0.8188976377952756
          },
          {
            "duration": 0.22604166666667425,
            "durationTicks": 217,
            "midi": 75,
            "name": "D#5",
            "ticks": 520080,
            "time": 541.75,
            "velocity": 0.8346456692913385
          },
          {
            "duration": 0.22604166666667425,
            "durationTicks": 217,
            "midi": 79,
            "name": "G5",
            "ticks": 520320,
            "time": 542,
            "velocity": 0.984251968503937
          },
          {
            "duration": 0.22604166666667425,
            "durationTicks": 217,
            "midi": 77,
            "name": "F5",
            "ticks": 520560,
            "time": 542.25,
            "velocity": 0.8661417322834646
          },
          {
            "duration": 0.22604166666667425,
            "durationTicks": 217,
            "midi": 75,
            "name": "D#5",
            "ticks": 520800,
            "time": 542.5,
            "velocity": 0.8740157480314961
          },
          {
            "duration": 0.22604166666667425,
            "durationTicks": 217,
            "midi": 74,
            "name": "D5",
            "ticks": 521040,
            "time": 542.75,
            "velocity": 0.84251968503937
          },
          {
            "duration": 0.22604166666667425,
            "durationTicks": 217,
            "midi": 77,
            "name": "F5",
            "ticks": 521280,
            "time": 543,
            "velocity": 0.9448818897637795
          },
          {
            "duration": 0.22604166666667425,
            "durationTicks": 217,
            "midi": 75,
            "name": "D#5",
            "ticks": 521520,
            "time": 543.25,
            "velocity": 0.84251968503937
          },
          {
            "duration": 0.22604166666667425,
            "durationTicks": 217,
            "midi": 74,
            "name": "D5",
            "ticks": 521760,
            "time": 543.5,
            "velocity": 0.8818897637795275
          },
          {
            "duration": 0.22604166666667425,
            "durationTicks": 217,
            "midi": 72,
            "name": "C5",
            "ticks": 522000,
            "time": 543.75,
            "velocity": 0.8031496062992126
          },
          {
            "duration": 0.22604166666667425,
            "durationTicks": 217,
            "midi": 75,
            "name": "D#5",
            "ticks": 522240,
            "time": 544,
            "velocity": 1
          },
          {
            "duration": 0.22604166666667425,
            "durationTicks": 217,
            "midi": 74,
            "name": "D5",
            "ticks": 522480,
            "time": 544.25,
            "velocity": 0.8740157480314961
          },
          {
            "duration": 0.22604166666667425,
            "durationTicks": 217,
            "midi": 72,
            "name": "C5",
            "ticks": 522720,
            "time": 544.5,
            "velocity": 0.84251968503937
          },
          {
            "duration": 0.22604166666667425,
            "durationTicks": 217,
            "midi": 70,
            "name": "A#4",
            "ticks": 522960,
            "time": 544.75,
            "velocity": 0.8267716535433071
          },
          {
            "duration": 0.22604166666667425,
            "durationTicks": 217,
            "midi": 74,
            "name": "D5",
            "ticks": 523200,
            "time": 545,
            "velocity": 0.9763779527559056
          },
          {
            "duration": 0.22604166666667425,
            "durationTicks": 217,
            "midi": 72,
            "name": "C5",
            "ticks": 523440,
            "time": 545.25,
            "velocity": 0.8582677165354331
          },
          {
            "duration": 0.22604166666667425,
            "durationTicks": 217,
            "midi": 70,
            "name": "A#4",
            "ticks": 523680,
            "time": 545.5,
            "velocity": 0.8110236220472441
          },
          {
            "duration": 0.22604166666667425,
            "durationTicks": 217,
            "midi": 68,
            "name": "G#4",
            "ticks": 523920,
            "time": 545.75,
            "velocity": 0.8188976377952756
          },
          {
            "duration": 0.22604166666667425,
            "durationTicks": 217,
            "midi": 72,
            "name": "C5",
            "ticks": 524160,
            "time": 546,
            "velocity": 0.9291338582677166
          },
          {
            "duration": 0.22604166666667425,
            "durationTicks": 217,
            "midi": 70,
            "name": "A#4",
            "ticks": 524400,
            "time": 546.25,
            "velocity": 0.8267716535433071
          },
          {
            "duration": 0.22604166666667425,
            "durationTicks": 217,
            "midi": 68,
            "name": "G#4",
            "ticks": 524640,
            "time": 546.5,
            "velocity": 0.8188976377952756
          },
          {
            "duration": 0.22604166666667425,
            "durationTicks": 217,
            "midi": 67,
            "name": "G4",
            "ticks": 524880,
            "time": 546.75,
            "velocity": 0.8661417322834646
          },
          {
            "duration": 0.22604166666667425,
            "durationTicks": 217,
            "midi": 70,
            "name": "A#4",
            "ticks": 525120,
            "time": 547,
            "velocity": 0.952755905511811
          },
          {
            "duration": 0.22604166666667425,
            "durationTicks": 217,
            "midi": 68,
            "name": "G#4",
            "ticks": 525360,
            "time": 547.25,
            "velocity": 0.8503937007874016
          },
          {
            "duration": 0.22604166666667425,
            "durationTicks": 217,
            "midi": 65,
            "name": "F4",
            "ticks": 525600,
            "time": 547.5,
            "velocity": 0.8031496062992126
          },
          {
            "duration": 0.22604166666667425,
            "durationTicks": 217,
            "midi": 67,
            "name": "G4",
            "ticks": 525840,
            "time": 547.75,
            "velocity": 0.9448818897637795
          },
          {
            "duration": 0.22604166666667425,
            "durationTicks": 217,
            "midi": 63,
            "name": "D#4",
            "ticks": 526080,
            "time": 548,
            "velocity": 0.8267716535433071
          },
          {
            "duration": 0.22604166666667425,
            "durationTicks": 217,
            "midi": 67,
            "name": "G4",
            "ticks": 526320,
            "time": 548.25,
            "velocity": 0.984251968503937
          },
          {
            "duration": 0.22604166666667425,
            "durationTicks": 217,
            "midi": 62,
            "name": "D4",
            "ticks": 526560,
            "time": 548.5,
            "velocity": 0.7952755905511811
          },
          {
            "duration": 0.22604166666667425,
            "durationTicks": 217,
            "midi": 67,
            "name": "G4",
            "ticks": 526800,
            "time": 548.75,
            "velocity": 1
          },
          {
            "duration": 0.22604166666667425,
            "durationTicks": 217,
            "midi": 63,
            "name": "D#4",
            "ticks": 527040,
            "time": 549,
            "velocity": 0.8031496062992126
          },
          {
            "duration": 0.22604166666667425,
            "durationTicks": 217,
            "midi": 67,
            "name": "G4",
            "ticks": 527280,
            "time": 549.25,
            "velocity": 0.984251968503937
          },
          {
            "duration": 0.22604166666667425,
            "durationTicks": 217,
            "midi": 65,
            "name": "F4",
            "ticks": 527520,
            "time": 549.5,
            "velocity": 0.8267716535433071
          },
          {
            "duration": 0.22604166666667425,
            "durationTicks": 217,
            "midi": 67,
            "name": "G4",
            "ticks": 527760,
            "time": 549.75,
            "velocity": 0.9291338582677166
          },
          {
            "duration": 0.22604166666667425,
            "durationTicks": 217,
            "midi": 63,
            "name": "D#4",
            "ticks": 528000,
            "time": 550,
            "velocity": 0.7952755905511811
          },
          {
            "duration": 0.22604166666667425,
            "durationTicks": 217,
            "midi": 67,
            "name": "G4",
            "ticks": 528240,
            "time": 550.25,
            "velocity": 0.9448818897637795
          },
          {
            "duration": 0.22604166666667425,
            "durationTicks": 217,
            "midi": 65,
            "name": "F4",
            "ticks": 528480,
            "time": 550.5,
            "velocity": 0.8582677165354331
          },
          {
            "duration": 0.22604166666667425,
            "durationTicks": 217,
            "midi": 67,
            "name": "G4",
            "ticks": 528720,
            "time": 550.75,
            "velocity": 0.889763779527559
          },
          {
            "duration": 0.22604166666667425,
            "durationTicks": 217,
            "midi": 67,
            "name": "G4",
            "ticks": 528960,
            "time": 551,
            "velocity": 0.889763779527559
          },
          {
            "duration": 0.22604166666667425,
            "durationTicks": 217,
            "midi": 72,
            "name": "C5",
            "ticks": 529200,
            "time": 551.25,
            "velocity": 1
          },
          {
            "duration": 0.22604166666667425,
            "durationTicks": 217,
            "midi": 68,
            "name": "G#4",
            "ticks": 529440,
            "time": 551.5,
            "velocity": 0.8110236220472441
          },
          {
            "duration": 0.22604166666667425,
            "durationTicks": 217,
            "midi": 72,
            "name": "C5",
            "ticks": 529680,
            "time": 551.75,
            "velocity": 0.984251968503937
          },
          {
            "duration": 0.22604166666667425,
            "durationTicks": 217,
            "midi": 67,
            "name": "G4",
            "ticks": 529920,
            "time": 552,
            "velocity": 0.7952755905511811
          },
          {
            "duration": 0.22604166666667425,
            "durationTicks": 217,
            "midi": 72,
            "name": "C5",
            "ticks": 530160,
            "time": 552.25,
            "velocity": 0.9763779527559056
          },
          {
            "duration": 0.22604166666667425,
            "durationTicks": 217,
            "midi": 68,
            "name": "G#4",
            "ticks": 530400,
            "time": 552.5,
            "velocity": 0.7952755905511811
          },
          {
            "duration": 0.22604166666667425,
            "durationTicks": 217,
            "midi": 72,
            "name": "C5",
            "ticks": 530640,
            "time": 552.75,
            "velocity": 1
          },
          {
            "duration": 0.22604166666667425,
            "durationTicks": 217,
            "midi": 71,
            "name": "B4",
            "ticks": 530880,
            "time": 553,
            "velocity": 0.8740157480314961
          },
          {
            "duration": 0.22604166666667425,
            "durationTicks": 217,
            "midi": 77,
            "name": "F5",
            "ticks": 531120,
            "time": 553.25,
            "velocity": 1
          },
          {
            "duration": 0.22604166666667425,
            "durationTicks": 217,
            "midi": 72,
            "name": "C5",
            "ticks": 531360,
            "time": 553.5,
            "velocity": 0.7874015748031497
          },
          {
            "duration": 0.22604166666667425,
            "durationTicks": 217,
            "midi": 77,
            "name": "F5",
            "ticks": 531600,
            "time": 553.75,
            "velocity": 0.984251968503937
          },
          {
            "duration": 0.22604166666667425,
            "durationTicks": 217,
            "midi": 71,
            "name": "B4",
            "ticks": 531840,
            "time": 554,
            "velocity": 0.7952755905511811
          },
          {
            "duration": 0.22604166666667425,
            "durationTicks": 217,
            "midi": 77,
            "name": "F5",
            "ticks": 532080,
            "time": 554.25,
            "velocity": 1
          },
          {
            "duration": 0.22604166666667425,
            "durationTicks": 217,
            "midi": 72,
            "name": "C5",
            "ticks": 532320,
            "time": 554.5,
            "velocity": 0.7874015748031497
          },
          {
            "duration": 0.22604166666667425,
            "durationTicks": 217,
            "midi": 77,
            "name": "F5",
            "ticks": 532560,
            "time": 554.75,
            "velocity": 0.9606299212598425
          },
          {
            "duration": 0.22604166666667425,
            "durationTicks": 217,
            "midi": 74,
            "name": "D5",
            "ticks": 532800,
            "time": 555,
            "velocity": 0.84251968503937
          },
          {
            "duration": 0.22604166666667425,
            "durationTicks": 217,
            "midi": 79,
            "name": "G5",
            "ticks": 533040,
            "time": 555.25,
            "velocity": 0.952755905511811
          },
          {
            "duration": 0.5093749999999773,
            "durationTicks": 489,
            "midi": 75,
            "name": "D#5",
            "ticks": 533280,
            "time": 555.5,
            "velocity": 0.9133858267716536
          },
          {
            "duration": 0.47500000000002274,
            "durationTicks": 456,
            "midi": 72,
            "name": "C5",
            "ticks": 533760,
            "time": 556,
            "velocity": 0.8346456692913385
          },
          {
            "duration": 0.22500000000002274,
            "durationTicks": 216,
            "midi": 74,
            "name": "D5",
            "ticks": 534240,
            "time": 556.5,
            "velocity": 0.9448818897637795
          },
          {
            "duration": 0.22500000000002274,
            "durationTicks": 216,
            "midi": 75,
            "name": "D#5",
            "ticks": 534720,
            "time": 557,
            "velocity": 0.9212598425196851
          },
          {
            "duration": 0.5093749999999773,
            "durationTicks": 489,
            "midi": 77,
            "name": "F5",
            "ticks": 535200,
            "time": 557.5,
            "velocity": 1
          },
          {
            "duration": 0.47500000000002274,
            "durationTicks": 456,
            "midi": 74,
            "name": "D5",
            "ticks": 535680,
            "time": 558,
            "velocity": 0.889763779527559
          },
          {
            "duration": 0.22500000000002274,
            "durationTicks": 216,
            "midi": 75,
            "name": "D#5",
            "ticks": 536160,
            "time": 558.5,
            "velocity": 0.8976377952755905
          },
          {
            "duration": 0.22500000000002274,
            "durationTicks": 216,
            "midi": 77,
            "name": "F5",
            "ticks": 536640,
            "time": 559,
            "velocity": 0.9212598425196851
          },
          {
            "duration": 0.5093749999999773,
            "durationTicks": 489,
            "midi": 79,
            "name": "G5",
            "ticks": 537120,
            "time": 559.5,
            "velocity": 0.9448818897637795
          },
          {
            "duration": 0.47500000000002274,
            "durationTicks": 456,
            "midi": 75,
            "name": "D#5",
            "ticks": 537600,
            "time": 560,
            "velocity": 0.8110236220472441
          },
          {
            "duration": 0.22500000000002274,
            "durationTicks": 216,
            "midi": 77,
            "name": "F5",
            "ticks": 538080,
            "time": 560.5,
            "velocity": 0.889763779527559
          },
          {
            "duration": 0.22500000000002274,
            "durationTicks": 216,
            "midi": 79,
            "name": "G5",
            "ticks": 538560,
            "time": 561,
            "velocity": 0.984251968503937
          },
          {
            "duration": 0.5093749999999773,
            "durationTicks": 489,
            "midi": 80,
            "name": "G#5",
            "ticks": 539040,
            "time": 561.5,
            "velocity": 0.9133858267716536
          },
          {
            "duration": 0.47500000000002274,
            "durationTicks": 456,
            "midi": 77,
            "name": "F5",
            "ticks": 539520,
            "time": 562,
            "velocity": 0.8661417322834646
          },
          {
            "duration": 0.22500000000002274,
            "durationTicks": 216,
            "midi": 79,
            "name": "G5",
            "ticks": 540000,
            "time": 562.5,
            "velocity": 0.9291338582677166
          },
          {
            "duration": 0.22500000000002274,
            "durationTicks": 216,
            "midi": 81,
            "name": "A5",
            "ticks": 540480,
            "time": 563,
            "velocity": 0.968503937007874
          },
          {
            "duration": 0.5093749999999773,
            "durationTicks": 489,
            "midi": 83,
            "name": "B5",
            "ticks": 540960,
            "time": 563.5,
            "velocity": 0.9291338582677166
          },
          {
            "duration": 0.47500000000002274,
            "durationTicks": 456,
            "midi": 79,
            "name": "G5",
            "ticks": 541440,
            "time": 564,
            "velocity": 0.8582677165354331
          },
          {
            "duration": 0.22500000000002274,
            "durationTicks": 216,
            "midi": 81,
            "name": "A5",
            "ticks": 541920,
            "time": 564.5,
            "velocity": 0.905511811023622
          },
          {
            "duration": 0.22500000000002274,
            "durationTicks": 216,
            "midi": 83,
            "name": "B5",
            "ticks": 542400,
            "time": 565,
            "velocity": 0.937007874015748
          },
          {
            "duration": 0.5093749999999773,
            "durationTicks": 489,
            "midi": 84,
            "name": "C6",
            "ticks": 542880,
            "time": 565.5,
            "velocity": 0.9763779527559056
          },
          {
            "duration": 0.47500000000002274,
            "durationTicks": 456,
            "midi": 79,
            "name": "G5",
            "ticks": 543360,
            "time": 566,
            "velocity": 0.8740157480314961
          },
          {
            "duration": 0.22500000000002274,
            "durationTicks": 216,
            "midi": 80,
            "name": "G#5",
            "ticks": 543840,
            "time": 566.5,
            "velocity": 0.8976377952755905
          },
          {
            "duration": 0.22500000000002274,
            "durationTicks": 216,
            "midi": 75,
            "name": "D#5",
            "ticks": 544320,
            "time": 567,
            "velocity": 0.7716535433070866
          },
          {
            "duration": 0.22500000000002274,
            "durationTicks": 216,
            "midi": 77,
            "name": "F5",
            "ticks": 544800,
            "time": 567.5,
            "velocity": 0.9212598425196851
          },
          {
            "duration": 0.22500000000002274,
            "durationTicks": 216,
            "midi": 74,
            "name": "D5",
            "ticks": 545280,
            "time": 568,
            "velocity": 0.84251968503937
          },
          {
            "duration": 0.22500000000002274,
            "durationTicks": 216,
            "midi": 75,
            "name": "D#5",
            "ticks": 545760,
            "time": 568.5,
            "velocity": 0.9291338582677166
          },
          {
            "duration": 0.22500000000002274,
            "durationTicks": 216,
            "midi": 77,
            "name": "F5",
            "ticks": 546240,
            "time": 569,
            "velocity": 0.9291338582677166
          },
          {
            "duration": 0.22500000000002274,
            "durationTicks": 216,
            "midi": 79,
            "name": "G5",
            "ticks": 546720,
            "time": 569.5,
            "velocity": 0.9212598425196851
          },
          {
            "duration": 0.22500000000002274,
            "durationTicks": 216,
            "midi": 78,
            "name": "F#5",
            "ticks": 547200,
            "time": 570,
            "velocity": 0.8503937007874016
          },
          {
            "duration": 0.22500000000002274,
            "durationTicks": 216,
            "midi": 79,
            "name": "G5",
            "ticks": 547680,
            "time": 570.5,
            "velocity": 0.937007874015748
          },
          {
            "duration": 0.22500000000002274,
            "durationTicks": 216,
            "midi": 67,
            "name": "G4",
            "ticks": 548160,
            "time": 571,
            "velocity": 0.6771653543307087
          },
          {
            "duration": 0.22500000000002274,
            "durationTicks": 216,
            "midi": 72,
            "name": "C5",
            "ticks": 548640,
            "time": 571.5,
            "velocity": 0.9763779527559056
          },
          {
            "duration": 0.22500000000002274,
            "durationTicks": 216,
            "midi": 63,
            "name": "D#4",
            "ticks": 551520,
            "time": 574.5,
            "velocity": 0.7559055118110236
          },
          {
            "duration": 0.22500000000002274,
            "durationTicks": 216,
            "midi": 65,
            "name": "F4",
            "ticks": 552000,
            "time": 575,
            "velocity": 0.9212598425196851
          },
          {
            "duration": 0.5093749999999773,
            "durationTicks": 489,
            "midi": 67,
            "name": "G4",
            "ticks": 552480,
            "time": 575.5,
            "velocity": 0.9291338582677166
          },
          {
            "duration": 0.47500000000002274,
            "durationTicks": 456,
            "midi": 63,
            "name": "D#4",
            "ticks": 552960,
            "time": 576,
            "velocity": 0.889763779527559
          },
          {
            "duration": 0.22500000000002274,
            "durationTicks": 216,
            "midi": 59,
            "name": "B3",
            "ticks": 555360,
            "time": 578.5,
            "velocity": 0.8267716535433071
          },
          {
            "duration": 0.22500000000002274,
            "durationTicks": 216,
            "midi": 60,
            "name": "C4",
            "ticks": 555840,
            "time": 579,
            "velocity": 0.9291338582677166
          },
          {
            "duration": 0.5093749999999773,
            "durationTicks": 489,
            "midi": 62,
            "name": "D4",
            "ticks": 556320,
            "time": 579.5,
            "velocity": 0.9291338582677166
          },
          {
            "duration": 0.47500000000002274,
            "durationTicks": 456,
            "midi": 59,
            "name": "B3",
            "ticks": 556800,
            "time": 580,
            "velocity": 0.9212598425196851
          },
          {
            "duration": 0.22500000000002274,
            "durationTicks": 216,
            "midi": 59,
            "name": "B3",
            "ticks": 559200,
            "time": 582.5,
            "velocity": 0.8818897637795275
          },
          {
            "duration": 0.22500000000002274,
            "durationTicks": 216,
            "midi": 60,
            "name": "C4",
            "ticks": 559680,
            "time": 583,
            "velocity": 0.9291338582677166
          },
          {
            "duration": 0.5093749999999773,
            "durationTicks": 489,
            "midi": 62,
            "name": "D4",
            "ticks": 560160,
            "time": 583.5,
            "velocity": 0.9291338582677166
          },
          {
            "duration": 0.47500000000002274,
            "durationTicks": 456,
            "midi": 59,
            "name": "B3",
            "ticks": 560640,
            "time": 584,
            "velocity": 0.9212598425196851
          },
          {
            "duration": 0.5093749999999773,
            "durationTicks": 489,
            "midi": 65,
            "name": "F4",
            "ticks": 564960,
            "time": 588.5,
            "velocity": 1
          },
          {
            "duration": 0.47500000000002274,
            "durationTicks": 456,
            "midi": 63,
            "name": "D#4",
            "ticks": 565440,
            "time": 589,
            "velocity": 0.968503937007874
          },
          {
            "duration": 0.5093749999999773,
            "durationTicks": 489,
            "midi": 65,
            "name": "F4",
            "ticks": 566880,
            "time": 590.5,
            "velocity": 0.952755905511811
          },
          {
            "duration": 0.47500000000002274,
            "durationTicks": 456,
            "midi": 63,
            "name": "D#4",
            "ticks": 567360,
            "time": 591,
            "velocity": 0.905511811023622
          },
          {
            "duration": 0.05833333333328028,
            "durationTicks": 56,
            "midi": 55,
            "name": "G3",
            "ticks": 567784,
            "time": 591.4416666666667,
            "velocity": 1
          },
          {
            "duration": 0.05833333333328028,
            "durationTicks": 56,
            "midi": 63,
            "name": "D#4",
            "ticks": 567784,
            "time": 591.4416666666667,
            "velocity": 1
          },
          {
            "duration": 0.451041666666697,
            "durationTicks": 433,
            "midi": 72,
            "name": "C5",
            "ticks": 567812,
            "time": 591.4708333333333,
            "velocity": 1
          },
          {
            "duration": 0.451041666666697,
            "durationTicks": 433,
            "midi": 79,
            "name": "G5",
            "ticks": 567840,
            "time": 591.5,
            "velocity": 1
          },
          {
            "duration": 0.05833333333328028,
            "durationTicks": 56,
            "midi": 55,
            "name": "G3",
            "ticks": 568744,
            "time": 592.4416666666667,
            "velocity": 0.8188976377952756
          },
          {
            "duration": 0.05833333333328028,
            "durationTicks": 56,
            "midi": 62,
            "name": "D4",
            "ticks": 568744,
            "time": 592.4416666666667,
            "velocity": 0.8188976377952756
          },
          {
            "duration": 0.451041666666697,
            "durationTicks": 433,
            "midi": 71,
            "name": "B4",
            "ticks": 568772,
            "time": 592.4708333333333,
            "velocity": 0.8188976377952756
          },
          {
            "duration": 0.451041666666697,
            "durationTicks": 433,
            "midi": 79,
            "name": "G5",
            "ticks": 568800,
            "time": 592.5,
            "velocity": 0.8188976377952756
          },
          {
            "duration": 0.5093749999999773,
            "durationTicks": 489,
            "midi": 63,
            "name": "D#4",
            "ticks": 569760,
            "time": 593.5,
            "velocity": 0.8110236220472441
          },
          {
            "duration": 0.5093749999999773,
            "durationTicks": 489,
            "midi": 70,
            "name": "A#4",
            "ticks": 570240,
            "time": 594,
            "velocity": 0.9212598425196851
          },
          {
            "duration": 0.5093749999999773,
            "durationTicks": 489,
            "midi": 60,
            "name": "C4",
            "ticks": 570720,
            "time": 594.5,
            "velocity": 0.6929133858267716
          },
          {
            "duration": 0.5093749999999773,
            "durationTicks": 489,
            "midi": 67,
            "name": "G4",
            "ticks": 571200,
            "time": 595,
            "velocity": 0.7795275590551181
          },
          {
            "duration": 0.5093749999999773,
            "durationTicks": 489,
            "midi": 56,
            "name": "G#3",
            "ticks": 571680,
            "time": 595.5,
            "velocity": 0.7952755905511811
          },
          {
            "duration": 0.47500000000002274,
            "durationTicks": 456,
            "midi": 63,
            "name": "D#4",
            "ticks": 572160,
            "time": 596,
            "velocity": 0.9448818897637795
          },
          {
            "duration": 0.5093749999999773,
            "durationTicks": 489,
            "midi": 65,
            "name": "F4",
            "ticks": 573600,
            "time": 597.5,
            "velocity": 0.9606299212598425
          },
          {
            "duration": 0.47500000000002274,
            "durationTicks": 456,
            "midi": 63,
            "name": "D#4",
            "ticks": 574080,
            "time": 598,
            "velocity": 0.889763779527559
          },
          {
            "duration": 0.5093749999999773,
            "durationTicks": 489,
            "midi": 77,
            "name": "F5",
            "ticks": 574560,
            "time": 598.5,
            "velocity": 1
          },
          {
            "duration": 0.47500000000002274,
            "durationTicks": 456,
            "midi": 75,
            "name": "D#5",
            "ticks": 575040,
            "time": 599,
            "velocity": 0.968503937007874
          },
          {
            "duration": 0.05833333333328028,
            "durationTicks": 56,
            "midi": 55,
            "name": "G3",
            "ticks": 575464,
            "time": 599.4416666666667,
            "velocity": 0.984251968503937
          },
          {
            "duration": 0.05833333333328028,
            "durationTicks": 56,
            "midi": 63,
            "name": "D#4",
            "ticks": 575464,
            "time": 599.4416666666667,
            "velocity": 0.984251968503937
          },
          {
            "duration": 0.451041666666697,
            "durationTicks": 433,
            "midi": 72,
            "name": "C5",
            "ticks": 575492,
            "time": 599.4708333333333,
            "velocity": 0.984251968503937
          },
          {
            "duration": 0.451041666666697,
            "durationTicks": 433,
            "midi": 79,
            "name": "G5",
            "ticks": 575520,
            "time": 599.5,
            "velocity": 0.984251968503937
          },
          {
            "duration": 0.05833333333328028,
            "durationTicks": 56,
            "midi": 55,
            "name": "G3",
            "ticks": 576424,
            "time": 600.4416666666667,
            "velocity": 0.8110236220472441
          },
          {
            "duration": 0.05833333333328028,
            "durationTicks": 56,
            "midi": 62,
            "name": "D4",
            "ticks": 576424,
            "time": 600.4416666666667,
            "velocity": 0.8110236220472441
          },
          {
            "duration": 0.451041666666697,
            "durationTicks": 433,
            "midi": 71,
            "name": "B4",
            "ticks": 576452,
            "time": 600.4708333333333,
            "velocity": 0.8110236220472441
          },
          {
            "duration": 0.451041666666697,
            "durationTicks": 433,
            "midi": 79,
            "name": "G5",
            "ticks": 576480,
            "time": 600.5,
            "velocity": 0.8110236220472441
          },
          {
            "duration": 0.22604166666656056,
            "durationTicks": 217,
            "midi": 55,
            "name": "G3",
            "ticks": 577384,
            "time": 601.4416666666667,
            "velocity": 0.7952755905511811
          },
          {
            "duration": 0.22604166666667425,
            "durationTicks": 217,
            "midi": 63,
            "name": "D#4",
            "ticks": 577440,
            "time": 601.5,
            "velocity": 0.7952755905511811
          },
          {
            "duration": 0.22604166666667425,
            "durationTicks": 217,
            "midi": 72,
            "name": "C5",
            "ticks": 577440,
            "time": 601.5,
            "velocity": 0.7952755905511811
          },
          {
            "duration": 0.22604166666667425,
            "durationTicks": 217,
            "midi": 67,
            "name": "G4",
            "ticks": 577680,
            "time": 601.75,
            "velocity": 0.7716535433070866
          },
          {
            "duration": 0.22604166666667425,
            "durationTicks": 217,
            "midi": 67,
            "name": "G4",
            "ticks": 577920,
            "time": 602,
            "velocity": 0.8740157480314961
          },
          {
            "duration": 0.22604166666667425,
            "durationTicks": 217,
            "midi": 67,
            "name": "G4",
            "ticks": 578160,
            "time": 602.25,
            "velocity": 0.889763779527559
          },
          {
            "duration": 4.226041666666674,
            "durationTicks": 4057,
            "midi": 67,
            "name": "G4",
            "ticks": 578400,
            "time": 602.5,
            "velocity": 0.889763779527559
          },
          {
            "duration": 0.22604166666667425,
            "durationTicks": 217,
            "midi": 67,
            "name": "G4",
            "ticks": 582480,
            "time": 606.75,
            "velocity": 0.8661417322834646
          },
          {
            "duration": 0.22604166666667425,
            "durationTicks": 217,
            "midi": 67,
            "name": "G4",
            "ticks": 582720,
            "time": 607,
            "velocity": 0.8661417322834646
          },
          {
            "duration": 0.22604166666667425,
            "durationTicks": 217,
            "midi": 67,
            "name": "G4",
            "ticks": 582960,
            "time": 607.25,
            "velocity": 0.8740157480314961
          },
          {
            "duration": 0.22604166666667425,
            "durationTicks": 217,
            "midi": 60,
            "name": "C4",
            "ticks": 583200,
            "time": 607.5,
            "velocity": 0.7322834645669292
          },
          {
            "duration": 0.22604166666667425,
            "durationTicks": 217,
            "midi": 67,
            "name": "G4",
            "ticks": 583440,
            "time": 607.75,
            "velocity": 1
          },
          {
            "duration": 0.22604166666667425,
            "durationTicks": 217,
            "midi": 67,
            "name": "G4",
            "ticks": 583680,
            "time": 608,
            "velocity": 0.905511811023622
          },
          {
            "duration": 0.22604166666667425,
            "durationTicks": 217,
            "midi": 67,
            "name": "G4",
            "ticks": 583920,
            "time": 608.25,
            "velocity": 0.8740157480314961
          },
          {
            "duration": 0.22604166666667425,
            "durationTicks": 217,
            "midi": 67,
            "name": "G4",
            "ticks": 584160,
            "time": 608.5,
            "velocity": 0.84251968503937
          },
          {
            "duration": 0.22604166666667425,
            "durationTicks": 217,
            "midi": 67,
            "name": "G4",
            "ticks": 584400,
            "time": 608.75,
            "velocity": 0.8976377952755905
          },
          {
            "duration": 0.22604166666667425,
            "durationTicks": 217,
            "midi": 67,
            "name": "G4",
            "ticks": 584640,
            "time": 609,
            "velocity": 0.9133858267716536
          },
          {
            "duration": 0.22604166666667425,
            "durationTicks": 217,
            "midi": 67,
            "name": "G4",
            "ticks": 584880,
            "time": 609.25,
            "velocity": 0.8976377952755905
          },
          {
            "duration": 0.22604166666667425,
            "durationTicks": 217,
            "midi": 67,
            "name": "G4",
            "ticks": 585120,
            "time": 609.5,
            "velocity": 0.8740157480314961
          },
          {
            "duration": 0.22604166666667425,
            "durationTicks": 217,
            "midi": 67,
            "name": "G4",
            "ticks": 585360,
            "time": 609.75,
            "velocity": 0.8740157480314961
          },
          {
            "duration": 0.22604166666667425,
            "durationTicks": 217,
            "midi": 67,
            "name": "G4",
            "ticks": 585600,
            "time": 610,
            "velocity": 0.8740157480314961
          },
          {
            "duration": 0.22604166666667425,
            "durationTicks": 217,
            "midi": 67,
            "name": "G4",
            "ticks": 585840,
            "time": 610.25,
            "velocity": 0.8740157480314961
          },
          {
            "duration": 0.22604166666667425,
            "durationTicks": 217,
            "midi": 67,
            "name": "G4",
            "ticks": 586080,
            "time": 610.5,
            "velocity": 0.905511811023622
          },
          {
            "duration": 0.22604166666667425,
            "durationTicks": 217,
            "midi": 67,
            "name": "G4",
            "ticks": 586320,
            "time": 610.75,
            "velocity": 0.8976377952755905
          },
          {
            "duration": 0.22604166666667425,
            "durationTicks": 217,
            "midi": 67,
            "name": "G4",
            "ticks": 586560,
            "time": 611,
            "velocity": 0.8818897637795275
          },
          {
            "duration": 0.22604166666667425,
            "durationTicks": 217,
            "midi": 67,
            "name": "G4",
            "ticks": 586800,
            "time": 611.25,
            "velocity": 0.8503937007874016
          },
          {
            "duration": 1.5,
            "durationTicks": 1440,
            "midi": 63,
            "name": "D#4",
            "ticks": 587040,
            "time": 611.5,
            "velocity": 0.8346456692913385
          },
          {
            "duration": 0.22604166666667425,
            "durationTicks": 217,
            "midi": 65,
            "name": "F4",
            "ticks": 588720,
            "time": 613.25,
            "velocity": 0.8031496062992126
          },
          {
            "duration": 0.22604166666667425,
            "durationTicks": 217,
            "midi": 65,
            "name": "F4",
            "ticks": 588960,
            "time": 613.5,
            "velocity": 0.8661417322834646
          },
          {
            "duration": 0.22604166666667425,
            "durationTicks": 217,
            "midi": 65,
            "name": "F4",
            "ticks": 589200,
            "time": 613.75,
            "velocity": 0.8503937007874016
          },
          {
            "duration": 2.5,
            "durationTicks": 2400,
            "midi": 62,
            "name": "D4",
            "ticks": 589440,
            "time": 614,
            "velocity": 0.8031496062992126
          },
          {
            "duration": 0.22604166666667425,
            "durationTicks": 217,
            "midi": 67,
            "name": "G4",
            "ticks": 592080,
            "time": 616.75,
            "velocity": 0.3464566929133858
          },
          {
            "duration": 0.22604166666667425,
            "durationTicks": 217,
            "midi": 67,
            "name": "G4",
            "ticks": 592320,
            "time": 617,
            "velocity": 0.3779527559055118
          },
          {
            "duration": 0.22604166666667425,
            "durationTicks": 217,
            "midi": 67,
            "name": "G4",
            "ticks": 592560,
            "time": 617.25,
            "velocity": 0.4094488188976378
          },
          {
            "duration": 3.2260416666666742,
            "durationTicks": 3097,
            "midi": 63,
            "name": "D#4",
            "ticks": 592800,
            "time": 617.5,
            "velocity": 0.3543307086614173
          },
          {
            "duration": 0.22604166666667425,
            "durationTicks": 217,
            "midi": 67,
            "name": "G4",
            "ticks": 595920,
            "time": 620.75,
            "velocity": 0.4251968503937008
          },
          {
            "duration": 0.22604166666667425,
            "durationTicks": 217,
            "midi": 67,
            "name": "G4",
            "ticks": 596160,
            "time": 621,
            "velocity": 0.4330708661417323
          },
          {
            "duration": 0.22604166666667425,
            "durationTicks": 217,
            "midi": 67,
            "name": "G4",
            "ticks": 596400,
            "time": 621.25,
            "velocity": 0.4330708661417323
          },
          {
            "duration": 3.2260416666666742,
            "durationTicks": 3097,
            "midi": 63,
            "name": "D#4",
            "ticks": 596640,
            "time": 621.5,
            "velocity": 0.33070866141732286
          },
          {
            "duration": 0.22604166666667425,
            "durationTicks": 217,
            "midi": 62,
            "name": "D4",
            "ticks": 599760,
            "time": 624.75,
            "velocity": 1
          },
          {
            "duration": 0.22604166666667425,
            "durationTicks": 217,
            "midi": 71,
            "name": "B4",
            "ticks": 599760,
            "time": 624.75,
            "velocity": 1
          },
          {
            "duration": 0.22604166666667425,
            "durationTicks": 217,
            "midi": 62,
            "name": "D4",
            "ticks": 600000,
            "time": 625,
            "velocity": 0.9448818897637795
          },
          {
            "duration": 0.22604166666667425,
            "durationTicks": 217,
            "midi": 71,
            "name": "B4",
            "ticks": 600000,
            "time": 625,
            "velocity": 0.9448818897637795
          },
          {
            "duration": 0.22604166666667425,
            "durationTicks": 217,
            "midi": 62,
            "name": "D4",
            "ticks": 600240,
            "time": 625.25,
            "velocity": 0.9133858267716536
          },
          {
            "duration": 0.22604166666667425,
            "durationTicks": 217,
            "midi": 71,
            "name": "B4",
            "ticks": 600240,
            "time": 625.25,
            "velocity": 0.9133858267716536
          },
          {
            "duration": 0.451041666666697,
            "durationTicks": 433,
            "midi": 63,
            "name": "D#4",
            "ticks": 600480,
            "time": 625.5,
            "velocity": 0.9212598425196851
          },
          {
            "duration": 0.451041666666697,
            "durationTicks": 433,
            "midi": 72,
            "name": "C5",
            "ticks": 600480,
            "time": 625.5,
            "velocity": 0.9212598425196851
          },
          {
            "duration": 0.22604166666667425,
            "durationTicks": 217,
            "midi": 62,
            "name": "D4",
            "ticks": 601680,
            "time": 626.75,
            "velocity": 0.7795275590551181
          },
          {
            "duration": 0.22604166666667425,
            "durationTicks": 217,
            "midi": 71,
            "name": "B4",
            "ticks": 601680,
            "time": 626.75,
            "velocity": 0.7795275590551181
          },
          {
            "duration": 0.22604166666667425,
            "durationTicks": 217,
            "midi": 62,
            "name": "D4",
            "ticks": 601920,
            "time": 627,
            "velocity": 0.8740157480314961
          },
          {
            "duration": 0.22604166666667425,
            "durationTicks": 217,
            "midi": 71,
            "name": "B4",
            "ticks": 601920,
            "time": 627,
            "velocity": 0.8740157480314961
          },
          {
            "duration": 0.22604166666667425,
            "durationTicks": 217,
            "midi": 62,
            "name": "D4",
            "ticks": 602160,
            "time": 627.25,
            "velocity": 0.8661417322834646
          },
          {
            "duration": 0.22604166666667425,
            "durationTicks": 217,
            "midi": 71,
            "name": "B4",
            "ticks": 602160,
            "time": 627.25,
            "velocity": 0.8661417322834646
          },
          {
            "duration": 0.451041666666697,
            "durationTicks": 433,
            "midi": 63,
            "name": "D#4",
            "ticks": 602400,
            "time": 627.5,
            "velocity": 0.9212598425196851
          },
          {
            "duration": 0.451041666666697,
            "durationTicks": 433,
            "midi": 72,
            "name": "C5",
            "ticks": 602400,
            "time": 627.5,
            "velocity": 0.9212598425196851
          },
          {
            "duration": 0.22604166666667425,
            "durationTicks": 217,
            "midi": 62,
            "name": "D4",
            "ticks": 603600,
            "time": 628.75,
            "velocity": 0.8188976377952756
          },
          {
            "duration": 0.22604166666667425,
            "durationTicks": 217,
            "midi": 71,
            "name": "B4",
            "ticks": 603600,
            "time": 628.75,
            "velocity": 0.8188976377952756
          },
          {
            "duration": 0.22604166666667425,
            "durationTicks": 217,
            "midi": 62,
            "name": "D4",
            "ticks": 603840,
            "time": 629,
            "velocity": 0.8976377952755905
          },
          {
            "duration": 0.22604166666667425,
            "durationTicks": 217,
            "midi": 71,
            "name": "B4",
            "ticks": 603840,
            "time": 629,
            "velocity": 0.8976377952755905
          },
          {
            "duration": 0.22604166666667425,
            "durationTicks": 217,
            "midi": 62,
            "name": "D4",
            "ticks": 604080,
            "time": 629.25,
            "velocity": 0.905511811023622
          },
          {
            "duration": 0.22604166666667425,
            "durationTicks": 217,
            "midi": 71,
            "name": "B4",
            "ticks": 604080,
            "time": 629.25,
            "velocity": 0.905511811023622
          },
          {
            "duration": 0.451041666666697,
            "durationTicks": 433,
            "midi": 63,
            "name": "D#4",
            "ticks": 604320,
            "time": 629.5,
            "velocity": 0.9212598425196851
          },
          {
            "duration": 0.451041666666697,
            "durationTicks": 433,
            "midi": 72,
            "name": "C5",
            "ticks": 604320,
            "time": 629.5,
            "velocity": 0.9212598425196851
          },
          {
            "duration": 0.05833333333328028,
            "durationTicks": 56,
            "midi": 55,
            "name": "G3",
            "ticks": 604744,
            "time": 629.9416666666667,
            "velocity": 0.8346456692913385
          },
          {
            "duration": 0.451041666666697,
            "durationTicks": 433,
            "midi": 62,
            "name": "D4",
            "ticks": 604772,
            "time": 629.9708333333333,
            "velocity": 0.8346456692913385
          },
          {
            "duration": 0.451041666666697,
            "durationTicks": 433,
            "midi": 71,
            "name": "B4",
            "ticks": 604800,
            "time": 630,
            "velocity": 0.8346456692913385
          },
          {
            "duration": 0.05833333333328028,
            "durationTicks": 56,
            "midi": 55,
            "name": "G3",
            "ticks": 605224,
            "time": 630.4416666666667,
            "velocity": 0.8976377952755905
          },
          {
            "duration": 0.451041666666697,
            "durationTicks": 433,
            "midi": 63,
            "name": "D#4",
            "ticks": 605252,
            "time": 630.4708333333333,
            "velocity": 0.8976377952755905
          },
          {
            "duration": 0.451041666666697,
            "durationTicks": 433,
            "midi": 72,
            "name": "C5",
            "ticks": 605280,
            "time": 630.5,
            "velocity": 0.8976377952755905
          },
          {
            "duration": 0.05833333333328028,
            "durationTicks": 56,
            "midi": 55,
            "name": "G3",
            "ticks": 605704,
            "time": 630.9416666666667,
            "velocity": 0.84251968503937
          },
          {
            "duration": 0.451041666666697,
            "durationTicks": 433,
            "midi": 62,
            "name": "D4",
            "ticks": 605732,
            "time": 630.9708333333333,
            "velocity": 0.84251968503937
          },
          {
            "duration": 0.451041666666697,
            "durationTicks": 433,
            "midi": 71,
            "name": "B4",
            "ticks": 605760,
            "time": 631,
            "velocity": 0.84251968503937
          },
          {
            "duration": 0.05833333333328028,
            "durationTicks": 56,
            "midi": 55,
            "name": "G3",
            "ticks": 606184,
            "time": 631.4416666666667,
            "velocity": 0.9212598425196851
          },
          {
            "duration": 0.451041666666697,
            "durationTicks": 433,
            "midi": 63,
            "name": "D#4",
            "ticks": 606212,
            "time": 631.4708333333333,
            "velocity": 0.9212598425196851
          },
          {
            "duration": 0.451041666666697,
            "durationTicks": 433,
            "midi": 72,
            "name": "C5",
            "ticks": 606240,
            "time": 631.5,
            "velocity": 0.9212598425196851
          },
          {
            "duration": 0.05833333333328028,
            "durationTicks": 56,
            "midi": 62,
            "name": "D4",
            "ticks": 606664,
            "time": 631.9416666666667,
            "velocity": 1
          },
          {
            "duration": 0.451041666666697,
            "durationTicks": 433,
            "midi": 71,
            "name": "B4",
            "ticks": 606692,
            "time": 631.9708333333333,
            "velocity": 1
          },
          {
            "duration": 0.451041666666697,
            "durationTicks": 433,
            "midi": 79,
            "name": "G5",
            "ticks": 606720,
            "time": 632,
            "velocity": 1
          },
          {
            "duration": 0.05833333333328028,
            "durationTicks": 56,
            "midi": 63,
            "name": "D#4",
            "ticks": 607144,
            "time": 632.4416666666667,
            "velocity": 0.9212598425196851
          },
          {
            "duration": 0.451041666666697,
            "durationTicks": 433,
            "midi": 72,
            "name": "C5",
            "ticks": 607172,
            "time": 632.4708333333333,
            "velocity": 0.9212598425196851
          },
          {
            "duration": 0.451041666666697,
            "durationTicks": 433,
            "midi": 79,
            "name": "G5",
            "ticks": 607200,
            "time": 632.5,
            "velocity": 0.9212598425196851
          },
          {
            "duration": 0.05833333333328028,
            "durationTicks": 56,
            "midi": 62,
            "name": "D4",
            "ticks": 607624,
            "time": 632.9416666666667,
            "velocity": 0.8740157480314961
          },
          {
            "duration": 0.451041666666697,
            "durationTicks": 433,
            "midi": 71,
            "name": "B4",
            "ticks": 607652,
            "time": 632.9708333333333,
            "velocity": 0.8740157480314961
          },
          {
            "duration": 0.451041666666697,
            "durationTicks": 433,
            "midi": 79,
            "name": "G5",
            "ticks": 607680,
            "time": 633,
            "velocity": 0.8740157480314961
          },
          {
            "duration": 0.05833333333328028,
            "durationTicks": 56,
            "midi": 63,
            "name": "D#4",
            "ticks": 608104,
            "time": 633.4416666666667,
            "velocity": 0.9133858267716536
          },
          {
            "duration": 0.451041666666697,
            "durationTicks": 433,
            "midi": 72,
            "name": "C5",
            "ticks": 608132,
            "time": 633.4708333333333,
            "velocity": 0.9133858267716536
          },
          {
            "duration": 0.451041666666697,
            "durationTicks": 433,
            "midi": 79,
            "name": "G5",
            "ticks": 608160,
            "time": 633.5,
            "velocity": 0.9133858267716536
          },
          {
            "duration": 0.05833333333328028,
            "durationTicks": 56,
            "midi": 55,
            "name": "G3",
            "ticks": 609064,
            "time": 634.4416666666667,
            "velocity": 0.8031496062992126
          },
          {
            "duration": 0.451041666666697,
            "durationTicks": 433,
            "midi": 62,
            "name": "D4",
            "ticks": 609092,
            "time": 634.4708333333333,
            "velocity": 0.8031496062992126
          },
          {
            "duration": 0.451041666666697,
            "durationTicks": 433,
            "midi": 71,
            "name": "B4",
            "ticks": 609120,
            "time": 634.5,
            "velocity": 0.8031496062992126
          },
          {
            "duration": 0.05833333333328028,
            "durationTicks": 56,
            "midi": 55,
            "name": "G3",
            "ticks": 610024,
            "time": 635.4416666666667,
            "velocity": 0.8031496062992126
          },
          {
            "duration": 0.451041666666697,
            "durationTicks": 433,
            "midi": 63,
            "name": "D#4",
            "ticks": 610052,
            "time": 635.4708333333333,
            "velocity": 0.8031496062992126
          },
          {
            "duration": 0.451041666666697,
            "durationTicks": 433,
            "midi": 72,
            "name": "C5",
            "ticks": 610080,
            "time": 635.5,
            "velocity": 0.8031496062992126
          }
        ]
      },
      {
        "channel": 8,
        "controlChanges": {
          "7": [
            {
              "number": 7,
              "ticks": 0,
              "time": 0,
              "value": 0.5196850393700787
            },
            {
              "number": 7,
              "ticks": 376560,
              "time": 392.25,
              "value": 0.5196850393700787
            }
          ],
          "10": [
            {
              "number": 10,
              "ticks": 0,
              "time": 0,
              "value": 0.6771653543307087
            },
            {
              "number": 10,
              "ticks": 376560,
              "time": 392.25,
              "value": 0.6771653543307087
            }
          ],
          "64": [
            {
              "number": 64,
              "ticks": 0,
              "time": 0,
              "value": 0
            }
          ],
          "121": [
            {
              "number": 121,
              "ticks": 0,
              "time": 0,
              "value": 0
            }
          ]
        },
        "pitchBends": [],
        "instrument": {
          "family": "ensemble",
          "number": 48,
          "name": "string ensemble 1"
        },
        "name": "",
        "notes": [
          {
            "duration": 0.22604166666666664,
            "durationTicks": 217,
            "midi": 55,
            "name": "G3",
            "ticks": 240,
            "time": 0.25,
            "velocity": 0.7874015748031497
          },
          {
            "duration": 0.2260416666666667,
            "durationTicks": 217,
            "midi": 55,
            "name": "G3",
            "ticks": 480,
            "time": 0.5,
            "velocity": 0.8976377952755905
          },
          {
            "duration": 0.2260416666666667,
            "durationTicks": 217,
            "midi": 55,
            "name": "G3",
            "ticks": 720,
            "time": 0.75,
            "velocity": 0.8818897637795275
          },
          {
            "duration": 1.5,
            "durationTicks": 1440,
            "midi": 51,
            "name": "D#3",
            "ticks": 960,
            "time": 1,
            "velocity": 0.84251968503937
          },
          {
            "duration": 0.2260416666666667,
            "durationTicks": 217,
            "midi": 53,
            "name": "F3",
            "ticks": 2640,
            "time": 2.75,
            "velocity": 0.7874015748031497
          },
          {
            "duration": 0.2260416666666667,
            "durationTicks": 217,
            "midi": 53,
            "name": "F3",
            "ticks": 2880,
            "time": 3,
            "velocity": 0.8740157480314961
          },
          {
            "duration": 0.2260416666666667,
            "durationTicks": 217,
            "midi": 53,
            "name": "F3",
            "ticks": 3120,
            "time": 3.25,
            "velocity": 0.937007874015748
          },
          {
            "duration": 2.5,
            "durationTicks": 2400,
            "midi": 50,
            "name": "D3",
            "ticks": 3360,
            "time": 3.5,
            "velocity": 0.8346456692913385
          },
          {
            "duration": 0.22604166666666625,
            "durationTicks": 217,
            "midi": 68,
            "name": "G#4",
            "ticks": 6960,
            "time": 7.25,
            "velocity": 0.4409448818897638
          },
          {
            "duration": 0.22604166666666625,
            "durationTicks": 217,
            "midi": 68,
            "name": "G#4",
            "ticks": 7200,
            "time": 7.5,
            "velocity": 0.44881889763779526
          },
          {
            "duration": 0.22604166666666625,
            "durationTicks": 217,
            "midi": 68,
            "name": "G#4",
            "ticks": 7440,
            "time": 7.75,
            "velocity": 0.4645669291338583
          },
          {
            "duration": 2.451041666666667,
            "durationTicks": 2353,
            "midi": 67,
            "name": "G4",
            "ticks": 7680,
            "time": 8,
            "velocity": 0.4566929133858268
          },
          {
            "duration": 0.22604166666666714,
            "durationTicks": 217,
            "midi": 68,
            "name": "G#4",
            "ticks": 10800,
            "time": 11.25,
            "velocity": 0.44881889763779526
          },
          {
            "duration": 0.22604166666666714,
            "durationTicks": 217,
            "midi": 68,
            "name": "G#4",
            "ticks": 11040,
            "time": 11.5,
            "velocity": 0.48031496062992124
          },
          {
            "duration": 0.22604166666666714,
            "durationTicks": 217,
            "midi": 68,
            "name": "G#4",
            "ticks": 11280,
            "time": 11.75,
            "velocity": 0.4645669291338583
          },
          {
            "duration": 0.9000000000000004,
            "durationTicks": 864,
            "midi": 67,
            "name": "G4",
            "ticks": 11520,
            "time": 12,
            "velocity": 0.44881889763779526
          },
          {
            "duration": 1.9000000000000004,
            "durationTicks": 1824,
            "midi": 62,
            "name": "D4",
            "ticks": 12480,
            "time": 13,
            "velocity": 0.41732283464566927
          },
          {
            "duration": 0.22604166666666714,
            "durationTicks": 217,
            "midi": 63,
            "name": "D#4",
            "ticks": 14400,
            "time": 15,
            "velocity": 0.49606299212598426
          },
          {
            "duration": 0.22604166666666714,
            "durationTicks": 217,
            "midi": 63,
            "name": "D#4",
            "ticks": 14640,
            "time": 15.25,
            "velocity": 0.4566929133858268
          },
          {
            "duration": 0.22604166666666714,
            "durationTicks": 217,
            "midi": 63,
            "name": "D#4",
            "ticks": 14880,
            "time": 15.5,
            "velocity": 0.48031496062992124
          },
          {
            "duration": 0.22604166666666714,
            "durationTicks": 217,
            "midi": 65,
            "name": "F4",
            "ticks": 15120,
            "time": 15.75,
            "velocity": 0.5196850393700787
          },
          {
            "duration": 1.2260416666666671,
            "durationTicks": 1177,
            "midi": 67,
            "name": "G4",
            "ticks": 15360,
            "time": 16,
            "velocity": 0.5118110236220472
          },
          {
            "duration": 0.22604166666666714,
            "durationTicks": 217,
            "midi": 63,
            "name": "D#4",
            "ticks": 16560,
            "time": 17.25,
            "velocity": 0.41732283464566927
          },
          {
            "duration": 0.22604166666666714,
            "durationTicks": 217,
            "midi": 63,
            "name": "D#4",
            "ticks": 16800,
            "time": 17.5,
            "velocity": 0.4566929133858268
          },
          {
            "duration": 0.22604166666666714,
            "durationTicks": 217,
            "midi": 65,
            "name": "F4",
            "ticks": 17040,
            "time": 17.75,
            "velocity": 0.4881889763779528
          },
          {
            "duration": 0.6760416666666664,
            "durationTicks": 649,
            "midi": 67,
            "name": "G4",
            "ticks": 17280,
            "time": 18,
            "velocity": 0.5118110236220472
          },
          {
            "duration": 0.22604166666666714,
            "durationTicks": 217,
            "midi": 62,
            "name": "D4",
            "ticks": 18000,
            "time": 18.75,
            "velocity": 0.5354330708661418
          },
          {
            "duration": 0.451041666666665,
            "durationTicks": 433,
            "midi": 63,
            "name": "D#4",
            "ticks": 18240,
            "time": 19,
            "velocity": 0.7559055118110236
          },
          {
            "duration": 0.451041666666665,
            "durationTicks": 433,
            "midi": 56,
            "name": "G#3",
            "ticks": 19200,
            "time": 20,
            "velocity": 0.6850393700787402
          },
          {
            "duration": 0.451041666666665,
            "durationTicks": 433,
            "midi": 55,
            "name": "G3",
            "ticks": 20160,
            "time": 21,
            "velocity": 0.7086614173228346
          },
          {
            "duration": 0.22604166666666714,
            "durationTicks": 217,
            "midi": 56,
            "name": "G#3",
            "ticks": 21600,
            "time": 22.5,
            "velocity": 0.6535433070866141
          },
          {
            "duration": 0.22604166666666714,
            "durationTicks": 217,
            "midi": 56,
            "name": "G#3",
            "ticks": 21840,
            "time": 22.75,
            "velocity": 0.7874015748031497
          },
          {
            "duration": 0.22604166666666714,
            "durationTicks": 217,
            "midi": 56,
            "name": "G#3",
            "ticks": 22080,
            "time": 23,
            "velocity": 0.7480314960629921
          },
          {
            "duration": 2.5,
            "durationTicks": 2400,
            "midi": 53,
            "name": "F3",
            "ticks": 22320,
            "time": 23.25,
            "velocity": 0.7401574803149606
          },
          {
            "duration": 0.22604166666666714,
            "durationTicks": 217,
            "midi": 56,
            "name": "G#3",
            "ticks": 26880,
            "time": 28,
            "velocity": 0.44881889763779526
          },
          {
            "duration": 0.22604166666666714,
            "durationTicks": 217,
            "midi": 56,
            "name": "G#3",
            "ticks": 27120,
            "time": 28.25,
            "velocity": 0.49606299212598426
          },
          {
            "duration": 0.22604166666666714,
            "durationTicks": 217,
            "midi": 56,
            "name": "G#3",
            "ticks": 27360,
            "time": 28.5,
            "velocity": 0.5196850393700787
          },
          {
            "duration": 1.451041666666665,
            "durationTicks": 1393,
            "midi": 55,
            "name": "G3",
            "ticks": 27600,
            "time": 28.75,
            "velocity": 0.47244094488188976
          },
          {
            "duration": 0.22604166666666714,
            "durationTicks": 217,
            "midi": 56,
            "name": "G#3",
            "ticks": 30720,
            "time": 32,
            "velocity": 0.4330708661417323
          },
          {
            "duration": 0.22604166666666714,
            "durationTicks": 217,
            "midi": 56,
            "name": "G#3",
            "ticks": 30960,
            "time": 32.25,
            "velocity": 0.49606299212598426
          },
          {
            "duration": 0.22604166666666714,
            "durationTicks": 217,
            "midi": 56,
            "name": "G#3",
            "ticks": 31200,
            "time": 32.5,
            "velocity": 0.4645669291338583
          },
          {
            "duration": 1.2260416666666671,
            "durationTicks": 1177,
            "midi": 55,
            "name": "G3",
            "ticks": 31440,
            "time": 32.75,
            "velocity": 0.4330708661417323
          },
          {
            "duration": 0.22604166666666714,
            "durationTicks": 217,
            "midi": 63,
            "name": "D#4",
            "ticks": 32640,
            "time": 34,
            "velocity": 0.5511811023622047
          },
          {
            "duration": 0.22604166666666714,
            "durationTicks": 217,
            "midi": 63,
            "name": "D#4",
            "ticks": 32880,
            "time": 34.25,
            "velocity": 0.4881889763779528
          },
          {
            "duration": 0.22604166666666714,
            "durationTicks": 217,
            "midi": 60,
            "name": "C4",
            "ticks": 33120,
            "time": 34.5,
            "velocity": 0.4409448818897638
          },
          {
            "duration": 1.2260416666666671,
            "durationTicks": 1177,
            "midi": 62,
            "name": "D4",
            "ticks": 33360,
            "time": 34.75,
            "velocity": 0.5039370078740157
          },
          {
            "duration": 0.22604166666666714,
            "durationTicks": 217,
            "midi": 65,
            "name": "F4",
            "ticks": 34560,
            "time": 36,
            "velocity": 0.5433070866141733
          },
          {
            "duration": 0.22604166666666714,
            "durationTicks": 217,
            "midi": 65,
            "name": "F4",
            "ticks": 34800,
            "time": 36.25,
            "velocity": 0.5590551181102362
          },
          {
            "duration": 0.22604166666666714,
            "durationTicks": 217,
            "midi": 62,
            "name": "D4",
            "ticks": 35040,
            "time": 36.5,
            "velocity": 0.4881889763779528
          },
          {
            "duration": 1.2260416666666671,
            "durationTicks": 1177,
            "midi": 63,
            "name": "D#4",
            "ticks": 35280,
            "time": 36.75,
            "velocity": 0.5669291338582677
          },
          {
            "duration": 0.22604166666666714,
            "durationTicks": 217,
            "midi": 63,
            "name": "D#4",
            "ticks": 36480,
            "time": 38,
            "velocity": 0.5511811023622047
          },
          {
            "duration": 0.22604166666666714,
            "durationTicks": 217,
            "midi": 63,
            "name": "D#4",
            "ticks": 36720,
            "time": 38.25,
            "velocity": 0.5433070866141733
          },
          {
            "duration": 0.22604166666666714,
            "durationTicks": 217,
            "midi": 60,
            "name": "C4",
            "ticks": 36960,
            "time": 38.5,
            "velocity": 0.49606299212598426
          },
          {
            "duration": 0.22604166666666714,
            "durationTicks": 217,
            "midi": 65,
            "name": "F4",
            "ticks": 37200,
            "time": 38.75,
            "velocity": 0.7244094488188977
          },
          {
            "duration": 0.22604166666666714,
            "durationTicks": 217,
            "midi": 65,
            "name": "F4",
            "ticks": 37440,
            "time": 39,
            "velocity": 0.5669291338582677
          },
          {
            "duration": 0.22604166666666714,
            "durationTicks": 217,
            "midi": 65,
            "name": "F4",
            "ticks": 37680,
            "time": 39.25,
            "velocity": 0.6062992125984252
          },
          {
            "duration": 0.22604166666666714,
            "durationTicks": 217,
            "midi": 59,
            "name": "B3",
            "ticks": 37920,
            "time": 39.5,
            "velocity": 0.5433070866141733
          },
          {
            "duration": 0.22604166666666714,
            "durationTicks": 217,
            "midi": 67,
            "name": "G4",
            "ticks": 38160,
            "time": 39.75,
            "velocity": 0.8188976377952756
          },
          {
            "duration": 0.22604166666666714,
            "durationTicks": 217,
            "midi": 67,
            "name": "G4",
            "ticks": 38400,
            "time": 40,
            "velocity": 0.6299212598425197
          },
          {
            "duration": 0.22604166666666714,
            "durationTicks": 217,
            "midi": 67,
            "name": "G4",
            "ticks": 38640,
            "time": 40.25,
            "velocity": 0.6220472440944882
          },
          {
            "duration": 0.22604166666666714,
            "durationTicks": 217,
            "midi": 58,
            "name": "A#3",
            "ticks": 38880,
            "time": 40.5,
            "velocity": 0.5118110236220472
          },
          {
            "duration": 0.22604166666666714,
            "durationTicks": 217,
            "midi": 68,
            "name": "G#4",
            "ticks": 39120,
            "time": 40.75,
            "velocity": 0.84251968503937
          },
          {
            "duration": 0.22604166666666714,
            "durationTicks": 217,
            "midi": 56,
            "name": "G#3",
            "ticks": 39360,
            "time": 41,
            "velocity": 0.5433070866141733
          },
          {
            "duration": 0.22604166666666714,
            "durationTicks": 217,
            "midi": 56,
            "name": "G#3",
            "ticks": 39600,
            "time": 41.25,
            "velocity": 0.6535433070866141
          },
          {
            "duration": 0.22604166666666714,
            "durationTicks": 217,
            "midi": 53,
            "name": "F3",
            "ticks": 39840,
            "time": 41.5,
            "velocity": 0.5748031496062992
          },
          {
            "duration": 0.22604166666666714,
            "durationTicks": 217,
            "midi": 58,
            "name": "A#3",
            "ticks": 40080,
            "time": 41.75,
            "velocity": 0.8110236220472441
          },
          {
            "duration": 0.22604166666666714,
            "durationTicks": 217,
            "midi": 58,
            "name": "A#3",
            "ticks": 40320,
            "time": 42,
            "velocity": 0.6299212598425197
          },
          {
            "duration": 0.22604166666666714,
            "durationTicks": 217,
            "midi": 58,
            "name": "A#3",
            "ticks": 40560,
            "time": 42.25,
            "velocity": 0.6299212598425197
          },
          {
            "duration": 0.22604166666666714,
            "durationTicks": 217,
            "midi": 55,
            "name": "G3",
            "ticks": 40800,
            "time": 42.5,
            "velocity": 0.6377952755905512
          },
          {
            "duration": 0.22604166666666714,
            "durationTicks": 217,
            "midi": 60,
            "name": "C4",
            "ticks": 41040,
            "time": 42.75,
            "velocity": 0.8818897637795275
          },
          {
            "duration": 0.22604166666666714,
            "durationTicks": 217,
            "midi": 60,
            "name": "C4",
            "ticks": 41280,
            "time": 43,
            "velocity": 0.7165354330708661
          },
          {
            "duration": 0.22604166666666714,
            "durationTicks": 217,
            "midi": 60,
            "name": "C4",
            "ticks": 41520,
            "time": 43.25,
            "velocity": 0.6850393700787402
          },
          {
            "duration": 0.22604166666666714,
            "durationTicks": 217,
            "midi": 56,
            "name": "G#3",
            "ticks": 41760,
            "time": 43.5,
            "velocity": 0.6850393700787402
          },
          {
            "duration": 0.22604166666666714,
            "durationTicks": 217,
            "midi": 65,
            "name": "F4",
            "ticks": 42000,
            "time": 43.75,
            "velocity": 0.984251968503937
          },
          {
            "duration": 0.22604166666666714,
            "durationTicks": 217,
            "midi": 65,
            "name": "F4",
            "ticks": 42240,
            "time": 44,
            "velocity": 0.7559055118110236
          },
          {
            "duration": 0.22604166666666714,
            "durationTicks": 217,
            "midi": 65,
            "name": "F4",
            "ticks": 42480,
            "time": 44.25,
            "velocity": 0.7480314960629921
          },
          {
            "duration": 0.22604166666666714,
            "durationTicks": 217,
            "midi": 62,
            "name": "D4",
            "ticks": 42720,
            "time": 44.5,
            "velocity": 0.7007874015748031
          },
          {
            "duration": 0.22604166666666714,
            "durationTicks": 217,
            "midi": 63,
            "name": "D#4",
            "ticks": 42960,
            "time": 44.75,
            "velocity": 0.7716535433070866
          },
          {
            "duration": 0.22604166666666714,
            "durationTicks": 217,
            "midi": 48,
            "name": "C3",
            "ticks": 43200,
            "time": 45,
            "velocity": 0.6614173228346457
          },
          {
            "duration": 0.22604166666666714,
            "durationTicks": 217,
            "midi": 51,
            "name": "D#3",
            "ticks": 43200,
            "time": 45,
            "velocity": 0.6614173228346457
          },
          {
            "duration": 0.22604166666666714,
            "durationTicks": 217,
            "midi": 48,
            "name": "C3",
            "ticks": 43440,
            "time": 45.25,
            "velocity": 0.7480314960629921
          },
          {
            "duration": 0.22604166666666714,
            "durationTicks": 217,
            "midi": 51,
            "name": "D#3",
            "ticks": 43440,
            "time": 45.25,
            "velocity": 0.7480314960629921
          },
          {
            "duration": 0.22604166666666714,
            "durationTicks": 217,
            "midi": 48,
            "name": "C3",
            "ticks": 43680,
            "time": 45.5,
            "velocity": 0.7559055118110236
          },
          {
            "duration": 0.22604166666666714,
            "durationTicks": 217,
            "midi": 51,
            "name": "D#3",
            "ticks": 43680,
            "time": 45.5,
            "velocity": 0.7559055118110236
          },
          {
            "duration": 0.22604166666666714,
            "durationTicks": 217,
            "midi": 48,
            "name": "C3",
            "ticks": 43920,
            "time": 45.75,
            "velocity": 0.7795275590551181
          },
          {
            "duration": 0.22604166666666714,
            "durationTicks": 217,
            "midi": 51,
            "name": "D#3",
            "ticks": 43920,
            "time": 45.75,
            "velocity": 0.7795275590551181
          },
          {
            "duration": 0.22604166666666714,
            "durationTicks": 217,
            "midi": 48,
            "name": "C3",
            "ticks": 44160,
            "time": 46,
            "velocity": 0.7716535433070866
          },
          {
            "duration": 0.22604166666666714,
            "durationTicks": 217,
            "midi": 51,
            "name": "D#3",
            "ticks": 44160,
            "time": 46,
            "velocity": 0.7716535433070866
          },
          {
            "duration": 0.22604166666666714,
            "durationTicks": 217,
            "midi": 48,
            "name": "C3",
            "ticks": 44400,
            "time": 46.25,
            "velocity": 0.7637795275590551
          },
          {
            "duration": 0.22604166666666714,
            "durationTicks": 217,
            "midi": 51,
            "name": "D#3",
            "ticks": 44400,
            "time": 46.25,
            "velocity": 0.7637795275590551
          },
          {
            "duration": 0.22604166666666714,
            "durationTicks": 217,
            "midi": 48,
            "name": "C3",
            "ticks": 44640,
            "time": 46.5,
            "velocity": 0.7795275590551181
          },
          {
            "duration": 0.22604166666666714,
            "durationTicks": 217,
            "midi": 51,
            "name": "D#3",
            "ticks": 44640,
            "time": 46.5,
            "velocity": 0.7795275590551181
          },
          {
            "duration": 0.22604166666666714,
            "durationTicks": 217,
            "midi": 48,
            "name": "C3",
            "ticks": 44880,
            "time": 46.75,
            "velocity": 0.7559055118110236
          },
          {
            "duration": 0.22604166666666714,
            "durationTicks": 217,
            "midi": 51,
            "name": "D#3",
            "ticks": 44880,
            "time": 46.75,
            "velocity": 0.7559055118110236
          },
          {
            "duration": 0.22604166666666714,
            "durationTicks": 217,
            "midi": 48,
            "name": "C3",
            "ticks": 45120,
            "time": 47,
            "velocity": 0.7637795275590551
          },
          {
            "duration": 0.22604166666666714,
            "durationTicks": 217,
            "midi": 51,
            "name": "D#3",
            "ticks": 45120,
            "time": 47,
            "velocity": 0.7637795275590551
          },
          {
            "duration": 0.22604166666666714,
            "durationTicks": 217,
            "midi": 48,
            "name": "C3",
            "ticks": 45360,
            "time": 47.25,
            "velocity": 0.7716535433070866
          },
          {
            "duration": 0.22604166666666714,
            "durationTicks": 217,
            "midi": 51,
            "name": "D#3",
            "ticks": 45360,
            "time": 47.25,
            "velocity": 0.7716535433070866
          },
          {
            "duration": 0.22604166666666714,
            "durationTicks": 217,
            "midi": 48,
            "name": "C3",
            "ticks": 45600,
            "time": 47.5,
            "velocity": 0.7874015748031497
          },
          {
            "duration": 0.22604166666666714,
            "durationTicks": 217,
            "midi": 51,
            "name": "D#3",
            "ticks": 45600,
            "time": 47.5,
            "velocity": 0.7874015748031497
          },
          {
            "duration": 0.22604166666666714,
            "durationTicks": 217,
            "midi": 48,
            "name": "C3",
            "ticks": 45840,
            "time": 47.75,
            "velocity": 0.7874015748031497
          },
          {
            "duration": 0.22604166666666714,
            "durationTicks": 217,
            "midi": 51,
            "name": "D#3",
            "ticks": 45840,
            "time": 47.75,
            "velocity": 0.7874015748031497
          },
          {
            "duration": 0.22604166666666714,
            "durationTicks": 217,
            "midi": 48,
            "name": "C3",
            "ticks": 46080,
            "time": 48,
            "velocity": 0.7795275590551181
          },
          {
            "duration": 0.22604166666666714,
            "durationTicks": 217,
            "midi": 51,
            "name": "D#3",
            "ticks": 46080,
            "time": 48,
            "velocity": 0.7795275590551181
          },
          {
            "duration": 0.22604166666666714,
            "durationTicks": 217,
            "midi": 48,
            "name": "C3",
            "ticks": 46320,
            "time": 48.25,
            "velocity": 0.7637795275590551
          },
          {
            "duration": 0.22604166666666714,
            "durationTicks": 217,
            "midi": 51,
            "name": "D#3",
            "ticks": 46320,
            "time": 48.25,
            "velocity": 0.7637795275590551
          },
          {
            "duration": 0.22604166666666714,
            "durationTicks": 217,
            "midi": 48,
            "name": "C3",
            "ticks": 46560,
            "time": 48.5,
            "velocity": 0.7007874015748031
          },
          {
            "duration": 0.22604166666666714,
            "durationTicks": 217,
            "midi": 51,
            "name": "D#3",
            "ticks": 46560,
            "time": 48.5,
            "velocity": 0.7007874015748031
          },
          {
            "duration": 0.22604166666666714,
            "durationTicks": 217,
            "midi": 50,
            "name": "D3",
            "ticks": 46800,
            "time": 48.75,
            "velocity": 0.7952755905511811
          },
          {
            "duration": 0.22604166666666714,
            "durationTicks": 217,
            "midi": 53,
            "name": "F3",
            "ticks": 46800,
            "time": 48.75,
            "velocity": 0.7952755905511811
          },
          {
            "duration": 0.22604166666666714,
            "durationTicks": 217,
            "midi": 50,
            "name": "D3",
            "ticks": 47040,
            "time": 49,
            "velocity": 0.7401574803149606
          },
          {
            "duration": 0.22604166666666714,
            "durationTicks": 217,
            "midi": 53,
            "name": "F3",
            "ticks": 47040,
            "time": 49,
            "velocity": 0.7401574803149606
          },
          {
            "duration": 0.22604166666666714,
            "durationTicks": 217,
            "midi": 50,
            "name": "D3",
            "ticks": 47280,
            "time": 49.25,
            "velocity": 0.7716535433070866
          },
          {
            "duration": 0.22604166666666714,
            "durationTicks": 217,
            "midi": 53,
            "name": "F3",
            "ticks": 47280,
            "time": 49.25,
            "velocity": 0.7716535433070866
          },
          {
            "duration": 0.22604166666666714,
            "durationTicks": 217,
            "midi": 50,
            "name": "D3",
            "ticks": 47520,
            "time": 49.5,
            "velocity": 0.7559055118110236
          },
          {
            "duration": 0.22604166666666714,
            "durationTicks": 217,
            "midi": 53,
            "name": "F3",
            "ticks": 47520,
            "time": 49.5,
            "velocity": 0.7559055118110236
          },
          {
            "duration": 0.22604166666666714,
            "durationTicks": 217,
            "midi": 50,
            "name": "D3",
            "ticks": 47760,
            "time": 49.75,
            "velocity": 0.7716535433070866
          },
          {
            "duration": 0.22604166666666714,
            "durationTicks": 217,
            "midi": 53,
            "name": "F3",
            "ticks": 47760,
            "time": 49.75,
            "velocity": 0.7716535433070866
          },
          {
            "duration": 0.22604166666666714,
            "durationTicks": 217,
            "midi": 50,
            "name": "D3",
            "ticks": 48000,
            "time": 50,
            "velocity": 0.7401574803149606
          },
          {
            "duration": 0.22604166666666714,
            "durationTicks": 217,
            "midi": 53,
            "name": "F3",
            "ticks": 48000,
            "time": 50,
            "velocity": 0.7401574803149606
          },
          {
            "duration": 0.22604166666666714,
            "durationTicks": 217,
            "midi": 50,
            "name": "D3",
            "ticks": 48240,
            "time": 50.25,
            "velocity": 0.7480314960629921
          },
          {
            "duration": 0.22604166666666714,
            "durationTicks": 217,
            "midi": 53,
            "name": "F3",
            "ticks": 48240,
            "time": 50.25,
            "velocity": 0.7480314960629921
          },
          {
            "duration": 0.22604166666666714,
            "durationTicks": 217,
            "midi": 50,
            "name": "D3",
            "ticks": 48480,
            "time": 50.5,
            "velocity": 0.7480314960629921
          },
          {
            "duration": 0.22604166666666714,
            "durationTicks": 217,
            "midi": 53,
            "name": "F3",
            "ticks": 48480,
            "time": 50.5,
            "velocity": 0.7480314960629921
          },
          {
            "duration": 0.22604166666666714,
            "durationTicks": 217,
            "midi": 50,
            "name": "D3",
            "ticks": 48720,
            "time": 50.75,
            "velocity": 0.7637795275590551
          },
          {
            "duration": 0.22604166666666714,
            "durationTicks": 217,
            "midi": 53,
            "name": "F3",
            "ticks": 48720,
            "time": 50.75,
            "velocity": 0.7637795275590551
          },
          {
            "duration": 0.22604166666666714,
            "durationTicks": 217,
            "midi": 50,
            "name": "D3",
            "ticks": 48960,
            "time": 51,
            "velocity": 0.7480314960629921
          },
          {
            "duration": 0.22604166666666714,
            "durationTicks": 217,
            "midi": 53,
            "name": "F3",
            "ticks": 48960,
            "time": 51,
            "velocity": 0.7480314960629921
          },
          {
            "duration": 0.22604166666666714,
            "durationTicks": 217,
            "midi": 50,
            "name": "D3",
            "ticks": 49200,
            "time": 51.25,
            "velocity": 0.7716535433070866
          },
          {
            "duration": 0.22604166666666714,
            "durationTicks": 217,
            "midi": 53,
            "name": "F3",
            "ticks": 49200,
            "time": 51.25,
            "velocity": 0.7716535433070866
          },
          {
            "duration": 0.22604166666666714,
            "durationTicks": 217,
            "midi": 50,
            "name": "D3",
            "ticks": 49440,
            "time": 51.5,
            "velocity": 0.7874015748031497
          },
          {
            "duration": 0.22604166666666714,
            "durationTicks": 217,
            "midi": 53,
            "name": "F3",
            "ticks": 49440,
            "time": 51.5,
            "velocity": 0.7874015748031497
          },
          {
            "duration": 0.22604166666666714,
            "durationTicks": 217,
            "midi": 50,
            "name": "D3",
            "ticks": 49680,
            "time": 51.75,
            "velocity": 0.7401574803149606
          },
          {
            "duration": 0.22604166666666714,
            "durationTicks": 217,
            "midi": 53,
            "name": "F3",
            "ticks": 49680,
            "time": 51.75,
            "velocity": 0.7401574803149606
          },
          {
            "duration": 0.22604166666666714,
            "durationTicks": 217,
            "midi": 50,
            "name": "D3",
            "ticks": 49920,
            "time": 52,
            "velocity": 0.7480314960629921
          },
          {
            "duration": 0.22604166666666714,
            "durationTicks": 217,
            "midi": 53,
            "name": "F3",
            "ticks": 49920,
            "time": 52,
            "velocity": 0.7480314960629921
          },
          {
            "duration": 0.22604166666666714,
            "durationTicks": 217,
            "midi": 48,
            "name": "C3",
            "ticks": 50160,
            "time": 52.25,
            "velocity": 0.7795275590551181
          },
          {
            "duration": 0.22604166666666714,
            "durationTicks": 217,
            "midi": 51,
            "name": "D#3",
            "ticks": 50160,
            "time": 52.25,
            "velocity": 0.7795275590551181
          },
          {
            "duration": 0.22604166666666714,
            "durationTicks": 217,
            "midi": 48,
            "name": "C3",
            "ticks": 50400,
            "time": 52.5,
            "velocity": 0.7874015748031497
          },
          {
            "duration": 0.22604166666666714,
            "durationTicks": 217,
            "midi": 51,
            "name": "D#3",
            "ticks": 50400,
            "time": 52.5,
            "velocity": 0.7874015748031497
          },
          {
            "duration": 0.22604166666666714,
            "durationTicks": 217,
            "midi": 48,
            "name": "C3",
            "ticks": 50640,
            "time": 52.75,
            "velocity": 0.8818897637795275
          },
          {
            "duration": 0.22604166666666714,
            "durationTicks": 217,
            "midi": 51,
            "name": "D#3",
            "ticks": 50640,
            "time": 52.75,
            "velocity": 0.8818897637795275
          },
          {
            "duration": 0.22604166666666714,
            "durationTicks": 217,
            "midi": 51,
            "name": "D#3",
            "ticks": 50880,
            "time": 53,
            "velocity": 0.952755905511811
          },
          {
            "duration": 0.22604166666666714,
            "durationTicks": 217,
            "midi": 54,
            "name": "F#3",
            "ticks": 50880,
            "time": 53,
            "velocity": 0.952755905511811
          },
          {
            "duration": 0.22604166666666714,
            "durationTicks": 217,
            "midi": 51,
            "name": "D#3",
            "ticks": 51120,
            "time": 53.25,
            "velocity": 0.889763779527559
          },
          {
            "duration": 0.22604166666666714,
            "durationTicks": 217,
            "midi": 54,
            "name": "F#3",
            "ticks": 51120,
            "time": 53.25,
            "velocity": 0.889763779527559
          },
          {
            "duration": 0.22604166666666714,
            "durationTicks": 217,
            "midi": 51,
            "name": "D#3",
            "ticks": 51360,
            "time": 53.5,
            "velocity": 0.8818897637795275
          },
          {
            "duration": 0.22604166666666714,
            "durationTicks": 217,
            "midi": 54,
            "name": "F#3",
            "ticks": 51360,
            "time": 53.5,
            "velocity": 0.8818897637795275
          },
          {
            "duration": 0.22604166666666714,
            "durationTicks": 217,
            "midi": 51,
            "name": "D#3",
            "ticks": 51600,
            "time": 53.75,
            "velocity": 0.905511811023622
          },
          {
            "duration": 0.22604166666666714,
            "durationTicks": 217,
            "midi": 54,
            "name": "F#3",
            "ticks": 51600,
            "time": 53.75,
            "velocity": 0.905511811023622
          },
          {
            "duration": 0.22604166666666714,
            "durationTicks": 217,
            "midi": 51,
            "name": "D#3",
            "ticks": 51840,
            "time": 54,
            "velocity": 0.8661417322834646
          },
          {
            "duration": 0.22604166666666714,
            "durationTicks": 217,
            "midi": 54,
            "name": "F#3",
            "ticks": 51840,
            "time": 54,
            "velocity": 0.8661417322834646
          },
          {
            "duration": 0.22604166666666714,
            "durationTicks": 217,
            "midi": 51,
            "name": "D#3",
            "ticks": 52080,
            "time": 54.25,
            "velocity": 0.905511811023622
          },
          {
            "duration": 0.22604166666666714,
            "durationTicks": 217,
            "midi": 54,
            "name": "F#3",
            "ticks": 52080,
            "time": 54.25,
            "velocity": 0.905511811023622
          },
          {
            "duration": 0.22604166666666714,
            "durationTicks": 217,
            "midi": 51,
            "name": "D#3",
            "ticks": 52320,
            "time": 54.5,
            "velocity": 0.8818897637795275
          },
          {
            "duration": 0.22604166666666714,
            "durationTicks": 217,
            "midi": 54,
            "name": "F#3",
            "ticks": 52320,
            "time": 54.5,
            "velocity": 0.8818897637795275
          },
          {
            "duration": 0.22604166666666714,
            "durationTicks": 217,
            "midi": 51,
            "name": "D#3",
            "ticks": 52560,
            "time": 54.75,
            "velocity": 0.889763779527559
          },
          {
            "duration": 0.22604166666666714,
            "durationTicks": 217,
            "midi": 54,
            "name": "F#3",
            "ticks": 52560,
            "time": 54.75,
            "velocity": 0.889763779527559
          },
          {
            "duration": 0.22604166666666714,
            "durationTicks": 217,
            "midi": 51,
            "name": "D#3",
            "ticks": 52800,
            "time": 55,
            "velocity": 0.8661417322834646
          },
          {
            "duration": 0.22604166666666714,
            "durationTicks": 217,
            "midi": 54,
            "name": "F#3",
            "ticks": 52800,
            "time": 55,
            "velocity": 0.8661417322834646
          },
          {
            "duration": 0.22604166666666714,
            "durationTicks": 217,
            "midi": 51,
            "name": "D#3",
            "ticks": 53040,
            "time": 55.25,
            "velocity": 0.889763779527559
          },
          {
            "duration": 0.22604166666666714,
            "durationTicks": 217,
            "midi": 54,
            "name": "F#3",
            "ticks": 53040,
            "time": 55.25,
            "velocity": 0.889763779527559
          },
          {
            "duration": 0.22604166666666714,
            "durationTicks": 217,
            "midi": 51,
            "name": "D#3",
            "ticks": 53280,
            "time": 55.5,
            "velocity": 0.8661417322834646
          },
          {
            "duration": 0.22604166666666714,
            "durationTicks": 217,
            "midi": 54,
            "name": "F#3",
            "ticks": 53280,
            "time": 55.5,
            "velocity": 0.8661417322834646
          },
          {
            "duration": 0.22604166666666714,
            "durationTicks": 217,
            "midi": 51,
            "name": "D#3",
            "ticks": 53520,
            "time": 55.75,
            "velocity": 0.889763779527559
          },
          {
            "duration": 0.22604166666666714,
            "durationTicks": 217,
            "midi": 54,
            "name": "F#3",
            "ticks": 53520,
            "time": 55.75,
            "velocity": 0.889763779527559
          },
          {
            "duration": 0.22604166666666714,
            "durationTicks": 217,
            "midi": 51,
            "name": "D#3",
            "ticks": 53760,
            "time": 56,
            "velocity": 0.905511811023622
          },
          {
            "duration": 0.22604166666666714,
            "durationTicks": 217,
            "midi": 54,
            "name": "F#3",
            "ticks": 53760,
            "time": 56,
            "velocity": 0.905511811023622
          },
          {
            "duration": 0.22604166666666714,
            "durationTicks": 217,
            "midi": 51,
            "name": "D#3",
            "ticks": 54000,
            "time": 56.25,
            "velocity": 0.8740157480314961
          },
          {
            "duration": 0.22604166666666714,
            "durationTicks": 217,
            "midi": 54,
            "name": "F#3",
            "ticks": 54000,
            "time": 56.25,
            "velocity": 0.8740157480314961
          },
          {
            "duration": 0.22604166666666714,
            "durationTicks": 217,
            "midi": 51,
            "name": "D#3",
            "ticks": 54240,
            "time": 56.5,
            "velocity": 0.905511811023622
          },
          {
            "duration": 0.22604166666666714,
            "durationTicks": 217,
            "midi": 54,
            "name": "F#3",
            "ticks": 54240,
            "time": 56.5,
            "velocity": 0.905511811023622
          },
          {
            "duration": 0.45104166666666856,
            "durationTicks": 433,
            "midi": 51,
            "name": "D#3",
            "ticks": 54480,
            "time": 56.75,
            "velocity": 0.8976377952755905
          },
          {
            "duration": 0.45104166666666856,
            "durationTicks": 433,
            "midi": 54,
            "name": "F#3",
            "ticks": 54480,
            "time": 56.75,
            "velocity": 0.8976377952755905
          },
          {
            "duration": 0.45104166666666856,
            "durationTicks": 433,
            "midi": 53,
            "name": "F3",
            "ticks": 56400,
            "time": 58.75,
            "velocity": 0.8110236220472441
          },
          {
            "duration": 1.0197916666666629,
            "durationTicks": 979,
            "midi": 63,
            "name": "D#4",
            "ticks": 61200,
            "time": 63.75,
            "velocity": 0.44881889763779526
          },
          {
            "duration": 0.9489583333333371,
            "durationTicks": 911,
            "midi": 65,
            "name": "F4",
            "ticks": 62160,
            "time": 64.75,
            "velocity": 0.4881889763779528
          },
          {
            "duration": 1.0197916666666629,
            "durationTicks": 979,
            "midi": 62,
            "name": "D4",
            "ticks": 63120,
            "time": 65.75,
            "velocity": 0.4251968503937008
          },
          {
            "duration": 0.9489583333333371,
            "durationTicks": 911,
            "midi": 63,
            "name": "D#4",
            "ticks": 64080,
            "time": 66.75,
            "velocity": 0.4409448818897638
          },
          {
            "duration": 1.0197916666666629,
            "durationTicks": 979,
            "midi": 63,
            "name": "D#4",
            "ticks": 65040,
            "time": 67.75,
            "velocity": 0.5275590551181102
          },
          {
            "duration": 0.9489583333333371,
            "durationTicks": 911,
            "midi": 65,
            "name": "F4",
            "ticks": 66000,
            "time": 68.75,
            "velocity": 0.5748031496062992
          },
          {
            "duration": 1.0197916666666629,
            "durationTicks": 979,
            "midi": 62,
            "name": "D4",
            "ticks": 66960,
            "time": 69.75,
            "velocity": 0.4409448818897638
          },
          {
            "duration": 0.9489583333333371,
            "durationTicks": 911,
            "midi": 63,
            "name": "D#4",
            "ticks": 67920,
            "time": 70.75,
            "velocity": 0.4645669291338583
          },
          {
            "duration": 1.0197916666666629,
            "durationTicks": 979,
            "midi": 63,
            "name": "D#4",
            "ticks": 68880,
            "time": 71.75,
            "velocity": 0.4645669291338583
          },
          {
            "duration": 0.9489583333333371,
            "durationTicks": 911,
            "midi": 65,
            "name": "F4",
            "ticks": 69840,
            "time": 72.75,
            "velocity": 0.48031496062992124
          },
          {
            "duration": 1.0197916666666629,
            "durationTicks": 979,
            "midi": 62,
            "name": "D4",
            "ticks": 70800,
            "time": 73.75,
            "velocity": 0.4566929133858268
          },
          {
            "duration": 0.9489583333333371,
            "durationTicks": 911,
            "midi": 63,
            "name": "D#4",
            "ticks": 71760,
            "time": 74.75,
            "velocity": 0.5039370078740157
          },
          {
            "duration": 1.0197916666666629,
            "durationTicks": 979,
            "midi": 63,
            "name": "D#4",
            "ticks": 72720,
            "time": 75.75,
            "velocity": 0.47244094488188976
          },
          {
            "duration": 0.9489583333333371,
            "durationTicks": 911,
            "midi": 64,
            "name": "E4",
            "ticks": 73680,
            "time": 76.75,
            "velocity": 0.4566929133858268
          },
          {
            "duration": 1.0197916666666629,
            "durationTicks": 979,
            "midi": 64,
            "name": "E4",
            "ticks": 74640,
            "time": 77.75,
            "velocity": 0.5118110236220472
          },
          {
            "duration": 0.9489583333333371,
            "durationTicks": 911,
            "midi": 60,
            "name": "C4",
            "ticks": 75600,
            "time": 78.75,
            "velocity": 0.48031496062992124
          },
          {
            "duration": 1.0197916666666629,
            "durationTicks": 979,
            "midi": 65,
            "name": "F4",
            "ticks": 76560,
            "time": 79.75,
            "velocity": 0.5275590551181102
          },
          {
            "duration": 0.9489583333333371,
            "durationTicks": 911,
            "midi": 67,
            "name": "G4",
            "ticks": 77520,
            "time": 80.75,
            "velocity": 0.5590551181102362
          },
          {
            "duration": 1.0197916666666629,
            "durationTicks": 979,
            "midi": 67,
            "name": "G4",
            "ticks": 78480,
            "time": 81.75,
            "velocity": 0.5039370078740157
          },
          {
            "duration": 0.9489583333333371,
            "durationTicks": 911,
            "midi": 63,
            "name": "D#4",
            "ticks": 79440,
            "time": 82.75,
            "velocity": 0.4330708661417323
          },
          {
            "duration": 0.22604166666666003,
            "durationTicks": 217,
            "midi": 57,
            "name": "A3",
            "ticks": 81600,
            "time": 85,
            "velocity": 0.44881889763779526
          },
          {
            "duration": 0.22604166666666003,
            "durationTicks": 217,
            "midi": 57,
            "name": "A3",
            "ticks": 81840,
            "time": 85.25,
            "velocity": 0.4566929133858268
          },
          {
            "duration": 0.22604166666666003,
            "durationTicks": 217,
            "midi": 57,
            "name": "A3",
            "ticks": 82080,
            "time": 85.5,
            "velocity": 0.5196850393700787
          },
          {
            "duration": 0.45104166666666856,
            "durationTicks": 433,
            "midi": 57,
            "name": "A3",
            "ticks": 82320,
            "time": 85.75,
            "velocity": 0.48031496062992124
          },
          {
            "duration": 0.22604166666666003,
            "durationTicks": 217,
            "midi": 58,
            "name": "A#3",
            "ticks": 83520,
            "time": 87,
            "velocity": 0.4645669291338583
          },
          {
            "duration": 0.22604166666666003,
            "durationTicks": 217,
            "midi": 58,
            "name": "A#3",
            "ticks": 83760,
            "time": 87.25,
            "velocity": 0.5354330708661418
          },
          {
            "duration": 0.22604166666666003,
            "durationTicks": 217,
            "midi": 58,
            "name": "A#3",
            "ticks": 84000,
            "time": 87.5,
            "velocity": 0.5511811023622047
          },
          {
            "duration": 0.45104166666666856,
            "durationTicks": 433,
            "midi": 58,
            "name": "A#3",
            "ticks": 84240,
            "time": 87.75,
            "velocity": 0.5354330708661418
          },
          {
            "duration": 0.22604166666666003,
            "durationTicks": 217,
            "midi": 59,
            "name": "B3",
            "ticks": 85440,
            "time": 89,
            "velocity": 0.49606299212598426
          },
          {
            "duration": 0.22604166666666003,
            "durationTicks": 217,
            "midi": 59,
            "name": "B3",
            "ticks": 85680,
            "time": 89.25,
            "velocity": 0.5590551181102362
          },
          {
            "duration": 0.22604166666666003,
            "durationTicks": 217,
            "midi": 59,
            "name": "B3",
            "ticks": 85920,
            "time": 89.5,
            "velocity": 0.6535433070866141
          },
          {
            "duration": 0.45104166666666856,
            "durationTicks": 433,
            "midi": 59,
            "name": "B3",
            "ticks": 86160,
            "time": 89.75,
            "velocity": 0.6771653543307087
          },
          {
            "duration": 0.22604166666666003,
            "durationTicks": 217,
            "midi": 60,
            "name": "C4",
            "ticks": 87360,
            "time": 91,
            "velocity": 0.5826771653543307
          },
          {
            "duration": 0.22604166666666003,
            "durationTicks": 217,
            "midi": 60,
            "name": "C4",
            "ticks": 87600,
            "time": 91.25,
            "velocity": 0.6299212598425197
          },
          {
            "duration": 0.22604166666666003,
            "durationTicks": 217,
            "midi": 60,
            "name": "C4",
            "ticks": 87840,
            "time": 91.5,
            "velocity": 0.6614173228346457
          },
          {
            "duration": 0.45104166666666856,
            "durationTicks": 433,
            "midi": 60,
            "name": "C4",
            "ticks": 88080,
            "time": 91.75,
            "velocity": 0.6771653543307087
          },
          {
            "duration": 0.22604166666666003,
            "durationTicks": 217,
            "midi": 60,
            "name": "C4",
            "ticks": 89280,
            "time": 93,
            "velocity": 0.6850393700787402
          },
          {
            "duration": 0.22604166666666003,
            "durationTicks": 217,
            "midi": 60,
            "name": "C4",
            "ticks": 89520,
            "time": 93.25,
            "velocity": 0.7244094488188977
          },
          {
            "duration": 0.22604166666666003,
            "durationTicks": 217,
            "midi": 60,
            "name": "C4",
            "ticks": 89760,
            "time": 93.5,
            "velocity": 0.7559055118110236
          },
          {
            "duration": 0.45104166666666856,
            "durationTicks": 433,
            "midi": 60,
            "name": "C4",
            "ticks": 90000,
            "time": 93.75,
            "velocity": 0.7795275590551181
          },
          {
            "duration": 0.22604166666666003,
            "durationTicks": 217,
            "midi": 60,
            "name": "C4",
            "ticks": 90480,
            "time": 94.25,
            "velocity": 0.7716535433070866
          },
          {
            "duration": 0.22604166666666003,
            "durationTicks": 217,
            "midi": 60,
            "name": "C4",
            "ticks": 90720,
            "time": 94.5,
            "velocity": 0.7874015748031497
          },
          {
            "duration": 1.4510416666666686,
            "durationTicks": 1393,
            "midi": 62,
            "name": "D4",
            "ticks": 90960,
            "time": 94.75,
            "velocity": 0.9133858267716536
          },
          {
            "duration": 0.45104166666666856,
            "durationTicks": 433,
            "midi": 50,
            "name": "D3",
            "ticks": 92400,
            "time": 96.25,
            "velocity": 0.7874015748031497
          },
          {
            "duration": 0.45104166666666856,
            "durationTicks": 433,
            "midi": 51,
            "name": "D#3",
            "ticks": 92880,
            "time": 96.75,
            "velocity": 0.8740157480314961
          },
          {
            "duration": 0.45104166666666856,
            "durationTicks": 433,
            "midi": 53,
            "name": "F3",
            "ticks": 93840,
            "time": 97.75,
            "velocity": 0.7952755905511811
          },
          {
            "duration": 0.45104166666666856,
            "durationTicks": 433,
            "midi": 55,
            "name": "G3",
            "ticks": 94800,
            "time": 98.75,
            "velocity": 0.7795275590551181
          },
          {
            "duration": 0.45104166666666856,
            "durationTicks": 433,
            "midi": 56,
            "name": "G#3",
            "ticks": 95760,
            "time": 99.75,
            "velocity": 0.7952755905511811
          },
          {
            "duration": 0.45104166666666856,
            "durationTicks": 433,
            "midi": 58,
            "name": "A#3",
            "ticks": 96720,
            "time": 100.75,
            "velocity": 0.8031496062992126
          },
          {
            "duration": 0.45104166666666856,
            "durationTicks": 433,
            "midi": 58,
            "name": "A#3",
            "ticks": 97680,
            "time": 101.75,
            "velocity": 0.8110236220472441
          },
          {
            "duration": 0.22604166666666003,
            "durationTicks": 217,
            "midi": 53,
            "name": "F3",
            "ticks": 98640,
            "time": 102.75,
            "velocity": 0.8188976377952756
          },
          {
            "duration": 0.22604166666666003,
            "durationTicks": 217,
            "midi": 53,
            "name": "F3",
            "ticks": 98880,
            "time": 103,
            "velocity": 0.8503937007874016
          },
          {
            "duration": 0.22604166666666003,
            "durationTicks": 217,
            "midi": 58,
            "name": "A#3",
            "ticks": 99120,
            "time": 103.25,
            "velocity": 0.952755905511811
          },
          {
            "duration": 0.22604166666666003,
            "durationTicks": 217,
            "midi": 58,
            "name": "A#3",
            "ticks": 99360,
            "time": 103.5,
            "velocity": 0.8818897637795275
          },
          {
            "duration": 0.22604166666666003,
            "durationTicks": 217,
            "midi": 53,
            "name": "F3",
            "ticks": 99600,
            "time": 103.75,
            "velocity": 0.8267716535433071
          },
          {
            "duration": 0.22604166666666003,
            "durationTicks": 217,
            "midi": 53,
            "name": "F3",
            "ticks": 99840,
            "time": 104,
            "velocity": 0.8661417322834646
          },
          {
            "duration": 0.22604166666666003,
            "durationTicks": 217,
            "midi": 58,
            "name": "A#3",
            "ticks": 100080,
            "time": 104.25,
            "velocity": 0.9448818897637795
          },
          {
            "duration": 0.22604166666666003,
            "durationTicks": 217,
            "midi": 58,
            "name": "A#3",
            "ticks": 100320,
            "time": 104.5,
            "velocity": 0.8818897637795275
          },
          {
            "duration": 0.22604166666666003,
            "durationTicks": 217,
            "midi": 55,
            "name": "G3",
            "ticks": 100560,
            "time": 104.75,
            "velocity": 0.84251968503937
          },
          {
            "duration": 0.22604166666666003,
            "durationTicks": 217,
            "midi": 55,
            "name": "G3",
            "ticks": 100800,
            "time": 105,
            "velocity": 0.8976377952755905
          },
          {
            "duration": 0.22604166666666003,
            "durationTicks": 217,
            "midi": 58,
            "name": "A#3",
            "ticks": 101040,
            "time": 105.25,
            "velocity": 0.905511811023622
          },
          {
            "duration": 0.22604166666666003,
            "durationTicks": 217,
            "midi": 58,
            "name": "A#3",
            "ticks": 101280,
            "time": 105.5,
            "velocity": 0.8976377952755905
          },
          {
            "duration": 0.22604166666666003,
            "durationTicks": 217,
            "midi": 56,
            "name": "G#3",
            "ticks": 101520,
            "time": 105.75,
            "velocity": 0.8976377952755905
          },
          {
            "duration": 0.22604166666666003,
            "durationTicks": 217,
            "midi": 56,
            "name": "G#3",
            "ticks": 101760,
            "time": 106,
            "velocity": 0.8976377952755905
          },
          {
            "duration": 0.22604166666666003,
            "durationTicks": 217,
            "midi": 58,
            "name": "A#3",
            "ticks": 102000,
            "time": 106.25,
            "velocity": 0.9212598425196851
          },
          {
            "duration": 0.22604166666666003,
            "durationTicks": 217,
            "midi": 58,
            "name": "A#3",
            "ticks": 102240,
            "time": 106.5,
            "velocity": 0.9133858267716536
          },
          {
            "duration": 0.2541666666666629,
            "durationTicks": 244,
            "midi": 65,
            "name": "F4",
            "ticks": 102480,
            "time": 106.75,
            "velocity": 1
          },
          {
            "duration": 0.23645833333333144,
            "durationTicks": 227,
            "midi": 63,
            "name": "D#4",
            "ticks": 102720,
            "time": 107,
            "velocity": 0.952755905511811
          },
          {
            "duration": 0.11354166666666288,
            "durationTicks": 109,
            "midi": 58,
            "name": "A#3",
            "ticks": 102960,
            "time": 107.25,
            "velocity": 0.8267716535433071
          },
          {
            "duration": 0.11354166666666288,
            "durationTicks": 109,
            "midi": 55,
            "name": "G3",
            "ticks": 103200,
            "time": 107.5,
            "velocity": 0.84251968503937
          },
          {
            "duration": 0.2541666666666629,
            "durationTicks": 244,
            "midi": 62,
            "name": "D4",
            "ticks": 103440,
            "time": 107.75,
            "velocity": 1
          },
          {
            "duration": 0.23645833333333144,
            "durationTicks": 227,
            "midi": 60,
            "name": "C4",
            "ticks": 103680,
            "time": 108,
            "velocity": 0.952755905511811
          },
          {
            "duration": 0.11354166666666288,
            "durationTicks": 109,
            "midi": 56,
            "name": "G#3",
            "ticks": 103920,
            "time": 108.25,
            "velocity": 0.8267716535433071
          },
          {
            "duration": 0.11354166666666288,
            "durationTicks": 109,
            "midi": 53,
            "name": "F3",
            "ticks": 104160,
            "time": 108.5,
            "velocity": 0.8346456692913385
          },
          {
            "duration": 0.22604166666666003,
            "durationTicks": 217,
            "midi": 60,
            "name": "C4",
            "ticks": 104400,
            "time": 108.75,
            "velocity": 1
          },
          {
            "duration": 0.22604166666666003,
            "durationTicks": 217,
            "midi": 58,
            "name": "A#3",
            "ticks": 104640,
            "time": 109,
            "velocity": 0.84251968503937
          },
          {
            "duration": 0.11354166666666288,
            "durationTicks": 109,
            "midi": 55,
            "name": "G3",
            "ticks": 104880,
            "time": 109.25,
            "velocity": 0.84251968503937
          },
          {
            "duration": 0.11354166666666288,
            "durationTicks": 109,
            "midi": 51,
            "name": "D#3",
            "ticks": 105120,
            "time": 109.5,
            "velocity": 0.84251968503937
          },
          {
            "duration": 0.22604166666666003,
            "durationTicks": 217,
            "midi": 50,
            "name": "D3",
            "ticks": 105360,
            "time": 109.75,
            "velocity": 0.8031496062992126
          },
          {
            "duration": 0.22604166666666003,
            "durationTicks": 217,
            "midi": 53,
            "name": "F3",
            "ticks": 105600,
            "time": 110,
            "velocity": 0.5275590551181102
          },
          {
            "duration": 0.22604166666666003,
            "durationTicks": 217,
            "midi": 62,
            "name": "D4",
            "ticks": 105600,
            "time": 110,
            "velocity": 1
          },
          {
            "duration": 0.22604166666666003,
            "durationTicks": 217,
            "midi": 56,
            "name": "G#3",
            "ticks": 105840,
            "time": 110.25,
            "velocity": 0.5905511811023622
          },
          {
            "duration": 0.22604166666666003,
            "durationTicks": 217,
            "midi": 65,
            "name": "F4",
            "ticks": 105840,
            "time": 110.25,
            "velocity": 0.984251968503937
          },
          {
            "duration": 0.22604166666666003,
            "durationTicks": 217,
            "midi": 53,
            "name": "F3",
            "ticks": 106080,
            "time": 110.5,
            "velocity": 0.5984251968503937
          },
          {
            "duration": 0.22604166666666003,
            "durationTicks": 217,
            "midi": 62,
            "name": "D4",
            "ticks": 106080,
            "time": 110.5,
            "velocity": 0.84251968503937
          },
          {
            "duration": 3.22604166666666,
            "durationTicks": 3097,
            "midi": 55,
            "name": "G3",
            "ticks": 106320,
            "time": 110.75,
            "velocity": 0.8188976377952756
          },
          {
            "duration": 0.22604166666666003,
            "durationTicks": 217,
            "midi": 58,
            "name": "A#3",
            "ticks": 109440,
            "time": 114,
            "velocity": 0.9291338582677166
          },
          {
            "duration": 0.22604166666666003,
            "durationTicks": 217,
            "midi": 58,
            "name": "A#3",
            "ticks": 109680,
            "time": 114.25,
            "velocity": 0.9212598425196851
          },
          {
            "duration": 0.22604166666666003,
            "durationTicks": 217,
            "midi": 58,
            "name": "A#3",
            "ticks": 109920,
            "time": 114.5,
            "velocity": 0.889763779527559
          },
          {
            "duration": 3.22604166666666,
            "durationTicks": 3097,
            "midi": 58,
            "name": "A#3",
            "ticks": 110160,
            "time": 114.75,
            "velocity": 0.9212598425196851
          },
          {
            "duration": 0.22604166666666003,
            "durationTicks": 217,
            "midi": 58,
            "name": "A#3",
            "ticks": 113280,
            "time": 118,
            "velocity": 0.9291338582677166
          },
          {
            "duration": 0.22604166666666003,
            "durationTicks": 217,
            "midi": 58,
            "name": "A#3",
            "ticks": 113520,
            "time": 118.25,
            "velocity": 0.8976377952755905
          },
          {
            "duration": 0.22604166666666003,
            "durationTicks": 217,
            "midi": 58,
            "name": "A#3",
            "ticks": 113760,
            "time": 118.5,
            "velocity": 0.8740157480314961
          },
          {
            "duration": 0.45104166666666856,
            "durationTicks": 433,
            "midi": 58,
            "name": "A#3",
            "ticks": 114000,
            "time": 118.75,
            "velocity": 0.905511811023622
          },
          {
            "duration": 0.22604166666666003,
            "durationTicks": 217,
            "midi": 58,
            "name": "A#3",
            "ticks": 115200,
            "time": 120,
            "velocity": 0.7559055118110236
          },
          {
            "duration": 0.22604166666666003,
            "durationTicks": 217,
            "midi": 58,
            "name": "A#3",
            "ticks": 115440,
            "time": 120.25,
            "velocity": 0.889763779527559
          },
          {
            "duration": 0.22604166666666003,
            "durationTicks": 217,
            "midi": 58,
            "name": "A#3",
            "ticks": 115680,
            "time": 120.5,
            "velocity": 0.905511811023622
          },
          {
            "duration": 0.45104166666666856,
            "durationTicks": 433,
            "midi": 58,
            "name": "A#3",
            "ticks": 115920,
            "time": 120.75,
            "velocity": 0.889763779527559
          },
          {
            "duration": 0.22604166666666003,
            "durationTicks": 217,
            "midi": 58,
            "name": "A#3",
            "ticks": 117120,
            "time": 122,
            "velocity": 0.8267716535433071
          },
          {
            "duration": 0.22604166666666003,
            "durationTicks": 217,
            "midi": 58,
            "name": "A#3",
            "ticks": 117360,
            "time": 122.25,
            "velocity": 0.8740157480314961
          },
          {
            "duration": 0.22604166666666003,
            "durationTicks": 217,
            "midi": 58,
            "name": "A#3",
            "ticks": 117600,
            "time": 122.5,
            "velocity": 0.905511811023622
          },
          {
            "duration": 0.45104166666666856,
            "durationTicks": 433,
            "midi": 63,
            "name": "D#4",
            "ticks": 117840,
            "time": 122.75,
            "velocity": 1
          },
          {
            "duration": 0.22604166666666003,
            "durationTicks": 217,
            "midi": 55,
            "name": "G3",
            "ticks": 120960,
            "time": 126,
            "velocity": 0.8110236220472441
          },
          {
            "duration": 0.22604166666666003,
            "durationTicks": 217,
            "midi": 55,
            "name": "G3",
            "ticks": 121200,
            "time": 126.25,
            "velocity": 0.8976377952755905
          },
          {
            "duration": 0.22604166666666003,
            "durationTicks": 217,
            "midi": 55,
            "name": "G3",
            "ticks": 121440,
            "time": 126.5,
            "velocity": 0.8818897637795275
          },
          {
            "duration": 1.5,
            "durationTicks": 1440,
            "midi": 51,
            "name": "D#3",
            "ticks": 121680,
            "time": 126.75,
            "velocity": 0.84251968503937
          },
          {
            "duration": 0.22604166666667425,
            "durationTicks": 217,
            "midi": 53,
            "name": "F3",
            "ticks": 123360,
            "time": 128.5,
            "velocity": 0.8267716535433071
          },
          {
            "duration": 0.22604166666667425,
            "durationTicks": 217,
            "midi": 53,
            "name": "F3",
            "ticks": 123600,
            "time": 128.75,
            "velocity": 0.8818897637795275
          },
          {
            "duration": 0.22604166666667425,
            "durationTicks": 217,
            "midi": 53,
            "name": "F3",
            "ticks": 123840,
            "time": 129,
            "velocity": 0.889763779527559
          },
          {
            "duration": 2.5,
            "durationTicks": 2400,
            "midi": 50,
            "name": "D3",
            "ticks": 124080,
            "time": 129.25,
            "velocity": 0.8346456692913385
          },
          {
            "duration": 0.22604166666667425,
            "durationTicks": 217,
            "midi": 68,
            "name": "G#4",
            "ticks": 127680,
            "time": 133,
            "velocity": 0.4330708661417323
          },
          {
            "duration": 0.22604166666667425,
            "durationTicks": 217,
            "midi": 68,
            "name": "G#4",
            "ticks": 127920,
            "time": 133.25,
            "velocity": 0.4645669291338583
          },
          {
            "duration": 0.22604166666667425,
            "durationTicks": 217,
            "midi": 68,
            "name": "G#4",
            "ticks": 128160,
            "time": 133.5,
            "velocity": 0.48031496062992124
          },
          {
            "duration": 2.4510416666666686,
            "durationTicks": 2353,
            "midi": 67,
            "name": "G4",
            "ticks": 128400,
            "time": 133.75,
            "velocity": 0.41732283464566927
          },
          {
            "duration": 0.22604166666667425,
            "durationTicks": 217,
            "midi": 68,
            "name": "G#4",
            "ticks": 131520,
            "time": 137,
            "velocity": 0.4330708661417323
          },
          {
            "duration": 0.22604166666667425,
            "durationTicks": 217,
            "midi": 68,
            "name": "G#4",
            "ticks": 131760,
            "time": 137.25,
            "velocity": 0.44881889763779526
          },
          {
            "duration": 0.22604166666667425,
            "durationTicks": 217,
            "midi": 68,
            "name": "G#4",
            "ticks": 132000,
            "time": 137.5,
            "velocity": 0.5275590551181102
          },
          {
            "duration": 0.9000000000000057,
            "durationTicks": 864,
            "midi": 67,
            "name": "G4",
            "ticks": 132240,
            "time": 137.75,
            "velocity": 0.44881889763779526
          },
          {
            "duration": 1.9000000000000057,
            "durationTicks": 1824,
            "midi": 62,
            "name": "D4",
            "ticks": 133200,
            "time": 138.75,
            "velocity": 0.4409448818897638
          },
          {
            "duration": 0.22604166666667425,
            "durationTicks": 217,
            "midi": 63,
            "name": "D#4",
            "ticks": 135120,
            "time": 140.75,
            "velocity": 0.49606299212598426
          },
          {
            "duration": 0.22604166666667425,
            "durationTicks": 217,
            "midi": 63,
            "name": "D#4",
            "ticks": 135360,
            "time": 141,
            "velocity": 0.4881889763779528
          },
          {
            "duration": 0.22604166666667425,
            "durationTicks": 217,
            "midi": 63,
            "name": "D#4",
            "ticks": 135600,
            "time": 141.25,
            "velocity": 0.48031496062992124
          },
          {
            "duration": 0.22604166666667425,
            "durationTicks": 217,
            "midi": 65,
            "name": "F4",
            "ticks": 135840,
            "time": 141.5,
            "velocity": 0.5039370078740157
          },
          {
            "duration": 1.2260416666666742,
            "durationTicks": 1177,
            "midi": 67,
            "name": "G4",
            "ticks": 136080,
            "time": 141.75,
            "velocity": 0.5118110236220472
          },
          {
            "duration": 0.22604166666667425,
            "durationTicks": 217,
            "midi": 63,
            "name": "D#4",
            "ticks": 137280,
            "time": 143,
            "velocity": 0.4645669291338583
          },
          {
            "duration": 0.22604166666667425,
            "durationTicks": 217,
            "midi": 63,
            "name": "D#4",
            "ticks": 137520,
            "time": 143.25,
            "velocity": 0.48031496062992124
          },
          {
            "duration": 0.22604166666667425,
            "durationTicks": 217,
            "midi": 65,
            "name": "F4",
            "ticks": 137760,
            "time": 143.5,
            "velocity": 0.5118110236220472
          },
          {
            "duration": 0.6760416666666629,
            "durationTicks": 649,
            "midi": 67,
            "name": "G4",
            "ticks": 138000,
            "time": 143.75,
            "velocity": 0.5039370078740157
          },
          {
            "duration": 0.22604166666667425,
            "durationTicks": 217,
            "midi": 62,
            "name": "D4",
            "ticks": 138720,
            "time": 144.5,
            "velocity": 0.5433070866141733
          },
          {
            "duration": 0.45104166666666856,
            "durationTicks": 433,
            "midi": 63,
            "name": "D#4",
            "ticks": 138960,
            "time": 144.75,
            "velocity": 0.8031496062992126
          },
          {
            "duration": 0.45104166666666856,
            "durationTicks": 433,
            "midi": 56,
            "name": "G#3",
            "ticks": 139920,
            "time": 145.75,
            "velocity": 0.6771653543307087
          },
          {
            "duration": 0.45104166666666856,
            "durationTicks": 433,
            "midi": 55,
            "name": "G3",
            "ticks": 140880,
            "time": 146.75,
            "velocity": 0.6771653543307087
          },
          {
            "duration": 0.22604166666667425,
            "durationTicks": 217,
            "midi": 56,
            "name": "G#3",
            "ticks": 142320,
            "time": 148.25,
            "velocity": 0.7007874015748031
          },
          {
            "duration": 0.22604166666667425,
            "durationTicks": 217,
            "midi": 56,
            "name": "G#3",
            "ticks": 142560,
            "time": 148.5,
            "velocity": 0.7480314960629921
          },
          {
            "duration": 0.22604166666667425,
            "durationTicks": 217,
            "midi": 56,
            "name": "G#3",
            "ticks": 142800,
            "time": 148.75,
            "velocity": 0.7795275590551181
          },
          {
            "duration": 2.5,
            "durationTicks": 2400,
            "midi": 53,
            "name": "F3",
            "ticks": 143040,
            "time": 149,
            "velocity": 0.7244094488188977
          },
          {
            "duration": 0.22604166666667425,
            "durationTicks": 217,
            "midi": 56,
            "name": "G#3",
            "ticks": 147600,
            "time": 153.75,
            "velocity": 0.4330708661417323
          },
          {
            "duration": 0.22604166666667425,
            "durationTicks": 217,
            "midi": 56,
            "name": "G#3",
            "ticks": 147840,
            "time": 154,
            "velocity": 0.48031496062992124
          },
          {
            "duration": 0.22604166666667425,
            "durationTicks": 217,
            "midi": 56,
            "name": "G#3",
            "ticks": 148080,
            "time": 154.25,
            "velocity": 0.4881889763779528
          },
          {
            "duration": 1.4510416666666686,
            "durationTicks": 1393,
            "midi": 55,
            "name": "G3",
            "ticks": 148320,
            "time": 154.5,
            "velocity": 0.44881889763779526
          },
          {
            "duration": 0.22604166666667425,
            "durationTicks": 217,
            "midi": 56,
            "name": "G#3",
            "ticks": 151440,
            "time": 157.75,
            "velocity": 0.4330708661417323
          },
          {
            "duration": 0.22604166666667425,
            "durationTicks": 217,
            "midi": 56,
            "name": "G#3",
            "ticks": 151680,
            "time": 158,
            "velocity": 0.4881889763779528
          },
          {
            "duration": 0.22604166666667425,
            "durationTicks": 217,
            "midi": 56,
            "name": "G#3",
            "ticks": 151920,
            "time": 158.25,
            "velocity": 0.4566929133858268
          },
          {
            "duration": 1.2260416666666742,
            "durationTicks": 1177,
            "midi": 55,
            "name": "G3",
            "ticks": 152160,
            "time": 158.5,
            "velocity": 0.4645669291338583
          },
          {
            "duration": 0.22604166666667425,
            "durationTicks": 217,
            "midi": 63,
            "name": "D#4",
            "ticks": 153360,
            "time": 159.75,
            "velocity": 0.5511811023622047
          },
          {
            "duration": 0.22604166666667425,
            "durationTicks": 217,
            "midi": 63,
            "name": "D#4",
            "ticks": 153600,
            "time": 160,
            "velocity": 0.48031496062992124
          },
          {
            "duration": 0.22604166666667425,
            "durationTicks": 217,
            "midi": 60,
            "name": "C4",
            "ticks": 153840,
            "time": 160.25,
            "velocity": 0.4330708661417323
          },
          {
            "duration": 1.2260416666666742,
            "durationTicks": 1177,
            "midi": 62,
            "name": "D4",
            "ticks": 154080,
            "time": 160.5,
            "velocity": 0.5039370078740157
          },
          {
            "duration": 0.22604166666667425,
            "durationTicks": 217,
            "midi": 65,
            "name": "F4",
            "ticks": 155280,
            "time": 161.75,
            "velocity": 0.5590551181102362
          },
          {
            "duration": 0.22604166666667425,
            "durationTicks": 217,
            "midi": 65,
            "name": "F4",
            "ticks": 155520,
            "time": 162,
            "velocity": 0.5039370078740157
          },
          {
            "duration": 0.22604166666667425,
            "durationTicks": 217,
            "midi": 62,
            "name": "D4",
            "ticks": 155760,
            "time": 162.25,
            "velocity": 0.49606299212598426
          },
          {
            "duration": 1.2260416666666742,
            "durationTicks": 1177,
            "midi": 63,
            "name": "D#4",
            "ticks": 156000,
            "time": 162.5,
            "velocity": 0.5669291338582677
          },
          {
            "duration": 0.22604166666667425,
            "durationTicks": 217,
            "midi": 63,
            "name": "D#4",
            "ticks": 157200,
            "time": 163.75,
            "velocity": 0.5275590551181102
          },
          {
            "duration": 0.22604166666667425,
            "durationTicks": 217,
            "midi": 63,
            "name": "D#4",
            "ticks": 157440,
            "time": 164,
            "velocity": 0.5748031496062992
          },
          {
            "duration": 0.22604166666667425,
            "durationTicks": 217,
            "midi": 60,
            "name": "C4",
            "ticks": 157680,
            "time": 164.25,
            "velocity": 0.5196850393700787
          },
          {
            "duration": 0.22604166666667425,
            "durationTicks": 217,
            "midi": 65,
            "name": "F4",
            "ticks": 157920,
            "time": 164.5,
            "velocity": 0.7322834645669292
          },
          {
            "duration": 0.22604166666667425,
            "durationTicks": 217,
            "midi": 65,
            "name": "F4",
            "ticks": 158160,
            "time": 164.75,
            "velocity": 0.5984251968503937
          },
          {
            "duration": 0.22604166666667425,
            "durationTicks": 217,
            "midi": 65,
            "name": "F4",
            "ticks": 158400,
            "time": 165,
            "velocity": 0.5590551181102362
          },
          {
            "duration": 0.22604166666667425,
            "durationTicks": 217,
            "midi": 59,
            "name": "B3",
            "ticks": 158640,
            "time": 165.25,
            "velocity": 0.5511811023622047
          },
          {
            "duration": 0.22604166666667425,
            "durationTicks": 217,
            "midi": 67,
            "name": "G4",
            "ticks": 158880,
            "time": 165.5,
            "velocity": 0.7952755905511811
          },
          {
            "duration": 0.22604166666667425,
            "durationTicks": 217,
            "midi": 67,
            "name": "G4",
            "ticks": 159120,
            "time": 165.75,
            "velocity": 0.6377952755905512
          },
          {
            "duration": 0.22604166666667425,
            "durationTicks": 217,
            "midi": 67,
            "name": "G4",
            "ticks": 159360,
            "time": 166,
            "velocity": 0.6220472440944882
          },
          {
            "duration": 0.22604166666667425,
            "durationTicks": 217,
            "midi": 58,
            "name": "A#3",
            "ticks": 159600,
            "time": 166.25,
            "velocity": 0.5275590551181102
          },
          {
            "duration": 0.22604166666667425,
            "durationTicks": 217,
            "midi": 68,
            "name": "G#4",
            "ticks": 159840,
            "time": 166.5,
            "velocity": 0.889763779527559
          },
          {
            "duration": 0.22604166666667425,
            "durationTicks": 217,
            "midi": 56,
            "name": "G#3",
            "ticks": 160080,
            "time": 166.75,
            "velocity": 0.5826771653543307
          },
          {
            "duration": 0.22604166666667425,
            "durationTicks": 217,
            "midi": 56,
            "name": "G#3",
            "ticks": 160320,
            "time": 167,
            "velocity": 0.5984251968503937
          },
          {
            "duration": 0.22604166666667425,
            "durationTicks": 217,
            "midi": 53,
            "name": "F3",
            "ticks": 160560,
            "time": 167.25,
            "velocity": 0.6220472440944882
          },
          {
            "duration": 0.22604166666667425,
            "durationTicks": 217,
            "midi": 58,
            "name": "A#3",
            "ticks": 160800,
            "time": 167.5,
            "velocity": 0.8110236220472441
          },
          {
            "duration": 0.22604166666667425,
            "durationTicks": 217,
            "midi": 58,
            "name": "A#3",
            "ticks": 161040,
            "time": 167.75,
            "velocity": 0.6850393700787402
          },
          {
            "duration": 0.22604166666667425,
            "durationTicks": 217,
            "midi": 58,
            "name": "A#3",
            "ticks": 161280,
            "time": 168,
            "velocity": 0.6929133858267716
          },
          {
            "duration": 0.22604166666667425,
            "durationTicks": 217,
            "midi": 55,
            "name": "G3",
            "ticks": 161520,
            "time": 168.25,
            "velocity": 0.6771653543307087
          },
          {
            "duration": 0.22604166666667425,
            "durationTicks": 217,
            "midi": 60,
            "name": "C4",
            "ticks": 161760,
            "time": 168.5,
            "velocity": 0.8661417322834646
          },
          {
            "duration": 0.22604166666667425,
            "durationTicks": 217,
            "midi": 60,
            "name": "C4",
            "ticks": 162000,
            "time": 168.75,
            "velocity": 0.6850393700787402
          },
          {
            "duration": 0.22604166666667425,
            "durationTicks": 217,
            "midi": 60,
            "name": "C4",
            "ticks": 162240,
            "time": 169,
            "velocity": 0.7322834645669292
          },
          {
            "duration": 0.22604166666667425,
            "durationTicks": 217,
            "midi": 56,
            "name": "G#3",
            "ticks": 162480,
            "time": 169.25,
            "velocity": 0.6771653543307087
          },
          {
            "duration": 0.22604166666667425,
            "durationTicks": 217,
            "midi": 65,
            "name": "F4",
            "ticks": 162720,
            "time": 169.5,
            "velocity": 0.984251968503937
          },
          {
            "duration": 0.22604166666667425,
            "durationTicks": 217,
            "midi": 65,
            "name": "F4",
            "ticks": 162960,
            "time": 169.75,
            "velocity": 0.7716535433070866
          },
          {
            "duration": 0.22604166666667425,
            "durationTicks": 217,
            "midi": 65,
            "name": "F4",
            "ticks": 163200,
            "time": 170,
            "velocity": 0.7637795275590551
          },
          {
            "duration": 0.22604166666667425,
            "durationTicks": 217,
            "midi": 62,
            "name": "D4",
            "ticks": 163440,
            "time": 170.25,
            "velocity": 0.7007874015748031
          },
          {
            "duration": 0.22604166666667425,
            "durationTicks": 217,
            "midi": 63,
            "name": "D#4",
            "ticks": 163680,
            "time": 170.5,
            "velocity": 0.7795275590551181
          },
          {
            "duration": 0.22604166666667425,
            "durationTicks": 217,
            "midi": 48,
            "name": "C3",
            "ticks": 163920,
            "time": 170.75,
            "velocity": 0.6850393700787402
          },
          {
            "duration": 0.22604166666667425,
            "durationTicks": 217,
            "midi": 51,
            "name": "D#3",
            "ticks": 163920,
            "time": 170.75,
            "velocity": 0.6850393700787402
          },
          {
            "duration": 0.22604166666667425,
            "durationTicks": 217,
            "midi": 48,
            "name": "C3",
            "ticks": 164160,
            "time": 171,
            "velocity": 0.7322834645669292
          },
          {
            "duration": 0.22604166666667425,
            "durationTicks": 217,
            "midi": 51,
            "name": "D#3",
            "ticks": 164160,
            "time": 171,
            "velocity": 0.7322834645669292
          },
          {
            "duration": 0.22604166666667425,
            "durationTicks": 217,
            "midi": 48,
            "name": "C3",
            "ticks": 164400,
            "time": 171.25,
            "velocity": 0.7637795275590551
          },
          {
            "duration": 0.22604166666667425,
            "durationTicks": 217,
            "midi": 51,
            "name": "D#3",
            "ticks": 164400,
            "time": 171.25,
            "velocity": 0.7637795275590551
          },
          {
            "duration": 0.22604166666667425,
            "durationTicks": 217,
            "midi": 48,
            "name": "C3",
            "ticks": 164640,
            "time": 171.5,
            "velocity": 0.7716535433070866
          },
          {
            "duration": 0.22604166666667425,
            "durationTicks": 217,
            "midi": 51,
            "name": "D#3",
            "ticks": 164640,
            "time": 171.5,
            "velocity": 0.7716535433070866
          },
          {
            "duration": 0.22604166666667425,
            "durationTicks": 217,
            "midi": 48,
            "name": "C3",
            "ticks": 164880,
            "time": 171.75,
            "velocity": 0.7716535433070866
          },
          {
            "duration": 0.22604166666667425,
            "durationTicks": 217,
            "midi": 51,
            "name": "D#3",
            "ticks": 164880,
            "time": 171.75,
            "velocity": 0.7716535433070866
          },
          {
            "duration": 0.22604166666667425,
            "durationTicks": 217,
            "midi": 48,
            "name": "C3",
            "ticks": 165120,
            "time": 172,
            "velocity": 0.7637795275590551
          },
          {
            "duration": 0.22604166666667425,
            "durationTicks": 217,
            "midi": 51,
            "name": "D#3",
            "ticks": 165120,
            "time": 172,
            "velocity": 0.7637795275590551
          },
          {
            "duration": 0.22604166666667425,
            "durationTicks": 217,
            "midi": 48,
            "name": "C3",
            "ticks": 165360,
            "time": 172.25,
            "velocity": 0.7559055118110236
          },
          {
            "duration": 0.22604166666667425,
            "durationTicks": 217,
            "midi": 51,
            "name": "D#3",
            "ticks": 165360,
            "time": 172.25,
            "velocity": 0.7559055118110236
          },
          {
            "duration": 0.22604166666667425,
            "durationTicks": 217,
            "midi": 48,
            "name": "C3",
            "ticks": 165600,
            "time": 172.5,
            "velocity": 0.7401574803149606
          },
          {
            "duration": 0.22604166666667425,
            "durationTicks": 217,
            "midi": 51,
            "name": "D#3",
            "ticks": 165600,
            "time": 172.5,
            "velocity": 0.7401574803149606
          },
          {
            "duration": 0.22604166666667425,
            "durationTicks": 217,
            "midi": 48,
            "name": "C3",
            "ticks": 165840,
            "time": 172.75,
            "velocity": 0.7401574803149606
          },
          {
            "duration": 0.22604166666667425,
            "durationTicks": 217,
            "midi": 51,
            "name": "D#3",
            "ticks": 165840,
            "time": 172.75,
            "velocity": 0.7401574803149606
          },
          {
            "duration": 0.22604166666667425,
            "durationTicks": 217,
            "midi": 48,
            "name": "C3",
            "ticks": 166080,
            "time": 173,
            "velocity": 0.7952755905511811
          },
          {
            "duration": 0.22604166666667425,
            "durationTicks": 217,
            "midi": 51,
            "name": "D#3",
            "ticks": 166080,
            "time": 173,
            "velocity": 0.7952755905511811
          },
          {
            "duration": 0.22604166666667425,
            "durationTicks": 217,
            "midi": 48,
            "name": "C3",
            "ticks": 166320,
            "time": 173.25,
            "velocity": 0.7559055118110236
          },
          {
            "duration": 0.22604166666667425,
            "durationTicks": 217,
            "midi": 51,
            "name": "D#3",
            "ticks": 166320,
            "time": 173.25,
            "velocity": 0.7559055118110236
          },
          {
            "duration": 0.22604166666667425,
            "durationTicks": 217,
            "midi": 48,
            "name": "C3",
            "ticks": 166560,
            "time": 173.5,
            "velocity": 0.7637795275590551
          },
          {
            "duration": 0.22604166666667425,
            "durationTicks": 217,
            "midi": 51,
            "name": "D#3",
            "ticks": 166560,
            "time": 173.5,
            "velocity": 0.7637795275590551
          },
          {
            "duration": 0.22604166666667425,
            "durationTicks": 217,
            "midi": 48,
            "name": "C3",
            "ticks": 166800,
            "time": 173.75,
            "velocity": 0.7559055118110236
          },
          {
            "duration": 0.22604166666667425,
            "durationTicks": 217,
            "midi": 51,
            "name": "D#3",
            "ticks": 166800,
            "time": 173.75,
            "velocity": 0.7559055118110236
          },
          {
            "duration": 0.22604166666667425,
            "durationTicks": 217,
            "midi": 48,
            "name": "C3",
            "ticks": 167040,
            "time": 174,
            "velocity": 0.7716535433070866
          },
          {
            "duration": 0.22604166666667425,
            "durationTicks": 217,
            "midi": 51,
            "name": "D#3",
            "ticks": 167040,
            "time": 174,
            "velocity": 0.7716535433070866
          },
          {
            "duration": 0.22604166666667425,
            "durationTicks": 217,
            "midi": 48,
            "name": "C3",
            "ticks": 167280,
            "time": 174.25,
            "velocity": 0.7559055118110236
          },
          {
            "duration": 0.22604166666667425,
            "durationTicks": 217,
            "midi": 51,
            "name": "D#3",
            "ticks": 167280,
            "time": 174.25,
            "velocity": 0.7559055118110236
          },
          {
            "duration": 0.22604166666667425,
            "durationTicks": 217,
            "midi": 50,
            "name": "D3",
            "ticks": 167520,
            "time": 174.5,
            "velocity": 0.8110236220472441
          },
          {
            "duration": 0.22604166666667425,
            "durationTicks": 217,
            "midi": 53,
            "name": "F3",
            "ticks": 167520,
            "time": 174.5,
            "velocity": 0.8110236220472441
          },
          {
            "duration": 0.22604166666667425,
            "durationTicks": 217,
            "midi": 50,
            "name": "D3",
            "ticks": 167760,
            "time": 174.75,
            "velocity": 0.7874015748031497
          },
          {
            "duration": 0.22604166666667425,
            "durationTicks": 217,
            "midi": 53,
            "name": "F3",
            "ticks": 167760,
            "time": 174.75,
            "velocity": 0.7874015748031497
          },
          {
            "duration": 0.22604166666667425,
            "durationTicks": 217,
            "midi": 50,
            "name": "D3",
            "ticks": 168000,
            "time": 175,
            "velocity": 0.7795275590551181
          },
          {
            "duration": 0.22604166666667425,
            "durationTicks": 217,
            "midi": 53,
            "name": "F3",
            "ticks": 168000,
            "time": 175,
            "velocity": 0.7795275590551181
          },
          {
            "duration": 0.22604166666667425,
            "durationTicks": 217,
            "midi": 50,
            "name": "D3",
            "ticks": 168240,
            "time": 175.25,
            "velocity": 0.7637795275590551
          },
          {
            "duration": 0.22604166666667425,
            "durationTicks": 217,
            "midi": 53,
            "name": "F3",
            "ticks": 168240,
            "time": 175.25,
            "velocity": 0.7637795275590551
          },
          {
            "duration": 0.22604166666667425,
            "durationTicks": 217,
            "midi": 50,
            "name": "D3",
            "ticks": 168480,
            "time": 175.5,
            "velocity": 0.7795275590551181
          },
          {
            "duration": 0.22604166666667425,
            "durationTicks": 217,
            "midi": 53,
            "name": "F3",
            "ticks": 168480,
            "time": 175.5,
            "velocity": 0.7795275590551181
          },
          {
            "duration": 0.22604166666667425,
            "durationTicks": 217,
            "midi": 50,
            "name": "D3",
            "ticks": 168720,
            "time": 175.75,
            "velocity": 0.7637795275590551
          },
          {
            "duration": 0.22604166666667425,
            "durationTicks": 217,
            "midi": 53,
            "name": "F3",
            "ticks": 168720,
            "time": 175.75,
            "velocity": 0.7637795275590551
          },
          {
            "duration": 0.22604166666667425,
            "durationTicks": 217,
            "midi": 50,
            "name": "D3",
            "ticks": 168960,
            "time": 176,
            "velocity": 0.7559055118110236
          },
          {
            "duration": 0.22604166666667425,
            "durationTicks": 217,
            "midi": 53,
            "name": "F3",
            "ticks": 168960,
            "time": 176,
            "velocity": 0.7559055118110236
          },
          {
            "duration": 0.22604166666667425,
            "durationTicks": 217,
            "midi": 50,
            "name": "D3",
            "ticks": 169200,
            "time": 176.25,
            "velocity": 0.7559055118110236
          },
          {
            "duration": 0.22604166666667425,
            "durationTicks": 217,
            "midi": 53,
            "name": "F3",
            "ticks": 169200,
            "time": 176.25,
            "velocity": 0.7559055118110236
          },
          {
            "duration": 0.22604166666667425,
            "durationTicks": 217,
            "midi": 50,
            "name": "D3",
            "ticks": 169440,
            "time": 176.5,
            "velocity": 0.7716535433070866
          },
          {
            "duration": 0.22604166666667425,
            "durationTicks": 217,
            "midi": 53,
            "name": "F3",
            "ticks": 169440,
            "time": 176.5,
            "velocity": 0.7716535433070866
          },
          {
            "duration": 0.22604166666667425,
            "durationTicks": 217,
            "midi": 50,
            "name": "D3",
            "ticks": 169680,
            "time": 176.75,
            "velocity": 0.7716535433070866
          },
          {
            "duration": 0.22604166666667425,
            "durationTicks": 217,
            "midi": 53,
            "name": "F3",
            "ticks": 169680,
            "time": 176.75,
            "velocity": 0.7716535433070866
          },
          {
            "duration": 0.22604166666667425,
            "durationTicks": 217,
            "midi": 50,
            "name": "D3",
            "ticks": 169920,
            "time": 177,
            "velocity": 0.7716535433070866
          },
          {
            "duration": 0.22604166666667425,
            "durationTicks": 217,
            "midi": 53,
            "name": "F3",
            "ticks": 169920,
            "time": 177,
            "velocity": 0.7716535433070866
          },
          {
            "duration": 0.22604166666667425,
            "durationTicks": 217,
            "midi": 50,
            "name": "D3",
            "ticks": 170160,
            "time": 177.25,
            "velocity": 0.8346456692913385
          },
          {
            "duration": 0.22604166666667425,
            "durationTicks": 217,
            "midi": 53,
            "name": "F3",
            "ticks": 170160,
            "time": 177.25,
            "velocity": 0.8346456692913385
          },
          {
            "duration": 0.22604166666667425,
            "durationTicks": 217,
            "midi": 50,
            "name": "D3",
            "ticks": 170400,
            "time": 177.5,
            "velocity": 0.8110236220472441
          },
          {
            "duration": 0.22604166666667425,
            "durationTicks": 217,
            "midi": 53,
            "name": "F3",
            "ticks": 170400,
            "time": 177.5,
            "velocity": 0.8110236220472441
          },
          {
            "duration": 0.22604166666667425,
            "durationTicks": 217,
            "midi": 50,
            "name": "D3",
            "ticks": 170640,
            "time": 177.75,
            "velocity": 0.7716535433070866
          },
          {
            "duration": 0.22604166666667425,
            "durationTicks": 217,
            "midi": 53,
            "name": "F3",
            "ticks": 170640,
            "time": 177.75,
            "velocity": 0.7716535433070866
          },
          {
            "duration": 0.22604166666667425,
            "durationTicks": 217,
            "midi": 48,
            "name": "C3",
            "ticks": 170880,
            "time": 178,
            "velocity": 0.7244094488188977
          },
          {
            "duration": 0.22604166666667425,
            "durationTicks": 217,
            "midi": 51,
            "name": "D#3",
            "ticks": 170880,
            "time": 178,
            "velocity": 0.7244094488188977
          },
          {
            "duration": 0.22604166666667425,
            "durationTicks": 217,
            "midi": 48,
            "name": "C3",
            "ticks": 171120,
            "time": 178.25,
            "velocity": 0.7559055118110236
          },
          {
            "duration": 0.22604166666667425,
            "durationTicks": 217,
            "midi": 51,
            "name": "D#3",
            "ticks": 171120,
            "time": 178.25,
            "velocity": 0.7559055118110236
          },
          {
            "duration": 0.22604166666667425,
            "durationTicks": 217,
            "midi": 48,
            "name": "C3",
            "ticks": 171360,
            "time": 178.5,
            "velocity": 0.8976377952755905
          },
          {
            "duration": 0.22604166666667425,
            "durationTicks": 217,
            "midi": 51,
            "name": "D#3",
            "ticks": 171360,
            "time": 178.5,
            "velocity": 0.8976377952755905
          },
          {
            "duration": 0.22604166666667425,
            "durationTicks": 217,
            "midi": 51,
            "name": "D#3",
            "ticks": 171600,
            "time": 178.75,
            "velocity": 0.937007874015748
          },
          {
            "duration": 0.22604166666667425,
            "durationTicks": 217,
            "midi": 54,
            "name": "F#3",
            "ticks": 171600,
            "time": 178.75,
            "velocity": 0.937007874015748
          },
          {
            "duration": 0.22604166666667425,
            "durationTicks": 217,
            "midi": 51,
            "name": "D#3",
            "ticks": 171840,
            "time": 179,
            "velocity": 0.8818897637795275
          },
          {
            "duration": 0.22604166666667425,
            "durationTicks": 217,
            "midi": 54,
            "name": "F#3",
            "ticks": 171840,
            "time": 179,
            "velocity": 0.8818897637795275
          },
          {
            "duration": 0.22604166666667425,
            "durationTicks": 217,
            "midi": 51,
            "name": "D#3",
            "ticks": 172080,
            "time": 179.25,
            "velocity": 0.905511811023622
          },
          {
            "duration": 0.22604166666667425,
            "durationTicks": 217,
            "midi": 54,
            "name": "F#3",
            "ticks": 172080,
            "time": 179.25,
            "velocity": 0.905511811023622
          },
          {
            "duration": 0.22604166666667425,
            "durationTicks": 217,
            "midi": 51,
            "name": "D#3",
            "ticks": 172320,
            "time": 179.5,
            "velocity": 0.9133858267716536
          },
          {
            "duration": 0.22604166666667425,
            "durationTicks": 217,
            "midi": 54,
            "name": "F#3",
            "ticks": 172320,
            "time": 179.5,
            "velocity": 0.9133858267716536
          },
          {
            "duration": 0.22604166666667425,
            "durationTicks": 217,
            "midi": 51,
            "name": "D#3",
            "ticks": 172560,
            "time": 179.75,
            "velocity": 0.8976377952755905
          },
          {
            "duration": 0.22604166666667425,
            "durationTicks": 217,
            "midi": 54,
            "name": "F#3",
            "ticks": 172560,
            "time": 179.75,
            "velocity": 0.8976377952755905
          },
          {
            "duration": 0.22604166666667425,
            "durationTicks": 217,
            "midi": 51,
            "name": "D#3",
            "ticks": 172800,
            "time": 180,
            "velocity": 0.8976377952755905
          },
          {
            "duration": 0.22604166666667425,
            "durationTicks": 217,
            "midi": 54,
            "name": "F#3",
            "ticks": 172800,
            "time": 180,
            "velocity": 0.8976377952755905
          },
          {
            "duration": 0.22604166666667425,
            "durationTicks": 217,
            "midi": 51,
            "name": "D#3",
            "ticks": 173040,
            "time": 180.25,
            "velocity": 0.889763779527559
          },
          {
            "duration": 0.22604166666667425,
            "durationTicks": 217,
            "midi": 54,
            "name": "F#3",
            "ticks": 173040,
            "time": 180.25,
            "velocity": 0.889763779527559
          },
          {
            "duration": 0.22604166666667425,
            "durationTicks": 217,
            "midi": 51,
            "name": "D#3",
            "ticks": 173280,
            "time": 180.5,
            "velocity": 0.8818897637795275
          },
          {
            "duration": 0.22604166666667425,
            "durationTicks": 217,
            "midi": 54,
            "name": "F#3",
            "ticks": 173280,
            "time": 180.5,
            "velocity": 0.8818897637795275
          },
          {
            "duration": 0.22604166666667425,
            "durationTicks": 217,
            "midi": 51,
            "name": "D#3",
            "ticks": 173520,
            "time": 180.75,
            "velocity": 0.8818897637795275
          },
          {
            "duration": 0.22604166666667425,
            "durationTicks": 217,
            "midi": 54,
            "name": "F#3",
            "ticks": 173520,
            "time": 180.75,
            "velocity": 0.8818897637795275
          },
          {
            "duration": 0.22604166666667425,
            "durationTicks": 217,
            "midi": 51,
            "name": "D#3",
            "ticks": 173760,
            "time": 181,
            "velocity": 0.889763779527559
          },
          {
            "duration": 0.22604166666667425,
            "durationTicks": 217,
            "midi": 54,
            "name": "F#3",
            "ticks": 173760,
            "time": 181,
            "velocity": 0.889763779527559
          },
          {
            "duration": 0.22604166666667425,
            "durationTicks": 217,
            "midi": 51,
            "name": "D#3",
            "ticks": 174000,
            "time": 181.25,
            "velocity": 0.905511811023622
          },
          {
            "duration": 0.22604166666667425,
            "durationTicks": 217,
            "midi": 54,
            "name": "F#3",
            "ticks": 174000,
            "time": 181.25,
            "velocity": 0.905511811023622
          },
          {
            "duration": 0.22604166666667425,
            "durationTicks": 217,
            "midi": 51,
            "name": "D#3",
            "ticks": 174240,
            "time": 181.5,
            "velocity": 0.8976377952755905
          },
          {
            "duration": 0.22604166666667425,
            "durationTicks": 217,
            "midi": 54,
            "name": "F#3",
            "ticks": 174240,
            "time": 181.5,
            "velocity": 0.8976377952755905
          },
          {
            "duration": 0.22604166666667425,
            "durationTicks": 217,
            "midi": 51,
            "name": "D#3",
            "ticks": 174480,
            "time": 181.75,
            "velocity": 0.889763779527559
          },
          {
            "duration": 0.22604166666667425,
            "durationTicks": 217,
            "midi": 54,
            "name": "F#3",
            "ticks": 174480,
            "time": 181.75,
            "velocity": 0.889763779527559
          },
          {
            "duration": 0.22604166666667425,
            "durationTicks": 217,
            "midi": 51,
            "name": "D#3",
            "ticks": 174720,
            "time": 182,
            "velocity": 0.8976377952755905
          },
          {
            "duration": 0.22604166666667425,
            "durationTicks": 217,
            "midi": 54,
            "name": "F#3",
            "ticks": 174720,
            "time": 182,
            "velocity": 0.8976377952755905
          },
          {
            "duration": 0.22604166666667425,
            "durationTicks": 217,
            "midi": 51,
            "name": "D#3",
            "ticks": 174960,
            "time": 182.25,
            "velocity": 0.8740157480314961
          },
          {
            "duration": 0.22604166666667425,
            "durationTicks": 217,
            "midi": 54,
            "name": "F#3",
            "ticks": 174960,
            "time": 182.25,
            "velocity": 0.8740157480314961
          },
          {
            "duration": 0.45104166666666856,
            "durationTicks": 433,
            "midi": 51,
            "name": "D#3",
            "ticks": 175200,
            "time": 182.5,
            "velocity": 0.8661417322834646
          },
          {
            "duration": 0.45104166666666856,
            "durationTicks": 433,
            "midi": 54,
            "name": "F#3",
            "ticks": 175200,
            "time": 182.5,
            "velocity": 0.8661417322834646
          },
          {
            "duration": 0.45104166666666856,
            "durationTicks": 433,
            "midi": 53,
            "name": "F3",
            "ticks": 177120,
            "time": 184.5,
            "velocity": 0.8188976377952756
          },
          {
            "duration": 1.0197916666666629,
            "durationTicks": 979,
            "midi": 63,
            "name": "D#4",
            "ticks": 181920,
            "time": 189.5,
            "velocity": 0.4566929133858268
          },
          {
            "duration": 0.9489583333333371,
            "durationTicks": 911,
            "midi": 65,
            "name": "F4",
            "ticks": 182880,
            "time": 190.5,
            "velocity": 0.4881889763779528
          },
          {
            "duration": 1.0197916666666629,
            "durationTicks": 979,
            "midi": 62,
            "name": "D4",
            "ticks": 183840,
            "time": 191.5,
            "velocity": 0.4330708661417323
          },
          {
            "duration": 0.9489583333333371,
            "durationTicks": 911,
            "midi": 63,
            "name": "D#4",
            "ticks": 184800,
            "time": 192.5,
            "velocity": 0.44881889763779526
          },
          {
            "duration": 1.0197916666666629,
            "durationTicks": 979,
            "midi": 63,
            "name": "D#4",
            "ticks": 185760,
            "time": 193.5,
            "velocity": 0.47244094488188976
          },
          {
            "duration": 0.9489583333333371,
            "durationTicks": 911,
            "midi": 65,
            "name": "F4",
            "ticks": 186720,
            "time": 194.5,
            "velocity": 0.49606299212598426
          },
          {
            "duration": 1.0197916666666629,
            "durationTicks": 979,
            "midi": 62,
            "name": "D4",
            "ticks": 187680,
            "time": 195.5,
            "velocity": 0.4330708661417323
          },
          {
            "duration": 0.9489583333333371,
            "durationTicks": 911,
            "midi": 63,
            "name": "D#4",
            "ticks": 188640,
            "time": 196.5,
            "velocity": 0.4251968503937008
          },
          {
            "duration": 1.0197916666666629,
            "durationTicks": 979,
            "midi": 63,
            "name": "D#4",
            "ticks": 189600,
            "time": 197.5,
            "velocity": 0.5275590551181102
          },
          {
            "duration": 0.9489583333333371,
            "durationTicks": 911,
            "midi": 65,
            "name": "F4",
            "ticks": 190560,
            "time": 198.5,
            "velocity": 0.6141732283464567
          },
          {
            "duration": 1.0197916666666629,
            "durationTicks": 979,
            "midi": 62,
            "name": "D4",
            "ticks": 191520,
            "time": 199.5,
            "velocity": 0.4409448818897638
          },
          {
            "duration": 0.9489583333333371,
            "durationTicks": 911,
            "midi": 63,
            "name": "D#4",
            "ticks": 192480,
            "time": 200.5,
            "velocity": 0.44881889763779526
          },
          {
            "duration": 1.0197916666666629,
            "durationTicks": 979,
            "midi": 63,
            "name": "D#4",
            "ticks": 193440,
            "time": 201.5,
            "velocity": 0.4645669291338583
          },
          {
            "duration": 0.9489583333333371,
            "durationTicks": 911,
            "midi": 64,
            "name": "E4",
            "ticks": 194400,
            "time": 202.5,
            "velocity": 0.4881889763779528
          },
          {
            "duration": 1.0197916666666629,
            "durationTicks": 979,
            "midi": 64,
            "name": "E4",
            "ticks": 195360,
            "time": 203.5,
            "velocity": 0.4566929133858268
          },
          {
            "duration": 0.9489583333333371,
            "durationTicks": 911,
            "midi": 60,
            "name": "C4",
            "ticks": 196320,
            "time": 204.5,
            "velocity": 0.4094488188976378
          },
          {
            "duration": 1.0197916666666629,
            "durationTicks": 979,
            "midi": 65,
            "name": "F4",
            "ticks": 197280,
            "time": 205.5,
            "velocity": 0.5433070866141733
          },
          {
            "duration": 0.9489583333333371,
            "durationTicks": 911,
            "midi": 67,
            "name": "G4",
            "ticks": 198240,
            "time": 206.5,
            "velocity": 0.5984251968503937
          },
          {
            "duration": 1.0197916666666629,
            "durationTicks": 979,
            "midi": 67,
            "name": "G4",
            "ticks": 199200,
            "time": 207.5,
            "velocity": 0.5039370078740157
          },
          {
            "duration": 0.9489583333333371,
            "durationTicks": 911,
            "midi": 63,
            "name": "D#4",
            "ticks": 200160,
            "time": 208.5,
            "velocity": 0.4645669291338583
          },
          {
            "duration": 0.22604166666667425,
            "durationTicks": 217,
            "midi": 57,
            "name": "A3",
            "ticks": 202320,
            "time": 210.75,
            "velocity": 0.4566929133858268
          },
          {
            "duration": 0.22604166666667425,
            "durationTicks": 217,
            "midi": 57,
            "name": "A3",
            "ticks": 202560,
            "time": 211,
            "velocity": 0.49606299212598426
          },
          {
            "duration": 0.22604166666667425,
            "durationTicks": 217,
            "midi": 57,
            "name": "A3",
            "ticks": 202800,
            "time": 211.25,
            "velocity": 0.4645669291338583
          },
          {
            "duration": 0.45104166666666856,
            "durationTicks": 433,
            "midi": 57,
            "name": "A3",
            "ticks": 203040,
            "time": 211.5,
            "velocity": 0.47244094488188976
          },
          {
            "duration": 0.22604166666667425,
            "durationTicks": 217,
            "midi": 58,
            "name": "A#3",
            "ticks": 204240,
            "time": 212.75,
            "velocity": 0.4330708661417323
          },
          {
            "duration": 0.22604166666667425,
            "durationTicks": 217,
            "midi": 58,
            "name": "A#3",
            "ticks": 204480,
            "time": 213,
            "velocity": 0.5433070866141733
          },
          {
            "duration": 0.22604166666667425,
            "durationTicks": 217,
            "midi": 58,
            "name": "A#3",
            "ticks": 204720,
            "time": 213.25,
            "velocity": 0.5590551181102362
          },
          {
            "duration": 0.45104166666666856,
            "durationTicks": 433,
            "midi": 58,
            "name": "A#3",
            "ticks": 204960,
            "time": 213.5,
            "velocity": 0.5905511811023622
          },
          {
            "duration": 0.22604166666667425,
            "durationTicks": 217,
            "midi": 59,
            "name": "B3",
            "ticks": 206160,
            "time": 214.75,
            "velocity": 0.49606299212598426
          },
          {
            "duration": 0.22604166666667425,
            "durationTicks": 217,
            "midi": 59,
            "name": "B3",
            "ticks": 206400,
            "time": 215,
            "velocity": 0.5275590551181102
          },
          {
            "duration": 0.22604166666667425,
            "durationTicks": 217,
            "midi": 59,
            "name": "B3",
            "ticks": 206640,
            "time": 215.25,
            "velocity": 0.6377952755905512
          },
          {
            "duration": 0.45104166666666856,
            "durationTicks": 433,
            "midi": 59,
            "name": "B3",
            "ticks": 206880,
            "time": 215.5,
            "velocity": 0.6692913385826772
          },
          {
            "duration": 0.22604166666667425,
            "durationTicks": 217,
            "midi": 60,
            "name": "C4",
            "ticks": 208080,
            "time": 216.75,
            "velocity": 0.5984251968503937
          },
          {
            "duration": 0.22604166666667425,
            "durationTicks": 217,
            "midi": 60,
            "name": "C4",
            "ticks": 208320,
            "time": 217,
            "velocity": 0.6692913385826772
          },
          {
            "duration": 0.22604166666667425,
            "durationTicks": 217,
            "midi": 60,
            "name": "C4",
            "ticks": 208560,
            "time": 217.25,
            "velocity": 0.6299212598425197
          },
          {
            "duration": 0.45104166666666856,
            "durationTicks": 433,
            "midi": 60,
            "name": "C4",
            "ticks": 208800,
            "time": 217.5,
            "velocity": 0.6456692913385826
          },
          {
            "duration": 0.22604166666667425,
            "durationTicks": 217,
            "midi": 60,
            "name": "C4",
            "ticks": 210000,
            "time": 218.75,
            "velocity": 0.7086614173228346
          },
          {
            "duration": 0.22604166666667425,
            "durationTicks": 217,
            "midi": 60,
            "name": "C4",
            "ticks": 210240,
            "time": 219,
            "velocity": 0.7322834645669292
          },
          {
            "duration": 0.22604166666667425,
            "durationTicks": 217,
            "midi": 60,
            "name": "C4",
            "ticks": 210480,
            "time": 219.25,
            "velocity": 0.7716535433070866
          },
          {
            "duration": 0.45104166666666856,
            "durationTicks": 433,
            "midi": 60,
            "name": "C4",
            "ticks": 210720,
            "time": 219.5,
            "velocity": 0.7795275590551181
          },
          {
            "duration": 0.22604166666667425,
            "durationTicks": 217,
            "midi": 60,
            "name": "C4",
            "ticks": 211200,
            "time": 220,
            "velocity": 0.8031496062992126
          },
          {
            "duration": 0.22604166666667425,
            "durationTicks": 217,
            "midi": 60,
            "name": "C4",
            "ticks": 211440,
            "time": 220.25,
            "velocity": 0.7716535433070866
          },
          {
            "duration": 1.4510416666666686,
            "durationTicks": 1393,
            "midi": 62,
            "name": "D4",
            "ticks": 211680,
            "time": 220.5,
            "velocity": 0.9291338582677166
          },
          {
            "duration": 0.45104166666666856,
            "durationTicks": 433,
            "midi": 50,
            "name": "D3",
            "ticks": 213120,
            "time": 222,
            "velocity": 0.7716535433070866
          },
          {
            "duration": 0.45104166666666856,
            "durationTicks": 433,
            "midi": 51,
            "name": "D#3",
            "ticks": 213600,
            "time": 222.5,
            "velocity": 0.889763779527559
          },
          {
            "duration": 0.45104166666666856,
            "durationTicks": 433,
            "midi": 53,
            "name": "F3",
            "ticks": 214560,
            "time": 223.5,
            "velocity": 0.8031496062992126
          },
          {
            "duration": 0.45104166666666856,
            "durationTicks": 433,
            "midi": 55,
            "name": "G3",
            "ticks": 215520,
            "time": 224.5,
            "velocity": 0.7874015748031497
          },
          {
            "duration": 0.45104166666666856,
            "durationTicks": 433,
            "midi": 56,
            "name": "G#3",
            "ticks": 216480,
            "time": 225.5,
            "velocity": 0.8031496062992126
          },
          {
            "duration": 0.45104166666666856,
            "durationTicks": 433,
            "midi": 58,
            "name": "A#3",
            "ticks": 217440,
            "time": 226.5,
            "velocity": 0.7874015748031497
          },
          {
            "duration": 0.45104166666666856,
            "durationTicks": 433,
            "midi": 58,
            "name": "A#3",
            "ticks": 218400,
            "time": 227.5,
            "velocity": 0.8267716535433071
          },
          {
            "duration": 0.22604166666667425,
            "durationTicks": 217,
            "midi": 53,
            "name": "F3",
            "ticks": 219360,
            "time": 228.5,
            "velocity": 0.8110236220472441
          },
          {
            "duration": 0.22604166666667425,
            "durationTicks": 217,
            "midi": 53,
            "name": "F3",
            "ticks": 219600,
            "time": 228.75,
            "velocity": 0.8818897637795275
          },
          {
            "duration": 0.22604166666667425,
            "durationTicks": 217,
            "midi": 58,
            "name": "A#3",
            "ticks": 219840,
            "time": 229,
            "velocity": 0.9606299212598425
          },
          {
            "duration": 0.22604166666667425,
            "durationTicks": 217,
            "midi": 58,
            "name": "A#3",
            "ticks": 220080,
            "time": 229.25,
            "velocity": 0.9212598425196851
          },
          {
            "duration": 0.22604166666667425,
            "durationTicks": 217,
            "midi": 53,
            "name": "F3",
            "ticks": 220320,
            "time": 229.5,
            "velocity": 0.8267716535433071
          },
          {
            "duration": 0.22604166666667425,
            "durationTicks": 217,
            "midi": 53,
            "name": "F3",
            "ticks": 220560,
            "time": 229.75,
            "velocity": 0.8818897637795275
          },
          {
            "duration": 0.22604166666667425,
            "durationTicks": 217,
            "midi": 58,
            "name": "A#3",
            "ticks": 220800,
            "time": 230,
            "velocity": 0.952755905511811
          },
          {
            "duration": 0.22604166666667425,
            "durationTicks": 217,
            "midi": 58,
            "name": "A#3",
            "ticks": 221040,
            "time": 230.25,
            "velocity": 0.9133858267716536
          },
          {
            "duration": 0.22604166666667425,
            "durationTicks": 217,
            "midi": 55,
            "name": "G3",
            "ticks": 221280,
            "time": 230.5,
            "velocity": 0.8503937007874016
          },
          {
            "duration": 0.22604166666667425,
            "durationTicks": 217,
            "midi": 55,
            "name": "G3",
            "ticks": 221520,
            "time": 230.75,
            "velocity": 0.8503937007874016
          },
          {
            "duration": 0.22604166666667425,
            "durationTicks": 217,
            "midi": 58,
            "name": "A#3",
            "ticks": 221760,
            "time": 231,
            "velocity": 0.905511811023622
          },
          {
            "duration": 0.22604166666667425,
            "durationTicks": 217,
            "midi": 58,
            "name": "A#3",
            "ticks": 222000,
            "time": 231.25,
            "velocity": 0.8976377952755905
          },
          {
            "duration": 0.22604166666667425,
            "durationTicks": 217,
            "midi": 56,
            "name": "G#3",
            "ticks": 222240,
            "time": 231.5,
            "velocity": 0.8818897637795275
          },
          {
            "duration": 0.22604166666667425,
            "durationTicks": 217,
            "midi": 56,
            "name": "G#3",
            "ticks": 222480,
            "time": 231.75,
            "velocity": 0.8740157480314961
          },
          {
            "duration": 0.22604166666667425,
            "durationTicks": 217,
            "midi": 58,
            "name": "A#3",
            "ticks": 222720,
            "time": 232,
            "velocity": 0.9212598425196851
          },
          {
            "duration": 0.22604166666667425,
            "durationTicks": 217,
            "midi": 58,
            "name": "A#3",
            "ticks": 222960,
            "time": 232.25,
            "velocity": 0.8976377952755905
          },
          {
            "duration": 0.2541666666666629,
            "durationTicks": 244,
            "midi": 65,
            "name": "F4",
            "ticks": 223200,
            "time": 232.5,
            "velocity": 1
          },
          {
            "duration": 0.23645833333333144,
            "durationTicks": 227,
            "midi": 63,
            "name": "D#4",
            "ticks": 223440,
            "time": 232.75,
            "velocity": 0.9763779527559056
          },
          {
            "duration": 0.11354166666666288,
            "durationTicks": 109,
            "midi": 58,
            "name": "A#3",
            "ticks": 223680,
            "time": 233,
            "velocity": 0.8110236220472441
          },
          {
            "duration": 0.11354166666666288,
            "durationTicks": 109,
            "midi": 55,
            "name": "G3",
            "ticks": 223920,
            "time": 233.25,
            "velocity": 0.8110236220472441
          },
          {
            "duration": 0.2541666666666629,
            "durationTicks": 244,
            "midi": 62,
            "name": "D4",
            "ticks": 224160,
            "time": 233.5,
            "velocity": 1
          },
          {
            "duration": 0.23645833333333144,
            "durationTicks": 227,
            "midi": 60,
            "name": "C4",
            "ticks": 224400,
            "time": 233.75,
            "velocity": 0.9921259842519685
          },
          {
            "duration": 0.11354166666666288,
            "durationTicks": 109,
            "midi": 56,
            "name": "G#3",
            "ticks": 224640,
            "time": 234,
            "velocity": 0.8582677165354331
          },
          {
            "duration": 0.11354166666666288,
            "durationTicks": 109,
            "midi": 53,
            "name": "F3",
            "ticks": 224880,
            "time": 234.25,
            "velocity": 0.8188976377952756
          },
          {
            "duration": 0.22604166666667425,
            "durationTicks": 217,
            "midi": 60,
            "name": "C4",
            "ticks": 225120,
            "time": 234.5,
            "velocity": 1
          },
          {
            "duration": 0.22604166666667425,
            "durationTicks": 217,
            "midi": 58,
            "name": "A#3",
            "ticks": 225360,
            "time": 234.75,
            "velocity": 0.889763779527559
          },
          {
            "duration": 0.11354166666666288,
            "durationTicks": 109,
            "midi": 55,
            "name": "G3",
            "ticks": 225600,
            "time": 235,
            "velocity": 0.8740157480314961
          },
          {
            "duration": 0.11354166666666288,
            "durationTicks": 109,
            "midi": 51,
            "name": "D#3",
            "ticks": 225840,
            "time": 235.25,
            "velocity": 0.84251968503937
          },
          {
            "duration": 0.22604166666667425,
            "durationTicks": 217,
            "midi": 50,
            "name": "D3",
            "ticks": 226080,
            "time": 235.5,
            "velocity": 0.84251968503937
          },
          {
            "duration": 0.22604166666667425,
            "durationTicks": 217,
            "midi": 53,
            "name": "F3",
            "ticks": 226320,
            "time": 235.75,
            "velocity": 0.6220472440944882
          },
          {
            "duration": 0.22604166666667425,
            "durationTicks": 217,
            "midi": 62,
            "name": "D4",
            "ticks": 226320,
            "time": 235.75,
            "velocity": 1
          },
          {
            "duration": 0.22604166666667425,
            "durationTicks": 217,
            "midi": 56,
            "name": "G#3",
            "ticks": 226560,
            "time": 236,
            "velocity": 0.6062992125984252
          },
          {
            "duration": 0.22604166666667425,
            "durationTicks": 217,
            "midi": 65,
            "name": "F4",
            "ticks": 226560,
            "time": 236,
            "velocity": 0.9921259842519685
          },
          {
            "duration": 0.22604166666667425,
            "durationTicks": 217,
            "midi": 53,
            "name": "F3",
            "ticks": 226800,
            "time": 236.25,
            "velocity": 0.5905511811023622
          },
          {
            "duration": 0.22604166666667425,
            "durationTicks": 217,
            "midi": 62,
            "name": "D4",
            "ticks": 226800,
            "time": 236.25,
            "velocity": 0.8346456692913385
          },
          {
            "duration": 3.2260416666666742,
            "durationTicks": 3097,
            "midi": 55,
            "name": "G3",
            "ticks": 227040,
            "time": 236.5,
            "velocity": 0.7874015748031497
          },
          {
            "duration": 0.22604166666667425,
            "durationTicks": 217,
            "midi": 58,
            "name": "A#3",
            "ticks": 230160,
            "time": 239.75,
            "velocity": 0.9291338582677166
          },
          {
            "duration": 0.22604166666667425,
            "durationTicks": 217,
            "midi": 58,
            "name": "A#3",
            "ticks": 230400,
            "time": 240,
            "velocity": 0.9133858267716536
          },
          {
            "duration": 0.22604166666667425,
            "durationTicks": 217,
            "midi": 58,
            "name": "A#3",
            "ticks": 230640,
            "time": 240.25,
            "velocity": 0.9133858267716536
          },
          {
            "duration": 3.2260416666666742,
            "durationTicks": 3097,
            "midi": 58,
            "name": "A#3",
            "ticks": 230880,
            "time": 240.5,
            "velocity": 0.8976377952755905
          },
          {
            "duration": 0.22604166666667425,
            "durationTicks": 217,
            "midi": 58,
            "name": "A#3",
            "ticks": 234000,
            "time": 243.75,
            "velocity": 0.905511811023622
          },
          {
            "duration": 0.22604166666667425,
            "durationTicks": 217,
            "midi": 58,
            "name": "A#3",
            "ticks": 234240,
            "time": 244,
            "velocity": 0.8976377952755905
          },
          {
            "duration": 0.22604166666667425,
            "durationTicks": 217,
            "midi": 58,
            "name": "A#3",
            "ticks": 234480,
            "time": 244.25,
            "velocity": 0.8818897637795275
          },
          {
            "duration": 0.45104166666666856,
            "durationTicks": 433,
            "midi": 58,
            "name": "A#3",
            "ticks": 234720,
            "time": 244.5,
            "velocity": 0.8818897637795275
          },
          {
            "duration": 0.22604166666667425,
            "durationTicks": 217,
            "midi": 58,
            "name": "A#3",
            "ticks": 235920,
            "time": 245.75,
            "velocity": 0.8031496062992126
          },
          {
            "duration": 0.22604166666667425,
            "durationTicks": 217,
            "midi": 58,
            "name": "A#3",
            "ticks": 236160,
            "time": 246,
            "velocity": 0.889763779527559
          },
          {
            "duration": 0.22604166666667425,
            "durationTicks": 217,
            "midi": 58,
            "name": "A#3",
            "ticks": 236400,
            "time": 246.25,
            "velocity": 0.889763779527559
          },
          {
            "duration": 0.45104166666666856,
            "durationTicks": 433,
            "midi": 58,
            "name": "A#3",
            "ticks": 236640,
            "time": 246.5,
            "velocity": 0.905511811023622
          },
          {
            "duration": 0.22604166666667425,
            "durationTicks": 217,
            "midi": 58,
            "name": "A#3",
            "ticks": 237840,
            "time": 247.75,
            "velocity": 0.7874015748031497
          },
          {
            "duration": 0.22604166666667425,
            "durationTicks": 217,
            "midi": 58,
            "name": "A#3",
            "ticks": 238080,
            "time": 248,
            "velocity": 0.905511811023622
          },
          {
            "duration": 0.22604166666667425,
            "durationTicks": 217,
            "midi": 58,
            "name": "A#3",
            "ticks": 238320,
            "time": 248.25,
            "velocity": 0.8818897637795275
          },
          {
            "duration": 0.45104166666666856,
            "durationTicks": 433,
            "midi": 63,
            "name": "D#4",
            "ticks": 238560,
            "time": 248.5,
            "velocity": 1
          },
          {
            "duration": 0.22604166666667425,
            "durationTicks": 217,
            "midi": 49,
            "name": "C#3",
            "ticks": 242640,
            "time": 252.75,
            "velocity": 0.8110236220472441
          },
          {
            "duration": 0.22604166666667425,
            "durationTicks": 217,
            "midi": 49,
            "name": "C#3",
            "ticks": 242880,
            "time": 253,
            "velocity": 0.8661417322834646
          },
          {
            "duration": 0.22604166666667425,
            "durationTicks": 217,
            "midi": 49,
            "name": "C#3",
            "ticks": 243120,
            "time": 253.25,
            "velocity": 0.889763779527559
          },
          {
            "duration": 2.5,
            "durationTicks": 2400,
            "midi": 48,
            "name": "C3",
            "ticks": 243360,
            "time": 253.5,
            "velocity": 0.8740157480314961
          },
          {
            "duration": 2.2260416666666742,
            "durationTicks": 2137,
            "midi": 60,
            "name": "C4",
            "ticks": 246720,
            "time": 257,
            "velocity": 0.6062992125984252
          },
          {
            "duration": 0.22604166666667425,
            "durationTicks": 217,
            "midi": 61,
            "name": "C#4",
            "ticks": 248880,
            "time": 259.25,
            "velocity": 0.5118110236220472
          },
          {
            "duration": 0.22604166666667425,
            "durationTicks": 217,
            "midi": 61,
            "name": "C#4",
            "ticks": 249120,
            "time": 259.5,
            "velocity": 0.49606299212598426
          },
          {
            "duration": 0.22604166666667425,
            "durationTicks": 217,
            "midi": 61,
            "name": "C#4",
            "ticks": 249360,
            "time": 259.75,
            "velocity": 0.4645669291338583
          },
          {
            "duration": 3.2260416666666742,
            "durationTicks": 3097,
            "midi": 60,
            "name": "C4",
            "ticks": 249600,
            "time": 260,
            "velocity": 0.4409448818897638
          },
          {
            "duration": 0.22604166666667425,
            "durationTicks": 217,
            "midi": 61,
            "name": "C#4",
            "ticks": 252720,
            "time": 263.25,
            "velocity": 0.47244094488188976
          },
          {
            "duration": 0.22604166666667425,
            "durationTicks": 217,
            "midi": 61,
            "name": "C#4",
            "ticks": 252960,
            "time": 263.5,
            "velocity": 0.48031496062992124
          },
          {
            "duration": 0.22604166666667425,
            "durationTicks": 217,
            "midi": 61,
            "name": "C#4",
            "ticks": 253200,
            "time": 263.75,
            "velocity": 0.4566929133858268
          },
          {
            "duration": 2.8999999999999773,
            "durationTicks": 2784,
            "midi": 60,
            "name": "C4",
            "ticks": 253440,
            "time": 264,
            "velocity": 0.4330708661417323
          },
          {
            "duration": 2.8999999999999773,
            "durationTicks": 2784,
            "midi": 60,
            "name": "C4",
            "ticks": 256320,
            "time": 267,
            "velocity": 0.49606299212598426
          },
          {
            "duration": 0.5093749999999773,
            "durationTicks": 489,
            "midi": 62,
            "name": "D4",
            "ticks": 259200,
            "time": 270,
            "velocity": 0.5511811023622047
          },
          {
            "duration": 0.5093749999999773,
            "durationTicks": 489,
            "midi": 63,
            "name": "D#4",
            "ticks": 259680,
            "time": 270.5,
            "velocity": 0.5669291338582677
          },
          {
            "duration": 0.5093749999999773,
            "durationTicks": 489,
            "midi": 65,
            "name": "F4",
            "ticks": 260160,
            "time": 271,
            "velocity": 0.48031496062992124
          },
          {
            "duration": 0.47500000000002274,
            "durationTicks": 456,
            "midi": 66,
            "name": "F#4",
            "ticks": 260640,
            "time": 271.5,
            "velocity": 0.5275590551181102
          },
          {
            "duration": 0.22604166666667425,
            "durationTicks": 217,
            "midi": 67,
            "name": "G4",
            "ticks": 261120,
            "time": 272,
            "velocity": 0.4881889763779528
          },
          {
            "duration": 0.22604166666667425,
            "durationTicks": 217,
            "midi": 67,
            "name": "G4",
            "ticks": 261360,
            "time": 272.25,
            "velocity": 0.4881889763779528
          },
          {
            "duration": 0.22604166666667425,
            "durationTicks": 217,
            "midi": 67,
            "name": "G4",
            "ticks": 261600,
            "time": 272.5,
            "velocity": 0.48031496062992124
          },
          {
            "duration": 0.22604166666667425,
            "durationTicks": 217,
            "midi": 65,
            "name": "F4",
            "ticks": 261840,
            "time": 272.75,
            "velocity": 0.47244094488188976
          },
          {
            "duration": 0.8999999999999773,
            "durationTicks": 864,
            "midi": 63,
            "name": "D#4",
            "ticks": 262080,
            "time": 273,
            "velocity": 0.44881889763779526
          },
          {
            "duration": 0.22604166666667425,
            "durationTicks": 217,
            "midi": 62,
            "name": "D4",
            "ticks": 263040,
            "time": 274,
            "velocity": 0.4330708661417323
          },
          {
            "duration": 0.22604166666667425,
            "durationTicks": 217,
            "midi": 67,
            "name": "G4",
            "ticks": 263280,
            "time": 274.25,
            "velocity": 0.5748031496062992
          },
          {
            "duration": 0.22604166666667425,
            "durationTicks": 217,
            "midi": 67,
            "name": "G4",
            "ticks": 263520,
            "time": 274.5,
            "velocity": 0.47244094488188976
          },
          {
            "duration": 0.22604166666667425,
            "durationTicks": 217,
            "midi": 65,
            "name": "F4",
            "ticks": 263760,
            "time": 274.75,
            "velocity": 0.48031496062992124
          },
          {
            "duration": 0.8999999999999773,
            "durationTicks": 864,
            "midi": 63,
            "name": "D#4",
            "ticks": 264000,
            "time": 275,
            "velocity": 0.4251968503937008
          },
          {
            "duration": 0.22604166666667425,
            "durationTicks": 217,
            "midi": 62,
            "name": "D4",
            "ticks": 264960,
            "time": 276,
            "velocity": 0.4566929133858268
          },
          {
            "duration": 0.22604166666667425,
            "durationTicks": 217,
            "midi": 67,
            "name": "G4",
            "ticks": 265200,
            "time": 276.25,
            "velocity": 0.5275590551181102
          },
          {
            "duration": 0.22604166666667425,
            "durationTicks": 217,
            "midi": 67,
            "name": "G4",
            "ticks": 265440,
            "time": 276.5,
            "velocity": 0.5196850393700787
          },
          {
            "duration": 0.22604166666667425,
            "durationTicks": 217,
            "midi": 65,
            "name": "F4",
            "ticks": 265680,
            "time": 276.75,
            "velocity": 0.4645669291338583
          },
          {
            "duration": 0.22604166666667425,
            "durationTicks": 217,
            "midi": 63,
            "name": "D#4",
            "ticks": 265920,
            "time": 277,
            "velocity": 0.4330708661417323
          },
          {
            "duration": 0.22604166666667425,
            "durationTicks": 217,
            "midi": 63,
            "name": "D#4",
            "ticks": 266160,
            "time": 277.25,
            "velocity": 0.44881889763779526
          },
          {
            "duration": 0.22604166666667425,
            "durationTicks": 217,
            "midi": 63,
            "name": "D#4",
            "ticks": 266400,
            "time": 277.5,
            "velocity": 0.49606299212598426
          },
          {
            "duration": 0.22604166666667425,
            "durationTicks": 217,
            "midi": 62,
            "name": "D4",
            "ticks": 266640,
            "time": 277.75,
            "velocity": 0.5590551181102362
          },
          {
            "duration": 0.22604166666667425,
            "durationTicks": 217,
            "midi": 60,
            "name": "C4",
            "ticks": 266880,
            "time": 278,
            "velocity": 0.5196850393700787
          },
          {
            "duration": 0.22604166666667425,
            "durationTicks": 217,
            "midi": 60,
            "name": "C4",
            "ticks": 267120,
            "time": 278.25,
            "velocity": 0.5748031496062992
          },
          {
            "duration": 0.22604166666667425,
            "durationTicks": 217,
            "midi": 60,
            "name": "C4",
            "ticks": 267360,
            "time": 278.5,
            "velocity": 0.5433070866141733
          },
          {
            "duration": 0.22604166666667425,
            "durationTicks": 217,
            "midi": 58,
            "name": "A#3",
            "ticks": 267600,
            "time": 278.75,
            "velocity": 0.5196850393700787
          },
          {
            "duration": 0.22604166666667425,
            "durationTicks": 217,
            "midi": 57,
            "name": "A3",
            "ticks": 267840,
            "time": 279,
            "velocity": 0.5433070866141733
          },
          {
            "duration": 0.22604166666667425,
            "durationTicks": 217,
            "midi": 57,
            "name": "A3",
            "ticks": 268080,
            "time": 279.25,
            "velocity": 0.6614173228346457
          },
          {
            "duration": 0.22604166666667425,
            "durationTicks": 217,
            "midi": 57,
            "name": "A3",
            "ticks": 268320,
            "time": 279.5,
            "velocity": 0.6692913385826772
          },
          {
            "duration": 0.22604166666667425,
            "durationTicks": 217,
            "midi": 55,
            "name": "G3",
            "ticks": 268560,
            "time": 279.75,
            "velocity": 0.6377952755905512
          },
          {
            "duration": 0.45104166666664014,
            "durationTicks": 433,
            "midi": 54,
            "name": "F#3",
            "ticks": 268800,
            "time": 280,
            "velocity": 0.4881889763779528
          },
          {
            "duration": 0.22604166666667425,
            "durationTicks": 217,
            "midi": 58,
            "name": "A#3",
            "ticks": 270000,
            "time": 281.25,
            "velocity": 0.4015748031496063
          },
          {
            "duration": 0.22604166666667425,
            "durationTicks": 217,
            "midi": 58,
            "name": "A#3",
            "ticks": 270240,
            "time": 281.5,
            "velocity": 0.44881889763779526
          },
          {
            "duration": 0.22604166666667425,
            "durationTicks": 217,
            "midi": 60,
            "name": "C4",
            "ticks": 270480,
            "time": 281.75,
            "velocity": 0.4881889763779528
          },
          {
            "duration": 1.2260416666666742,
            "durationTicks": 1177,
            "midi": 62,
            "name": "D4",
            "ticks": 270720,
            "time": 282,
            "velocity": 0.5196850393700787
          },
          {
            "duration": 0.22604166666667425,
            "durationTicks": 217,
            "midi": 58,
            "name": "A#3",
            "ticks": 271920,
            "time": 283.25,
            "velocity": 0.44881889763779526
          },
          {
            "duration": 0.22604166666667425,
            "durationTicks": 217,
            "midi": 58,
            "name": "A#3",
            "ticks": 272160,
            "time": 283.5,
            "velocity": 0.44881889763779526
          },
          {
            "duration": 0.22604166666667425,
            "durationTicks": 217,
            "midi": 60,
            "name": "C4",
            "ticks": 272400,
            "time": 283.75,
            "velocity": 0.49606299212598426
          },
          {
            "duration": 0.22604166666667425,
            "durationTicks": 217,
            "midi": 62,
            "name": "D4",
            "ticks": 272640,
            "time": 284,
            "velocity": 0.5118110236220472
          },
          {
            "duration": 0.22604166666667425,
            "durationTicks": 217,
            "midi": 62,
            "name": "D4",
            "ticks": 272880,
            "time": 284.25,
            "velocity": 0.49606299212598426
          },
          {
            "duration": 0.22604166666667425,
            "durationTicks": 217,
            "midi": 62,
            "name": "D4",
            "ticks": 273120,
            "time": 284.5,
            "velocity": 0.49606299212598426
          },
          {
            "duration": 0.22604166666667425,
            "durationTicks": 217,
            "midi": 60,
            "name": "C4",
            "ticks": 273360,
            "time": 284.75,
            "velocity": 0.4330708661417323
          },
          {
            "duration": 0.22604166666667425,
            "durationTicks": 217,
            "midi": 58,
            "name": "A#3",
            "ticks": 273600,
            "time": 285,
            "velocity": 0.44881889763779526
          },
          {
            "duration": 0.22604166666667425,
            "durationTicks": 217,
            "midi": 58,
            "name": "A#3",
            "ticks": 273840,
            "time": 285.25,
            "velocity": 0.47244094488188976
          },
          {
            "duration": 0.22604166666667425,
            "durationTicks": 217,
            "midi": 58,
            "name": "A#3",
            "ticks": 274080,
            "time": 285.5,
            "velocity": 0.4645669291338583
          },
          {
            "duration": 0.22604166666667425,
            "durationTicks": 217,
            "midi": 57,
            "name": "A3",
            "ticks": 274320,
            "time": 285.75,
            "velocity": 0.47244094488188976
          },
          {
            "duration": 0.22604166666667425,
            "durationTicks": 217,
            "midi": 55,
            "name": "G3",
            "ticks": 274560,
            "time": 286,
            "velocity": 0.4566929133858268
          },
          {
            "duration": 0.22604166666667425,
            "durationTicks": 217,
            "midi": 55,
            "name": "G3",
            "ticks": 274800,
            "time": 286.25,
            "velocity": 0.4645669291338583
          },
          {
            "duration": 0.22604166666667425,
            "durationTicks": 217,
            "midi": 55,
            "name": "G3",
            "ticks": 275040,
            "time": 286.5,
            "velocity": 0.4566929133858268
          },
          {
            "duration": 0.22604166666667425,
            "durationTicks": 217,
            "midi": 53,
            "name": "F3",
            "ticks": 275280,
            "time": 286.75,
            "velocity": 0.4566929133858268
          },
          {
            "duration": 0.22604166666667425,
            "durationTicks": 217,
            "midi": 51,
            "name": "D#3",
            "ticks": 275520,
            "time": 287,
            "velocity": 0.44881889763779526
          },
          {
            "duration": 0.22604166666667425,
            "durationTicks": 217,
            "midi": 51,
            "name": "D#3",
            "ticks": 275760,
            "time": 287.25,
            "velocity": 0.4566929133858268
          },
          {
            "duration": 0.22604166666667425,
            "durationTicks": 217,
            "midi": 51,
            "name": "D#3",
            "ticks": 276000,
            "time": 287.5,
            "velocity": 0.4881889763779528
          },
          {
            "duration": 0.22604166666667425,
            "durationTicks": 217,
            "midi": 50,
            "name": "D3",
            "ticks": 276240,
            "time": 287.75,
            "velocity": 0.5039370078740157
          },
          {
            "duration": 0.22604166666667425,
            "durationTicks": 217,
            "midi": 48,
            "name": "C3",
            "ticks": 276480,
            "time": 288,
            "velocity": 0.44881889763779526
          },
          {
            "duration": 0.22604166666667425,
            "durationTicks": 217,
            "midi": 60,
            "name": "C4",
            "ticks": 276720,
            "time": 288.25,
            "velocity": 0.6062992125984252
          },
          {
            "duration": 0.22604166666667425,
            "durationTicks": 217,
            "midi": 60,
            "name": "C4",
            "ticks": 276960,
            "time": 288.5,
            "velocity": 0.5118110236220472
          },
          {
            "duration": 0.22604166666667425,
            "durationTicks": 217,
            "midi": 58,
            "name": "A#3",
            "ticks": 277200,
            "time": 288.75,
            "velocity": 0.5039370078740157
          },
          {
            "duration": 0.22604166666667425,
            "durationTicks": 217,
            "midi": 57,
            "name": "A3",
            "ticks": 277440,
            "time": 289,
            "velocity": 0.4409448818897638
          },
          {
            "duration": 0.22604166666667425,
            "durationTicks": 217,
            "midi": 57,
            "name": "A3",
            "ticks": 277680,
            "time": 289.25,
            "velocity": 0.5196850393700787
          },
          {
            "duration": 0.22604166666667425,
            "durationTicks": 217,
            "midi": 57,
            "name": "A3",
            "ticks": 277920,
            "time": 289.5,
            "velocity": 0.5118110236220472
          },
          {
            "duration": 0.22604166666667425,
            "durationTicks": 217,
            "midi": 55,
            "name": "G3",
            "ticks": 278160,
            "time": 289.75,
            "velocity": 0.4330708661417323
          },
          {
            "duration": 0.22604166666667425,
            "durationTicks": 217,
            "midi": 54,
            "name": "F#3",
            "ticks": 278400,
            "time": 290,
            "velocity": 0.48031496062992124
          },
          {
            "duration": 0.22604166666667425,
            "durationTicks": 217,
            "midi": 54,
            "name": "F#3",
            "ticks": 278640,
            "time": 290.25,
            "velocity": 0.4881889763779528
          },
          {
            "duration": 0.22604166666667425,
            "durationTicks": 217,
            "midi": 54,
            "name": "F#3",
            "ticks": 278880,
            "time": 290.5,
            "velocity": 0.4881889763779528
          },
          {
            "duration": 0.22604166666667425,
            "durationTicks": 217,
            "midi": 51,
            "name": "D#3",
            "ticks": 279120,
            "time": 290.75,
            "velocity": 0.49606299212598426
          },
          {
            "duration": 0.22604166666667425,
            "durationTicks": 217,
            "midi": 50,
            "name": "D3",
            "ticks": 279360,
            "time": 291,
            "velocity": 0.5196850393700787
          },
          {
            "duration": 0.22604166666667425,
            "durationTicks": 217,
            "midi": 50,
            "name": "D3",
            "ticks": 279600,
            "time": 291.25,
            "velocity": 0.47244094488188976
          },
          {
            "duration": 0.22604166666667425,
            "durationTicks": 217,
            "midi": 50,
            "name": "D3",
            "ticks": 279840,
            "time": 291.5,
            "velocity": 0.4645669291338583
          },
          {
            "duration": 0.22604166666667425,
            "durationTicks": 217,
            "midi": 48,
            "name": "C3",
            "ticks": 280080,
            "time": 291.75,
            "velocity": 0.4566929133858268
          },
          {
            "duration": 0.22604166666667425,
            "durationTicks": 217,
            "midi": 58,
            "name": "A#3",
            "ticks": 280320,
            "time": 292,
            "velocity": 0.5039370078740157
          },
          {
            "duration": 0.22604166666667425,
            "durationTicks": 217,
            "midi": 62,
            "name": "D4",
            "ticks": 280560,
            "time": 292.25,
            "velocity": 0.5275590551181102
          },
          {
            "duration": 0.22604166666667425,
            "durationTicks": 217,
            "midi": 62,
            "name": "D4",
            "ticks": 280800,
            "time": 292.5,
            "velocity": 0.49606299212598426
          },
          {
            "duration": 0.22604166666667425,
            "durationTicks": 217,
            "midi": 60,
            "name": "C4",
            "ticks": 281040,
            "time": 292.75,
            "velocity": 0.4251968503937008
          },
          {
            "duration": 0.22604166666667425,
            "durationTicks": 217,
            "midi": 58,
            "name": "A#3",
            "ticks": 281280,
            "time": 293,
            "velocity": 0.4251968503937008
          },
          {
            "duration": 0.22604166666667425,
            "durationTicks": 217,
            "midi": 58,
            "name": "A#3",
            "ticks": 281520,
            "time": 293.25,
            "velocity": 0.48031496062992124
          },
          {
            "duration": 0.22604166666667425,
            "durationTicks": 217,
            "midi": 58,
            "name": "A#3",
            "ticks": 281760,
            "time": 293.5,
            "velocity": 0.5748031496062992
          },
          {
            "duration": 0.22604166666667425,
            "durationTicks": 217,
            "midi": 57,
            "name": "A3",
            "ticks": 282000,
            "time": 293.75,
            "velocity": 0.5511811023622047
          },
          {
            "duration": 0.22604166666667425,
            "durationTicks": 217,
            "midi": 55,
            "name": "G3",
            "ticks": 282240,
            "time": 294,
            "velocity": 0.5118110236220472
          },
          {
            "duration": 0.22604166666667425,
            "durationTicks": 217,
            "midi": 53,
            "name": "F3",
            "ticks": 282480,
            "time": 294.25,
            "velocity": 0.5354330708661418
          },
          {
            "duration": 0.22604166666667425,
            "durationTicks": 217,
            "midi": 51,
            "name": "D#3",
            "ticks": 282720,
            "time": 294.5,
            "velocity": 0.6850393700787402
          },
          {
            "duration": 0.22604166666667425,
            "durationTicks": 217,
            "midi": 50,
            "name": "D3",
            "ticks": 282960,
            "time": 294.75,
            "velocity": 0.6299212598425197
          },
          {
            "duration": 0.22604166666667425,
            "durationTicks": 217,
            "midi": 48,
            "name": "C3",
            "ticks": 283200,
            "time": 295,
            "velocity": 0.7952755905511811
          },
          {
            "duration": 0.22604166666667425,
            "durationTicks": 217,
            "midi": 48,
            "name": "C3",
            "ticks": 283440,
            "time": 295.25,
            "velocity": 0.9763779527559056
          },
          {
            "duration": 0.22604166666667425,
            "durationTicks": 217,
            "midi": 60,
            "name": "C4",
            "ticks": 283440,
            "time": 295.25,
            "velocity": 0.9763779527559056
          },
          {
            "duration": 0.22604166666667425,
            "durationTicks": 217,
            "midi": 48,
            "name": "C3",
            "ticks": 283680,
            "time": 295.5,
            "velocity": 0.7952755905511811
          },
          {
            "duration": 0.22604166666667425,
            "durationTicks": 217,
            "midi": 60,
            "name": "C4",
            "ticks": 283680,
            "time": 295.5,
            "velocity": 0.7952755905511811
          },
          {
            "duration": 0.22604166666667425,
            "durationTicks": 217,
            "midi": 48,
            "name": "C3",
            "ticks": 283920,
            "time": 295.75,
            "velocity": 0.7716535433070866
          },
          {
            "duration": 0.22604166666667425,
            "durationTicks": 217,
            "midi": 60,
            "name": "C4",
            "ticks": 283920,
            "time": 295.75,
            "velocity": 0.7716535433070866
          },
          {
            "duration": 0.22604166666667425,
            "durationTicks": 217,
            "midi": 48,
            "name": "C3",
            "ticks": 284160,
            "time": 296,
            "velocity": 0.7559055118110236
          },
          {
            "duration": 0.22604166666667425,
            "durationTicks": 217,
            "midi": 60,
            "name": "C4",
            "ticks": 284160,
            "time": 296,
            "velocity": 0.7559055118110236
          },
          {
            "duration": 0.22604166666667425,
            "durationTicks": 217,
            "midi": 48,
            "name": "C3",
            "ticks": 284400,
            "time": 296.25,
            "velocity": 0.8031496062992126
          },
          {
            "duration": 0.22604166666667425,
            "durationTicks": 217,
            "midi": 60,
            "name": "C4",
            "ticks": 284400,
            "time": 296.25,
            "velocity": 0.8031496062992126
          },
          {
            "duration": 0.22604166666667425,
            "durationTicks": 217,
            "midi": 48,
            "name": "C3",
            "ticks": 284640,
            "time": 296.5,
            "velocity": 0.7480314960629921
          },
          {
            "duration": 0.22604166666667425,
            "durationTicks": 217,
            "midi": 60,
            "name": "C4",
            "ticks": 284640,
            "time": 296.5,
            "velocity": 0.7480314960629921
          },
          {
            "duration": 0.22604166666667425,
            "durationTicks": 217,
            "midi": 48,
            "name": "C3",
            "ticks": 284880,
            "time": 296.75,
            "velocity": 0.7637795275590551
          },
          {
            "duration": 0.22604166666667425,
            "durationTicks": 217,
            "midi": 60,
            "name": "C4",
            "ticks": 284880,
            "time": 296.75,
            "velocity": 0.7637795275590551
          },
          {
            "duration": 0.45104166666664014,
            "durationTicks": 433,
            "midi": 48,
            "name": "C3",
            "ticks": 285120,
            "time": 297,
            "velocity": 0.7795275590551181
          },
          {
            "duration": 0.45104166666664014,
            "durationTicks": 433,
            "midi": 60,
            "name": "C4",
            "ticks": 285120,
            "time": 297,
            "velocity": 0.7795275590551181
          },
          {
            "duration": 0.22604166666667425,
            "durationTicks": 217,
            "midi": 49,
            "name": "C#3",
            "ticks": 286320,
            "time": 298.25,
            "velocity": 0.6692913385826772
          },
          {
            "duration": 0.22604166666667425,
            "durationTicks": 217,
            "midi": 49,
            "name": "C#3",
            "ticks": 286560,
            "time": 298.5,
            "velocity": 0.8110236220472441
          },
          {
            "duration": 0.22604166666667425,
            "durationTicks": 217,
            "midi": 49,
            "name": "C#3",
            "ticks": 286800,
            "time": 298.75,
            "velocity": 0.7874015748031497
          },
          {
            "duration": 0.22604166666667425,
            "durationTicks": 217,
            "midi": 49,
            "name": "C#3",
            "ticks": 287040,
            "time": 299,
            "velocity": 0.7716535433070866
          },
          {
            "duration": 0.22604166666667425,
            "durationTicks": 217,
            "midi": 61,
            "name": "C#4",
            "ticks": 287280,
            "time": 299.25,
            "velocity": 1
          },
          {
            "duration": 0.22604166666667425,
            "durationTicks": 217,
            "midi": 61,
            "name": "C#4",
            "ticks": 287520,
            "time": 299.5,
            "velocity": 0.84251968503937
          },
          {
            "duration": 0.22604166666667425,
            "durationTicks": 217,
            "midi": 61,
            "name": "C#4",
            "ticks": 287760,
            "time": 299.75,
            "velocity": 0.8346456692913385
          },
          {
            "duration": 0.22604166666667425,
            "durationTicks": 217,
            "midi": 61,
            "name": "C#4",
            "ticks": 288000,
            "time": 300,
            "velocity": 0.7795275590551181
          },
          {
            "duration": 0.22604166666667425,
            "durationTicks": 217,
            "midi": 61,
            "name": "C#4",
            "ticks": 288240,
            "time": 300.25,
            "velocity": 0.7716535433070866
          },
          {
            "duration": 0.22604166666667425,
            "durationTicks": 217,
            "midi": 61,
            "name": "C#4",
            "ticks": 288480,
            "time": 300.5,
            "velocity": 0.7795275590551181
          },
          {
            "duration": 0.22604166666667425,
            "durationTicks": 217,
            "midi": 61,
            "name": "C#4",
            "ticks": 288720,
            "time": 300.75,
            "velocity": 0.7874015748031497
          },
          {
            "duration": 0.45104166666664014,
            "durationTicks": 433,
            "midi": 61,
            "name": "C#4",
            "ticks": 288960,
            "time": 301,
            "velocity": 0.8110236220472441
          },
          {
            "duration": 0.22604166666667425,
            "durationTicks": 217,
            "midi": 62,
            "name": "D4",
            "ticks": 290160,
            "time": 302.25,
            "velocity": 0.7559055118110236
          },
          {
            "duration": 0.22604166666667425,
            "durationTicks": 217,
            "midi": 62,
            "name": "D4",
            "ticks": 290400,
            "time": 302.5,
            "velocity": 0.8267716535433071
          },
          {
            "duration": 0.22604166666667425,
            "durationTicks": 217,
            "midi": 62,
            "name": "D4",
            "ticks": 290640,
            "time": 302.75,
            "velocity": 0.8188976377952756
          },
          {
            "duration": 0.45104166666664014,
            "durationTicks": 433,
            "midi": 62,
            "name": "D4",
            "ticks": 290880,
            "time": 303,
            "velocity": 0.8031496062992126
          },
          {
            "duration": 0.22604166666667425,
            "durationTicks": 217,
            "midi": 64,
            "name": "E4",
            "ticks": 292320,
            "time": 304.5,
            "velocity": 0.7322834645669292
          },
          {
            "duration": 0.22604166666667425,
            "durationTicks": 217,
            "midi": 64,
            "name": "E4",
            "ticks": 292560,
            "time": 304.75,
            "velocity": 0.8188976377952756
          },
          {
            "duration": 0.45104166666664014,
            "durationTicks": 433,
            "midi": 64,
            "name": "E4",
            "ticks": 292800,
            "time": 305,
            "velocity": 0.8188976377952756
          },
          {
            "duration": 0.22604166666667425,
            "durationTicks": 217,
            "midi": 54,
            "name": "F#3",
            "ticks": 293280,
            "time": 305.5,
            "velocity": 0.7165354330708661
          },
          {
            "duration": 0.22604166666667425,
            "durationTicks": 217,
            "midi": 54,
            "name": "F#3",
            "ticks": 293520,
            "time": 305.75,
            "velocity": 0.8346456692913385
          },
          {
            "duration": 0.45104166666664014,
            "durationTicks": 433,
            "midi": 54,
            "name": "F#3",
            "ticks": 293760,
            "time": 306,
            "velocity": 0.8503937007874016
          },
          {
            "duration": 0.9510416666666401,
            "durationTicks": 913,
            "midi": 72,
            "name": "C5",
            "ticks": 297120,
            "time": 309.5,
            "velocity": 0.7795275590551181
          },
          {
            "duration": 0.22500000000002274,
            "durationTicks": 216,
            "midi": 69,
            "name": "A4",
            "ticks": 298080,
            "time": 310.5,
            "velocity": 0.7559055118110236
          },
          {
            "duration": 0.22500000000002274,
            "durationTicks": 216,
            "midi": 66,
            "name": "F#4",
            "ticks": 298560,
            "time": 311,
            "velocity": 0.7480314960629921
          },
          {
            "duration": 0.22500000000002274,
            "durationTicks": 216,
            "midi": 62,
            "name": "D4",
            "ticks": 299040,
            "time": 311.5,
            "velocity": 0.7401574803149606
          },
          {
            "duration": 0.22500000000002274,
            "durationTicks": 216,
            "midi": 60,
            "name": "C4",
            "ticks": 299520,
            "time": 312,
            "velocity": 0.7716535433070866
          },
          {
            "duration": 0.22500000000002274,
            "durationTicks": 216,
            "midi": 57,
            "name": "A3",
            "ticks": 300000,
            "time": 312.5,
            "velocity": 0.7952755905511811
          },
          {
            "duration": 0.22500000000002274,
            "durationTicks": 216,
            "midi": 54,
            "name": "F#3",
            "ticks": 300480,
            "time": 313,
            "velocity": 0.8031496062992126
          },
          {
            "duration": 0.22500000000002274,
            "durationTicks": 216,
            "midi": 50,
            "name": "D3",
            "ticks": 300960,
            "time": 313.5,
            "velocity": 0.8110236220472441
          },
          {
            "duration": 0.45104166666664014,
            "durationTicks": 433,
            "midi": 55,
            "name": "G3",
            "ticks": 301440,
            "time": 314,
            "velocity": 0.8818897637795275
          },
          {
            "duration": 0.9510416666666401,
            "durationTicks": 913,
            "midi": 77,
            "name": "F5",
            "ticks": 304800,
            "time": 317.5,
            "velocity": 0.6929133858267716
          },
          {
            "duration": 0.22500000000002274,
            "durationTicks": 216,
            "midi": 74,
            "name": "D5",
            "ticks": 305760,
            "time": 318.5,
            "velocity": 0.7716535433070866
          },
          {
            "duration": 0.22500000000002274,
            "durationTicks": 216,
            "midi": 71,
            "name": "B4",
            "ticks": 306240,
            "time": 319,
            "velocity": 0.7322834645669292
          },
          {
            "duration": 0.22500000000002274,
            "durationTicks": 216,
            "midi": 67,
            "name": "G4",
            "ticks": 306720,
            "time": 319.5,
            "velocity": 0.7244094488188977
          },
          {
            "duration": 0.22500000000002274,
            "durationTicks": 216,
            "midi": 65,
            "name": "F4",
            "ticks": 307200,
            "time": 320,
            "velocity": 0.7637795275590551
          },
          {
            "duration": 0.22500000000002274,
            "durationTicks": 216,
            "midi": 62,
            "name": "D4",
            "ticks": 307680,
            "time": 320.5,
            "velocity": 0.7480314960629921
          },
          {
            "duration": 0.22500000000002274,
            "durationTicks": 216,
            "midi": 59,
            "name": "B3",
            "ticks": 308160,
            "time": 321,
            "velocity": 0.7874015748031497
          },
          {
            "duration": 0.22500000000002274,
            "durationTicks": 216,
            "midi": 55,
            "name": "G3",
            "ticks": 308640,
            "time": 321.5,
            "velocity": 0.7952755905511811
          },
          {
            "duration": 0.45104166666664014,
            "durationTicks": 433,
            "midi": 60,
            "name": "C4",
            "ticks": 309120,
            "time": 322,
            "velocity": 0.9133858267716536
          },
          {
            "duration": 0.8999999999999773,
            "durationTicks": 864,
            "midi": 48,
            "name": "C3",
            "ticks": 312000,
            "time": 325,
            "velocity": 0.7480314960629921
          },
          {
            "duration": 0.8999999999999773,
            "durationTicks": 864,
            "midi": 60,
            "name": "C4",
            "ticks": 312000,
            "time": 325,
            "velocity": 0.7480314960629921
          },
          {
            "duration": 0.8999999999999773,
            "durationTicks": 864,
            "midi": 48,
            "name": "C3",
            "ticks": 312960,
            "time": 326,
            "velocity": 0.8031496062992126
          },
          {
            "duration": 0.8999999999999773,
            "durationTicks": 864,
            "midi": 60,
            "name": "C4",
            "ticks": 312960,
            "time": 326,
            "velocity": 0.8031496062992126
          },
          {
            "duration": 1.0197916666666629,
            "durationTicks": 979,
            "midi": 55,
            "name": "G3",
            "ticks": 315840,
            "time": 329,
            "velocity": 0.7637795275590551
          },
          {
            "duration": 0.9489583333333371,
            "durationTicks": 911,
            "midi": 56,
            "name": "G#3",
            "ticks": 316800,
            "time": 330,
            "velocity": 0.7322834645669292
          },
          {
            "duration": 1.0197916666666629,
            "durationTicks": 979,
            "midi": 58,
            "name": "A#3",
            "ticks": 319680,
            "time": 333,
            "velocity": 0.8818897637795275
          },
          {
            "duration": 0.9489583333333371,
            "durationTicks": 911,
            "midi": 51,
            "name": "D#3",
            "ticks": 320640,
            "time": 334,
            "velocity": 0.7874015748031497
          },
          {
            "duration": 0.8999999999999773,
            "durationTicks": 864,
            "midi": 53,
            "name": "F3",
            "ticks": 323520,
            "time": 337,
            "velocity": 0.84251968503937
          },
          {
            "duration": 0.8999999999999773,
            "durationTicks": 864,
            "midi": 54,
            "name": "F#3",
            "ticks": 325440,
            "time": 339,
            "velocity": 0.6771653543307087
          },
          {
            "duration": 0.8999999999999773,
            "durationTicks": 864,
            "midi": 53,
            "name": "F3",
            "ticks": 327360,
            "time": 341,
            "velocity": 0.5511811023622047
          },
          {
            "duration": 0.8999999999999773,
            "durationTicks": 864,
            "midi": 54,
            "name": "F#3",
            "ticks": 329280,
            "time": 343,
            "velocity": 0.49606299212598426
          },
          {
            "duration": 0.8999999999999773,
            "durationTicks": 864,
            "midi": 54,
            "name": "F#3",
            "ticks": 331200,
            "time": 345,
            "velocity": 0.41732283464566927
          },
          {
            "duration": 0.8999999999999773,
            "durationTicks": 864,
            "midi": 54,
            "name": "F#3",
            "ticks": 333120,
            "time": 347,
            "velocity": 0.4409448818897638
          },
          {
            "duration": 0.8999999999999773,
            "durationTicks": 864,
            "midi": 50,
            "name": "D3",
            "ticks": 335040,
            "time": 349,
            "velocity": 0.3543307086614173
          },
          {
            "duration": 0.8999999999999773,
            "durationTicks": 864,
            "midi": 50,
            "name": "D3",
            "ticks": 336960,
            "time": 351,
            "velocity": 0.3779527559055118
          },
          {
            "duration": 0.8999999999999773,
            "durationTicks": 864,
            "midi": 50,
            "name": "D3",
            "ticks": 338880,
            "time": 353,
            "velocity": 0.3779527559055118
          },
          {
            "duration": 0.22604166666667425,
            "durationTicks": 217,
            "midi": 50,
            "name": "D3",
            "ticks": 340800,
            "time": 355,
            "velocity": 0.8976377952755905
          },
          {
            "duration": 0.22604166666667425,
            "durationTicks": 217,
            "midi": 50,
            "name": "D3",
            "ticks": 341040,
            "time": 355.25,
            "velocity": 1
          },
          {
            "duration": 0.22604166666667425,
            "durationTicks": 217,
            "midi": 62,
            "name": "D4",
            "ticks": 341040,
            "time": 355.25,
            "velocity": 1
          },
          {
            "duration": 0.22604166666667425,
            "durationTicks": 217,
            "midi": 50,
            "name": "D3",
            "ticks": 341280,
            "time": 355.5,
            "velocity": 0.9133858267716536
          },
          {
            "duration": 0.22604166666667425,
            "durationTicks": 217,
            "midi": 62,
            "name": "D4",
            "ticks": 341280,
            "time": 355.5,
            "velocity": 0.9133858267716536
          },
          {
            "duration": 0.22604166666667425,
            "durationTicks": 217,
            "midi": 50,
            "name": "D3",
            "ticks": 341520,
            "time": 355.75,
            "velocity": 0.905511811023622
          },
          {
            "duration": 0.22604166666667425,
            "durationTicks": 217,
            "midi": 62,
            "name": "D4",
            "ticks": 341520,
            "time": 355.75,
            "velocity": 0.905511811023622
          },
          {
            "duration": 0.8999999999999773,
            "durationTicks": 864,
            "midi": 50,
            "name": "D3",
            "ticks": 341760,
            "time": 356,
            "velocity": 0.8976377952755905
          },
          {
            "duration": 0.8999999999999773,
            "durationTicks": 864,
            "midi": 62,
            "name": "D4",
            "ticks": 341760,
            "time": 356,
            "velocity": 0.8976377952755905
          },
          {
            "duration": 0.8999999999999773,
            "durationTicks": 864,
            "midi": 50,
            "name": "D3",
            "ticks": 342720,
            "time": 357,
            "velocity": 0.8818897637795275
          },
          {
            "duration": 0.8999999999999773,
            "durationTicks": 864,
            "midi": 62,
            "name": "D4",
            "ticks": 342720,
            "time": 357,
            "velocity": 0.8818897637795275
          },
          {
            "duration": 1.8999999999999773,
            "durationTicks": 1824,
            "midi": 50,
            "name": "D3",
            "ticks": 343680,
            "time": 358,
            "velocity": 0.905511811023622
          },
          {
            "duration": 1.8999999999999773,
            "durationTicks": 1824,
            "midi": 62,
            "name": "D4",
            "ticks": 343680,
            "time": 358,
            "velocity": 0.905511811023622
          },
          {
            "duration": 0.8999999999999773,
            "durationTicks": 864,
            "midi": 53,
            "name": "F3",
            "ticks": 346560,
            "time": 361,
            "velocity": 0.33858267716535434
          },
          {
            "duration": 0.8999999999999773,
            "durationTicks": 864,
            "midi": 53,
            "name": "F3",
            "ticks": 348480,
            "time": 363,
            "velocity": 0.36220472440944884
          },
          {
            "duration": 0.8999999999999773,
            "durationTicks": 864,
            "midi": 53,
            "name": "F3",
            "ticks": 350400,
            "time": 365,
            "velocity": 0.4015748031496063
          },
          {
            "duration": 0.45104166666664014,
            "durationTicks": 433,
            "midi": 53,
            "name": "F3",
            "ticks": 352320,
            "time": 367,
            "velocity": 0.7401574803149606
          },
          {
            "duration": 0.22604166666667425,
            "durationTicks": 217,
            "midi": 56,
            "name": "G#3",
            "ticks": 353520,
            "time": 368.25,
            "velocity": 0.7244094488188977
          },
          {
            "duration": 0.22604166666667425,
            "durationTicks": 217,
            "midi": 56,
            "name": "G#3",
            "ticks": 353760,
            "time": 368.5,
            "velocity": 0.7086614173228346
          },
          {
            "duration": 0.22604166666667425,
            "durationTicks": 217,
            "midi": 56,
            "name": "G#3",
            "ticks": 354000,
            "time": 368.75,
            "velocity": 0.7637795275590551
          },
          {
            "duration": 1.2260416666666742,
            "durationTicks": 1177,
            "midi": 53,
            "name": "F3",
            "ticks": 354240,
            "time": 369,
            "velocity": 0.7480314960629921
          },
          {
            "duration": 0.22604166666667425,
            "durationTicks": 217,
            "midi": 56,
            "name": "G#3",
            "ticks": 355440,
            "time": 370.25,
            "velocity": 0.8188976377952756
          },
          {
            "duration": 0.22604166666667425,
            "durationTicks": 217,
            "midi": 56,
            "name": "G#3",
            "ticks": 355680,
            "time": 370.5,
            "velocity": 0.7874015748031497
          },
          {
            "duration": 0.22604166666667425,
            "durationTicks": 217,
            "midi": 56,
            "name": "G#3",
            "ticks": 355920,
            "time": 370.75,
            "velocity": 0.7480314960629921
          },
          {
            "duration": 1.2260416666666742,
            "durationTicks": 1177,
            "midi": 53,
            "name": "F3",
            "ticks": 356160,
            "time": 371,
            "velocity": 0.7322834645669292
          },
          {
            "duration": 0.22604166666667425,
            "durationTicks": 217,
            "midi": 56,
            "name": "G#3",
            "ticks": 357360,
            "time": 372.25,
            "velocity": 0.7795275590551181
          },
          {
            "duration": 0.22604166666667425,
            "durationTicks": 217,
            "midi": 56,
            "name": "G#3",
            "ticks": 357600,
            "time": 372.5,
            "velocity": 0.7874015748031497
          },
          {
            "duration": 0.22604166666667425,
            "durationTicks": 217,
            "midi": 56,
            "name": "G#3",
            "ticks": 357840,
            "time": 372.75,
            "velocity": 0.7874015748031497
          },
          {
            "duration": 0.22604166666667425,
            "durationTicks": 217,
            "midi": 53,
            "name": "F3",
            "ticks": 358080,
            "time": 373,
            "velocity": 0.7322834645669292
          },
          {
            "duration": 0.22604166666667425,
            "durationTicks": 217,
            "midi": 56,
            "name": "G#3",
            "ticks": 358320,
            "time": 373.25,
            "velocity": 0.7952755905511811
          },
          {
            "duration": 0.22604166666667425,
            "durationTicks": 217,
            "midi": 56,
            "name": "G#3",
            "ticks": 358560,
            "time": 373.5,
            "velocity": 0.7795275590551181
          },
          {
            "duration": 0.22604166666667425,
            "durationTicks": 217,
            "midi": 56,
            "name": "G#3",
            "ticks": 358800,
            "time": 373.75,
            "velocity": 0.7795275590551181
          },
          {
            "duration": 0.22604166666667425,
            "durationTicks": 217,
            "midi": 53,
            "name": "F3",
            "ticks": 359040,
            "time": 374,
            "velocity": 0.7559055118110236
          },
          {
            "duration": 0.22604166666667425,
            "durationTicks": 217,
            "midi": 56,
            "name": "G#3",
            "ticks": 359280,
            "time": 374.25,
            "velocity": 0.8188976377952756
          },
          {
            "duration": 0.22604166666667425,
            "durationTicks": 217,
            "midi": 56,
            "name": "G#3",
            "ticks": 359520,
            "time": 374.5,
            "velocity": 0.7559055118110236
          },
          {
            "duration": 0.22604166666667425,
            "durationTicks": 217,
            "midi": 56,
            "name": "G#3",
            "ticks": 359760,
            "time": 374.75,
            "velocity": 0.7559055118110236
          },
          {
            "duration": 0.22604166666667425,
            "durationTicks": 217,
            "midi": 53,
            "name": "F3",
            "ticks": 360000,
            "time": 375,
            "velocity": 0.7244094488188977
          },
          {
            "duration": 0.22604166666667425,
            "durationTicks": 217,
            "midi": 55,
            "name": "G3",
            "ticks": 360240,
            "time": 375.25,
            "velocity": 0.7874015748031497
          },
          {
            "duration": 0.22604166666667425,
            "durationTicks": 217,
            "midi": 55,
            "name": "G3",
            "ticks": 360480,
            "time": 375.5,
            "velocity": 0.7716535433070866
          },
          {
            "duration": 0.22604166666667425,
            "durationTicks": 217,
            "midi": 55,
            "name": "G3",
            "ticks": 360720,
            "time": 375.75,
            "velocity": 0.7716535433070866
          },
          {
            "duration": 1.5,
            "durationTicks": 1440,
            "midi": 51,
            "name": "D#3",
            "ticks": 360960,
            "time": 376,
            "velocity": 0.7244094488188977
          },
          {
            "duration": 0.22604166666667425,
            "durationTicks": 217,
            "midi": 53,
            "name": "F3",
            "ticks": 362640,
            "time": 377.75,
            "velocity": 0.7165354330708661
          },
          {
            "duration": 0.22604166666667425,
            "durationTicks": 217,
            "midi": 53,
            "name": "F3",
            "ticks": 362880,
            "time": 378,
            "velocity": 0.7795275590551181
          },
          {
            "duration": 0.22604166666667425,
            "durationTicks": 217,
            "midi": 53,
            "name": "F3",
            "ticks": 363120,
            "time": 378.25,
            "velocity": 0.7559055118110236
          },
          {
            "duration": 2.5,
            "durationTicks": 2400,
            "midi": 50,
            "name": "D3",
            "ticks": 363360,
            "time": 378.5,
            "velocity": 0.7559055118110236
          },
          {
            "duration": 0.22604166666667425,
            "durationTicks": 217,
            "midi": 51,
            "name": "D#3",
            "ticks": 376560,
            "time": 392.25,
            "velocity": 0.4409448818897638
          },
          {
            "duration": 0.22604166666667425,
            "durationTicks": 217,
            "midi": 51,
            "name": "D#3",
            "ticks": 376800,
            "time": 392.5,
            "velocity": 0.44881889763779526
          },
          {
            "duration": 0.22604166666667425,
            "durationTicks": 217,
            "midi": 53,
            "name": "F3",
            "ticks": 377040,
            "time": 392.75,
            "velocity": 0.47244094488188976
          },
          {
            "duration": 0.22604166666667425,
            "durationTicks": 217,
            "midi": 55,
            "name": "G3",
            "ticks": 377280,
            "time": 393,
            "velocity": 0.5275590551181102
          },
          {
            "duration": 0.22604166666667425,
            "durationTicks": 217,
            "midi": 55,
            "name": "G3",
            "ticks": 377520,
            "time": 393.25,
            "velocity": 0.5196850393700787
          },
          {
            "duration": 0.22604166666667425,
            "durationTicks": 217,
            "midi": 57,
            "name": "A3",
            "ticks": 377760,
            "time": 393.5,
            "velocity": 0.5196850393700787
          },
          {
            "duration": 0.22604166666667425,
            "durationTicks": 217,
            "midi": 59,
            "name": "B3",
            "ticks": 378000,
            "time": 393.75,
            "velocity": 0.47244094488188976
          },
          {
            "duration": 0.45104166666664014,
            "durationTicks": 433,
            "midi": 60,
            "name": "C4",
            "ticks": 378240,
            "time": 394,
            "velocity": 0.5905511811023622
          },
          {
            "duration": 0.45104166666664014,
            "durationTicks": 433,
            "midi": 56,
            "name": "G#3",
            "ticks": 379200,
            "time": 395,
            "velocity": 0.5669291338582677
          },
          {
            "duration": 0.45104166666664014,
            "durationTicks": 433,
            "midi": 55,
            "name": "G3",
            "ticks": 380160,
            "time": 396,
            "velocity": 0.6141732283464567
          },
          {
            "duration": 0.22604166666667425,
            "durationTicks": 217,
            "midi": 56,
            "name": "G#3",
            "ticks": 387600,
            "time": 403.75,
            "velocity": 0.4645669291338583
          },
          {
            "duration": 0.22604166666667425,
            "durationTicks": 217,
            "midi": 56,
            "name": "G#3",
            "ticks": 387840,
            "time": 404,
            "velocity": 0.4251968503937008
          },
          {
            "duration": 0.22604166666667425,
            "durationTicks": 217,
            "midi": 56,
            "name": "G#3",
            "ticks": 388080,
            "time": 404.25,
            "velocity": 0.47244094488188976
          },
          {
            "duration": 0.8999999999999773,
            "durationTicks": 864,
            "midi": 55,
            "name": "G3",
            "ticks": 388320,
            "time": 404.5,
            "velocity": 0.47244094488188976
          },
          {
            "duration": 0.22604166666667425,
            "durationTicks": 217,
            "midi": 55,
            "name": "G3",
            "ticks": 389280,
            "time": 405.5,
            "velocity": 0.49606299212598426
          },
          {
            "duration": 0.22604166666667425,
            "durationTicks": 217,
            "midi": 56,
            "name": "G#3",
            "ticks": 389520,
            "time": 405.75,
            "velocity": 0.4645669291338583
          },
          {
            "duration": 0.22604166666667425,
            "durationTicks": 217,
            "midi": 56,
            "name": "G#3",
            "ticks": 389760,
            "time": 406,
            "velocity": 0.4881889763779528
          },
          {
            "duration": 0.22604166666667425,
            "durationTicks": 217,
            "midi": 56,
            "name": "G#3",
            "ticks": 390000,
            "time": 406.25,
            "velocity": 0.47244094488188976
          },
          {
            "duration": 0.22604166666667425,
            "durationTicks": 217,
            "midi": 53,
            "name": "F3",
            "ticks": 390240,
            "time": 406.5,
            "velocity": 0.5196850393700787
          },
          {
            "duration": 0.22604166666667425,
            "durationTicks": 217,
            "midi": 50,
            "name": "D3",
            "ticks": 390480,
            "time": 406.75,
            "velocity": 0.5039370078740157
          },
          {
            "duration": 0.22604166666667425,
            "durationTicks": 217,
            "midi": 50,
            "name": "D3",
            "ticks": 390720,
            "time": 407,
            "velocity": 0.5905511811023622
          },
          {
            "duration": 0.22604166666667425,
            "durationTicks": 217,
            "midi": 50,
            "name": "D3",
            "ticks": 390960,
            "time": 407.25,
            "velocity": 0.5433070866141733
          },
          {
            "duration": 0.22604166666667425,
            "durationTicks": 217,
            "midi": 59,
            "name": "B3",
            "ticks": 391200,
            "time": 407.5,
            "velocity": 0.7480314960629921
          },
          {
            "duration": 0.22604166666667425,
            "durationTicks": 217,
            "midi": 56,
            "name": "G#3",
            "ticks": 391440,
            "time": 407.75,
            "velocity": 0.6771653543307087
          },
          {
            "duration": 0.22604166666667425,
            "durationTicks": 217,
            "midi": 56,
            "name": "G#3",
            "ticks": 391680,
            "time": 408,
            "velocity": 0.6692913385826772
          },
          {
            "duration": 0.22604166666667425,
            "durationTicks": 217,
            "midi": 56,
            "name": "G#3",
            "ticks": 391920,
            "time": 408.25,
            "velocity": 0.6614173228346457
          },
          {
            "duration": 0.22604166666667425,
            "durationTicks": 217,
            "midi": 55,
            "name": "G3",
            "ticks": 392160,
            "time": 408.5,
            "velocity": 0.6456692913385826
          },
          {
            "duration": 0.22604166666667425,
            "durationTicks": 217,
            "midi": 55,
            "name": "G3",
            "ticks": 392400,
            "time": 408.75,
            "velocity": 0.6614173228346457
          },
          {
            "duration": 0.22604166666667425,
            "durationTicks": 217,
            "midi": 55,
            "name": "G3",
            "ticks": 392640,
            "time": 409,
            "velocity": 0.7007874015748031
          },
          {
            "duration": 0.22604166666667425,
            "durationTicks": 217,
            "midi": 55,
            "name": "G3",
            "ticks": 392880,
            "time": 409.25,
            "velocity": 0.6535433070866141
          },
          {
            "duration": 0.22604166666667425,
            "durationTicks": 217,
            "midi": 55,
            "name": "G3",
            "ticks": 393120,
            "time": 409.5,
            "velocity": 0.7559055118110236
          },
          {
            "duration": 0.22604166666667425,
            "durationTicks": 217,
            "midi": 60,
            "name": "C4",
            "ticks": 393360,
            "time": 409.75,
            "velocity": 0.8661417322834646
          },
          {
            "duration": 0.22604166666667425,
            "durationTicks": 217,
            "midi": 63,
            "name": "D#4",
            "ticks": 393600,
            "time": 410,
            "velocity": 0.8346456692913385
          },
          {
            "duration": 0.22604166666667425,
            "durationTicks": 217,
            "midi": 63,
            "name": "D#4",
            "ticks": 393840,
            "time": 410.25,
            "velocity": 0.8031496062992126
          },
          {
            "duration": 1.2260416666666742,
            "durationTicks": 1177,
            "midi": 62,
            "name": "D4",
            "ticks": 394080,
            "time": 410.5,
            "velocity": 0.7401574803149606
          },
          {
            "duration": 0.22604166666667425,
            "durationTicks": 217,
            "midi": 65,
            "name": "F4",
            "ticks": 395280,
            "time": 411.75,
            "velocity": 0.84251968503937
          },
          {
            "duration": 0.22604166666667425,
            "durationTicks": 217,
            "midi": 65,
            "name": "F4",
            "ticks": 395520,
            "time": 412,
            "velocity": 0.7637795275590551
          },
          {
            "duration": 0.22604166666667425,
            "durationTicks": 217,
            "midi": 62,
            "name": "D4",
            "ticks": 395760,
            "time": 412.25,
            "velocity": 0.6929133858267716
          },
          {
            "duration": 1.2260416666666742,
            "durationTicks": 1177,
            "midi": 63,
            "name": "D#4",
            "ticks": 396000,
            "time": 412.5,
            "velocity": 0.8188976377952756
          },
          {
            "duration": 0.22604166666667425,
            "durationTicks": 217,
            "midi": 63,
            "name": "D#4",
            "ticks": 397200,
            "time": 413.75,
            "velocity": 0.7322834645669292
          },
          {
            "duration": 0.22604166666667425,
            "durationTicks": 217,
            "midi": 63,
            "name": "D#4",
            "ticks": 397440,
            "time": 414,
            "velocity": 0.7559055118110236
          },
          {
            "duration": 0.22604166666667425,
            "durationTicks": 217,
            "midi": 60,
            "name": "C4",
            "ticks": 397680,
            "time": 414.25,
            "velocity": 0.6929133858267716
          },
          {
            "duration": 0.22604166666667425,
            "durationTicks": 217,
            "midi": 65,
            "name": "F4",
            "ticks": 397920,
            "time": 414.5,
            "velocity": 1
          },
          {
            "duration": 0.22604166666667425,
            "durationTicks": 217,
            "midi": 65,
            "name": "F4",
            "ticks": 398160,
            "time": 414.75,
            "velocity": 0.7874015748031497
          },
          {
            "duration": 0.22604166666667425,
            "durationTicks": 217,
            "midi": 65,
            "name": "F4",
            "ticks": 398400,
            "time": 415,
            "velocity": 0.7480314960629921
          },
          {
            "duration": 0.22604166666667425,
            "durationTicks": 217,
            "midi": 59,
            "name": "B3",
            "ticks": 398640,
            "time": 415.25,
            "velocity": 0.6929133858267716
          },
          {
            "duration": 0.22604166666667425,
            "durationTicks": 217,
            "midi": 67,
            "name": "G4",
            "ticks": 398880,
            "time": 415.5,
            "velocity": 1
          },
          {
            "duration": 0.22604166666667425,
            "durationTicks": 217,
            "midi": 67,
            "name": "G4",
            "ticks": 399120,
            "time": 415.75,
            "velocity": 0.7874015748031497
          },
          {
            "duration": 0.22604166666667425,
            "durationTicks": 217,
            "midi": 67,
            "name": "G4",
            "ticks": 399360,
            "time": 416,
            "velocity": 0.7559055118110236
          },
          {
            "duration": 0.22604166666667425,
            "durationTicks": 217,
            "midi": 58,
            "name": "A#3",
            "ticks": 399600,
            "time": 416.25,
            "velocity": 0.7007874015748031
          },
          {
            "duration": 0.22604166666667425,
            "durationTicks": 217,
            "midi": 68,
            "name": "G#4",
            "ticks": 399840,
            "time": 416.5,
            "velocity": 1
          },
          {
            "duration": 0.22604166666667425,
            "durationTicks": 217,
            "midi": 56,
            "name": "G#3",
            "ticks": 400080,
            "time": 416.75,
            "velocity": 0.6929133858267716
          },
          {
            "duration": 0.22604166666667425,
            "durationTicks": 217,
            "midi": 56,
            "name": "G#3",
            "ticks": 400320,
            "time": 417,
            "velocity": 0.7559055118110236
          },
          {
            "duration": 0.22604166666667425,
            "durationTicks": 217,
            "midi": 53,
            "name": "F3",
            "ticks": 400560,
            "time": 417.25,
            "velocity": 0.7637795275590551
          },
          {
            "duration": 0.22604166666667425,
            "durationTicks": 217,
            "midi": 58,
            "name": "A#3",
            "ticks": 400800,
            "time": 417.5,
            "velocity": 0.9212598425196851
          },
          {
            "duration": 0.22604166666667425,
            "durationTicks": 217,
            "midi": 58,
            "name": "A#3",
            "ticks": 401040,
            "time": 417.75,
            "velocity": 0.7952755905511811
          },
          {
            "duration": 0.22604166666667425,
            "durationTicks": 217,
            "midi": 58,
            "name": "A#3",
            "ticks": 401280,
            "time": 418,
            "velocity": 0.7637795275590551
          },
          {
            "duration": 0.22604166666667425,
            "durationTicks": 217,
            "midi": 55,
            "name": "G3",
            "ticks": 401520,
            "time": 418.25,
            "velocity": 0.7165354330708661
          },
          {
            "duration": 0.22604166666667425,
            "durationTicks": 217,
            "midi": 60,
            "name": "C4",
            "ticks": 401760,
            "time": 418.5,
            "velocity": 1
          },
          {
            "duration": 0.22604166666667425,
            "durationTicks": 217,
            "midi": 60,
            "name": "C4",
            "ticks": 402000,
            "time": 418.75,
            "velocity": 0.8031496062992126
          },
          {
            "duration": 0.22604166666667425,
            "durationTicks": 217,
            "midi": 60,
            "name": "C4",
            "ticks": 402240,
            "time": 419,
            "velocity": 0.7795275590551181
          },
          {
            "duration": 0.22604166666667425,
            "durationTicks": 217,
            "midi": 56,
            "name": "G#3",
            "ticks": 402480,
            "time": 419.25,
            "velocity": 0.7165354330708661
          },
          {
            "duration": 0.22604166666667425,
            "durationTicks": 217,
            "midi": 65,
            "name": "F4",
            "ticks": 402720,
            "time": 419.5,
            "velocity": 1
          },
          {
            "duration": 0.22604166666667425,
            "durationTicks": 217,
            "midi": 65,
            "name": "F4",
            "ticks": 402960,
            "time": 419.75,
            "velocity": 0.8031496062992126
          },
          {
            "duration": 0.22604166666667425,
            "durationTicks": 217,
            "midi": 65,
            "name": "F4",
            "ticks": 403200,
            "time": 420,
            "velocity": 0.7716535433070866
          },
          {
            "duration": 0.22604166666667425,
            "durationTicks": 217,
            "midi": 62,
            "name": "D4",
            "ticks": 403440,
            "time": 420.25,
            "velocity": 0.6929133858267716
          },
          {
            "duration": 0.22604166666667425,
            "durationTicks": 217,
            "midi": 63,
            "name": "D#4",
            "ticks": 403680,
            "time": 420.5,
            "velocity": 0.7874015748031497
          },
          {
            "duration": 0.22604166666667425,
            "durationTicks": 217,
            "midi": 48,
            "name": "C3",
            "ticks": 403920,
            "time": 420.75,
            "velocity": 0.7007874015748031
          },
          {
            "duration": 0.22604166666667425,
            "durationTicks": 217,
            "midi": 51,
            "name": "D#3",
            "ticks": 403920,
            "time": 420.75,
            "velocity": 0.7007874015748031
          },
          {
            "duration": 0.22604166666667425,
            "durationTicks": 217,
            "midi": 48,
            "name": "C3",
            "ticks": 404160,
            "time": 421,
            "velocity": 0.7244094488188977
          },
          {
            "duration": 0.22604166666667425,
            "durationTicks": 217,
            "midi": 51,
            "name": "D#3",
            "ticks": 404160,
            "time": 421,
            "velocity": 0.7244094488188977
          },
          {
            "duration": 0.22604166666667425,
            "durationTicks": 217,
            "midi": 48,
            "name": "C3",
            "ticks": 404400,
            "time": 421.25,
            "velocity": 0.7480314960629921
          },
          {
            "duration": 0.22604166666667425,
            "durationTicks": 217,
            "midi": 51,
            "name": "D#3",
            "ticks": 404400,
            "time": 421.25,
            "velocity": 0.7480314960629921
          },
          {
            "duration": 0.22604166666667425,
            "durationTicks": 217,
            "midi": 48,
            "name": "C3",
            "ticks": 404640,
            "time": 421.5,
            "velocity": 0.7559055118110236
          },
          {
            "duration": 0.22604166666667425,
            "durationTicks": 217,
            "midi": 51,
            "name": "D#3",
            "ticks": 404640,
            "time": 421.5,
            "velocity": 0.7559055118110236
          },
          {
            "duration": 0.22604166666667425,
            "durationTicks": 217,
            "midi": 48,
            "name": "C3",
            "ticks": 404880,
            "time": 421.75,
            "velocity": 0.7874015748031497
          },
          {
            "duration": 0.22604166666667425,
            "durationTicks": 217,
            "midi": 51,
            "name": "D#3",
            "ticks": 404880,
            "time": 421.75,
            "velocity": 0.7874015748031497
          },
          {
            "duration": 0.22604166666667425,
            "durationTicks": 217,
            "midi": 48,
            "name": "C3",
            "ticks": 405120,
            "time": 422,
            "velocity": 0.8110236220472441
          },
          {
            "duration": 0.22604166666667425,
            "durationTicks": 217,
            "midi": 51,
            "name": "D#3",
            "ticks": 405120,
            "time": 422,
            "velocity": 0.8110236220472441
          },
          {
            "duration": 0.22604166666667425,
            "durationTicks": 217,
            "midi": 48,
            "name": "C3",
            "ticks": 405360,
            "time": 422.25,
            "velocity": 0.7401574803149606
          },
          {
            "duration": 0.22604166666667425,
            "durationTicks": 217,
            "midi": 51,
            "name": "D#3",
            "ticks": 405360,
            "time": 422.25,
            "velocity": 0.7401574803149606
          },
          {
            "duration": 0.22604166666667425,
            "durationTicks": 217,
            "midi": 48,
            "name": "C3",
            "ticks": 405600,
            "time": 422.5,
            "velocity": 0.8110236220472441
          },
          {
            "duration": 0.22604166666667425,
            "durationTicks": 217,
            "midi": 51,
            "name": "D#3",
            "ticks": 405600,
            "time": 422.5,
            "velocity": 0.8110236220472441
          },
          {
            "duration": 0.22604166666667425,
            "durationTicks": 217,
            "midi": 48,
            "name": "C3",
            "ticks": 405840,
            "time": 422.75,
            "velocity": 0.7795275590551181
          },
          {
            "duration": 0.22604166666667425,
            "durationTicks": 217,
            "midi": 51,
            "name": "D#3",
            "ticks": 405840,
            "time": 422.75,
            "velocity": 0.7795275590551181
          },
          {
            "duration": 0.22604166666667425,
            "durationTicks": 217,
            "midi": 48,
            "name": "C3",
            "ticks": 406080,
            "time": 423,
            "velocity": 0.7952755905511811
          },
          {
            "duration": 0.22604166666667425,
            "durationTicks": 217,
            "midi": 51,
            "name": "D#3",
            "ticks": 406080,
            "time": 423,
            "velocity": 0.7952755905511811
          },
          {
            "duration": 0.22604166666667425,
            "durationTicks": 217,
            "midi": 48,
            "name": "C3",
            "ticks": 406320,
            "time": 423.25,
            "velocity": 0.7559055118110236
          },
          {
            "duration": 0.22604166666667425,
            "durationTicks": 217,
            "midi": 51,
            "name": "D#3",
            "ticks": 406320,
            "time": 423.25,
            "velocity": 0.7559055118110236
          },
          {
            "duration": 0.22604166666667425,
            "durationTicks": 217,
            "midi": 48,
            "name": "C3",
            "ticks": 406560,
            "time": 423.5,
            "velocity": 0.8110236220472441
          },
          {
            "duration": 0.22604166666667425,
            "durationTicks": 217,
            "midi": 51,
            "name": "D#3",
            "ticks": 406560,
            "time": 423.5,
            "velocity": 0.8110236220472441
          },
          {
            "duration": 0.22604166666667425,
            "durationTicks": 217,
            "midi": 48,
            "name": "C3",
            "ticks": 406800,
            "time": 423.75,
            "velocity": 0.7716535433070866
          },
          {
            "duration": 0.22604166666667425,
            "durationTicks": 217,
            "midi": 51,
            "name": "D#3",
            "ticks": 406800,
            "time": 423.75,
            "velocity": 0.7716535433070866
          },
          {
            "duration": 0.22604166666667425,
            "durationTicks": 217,
            "midi": 48,
            "name": "C3",
            "ticks": 407040,
            "time": 424,
            "velocity": 0.7480314960629921
          },
          {
            "duration": 0.22604166666667425,
            "durationTicks": 217,
            "midi": 51,
            "name": "D#3",
            "ticks": 407040,
            "time": 424,
            "velocity": 0.7480314960629921
          },
          {
            "duration": 0.22604166666667425,
            "durationTicks": 217,
            "midi": 48,
            "name": "C3",
            "ticks": 407280,
            "time": 424.25,
            "velocity": 0.7401574803149606
          },
          {
            "duration": 0.22604166666667425,
            "durationTicks": 217,
            "midi": 51,
            "name": "D#3",
            "ticks": 407280,
            "time": 424.25,
            "velocity": 0.7401574803149606
          },
          {
            "duration": 0.22604166666667425,
            "durationTicks": 217,
            "midi": 50,
            "name": "D3",
            "ticks": 407520,
            "time": 424.5,
            "velocity": 0.7874015748031497
          },
          {
            "duration": 0.22604166666667425,
            "durationTicks": 217,
            "midi": 53,
            "name": "F3",
            "ticks": 407520,
            "time": 424.5,
            "velocity": 0.7874015748031497
          },
          {
            "duration": 0.22604166666667425,
            "durationTicks": 217,
            "midi": 50,
            "name": "D3",
            "ticks": 407760,
            "time": 424.75,
            "velocity": 0.7716535433070866
          },
          {
            "duration": 0.22604166666667425,
            "durationTicks": 217,
            "midi": 53,
            "name": "F3",
            "ticks": 407760,
            "time": 424.75,
            "velocity": 0.7716535433070866
          },
          {
            "duration": 0.22604166666667425,
            "durationTicks": 217,
            "midi": 50,
            "name": "D3",
            "ticks": 408000,
            "time": 425,
            "velocity": 0.7874015748031497
          },
          {
            "duration": 0.22604166666667425,
            "durationTicks": 217,
            "midi": 53,
            "name": "F3",
            "ticks": 408000,
            "time": 425,
            "velocity": 0.7874015748031497
          },
          {
            "duration": 0.22604166666667425,
            "durationTicks": 217,
            "midi": 50,
            "name": "D3",
            "ticks": 408240,
            "time": 425.25,
            "velocity": 0.7401574803149606
          },
          {
            "duration": 0.22604166666667425,
            "durationTicks": 217,
            "midi": 53,
            "name": "F3",
            "ticks": 408240,
            "time": 425.25,
            "velocity": 0.7401574803149606
          },
          {
            "duration": 0.22604166666667425,
            "durationTicks": 217,
            "midi": 50,
            "name": "D3",
            "ticks": 408480,
            "time": 425.5,
            "velocity": 0.7952755905511811
          },
          {
            "duration": 0.22604166666667425,
            "durationTicks": 217,
            "midi": 53,
            "name": "F3",
            "ticks": 408480,
            "time": 425.5,
            "velocity": 0.7952755905511811
          },
          {
            "duration": 0.22604166666667425,
            "durationTicks": 217,
            "midi": 50,
            "name": "D3",
            "ticks": 408720,
            "time": 425.75,
            "velocity": 0.7795275590551181
          },
          {
            "duration": 0.22604166666667425,
            "durationTicks": 217,
            "midi": 53,
            "name": "F3",
            "ticks": 408720,
            "time": 425.75,
            "velocity": 0.7795275590551181
          },
          {
            "duration": 0.22604166666667425,
            "durationTicks": 217,
            "midi": 50,
            "name": "D3",
            "ticks": 408960,
            "time": 426,
            "velocity": 0.7716535433070866
          },
          {
            "duration": 0.22604166666667425,
            "durationTicks": 217,
            "midi": 53,
            "name": "F3",
            "ticks": 408960,
            "time": 426,
            "velocity": 0.7716535433070866
          },
          {
            "duration": 0.22604166666667425,
            "durationTicks": 217,
            "midi": 50,
            "name": "D3",
            "ticks": 409200,
            "time": 426.25,
            "velocity": 0.7795275590551181
          },
          {
            "duration": 0.22604166666667425,
            "durationTicks": 217,
            "midi": 53,
            "name": "F3",
            "ticks": 409200,
            "time": 426.25,
            "velocity": 0.7795275590551181
          },
          {
            "duration": 0.22604166666667425,
            "durationTicks": 217,
            "midi": 50,
            "name": "D3",
            "ticks": 409440,
            "time": 426.5,
            "velocity": 0.7952755905511811
          },
          {
            "duration": 0.22604166666667425,
            "durationTicks": 217,
            "midi": 53,
            "name": "F3",
            "ticks": 409440,
            "time": 426.5,
            "velocity": 0.7952755905511811
          },
          {
            "duration": 0.22604166666667425,
            "durationTicks": 217,
            "midi": 50,
            "name": "D3",
            "ticks": 409680,
            "time": 426.75,
            "velocity": 0.7559055118110236
          },
          {
            "duration": 0.22604166666667425,
            "durationTicks": 217,
            "midi": 53,
            "name": "F3",
            "ticks": 409680,
            "time": 426.75,
            "velocity": 0.7559055118110236
          },
          {
            "duration": 0.22604166666667425,
            "durationTicks": 217,
            "midi": 50,
            "name": "D3",
            "ticks": 409920,
            "time": 427,
            "velocity": 0.8031496062992126
          },
          {
            "duration": 0.22604166666667425,
            "durationTicks": 217,
            "midi": 53,
            "name": "F3",
            "ticks": 409920,
            "time": 427,
            "velocity": 0.8031496062992126
          },
          {
            "duration": 0.22604166666667425,
            "durationTicks": 217,
            "midi": 50,
            "name": "D3",
            "ticks": 410160,
            "time": 427.25,
            "velocity": 0.7637795275590551
          },
          {
            "duration": 0.22604166666667425,
            "durationTicks": 217,
            "midi": 53,
            "name": "F3",
            "ticks": 410160,
            "time": 427.25,
            "velocity": 0.7637795275590551
          },
          {
            "duration": 0.22604166666667425,
            "durationTicks": 217,
            "midi": 50,
            "name": "D3",
            "ticks": 410400,
            "time": 427.5,
            "velocity": 0.7559055118110236
          },
          {
            "duration": 0.22604166666667425,
            "durationTicks": 217,
            "midi": 53,
            "name": "F3",
            "ticks": 410400,
            "time": 427.5,
            "velocity": 0.7559055118110236
          },
          {
            "duration": 0.22604166666667425,
            "durationTicks": 217,
            "midi": 50,
            "name": "D3",
            "ticks": 410640,
            "time": 427.75,
            "velocity": 0.7716535433070866
          },
          {
            "duration": 0.22604166666667425,
            "durationTicks": 217,
            "midi": 53,
            "name": "F3",
            "ticks": 410640,
            "time": 427.75,
            "velocity": 0.7716535433070866
          },
          {
            "duration": 0.22604166666667425,
            "durationTicks": 217,
            "midi": 48,
            "name": "C3",
            "ticks": 410880,
            "time": 428,
            "velocity": 0.7244094488188977
          },
          {
            "duration": 0.22604166666667425,
            "durationTicks": 217,
            "midi": 51,
            "name": "D#3",
            "ticks": 410880,
            "time": 428,
            "velocity": 0.7244094488188977
          },
          {
            "duration": 0.22604166666667425,
            "durationTicks": 217,
            "midi": 48,
            "name": "C3",
            "ticks": 411120,
            "time": 428.25,
            "velocity": 0.7716535433070866
          },
          {
            "duration": 0.22604166666667425,
            "durationTicks": 217,
            "midi": 51,
            "name": "D#3",
            "ticks": 411120,
            "time": 428.25,
            "velocity": 0.7716535433070866
          },
          {
            "duration": 0.22604166666667425,
            "durationTicks": 217,
            "midi": 51,
            "name": "D#3",
            "ticks": 411360,
            "time": 428.5,
            "velocity": 0.952755905511811
          },
          {
            "duration": 0.22604166666667425,
            "durationTicks": 217,
            "midi": 57,
            "name": "A3",
            "ticks": 411360,
            "time": 428.5,
            "velocity": 0.952755905511811
          },
          {
            "duration": 0.22604166666667425,
            "durationTicks": 217,
            "midi": 75,
            "name": "D#5",
            "ticks": 411600,
            "time": 428.75,
            "velocity": 1
          },
          {
            "duration": 0.22604166666667425,
            "durationTicks": 217,
            "midi": 75,
            "name": "D#5",
            "ticks": 411840,
            "time": 429,
            "velocity": 0.984251968503937
          },
          {
            "duration": 0.22604166666667425,
            "durationTicks": 217,
            "midi": 75,
            "name": "D#5",
            "ticks": 412080,
            "time": 429.25,
            "velocity": 0.8582677165354331
          },
          {
            "duration": 0.22604166666667425,
            "durationTicks": 217,
            "midi": 72,
            "name": "C5",
            "ticks": 412320,
            "time": 429.5,
            "velocity": 0.8503937007874016
          },
          {
            "duration": 0.22604166666667425,
            "durationTicks": 217,
            "midi": 69,
            "name": "A4",
            "ticks": 412560,
            "time": 429.75,
            "velocity": 0.7874015748031497
          },
          {
            "duration": 0.22604166666667425,
            "durationTicks": 217,
            "midi": 69,
            "name": "A4",
            "ticks": 412800,
            "time": 430,
            "velocity": 0.889763779527559
          },
          {
            "duration": 0.22604166666667425,
            "durationTicks": 217,
            "midi": 69,
            "name": "A4",
            "ticks": 413040,
            "time": 430.25,
            "velocity": 0.84251968503937
          },
          {
            "duration": 0.22604166666667425,
            "durationTicks": 217,
            "midi": 66,
            "name": "F#4",
            "ticks": 413280,
            "time": 430.5,
            "velocity": 0.7952755905511811
          },
          {
            "duration": 0.22604166666667425,
            "durationTicks": 217,
            "midi": 63,
            "name": "D#4",
            "ticks": 413520,
            "time": 430.75,
            "velocity": 0.7952755905511811
          },
          {
            "duration": 0.22604166666667425,
            "durationTicks": 217,
            "midi": 63,
            "name": "D#4",
            "ticks": 413760,
            "time": 431,
            "velocity": 0.8740157480314961
          },
          {
            "duration": 0.22604166666667425,
            "durationTicks": 217,
            "midi": 63,
            "name": "D#4",
            "ticks": 414000,
            "time": 431.25,
            "velocity": 0.8661417322834646
          },
          {
            "duration": 0.22604166666667425,
            "durationTicks": 217,
            "midi": 60,
            "name": "C4",
            "ticks": 414240,
            "time": 431.5,
            "velocity": 0.8188976377952756
          },
          {
            "duration": 0.22604166666667425,
            "durationTicks": 217,
            "midi": 57,
            "name": "A3",
            "ticks": 414480,
            "time": 431.75,
            "velocity": 0.8503937007874016
          },
          {
            "duration": 0.22604166666667425,
            "durationTicks": 217,
            "midi": 57,
            "name": "A3",
            "ticks": 414720,
            "time": 432,
            "velocity": 0.8818897637795275
          },
          {
            "duration": 0.22604166666667425,
            "durationTicks": 217,
            "midi": 57,
            "name": "A3",
            "ticks": 414960,
            "time": 432.25,
            "velocity": 0.905511811023622
          },
          {
            "duration": 0.45104166666664014,
            "durationTicks": 433,
            "midi": 60,
            "name": "C4",
            "ticks": 415200,
            "time": 432.5,
            "velocity": 0.984251968503937
          },
          {
            "duration": 0.45104166666664014,
            "durationTicks": 433,
            "midi": 59,
            "name": "B3",
            "ticks": 417120,
            "time": 434.5,
            "velocity": 0.8188976377952756
          },
          {
            "duration": 0.45104166666664014,
            "durationTicks": 433,
            "midi": 62,
            "name": "D4",
            "ticks": 417120,
            "time": 434.5,
            "velocity": 0.8188976377952756
          },
          {
            "duration": 1.0197916666666629,
            "durationTicks": 979,
            "midi": 60,
            "name": "C4",
            "ticks": 421920,
            "time": 439.5,
            "velocity": 0.4645669291338583
          },
          {
            "duration": 0.9489583333333371,
            "durationTicks": 911,
            "midi": 62,
            "name": "D4",
            "ticks": 422880,
            "time": 440.5,
            "velocity": 0.47244094488188976
          },
          {
            "duration": 1.0197916666666629,
            "durationTicks": 979,
            "midi": 59,
            "name": "B3",
            "ticks": 423840,
            "time": 441.5,
            "velocity": 0.5039370078740157
          },
          {
            "duration": 0.9489583333333371,
            "durationTicks": 911,
            "midi": 60,
            "name": "C4",
            "ticks": 424800,
            "time": 442.5,
            "velocity": 0.5275590551181102
          },
          {
            "duration": 1.0197916666666629,
            "durationTicks": 979,
            "midi": 60,
            "name": "C4",
            "ticks": 429600,
            "time": 447.5,
            "velocity": 0.4881889763779528
          },
          {
            "duration": 0.9489583333333371,
            "durationTicks": 911,
            "midi": 62,
            "name": "D4",
            "ticks": 430560,
            "time": 448.5,
            "velocity": 0.47244094488188976
          },
          {
            "duration": 1.0197916666666629,
            "durationTicks": 979,
            "midi": 59,
            "name": "B3",
            "ticks": 431520,
            "time": 449.5,
            "velocity": 0.4645669291338583
          },
          {
            "duration": 0.9489583333333371,
            "durationTicks": 911,
            "midi": 60,
            "name": "C4",
            "ticks": 432480,
            "time": 450.5,
            "velocity": 0.4566929133858268
          },
          {
            "duration": 1.0197916666666629,
            "durationTicks": 979,
            "midi": 67,
            "name": "G4",
            "ticks": 437280,
            "time": 455.5,
            "velocity": 0.5511811023622047
          },
          {
            "duration": 0.9489583333333371,
            "durationTicks": 911,
            "midi": 64,
            "name": "E4",
            "ticks": 438240,
            "time": 456.5,
            "velocity": 0.5118110236220472
          },
          {
            "duration": 1.0197916666666629,
            "durationTicks": 979,
            "midi": 64,
            "name": "E4",
            "ticks": 439200,
            "time": 457.5,
            "velocity": 0.4645669291338583
          },
          {
            "duration": 0.9489583333333371,
            "durationTicks": 911,
            "midi": 60,
            "name": "C4",
            "ticks": 440160,
            "time": 458.5,
            "velocity": 0.4094488188976378
          },
          {
            "duration": 1.0197916666666629,
            "durationTicks": 979,
            "midi": 65,
            "name": "F4",
            "ticks": 441120,
            "time": 459.5,
            "velocity": 0.5511811023622047
          },
          {
            "duration": 0.9489583333333371,
            "durationTicks": 911,
            "midi": 66,
            "name": "F#4",
            "ticks": 442080,
            "time": 460.5,
            "velocity": 0.5984251968503937
          },
          {
            "duration": 1.0197916666666629,
            "durationTicks": 979,
            "midi": 66,
            "name": "F#4",
            "ticks": 443040,
            "time": 461.5,
            "velocity": 0.4645669291338583
          },
          {
            "duration": 0.9489583333333371,
            "durationTicks": 911,
            "midi": 62,
            "name": "D4",
            "ticks": 444000,
            "time": 462.5,
            "velocity": 0.4251968503937008
          },
          {
            "duration": 0.22604166666667425,
            "durationTicks": 217,
            "midi": 56,
            "name": "G#3",
            "ticks": 446160,
            "time": 464.75,
            "velocity": 0.4409448818897638
          },
          {
            "duration": 0.22604166666667425,
            "durationTicks": 217,
            "midi": 56,
            "name": "G#3",
            "ticks": 446400,
            "time": 465,
            "velocity": 0.4645669291338583
          },
          {
            "duration": 0.22604166666667425,
            "durationTicks": 217,
            "midi": 56,
            "name": "G#3",
            "ticks": 446640,
            "time": 465.25,
            "velocity": 0.47244094488188976
          },
          {
            "duration": 0.45104166666664014,
            "durationTicks": 433,
            "midi": 56,
            "name": "G#3",
            "ticks": 446880,
            "time": 465.5,
            "velocity": 0.4645669291338583
          },
          {
            "duration": 0.22604166666667425,
            "durationTicks": 217,
            "midi": 59,
            "name": "B3",
            "ticks": 448080,
            "time": 466.75,
            "velocity": 0.41732283464566927
          },
          {
            "duration": 0.22604166666667425,
            "durationTicks": 217,
            "midi": 59,
            "name": "B3",
            "ticks": 448320,
            "time": 467,
            "velocity": 0.48031496062992124
          },
          {
            "duration": 0.22604166666667425,
            "durationTicks": 217,
            "midi": 59,
            "name": "B3",
            "ticks": 448560,
            "time": 467.25,
            "velocity": 0.4251968503937008
          },
          {
            "duration": 0.45104166666664014,
            "durationTicks": 433,
            "midi": 59,
            "name": "B3",
            "ticks": 448800,
            "time": 467.5,
            "velocity": 0.4881889763779528
          },
          {
            "duration": 0.5093749999999773,
            "durationTicks": 489,
            "midi": 53,
            "name": "F3",
            "ticks": 450720,
            "time": 469.5,
            "velocity": 0.44881889763779526
          },
          {
            "duration": 0.47500000000002274,
            "durationTicks": 456,
            "midi": 55,
            "name": "G3",
            "ticks": 451200,
            "time": 470,
            "velocity": 0.5354330708661418
          },
          {
            "duration": 0.5093749999999773,
            "durationTicks": 489,
            "midi": 56,
            "name": "G#3",
            "ticks": 451680,
            "time": 470.5,
            "velocity": 0.5433070866141733
          },
          {
            "duration": 0.5093749999999773,
            "durationTicks": 489,
            "midi": 55,
            "name": "G3",
            "ticks": 452160,
            "time": 471,
            "velocity": 0.5590551181102362
          },
          {
            "duration": 0.5093749999999773,
            "durationTicks": 489,
            "midi": 54,
            "name": "F#3",
            "ticks": 452640,
            "time": 471.5,
            "velocity": 0.5590551181102362
          },
          {
            "duration": 0.47500000000002274,
            "durationTicks": 456,
            "midi": 55,
            "name": "G3",
            "ticks": 453120,
            "time": 472,
            "velocity": 0.5511811023622047
          },
          {
            "duration": 0.5093749999999773,
            "durationTicks": 489,
            "midi": 57,
            "name": "A3",
            "ticks": 453600,
            "time": 472.5,
            "velocity": 0.5905511811023622
          },
          {
            "duration": 0.5093749999999773,
            "durationTicks": 489,
            "midi": 55,
            "name": "G3",
            "ticks": 454080,
            "time": 473,
            "velocity": 0.5748031496062992
          },
          {
            "duration": 0.5093749999999773,
            "durationTicks": 489,
            "midi": 54,
            "name": "F#3",
            "ticks": 454560,
            "time": 473.5,
            "velocity": 0.5748031496062992
          },
          {
            "duration": 0.47500000000002274,
            "durationTicks": 456,
            "midi": 55,
            "name": "G3",
            "ticks": 455040,
            "time": 474,
            "velocity": 0.6535433070866141
          },
          {
            "duration": 0.5093749999999773,
            "durationTicks": 489,
            "midi": 57,
            "name": "A3",
            "ticks": 455520,
            "time": 474.5,
            "velocity": 0.6771653543307087
          },
          {
            "duration": 0.5093749999999773,
            "durationTicks": 489,
            "midi": 55,
            "name": "G3",
            "ticks": 456000,
            "time": 475,
            "velocity": 0.6535433070866141
          },
          {
            "duration": 0.5093749999999773,
            "durationTicks": 489,
            "midi": 54,
            "name": "F#3",
            "ticks": 456480,
            "time": 475.5,
            "velocity": 0.6535433070866141
          },
          {
            "duration": 0.5093749999999773,
            "durationTicks": 489,
            "midi": 55,
            "name": "G3",
            "ticks": 456960,
            "time": 476,
            "velocity": 0.6692913385826772
          },
          {
            "duration": 0.5093749999999773,
            "durationTicks": 489,
            "midi": 54,
            "name": "F#3",
            "ticks": 457440,
            "time": 476.5,
            "velocity": 0.7480314960629921
          },
          {
            "duration": 0.5093749999999773,
            "durationTicks": 489,
            "midi": 55,
            "name": "G3",
            "ticks": 457920,
            "time": 477,
            "velocity": 0.7480314960629921
          },
          {
            "duration": 0.5093749999999773,
            "durationTicks": 489,
            "midi": 54,
            "name": "F#3",
            "ticks": 458400,
            "time": 477.5,
            "velocity": 0.7716535433070866
          },
          {
            "duration": 0.47500000000002274,
            "durationTicks": 456,
            "midi": 55,
            "name": "G3",
            "ticks": 458880,
            "time": 478,
            "velocity": 0.7795275590551181
          },
          {
            "duration": 1.4510416666666401,
            "durationTicks": 1393,
            "midi": 55,
            "name": "G3",
            "ticks": 459360,
            "time": 478.5,
            "velocity": 1
          },
          {
            "duration": 1.4510416666666401,
            "durationTicks": 1393,
            "midi": 65,
            "name": "F4",
            "ticks": 459360,
            "time": 478.5,
            "velocity": 1
          },
          {
            "duration": 0.22604166666667425,
            "durationTicks": 217,
            "midi": 50,
            "name": "D3",
            "ticks": 460800,
            "time": 480,
            "velocity": 0.7637795275590551
          },
          {
            "duration": 0.22604166666667425,
            "durationTicks": 217,
            "midi": 50,
            "name": "D3",
            "ticks": 461040,
            "time": 480.25,
            "velocity": 0.8740157480314961
          },
          {
            "duration": 0.22604166666667425,
            "durationTicks": 217,
            "midi": 52,
            "name": "E3",
            "ticks": 461280,
            "time": 480.5,
            "velocity": 0.889763779527559
          },
          {
            "duration": 0.22604166666667425,
            "durationTicks": 217,
            "midi": 52,
            "name": "E3",
            "ticks": 461520,
            "time": 480.75,
            "velocity": 0.8976377952755905
          },
          {
            "duration": 0.22604166666667425,
            "durationTicks": 217,
            "midi": 55,
            "name": "G3",
            "ticks": 461760,
            "time": 481,
            "velocity": 0.9133858267716536
          },
          {
            "duration": 0.22604166666667425,
            "durationTicks": 217,
            "midi": 55,
            "name": "G3",
            "ticks": 462000,
            "time": 481.25,
            "velocity": 0.8976377952755905
          },
          {
            "duration": 0.22604166666667425,
            "durationTicks": 217,
            "midi": 53,
            "name": "F3",
            "ticks": 462240,
            "time": 481.5,
            "velocity": 0.8976377952755905
          },
          {
            "duration": 0.22604166666667425,
            "durationTicks": 217,
            "midi": 53,
            "name": "F3",
            "ticks": 462480,
            "time": 481.75,
            "velocity": 0.8740157480314961
          },
          {
            "duration": 0.22604166666667425,
            "durationTicks": 217,
            "midi": 55,
            "name": "G3",
            "ticks": 462720,
            "time": 482,
            "velocity": 0.9133858267716536
          },
          {
            "duration": 0.22604166666667425,
            "durationTicks": 217,
            "midi": 55,
            "name": "G3",
            "ticks": 462960,
            "time": 482.25,
            "velocity": 0.8503937007874016
          },
          {
            "duration": 0.22604166666667425,
            "durationTicks": 217,
            "midi": 52,
            "name": "E3",
            "ticks": 463200,
            "time": 482.5,
            "velocity": 0.8818897637795275
          },
          {
            "duration": 0.22604166666667425,
            "durationTicks": 217,
            "midi": 52,
            "name": "E3",
            "ticks": 463440,
            "time": 482.75,
            "velocity": 0.8740157480314961
          },
          {
            "duration": 0.22604166666667425,
            "durationTicks": 217,
            "midi": 55,
            "name": "G3",
            "ticks": 463680,
            "time": 483,
            "velocity": 0.9448818897637795
          },
          {
            "duration": 0.22604166666667425,
            "durationTicks": 217,
            "midi": 55,
            "name": "G3",
            "ticks": 463920,
            "time": 483.25,
            "velocity": 0.889763779527559
          },
          {
            "duration": 0.22604166666667425,
            "durationTicks": 217,
            "midi": 50,
            "name": "D3",
            "ticks": 464160,
            "time": 483.5,
            "velocity": 0.8503937007874016
          },
          {
            "duration": 0.22604166666667425,
            "durationTicks": 217,
            "midi": 50,
            "name": "D3",
            "ticks": 464400,
            "time": 483.75,
            "velocity": 0.8503937007874016
          },
          {
            "duration": 0.22604166666667425,
            "durationTicks": 217,
            "midi": 57,
            "name": "A3",
            "ticks": 464640,
            "time": 484,
            "velocity": 0.9606299212598425
          },
          {
            "duration": 0.22604166666667425,
            "durationTicks": 217,
            "midi": 57,
            "name": "A3",
            "ticks": 464880,
            "time": 484.25,
            "velocity": 0.9133858267716536
          },
          {
            "duration": 0.22604166666667425,
            "durationTicks": 217,
            "midi": 52,
            "name": "E3",
            "ticks": 465120,
            "time": 484.5,
            "velocity": 0.8267716535433071
          },
          {
            "duration": 0.22604166666667425,
            "durationTicks": 217,
            "midi": 52,
            "name": "E3",
            "ticks": 465360,
            "time": 484.75,
            "velocity": 0.8740157480314961
          },
          {
            "duration": 0.22604166666667425,
            "durationTicks": 217,
            "midi": 55,
            "name": "G3",
            "ticks": 465600,
            "time": 485,
            "velocity": 0.952755905511811
          },
          {
            "duration": 0.22604166666667425,
            "durationTicks": 217,
            "midi": 55,
            "name": "G3",
            "ticks": 465840,
            "time": 485.25,
            "velocity": 0.8818897637795275
          },
          {
            "duration": 0.45104166666664014,
            "durationTicks": 433,
            "midi": 50,
            "name": "D3",
            "ticks": 466080,
            "time": 485.5,
            "velocity": 0.8818897637795275
          },
          {
            "duration": 0.22604166666667425,
            "durationTicks": 217,
            "midi": 50,
            "name": "D3",
            "ticks": 467040,
            "time": 486.5,
            "velocity": 0.8031496062992126
          },
          {
            "duration": 0.22604166666667425,
            "durationTicks": 217,
            "midi": 50,
            "name": "D3",
            "ticks": 467280,
            "time": 486.75,
            "velocity": 0.8818897637795275
          },
          {
            "duration": 0.22604166666667425,
            "durationTicks": 217,
            "midi": 55,
            "name": "G3",
            "ticks": 467520,
            "time": 487,
            "velocity": 0.984251968503937
          },
          {
            "duration": 0.22604166666667425,
            "durationTicks": 217,
            "midi": 55,
            "name": "G3",
            "ticks": 467760,
            "time": 487.25,
            "velocity": 0.8976377952755905
          },
          {
            "duration": 0.22604166666667425,
            "durationTicks": 217,
            "midi": 50,
            "name": "D3",
            "ticks": 468000,
            "time": 487.5,
            "velocity": 0.8110236220472441
          },
          {
            "duration": 0.22604166666667425,
            "durationTicks": 217,
            "midi": 50,
            "name": "D3",
            "ticks": 468240,
            "time": 487.75,
            "velocity": 0.9133858267716536
          },
          {
            "duration": 0.22604166666667425,
            "durationTicks": 217,
            "midi": 55,
            "name": "G3",
            "ticks": 468480,
            "time": 488,
            "velocity": 0.9606299212598425
          },
          {
            "duration": 0.22604166666667425,
            "durationTicks": 217,
            "midi": 55,
            "name": "G3",
            "ticks": 468720,
            "time": 488.25,
            "velocity": 0.8976377952755905
          },
          {
            "duration": 0.22604166666667425,
            "durationTicks": 217,
            "midi": 52,
            "name": "E3",
            "ticks": 468960,
            "time": 488.5,
            "velocity": 0.8818897637795275
          },
          {
            "duration": 0.22604166666667425,
            "durationTicks": 217,
            "midi": 52,
            "name": "E3",
            "ticks": 469200,
            "time": 488.75,
            "velocity": 0.8818897637795275
          },
          {
            "duration": 0.22604166666667425,
            "durationTicks": 217,
            "midi": 55,
            "name": "G3",
            "ticks": 469440,
            "time": 489,
            "velocity": 0.905511811023622
          },
          {
            "duration": 0.22604166666667425,
            "durationTicks": 217,
            "midi": 55,
            "name": "G3",
            "ticks": 469680,
            "time": 489.25,
            "velocity": 0.9212598425196851
          },
          {
            "duration": 0.22604166666667425,
            "durationTicks": 217,
            "midi": 53,
            "name": "F3",
            "ticks": 469920,
            "time": 489.5,
            "velocity": 0.8661417322834646
          },
          {
            "duration": 0.22604166666667425,
            "durationTicks": 217,
            "midi": 53,
            "name": "F3",
            "ticks": 470160,
            "time": 489.75,
            "velocity": 0.905511811023622
          },
          {
            "duration": 0.22604166666667425,
            "durationTicks": 217,
            "midi": 59,
            "name": "B3",
            "ticks": 470400,
            "time": 490,
            "velocity": 0.952755905511811
          },
          {
            "duration": 0.22604166666667425,
            "durationTicks": 217,
            "midi": 59,
            "name": "B3",
            "ticks": 470640,
            "time": 490.25,
            "velocity": 0.8818897637795275
          },
          {
            "duration": 0.2541666666666629,
            "durationTicks": 244,
            "midi": 62,
            "name": "D4",
            "ticks": 470880,
            "time": 490.5,
            "velocity": 0.9921259842519685
          },
          {
            "duration": 0.23645833333335986,
            "durationTicks": 227,
            "midi": 60,
            "name": "C4",
            "ticks": 471120,
            "time": 490.75,
            "velocity": 0.937007874015748
          },
          {
            "duration": 0.11354166666666288,
            "durationTicks": 109,
            "midi": 55,
            "name": "G3",
            "ticks": 471360,
            "time": 491,
            "velocity": 0.84251968503937
          },
          {
            "duration": 0.11354166666666288,
            "durationTicks": 109,
            "midi": 52,
            "name": "E3",
            "ticks": 471600,
            "time": 491.25,
            "velocity": 0.8740157480314961
          },
          {
            "duration": 0.2541666666666629,
            "durationTicks": 244,
            "midi": 59,
            "name": "B3",
            "ticks": 471840,
            "time": 491.5,
            "velocity": 0.9448818897637795
          },
          {
            "duration": 0.23645833333335986,
            "durationTicks": 227,
            "midi": 57,
            "name": "A3",
            "ticks": 472080,
            "time": 491.75,
            "velocity": 0.9133858267716536
          },
          {
            "duration": 0.11354166666666288,
            "durationTicks": 109,
            "midi": 53,
            "name": "F3",
            "ticks": 472320,
            "time": 492,
            "velocity": 0.8346456692913385
          },
          {
            "duration": 0.11354166666666288,
            "durationTicks": 109,
            "midi": 50,
            "name": "D3",
            "ticks": 472560,
            "time": 492.25,
            "velocity": 0.8267716535433071
          },
          {
            "duration": 0.2541666666666629,
            "durationTicks": 244,
            "midi": 57,
            "name": "A3",
            "ticks": 472800,
            "time": 492.5,
            "velocity": 0.968503937007874
          },
          {
            "duration": 0.23645833333335986,
            "durationTicks": 227,
            "midi": 55,
            "name": "G3",
            "ticks": 473040,
            "time": 492.75,
            "velocity": 0.9448818897637795
          },
          {
            "duration": 0.11354166666666288,
            "durationTicks": 109,
            "midi": 52,
            "name": "E3",
            "ticks": 473280,
            "time": 493,
            "velocity": 0.8188976377952756
          },
          {
            "duration": 0.11354166666666288,
            "durationTicks": 109,
            "midi": 48,
            "name": "C3",
            "ticks": 473520,
            "time": 493.25,
            "velocity": 0.8110236220472441
          },
          {
            "duration": 0.22604166666667425,
            "durationTicks": 217,
            "midi": 50,
            "name": "D3",
            "ticks": 473760,
            "time": 493.5,
            "velocity": 0.9921259842519685
          },
          {
            "duration": 0.22604166666667425,
            "durationTicks": 217,
            "midi": 59,
            "name": "B3",
            "ticks": 473760,
            "time": 493.5,
            "velocity": 0.9921259842519685
          },
          {
            "duration": 0.22604166666667425,
            "durationTicks": 217,
            "midi": 50,
            "name": "D3",
            "ticks": 474000,
            "time": 493.75,
            "velocity": 0.8976377952755905
          },
          {
            "duration": 0.22604166666667425,
            "durationTicks": 217,
            "midi": 59,
            "name": "B3",
            "ticks": 474000,
            "time": 493.75,
            "velocity": 0.8976377952755905
          },
          {
            "duration": 0.22604166666667425,
            "durationTicks": 217,
            "midi": 53,
            "name": "F3",
            "ticks": 474240,
            "time": 494,
            "velocity": 0.9606299212598425
          },
          {
            "duration": 0.22604166666667425,
            "durationTicks": 217,
            "midi": 62,
            "name": "D4",
            "ticks": 474240,
            "time": 494,
            "velocity": 0.9606299212598425
          },
          {
            "duration": 0.22604166666667425,
            "durationTicks": 217,
            "midi": 53,
            "name": "F3",
            "ticks": 474480,
            "time": 494.25,
            "velocity": 0.9133858267716536
          },
          {
            "duration": 0.22604166666667425,
            "durationTicks": 217,
            "midi": 62,
            "name": "D4",
            "ticks": 474480,
            "time": 494.25,
            "velocity": 0.9133858267716536
          },
          {
            "duration": 3.2260416666666742,
            "durationTicks": 3097,
            "midi": 55,
            "name": "G3",
            "ticks": 474720,
            "time": 494.5,
            "velocity": 0.8031496062992126
          },
          {
            "duration": 0.22604166666667425,
            "durationTicks": 217,
            "midi": 55,
            "name": "G3",
            "ticks": 477840,
            "time": 497.75,
            "velocity": 0.8818897637795275
          },
          {
            "duration": 0.22604166666667425,
            "durationTicks": 217,
            "midi": 55,
            "name": "G3",
            "ticks": 478080,
            "time": 498,
            "velocity": 0.8818897637795275
          },
          {
            "duration": 0.22604166666667425,
            "durationTicks": 217,
            "midi": 55,
            "name": "G3",
            "ticks": 478320,
            "time": 498.25,
            "velocity": 0.8976377952755905
          },
          {
            "duration": 3.2260416666666742,
            "durationTicks": 3097,
            "midi": 55,
            "name": "G3",
            "ticks": 478560,
            "time": 498.5,
            "velocity": 0.8818897637795275
          },
          {
            "duration": 0.22604166666667425,
            "durationTicks": 217,
            "midi": 67,
            "name": "G4",
            "ticks": 481680,
            "time": 501.75,
            "velocity": 1
          },
          {
            "duration": 0.22604166666667425,
            "durationTicks": 217,
            "midi": 67,
            "name": "G4",
            "ticks": 481920,
            "time": 502,
            "velocity": 0.905511811023622
          },
          {
            "duration": 0.22604166666667425,
            "durationTicks": 217,
            "midi": 67,
            "name": "G4",
            "ticks": 482160,
            "time": 502.25,
            "velocity": 0.9133858267716536
          },
          {
            "duration": 0.45104166666664014,
            "durationTicks": 433,
            "midi": 67,
            "name": "G4",
            "ticks": 482400,
            "time": 502.5,
            "velocity": 0.9212598425196851
          },
          {
            "duration": 0.22604166666667425,
            "durationTicks": 217,
            "midi": 67,
            "name": "G4",
            "ticks": 483600,
            "time": 503.75,
            "velocity": 0.8031496062992126
          },
          {
            "duration": 0.22604166666667425,
            "durationTicks": 217,
            "midi": 67,
            "name": "G4",
            "ticks": 483840,
            "time": 504,
            "velocity": 0.8582677165354331
          },
          {
            "duration": 0.22604166666667425,
            "durationTicks": 217,
            "midi": 67,
            "name": "G4",
            "ticks": 484080,
            "time": 504.25,
            "velocity": 0.8818897637795275
          },
          {
            "duration": 0.45104166666664014,
            "durationTicks": 433,
            "midi": 67,
            "name": "G4",
            "ticks": 484320,
            "time": 504.5,
            "velocity": 0.8740157480314961
          },
          {
            "duration": 0.22604166666667425,
            "durationTicks": 217,
            "midi": 55,
            "name": "G3",
            "ticks": 485520,
            "time": 505.75,
            "velocity": 0.7874015748031497
          },
          {
            "duration": 0.22604166666667425,
            "durationTicks": 217,
            "midi": 55,
            "name": "G3",
            "ticks": 485760,
            "time": 506,
            "velocity": 0.9133858267716536
          },
          {
            "duration": 0.22604166666667425,
            "durationTicks": 217,
            "midi": 55,
            "name": "G3",
            "ticks": 486000,
            "time": 506.25,
            "velocity": 0.8740157480314961
          },
          {
            "duration": 1.2260416666666742,
            "durationTicks": 1177,
            "midi": 67,
            "name": "G4",
            "ticks": 486240,
            "time": 506.5,
            "velocity": 1
          },
          {
            "duration": 0.22604166666667425,
            "durationTicks": 217,
            "midi": 67,
            "name": "G4",
            "ticks": 487440,
            "time": 507.75,
            "velocity": 0.889763779527559
          },
          {
            "duration": 0.22604166666667425,
            "durationTicks": 217,
            "midi": 67,
            "name": "G4",
            "ticks": 487680,
            "time": 508,
            "velocity": 0.8740157480314961
          },
          {
            "duration": 0.22604166666667425,
            "durationTicks": 217,
            "midi": 67,
            "name": "G4",
            "ticks": 487920,
            "time": 508.25,
            "velocity": 0.8740157480314961
          },
          {
            "duration": 1.2260416666666742,
            "durationTicks": 1177,
            "midi": 65,
            "name": "F4",
            "ticks": 488160,
            "time": 508.5,
            "velocity": 0.937007874015748
          },
          {
            "duration": 0.22604166666667425,
            "durationTicks": 217,
            "midi": 65,
            "name": "F4",
            "ticks": 489360,
            "time": 509.75,
            "velocity": 0.8976377952755905
          },
          {
            "duration": 0.22604166666667425,
            "durationTicks": 217,
            "midi": 65,
            "name": "F4",
            "ticks": 489600,
            "time": 510,
            "velocity": 0.9291338582677166
          },
          {
            "duration": 0.22604166666667425,
            "durationTicks": 217,
            "midi": 65,
            "name": "F4",
            "ticks": 489840,
            "time": 510.25,
            "velocity": 0.889763779527559
          },
          {
            "duration": 1.2260416666666742,
            "durationTicks": 1177,
            "midi": 60,
            "name": "C4",
            "ticks": 490080,
            "time": 510.5,
            "velocity": 0.8818897637795275
          },
          {
            "duration": 0.22604166666667425,
            "durationTicks": 217,
            "midi": 60,
            "name": "C4",
            "ticks": 491280,
            "time": 511.75,
            "velocity": 0.9133858267716536
          },
          {
            "duration": 0.22604166666667425,
            "durationTicks": 217,
            "midi": 60,
            "name": "C4",
            "ticks": 491520,
            "time": 512,
            "velocity": 0.889763779527559
          },
          {
            "duration": 0.22604166666667425,
            "durationTicks": 217,
            "midi": 60,
            "name": "C4",
            "ticks": 491760,
            "time": 512.25,
            "velocity": 0.9133858267716536
          },
          {
            "duration": 1.2260416666666742,
            "durationTicks": 1177,
            "midi": 56,
            "name": "G#3",
            "ticks": 492000,
            "time": 512.5,
            "velocity": 0.952755905511811
          },
          {
            "duration": 0.22604166666667425,
            "durationTicks": 217,
            "midi": 56,
            "name": "G#3",
            "ticks": 493200,
            "time": 513.75,
            "velocity": 0.905511811023622
          },
          {
            "duration": 0.22604166666667425,
            "durationTicks": 217,
            "midi": 56,
            "name": "G#3",
            "ticks": 493440,
            "time": 514,
            "velocity": 0.8661417322834646
          },
          {
            "duration": 0.22604166666667425,
            "durationTicks": 217,
            "midi": 56,
            "name": "G#3",
            "ticks": 493680,
            "time": 514.25,
            "velocity": 0.8661417322834646
          },
          {
            "duration": 0.22604166666667425,
            "durationTicks": 217,
            "midi": 56,
            "name": "G#3",
            "ticks": 493920,
            "time": 514.5,
            "velocity": 0.9133858267716536
          },
          {
            "duration": 0.22604166666667425,
            "durationTicks": 217,
            "midi": 68,
            "name": "G#4",
            "ticks": 494160,
            "time": 514.75,
            "velocity": 1
          },
          {
            "duration": 0.22604166666667425,
            "durationTicks": 217,
            "midi": 68,
            "name": "G#4",
            "ticks": 494400,
            "time": 515,
            "velocity": 0.952755905511811
          },
          {
            "duration": 0.22604166666667425,
            "durationTicks": 217,
            "midi": 68,
            "name": "G#4",
            "ticks": 494640,
            "time": 515.25,
            "velocity": 0.889763779527559
          },
          {
            "duration": 0.22604166666667425,
            "durationTicks": 217,
            "midi": 68,
            "name": "G#4",
            "ticks": 494880,
            "time": 515.5,
            "velocity": 0.8976377952755905
          },
          {
            "duration": 0.22604166666667425,
            "durationTicks": 217,
            "midi": 68,
            "name": "G#4",
            "ticks": 495120,
            "time": 515.75,
            "velocity": 0.9212598425196851
          },
          {
            "duration": 0.22604166666667425,
            "durationTicks": 217,
            "midi": 68,
            "name": "G#4",
            "ticks": 495360,
            "time": 516,
            "velocity": 0.905511811023622
          },
          {
            "duration": 0.22604166666667425,
            "durationTicks": 217,
            "midi": 68,
            "name": "G#4",
            "ticks": 495600,
            "time": 516.25,
            "velocity": 0.8976377952755905
          },
          {
            "duration": 0.22604166666667425,
            "durationTicks": 217,
            "midi": 68,
            "name": "G#4",
            "ticks": 495840,
            "time": 516.5,
            "velocity": 0.8976377952755905
          },
          {
            "duration": 0.22604166666667425,
            "durationTicks": 217,
            "midi": 68,
            "name": "G#4",
            "ticks": 496080,
            "time": 516.75,
            "velocity": 0.8818897637795275
          },
          {
            "duration": 0.22604166666667425,
            "durationTicks": 217,
            "midi": 68,
            "name": "G#4",
            "ticks": 496320,
            "time": 517,
            "velocity": 0.905511811023622
          },
          {
            "duration": 0.22604166666667425,
            "durationTicks": 217,
            "midi": 68,
            "name": "G#4",
            "ticks": 496560,
            "time": 517.25,
            "velocity": 0.889763779527559
          },
          {
            "duration": 0.22604166666667425,
            "durationTicks": 217,
            "midi": 68,
            "name": "G#4",
            "ticks": 496800,
            "time": 517.5,
            "velocity": 0.8976377952755905
          },
          {
            "duration": 0.22604166666667425,
            "durationTicks": 217,
            "midi": 68,
            "name": "G#4",
            "ticks": 497040,
            "time": 517.75,
            "velocity": 0.8661417322834646
          },
          {
            "duration": 0.22604166666667425,
            "durationTicks": 217,
            "midi": 68,
            "name": "G#4",
            "ticks": 497280,
            "time": 518,
            "velocity": 0.8661417322834646
          },
          {
            "duration": 0.22604166666667425,
            "durationTicks": 217,
            "midi": 68,
            "name": "G#4",
            "ticks": 497520,
            "time": 518.25,
            "velocity": 0.8582677165354331
          },
          {
            "duration": 0.451041666666697,
            "durationTicks": 433,
            "midi": 68,
            "name": "G#4",
            "ticks": 497760,
            "time": 518.5,
            "velocity": 0.9133858267716536
          },
          {
            "duration": 0.22604166666667425,
            "durationTicks": 217,
            "midi": 57,
            "name": "A3",
            "ticks": 501840,
            "time": 522.75,
            "velocity": 0.8188976377952756
          },
          {
            "duration": 0.22604166666667425,
            "durationTicks": 217,
            "midi": 57,
            "name": "A3",
            "ticks": 502080,
            "time": 523,
            "velocity": 0.8267716535433071
          },
          {
            "duration": 0.22604166666667425,
            "durationTicks": 217,
            "midi": 57,
            "name": "A3",
            "ticks": 502320,
            "time": 523.25,
            "velocity": 0.905511811023622
          },
          {
            "duration": 0.22604166666667425,
            "durationTicks": 217,
            "midi": 57,
            "name": "A3",
            "ticks": 502560,
            "time": 523.5,
            "velocity": 0.8740157480314961
          },
          {
            "duration": 0.22604166666667425,
            "durationTicks": 217,
            "midi": 69,
            "name": "A4",
            "ticks": 502800,
            "time": 523.75,
            "velocity": 1
          },
          {
            "duration": 0.22604166666667425,
            "durationTicks": 217,
            "midi": 69,
            "name": "A4",
            "ticks": 503040,
            "time": 524,
            "velocity": 0.9133858267716536
          },
          {
            "duration": 0.22604166666667425,
            "durationTicks": 217,
            "midi": 69,
            "name": "A4",
            "ticks": 503280,
            "time": 524.25,
            "velocity": 0.8976377952755905
          },
          {
            "duration": 0.22604166666667425,
            "durationTicks": 217,
            "midi": 69,
            "name": "A4",
            "ticks": 503520,
            "time": 524.5,
            "velocity": 0.8818897637795275
          },
          {
            "duration": 0.22604166666667425,
            "durationTicks": 217,
            "midi": 69,
            "name": "A4",
            "ticks": 503760,
            "time": 524.75,
            "velocity": 0.9133858267716536
          },
          {
            "duration": 0.22604166666667425,
            "durationTicks": 217,
            "midi": 69,
            "name": "A4",
            "ticks": 504000,
            "time": 525,
            "velocity": 0.8976377952755905
          },
          {
            "duration": 0.22604166666667425,
            "durationTicks": 217,
            "midi": 69,
            "name": "A4",
            "ticks": 504240,
            "time": 525.25,
            "velocity": 0.8818897637795275
          },
          {
            "duration": 0.22604166666667425,
            "durationTicks": 217,
            "midi": 69,
            "name": "A4",
            "ticks": 504480,
            "time": 525.5,
            "velocity": 0.905511811023622
          },
          {
            "duration": 0.22604166666667425,
            "durationTicks": 217,
            "midi": 69,
            "name": "A4",
            "ticks": 504720,
            "time": 525.75,
            "velocity": 0.889763779527559
          },
          {
            "duration": 0.22604166666667425,
            "durationTicks": 217,
            "midi": 69,
            "name": "A4",
            "ticks": 504960,
            "time": 526,
            "velocity": 0.8976377952755905
          },
          {
            "duration": 0.22604166666667425,
            "durationTicks": 217,
            "midi": 69,
            "name": "A4",
            "ticks": 505200,
            "time": 526.25,
            "velocity": 0.8582677165354331
          },
          {
            "duration": 0.22604166666667425,
            "durationTicks": 217,
            "midi": 69,
            "name": "A4",
            "ticks": 505440,
            "time": 526.5,
            "velocity": 0.8818897637795275
          },
          {
            "duration": 0.22604166666667425,
            "durationTicks": 217,
            "midi": 69,
            "name": "A4",
            "ticks": 505680,
            "time": 526.75,
            "velocity": 0.9291338582677166
          },
          {
            "duration": 0.22604166666667425,
            "durationTicks": 217,
            "midi": 69,
            "name": "A4",
            "ticks": 505920,
            "time": 527,
            "velocity": 0.9291338582677166
          },
          {
            "duration": 0.22604166666667425,
            "durationTicks": 217,
            "midi": 69,
            "name": "A4",
            "ticks": 506160,
            "time": 527.25,
            "velocity": 0.8818897637795275
          },
          {
            "duration": 0.451041666666697,
            "durationTicks": 433,
            "midi": 69,
            "name": "A4",
            "ticks": 506400,
            "time": 527.5,
            "velocity": 0.905511811023622
          },
          {
            "duration": 0.22604166666667425,
            "durationTicks": 217,
            "midi": 67,
            "name": "G4",
            "ticks": 509520,
            "time": 530.75,
            "velocity": 0.6535433070866141
          },
          {
            "duration": 0.22604166666667425,
            "durationTicks": 217,
            "midi": 67,
            "name": "G4",
            "ticks": 509760,
            "time": 531,
            "velocity": 0.7559055118110236
          },
          {
            "duration": 0.22604166666667425,
            "durationTicks": 217,
            "midi": 67,
            "name": "G4",
            "ticks": 510000,
            "time": 531.25,
            "velocity": 0.7874015748031497
          },
          {
            "duration": 0.8999999999999773,
            "durationTicks": 864,
            "midi": 63,
            "name": "D#4",
            "ticks": 510240,
            "time": 531.5,
            "velocity": 0.6614173228346457
          },
          {
            "duration": 0.8999999999999773,
            "durationTicks": 864,
            "midi": 65,
            "name": "F4",
            "ticks": 511200,
            "time": 532.5,
            "velocity": 0.7952755905511811
          },
          {
            "duration": 1.2260416666666742,
            "durationTicks": 1177,
            "midi": 62,
            "name": "D4",
            "ticks": 512160,
            "time": 533.5,
            "velocity": 0.6929133858267716
          },
          {
            "duration": 0.22604166666667425,
            "durationTicks": 217,
            "midi": 67,
            "name": "G4",
            "ticks": 513360,
            "time": 534.75,
            "velocity": 0.8346456692913385
          },
          {
            "duration": 0.22604166666667425,
            "durationTicks": 217,
            "midi": 67,
            "name": "G4",
            "ticks": 513600,
            "time": 535,
            "velocity": 0.7952755905511811
          },
          {
            "duration": 0.22604166666667425,
            "durationTicks": 217,
            "midi": 67,
            "name": "G4",
            "ticks": 513840,
            "time": 535.25,
            "velocity": 0.7559055118110236
          },
          {
            "duration": 0.8999999999999773,
            "durationTicks": 864,
            "midi": 63,
            "name": "D#4",
            "ticks": 514080,
            "time": 535.5,
            "velocity": 0.6850393700787402
          },
          {
            "duration": 0.8999999999999773,
            "durationTicks": 864,
            "midi": 65,
            "name": "F4",
            "ticks": 515040,
            "time": 536.5,
            "velocity": 0.8267716535433071
          },
          {
            "duration": 1.2260416666666742,
            "durationTicks": 1177,
            "midi": 62,
            "name": "D4",
            "ticks": 516000,
            "time": 537.5,
            "velocity": 0.7165354330708661
          },
          {
            "duration": 0.22604166666667425,
            "durationTicks": 217,
            "midi": 67,
            "name": "G4",
            "ticks": 517200,
            "time": 538.75,
            "velocity": 0.889763779527559
          },
          {
            "duration": 0.22604166666667425,
            "durationTicks": 217,
            "midi": 67,
            "name": "G4",
            "ticks": 517440,
            "time": 539,
            "velocity": 0.8031496062992126
          },
          {
            "duration": 0.22604166666667425,
            "durationTicks": 217,
            "midi": 67,
            "name": "G4",
            "ticks": 517680,
            "time": 539.25,
            "velocity": 0.7637795275590551
          },
          {
            "duration": 0.451041666666697,
            "durationTicks": 433,
            "midi": 63,
            "name": "D#4",
            "ticks": 517920,
            "time": 539.5,
            "velocity": 0.6929133858267716
          },
          {
            "duration": 0.451041666666697,
            "durationTicks": 433,
            "midi": 65,
            "name": "F4",
            "ticks": 518400,
            "time": 540,
            "velocity": 0.8188976377952756
          },
          {
            "duration": 0.451041666666697,
            "durationTicks": 433,
            "midi": 62,
            "name": "D4",
            "ticks": 518880,
            "time": 540.5,
            "velocity": 0.7086614173228346
          },
          {
            "duration": 0.451041666666697,
            "durationTicks": 433,
            "midi": 63,
            "name": "D#4",
            "ticks": 519360,
            "time": 541,
            "velocity": 0.7952755905511811
          },
          {
            "duration": 0.451041666666697,
            "durationTicks": 433,
            "midi": 60,
            "name": "C4",
            "ticks": 519840,
            "time": 541.5,
            "velocity": 0.7165354330708661
          },
          {
            "duration": 0.451041666666697,
            "durationTicks": 433,
            "midi": 62,
            "name": "D4",
            "ticks": 520320,
            "time": 542,
            "velocity": 0.7795275590551181
          },
          {
            "duration": 0.451041666666697,
            "durationTicks": 433,
            "midi": 58,
            "name": "A#3",
            "ticks": 520800,
            "time": 542.5,
            "velocity": 0.7165354330708661
          },
          {
            "duration": 0.451041666666697,
            "durationTicks": 433,
            "midi": 60,
            "name": "C4",
            "ticks": 521280,
            "time": 543,
            "velocity": 0.8110236220472441
          },
          {
            "duration": 0.451041666666697,
            "durationTicks": 433,
            "midi": 56,
            "name": "G#3",
            "ticks": 521760,
            "time": 543.5,
            "velocity": 0.7401574803149606
          },
          {
            "duration": 0.451041666666697,
            "durationTicks": 433,
            "midi": 58,
            "name": "A#3",
            "ticks": 522240,
            "time": 544,
            "velocity": 0.7874015748031497
          },
          {
            "duration": 0.451041666666697,
            "durationTicks": 433,
            "midi": 55,
            "name": "G3",
            "ticks": 522720,
            "time": 544.5,
            "velocity": 0.7559055118110236
          },
          {
            "duration": 0.451041666666697,
            "durationTicks": 433,
            "midi": 56,
            "name": "G#3",
            "ticks": 523200,
            "time": 545,
            "velocity": 0.7795275590551181
          },
          {
            "duration": 0.451041666666697,
            "durationTicks": 433,
            "midi": 53,
            "name": "F3",
            "ticks": 523680,
            "time": 545.5,
            "velocity": 0.7559055118110236
          },
          {
            "duration": 0.451041666666697,
            "durationTicks": 433,
            "midi": 55,
            "name": "G3",
            "ticks": 524160,
            "time": 546,
            "velocity": 0.8031496062992126
          },
          {
            "duration": 0.451041666666697,
            "durationTicks": 433,
            "midi": 51,
            "name": "D#3",
            "ticks": 524640,
            "time": 546.5,
            "velocity": 0.7401574803149606
          },
          {
            "duration": 0.451041666666697,
            "durationTicks": 433,
            "midi": 53,
            "name": "F3",
            "ticks": 525120,
            "time": 547,
            "velocity": 0.8110236220472441
          },
          {
            "duration": 0.451041666666697,
            "durationTicks": 433,
            "midi": 50,
            "name": "D3",
            "ticks": 525600,
            "time": 547.5,
            "velocity": 0.7244094488188977
          },
          {
            "duration": 0.451041666666697,
            "durationTicks": 433,
            "midi": 60,
            "name": "C4",
            "ticks": 526080,
            "time": 548,
            "velocity": 0.952755905511811
          },
          {
            "duration": 0.451041666666697,
            "durationTicks": 433,
            "midi": 59,
            "name": "B3",
            "ticks": 526560,
            "time": 548.5,
            "velocity": 0.7795275590551181
          },
          {
            "duration": 0.451041666666697,
            "durationTicks": 433,
            "midi": 60,
            "name": "C4",
            "ticks": 527040,
            "time": 549,
            "velocity": 0.8031496062992126
          },
          {
            "duration": 0.451041666666697,
            "durationTicks": 433,
            "midi": 62,
            "name": "D4",
            "ticks": 527520,
            "time": 549.5,
            "velocity": 0.8188976377952756
          },
          {
            "duration": 0.451041666666697,
            "durationTicks": 433,
            "midi": 60,
            "name": "C4",
            "ticks": 528000,
            "time": 550,
            "velocity": 0.7086614173228346
          },
          {
            "duration": 0.451041666666697,
            "durationTicks": 433,
            "midi": 62,
            "name": "D4",
            "ticks": 528480,
            "time": 550.5,
            "velocity": 0.8110236220472441
          },
          {
            "duration": 0.451041666666697,
            "durationTicks": 433,
            "midi": 64,
            "name": "E4",
            "ticks": 528960,
            "time": 551,
            "velocity": 0.8110236220472441
          },
          {
            "duration": 0.451041666666697,
            "durationTicks": 433,
            "midi": 65,
            "name": "F4",
            "ticks": 529440,
            "time": 551.5,
            "velocity": 0.8267716535433071
          },
          {
            "duration": 0.451041666666697,
            "durationTicks": 433,
            "midi": 64,
            "name": "E4",
            "ticks": 529920,
            "time": 552,
            "velocity": 0.7322834645669292
          },
          {
            "duration": 0.451041666666697,
            "durationTicks": 433,
            "midi": 65,
            "name": "F4",
            "ticks": 530400,
            "time": 552.5,
            "velocity": 0.8110236220472441
          },
          {
            "duration": 0.451041666666697,
            "durationTicks": 433,
            "midi": 67,
            "name": "G4",
            "ticks": 530880,
            "time": 553,
            "velocity": 0.8346456692913385
          },
          {
            "duration": 0.451041666666697,
            "durationTicks": 433,
            "midi": 68,
            "name": "G#4",
            "ticks": 531360,
            "time": 553.5,
            "velocity": 0.84251968503937
          },
          {
            "duration": 0.451041666666697,
            "durationTicks": 433,
            "midi": 55,
            "name": "G3",
            "ticks": 531840,
            "time": 554,
            "velocity": 0.6614173228346457
          },
          {
            "duration": 0.451041666666697,
            "durationTicks": 433,
            "midi": 57,
            "name": "A3",
            "ticks": 532320,
            "time": 554.5,
            "velocity": 0.7559055118110236
          },
          {
            "duration": 0.451041666666697,
            "durationTicks": 433,
            "midi": 59,
            "name": "B3",
            "ticks": 532800,
            "time": 555,
            "velocity": 0.7795275590551181
          },
          {
            "duration": 0.8999999999999773,
            "durationTicks": 864,
            "midi": 60,
            "name": "C4",
            "ticks": 533280,
            "time": 555.5,
            "velocity": 0.8188976377952756
          },
          {
            "duration": 0.22500000000002274,
            "durationTicks": 216,
            "midi": 62,
            "name": "D4",
            "ticks": 534240,
            "time": 556.5,
            "velocity": 0.8267716535433071
          },
          {
            "duration": 0.22500000000002274,
            "durationTicks": 216,
            "midi": 63,
            "name": "D#4",
            "ticks": 534720,
            "time": 557,
            "velocity": 0.8188976377952756
          },
          {
            "duration": 0.5093749999999773,
            "durationTicks": 489,
            "midi": 65,
            "name": "F4",
            "ticks": 535200,
            "time": 557.5,
            "velocity": 0.952755905511811
          },
          {
            "duration": 0.47500000000002274,
            "durationTicks": 456,
            "midi": 62,
            "name": "D4",
            "ticks": 535680,
            "time": 558,
            "velocity": 0.8740157480314961
          },
          {
            "duration": 0.22500000000002274,
            "durationTicks": 216,
            "midi": 63,
            "name": "D#4",
            "ticks": 536160,
            "time": 558.5,
            "velocity": 0.8188976377952756
          },
          {
            "duration": 0.22500000000002274,
            "durationTicks": 216,
            "midi": 65,
            "name": "F4",
            "ticks": 536640,
            "time": 559,
            "velocity": 0.8110236220472441
          },
          {
            "duration": 0.5093749999999773,
            "durationTicks": 489,
            "midi": 67,
            "name": "G4",
            "ticks": 537120,
            "time": 559.5,
            "velocity": 0.8031496062992126
          },
          {
            "duration": 0.47500000000002274,
            "durationTicks": 456,
            "midi": 63,
            "name": "D#4",
            "ticks": 537600,
            "time": 560,
            "velocity": 0.7480314960629921
          },
          {
            "duration": 0.22500000000002274,
            "durationTicks": 216,
            "midi": 65,
            "name": "F4",
            "ticks": 538080,
            "time": 560.5,
            "velocity": 0.8031496062992126
          },
          {
            "duration": 0.22500000000002274,
            "durationTicks": 216,
            "midi": 67,
            "name": "G4",
            "ticks": 538560,
            "time": 561,
            "velocity": 0.7874015748031497
          },
          {
            "duration": 0.5093749999999773,
            "durationTicks": 489,
            "midi": 68,
            "name": "G#4",
            "ticks": 539040,
            "time": 561.5,
            "velocity": 0.84251968503937
          },
          {
            "duration": 0.47500000000002274,
            "durationTicks": 456,
            "midi": 65,
            "name": "F4",
            "ticks": 539520,
            "time": 562,
            "velocity": 0.7952755905511811
          },
          {
            "duration": 0.22500000000002274,
            "durationTicks": 216,
            "midi": 67,
            "name": "G4",
            "ticks": 540000,
            "time": 562.5,
            "velocity": 0.8188976377952756
          },
          {
            "duration": 0.22500000000002274,
            "durationTicks": 216,
            "midi": 69,
            "name": "A4",
            "ticks": 540480,
            "time": 563,
            "velocity": 0.8188976377952756
          },
          {
            "duration": 0.5093749999999773,
            "durationTicks": 489,
            "midi": 71,
            "name": "B4",
            "ticks": 540960,
            "time": 563.5,
            "velocity": 0.8110236220472441
          },
          {
            "duration": 0.47500000000002274,
            "durationTicks": 456,
            "midi": 67,
            "name": "G4",
            "ticks": 541440,
            "time": 564,
            "velocity": 0.7086614173228346
          },
          {
            "duration": 0.22500000000002274,
            "durationTicks": 216,
            "midi": 69,
            "name": "A4",
            "ticks": 541920,
            "time": 564.5,
            "velocity": 0.8188976377952756
          },
          {
            "duration": 0.22500000000002274,
            "durationTicks": 216,
            "midi": 71,
            "name": "B4",
            "ticks": 542400,
            "time": 565,
            "velocity": 0.8110236220472441
          },
          {
            "duration": 0.5093749999999773,
            "durationTicks": 489,
            "midi": 72,
            "name": "C5",
            "ticks": 542880,
            "time": 565.5,
            "velocity": 0.8188976377952756
          },
          {
            "duration": 0.47500000000002274,
            "durationTicks": 456,
            "midi": 67,
            "name": "G4",
            "ticks": 543360,
            "time": 566,
            "velocity": 0.7007874015748031
          },
          {
            "duration": 0.22500000000002274,
            "durationTicks": 216,
            "midi": 68,
            "name": "G#4",
            "ticks": 543840,
            "time": 566.5,
            "velocity": 0.7795275590551181
          },
          {
            "duration": 0.22500000000002274,
            "durationTicks": 216,
            "midi": 63,
            "name": "D#4",
            "ticks": 544320,
            "time": 567,
            "velocity": 0.6771653543307087
          },
          {
            "duration": 0.22500000000002274,
            "durationTicks": 216,
            "midi": 65,
            "name": "F4",
            "ticks": 544800,
            "time": 567.5,
            "velocity": 0.8267716535433071
          },
          {
            "duration": 0.22500000000002274,
            "durationTicks": 216,
            "midi": 62,
            "name": "D4",
            "ticks": 545280,
            "time": 568,
            "velocity": 0.6850393700787402
          },
          {
            "duration": 0.22500000000002274,
            "durationTicks": 216,
            "midi": 63,
            "name": "D#4",
            "ticks": 545760,
            "time": 568.5,
            "velocity": 0.7795275590551181
          },
          {
            "duration": 0.22500000000002274,
            "durationTicks": 216,
            "midi": 65,
            "name": "F4",
            "ticks": 546240,
            "time": 569,
            "velocity": 0.8031496062992126
          },
          {
            "duration": 0.22500000000002274,
            "durationTicks": 216,
            "midi": 67,
            "name": "G4",
            "ticks": 546720,
            "time": 569.5,
            "velocity": 0.8031496062992126
          },
          {
            "duration": 0.22500000000002274,
            "durationTicks": 216,
            "midi": 66,
            "name": "F#4",
            "ticks": 547200,
            "time": 570,
            "velocity": 0.7637795275590551
          },
          {
            "duration": 0.22500000000002274,
            "durationTicks": 216,
            "midi": 67,
            "name": "G4",
            "ticks": 547680,
            "time": 570.5,
            "velocity": 0.7874015748031497
          },
          {
            "duration": 0.22500000000002274,
            "durationTicks": 216,
            "midi": 55,
            "name": "G3",
            "ticks": 548160,
            "time": 571,
            "velocity": 0.6929133858267716
          },
          {
            "duration": 0.22500000000002274,
            "durationTicks": 216,
            "midi": 60,
            "name": "C4",
            "ticks": 548640,
            "time": 571.5,
            "velocity": 0.84251968503937
          },
          {
            "duration": 0.22500000000002274,
            "durationTicks": 216,
            "midi": 51,
            "name": "D#3",
            "ticks": 551520,
            "time": 574.5,
            "velocity": 0.7086614173228346
          },
          {
            "duration": 0.22500000000002274,
            "durationTicks": 216,
            "midi": 53,
            "name": "F3",
            "ticks": 552000,
            "time": 575,
            "velocity": 0.8110236220472441
          },
          {
            "duration": 0.5093749999999773,
            "durationTicks": 489,
            "midi": 55,
            "name": "G3",
            "ticks": 552480,
            "time": 575.5,
            "velocity": 0.8031496062992126
          },
          {
            "duration": 0.47500000000002274,
            "durationTicks": 456,
            "midi": 51,
            "name": "D#3",
            "ticks": 552960,
            "time": 576,
            "velocity": 0.7716535433070866
          },
          {
            "duration": 0.22500000000002274,
            "durationTicks": 216,
            "midi": 55,
            "name": "G3",
            "ticks": 555360,
            "time": 578.5,
            "velocity": 0.8188976377952756
          },
          {
            "duration": 0.22500000000002274,
            "durationTicks": 216,
            "midi": 57,
            "name": "A3",
            "ticks": 555840,
            "time": 579,
            "velocity": 0.8110236220472441
          },
          {
            "duration": 0.5093749999999773,
            "durationTicks": 489,
            "midi": 59,
            "name": "B3",
            "ticks": 556320,
            "time": 579.5,
            "velocity": 0.8110236220472441
          },
          {
            "duration": 0.47500000000002274,
            "durationTicks": 456,
            "midi": 55,
            "name": "G3",
            "ticks": 556800,
            "time": 580,
            "velocity": 0.7637795275590551
          },
          {
            "duration": 0.22500000000002274,
            "durationTicks": 216,
            "midi": 55,
            "name": "G3",
            "ticks": 559200,
            "time": 582.5,
            "velocity": 0.7559055118110236
          },
          {
            "duration": 0.22500000000002274,
            "durationTicks": 216,
            "midi": 57,
            "name": "A3",
            "ticks": 559680,
            "time": 583,
            "velocity": 0.7795275590551181
          },
          {
            "duration": 0.5093749999999773,
            "durationTicks": 489,
            "midi": 59,
            "name": "B3",
            "ticks": 560160,
            "time": 583.5,
            "velocity": 0.7795275590551181
          },
          {
            "duration": 0.47500000000002274,
            "durationTicks": 456,
            "midi": 55,
            "name": "G3",
            "ticks": 560640,
            "time": 584,
            "velocity": 0.7165354330708661
          },
          {
            "duration": 0.5093749999999773,
            "durationTicks": 489,
            "midi": 53,
            "name": "F3",
            "ticks": 564960,
            "time": 588.5,
            "velocity": 0.8818897637795275
          },
          {
            "duration": 0.5093749999999773,
            "durationTicks": 489,
            "midi": 56,
            "name": "G#3",
            "ticks": 564960,
            "time": 588.5,
            "velocity": 0.8818897637795275
          },
          {
            "duration": 0.47500000000002274,
            "durationTicks": 456,
            "midi": 51,
            "name": "D#3",
            "ticks": 565440,
            "time": 589,
            "velocity": 0.889763779527559
          },
          {
            "duration": 0.47500000000002274,
            "durationTicks": 456,
            "midi": 55,
            "name": "G3",
            "ticks": 565440,
            "time": 589,
            "velocity": 0.889763779527559
          },
          {
            "duration": 0.5093749999999773,
            "durationTicks": 489,
            "midi": 53,
            "name": "F3",
            "ticks": 566880,
            "time": 590.5,
            "velocity": 0.7480314960629921
          },
          {
            "duration": 0.47500000000002274,
            "durationTicks": 456,
            "midi": 60,
            "name": "C4",
            "ticks": 567360,
            "time": 591,
            "velocity": 0.8503937007874016
          },
          {
            "duration": 0.451041666666697,
            "durationTicks": 433,
            "midi": 55,
            "name": "G3",
            "ticks": 567840,
            "time": 591.5,
            "velocity": 0.9133858267716536
          },
          {
            "duration": 0.451041666666697,
            "durationTicks": 433,
            "midi": 67,
            "name": "G4",
            "ticks": 567840,
            "time": 591.5,
            "velocity": 0.9133858267716536
          },
          {
            "duration": 0.451041666666697,
            "durationTicks": 433,
            "midi": 55,
            "name": "G3",
            "ticks": 568800,
            "time": 592.5,
            "velocity": 0.6771653543307087
          },
          {
            "duration": 0.5093749999999773,
            "durationTicks": 489,
            "midi": 60,
            "name": "C4",
            "ticks": 569760,
            "time": 593.5,
            "velocity": 0.7007874015748031
          },
          {
            "duration": 0.5093749999999773,
            "durationTicks": 489,
            "midi": 58,
            "name": "A#3",
            "ticks": 570240,
            "time": 594,
            "velocity": 0.7007874015748031
          },
          {
            "duration": 0.5093749999999773,
            "durationTicks": 489,
            "midi": 56,
            "name": "G#3",
            "ticks": 570720,
            "time": 594.5,
            "velocity": 0.7322834645669292
          },
          {
            "duration": 0.5093749999999773,
            "durationTicks": 489,
            "midi": 55,
            "name": "G3",
            "ticks": 571200,
            "time": 595,
            "velocity": 0.7244094488188977
          },
          {
            "duration": 0.5093749999999773,
            "durationTicks": 489,
            "midi": 53,
            "name": "F3",
            "ticks": 571680,
            "time": 595.5,
            "velocity": 0.7559055118110236
          },
          {
            "duration": 0.47500000000002274,
            "durationTicks": 456,
            "midi": 51,
            "name": "D#3",
            "ticks": 572160,
            "time": 596,
            "velocity": 0.7322834645669292
          },
          {
            "duration": 0.5093749999999773,
            "durationTicks": 489,
            "midi": 53,
            "name": "F3",
            "ticks": 573600,
            "time": 597.5,
            "velocity": 0.8110236220472441
          },
          {
            "duration": 0.5093749999999773,
            "durationTicks": 489,
            "midi": 56,
            "name": "G#3",
            "ticks": 573600,
            "time": 597.5,
            "velocity": 0.8110236220472441
          },
          {
            "duration": 0.47500000000002274,
            "durationTicks": 456,
            "midi": 51,
            "name": "D#3",
            "ticks": 574080,
            "time": 598,
            "velocity": 0.8188976377952756
          },
          {
            "duration": 0.47500000000002274,
            "durationTicks": 456,
            "midi": 55,
            "name": "G3",
            "ticks": 574080,
            "time": 598,
            "velocity": 0.8188976377952756
          },
          {
            "duration": 0.5093749999999773,
            "durationTicks": 489,
            "midi": 65,
            "name": "F4",
            "ticks": 574560,
            "time": 598.5,
            "velocity": 0.968503937007874
          },
          {
            "duration": 0.47500000000002274,
            "durationTicks": 456,
            "midi": 60,
            "name": "C4",
            "ticks": 575040,
            "time": 599,
            "velocity": 0.8740157480314961
          },
          {
            "duration": 0.451041666666697,
            "durationTicks": 433,
            "midi": 55,
            "name": "G3",
            "ticks": 575520,
            "time": 599.5,
            "velocity": 0.889763779527559
          },
          {
            "duration": 0.451041666666697,
            "durationTicks": 433,
            "midi": 67,
            "name": "G4",
            "ticks": 575520,
            "time": 599.5,
            "velocity": 0.889763779527559
          },
          {
            "duration": 0.451041666666697,
            "durationTicks": 433,
            "midi": 55,
            "name": "G3",
            "ticks": 576480,
            "time": 600.5,
            "velocity": 0.6929133858267716
          },
          {
            "duration": 0.451041666666697,
            "durationTicks": 433,
            "midi": 67,
            "name": "G4",
            "ticks": 576480,
            "time": 600.5,
            "velocity": 0.6929133858267716
          },
          {
            "duration": 0.22604166666667425,
            "durationTicks": 217,
            "midi": 48,
            "name": "C3",
            "ticks": 577440,
            "time": 601.5,
            "velocity": 0.7007874015748031
          },
          {
            "duration": 0.22604166666667425,
            "durationTicks": 217,
            "midi": 60,
            "name": "C4",
            "ticks": 577440,
            "time": 601.5,
            "velocity": 0.7007874015748031
          },
          {
            "duration": 0.22604166666667425,
            "durationTicks": 217,
            "midi": 55,
            "name": "G3",
            "ticks": 577680,
            "time": 601.75,
            "velocity": 0.6850393700787402
          },
          {
            "duration": 0.22604166666667425,
            "durationTicks": 217,
            "midi": 55,
            "name": "G3",
            "ticks": 577920,
            "time": 602,
            "velocity": 0.7559055118110236
          },
          {
            "duration": 0.22604166666667425,
            "durationTicks": 217,
            "midi": 55,
            "name": "G3",
            "ticks": 578160,
            "time": 602.25,
            "velocity": 0.7716535433070866
          },
          {
            "duration": 4.226041666666674,
            "durationTicks": 4057,
            "midi": 55,
            "name": "G3",
            "ticks": 578400,
            "time": 602.5,
            "velocity": 0.7322834645669292
          },
          {
            "duration": 0.22604166666667425,
            "durationTicks": 217,
            "midi": 55,
            "name": "G3",
            "ticks": 582480,
            "time": 606.75,
            "velocity": 0.7480314960629921
          },
          {
            "duration": 0.22604166666667425,
            "durationTicks": 217,
            "midi": 55,
            "name": "G3",
            "ticks": 582720,
            "time": 607,
            "velocity": 0.7480314960629921
          },
          {
            "duration": 0.22604166666667425,
            "durationTicks": 217,
            "midi": 55,
            "name": "G3",
            "ticks": 582960,
            "time": 607.25,
            "velocity": 0.7559055118110236
          },
          {
            "duration": 0.22604166666667425,
            "durationTicks": 217,
            "midi": 60,
            "name": "C4",
            "ticks": 583200,
            "time": 607.5,
            "velocity": 0.8661417322834646
          },
          {
            "duration": 0.22604166666667425,
            "durationTicks": 217,
            "midi": 55,
            "name": "G3",
            "ticks": 583440,
            "time": 607.75,
            "velocity": 0.7559055118110236
          },
          {
            "duration": 0.22604166666667425,
            "durationTicks": 217,
            "midi": 55,
            "name": "G3",
            "ticks": 583680,
            "time": 608,
            "velocity": 0.7952755905511811
          },
          {
            "duration": 0.22604166666667425,
            "durationTicks": 217,
            "midi": 55,
            "name": "G3",
            "ticks": 583920,
            "time": 608.25,
            "velocity": 0.7716535433070866
          },
          {
            "duration": 0.22604166666667425,
            "durationTicks": 217,
            "midi": 55,
            "name": "G3",
            "ticks": 584160,
            "time": 608.5,
            "velocity": 0.7637795275590551
          },
          {
            "duration": 0.22604166666667425,
            "durationTicks": 217,
            "midi": 55,
            "name": "G3",
            "ticks": 584400,
            "time": 608.75,
            "velocity": 0.7716535433070866
          },
          {
            "duration": 0.22604166666667425,
            "durationTicks": 217,
            "midi": 55,
            "name": "G3",
            "ticks": 584640,
            "time": 609,
            "velocity": 0.8031496062992126
          },
          {
            "duration": 0.22604166666667425,
            "durationTicks": 217,
            "midi": 55,
            "name": "G3",
            "ticks": 584880,
            "time": 609.25,
            "velocity": 0.7795275590551181
          },
          {
            "duration": 0.22604166666667425,
            "durationTicks": 217,
            "midi": 55,
            "name": "G3",
            "ticks": 585120,
            "time": 609.5,
            "velocity": 0.7559055118110236
          },
          {
            "duration": 0.22604166666667425,
            "durationTicks": 217,
            "midi": 55,
            "name": "G3",
            "ticks": 585360,
            "time": 609.75,
            "velocity": 0.7874015748031497
          },
          {
            "duration": 0.22604166666667425,
            "durationTicks": 217,
            "midi": 55,
            "name": "G3",
            "ticks": 585600,
            "time": 610,
            "velocity": 0.7795275590551181
          },
          {
            "duration": 0.22604166666667425,
            "durationTicks": 217,
            "midi": 55,
            "name": "G3",
            "ticks": 585840,
            "time": 610.25,
            "velocity": 0.7637795275590551
          },
          {
            "duration": 0.22604166666667425,
            "durationTicks": 217,
            "midi": 55,
            "name": "G3",
            "ticks": 586080,
            "time": 610.5,
            "velocity": 0.7637795275590551
          },
          {
            "duration": 0.22604166666667425,
            "durationTicks": 217,
            "midi": 55,
            "name": "G3",
            "ticks": 586320,
            "time": 610.75,
            "velocity": 0.7795275590551181
          },
          {
            "duration": 0.22604166666667425,
            "durationTicks": 217,
            "midi": 55,
            "name": "G3",
            "ticks": 586560,
            "time": 611,
            "velocity": 0.7716535433070866
          },
          {
            "duration": 0.22604166666667425,
            "durationTicks": 217,
            "midi": 55,
            "name": "G3",
            "ticks": 586800,
            "time": 611.25,
            "velocity": 0.8188976377952756
          },
          {
            "duration": 1.5,
            "durationTicks": 1440,
            "midi": 51,
            "name": "D#3",
            "ticks": 587040,
            "time": 611.5,
            "velocity": 0.8110236220472441
          },
          {
            "duration": 0.22604166666667425,
            "durationTicks": 217,
            "midi": 53,
            "name": "F3",
            "ticks": 588720,
            "time": 613.25,
            "velocity": 0.7559055118110236
          },
          {
            "duration": 0.22604166666667425,
            "durationTicks": 217,
            "midi": 53,
            "name": "F3",
            "ticks": 588960,
            "time": 613.5,
            "velocity": 0.889763779527559
          },
          {
            "duration": 0.22604166666667425,
            "durationTicks": 217,
            "midi": 53,
            "name": "F3",
            "ticks": 589200,
            "time": 613.75,
            "velocity": 0.8661417322834646
          },
          {
            "duration": 2.5,
            "durationTicks": 2400,
            "midi": 50,
            "name": "D3",
            "ticks": 589440,
            "time": 614,
            "velocity": 0.8740157480314961
          },
          {
            "duration": 0.22604166666667425,
            "durationTicks": 217,
            "midi": 55,
            "name": "G3",
            "ticks": 599760,
            "time": 624.75,
            "velocity": 0.8267716535433071
          },
          {
            "duration": 0.22604166666667425,
            "durationTicks": 217,
            "midi": 55,
            "name": "G3",
            "ticks": 600000,
            "time": 625,
            "velocity": 0.905511811023622
          },
          {
            "duration": 0.22604166666667425,
            "durationTicks": 217,
            "midi": 55,
            "name": "G3",
            "ticks": 600240,
            "time": 625.25,
            "velocity": 0.8976377952755905
          },
          {
            "duration": 0.451041666666697,
            "durationTicks": 433,
            "midi": 60,
            "name": "C4",
            "ticks": 600480,
            "time": 625.5,
            "velocity": 1
          },
          {
            "duration": 0.22604166666667425,
            "durationTicks": 217,
            "midi": 55,
            "name": "G3",
            "ticks": 601680,
            "time": 626.75,
            "velocity": 0.7559055118110236
          },
          {
            "duration": 0.22604166666667425,
            "durationTicks": 217,
            "midi": 55,
            "name": "G3",
            "ticks": 601920,
            "time": 627,
            "velocity": 0.8582677165354331
          },
          {
            "duration": 0.22604166666667425,
            "durationTicks": 217,
            "midi": 55,
            "name": "G3",
            "ticks": 602160,
            "time": 627.25,
            "velocity": 0.905511811023622
          },
          {
            "duration": 0.451041666666697,
            "durationTicks": 433,
            "midi": 60,
            "name": "C4",
            "ticks": 602400,
            "time": 627.5,
            "velocity": 0.984251968503937
          },
          {
            "duration": 0.22604166666667425,
            "durationTicks": 217,
            "midi": 55,
            "name": "G3",
            "ticks": 603600,
            "time": 628.75,
            "velocity": 0.8503937007874016
          },
          {
            "duration": 0.22604166666667425,
            "durationTicks": 217,
            "midi": 55,
            "name": "G3",
            "ticks": 603840,
            "time": 629,
            "velocity": 0.889763779527559
          },
          {
            "duration": 0.22604166666667425,
            "durationTicks": 217,
            "midi": 55,
            "name": "G3",
            "ticks": 604080,
            "time": 629.25,
            "velocity": 0.8976377952755905
          },
          {
            "duration": 0.451041666666697,
            "durationTicks": 433,
            "midi": 60,
            "name": "C4",
            "ticks": 604320,
            "time": 629.5,
            "velocity": 1
          },
          {
            "duration": 0.451041666666697,
            "durationTicks": 433,
            "midi": 55,
            "name": "G3",
            "ticks": 604800,
            "time": 630,
            "velocity": 0.8503937007874016
          },
          {
            "duration": 0.451041666666697,
            "durationTicks": 433,
            "midi": 60,
            "name": "C4",
            "ticks": 605280,
            "time": 630.5,
            "velocity": 0.9921259842519685
          },
          {
            "duration": 0.451041666666697,
            "durationTicks": 433,
            "midi": 55,
            "name": "G3",
            "ticks": 605760,
            "time": 631,
            "velocity": 0.8503937007874016
          },
          {
            "duration": 0.451041666666697,
            "durationTicks": 433,
            "midi": 60,
            "name": "C4",
            "ticks": 606240,
            "time": 631.5,
            "velocity": 1
          },
          {
            "duration": 0.451041666666697,
            "durationTicks": 433,
            "midi": 67,
            "name": "G4",
            "ticks": 606720,
            "time": 632,
            "velocity": 1
          },
          {
            "duration": 0.451041666666697,
            "durationTicks": 433,
            "midi": 72,
            "name": "C5",
            "ticks": 607200,
            "time": 632.5,
            "velocity": 1
          },
          {
            "duration": 0.451041666666697,
            "durationTicks": 433,
            "midi": 67,
            "name": "G4",
            "ticks": 607680,
            "time": 633,
            "velocity": 0.8031496062992126
          },
          {
            "duration": 0.451041666666697,
            "durationTicks": 433,
            "midi": 72,
            "name": "C5",
            "ticks": 608160,
            "time": 633.5,
            "velocity": 0.9606299212598425
          },
          {
            "duration": 0.451041666666697,
            "durationTicks": 433,
            "midi": 55,
            "name": "G3",
            "ticks": 609120,
            "time": 634.5,
            "velocity": 0.7716535433070866
          },
          {
            "duration": 0.451041666666697,
            "durationTicks": 433,
            "midi": 48,
            "name": "C3",
            "ticks": 610080,
            "time": 635.5,
            "velocity": 0.8188976377952756
          }
        ]
      },
      {
        "channel": 10,
        "controlChanges": {
          "7": [
            {
              "number": 7,
              "ticks": 0,
              "time": 0,
              "value": 0.5905511811023622
            },
            {
              "number": 7,
              "ticks": 380160,
              "time": 396,
              "value": 0.5905511811023622
            }
          ],
          "10": [
            {
              "number": 10,
              "ticks": 0,
              "time": 0,
              "value": 0.7480314960629921
            },
            {
              "number": 10,
              "ticks": 380160,
              "time": 396,
              "value": 0.7480314960629921
            }
          ],
          "64": [
            {
              "number": 64,
              "ticks": 0,
              "time": 0,
              "value": 0
            }
          ],
          "121": [
            {
              "number": 121,
              "ticks": 0,
              "time": 0,
              "value": 0
            }
          ]
        },
        "pitchBends": [],
        "instrument": {
          "family": "ensemble",
          "number": 48,
          "name": "string ensemble 1"
        },
        "name": "",
        "notes": [
          {
            "duration": 0.22604166666666664,
            "durationTicks": 217,
            "midi": 43,
            "name": "G2",
            "ticks": 240,
            "time": 0.25,
            "velocity": 0.8188976377952756
          },
          {
            "duration": 0.2260416666666667,
            "durationTicks": 217,
            "midi": 43,
            "name": "G2",
            "ticks": 480,
            "time": 0.5,
            "velocity": 0.8582677165354331
          },
          {
            "duration": 0.2260416666666667,
            "durationTicks": 217,
            "midi": 43,
            "name": "G2",
            "ticks": 720,
            "time": 0.75,
            "velocity": 0.889763779527559
          },
          {
            "duration": 1.5,
            "durationTicks": 1440,
            "midi": 39,
            "name": "D#2",
            "ticks": 960,
            "time": 1,
            "velocity": 0.8582677165354331
          },
          {
            "duration": 0.2260416666666667,
            "durationTicks": 217,
            "midi": 41,
            "name": "F2",
            "ticks": 2640,
            "time": 2.75,
            "velocity": 0.7795275590551181
          },
          {
            "duration": 0.2260416666666667,
            "durationTicks": 217,
            "midi": 41,
            "name": "F2",
            "ticks": 2880,
            "time": 3,
            "velocity": 0.8740157480314961
          },
          {
            "duration": 0.2260416666666667,
            "durationTicks": 217,
            "midi": 41,
            "name": "F2",
            "ticks": 3120,
            "time": 3.25,
            "velocity": 0.905511811023622
          },
          {
            "duration": 2.5,
            "durationTicks": 2400,
            "midi": 38,
            "name": "D2",
            "ticks": 3360,
            "time": 3.5,
            "velocity": 0.8582677165354331
          },
          {
            "duration": 3.9000000000000004,
            "durationTicks": 3744,
            "midi": 60,
            "name": "C4",
            "ticks": 6720,
            "time": 7,
            "velocity": 0.6299212598425197
          },
          {
            "duration": 3.9000000000000004,
            "durationTicks": 3744,
            "midi": 59,
            "name": "B3",
            "ticks": 10560,
            "time": 11,
            "velocity": 0.47244094488188976
          },
          {
            "duration": 0.9000000000000004,
            "durationTicks": 864,
            "midi": 60,
            "name": "C4",
            "ticks": 14400,
            "time": 15,
            "velocity": 0.49606299212598426
          },
          {
            "duration": 0.8999999999999986,
            "durationTicks": 864,
            "midi": 59,
            "name": "B3",
            "ticks": 15360,
            "time": 16,
            "velocity": 0.4409448818897638
          },
          {
            "duration": 0.8999999999999986,
            "durationTicks": 864,
            "midi": 60,
            "name": "C4",
            "ticks": 16320,
            "time": 17,
            "velocity": 0.49606299212598426
          },
          {
            "duration": 0.22604166666666714,
            "durationTicks": 217,
            "midi": 59,
            "name": "B3",
            "ticks": 17280,
            "time": 18,
            "velocity": 0.5275590551181102
          },
          {
            "duration": 0.22604166666666714,
            "durationTicks": 217,
            "midi": 59,
            "name": "B3",
            "ticks": 17520,
            "time": 18.25,
            "velocity": 0.5039370078740157
          },
          {
            "duration": 0.22604166666666714,
            "durationTicks": 217,
            "midi": 59,
            "name": "B3",
            "ticks": 17760,
            "time": 18.5,
            "velocity": 0.5275590551181102
          },
          {
            "duration": 0.22604166666666714,
            "durationTicks": 217,
            "midi": 59,
            "name": "B3",
            "ticks": 18000,
            "time": 18.75,
            "velocity": 0.6299212598425197
          },
          {
            "duration": 0.451041666666665,
            "durationTicks": 433,
            "midi": 60,
            "name": "C4",
            "ticks": 18240,
            "time": 19,
            "velocity": 0.8031496062992126
          },
          {
            "duration": 0.451041666666665,
            "durationTicks": 433,
            "midi": 44,
            "name": "G#2",
            "ticks": 19200,
            "time": 20,
            "velocity": 0.6929133858267716
          },
          {
            "duration": 0.451041666666665,
            "durationTicks": 433,
            "midi": 43,
            "name": "G2",
            "ticks": 20160,
            "time": 21,
            "velocity": 0.7007874015748031
          },
          {
            "duration": 0.22604166666666714,
            "durationTicks": 217,
            "midi": 44,
            "name": "G#2",
            "ticks": 21600,
            "time": 22.5,
            "velocity": 0.7007874015748031
          },
          {
            "duration": 0.22604166666666714,
            "durationTicks": 217,
            "midi": 44,
            "name": "G#2",
            "ticks": 21840,
            "time": 22.75,
            "velocity": 0.7559055118110236
          },
          {
            "duration": 0.22604166666666714,
            "durationTicks": 217,
            "midi": 44,
            "name": "G#2",
            "ticks": 22080,
            "time": 23,
            "velocity": 0.7795275590551181
          },
          {
            "duration": 2.5,
            "durationTicks": 2400,
            "midi": 41,
            "name": "F2",
            "ticks": 22320,
            "time": 23.25,
            "velocity": 0.7322834645669292
          },
          {
            "duration": 0.22604166666666714,
            "durationTicks": 217,
            "midi": 43,
            "name": "G2",
            "ticks": 27840,
            "time": 29,
            "velocity": 0.4409448818897638
          },
          {
            "duration": 0.22604166666666714,
            "durationTicks": 217,
            "midi": 43,
            "name": "G2",
            "ticks": 28080,
            "time": 29.25,
            "velocity": 0.4330708661417323
          },
          {
            "duration": 0.22604166666666714,
            "durationTicks": 217,
            "midi": 43,
            "name": "G2",
            "ticks": 28320,
            "time": 29.5,
            "velocity": 0.4881889763779528
          },
          {
            "duration": 0.451041666666665,
            "durationTicks": 433,
            "midi": 48,
            "name": "C3",
            "ticks": 28560,
            "time": 29.75,
            "velocity": 0.5511811023622047
          },
          {
            "duration": 0.22604166666666714,
            "durationTicks": 217,
            "midi": 43,
            "name": "G2",
            "ticks": 31680,
            "time": 33,
            "velocity": 0.4094488188976378
          },
          {
            "duration": 0.22604166666666714,
            "durationTicks": 217,
            "midi": 43,
            "name": "G2",
            "ticks": 31920,
            "time": 33.25,
            "velocity": 0.48031496062992124
          },
          {
            "duration": 0.22604166666666714,
            "durationTicks": 217,
            "midi": 43,
            "name": "G2",
            "ticks": 32160,
            "time": 33.5,
            "velocity": 0.4566929133858268
          },
          {
            "duration": 0.45104166666666856,
            "durationTicks": 433,
            "midi": 48,
            "name": "C3",
            "ticks": 32400,
            "time": 33.75,
            "velocity": 0.5196850393700787
          },
          {
            "duration": 0.22604166666666714,
            "durationTicks": 217,
            "midi": 48,
            "name": "C3",
            "ticks": 33600,
            "time": 35,
            "velocity": 0.3779527559055118
          },
          {
            "duration": 0.22604166666666714,
            "durationTicks": 217,
            "midi": 48,
            "name": "C3",
            "ticks": 33840,
            "time": 35.25,
            "velocity": 0.48031496062992124
          },
          {
            "duration": 0.22604166666666714,
            "durationTicks": 217,
            "midi": 48,
            "name": "C3",
            "ticks": 34080,
            "time": 35.5,
            "velocity": 0.5196850393700787
          },
          {
            "duration": 0.45104166666666856,
            "durationTicks": 433,
            "midi": 48,
            "name": "C3",
            "ticks": 34320,
            "time": 35.75,
            "velocity": 0.5275590551181102
          },
          {
            "duration": 0.22604166666666714,
            "durationTicks": 217,
            "midi": 48,
            "name": "C3",
            "ticks": 35520,
            "time": 37,
            "velocity": 0.4881889763779528
          },
          {
            "duration": 0.22604166666666714,
            "durationTicks": 217,
            "midi": 48,
            "name": "C3",
            "ticks": 35760,
            "time": 37.25,
            "velocity": 0.5511811023622047
          },
          {
            "duration": 0.22604166666666714,
            "durationTicks": 217,
            "midi": 48,
            "name": "C3",
            "ticks": 36000,
            "time": 37.5,
            "velocity": 0.5354330708661418
          },
          {
            "duration": 0.45104166666666856,
            "durationTicks": 433,
            "midi": 48,
            "name": "C3",
            "ticks": 36240,
            "time": 37.75,
            "velocity": 0.5433070866141733
          },
          {
            "duration": 0.45104166666666856,
            "durationTicks": 433,
            "midi": 48,
            "name": "C3",
            "ticks": 37200,
            "time": 38.75,
            "velocity": 0.6062992125984252
          },
          {
            "duration": 0.45104166666666856,
            "durationTicks": 433,
            "midi": 48,
            "name": "C3",
            "ticks": 38160,
            "time": 39.75,
            "velocity": 0.6771653543307087
          },
          {
            "duration": 0.45104166666666856,
            "durationTicks": 433,
            "midi": 48,
            "name": "C3",
            "ticks": 39120,
            "time": 40.75,
            "velocity": 0.6929133858267716
          },
          {
            "duration": 0.45104166666666856,
            "durationTicks": 433,
            "midi": 48,
            "name": "C3",
            "ticks": 40080,
            "time": 41.75,
            "velocity": 0.7086614173228346
          },
          {
            "duration": 0.45104166666666856,
            "durationTicks": 433,
            "midi": 48,
            "name": "C3",
            "ticks": 41040,
            "time": 42.75,
            "velocity": 0.7637795275590551
          },
          {
            "duration": 0.45104166666666856,
            "durationTicks": 433,
            "midi": 48,
            "name": "C3",
            "ticks": 42000,
            "time": 43.75,
            "velocity": 0.7559055118110236
          },
          {
            "duration": 3.226041666666667,
            "durationTicks": 3097,
            "midi": 48,
            "name": "C3",
            "ticks": 42960,
            "time": 44.75,
            "velocity": 0.7007874015748031
          },
          {
            "duration": 0.22604166666666714,
            "durationTicks": 217,
            "midi": 48,
            "name": "C3",
            "ticks": 46080,
            "time": 48,
            "velocity": 0.7795275590551181
          },
          {
            "duration": 0.22604166666666714,
            "durationTicks": 217,
            "midi": 48,
            "name": "C3",
            "ticks": 46320,
            "time": 48.25,
            "velocity": 0.7637795275590551
          },
          {
            "duration": 0.22604166666666714,
            "durationTicks": 217,
            "midi": 48,
            "name": "C3",
            "ticks": 46560,
            "time": 48.5,
            "velocity": 0.7874015748031497
          },
          {
            "duration": 3.226041666666667,
            "durationTicks": 3097,
            "midi": 43,
            "name": "G2",
            "ticks": 46800,
            "time": 48.75,
            "velocity": 0.7480314960629921
          },
          {
            "duration": 0.22604166666666714,
            "durationTicks": 217,
            "midi": 43,
            "name": "G2",
            "ticks": 49920,
            "time": 52,
            "velocity": 0.7559055118110236
          },
          {
            "duration": 0.22604166666666714,
            "durationTicks": 217,
            "midi": 48,
            "name": "C3",
            "ticks": 50160,
            "time": 52.25,
            "velocity": 0.8188976377952756
          },
          {
            "duration": 0.22604166666666714,
            "durationTicks": 217,
            "midi": 48,
            "name": "C3",
            "ticks": 50400,
            "time": 52.5,
            "velocity": 0.7952755905511811
          },
          {
            "duration": 0.22604166666666714,
            "durationTicks": 217,
            "midi": 48,
            "name": "C3",
            "ticks": 50640,
            "time": 52.75,
            "velocity": 0.9133858267716536
          },
          {
            "duration": 0.22604166666666714,
            "durationTicks": 217,
            "midi": 48,
            "name": "C3",
            "ticks": 50880,
            "time": 53,
            "velocity": 0.8740157480314961
          },
          {
            "duration": 0.22604166666666714,
            "durationTicks": 217,
            "midi": 48,
            "name": "C3",
            "ticks": 51120,
            "time": 53.25,
            "velocity": 0.8818897637795275
          },
          {
            "duration": 0.22604166666666714,
            "durationTicks": 217,
            "midi": 48,
            "name": "C3",
            "ticks": 51360,
            "time": 53.5,
            "velocity": 0.8976377952755905
          },
          {
            "duration": 0.22604166666666714,
            "durationTicks": 217,
            "midi": 48,
            "name": "C3",
            "ticks": 51600,
            "time": 53.75,
            "velocity": 0.8740157480314961
          },
          {
            "duration": 0.22604166666666714,
            "durationTicks": 217,
            "midi": 48,
            "name": "C3",
            "ticks": 51840,
            "time": 54,
            "velocity": 0.889763779527559
          },
          {
            "duration": 0.22604166666666714,
            "durationTicks": 217,
            "midi": 48,
            "name": "C3",
            "ticks": 52080,
            "time": 54.25,
            "velocity": 0.9291338582677166
          },
          {
            "duration": 0.22604166666666714,
            "durationTicks": 217,
            "midi": 48,
            "name": "C3",
            "ticks": 52320,
            "time": 54.5,
            "velocity": 0.8661417322834646
          },
          {
            "duration": 0.22604166666666714,
            "durationTicks": 217,
            "midi": 48,
            "name": "C3",
            "ticks": 52560,
            "time": 54.75,
            "velocity": 0.905511811023622
          },
          {
            "duration": 0.22604166666666714,
            "durationTicks": 217,
            "midi": 48,
            "name": "C3",
            "ticks": 52800,
            "time": 55,
            "velocity": 0.8740157480314961
          },
          {
            "duration": 0.22604166666666714,
            "durationTicks": 217,
            "midi": 48,
            "name": "C3",
            "ticks": 53040,
            "time": 55.25,
            "velocity": 0.8818897637795275
          },
          {
            "duration": 0.22604166666666714,
            "durationTicks": 217,
            "midi": 48,
            "name": "C3",
            "ticks": 53280,
            "time": 55.5,
            "velocity": 0.8740157480314961
          },
          {
            "duration": 0.22604166666666714,
            "durationTicks": 217,
            "midi": 48,
            "name": "C3",
            "ticks": 53520,
            "time": 55.75,
            "velocity": 0.8818897637795275
          },
          {
            "duration": 0.22604166666666714,
            "durationTicks": 217,
            "midi": 48,
            "name": "C3",
            "ticks": 53760,
            "time": 56,
            "velocity": 0.8818897637795275
          },
          {
            "duration": 0.22604166666666714,
            "durationTicks": 217,
            "midi": 48,
            "name": "C3",
            "ticks": 54000,
            "time": 56.25,
            "velocity": 0.8740157480314961
          },
          {
            "duration": 0.22604166666666714,
            "durationTicks": 217,
            "midi": 48,
            "name": "C3",
            "ticks": 54240,
            "time": 56.5,
            "velocity": 0.8976377952755905
          },
          {
            "duration": 0.45104166666666856,
            "durationTicks": 433,
            "midi": 48,
            "name": "C3",
            "ticks": 54480,
            "time": 56.75,
            "velocity": 0.8582677165354331
          },
          {
            "duration": 0.45104166666666856,
            "durationTicks": 433,
            "midi": 50,
            "name": "D3",
            "ticks": 56400,
            "time": 58.75,
            "velocity": 0.8110236220472441
          },
          {
            "duration": 0.22604166666666003,
            "durationTicks": 217,
            "midi": 46,
            "name": "A#2",
            "ticks": 63360,
            "time": 66,
            "velocity": 0.48031496062992124
          },
          {
            "duration": 0.22604166666666003,
            "durationTicks": 217,
            "midi": 46,
            "name": "A#2",
            "ticks": 63600,
            "time": 66.25,
            "velocity": 0.47244094488188976
          },
          {
            "duration": 0.22604166666666003,
            "durationTicks": 217,
            "midi": 46,
            "name": "A#2",
            "ticks": 63840,
            "time": 66.5,
            "velocity": 0.4881889763779528
          },
          {
            "duration": 0.45104166666666856,
            "durationTicks": 433,
            "midi": 51,
            "name": "D#3",
            "ticks": 64080,
            "time": 66.75,
            "velocity": 0.5118110236220472
          },
          {
            "duration": 0.22604166666666003,
            "durationTicks": 217,
            "midi": 46,
            "name": "A#2",
            "ticks": 67200,
            "time": 70,
            "velocity": 0.4330708661417323
          },
          {
            "duration": 0.22604166666666003,
            "durationTicks": 217,
            "midi": 46,
            "name": "A#2",
            "ticks": 67440,
            "time": 70.25,
            "velocity": 0.48031496062992124
          },
          {
            "duration": 0.22604166666666003,
            "durationTicks": 217,
            "midi": 46,
            "name": "A#2",
            "ticks": 67680,
            "time": 70.5,
            "velocity": 0.47244094488188976
          },
          {
            "duration": 0.45104166666666856,
            "durationTicks": 433,
            "midi": 51,
            "name": "D#3",
            "ticks": 67920,
            "time": 70.75,
            "velocity": 0.48031496062992124
          },
          {
            "duration": 0.22604166666666003,
            "durationTicks": 217,
            "midi": 46,
            "name": "A#2",
            "ticks": 71040,
            "time": 74,
            "velocity": 0.44881889763779526
          },
          {
            "duration": 0.22604166666666003,
            "durationTicks": 217,
            "midi": 46,
            "name": "A#2",
            "ticks": 71280,
            "time": 74.25,
            "velocity": 0.47244094488188976
          },
          {
            "duration": 0.22604166666666003,
            "durationTicks": 217,
            "midi": 46,
            "name": "A#2",
            "ticks": 71520,
            "time": 74.5,
            "velocity": 0.47244094488188976
          },
          {
            "duration": 0.45104166666666856,
            "durationTicks": 433,
            "midi": 51,
            "name": "D#3",
            "ticks": 71760,
            "time": 74.75,
            "velocity": 0.5275590551181102
          },
          {
            "duration": 0.22604166666666003,
            "durationTicks": 217,
            "midi": 48,
            "name": "C3",
            "ticks": 74880,
            "time": 78,
            "velocity": 0.4409448818897638
          },
          {
            "duration": 0.22604166666666003,
            "durationTicks": 217,
            "midi": 48,
            "name": "C3",
            "ticks": 75120,
            "time": 78.25,
            "velocity": 0.47244094488188976
          },
          {
            "duration": 0.22604166666666003,
            "durationTicks": 217,
            "midi": 48,
            "name": "C3",
            "ticks": 75360,
            "time": 78.5,
            "velocity": 0.44881889763779526
          },
          {
            "duration": 0.45104166666666856,
            "durationTicks": 433,
            "midi": 53,
            "name": "F3",
            "ticks": 75600,
            "time": 78.75,
            "velocity": 0.5511811023622047
          },
          {
            "duration": 0.22604166666666003,
            "durationTicks": 217,
            "midi": 51,
            "name": "D#3",
            "ticks": 78720,
            "time": 82,
            "velocity": 0.3779527559055118
          },
          {
            "duration": 0.22604166666666003,
            "durationTicks": 217,
            "midi": 51,
            "name": "D#3",
            "ticks": 78960,
            "time": 82.25,
            "velocity": 0.47244094488188976
          },
          {
            "duration": 0.22604166666666003,
            "durationTicks": 217,
            "midi": 51,
            "name": "D#3",
            "ticks": 79200,
            "time": 82.5,
            "velocity": 0.49606299212598426
          },
          {
            "duration": 0.45104166666666856,
            "durationTicks": 433,
            "midi": 56,
            "name": "G#3",
            "ticks": 79440,
            "time": 82.75,
            "velocity": 0.49606299212598426
          },
          {
            "duration": 0.5093750000000057,
            "durationTicks": 489,
            "midi": 63,
            "name": "D#4",
            "ticks": 80400,
            "time": 83.75,
            "velocity": 0.4566929133858268
          },
          {
            "duration": 0.5093750000000057,
            "durationTicks": 489,
            "midi": 65,
            "name": "F4",
            "ticks": 80880,
            "time": 84.25,
            "velocity": 0.4409448818897638
          },
          {
            "duration": 0.5093750000000057,
            "durationTicks": 489,
            "midi": 66,
            "name": "F#4",
            "ticks": 81360,
            "time": 84.75,
            "velocity": 0.4881889763779528
          },
          {
            "duration": 0.5093750000000057,
            "durationTicks": 489,
            "midi": 65,
            "name": "F4",
            "ticks": 81840,
            "time": 85.25,
            "velocity": 0.4645669291338583
          },
          {
            "duration": 0.5093750000000057,
            "durationTicks": 489,
            "midi": 63,
            "name": "D#4",
            "ticks": 82320,
            "time": 85.75,
            "velocity": 0.4251968503937008
          },
          {
            "duration": 0.4749999999999943,
            "durationTicks": 456,
            "midi": 65,
            "name": "F4",
            "ticks": 82800,
            "time": 86.25,
            "velocity": 0.4409448818897638
          },
          {
            "duration": 0.5093750000000057,
            "durationTicks": 489,
            "midi": 66,
            "name": "F#4",
            "ticks": 83280,
            "time": 86.75,
            "velocity": 0.5196850393700787
          },
          {
            "duration": 0.5093750000000057,
            "durationTicks": 489,
            "midi": 65,
            "name": "F4",
            "ticks": 83760,
            "time": 87.25,
            "velocity": 0.4881889763779528
          },
          {
            "duration": 0.5093750000000057,
            "durationTicks": 489,
            "midi": 63,
            "name": "D#4",
            "ticks": 84240,
            "time": 87.75,
            "velocity": 0.49606299212598426
          },
          {
            "duration": 0.4749999999999943,
            "durationTicks": 456,
            "midi": 65,
            "name": "F4",
            "ticks": 84720,
            "time": 88.25,
            "velocity": 0.5196850393700787
          },
          {
            "duration": 0.5093750000000057,
            "durationTicks": 489,
            "midi": 66,
            "name": "F#4",
            "ticks": 85200,
            "time": 88.75,
            "velocity": 0.5590551181102362
          },
          {
            "duration": 0.5093750000000057,
            "durationTicks": 489,
            "midi": 65,
            "name": "F4",
            "ticks": 85680,
            "time": 89.25,
            "velocity": 0.5354330708661418
          },
          {
            "duration": 0.5093750000000057,
            "durationTicks": 489,
            "midi": 63,
            "name": "D#4",
            "ticks": 86160,
            "time": 89.75,
            "velocity": 0.5039370078740157
          },
          {
            "duration": 0.4749999999999943,
            "durationTicks": 456,
            "midi": 65,
            "name": "F4",
            "ticks": 86640,
            "time": 90.25,
            "velocity": 0.6614173228346457
          },
          {
            "duration": 0.5093750000000057,
            "durationTicks": 489,
            "midi": 66,
            "name": "F#4",
            "ticks": 87120,
            "time": 90.75,
            "velocity": 0.7165354330708661
          },
          {
            "duration": 0.5093750000000057,
            "durationTicks": 489,
            "midi": 65,
            "name": "F4",
            "ticks": 87600,
            "time": 91.25,
            "velocity": 0.7165354330708661
          },
          {
            "duration": 0.5093750000000057,
            "durationTicks": 489,
            "midi": 63,
            "name": "D#4",
            "ticks": 88080,
            "time": 91.75,
            "velocity": 0.6141732283464567
          },
          {
            "duration": 0.5093750000000057,
            "durationTicks": 489,
            "midi": 65,
            "name": "F4",
            "ticks": 88560,
            "time": 92.25,
            "velocity": 0.6614173228346457
          },
          {
            "duration": 0.5093750000000057,
            "durationTicks": 489,
            "midi": 66,
            "name": "F#4",
            "ticks": 89040,
            "time": 92.75,
            "velocity": 0.6929133858267716
          },
          {
            "duration": 0.5093750000000057,
            "durationTicks": 489,
            "midi": 65,
            "name": "F4",
            "ticks": 89520,
            "time": 93.25,
            "velocity": 0.7244094488188977
          },
          {
            "duration": 0.5093750000000057,
            "durationTicks": 489,
            "midi": 66,
            "name": "F#4",
            "ticks": 90000,
            "time": 93.75,
            "velocity": 0.7559055118110236
          },
          {
            "duration": 0.4749999999999943,
            "durationTicks": 456,
            "midi": 60,
            "name": "C4",
            "ticks": 90480,
            "time": 94.25,
            "velocity": 0.6929133858267716
          },
          {
            "duration": 1.4510416666666686,
            "durationTicks": 1393,
            "midi": 62,
            "name": "D4",
            "ticks": 90960,
            "time": 94.75,
            "velocity": 0.937007874015748
          },
          {
            "duration": 0.45104166666666856,
            "durationTicks": 433,
            "midi": 50,
            "name": "D3",
            "ticks": 92400,
            "time": 96.25,
            "velocity": 0.7716535433070866
          },
          {
            "duration": 0.45104166666666856,
            "durationTicks": 433,
            "midi": 51,
            "name": "D#3",
            "ticks": 92880,
            "time": 96.75,
            "velocity": 0.9133858267716536
          },
          {
            "duration": 0.45104166666666856,
            "durationTicks": 433,
            "midi": 53,
            "name": "F3",
            "ticks": 93840,
            "time": 97.75,
            "velocity": 0.7874015748031497
          },
          {
            "duration": 0.45104166666666856,
            "durationTicks": 433,
            "midi": 55,
            "name": "G3",
            "ticks": 94800,
            "time": 98.75,
            "velocity": 0.8188976377952756
          },
          {
            "duration": 0.45104166666666856,
            "durationTicks": 433,
            "midi": 56,
            "name": "G#3",
            "ticks": 95760,
            "time": 99.75,
            "velocity": 0.7874015748031497
          },
          {
            "duration": 0.45104166666666856,
            "durationTicks": 433,
            "midi": 58,
            "name": "A#3",
            "ticks": 96720,
            "time": 100.75,
            "velocity": 0.8188976377952756
          },
          {
            "duration": 0.45104166666666856,
            "durationTicks": 433,
            "midi": 46,
            "name": "A#2",
            "ticks": 97680,
            "time": 101.75,
            "velocity": 0.8188976377952756
          },
          {
            "duration": 0.45104166666666856,
            "durationTicks": 433,
            "midi": 50,
            "name": "D3",
            "ticks": 98640,
            "time": 102.75,
            "velocity": 0.7795275590551181
          },
          {
            "duration": 0.45104166666666856,
            "durationTicks": 433,
            "midi": 53,
            "name": "F3",
            "ticks": 99120,
            "time": 103.25,
            "velocity": 0.9291338582677166
          },
          {
            "duration": 0.45104166666666856,
            "durationTicks": 433,
            "midi": 50,
            "name": "D3",
            "ticks": 99600,
            "time": 103.75,
            "velocity": 0.8976377952755905
          },
          {
            "duration": 0.45104166666666856,
            "durationTicks": 433,
            "midi": 53,
            "name": "F3",
            "ticks": 100080,
            "time": 104.25,
            "velocity": 0.937007874015748
          },
          {
            "duration": 0.45104166666666856,
            "durationTicks": 433,
            "midi": 51,
            "name": "D#3",
            "ticks": 100560,
            "time": 104.75,
            "velocity": 0.8661417322834646
          },
          {
            "duration": 0.45104166666666856,
            "durationTicks": 433,
            "midi": 55,
            "name": "G3",
            "ticks": 101040,
            "time": 105.25,
            "velocity": 0.9212598425196851
          },
          {
            "duration": 0.45104166666666856,
            "durationTicks": 433,
            "midi": 53,
            "name": "F3",
            "ticks": 101520,
            "time": 105.75,
            "velocity": 0.8818897637795275
          },
          {
            "duration": 0.45104166666666856,
            "durationTicks": 433,
            "midi": 56,
            "name": "G#3",
            "ticks": 102000,
            "time": 106.25,
            "velocity": 0.952755905511811
          },
          {
            "duration": 0.45104166666666856,
            "durationTicks": 433,
            "midi": 55,
            "name": "G3",
            "ticks": 102480,
            "time": 106.75,
            "velocity": 0.84251968503937
          },
          {
            "duration": 0.45104166666666856,
            "durationTicks": 433,
            "midi": 58,
            "name": "A#3",
            "ticks": 102960,
            "time": 107.25,
            "velocity": 0.9448818897637795
          },
          {
            "duration": 0.45104166666666856,
            "durationTicks": 433,
            "midi": 56,
            "name": "G#3",
            "ticks": 103440,
            "time": 107.75,
            "velocity": 0.889763779527559
          },
          {
            "duration": 0.45104166666666856,
            "durationTicks": 433,
            "midi": 60,
            "name": "C4",
            "ticks": 103920,
            "time": 108.25,
            "velocity": 0.984251968503937
          },
          {
            "duration": 0.45104166666666856,
            "durationTicks": 433,
            "midi": 58,
            "name": "A#3",
            "ticks": 104400,
            "time": 108.75,
            "velocity": 0.889763779527559
          },
          {
            "duration": 0.45104166666666856,
            "durationTicks": 433,
            "midi": 46,
            "name": "A#2",
            "ticks": 104880,
            "time": 109.25,
            "velocity": 0.7795275590551181
          },
          {
            "duration": 0.45104166666666856,
            "durationTicks": 433,
            "midi": 58,
            "name": "A#3",
            "ticks": 105360,
            "time": 109.75,
            "velocity": 1
          },
          {
            "duration": 0.45104166666666856,
            "durationTicks": 433,
            "midi": 46,
            "name": "A#2",
            "ticks": 105840,
            "time": 110.25,
            "velocity": 0.7480314960629921
          },
          {
            "duration": 3.22604166666666,
            "durationTicks": 3097,
            "midi": 51,
            "name": "D#3",
            "ticks": 106320,
            "time": 110.75,
            "velocity": 0.9133858267716536
          },
          {
            "duration": 0.22604166666666003,
            "durationTicks": 217,
            "midi": 46,
            "name": "A#2",
            "ticks": 109440,
            "time": 114,
            "velocity": 0.8110236220472441
          },
          {
            "duration": 0.22604166666666003,
            "durationTicks": 217,
            "midi": 46,
            "name": "A#2",
            "ticks": 109680,
            "time": 114.25,
            "velocity": 0.8582677165354331
          },
          {
            "duration": 0.22604166666666003,
            "durationTicks": 217,
            "midi": 46,
            "name": "A#2",
            "ticks": 109920,
            "time": 114.5,
            "velocity": 0.9212598425196851
          },
          {
            "duration": 3.22604166666666,
            "durationTicks": 3097,
            "midi": 51,
            "name": "D#3",
            "ticks": 110160,
            "time": 114.75,
            "velocity": 0.9448818897637795
          },
          {
            "duration": 0.22604166666666003,
            "durationTicks": 217,
            "midi": 46,
            "name": "A#2",
            "ticks": 113280,
            "time": 118,
            "velocity": 0.84251968503937
          },
          {
            "duration": 0.22604166666666003,
            "durationTicks": 217,
            "midi": 46,
            "name": "A#2",
            "ticks": 113520,
            "time": 118.25,
            "velocity": 0.84251968503937
          },
          {
            "duration": 0.22604166666666003,
            "durationTicks": 217,
            "midi": 46,
            "name": "A#2",
            "ticks": 113760,
            "time": 118.5,
            "velocity": 0.905511811023622
          },
          {
            "duration": 0.45104166666666856,
            "durationTicks": 433,
            "midi": 51,
            "name": "D#3",
            "ticks": 114000,
            "time": 118.75,
            "velocity": 0.9763779527559056
          },
          {
            "duration": 0.22604166666666003,
            "durationTicks": 217,
            "midi": 46,
            "name": "A#2",
            "ticks": 115200,
            "time": 120,
            "velocity": 0.7795275590551181
          },
          {
            "duration": 0.22604166666666003,
            "durationTicks": 217,
            "midi": 46,
            "name": "A#2",
            "ticks": 115440,
            "time": 120.25,
            "velocity": 0.8818897637795275
          },
          {
            "duration": 0.22604166666666003,
            "durationTicks": 217,
            "midi": 46,
            "name": "A#2",
            "ticks": 115680,
            "time": 120.5,
            "velocity": 0.889763779527559
          },
          {
            "duration": 0.45104166666666856,
            "durationTicks": 433,
            "midi": 51,
            "name": "D#3",
            "ticks": 115920,
            "time": 120.75,
            "velocity": 0.952755905511811
          },
          {
            "duration": 0.22604166666666003,
            "durationTicks": 217,
            "midi": 46,
            "name": "A#2",
            "ticks": 117120,
            "time": 122,
            "velocity": 0.7952755905511811
          },
          {
            "duration": 0.22604166666666003,
            "durationTicks": 217,
            "midi": 46,
            "name": "A#2",
            "ticks": 117360,
            "time": 122.25,
            "velocity": 0.84251968503937
          },
          {
            "duration": 0.22604166666666003,
            "durationTicks": 217,
            "midi": 46,
            "name": "A#2",
            "ticks": 117600,
            "time": 122.5,
            "velocity": 0.8976377952755905
          },
          {
            "duration": 0.45104166666666856,
            "durationTicks": 433,
            "midi": 51,
            "name": "D#3",
            "ticks": 117840,
            "time": 122.75,
            "velocity": 0.9448818897637795
          },
          {
            "duration": 0.22604166666666003,
            "durationTicks": 217,
            "midi": 43,
            "name": "G2",
            "ticks": 120960,
            "time": 126,
            "velocity": 0.7637795275590551
          },
          {
            "duration": 0.22604166666666003,
            "durationTicks": 217,
            "midi": 43,
            "name": "G2",
            "ticks": 121200,
            "time": 126.25,
            "velocity": 0.8976377952755905
          },
          {
            "duration": 0.22604166666666003,
            "durationTicks": 217,
            "midi": 43,
            "name": "G2",
            "ticks": 121440,
            "time": 126.5,
            "velocity": 0.9212598425196851
          },
          {
            "duration": 1.5,
            "durationTicks": 1440,
            "midi": 39,
            "name": "D#2",
            "ticks": 121680,
            "time": 126.75,
            "velocity": 0.8661417322834646
          },
          {
            "duration": 0.22604166666667425,
            "durationTicks": 217,
            "midi": 41,
            "name": "F2",
            "ticks": 123360,
            "time": 128.5,
            "velocity": 0.7559055118110236
          },
          {
            "duration": 0.22604166666667425,
            "durationTicks": 217,
            "midi": 41,
            "name": "F2",
            "ticks": 123600,
            "time": 128.75,
            "velocity": 0.8740157480314961
          },
          {
            "duration": 0.22604166666667425,
            "durationTicks": 217,
            "midi": 41,
            "name": "F2",
            "ticks": 123840,
            "time": 129,
            "velocity": 0.8818897637795275
          },
          {
            "duration": 2.5,
            "durationTicks": 2400,
            "midi": 38,
            "name": "D2",
            "ticks": 124080,
            "time": 129.25,
            "velocity": 0.8740157480314961
          },
          {
            "duration": 3.9000000000000057,
            "durationTicks": 3744,
            "midi": 60,
            "name": "C4",
            "ticks": 127440,
            "time": 132.75,
            "velocity": 0.6377952755905512
          },
          {
            "duration": 3.9000000000000057,
            "durationTicks": 3744,
            "midi": 59,
            "name": "B3",
            "ticks": 131280,
            "time": 136.75,
            "velocity": 0.4566929133858268
          },
          {
            "duration": 0.9000000000000057,
            "durationTicks": 864,
            "midi": 60,
            "name": "C4",
            "ticks": 135120,
            "time": 140.75,
            "velocity": 0.49606299212598426
          },
          {
            "duration": 0.9000000000000057,
            "durationTicks": 864,
            "midi": 59,
            "name": "B3",
            "ticks": 136080,
            "time": 141.75,
            "velocity": 0.47244094488188976
          },
          {
            "duration": 0.9000000000000057,
            "durationTicks": 864,
            "midi": 60,
            "name": "C4",
            "ticks": 137040,
            "time": 142.75,
            "velocity": 0.5354330708661418
          },
          {
            "duration": 0.22604166666667425,
            "durationTicks": 217,
            "midi": 59,
            "name": "B3",
            "ticks": 138000,
            "time": 143.75,
            "velocity": 0.49606299212598426
          },
          {
            "duration": 0.22604166666667425,
            "durationTicks": 217,
            "midi": 59,
            "name": "B3",
            "ticks": 138240,
            "time": 144,
            "velocity": 0.48031496062992124
          },
          {
            "duration": 0.22604166666667425,
            "durationTicks": 217,
            "midi": 59,
            "name": "B3",
            "ticks": 138480,
            "time": 144.25,
            "velocity": 0.5511811023622047
          },
          {
            "duration": 0.22604166666667425,
            "durationTicks": 217,
            "midi": 59,
            "name": "B3",
            "ticks": 138720,
            "time": 144.5,
            "velocity": 0.6141732283464567
          },
          {
            "duration": 0.45104166666666856,
            "durationTicks": 433,
            "midi": 60,
            "name": "C4",
            "ticks": 138960,
            "time": 144.75,
            "velocity": 0.8110236220472441
          },
          {
            "duration": 0.45104166666666856,
            "durationTicks": 433,
            "midi": 44,
            "name": "G#2",
            "ticks": 139920,
            "time": 145.75,
            "velocity": 0.7007874015748031
          },
          {
            "duration": 0.45104166666666856,
            "durationTicks": 433,
            "midi": 43,
            "name": "G2",
            "ticks": 140880,
            "time": 146.75,
            "velocity": 0.6850393700787402
          },
          {
            "duration": 0.22604166666667425,
            "durationTicks": 217,
            "midi": 44,
            "name": "G#2",
            "ticks": 142320,
            "time": 148.25,
            "velocity": 0.7007874015748031
          },
          {
            "duration": 0.22604166666667425,
            "durationTicks": 217,
            "midi": 44,
            "name": "G#2",
            "ticks": 142560,
            "time": 148.5,
            "velocity": 0.7559055118110236
          },
          {
            "duration": 0.22604166666667425,
            "durationTicks": 217,
            "midi": 44,
            "name": "G#2",
            "ticks": 142800,
            "time": 148.75,
            "velocity": 0.7637795275590551
          },
          {
            "duration": 2.5,
            "durationTicks": 2400,
            "midi": 41,
            "name": "F2",
            "ticks": 143040,
            "time": 149,
            "velocity": 0.7401574803149606
          },
          {
            "duration": 0.22604166666667425,
            "durationTicks": 217,
            "midi": 43,
            "name": "G2",
            "ticks": 148560,
            "time": 154.75,
            "velocity": 0.41732283464566927
          },
          {
            "duration": 0.22604166666667425,
            "durationTicks": 217,
            "midi": 43,
            "name": "G2",
            "ticks": 148800,
            "time": 155,
            "velocity": 0.4566929133858268
          },
          {
            "duration": 0.22604166666667425,
            "durationTicks": 217,
            "midi": 43,
            "name": "G2",
            "ticks": 149040,
            "time": 155.25,
            "velocity": 0.4645669291338583
          },
          {
            "duration": 0.45104166666666856,
            "durationTicks": 433,
            "midi": 48,
            "name": "C3",
            "ticks": 149280,
            "time": 155.5,
            "velocity": 0.5039370078740157
          },
          {
            "duration": 0.22604166666667425,
            "durationTicks": 217,
            "midi": 43,
            "name": "G2",
            "ticks": 152400,
            "time": 158.75,
            "velocity": 0.4409448818897638
          },
          {
            "duration": 0.22604166666667425,
            "durationTicks": 217,
            "midi": 43,
            "name": "G2",
            "ticks": 152640,
            "time": 159,
            "velocity": 0.44881889763779526
          },
          {
            "duration": 0.22604166666667425,
            "durationTicks": 217,
            "midi": 43,
            "name": "G2",
            "ticks": 152880,
            "time": 159.25,
            "velocity": 0.49606299212598426
          },
          {
            "duration": 0.45104166666666856,
            "durationTicks": 433,
            "midi": 48,
            "name": "C3",
            "ticks": 153120,
            "time": 159.5,
            "velocity": 0.5275590551181102
          },
          {
            "duration": 0.22604166666667425,
            "durationTicks": 217,
            "midi": 48,
            "name": "C3",
            "ticks": 154320,
            "time": 160.75,
            "velocity": 0.4330708661417323
          },
          {
            "duration": 0.22604166666667425,
            "durationTicks": 217,
            "midi": 48,
            "name": "C3",
            "ticks": 154560,
            "time": 161,
            "velocity": 0.48031496062992124
          },
          {
            "duration": 0.22604166666667425,
            "durationTicks": 217,
            "midi": 48,
            "name": "C3",
            "ticks": 154800,
            "time": 161.25,
            "velocity": 0.49606299212598426
          },
          {
            "duration": 0.45104166666666856,
            "durationTicks": 433,
            "midi": 48,
            "name": "C3",
            "ticks": 155040,
            "time": 161.5,
            "velocity": 0.48031496062992124
          },
          {
            "duration": 0.22604166666667425,
            "durationTicks": 217,
            "midi": 48,
            "name": "C3",
            "ticks": 156240,
            "time": 162.75,
            "velocity": 0.48031496062992124
          },
          {
            "duration": 0.22604166666667425,
            "durationTicks": 217,
            "midi": 48,
            "name": "C3",
            "ticks": 156480,
            "time": 163,
            "velocity": 0.5196850393700787
          },
          {
            "duration": 0.22604166666667425,
            "durationTicks": 217,
            "midi": 48,
            "name": "C3",
            "ticks": 156720,
            "time": 163.25,
            "velocity": 0.5669291338582677
          },
          {
            "duration": 0.45104166666666856,
            "durationTicks": 433,
            "midi": 48,
            "name": "C3",
            "ticks": 156960,
            "time": 163.5,
            "velocity": 0.5118110236220472
          },
          {
            "duration": 0.45104166666666856,
            "durationTicks": 433,
            "midi": 48,
            "name": "C3",
            "ticks": 157920,
            "time": 164.5,
            "velocity": 0.6141732283464567
          },
          {
            "duration": 0.45104166666666856,
            "durationTicks": 433,
            "midi": 48,
            "name": "C3",
            "ticks": 158880,
            "time": 165.5,
            "velocity": 0.7007874015748031
          },
          {
            "duration": 0.45104166666666856,
            "durationTicks": 433,
            "midi": 48,
            "name": "C3",
            "ticks": 159840,
            "time": 166.5,
            "velocity": 0.6850393700787402
          },
          {
            "duration": 0.45104166666666856,
            "durationTicks": 433,
            "midi": 48,
            "name": "C3",
            "ticks": 160800,
            "time": 167.5,
            "velocity": 0.7637795275590551
          },
          {
            "duration": 0.45104166666666856,
            "durationTicks": 433,
            "midi": 48,
            "name": "C3",
            "ticks": 161760,
            "time": 168.5,
            "velocity": 0.7322834645669292
          },
          {
            "duration": 0.45104166666666856,
            "durationTicks": 433,
            "midi": 48,
            "name": "C3",
            "ticks": 162720,
            "time": 169.5,
            "velocity": 0.7637795275590551
          },
          {
            "duration": 3.2260416666666742,
            "durationTicks": 3097,
            "midi": 48,
            "name": "C3",
            "ticks": 163680,
            "time": 170.5,
            "velocity": 0.7244094488188977
          },
          {
            "duration": 0.22604166666667425,
            "durationTicks": 217,
            "midi": 48,
            "name": "C3",
            "ticks": 166800,
            "time": 173.75,
            "velocity": 0.7559055118110236
          },
          {
            "duration": 0.22604166666667425,
            "durationTicks": 217,
            "midi": 48,
            "name": "C3",
            "ticks": 167040,
            "time": 174,
            "velocity": 0.7874015748031497
          },
          {
            "duration": 0.22604166666667425,
            "durationTicks": 217,
            "midi": 48,
            "name": "C3",
            "ticks": 167280,
            "time": 174.25,
            "velocity": 0.7637795275590551
          },
          {
            "duration": 3.2260416666666742,
            "durationTicks": 3097,
            "midi": 43,
            "name": "G2",
            "ticks": 167520,
            "time": 174.5,
            "velocity": 0.7086614173228346
          },
          {
            "duration": 0.22604166666667425,
            "durationTicks": 217,
            "midi": 43,
            "name": "G2",
            "ticks": 170640,
            "time": 177.75,
            "velocity": 0.7637795275590551
          },
          {
            "duration": 0.22604166666667425,
            "durationTicks": 217,
            "midi": 48,
            "name": "C3",
            "ticks": 170880,
            "time": 178,
            "velocity": 0.8110236220472441
          },
          {
            "duration": 0.22604166666667425,
            "durationTicks": 217,
            "midi": 48,
            "name": "C3",
            "ticks": 171120,
            "time": 178.25,
            "velocity": 0.8031496062992126
          },
          {
            "duration": 0.22604166666667425,
            "durationTicks": 217,
            "midi": 48,
            "name": "C3",
            "ticks": 171360,
            "time": 178.5,
            "velocity": 0.8582677165354331
          },
          {
            "duration": 0.22604166666667425,
            "durationTicks": 217,
            "midi": 48,
            "name": "C3",
            "ticks": 171600,
            "time": 178.75,
            "velocity": 0.8976377952755905
          },
          {
            "duration": 0.22604166666667425,
            "durationTicks": 217,
            "midi": 48,
            "name": "C3",
            "ticks": 171840,
            "time": 179,
            "velocity": 0.905511811023622
          },
          {
            "duration": 0.22604166666667425,
            "durationTicks": 217,
            "midi": 48,
            "name": "C3",
            "ticks": 172080,
            "time": 179.25,
            "velocity": 0.905511811023622
          },
          {
            "duration": 0.22604166666667425,
            "durationTicks": 217,
            "midi": 48,
            "name": "C3",
            "ticks": 172320,
            "time": 179.5,
            "velocity": 0.905511811023622
          },
          {
            "duration": 0.22604166666667425,
            "durationTicks": 217,
            "midi": 48,
            "name": "C3",
            "ticks": 172560,
            "time": 179.75,
            "velocity": 0.8818897637795275
          },
          {
            "duration": 0.22604166666667425,
            "durationTicks": 217,
            "midi": 48,
            "name": "C3",
            "ticks": 172800,
            "time": 180,
            "velocity": 0.889763779527559
          },
          {
            "duration": 0.22604166666667425,
            "durationTicks": 217,
            "midi": 48,
            "name": "C3",
            "ticks": 173040,
            "time": 180.25,
            "velocity": 0.8976377952755905
          },
          {
            "duration": 0.22604166666667425,
            "durationTicks": 217,
            "midi": 48,
            "name": "C3",
            "ticks": 173280,
            "time": 180.5,
            "velocity": 0.84251968503937
          },
          {
            "duration": 0.22604166666667425,
            "durationTicks": 217,
            "midi": 48,
            "name": "C3",
            "ticks": 173520,
            "time": 180.75,
            "velocity": 0.8976377952755905
          },
          {
            "duration": 0.22604166666667425,
            "durationTicks": 217,
            "midi": 48,
            "name": "C3",
            "ticks": 173760,
            "time": 181,
            "velocity": 0.937007874015748
          },
          {
            "duration": 0.22604166666667425,
            "durationTicks": 217,
            "midi": 48,
            "name": "C3",
            "ticks": 174000,
            "time": 181.25,
            "velocity": 0.8503937007874016
          },
          {
            "duration": 0.22604166666667425,
            "durationTicks": 217,
            "midi": 48,
            "name": "C3",
            "ticks": 174240,
            "time": 181.5,
            "velocity": 0.9133858267716536
          },
          {
            "duration": 0.22604166666667425,
            "durationTicks": 217,
            "midi": 48,
            "name": "C3",
            "ticks": 174480,
            "time": 181.75,
            "velocity": 0.905511811023622
          },
          {
            "duration": 0.22604166666667425,
            "durationTicks": 217,
            "midi": 48,
            "name": "C3",
            "ticks": 174720,
            "time": 182,
            "velocity": 0.889763779527559
          },
          {
            "duration": 0.22604166666667425,
            "durationTicks": 217,
            "midi": 48,
            "name": "C3",
            "ticks": 174960,
            "time": 182.25,
            "velocity": 0.8582677165354331
          },
          {
            "duration": 0.45104166666666856,
            "durationTicks": 433,
            "midi": 48,
            "name": "C3",
            "ticks": 175200,
            "time": 182.5,
            "velocity": 0.9212598425196851
          },
          {
            "duration": 0.45104166666666856,
            "durationTicks": 433,
            "midi": 50,
            "name": "D3",
            "ticks": 177120,
            "time": 184.5,
            "velocity": 0.8346456692913385
          },
          {
            "duration": 0.22604166666667425,
            "durationTicks": 217,
            "midi": 46,
            "name": "A#2",
            "ticks": 184080,
            "time": 191.75,
            "velocity": 0.41732283464566927
          },
          {
            "duration": 0.22604166666667425,
            "durationTicks": 217,
            "midi": 46,
            "name": "A#2",
            "ticks": 184320,
            "time": 192,
            "velocity": 0.4881889763779528
          },
          {
            "duration": 0.22604166666667425,
            "durationTicks": 217,
            "midi": 46,
            "name": "A#2",
            "ticks": 184560,
            "time": 192.25,
            "velocity": 0.49606299212598426
          },
          {
            "duration": 0.45104166666666856,
            "durationTicks": 433,
            "midi": 51,
            "name": "D#3",
            "ticks": 184800,
            "time": 192.5,
            "velocity": 0.5275590551181102
          },
          {
            "duration": 0.22604166666667425,
            "durationTicks": 217,
            "midi": 46,
            "name": "A#2",
            "ticks": 187920,
            "time": 195.75,
            "velocity": 0.4881889763779528
          },
          {
            "duration": 0.22604166666667425,
            "durationTicks": 217,
            "midi": 46,
            "name": "A#2",
            "ticks": 188160,
            "time": 196,
            "velocity": 0.4409448818897638
          },
          {
            "duration": 0.22604166666667425,
            "durationTicks": 217,
            "midi": 46,
            "name": "A#2",
            "ticks": 188400,
            "time": 196.25,
            "velocity": 0.5196850393700787
          },
          {
            "duration": 0.45104166666666856,
            "durationTicks": 433,
            "midi": 51,
            "name": "D#3",
            "ticks": 188640,
            "time": 196.5,
            "velocity": 0.4645669291338583
          },
          {
            "duration": 0.22604166666667425,
            "durationTicks": 217,
            "midi": 46,
            "name": "A#2",
            "ticks": 191760,
            "time": 199.75,
            "velocity": 0.4409448818897638
          },
          {
            "duration": 0.22604166666667425,
            "durationTicks": 217,
            "midi": 46,
            "name": "A#2",
            "ticks": 192000,
            "time": 200,
            "velocity": 0.4330708661417323
          },
          {
            "duration": 0.22604166666667425,
            "durationTicks": 217,
            "midi": 46,
            "name": "A#2",
            "ticks": 192240,
            "time": 200.25,
            "velocity": 0.4881889763779528
          },
          {
            "duration": 0.45104166666666856,
            "durationTicks": 433,
            "midi": 51,
            "name": "D#3",
            "ticks": 192480,
            "time": 200.5,
            "velocity": 0.49606299212598426
          },
          {
            "duration": 0.22604166666667425,
            "durationTicks": 217,
            "midi": 48,
            "name": "C3",
            "ticks": 195600,
            "time": 203.75,
            "velocity": 0.4251968503937008
          },
          {
            "duration": 0.22604166666667425,
            "durationTicks": 217,
            "midi": 48,
            "name": "C3",
            "ticks": 195840,
            "time": 204,
            "velocity": 0.44881889763779526
          },
          {
            "duration": 0.22604166666667425,
            "durationTicks": 217,
            "midi": 48,
            "name": "C3",
            "ticks": 196080,
            "time": 204.25,
            "velocity": 0.5275590551181102
          },
          {
            "duration": 0.45104166666666856,
            "durationTicks": 433,
            "midi": 53,
            "name": "F3",
            "ticks": 196320,
            "time": 204.5,
            "velocity": 0.5275590551181102
          },
          {
            "duration": 0.22604166666667425,
            "durationTicks": 217,
            "midi": 51,
            "name": "D#3",
            "ticks": 199440,
            "time": 207.75,
            "velocity": 0.4330708661417323
          },
          {
            "duration": 0.22604166666667425,
            "durationTicks": 217,
            "midi": 51,
            "name": "D#3",
            "ticks": 199680,
            "time": 208,
            "velocity": 0.47244094488188976
          },
          {
            "duration": 0.22604166666667425,
            "durationTicks": 217,
            "midi": 51,
            "name": "D#3",
            "ticks": 199920,
            "time": 208.25,
            "velocity": 0.5118110236220472
          },
          {
            "duration": 0.45104166666666856,
            "durationTicks": 433,
            "midi": 56,
            "name": "G#3",
            "ticks": 200160,
            "time": 208.5,
            "velocity": 0.5118110236220472
          },
          {
            "duration": 0.5093750000000057,
            "durationTicks": 489,
            "midi": 63,
            "name": "D#4",
            "ticks": 201120,
            "time": 209.5,
            "velocity": 0.47244094488188976
          },
          {
            "duration": 0.5093750000000057,
            "durationTicks": 489,
            "midi": 65,
            "name": "F4",
            "ticks": 201600,
            "time": 210,
            "velocity": 0.5039370078740157
          },
          {
            "duration": 0.5093750000000057,
            "durationTicks": 489,
            "midi": 66,
            "name": "F#4",
            "ticks": 202080,
            "time": 210.5,
            "velocity": 0.5039370078740157
          },
          {
            "duration": 0.5093750000000057,
            "durationTicks": 489,
            "midi": 65,
            "name": "F4",
            "ticks": 202560,
            "time": 211,
            "velocity": 0.5039370078740157
          },
          {
            "duration": 0.5093750000000057,
            "durationTicks": 489,
            "midi": 63,
            "name": "D#4",
            "ticks": 203040,
            "time": 211.5,
            "velocity": 0.4566929133858268
          },
          {
            "duration": 0.4749999999999943,
            "durationTicks": 456,
            "midi": 65,
            "name": "F4",
            "ticks": 203520,
            "time": 212,
            "velocity": 0.4645669291338583
          },
          {
            "duration": 0.5093750000000057,
            "durationTicks": 489,
            "midi": 66,
            "name": "F#4",
            "ticks": 204000,
            "time": 212.5,
            "velocity": 0.4881889763779528
          },
          {
            "duration": 0.5093750000000057,
            "durationTicks": 489,
            "midi": 65,
            "name": "F4",
            "ticks": 204480,
            "time": 213,
            "velocity": 0.4409448818897638
          },
          {
            "duration": 0.5093750000000057,
            "durationTicks": 489,
            "midi": 63,
            "name": "D#4",
            "ticks": 204960,
            "time": 213.5,
            "velocity": 0.5354330708661418
          },
          {
            "duration": 0.4749999999999943,
            "durationTicks": 456,
            "midi": 65,
            "name": "F4",
            "ticks": 205440,
            "time": 214,
            "velocity": 0.5748031496062992
          },
          {
            "duration": 0.5093750000000057,
            "durationTicks": 489,
            "midi": 66,
            "name": "F#4",
            "ticks": 205920,
            "time": 214.5,
            "velocity": 0.5826771653543307
          },
          {
            "duration": 0.5093750000000057,
            "durationTicks": 489,
            "midi": 65,
            "name": "F4",
            "ticks": 206400,
            "time": 215,
            "velocity": 0.5590551181102362
          },
          {
            "duration": 0.5093750000000057,
            "durationTicks": 489,
            "midi": 63,
            "name": "D#4",
            "ticks": 206880,
            "time": 215.5,
            "velocity": 0.5039370078740157
          },
          {
            "duration": 0.4749999999999943,
            "durationTicks": 456,
            "midi": 65,
            "name": "F4",
            "ticks": 207360,
            "time": 216,
            "velocity": 0.6850393700787402
          },
          {
            "duration": 0.5093750000000057,
            "durationTicks": 489,
            "midi": 66,
            "name": "F#4",
            "ticks": 207840,
            "time": 216.5,
            "velocity": 0.7086614173228346
          },
          {
            "duration": 0.5093750000000057,
            "durationTicks": 489,
            "midi": 65,
            "name": "F4",
            "ticks": 208320,
            "time": 217,
            "velocity": 0.7086614173228346
          },
          {
            "duration": 0.5093750000000057,
            "durationTicks": 489,
            "midi": 63,
            "name": "D#4",
            "ticks": 208800,
            "time": 217.5,
            "velocity": 0.5905511811023622
          },
          {
            "duration": 0.5093750000000057,
            "durationTicks": 489,
            "midi": 65,
            "name": "F4",
            "ticks": 209280,
            "time": 218,
            "velocity": 0.6377952755905512
          },
          {
            "duration": 0.5093750000000057,
            "durationTicks": 489,
            "midi": 66,
            "name": "F#4",
            "ticks": 209760,
            "time": 218.5,
            "velocity": 0.6929133858267716
          },
          {
            "duration": 0.5093750000000057,
            "durationTicks": 489,
            "midi": 65,
            "name": "F4",
            "ticks": 210240,
            "time": 219,
            "velocity": 0.7480314960629921
          },
          {
            "duration": 0.5093750000000057,
            "durationTicks": 489,
            "midi": 66,
            "name": "F#4",
            "ticks": 210720,
            "time": 219.5,
            "velocity": 0.8110236220472441
          },
          {
            "duration": 0.4749999999999943,
            "durationTicks": 456,
            "midi": 60,
            "name": "C4",
            "ticks": 211200,
            "time": 220,
            "velocity": 0.6614173228346457
          },
          {
            "duration": 1.4510416666666686,
            "durationTicks": 1393,
            "midi": 62,
            "name": "D4",
            "ticks": 211680,
            "time": 220.5,
            "velocity": 0.9291338582677166
          },
          {
            "duration": 0.45104166666666856,
            "durationTicks": 433,
            "midi": 50,
            "name": "D3",
            "ticks": 213120,
            "time": 222,
            "velocity": 0.7874015748031497
          },
          {
            "duration": 0.45104166666666856,
            "durationTicks": 433,
            "midi": 51,
            "name": "D#3",
            "ticks": 213600,
            "time": 222.5,
            "velocity": 0.8818897637795275
          },
          {
            "duration": 0.45104166666666856,
            "durationTicks": 433,
            "midi": 53,
            "name": "F3",
            "ticks": 214560,
            "time": 223.5,
            "velocity": 0.7637795275590551
          },
          {
            "duration": 0.45104166666666856,
            "durationTicks": 433,
            "midi": 55,
            "name": "G3",
            "ticks": 215520,
            "time": 224.5,
            "velocity": 0.8188976377952756
          },
          {
            "duration": 0.45104166666666856,
            "durationTicks": 433,
            "midi": 56,
            "name": "G#3",
            "ticks": 216480,
            "time": 225.5,
            "velocity": 0.7952755905511811
          },
          {
            "duration": 0.45104166666666856,
            "durationTicks": 433,
            "midi": 58,
            "name": "A#3",
            "ticks": 217440,
            "time": 226.5,
            "velocity": 0.7795275590551181
          },
          {
            "duration": 0.45104166666666856,
            "durationTicks": 433,
            "midi": 46,
            "name": "A#2",
            "ticks": 218400,
            "time": 227.5,
            "velocity": 0.8188976377952756
          },
          {
            "duration": 0.45104166666666856,
            "durationTicks": 433,
            "midi": 50,
            "name": "D3",
            "ticks": 219360,
            "time": 228.5,
            "velocity": 0.7795275590551181
          },
          {
            "duration": 0.45104166666666856,
            "durationTicks": 433,
            "midi": 53,
            "name": "F3",
            "ticks": 219840,
            "time": 229,
            "velocity": 0.937007874015748
          },
          {
            "duration": 0.45104166666666856,
            "durationTicks": 433,
            "midi": 50,
            "name": "D3",
            "ticks": 220320,
            "time": 229.5,
            "velocity": 0.8503937007874016
          },
          {
            "duration": 0.45104166666666856,
            "durationTicks": 433,
            "midi": 53,
            "name": "F3",
            "ticks": 220800,
            "time": 230,
            "velocity": 0.9212598425196851
          },
          {
            "duration": 0.45104166666666856,
            "durationTicks": 433,
            "midi": 51,
            "name": "D#3",
            "ticks": 221280,
            "time": 230.5,
            "velocity": 0.8503937007874016
          },
          {
            "duration": 0.45104166666666856,
            "durationTicks": 433,
            "midi": 55,
            "name": "G3",
            "ticks": 221760,
            "time": 231,
            "velocity": 0.9291338582677166
          },
          {
            "duration": 0.45104166666666856,
            "durationTicks": 433,
            "midi": 53,
            "name": "F3",
            "ticks": 222240,
            "time": 231.5,
            "velocity": 0.8740157480314961
          },
          {
            "duration": 0.45104166666666856,
            "durationTicks": 433,
            "midi": 56,
            "name": "G#3",
            "ticks": 222720,
            "time": 232,
            "velocity": 0.937007874015748
          },
          {
            "duration": 0.45104166666666856,
            "durationTicks": 433,
            "midi": 55,
            "name": "G3",
            "ticks": 223200,
            "time": 232.5,
            "velocity": 0.8818897637795275
          },
          {
            "duration": 0.45104166666666856,
            "durationTicks": 433,
            "midi": 58,
            "name": "A#3",
            "ticks": 223680,
            "time": 233,
            "velocity": 0.9763779527559056
          },
          {
            "duration": 0.45104166666666856,
            "durationTicks": 433,
            "midi": 56,
            "name": "G#3",
            "ticks": 224160,
            "time": 233.5,
            "velocity": 0.84251968503937
          },
          {
            "duration": 0.45104166666666856,
            "durationTicks": 433,
            "midi": 60,
            "name": "C4",
            "ticks": 224640,
            "time": 234,
            "velocity": 1
          },
          {
            "duration": 0.45104166666666856,
            "durationTicks": 433,
            "midi": 58,
            "name": "A#3",
            "ticks": 225120,
            "time": 234.5,
            "velocity": 0.8503937007874016
          },
          {
            "duration": 0.45104166666666856,
            "durationTicks": 433,
            "midi": 46,
            "name": "A#2",
            "ticks": 225600,
            "time": 235,
            "velocity": 0.7795275590551181
          },
          {
            "duration": 0.45104166666666856,
            "durationTicks": 433,
            "midi": 58,
            "name": "A#3",
            "ticks": 226080,
            "time": 235.5,
            "velocity": 0.984251968503937
          },
          {
            "duration": 0.45104166666666856,
            "durationTicks": 433,
            "midi": 46,
            "name": "A#2",
            "ticks": 226560,
            "time": 236,
            "velocity": 0.7952755905511811
          },
          {
            "duration": 3.2260416666666742,
            "durationTicks": 3097,
            "midi": 51,
            "name": "D#3",
            "ticks": 227040,
            "time": 236.5,
            "velocity": 0.937007874015748
          },
          {
            "duration": 0.22604166666667425,
            "durationTicks": 217,
            "midi": 46,
            "name": "A#2",
            "ticks": 230160,
            "time": 239.75,
            "velocity": 0.8267716535433071
          },
          {
            "duration": 0.22604166666667425,
            "durationTicks": 217,
            "midi": 46,
            "name": "A#2",
            "ticks": 230400,
            "time": 240,
            "velocity": 0.905511811023622
          },
          {
            "duration": 0.22604166666667425,
            "durationTicks": 217,
            "midi": 46,
            "name": "A#2",
            "ticks": 230640,
            "time": 240.25,
            "velocity": 0.8740157480314961
          },
          {
            "duration": 3.2260416666666742,
            "durationTicks": 3097,
            "midi": 51,
            "name": "D#3",
            "ticks": 230880,
            "time": 240.5,
            "velocity": 0.9291338582677166
          },
          {
            "duration": 0.22604166666667425,
            "durationTicks": 217,
            "midi": 46,
            "name": "A#2",
            "ticks": 234000,
            "time": 243.75,
            "velocity": 0.8110236220472441
          },
          {
            "duration": 0.22604166666667425,
            "durationTicks": 217,
            "midi": 46,
            "name": "A#2",
            "ticks": 234240,
            "time": 244,
            "velocity": 0.905511811023622
          },
          {
            "duration": 0.22604166666667425,
            "durationTicks": 217,
            "midi": 46,
            "name": "A#2",
            "ticks": 234480,
            "time": 244.25,
            "velocity": 0.8740157480314961
          },
          {
            "duration": 0.45104166666666856,
            "durationTicks": 433,
            "midi": 51,
            "name": "D#3",
            "ticks": 234720,
            "time": 244.5,
            "velocity": 0.984251968503937
          },
          {
            "duration": 0.22604166666667425,
            "durationTicks": 217,
            "midi": 46,
            "name": "A#2",
            "ticks": 235920,
            "time": 245.75,
            "velocity": 0.7874015748031497
          },
          {
            "duration": 0.22604166666667425,
            "durationTicks": 217,
            "midi": 46,
            "name": "A#2",
            "ticks": 236160,
            "time": 246,
            "velocity": 0.8976377952755905
          },
          {
            "duration": 0.22604166666667425,
            "durationTicks": 217,
            "midi": 46,
            "name": "A#2",
            "ticks": 236400,
            "time": 246.25,
            "velocity": 0.8818897637795275
          },
          {
            "duration": 0.45104166666666856,
            "durationTicks": 433,
            "midi": 51,
            "name": "D#3",
            "ticks": 236640,
            "time": 246.5,
            "velocity": 0.952755905511811
          },
          {
            "duration": 0.22604166666667425,
            "durationTicks": 217,
            "midi": 46,
            "name": "A#2",
            "ticks": 237840,
            "time": 247.75,
            "velocity": 0.7795275590551181
          },
          {
            "duration": 0.22604166666667425,
            "durationTicks": 217,
            "midi": 46,
            "name": "A#2",
            "ticks": 238080,
            "time": 248,
            "velocity": 0.8661417322834646
          },
          {
            "duration": 0.22604166666667425,
            "durationTicks": 217,
            "midi": 46,
            "name": "A#2",
            "ticks": 238320,
            "time": 248.25,
            "velocity": 0.9133858267716536
          },
          {
            "duration": 0.45104166666666856,
            "durationTicks": 433,
            "midi": 51,
            "name": "D#3",
            "ticks": 238560,
            "time": 248.5,
            "velocity": 0.9291338582677166
          },
          {
            "duration": 0.22604166666667425,
            "durationTicks": 217,
            "midi": 37,
            "name": "C#2",
            "ticks": 242640,
            "time": 252.75,
            "velocity": 0.8267716535433071
          },
          {
            "duration": 0.22604166666667425,
            "durationTicks": 217,
            "midi": 37,
            "name": "C#2",
            "ticks": 242880,
            "time": 253,
            "velocity": 0.8740157480314961
          },
          {
            "duration": 0.22604166666667425,
            "durationTicks": 217,
            "midi": 37,
            "name": "C#2",
            "ticks": 243120,
            "time": 253.25,
            "velocity": 0.8976377952755905
          },
          {
            "duration": 2.5,
            "durationTicks": 2400,
            "midi": 36,
            "name": "C2",
            "ticks": 243360,
            "time": 253.5,
            "velocity": 0.8740157480314961
          },
          {
            "duration": 2.2260416666666742,
            "durationTicks": 2137,
            "midi": 60,
            "name": "C4",
            "ticks": 246720,
            "time": 257,
            "velocity": 0.6456692913385826
          },
          {
            "duration": 0.22604166666667425,
            "durationTicks": 217,
            "midi": 61,
            "name": "C#4",
            "ticks": 248880,
            "time": 259.25,
            "velocity": 0.5196850393700787
          },
          {
            "duration": 0.22604166666667425,
            "durationTicks": 217,
            "midi": 61,
            "name": "C#4",
            "ticks": 249120,
            "time": 259.5,
            "velocity": 0.4881889763779528
          },
          {
            "duration": 0.22604166666667425,
            "durationTicks": 217,
            "midi": 61,
            "name": "C#4",
            "ticks": 249360,
            "time": 259.75,
            "velocity": 0.5275590551181102
          },
          {
            "duration": 3.2260416666666742,
            "durationTicks": 3097,
            "midi": 60,
            "name": "C4",
            "ticks": 249600,
            "time": 260,
            "velocity": 0.48031496062992124
          },
          {
            "duration": 0.22604166666667425,
            "durationTicks": 217,
            "midi": 61,
            "name": "C#4",
            "ticks": 252720,
            "time": 263.25,
            "velocity": 0.48031496062992124
          },
          {
            "duration": 0.22604166666667425,
            "durationTicks": 217,
            "midi": 61,
            "name": "C#4",
            "ticks": 252960,
            "time": 263.5,
            "velocity": 0.49606299212598426
          },
          {
            "duration": 0.22604166666667425,
            "durationTicks": 217,
            "midi": 61,
            "name": "C#4",
            "ticks": 253200,
            "time": 263.75,
            "velocity": 0.48031496062992124
          },
          {
            "duration": 2.8999999999999773,
            "durationTicks": 2784,
            "midi": 60,
            "name": "C4",
            "ticks": 253440,
            "time": 264,
            "velocity": 0.47244094488188976
          },
          {
            "duration": 2.8999999999999773,
            "durationTicks": 2784,
            "midi": 60,
            "name": "C4",
            "ticks": 256320,
            "time": 267,
            "velocity": 0.48031496062992124
          },
          {
            "duration": 0.5093749999999773,
            "durationTicks": 489,
            "midi": 62,
            "name": "D4",
            "ticks": 259200,
            "time": 270,
            "velocity": 0.5196850393700787
          },
          {
            "duration": 0.5093749999999773,
            "durationTicks": 489,
            "midi": 63,
            "name": "D#4",
            "ticks": 259680,
            "time": 270.5,
            "velocity": 0.5511811023622047
          },
          {
            "duration": 0.5093749999999773,
            "durationTicks": 489,
            "midi": 65,
            "name": "F4",
            "ticks": 260160,
            "time": 271,
            "velocity": 0.5354330708661418
          },
          {
            "duration": 0.47500000000002274,
            "durationTicks": 456,
            "midi": 66,
            "name": "F#4",
            "ticks": 260640,
            "time": 271.5,
            "velocity": 0.5590551181102362
          },
          {
            "duration": 0.22604166666667425,
            "durationTicks": 217,
            "midi": 67,
            "name": "G4",
            "ticks": 261120,
            "time": 272,
            "velocity": 0.5275590551181102
          },
          {
            "duration": 0.22604166666667425,
            "durationTicks": 217,
            "midi": 67,
            "name": "G4",
            "ticks": 261360,
            "time": 272.25,
            "velocity": 0.47244094488188976
          },
          {
            "duration": 0.22604166666667425,
            "durationTicks": 217,
            "midi": 67,
            "name": "G4",
            "ticks": 261600,
            "time": 272.5,
            "velocity": 0.47244094488188976
          },
          {
            "duration": 0.22604166666667425,
            "durationTicks": 217,
            "midi": 65,
            "name": "F4",
            "ticks": 261840,
            "time": 272.75,
            "velocity": 0.4330708661417323
          },
          {
            "duration": 0.8999999999999773,
            "durationTicks": 864,
            "midi": 63,
            "name": "D#4",
            "ticks": 262080,
            "time": 273,
            "velocity": 0.4645669291338583
          },
          {
            "duration": 0.22604166666667425,
            "durationTicks": 217,
            "midi": 62,
            "name": "D4",
            "ticks": 263040,
            "time": 274,
            "velocity": 0.4881889763779528
          },
          {
            "duration": 0.22604166666667425,
            "durationTicks": 217,
            "midi": 67,
            "name": "G4",
            "ticks": 263280,
            "time": 274.25,
            "velocity": 0.5354330708661418
          },
          {
            "duration": 0.22604166666667425,
            "durationTicks": 217,
            "midi": 67,
            "name": "G4",
            "ticks": 263520,
            "time": 274.5,
            "velocity": 0.48031496062992124
          },
          {
            "duration": 0.22604166666667425,
            "durationTicks": 217,
            "midi": 65,
            "name": "F4",
            "ticks": 263760,
            "time": 274.75,
            "velocity": 0.4409448818897638
          },
          {
            "duration": 0.8999999999999773,
            "durationTicks": 864,
            "midi": 63,
            "name": "D#4",
            "ticks": 264000,
            "time": 275,
            "velocity": 0.4409448818897638
          },
          {
            "duration": 0.22604166666667425,
            "durationTicks": 217,
            "midi": 62,
            "name": "D4",
            "ticks": 264960,
            "time": 276,
            "velocity": 0.4645669291338583
          },
          {
            "duration": 0.22604166666667425,
            "durationTicks": 217,
            "midi": 67,
            "name": "G4",
            "ticks": 265200,
            "time": 276.25,
            "velocity": 0.5590551181102362
          },
          {
            "duration": 0.22604166666667425,
            "durationTicks": 217,
            "midi": 67,
            "name": "G4",
            "ticks": 265440,
            "time": 276.5,
            "velocity": 0.5039370078740157
          },
          {
            "duration": 0.22604166666667425,
            "durationTicks": 217,
            "midi": 65,
            "name": "F4",
            "ticks": 265680,
            "time": 276.75,
            "velocity": 0.4645669291338583
          },
          {
            "duration": 0.22604166666667425,
            "durationTicks": 217,
            "midi": 63,
            "name": "D#4",
            "ticks": 265920,
            "time": 277,
            "velocity": 0.4409448818897638
          },
          {
            "duration": 0.22604166666667425,
            "durationTicks": 217,
            "midi": 63,
            "name": "D#4",
            "ticks": 266160,
            "time": 277.25,
            "velocity": 0.47244094488188976
          },
          {
            "duration": 0.22604166666667425,
            "durationTicks": 217,
            "midi": 63,
            "name": "D#4",
            "ticks": 266400,
            "time": 277.5,
            "velocity": 0.47244094488188976
          },
          {
            "duration": 0.22604166666667425,
            "durationTicks": 217,
            "midi": 62,
            "name": "D4",
            "ticks": 266640,
            "time": 277.75,
            "velocity": 0.5039370078740157
          },
          {
            "duration": 0.22604166666667425,
            "durationTicks": 217,
            "midi": 60,
            "name": "C4",
            "ticks": 266880,
            "time": 278,
            "velocity": 0.5039370078740157
          },
          {
            "duration": 0.22604166666667425,
            "durationTicks": 217,
            "midi": 60,
            "name": "C4",
            "ticks": 267120,
            "time": 278.25,
            "velocity": 0.5669291338582677
          },
          {
            "duration": 0.22604166666667425,
            "durationTicks": 217,
            "midi": 60,
            "name": "C4",
            "ticks": 267360,
            "time": 278.5,
            "velocity": 0.5905511811023622
          },
          {
            "duration": 0.22604166666667425,
            "durationTicks": 217,
            "midi": 58,
            "name": "A#3",
            "ticks": 267600,
            "time": 278.75,
            "velocity": 0.5354330708661418
          },
          {
            "duration": 0.22604166666667425,
            "durationTicks": 217,
            "midi": 57,
            "name": "A3",
            "ticks": 267840,
            "time": 279,
            "velocity": 0.5669291338582677
          },
          {
            "duration": 0.22604166666667425,
            "durationTicks": 217,
            "midi": 57,
            "name": "A3",
            "ticks": 268080,
            "time": 279.25,
            "velocity": 0.5748031496062992
          },
          {
            "duration": 0.22604166666667425,
            "durationTicks": 217,
            "midi": 57,
            "name": "A3",
            "ticks": 268320,
            "time": 279.5,
            "velocity": 0.6377952755905512
          },
          {
            "duration": 0.22604166666667425,
            "durationTicks": 217,
            "midi": 55,
            "name": "G3",
            "ticks": 268560,
            "time": 279.75,
            "velocity": 0.6220472440944882
          },
          {
            "duration": 0.45104166666664014,
            "durationTicks": 433,
            "midi": 54,
            "name": "F#3",
            "ticks": 268800,
            "time": 280,
            "velocity": 0.47244094488188976
          },
          {
            "duration": 0.22604166666667425,
            "durationTicks": 217,
            "midi": 58,
            "name": "A#3",
            "ticks": 270000,
            "time": 281.25,
            "velocity": 0.4409448818897638
          },
          {
            "duration": 0.22604166666667425,
            "durationTicks": 217,
            "midi": 58,
            "name": "A#3",
            "ticks": 270240,
            "time": 281.5,
            "velocity": 0.4409448818897638
          },
          {
            "duration": 0.22604166666667425,
            "durationTicks": 217,
            "midi": 60,
            "name": "C4",
            "ticks": 270480,
            "time": 281.75,
            "velocity": 0.4881889763779528
          },
          {
            "duration": 1.2260416666666742,
            "durationTicks": 1177,
            "midi": 62,
            "name": "D4",
            "ticks": 270720,
            "time": 282,
            "velocity": 0.47244094488188976
          },
          {
            "duration": 0.22604166666667425,
            "durationTicks": 217,
            "midi": 58,
            "name": "A#3",
            "ticks": 271920,
            "time": 283.25,
            "velocity": 0.48031496062992124
          },
          {
            "duration": 0.22604166666667425,
            "durationTicks": 217,
            "midi": 58,
            "name": "A#3",
            "ticks": 272160,
            "time": 283.5,
            "velocity": 0.4645669291338583
          },
          {
            "duration": 0.22604166666667425,
            "durationTicks": 217,
            "midi": 60,
            "name": "C4",
            "ticks": 272400,
            "time": 283.75,
            "velocity": 0.4881889763779528
          },
          {
            "duration": 0.22604166666667425,
            "durationTicks": 217,
            "midi": 62,
            "name": "D4",
            "ticks": 272640,
            "time": 284,
            "velocity": 0.5275590551181102
          },
          {
            "duration": 0.22604166666667425,
            "durationTicks": 217,
            "midi": 62,
            "name": "D4",
            "ticks": 272880,
            "time": 284.25,
            "velocity": 0.47244094488188976
          },
          {
            "duration": 0.22604166666667425,
            "durationTicks": 217,
            "midi": 62,
            "name": "D4",
            "ticks": 273120,
            "time": 284.5,
            "velocity": 0.47244094488188976
          },
          {
            "duration": 0.22604166666667425,
            "durationTicks": 217,
            "midi": 60,
            "name": "C4",
            "ticks": 273360,
            "time": 284.75,
            "velocity": 0.44881889763779526
          },
          {
            "duration": 0.22604166666667425,
            "durationTicks": 217,
            "midi": 58,
            "name": "A#3",
            "ticks": 273600,
            "time": 285,
            "velocity": 0.4566929133858268
          },
          {
            "duration": 0.22604166666667425,
            "durationTicks": 217,
            "midi": 58,
            "name": "A#3",
            "ticks": 273840,
            "time": 285.25,
            "velocity": 0.47244094488188976
          },
          {
            "duration": 0.22604166666667425,
            "durationTicks": 217,
            "midi": 58,
            "name": "A#3",
            "ticks": 274080,
            "time": 285.5,
            "velocity": 0.4251968503937008
          },
          {
            "duration": 0.22604166666667425,
            "durationTicks": 217,
            "midi": 57,
            "name": "A3",
            "ticks": 274320,
            "time": 285.75,
            "velocity": 0.48031496062992124
          },
          {
            "duration": 0.22604166666667425,
            "durationTicks": 217,
            "midi": 55,
            "name": "G3",
            "ticks": 274560,
            "time": 286,
            "velocity": 0.47244094488188976
          },
          {
            "duration": 0.22604166666667425,
            "durationTicks": 217,
            "midi": 55,
            "name": "G3",
            "ticks": 274800,
            "time": 286.25,
            "velocity": 0.5118110236220472
          },
          {
            "duration": 0.22604166666667425,
            "durationTicks": 217,
            "midi": 55,
            "name": "G3",
            "ticks": 275040,
            "time": 286.5,
            "velocity": 0.49606299212598426
          },
          {
            "duration": 0.22604166666667425,
            "durationTicks": 217,
            "midi": 53,
            "name": "F3",
            "ticks": 275280,
            "time": 286.75,
            "velocity": 0.4645669291338583
          },
          {
            "duration": 0.22604166666667425,
            "durationTicks": 217,
            "midi": 51,
            "name": "D#3",
            "ticks": 275520,
            "time": 287,
            "velocity": 0.5039370078740157
          },
          {
            "duration": 0.22604166666667425,
            "durationTicks": 217,
            "midi": 51,
            "name": "D#3",
            "ticks": 275760,
            "time": 287.25,
            "velocity": 0.48031496062992124
          },
          {
            "duration": 0.22604166666667425,
            "durationTicks": 217,
            "midi": 51,
            "name": "D#3",
            "ticks": 276000,
            "time": 287.5,
            "velocity": 0.49606299212598426
          },
          {
            "duration": 0.22604166666667425,
            "durationTicks": 217,
            "midi": 50,
            "name": "D3",
            "ticks": 276240,
            "time": 287.75,
            "velocity": 0.4881889763779528
          },
          {
            "duration": 0.22604166666667425,
            "durationTicks": 217,
            "midi": 48,
            "name": "C3",
            "ticks": 276480,
            "time": 288,
            "velocity": 0.4645669291338583
          },
          {
            "duration": 0.22604166666667425,
            "durationTicks": 217,
            "midi": 60,
            "name": "C4",
            "ticks": 276720,
            "time": 288.25,
            "velocity": 0.6062992125984252
          },
          {
            "duration": 0.22604166666667425,
            "durationTicks": 217,
            "midi": 60,
            "name": "C4",
            "ticks": 276960,
            "time": 288.5,
            "velocity": 0.5118110236220472
          },
          {
            "duration": 0.22604166666667425,
            "durationTicks": 217,
            "midi": 58,
            "name": "A#3",
            "ticks": 277200,
            "time": 288.75,
            "velocity": 0.4330708661417323
          },
          {
            "duration": 0.22604166666667425,
            "durationTicks": 217,
            "midi": 57,
            "name": "A3",
            "ticks": 277440,
            "time": 289,
            "velocity": 0.48031496062992124
          },
          {
            "duration": 0.22604166666667425,
            "durationTicks": 217,
            "midi": 57,
            "name": "A3",
            "ticks": 277680,
            "time": 289.25,
            "velocity": 0.5039370078740157
          },
          {
            "duration": 0.22604166666667425,
            "durationTicks": 217,
            "midi": 57,
            "name": "A3",
            "ticks": 277920,
            "time": 289.5,
            "velocity": 0.4566929133858268
          },
          {
            "duration": 0.22604166666667425,
            "durationTicks": 217,
            "midi": 55,
            "name": "G3",
            "ticks": 278160,
            "time": 289.75,
            "velocity": 0.48031496062992124
          },
          {
            "duration": 0.22604166666667425,
            "durationTicks": 217,
            "midi": 54,
            "name": "F#3",
            "ticks": 278400,
            "time": 290,
            "velocity": 0.47244094488188976
          },
          {
            "duration": 0.22604166666667425,
            "durationTicks": 217,
            "midi": 54,
            "name": "F#3",
            "ticks": 278640,
            "time": 290.25,
            "velocity": 0.5118110236220472
          },
          {
            "duration": 0.22604166666667425,
            "durationTicks": 217,
            "midi": 54,
            "name": "F#3",
            "ticks": 278880,
            "time": 290.5,
            "velocity": 0.47244094488188976
          },
          {
            "duration": 0.22604166666667425,
            "durationTicks": 217,
            "midi": 51,
            "name": "D#3",
            "ticks": 279120,
            "time": 290.75,
            "velocity": 0.4645669291338583
          },
          {
            "duration": 0.22604166666667425,
            "durationTicks": 217,
            "midi": 50,
            "name": "D3",
            "ticks": 279360,
            "time": 291,
            "velocity": 0.47244094488188976
          },
          {
            "duration": 0.22604166666667425,
            "durationTicks": 217,
            "midi": 50,
            "name": "D3",
            "ticks": 279600,
            "time": 291.25,
            "velocity": 0.49606299212598426
          },
          {
            "duration": 0.22604166666667425,
            "durationTicks": 217,
            "midi": 50,
            "name": "D3",
            "ticks": 279840,
            "time": 291.5,
            "velocity": 0.47244094488188976
          },
          {
            "duration": 0.22604166666667425,
            "durationTicks": 217,
            "midi": 48,
            "name": "C3",
            "ticks": 280080,
            "time": 291.75,
            "velocity": 0.47244094488188976
          },
          {
            "duration": 0.22604166666667425,
            "durationTicks": 217,
            "midi": 46,
            "name": "A#2",
            "ticks": 280320,
            "time": 292,
            "velocity": 0.4566929133858268
          },
          {
            "duration": 0.22604166666667425,
            "durationTicks": 217,
            "midi": 62,
            "name": "D4",
            "ticks": 280560,
            "time": 292.25,
            "velocity": 0.5984251968503937
          },
          {
            "duration": 0.22604166666667425,
            "durationTicks": 217,
            "midi": 62,
            "name": "D4",
            "ticks": 280800,
            "time": 292.5,
            "velocity": 0.5354330708661418
          },
          {
            "duration": 0.22604166666667425,
            "durationTicks": 217,
            "midi": 60,
            "name": "C4",
            "ticks": 281040,
            "time": 292.75,
            "velocity": 0.4645669291338583
          },
          {
            "duration": 0.22604166666667425,
            "durationTicks": 217,
            "midi": 58,
            "name": "A#3",
            "ticks": 281280,
            "time": 293,
            "velocity": 0.44881889763779526
          },
          {
            "duration": 0.22604166666667425,
            "durationTicks": 217,
            "midi": 58,
            "name": "A#3",
            "ticks": 281520,
            "time": 293.25,
            "velocity": 0.4881889763779528
          },
          {
            "duration": 0.22604166666667425,
            "durationTicks": 217,
            "midi": 58,
            "name": "A#3",
            "ticks": 281760,
            "time": 293.5,
            "velocity": 0.48031496062992124
          },
          {
            "duration": 0.22604166666667425,
            "durationTicks": 217,
            "midi": 57,
            "name": "A3",
            "ticks": 282000,
            "time": 293.75,
            "velocity": 0.5433070866141733
          },
          {
            "duration": 0.22604166666667425,
            "durationTicks": 217,
            "midi": 55,
            "name": "G3",
            "ticks": 282240,
            "time": 294,
            "velocity": 0.5118110236220472
          },
          {
            "duration": 0.22604166666667425,
            "durationTicks": 217,
            "midi": 53,
            "name": "F3",
            "ticks": 282480,
            "time": 294.25,
            "velocity": 0.5433070866141733
          },
          {
            "duration": 0.22604166666667425,
            "durationTicks": 217,
            "midi": 51,
            "name": "D#3",
            "ticks": 282720,
            "time": 294.5,
            "velocity": 0.5118110236220472
          },
          {
            "duration": 0.22604166666667425,
            "durationTicks": 217,
            "midi": 50,
            "name": "D3",
            "ticks": 282960,
            "time": 294.75,
            "velocity": 0.6692913385826772
          },
          {
            "duration": 0.22604166666667425,
            "durationTicks": 217,
            "midi": 36,
            "name": "C2",
            "ticks": 283200,
            "time": 295,
            "velocity": 0.7480314960629921
          },
          {
            "duration": 0.22604166666667425,
            "durationTicks": 217,
            "midi": 48,
            "name": "C3",
            "ticks": 283200,
            "time": 295,
            "velocity": 0.7480314960629921
          },
          {
            "duration": 0.22604166666667425,
            "durationTicks": 217,
            "midi": 36,
            "name": "C2",
            "ticks": 283440,
            "time": 295.25,
            "velocity": 0.7559055118110236
          },
          {
            "duration": 0.22604166666667425,
            "durationTicks": 217,
            "midi": 48,
            "name": "C3",
            "ticks": 283440,
            "time": 295.25,
            "velocity": 0.7559055118110236
          },
          {
            "duration": 0.22604166666667425,
            "durationTicks": 217,
            "midi": 36,
            "name": "C2",
            "ticks": 283680,
            "time": 295.5,
            "velocity": 0.7716535433070866
          },
          {
            "duration": 0.22604166666667425,
            "durationTicks": 217,
            "midi": 48,
            "name": "C3",
            "ticks": 283680,
            "time": 295.5,
            "velocity": 0.7716535433070866
          },
          {
            "duration": 0.22604166666667425,
            "durationTicks": 217,
            "midi": 36,
            "name": "C2",
            "ticks": 283920,
            "time": 295.75,
            "velocity": 0.8031496062992126
          },
          {
            "duration": 0.22604166666667425,
            "durationTicks": 217,
            "midi": 48,
            "name": "C3",
            "ticks": 283920,
            "time": 295.75,
            "velocity": 0.8031496062992126
          },
          {
            "duration": 0.22604166666667425,
            "durationTicks": 217,
            "midi": 36,
            "name": "C2",
            "ticks": 284160,
            "time": 296,
            "velocity": 0.7795275590551181
          },
          {
            "duration": 0.22604166666667425,
            "durationTicks": 217,
            "midi": 48,
            "name": "C3",
            "ticks": 284160,
            "time": 296,
            "velocity": 0.7795275590551181
          },
          {
            "duration": 0.22604166666667425,
            "durationTicks": 217,
            "midi": 36,
            "name": "C2",
            "ticks": 284400,
            "time": 296.25,
            "velocity": 0.7716535433070866
          },
          {
            "duration": 0.22604166666667425,
            "durationTicks": 217,
            "midi": 48,
            "name": "C3",
            "ticks": 284400,
            "time": 296.25,
            "velocity": 0.7716535433070866
          },
          {
            "duration": 0.22604166666667425,
            "durationTicks": 217,
            "midi": 36,
            "name": "C2",
            "ticks": 284640,
            "time": 296.5,
            "velocity": 0.7795275590551181
          },
          {
            "duration": 0.22604166666667425,
            "durationTicks": 217,
            "midi": 48,
            "name": "C3",
            "ticks": 284640,
            "time": 296.5,
            "velocity": 0.7795275590551181
          },
          {
            "duration": 0.22604166666667425,
            "durationTicks": 217,
            "midi": 36,
            "name": "C2",
            "ticks": 284880,
            "time": 296.75,
            "velocity": 0.7637795275590551
          },
          {
            "duration": 0.22604166666667425,
            "durationTicks": 217,
            "midi": 48,
            "name": "C3",
            "ticks": 284880,
            "time": 296.75,
            "velocity": 0.7637795275590551
          },
          {
            "duration": 0.45104166666664014,
            "durationTicks": 433,
            "midi": 36,
            "name": "C2",
            "ticks": 285120,
            "time": 297,
            "velocity": 0.7637795275590551
          },
          {
            "duration": 0.45104166666664014,
            "durationTicks": 433,
            "midi": 48,
            "name": "C3",
            "ticks": 285120,
            "time": 297,
            "velocity": 0.7637795275590551
          },
          {
            "duration": 0.22604166666667425,
            "durationTicks": 217,
            "midi": 49,
            "name": "C#3",
            "ticks": 286320,
            "time": 298.25,
            "velocity": 0.6614173228346457
          },
          {
            "duration": 0.22604166666667425,
            "durationTicks": 217,
            "midi": 49,
            "name": "C#3",
            "ticks": 286560,
            "time": 298.5,
            "velocity": 0.7401574803149606
          },
          {
            "duration": 0.22604166666667425,
            "durationTicks": 217,
            "midi": 49,
            "name": "C#3",
            "ticks": 286800,
            "time": 298.75,
            "velocity": 0.7795275590551181
          },
          {
            "duration": 0.22604166666667425,
            "durationTicks": 217,
            "midi": 49,
            "name": "C#3",
            "ticks": 287040,
            "time": 299,
            "velocity": 0.7874015748031497
          },
          {
            "duration": 0.22604166666667425,
            "durationTicks": 217,
            "midi": 49,
            "name": "C#3",
            "ticks": 287280,
            "time": 299.25,
            "velocity": 0.7716535433070866
          },
          {
            "duration": 0.22604166666667425,
            "durationTicks": 217,
            "midi": 49,
            "name": "C#3",
            "ticks": 287520,
            "time": 299.5,
            "velocity": 0.7716535433070866
          },
          {
            "duration": 0.22604166666667425,
            "durationTicks": 217,
            "midi": 49,
            "name": "C#3",
            "ticks": 287760,
            "time": 299.75,
            "velocity": 0.7716535433070866
          },
          {
            "duration": 0.22604166666667425,
            "durationTicks": 217,
            "midi": 49,
            "name": "C#3",
            "ticks": 288000,
            "time": 300,
            "velocity": 0.7086614173228346
          },
          {
            "duration": 0.22604166666667425,
            "durationTicks": 217,
            "midi": 49,
            "name": "C#3",
            "ticks": 288240,
            "time": 300.25,
            "velocity": 0.7716535433070866
          },
          {
            "duration": 0.22604166666667425,
            "durationTicks": 217,
            "midi": 49,
            "name": "C#3",
            "ticks": 288480,
            "time": 300.5,
            "velocity": 0.7637795275590551
          },
          {
            "duration": 0.22604166666667425,
            "durationTicks": 217,
            "midi": 49,
            "name": "C#3",
            "ticks": 288720,
            "time": 300.75,
            "velocity": 0.7559055118110236
          },
          {
            "duration": 0.45104166666664014,
            "durationTicks": 433,
            "midi": 49,
            "name": "C#3",
            "ticks": 288960,
            "time": 301,
            "velocity": 0.7874015748031497
          },
          {
            "duration": 0.22604166666667425,
            "durationTicks": 217,
            "midi": 50,
            "name": "D3",
            "ticks": 290160,
            "time": 302.25,
            "velocity": 0.7480314960629921
          },
          {
            "duration": 0.22604166666667425,
            "durationTicks": 217,
            "midi": 50,
            "name": "D3",
            "ticks": 290400,
            "time": 302.5,
            "velocity": 0.8188976377952756
          },
          {
            "duration": 0.22604166666667425,
            "durationTicks": 217,
            "midi": 50,
            "name": "D3",
            "ticks": 290640,
            "time": 302.75,
            "velocity": 0.8346456692913385
          },
          {
            "duration": 0.45104166666664014,
            "durationTicks": 433,
            "midi": 50,
            "name": "D3",
            "ticks": 290880,
            "time": 303,
            "velocity": 0.8267716535433071
          },
          {
            "duration": 0.22604166666667425,
            "durationTicks": 217,
            "midi": 52,
            "name": "E3",
            "ticks": 292320,
            "time": 304.5,
            "velocity": 0.7559055118110236
          },
          {
            "duration": 0.22604166666667425,
            "durationTicks": 217,
            "midi": 52,
            "name": "E3",
            "ticks": 292560,
            "time": 304.75,
            "velocity": 0.8110236220472441
          },
          {
            "duration": 0.45104166666664014,
            "durationTicks": 433,
            "midi": 52,
            "name": "E3",
            "ticks": 292800,
            "time": 305,
            "velocity": 0.8346456692913385
          },
          {
            "duration": 0.22604166666667425,
            "durationTicks": 217,
            "midi": 54,
            "name": "F#3",
            "ticks": 293280,
            "time": 305.5,
            "velocity": 0.8346456692913385
          },
          {
            "duration": 0.22604166666667425,
            "durationTicks": 217,
            "midi": 54,
            "name": "F#3",
            "ticks": 293520,
            "time": 305.75,
            "velocity": 0.8267716535433071
          },
          {
            "duration": 0.45104166666664014,
            "durationTicks": 433,
            "midi": 54,
            "name": "F#3",
            "ticks": 293760,
            "time": 306,
            "velocity": 0.8661417322834646
          },
          {
            "duration": 0.9510416666666401,
            "durationTicks": 913,
            "midi": 60,
            "name": "C4",
            "ticks": 297120,
            "time": 309.5,
            "velocity": 0.7559055118110236
          },
          {
            "duration": 0.22500000000002274,
            "durationTicks": 216,
            "midi": 57,
            "name": "A3",
            "ticks": 298080,
            "time": 310.5,
            "velocity": 0.7952755905511811
          },
          {
            "duration": 0.22500000000002274,
            "durationTicks": 216,
            "midi": 54,
            "name": "F#3",
            "ticks": 298560,
            "time": 311,
            "velocity": 0.7795275590551181
          },
          {
            "duration": 0.22500000000002274,
            "durationTicks": 216,
            "midi": 50,
            "name": "D3",
            "ticks": 299040,
            "time": 311.5,
            "velocity": 0.7637795275590551
          },
          {
            "duration": 0.22500000000002274,
            "durationTicks": 216,
            "midi": 48,
            "name": "C3",
            "ticks": 299520,
            "time": 312,
            "velocity": 0.7874015748031497
          },
          {
            "duration": 0.22500000000002274,
            "durationTicks": 216,
            "midi": 45,
            "name": "A2",
            "ticks": 300000,
            "time": 312.5,
            "velocity": 0.8188976377952756
          },
          {
            "duration": 0.22500000000002274,
            "durationTicks": 216,
            "midi": 42,
            "name": "F#2",
            "ticks": 300480,
            "time": 313,
            "velocity": 0.8267716535433071
          },
          {
            "duration": 0.22500000000002274,
            "durationTicks": 216,
            "midi": 38,
            "name": "D2",
            "ticks": 300960,
            "time": 313.5,
            "velocity": 0.7480314960629921
          },
          {
            "duration": 0.45104166666664014,
            "durationTicks": 433,
            "midi": 43,
            "name": "G2",
            "ticks": 301440,
            "time": 314,
            "velocity": 0.8976377952755905
          },
          {
            "duration": 0.9510416666666401,
            "durationTicks": 913,
            "midi": 65,
            "name": "F4",
            "ticks": 304800,
            "time": 317.5,
            "velocity": 0.7559055118110236
          },
          {
            "duration": 0.22500000000002274,
            "durationTicks": 216,
            "midi": 62,
            "name": "D4",
            "ticks": 305760,
            "time": 318.5,
            "velocity": 0.7559055118110236
          },
          {
            "duration": 0.22500000000002274,
            "durationTicks": 216,
            "midi": 59,
            "name": "B3",
            "ticks": 306240,
            "time": 319,
            "velocity": 0.7874015748031497
          },
          {
            "duration": 0.22500000000002274,
            "durationTicks": 216,
            "midi": 55,
            "name": "G3",
            "ticks": 306720,
            "time": 319.5,
            "velocity": 0.7795275590551181
          },
          {
            "duration": 0.22500000000002274,
            "durationTicks": 216,
            "midi": 53,
            "name": "F3",
            "ticks": 307200,
            "time": 320,
            "velocity": 0.8110236220472441
          },
          {
            "duration": 0.22500000000002274,
            "durationTicks": 216,
            "midi": 50,
            "name": "D3",
            "ticks": 307680,
            "time": 320.5,
            "velocity": 0.7716535433070866
          },
          {
            "duration": 0.22500000000002274,
            "durationTicks": 216,
            "midi": 47,
            "name": "B2",
            "ticks": 308160,
            "time": 321,
            "velocity": 0.8031496062992126
          },
          {
            "duration": 0.22500000000002274,
            "durationTicks": 216,
            "midi": 43,
            "name": "G2",
            "ticks": 308640,
            "time": 321.5,
            "velocity": 0.7480314960629921
          },
          {
            "duration": 0.45104166666664014,
            "durationTicks": 433,
            "midi": 48,
            "name": "C3",
            "ticks": 309120,
            "time": 322,
            "velocity": 0.8818897637795275
          },
          {
            "duration": 1.0197916666666629,
            "durationTicks": 979,
            "midi": 43,
            "name": "G2",
            "ticks": 312000,
            "time": 325,
            "velocity": 0.7637795275590551
          },
          {
            "duration": 0.9489583333333371,
            "durationTicks": 911,
            "midi": 44,
            "name": "G#2",
            "ticks": 312960,
            "time": 326,
            "velocity": 0.7716535433070866
          },
          {
            "duration": 1.0197916666666629,
            "durationTicks": 979,
            "midi": 43,
            "name": "G2",
            "ticks": 315840,
            "time": 329,
            "velocity": 0.7874015748031497
          },
          {
            "duration": 0.9489583333333371,
            "durationTicks": 911,
            "midi": 44,
            "name": "G#2",
            "ticks": 316800,
            "time": 330,
            "velocity": 0.8110236220472441
          },
          {
            "duration": 1.0197916666666629,
            "durationTicks": 979,
            "midi": 46,
            "name": "A#2",
            "ticks": 319680,
            "time": 333,
            "velocity": 0.8503937007874016
          },
          {
            "duration": 0.9489583333333371,
            "durationTicks": 911,
            "midi": 48,
            "name": "C3",
            "ticks": 320640,
            "time": 334,
            "velocity": 0.8818897637795275
          },
          {
            "duration": 0.8999999999999773,
            "durationTicks": 864,
            "midi": 49,
            "name": "C#3",
            "ticks": 323520,
            "time": 337,
            "velocity": 0.8503937007874016
          },
          {
            "duration": 0.8999999999999773,
            "durationTicks": 864,
            "midi": 51,
            "name": "D#3",
            "ticks": 325440,
            "time": 339,
            "velocity": 0.7165354330708661
          },
          {
            "duration": 0.8999999999999773,
            "durationTicks": 864,
            "midi": 53,
            "name": "F3",
            "ticks": 327360,
            "time": 341,
            "velocity": 0.5669291338582677
          },
          {
            "duration": 0.8999999999999773,
            "durationTicks": 864,
            "midi": 42,
            "name": "F#2",
            "ticks": 329280,
            "time": 343,
            "velocity": 0.4015748031496063
          },
          {
            "duration": 0.8999999999999773,
            "durationTicks": 864,
            "midi": 42,
            "name": "F#2",
            "ticks": 331200,
            "time": 345,
            "velocity": 0.4330708661417323
          },
          {
            "duration": 0.8999999999999773,
            "durationTicks": 864,
            "midi": 42,
            "name": "F#2",
            "ticks": 333120,
            "time": 347,
            "velocity": 0.4645669291338583
          },
          {
            "duration": 0.8999999999999773,
            "durationTicks": 864,
            "midi": 42,
            "name": "F#2",
            "ticks": 335040,
            "time": 349,
            "velocity": 0.41732283464566927
          },
          {
            "duration": 0.8999999999999773,
            "durationTicks": 864,
            "midi": 42,
            "name": "F#2",
            "ticks": 336960,
            "time": 351,
            "velocity": 0.4015748031496063
          },
          {
            "duration": 0.8999999999999773,
            "durationTicks": 864,
            "midi": 42,
            "name": "F#2",
            "ticks": 338880,
            "time": 353,
            "velocity": 0.3858267716535433
          },
          {
            "duration": 0.22604166666667425,
            "durationTicks": 217,
            "midi": 42,
            "name": "F#2",
            "ticks": 340800,
            "time": 355,
            "velocity": 0.8503937007874016
          },
          {
            "duration": 0.22604166666667425,
            "durationTicks": 217,
            "midi": 50,
            "name": "D3",
            "ticks": 341040,
            "time": 355.25,
            "velocity": 0.984251968503937
          },
          {
            "duration": 0.22604166666667425,
            "durationTicks": 217,
            "midi": 50,
            "name": "D3",
            "ticks": 341280,
            "time": 355.5,
            "velocity": 0.937007874015748
          },
          {
            "duration": 0.22604166666667425,
            "durationTicks": 217,
            "midi": 50,
            "name": "D3",
            "ticks": 341520,
            "time": 355.75,
            "velocity": 0.889763779527559
          },
          {
            "duration": 0.8999999999999773,
            "durationTicks": 864,
            "midi": 47,
            "name": "B2",
            "ticks": 341760,
            "time": 356,
            "velocity": 0.8740157480314961
          },
          {
            "duration": 0.8999999999999773,
            "durationTicks": 864,
            "midi": 48,
            "name": "C3",
            "ticks": 342720,
            "time": 357,
            "velocity": 0.8818897637795275
          },
          {
            "duration": 1.8999999999999773,
            "durationTicks": 1824,
            "midi": 45,
            "name": "A2",
            "ticks": 343680,
            "time": 358,
            "velocity": 0.84251968503937
          },
          {
            "duration": 0.8999999999999773,
            "durationTicks": 864,
            "midi": 47,
            "name": "B2",
            "ticks": 346560,
            "time": 361,
            "velocity": 0.41732283464566927
          },
          {
            "duration": 0.8999999999999773,
            "durationTicks": 864,
            "midi": 47,
            "name": "B2",
            "ticks": 348480,
            "time": 363,
            "velocity": 0.3937007874015748
          },
          {
            "duration": 0.8999999999999773,
            "durationTicks": 864,
            "midi": 47,
            "name": "B2",
            "ticks": 350400,
            "time": 365,
            "velocity": 0.4094488188976378
          },
          {
            "duration": 0.22604166666667425,
            "durationTicks": 217,
            "midi": 47,
            "name": "B2",
            "ticks": 352320,
            "time": 367,
            "velocity": 0.7874015748031497
          },
          {
            "duration": 0.22604166666667425,
            "durationTicks": 217,
            "midi": 44,
            "name": "G#2",
            "ticks": 352560,
            "time": 367.25,
            "velocity": 0.8503937007874016
          },
          {
            "duration": 0.22604166666667425,
            "durationTicks": 217,
            "midi": 44,
            "name": "G#2",
            "ticks": 352800,
            "time": 367.5,
            "velocity": 0.889763779527559
          },
          {
            "duration": 0.22604166666667425,
            "durationTicks": 217,
            "midi": 44,
            "name": "G#2",
            "ticks": 353040,
            "time": 367.75,
            "velocity": 0.8740157480314961
          },
          {
            "duration": 1.2260416666666742,
            "durationTicks": 1177,
            "midi": 41,
            "name": "F2",
            "ticks": 353280,
            "time": 368,
            "velocity": 0.8976377952755905
          },
          {
            "duration": 0.22604166666667425,
            "durationTicks": 217,
            "midi": 44,
            "name": "G#2",
            "ticks": 354480,
            "time": 369.25,
            "velocity": 0.937007874015748
          },
          {
            "duration": 0.22604166666667425,
            "durationTicks": 217,
            "midi": 44,
            "name": "G#2",
            "ticks": 354720,
            "time": 369.5,
            "velocity": 0.8976377952755905
          },
          {
            "duration": 0.22604166666667425,
            "durationTicks": 217,
            "midi": 44,
            "name": "G#2",
            "ticks": 354960,
            "time": 369.75,
            "velocity": 0.8818897637795275
          },
          {
            "duration": 1.2260416666666742,
            "durationTicks": 1177,
            "midi": 41,
            "name": "F2",
            "ticks": 355200,
            "time": 370,
            "velocity": 0.8582677165354331
          },
          {
            "duration": 0.22604166666667425,
            "durationTicks": 217,
            "midi": 44,
            "name": "G#2",
            "ticks": 356400,
            "time": 371.25,
            "velocity": 0.8661417322834646
          },
          {
            "duration": 0.22604166666667425,
            "durationTicks": 217,
            "midi": 44,
            "name": "G#2",
            "ticks": 356640,
            "time": 371.5,
            "velocity": 0.8976377952755905
          },
          {
            "duration": 0.22604166666667425,
            "durationTicks": 217,
            "midi": 44,
            "name": "G#2",
            "ticks": 356880,
            "time": 371.75,
            "velocity": 0.889763779527559
          },
          {
            "duration": 0.22604166666667425,
            "durationTicks": 217,
            "midi": 41,
            "name": "F2",
            "ticks": 357120,
            "time": 372,
            "velocity": 0.8346456692913385
          },
          {
            "duration": 0.22604166666667425,
            "durationTicks": 217,
            "midi": 44,
            "name": "G#2",
            "ticks": 357360,
            "time": 372.25,
            "velocity": 0.952755905511811
          },
          {
            "duration": 0.22604166666667425,
            "durationTicks": 217,
            "midi": 44,
            "name": "G#2",
            "ticks": 357600,
            "time": 372.5,
            "velocity": 0.8740157480314961
          },
          {
            "duration": 0.22604166666667425,
            "durationTicks": 217,
            "midi": 44,
            "name": "G#2",
            "ticks": 357840,
            "time": 372.75,
            "velocity": 0.8818897637795275
          },
          {
            "duration": 0.22604166666667425,
            "durationTicks": 217,
            "midi": 41,
            "name": "F2",
            "ticks": 358080,
            "time": 373,
            "velocity": 0.8503937007874016
          },
          {
            "duration": 0.22604166666667425,
            "durationTicks": 217,
            "midi": 44,
            "name": "G#2",
            "ticks": 358320,
            "time": 373.25,
            "velocity": 0.937007874015748
          },
          {
            "duration": 0.22604166666667425,
            "durationTicks": 217,
            "midi": 44,
            "name": "G#2",
            "ticks": 358560,
            "time": 373.5,
            "velocity": 0.9133858267716536
          },
          {
            "duration": 0.22604166666667425,
            "durationTicks": 217,
            "midi": 44,
            "name": "G#2",
            "ticks": 358800,
            "time": 373.75,
            "velocity": 0.8818897637795275
          },
          {
            "duration": 0.22604166666667425,
            "durationTicks": 217,
            "midi": 41,
            "name": "F2",
            "ticks": 359040,
            "time": 374,
            "velocity": 0.8582677165354331
          },
          {
            "duration": 0.22604166666667425,
            "durationTicks": 217,
            "midi": 44,
            "name": "G#2",
            "ticks": 359280,
            "time": 374.25,
            "velocity": 0.905511811023622
          },
          {
            "duration": 0.22604166666667425,
            "durationTicks": 217,
            "midi": 44,
            "name": "G#2",
            "ticks": 359520,
            "time": 374.5,
            "velocity": 0.905511811023622
          },
          {
            "duration": 0.22604166666667425,
            "durationTicks": 217,
            "midi": 44,
            "name": "G#2",
            "ticks": 359760,
            "time": 374.75,
            "velocity": 0.8661417322834646
          },
          {
            "duration": 0.22604166666667425,
            "durationTicks": 217,
            "midi": 41,
            "name": "F2",
            "ticks": 360000,
            "time": 375,
            "velocity": 0.8582677165354331
          },
          {
            "duration": 0.22604166666667425,
            "durationTicks": 217,
            "midi": 43,
            "name": "G2",
            "ticks": 360240,
            "time": 375.25,
            "velocity": 0.8740157480314961
          },
          {
            "duration": 0.22604166666667425,
            "durationTicks": 217,
            "midi": 43,
            "name": "G2",
            "ticks": 360480,
            "time": 375.5,
            "velocity": 0.8976377952755905
          },
          {
            "duration": 0.22604166666667425,
            "durationTicks": 217,
            "midi": 43,
            "name": "G2",
            "ticks": 360720,
            "time": 375.75,
            "velocity": 0.905511811023622
          },
          {
            "duration": 1.5,
            "durationTicks": 1440,
            "midi": 39,
            "name": "D#2",
            "ticks": 360960,
            "time": 376,
            "velocity": 0.8582677165354331
          },
          {
            "duration": 0.22604166666667425,
            "durationTicks": 217,
            "midi": 41,
            "name": "F2",
            "ticks": 362640,
            "time": 377.75,
            "velocity": 0.7952755905511811
          },
          {
            "duration": 0.22604166666667425,
            "durationTicks": 217,
            "midi": 41,
            "name": "F2",
            "ticks": 362880,
            "time": 378,
            "velocity": 0.8818897637795275
          },
          {
            "duration": 0.22604166666667425,
            "durationTicks": 217,
            "midi": 41,
            "name": "F2",
            "ticks": 363120,
            "time": 378.25,
            "velocity": 0.8740157480314961
          },
          {
            "duration": 2.5,
            "durationTicks": 2400,
            "midi": 38,
            "name": "D2",
            "ticks": 363360,
            "time": 378.5,
            "velocity": 0.8582677165354331
          },
          {
            "duration": 0.45104166666664014,
            "durationTicks": 433,
            "midi": 43,
            "name": "G2",
            "ticks": 380160,
            "time": 396,
            "velocity": 0.6062992125984252
          },
          {
            "duration": 0.22604166666667425,
            "durationTicks": 217,
            "midi": 43,
            "name": "G2",
            "ticks": 388560,
            "time": 404.75,
            "velocity": 0.4409448818897638
          },
          {
            "duration": 0.22604166666667425,
            "durationTicks": 217,
            "midi": 43,
            "name": "G2",
            "ticks": 388800,
            "time": 405,
            "velocity": 0.4645669291338583
          },
          {
            "duration": 0.22604166666667425,
            "durationTicks": 217,
            "midi": 43,
            "name": "G2",
            "ticks": 389040,
            "time": 405.25,
            "velocity": 0.44881889763779526
          },
          {
            "duration": 0.22604166666667425,
            "durationTicks": 217,
            "midi": 48,
            "name": "C3",
            "ticks": 389280,
            "time": 405.5,
            "velocity": 0.5039370078740157
          },
          {
            "duration": 0.22604166666667425,
            "durationTicks": 217,
            "midi": 56,
            "name": "G#3",
            "ticks": 389520,
            "time": 405.75,
            "velocity": 0.5196850393700787
          },
          {
            "duration": 0.22604166666667425,
            "durationTicks": 217,
            "midi": 56,
            "name": "G#3",
            "ticks": 389760,
            "time": 406,
            "velocity": 0.4881889763779528
          },
          {
            "duration": 0.22604166666667425,
            "durationTicks": 217,
            "midi": 56,
            "name": "G#3",
            "ticks": 390000,
            "time": 406.25,
            "velocity": 0.49606299212598426
          },
          {
            "duration": 0.22604166666667425,
            "durationTicks": 217,
            "midi": 53,
            "name": "F3",
            "ticks": 390240,
            "time": 406.5,
            "velocity": 0.44881889763779526
          },
          {
            "duration": 0.22604166666667425,
            "durationTicks": 217,
            "midi": 50,
            "name": "D3",
            "ticks": 390480,
            "time": 406.75,
            "velocity": 0.4566929133858268
          },
          {
            "duration": 0.22604166666667425,
            "durationTicks": 217,
            "midi": 50,
            "name": "D3",
            "ticks": 390720,
            "time": 407,
            "velocity": 0.5433070866141733
          },
          {
            "duration": 0.22604166666667425,
            "durationTicks": 217,
            "midi": 50,
            "name": "D3",
            "ticks": 390960,
            "time": 407.25,
            "velocity": 0.5669291338582677
          },
          {
            "duration": 0.22604166666667425,
            "durationTicks": 217,
            "midi": 47,
            "name": "B2",
            "ticks": 391200,
            "time": 407.5,
            "velocity": 0.5433070866141733
          },
          {
            "duration": 0.22604166666667425,
            "durationTicks": 217,
            "midi": 44,
            "name": "G#2",
            "ticks": 391440,
            "time": 407.75,
            "velocity": 0.5275590551181102
          },
          {
            "duration": 0.22604166666667425,
            "durationTicks": 217,
            "midi": 44,
            "name": "G#2",
            "ticks": 391680,
            "time": 408,
            "velocity": 0.5748031496062992
          },
          {
            "duration": 0.22604166666667425,
            "durationTicks": 217,
            "midi": 44,
            "name": "G#2",
            "ticks": 391920,
            "time": 408.25,
            "velocity": 0.6771653543307087
          },
          {
            "duration": 0.22604166666667425,
            "durationTicks": 217,
            "midi": 43,
            "name": "G2",
            "ticks": 392160,
            "time": 408.5,
            "velocity": 0.6299212598425197
          },
          {
            "duration": 0.22604166666667425,
            "durationTicks": 217,
            "midi": 55,
            "name": "G3",
            "ticks": 392400,
            "time": 408.75,
            "velocity": 0.7401574803149606
          },
          {
            "duration": 0.22604166666667425,
            "durationTicks": 217,
            "midi": 55,
            "name": "G3",
            "ticks": 392640,
            "time": 409,
            "velocity": 0.6850393700787402
          },
          {
            "duration": 0.22604166666667425,
            "durationTicks": 217,
            "midi": 55,
            "name": "G3",
            "ticks": 392880,
            "time": 409.25,
            "velocity": 0.6377952755905512
          },
          {
            "duration": 0.22604166666667425,
            "durationTicks": 217,
            "midi": 48,
            "name": "C3",
            "ticks": 393120,
            "time": 409.5,
            "velocity": 0.6929133858267716
          },
          {
            "duration": 0.22604166666667425,
            "durationTicks": 217,
            "midi": 48,
            "name": "C3",
            "ticks": 393360,
            "time": 409.75,
            "velocity": 0.7874015748031497
          },
          {
            "duration": 0.22604166666667425,
            "durationTicks": 217,
            "midi": 48,
            "name": "C3",
            "ticks": 393600,
            "time": 410,
            "velocity": 0.7559055118110236
          },
          {
            "duration": 0.22604166666667425,
            "durationTicks": 217,
            "midi": 48,
            "name": "C3",
            "ticks": 393840,
            "time": 410.25,
            "velocity": 0.7637795275590551
          },
          {
            "duration": 0.8999999999999773,
            "durationTicks": 864,
            "midi": 48,
            "name": "C3",
            "ticks": 394080,
            "time": 410.5,
            "velocity": 0.7795275590551181
          },
          {
            "duration": 0.22604166666667425,
            "durationTicks": 217,
            "midi": 48,
            "name": "C3",
            "ticks": 395040,
            "time": 411.5,
            "velocity": 0.8110236220472441
          },
          {
            "duration": 0.22604166666667425,
            "durationTicks": 217,
            "midi": 48,
            "name": "C3",
            "ticks": 395280,
            "time": 411.75,
            "velocity": 0.7952755905511811
          },
          {
            "duration": 0.22604166666667425,
            "durationTicks": 217,
            "midi": 48,
            "name": "C3",
            "ticks": 395520,
            "time": 412,
            "velocity": 0.7480314960629921
          },
          {
            "duration": 0.22604166666667425,
            "durationTicks": 217,
            "midi": 48,
            "name": "C3",
            "ticks": 395760,
            "time": 412.25,
            "velocity": 0.7795275590551181
          },
          {
            "duration": 0.8999999999999773,
            "durationTicks": 864,
            "midi": 48,
            "name": "C3",
            "ticks": 396000,
            "time": 412.5,
            "velocity": 0.7952755905511811
          },
          {
            "duration": 0.22604166666667425,
            "durationTicks": 217,
            "midi": 48,
            "name": "C3",
            "ticks": 396960,
            "time": 413.5,
            "velocity": 0.7716535433070866
          },
          {
            "duration": 0.22604166666667425,
            "durationTicks": 217,
            "midi": 48,
            "name": "C3",
            "ticks": 397200,
            "time": 413.75,
            "velocity": 0.7637795275590551
          },
          {
            "duration": 0.22604166666667425,
            "durationTicks": 217,
            "midi": 48,
            "name": "C3",
            "ticks": 397440,
            "time": 414,
            "velocity": 0.7637795275590551
          },
          {
            "duration": 0.22604166666667425,
            "durationTicks": 217,
            "midi": 48,
            "name": "C3",
            "ticks": 397680,
            "time": 414.25,
            "velocity": 0.7637795275590551
          },
          {
            "duration": 0.45104166666664014,
            "durationTicks": 433,
            "midi": 48,
            "name": "C3",
            "ticks": 397920,
            "time": 414.5,
            "velocity": 0.905511811023622
          },
          {
            "duration": 0.45104166666664014,
            "durationTicks": 433,
            "midi": 48,
            "name": "C3",
            "ticks": 398880,
            "time": 415.5,
            "velocity": 0.8031496062992126
          },
          {
            "duration": 0.45104166666664014,
            "durationTicks": 433,
            "midi": 48,
            "name": "C3",
            "ticks": 399840,
            "time": 416.5,
            "velocity": 0.8188976377952756
          },
          {
            "duration": 0.45104166666664014,
            "durationTicks": 433,
            "midi": 48,
            "name": "C3",
            "ticks": 400800,
            "time": 417.5,
            "velocity": 0.8110236220472441
          },
          {
            "duration": 0.45104166666664014,
            "durationTicks": 433,
            "midi": 48,
            "name": "C3",
            "ticks": 401760,
            "time": 418.5,
            "velocity": 0.8031496062992126
          },
          {
            "duration": 0.45104166666664014,
            "durationTicks": 433,
            "midi": 48,
            "name": "C3",
            "ticks": 402720,
            "time": 419.5,
            "velocity": 0.7795275590551181
          },
          {
            "duration": 3.2260416666666742,
            "durationTicks": 3097,
            "midi": 48,
            "name": "C3",
            "ticks": 403680,
            "time": 420.5,
            "velocity": 0.7086614173228346
          },
          {
            "duration": 0.22604166666667425,
            "durationTicks": 217,
            "midi": 48,
            "name": "C3",
            "ticks": 406800,
            "time": 423.75,
            "velocity": 0.7637795275590551
          },
          {
            "duration": 0.22604166666667425,
            "durationTicks": 217,
            "midi": 48,
            "name": "C3",
            "ticks": 407040,
            "time": 424,
            "velocity": 0.7559055118110236
          },
          {
            "duration": 0.22604166666667425,
            "durationTicks": 217,
            "midi": 48,
            "name": "C3",
            "ticks": 407280,
            "time": 424.25,
            "velocity": 0.7952755905511811
          },
          {
            "duration": 3.2260416666666742,
            "durationTicks": 3097,
            "midi": 43,
            "name": "G2",
            "ticks": 407520,
            "time": 424.5,
            "velocity": 0.7322834645669292
          },
          {
            "duration": 0.22604166666667425,
            "durationTicks": 217,
            "midi": 43,
            "name": "G2",
            "ticks": 410640,
            "time": 427.75,
            "velocity": 0.7716535433070866
          },
          {
            "duration": 0.22604166666667425,
            "durationTicks": 217,
            "midi": 48,
            "name": "C3",
            "ticks": 410880,
            "time": 428,
            "velocity": 0.8188976377952756
          },
          {
            "duration": 0.22604166666667425,
            "durationTicks": 217,
            "midi": 48,
            "name": "C3",
            "ticks": 411120,
            "time": 428.25,
            "velocity": 0.7480314960629921
          },
          {
            "duration": 0.22604166666667425,
            "durationTicks": 217,
            "midi": 48,
            "name": "C3",
            "ticks": 411360,
            "time": 428.5,
            "velocity": 0.8976377952755905
          },
          {
            "duration": 0.22604166666667425,
            "durationTicks": 217,
            "midi": 63,
            "name": "D#4",
            "ticks": 411600,
            "time": 428.75,
            "velocity": 1
          },
          {
            "duration": 0.22604166666667425,
            "durationTicks": 217,
            "midi": 63,
            "name": "D#4",
            "ticks": 411840,
            "time": 429,
            "velocity": 0.984251968503937
          },
          {
            "duration": 0.22604166666667425,
            "durationTicks": 217,
            "midi": 63,
            "name": "D#4",
            "ticks": 412080,
            "time": 429.25,
            "velocity": 0.889763779527559
          },
          {
            "duration": 0.22604166666667425,
            "durationTicks": 217,
            "midi": 60,
            "name": "C4",
            "ticks": 412320,
            "time": 429.5,
            "velocity": 0.7795275590551181
          },
          {
            "duration": 0.22604166666667425,
            "durationTicks": 217,
            "midi": 57,
            "name": "A3",
            "ticks": 412560,
            "time": 429.75,
            "velocity": 0.8503937007874016
          },
          {
            "duration": 0.22604166666667425,
            "durationTicks": 217,
            "midi": 57,
            "name": "A3",
            "ticks": 412800,
            "time": 430,
            "velocity": 0.8740157480314961
          },
          {
            "duration": 0.22604166666667425,
            "durationTicks": 217,
            "midi": 57,
            "name": "A3",
            "ticks": 413040,
            "time": 430.25,
            "velocity": 0.8740157480314961
          },
          {
            "duration": 0.22604166666667425,
            "durationTicks": 217,
            "midi": 54,
            "name": "F#3",
            "ticks": 413280,
            "time": 430.5,
            "velocity": 0.8267716535433071
          },
          {
            "duration": 0.22604166666667425,
            "durationTicks": 217,
            "midi": 51,
            "name": "D#3",
            "ticks": 413520,
            "time": 430.75,
            "velocity": 0.8031496062992126
          },
          {
            "duration": 0.22604166666667425,
            "durationTicks": 217,
            "midi": 51,
            "name": "D#3",
            "ticks": 413760,
            "time": 431,
            "velocity": 0.8661417322834646
          },
          {
            "duration": 0.22604166666667425,
            "durationTicks": 217,
            "midi": 51,
            "name": "D#3",
            "ticks": 414000,
            "time": 431.25,
            "velocity": 0.8976377952755905
          },
          {
            "duration": 0.22604166666667425,
            "durationTicks": 217,
            "midi": 48,
            "name": "C3",
            "ticks": 414240,
            "time": 431.5,
            "velocity": 0.8582677165354331
          },
          {
            "duration": 0.22604166666667425,
            "durationTicks": 217,
            "midi": 45,
            "name": "A2",
            "ticks": 414480,
            "time": 431.75,
            "velocity": 0.8740157480314961
          },
          {
            "duration": 0.22604166666667425,
            "durationTicks": 217,
            "midi": 45,
            "name": "A2",
            "ticks": 414720,
            "time": 432,
            "velocity": 0.8818897637795275
          },
          {
            "duration": 0.22604166666667425,
            "durationTicks": 217,
            "midi": 45,
            "name": "A2",
            "ticks": 414960,
            "time": 432.25,
            "velocity": 0.905511811023622
          },
          {
            "duration": 0.45104166666664014,
            "durationTicks": 433,
            "midi": 48,
            "name": "C3",
            "ticks": 415200,
            "time": 432.5,
            "velocity": 0.9291338582677166
          },
          {
            "duration": 0.45104166666664014,
            "durationTicks": 433,
            "midi": 47,
            "name": "B2",
            "ticks": 417120,
            "time": 434.5,
            "velocity": 0.7874015748031497
          },
          {
            "duration": 0.22604166666667425,
            "durationTicks": 217,
            "midi": 43,
            "name": "G2",
            "ticks": 424080,
            "time": 441.75,
            "velocity": 0.4645669291338583
          },
          {
            "duration": 0.22604166666667425,
            "durationTicks": 217,
            "midi": 43,
            "name": "G2",
            "ticks": 424320,
            "time": 442,
            "velocity": 0.49606299212598426
          },
          {
            "duration": 0.22604166666667425,
            "durationTicks": 217,
            "midi": 43,
            "name": "G2",
            "ticks": 424560,
            "time": 442.25,
            "velocity": 0.47244094488188976
          },
          {
            "duration": 0.45104166666664014,
            "durationTicks": 433,
            "midi": 48,
            "name": "C3",
            "ticks": 424800,
            "time": 442.5,
            "velocity": 0.5275590551181102
          },
          {
            "duration": 0.22604166666667425,
            "durationTicks": 217,
            "midi": 43,
            "name": "G2",
            "ticks": 431760,
            "time": 449.75,
            "velocity": 0.41732283464566927
          },
          {
            "duration": 0.22604166666667425,
            "durationTicks": 217,
            "midi": 43,
            "name": "G2",
            "ticks": 432000,
            "time": 450,
            "velocity": 0.4645669291338583
          },
          {
            "duration": 0.22604166666667425,
            "durationTicks": 217,
            "midi": 43,
            "name": "G2",
            "ticks": 432240,
            "time": 450.25,
            "velocity": 0.47244094488188976
          },
          {
            "duration": 0.45104166666664014,
            "durationTicks": 433,
            "midi": 48,
            "name": "C3",
            "ticks": 432480,
            "time": 450.5,
            "velocity": 0.49606299212598426
          },
          {
            "duration": 0.22604166666667425,
            "durationTicks": 217,
            "midi": 48,
            "name": "C3",
            "ticks": 439440,
            "time": 457.75,
            "velocity": 0.4094488188976378
          },
          {
            "duration": 0.22604166666667425,
            "durationTicks": 217,
            "midi": 48,
            "name": "C3",
            "ticks": 439680,
            "time": 458,
            "velocity": 0.48031496062992124
          },
          {
            "duration": 0.22604166666667425,
            "durationTicks": 217,
            "midi": 48,
            "name": "C3",
            "ticks": 439920,
            "time": 458.25,
            "velocity": 0.4645669291338583
          },
          {
            "duration": 0.45104166666664014,
            "durationTicks": 433,
            "midi": 53,
            "name": "F3",
            "ticks": 440160,
            "time": 458.5,
            "velocity": 0.5275590551181102
          },
          {
            "duration": 0.22604166666667425,
            "durationTicks": 217,
            "midi": 50,
            "name": "D3",
            "ticks": 443280,
            "time": 461.75,
            "velocity": 0.4409448818897638
          },
          {
            "duration": 0.22604166666667425,
            "durationTicks": 217,
            "midi": 50,
            "name": "D3",
            "ticks": 443520,
            "time": 462,
            "velocity": 0.4881889763779528
          },
          {
            "duration": 0.22604166666667425,
            "durationTicks": 217,
            "midi": 50,
            "name": "D3",
            "ticks": 443760,
            "time": 462.25,
            "velocity": 0.5118110236220472
          },
          {
            "duration": 0.45104166666664014,
            "durationTicks": 433,
            "midi": 55,
            "name": "G3",
            "ticks": 444000,
            "time": 462.5,
            "velocity": 0.5275590551181102
          },
          {
            "duration": 0.5093749999999773,
            "durationTicks": 489,
            "midi": 65,
            "name": "F4",
            "ticks": 444960,
            "time": 463.5,
            "velocity": 0.4409448818897638
          },
          {
            "duration": 0.5093749999999773,
            "durationTicks": 489,
            "midi": 67,
            "name": "G4",
            "ticks": 445440,
            "time": 464,
            "velocity": 0.48031496062992124
          },
          {
            "duration": 0.5093749999999773,
            "durationTicks": 489,
            "midi": 68,
            "name": "G#4",
            "ticks": 445920,
            "time": 464.5,
            "velocity": 0.49606299212598426
          },
          {
            "duration": 0.5093749999999773,
            "durationTicks": 489,
            "midi": 67,
            "name": "G4",
            "ticks": 446400,
            "time": 465,
            "velocity": 0.49606299212598426
          },
          {
            "duration": 0.5093749999999773,
            "durationTicks": 489,
            "midi": 65,
            "name": "F4",
            "ticks": 446880,
            "time": 465.5,
            "velocity": 0.44881889763779526
          },
          {
            "duration": 0.47500000000002274,
            "durationTicks": 456,
            "midi": 67,
            "name": "G4",
            "ticks": 447360,
            "time": 466,
            "velocity": 0.4645669291338583
          },
          {
            "duration": 0.5093749999999773,
            "durationTicks": 489,
            "midi": 68,
            "name": "G#4",
            "ticks": 447840,
            "time": 466.5,
            "velocity": 0.5039370078740157
          },
          {
            "duration": 0.5093749999999773,
            "durationTicks": 489,
            "midi": 67,
            "name": "G4",
            "ticks": 448320,
            "time": 467,
            "velocity": 0.4566929133858268
          },
          {
            "duration": 0.5093749999999773,
            "durationTicks": 489,
            "midi": 65,
            "name": "F4",
            "ticks": 448800,
            "time": 467.5,
            "velocity": 0.4409448818897638
          },
          {
            "duration": 0.47500000000002274,
            "durationTicks": 456,
            "midi": 67,
            "name": "G4",
            "ticks": 449280,
            "time": 468,
            "velocity": 0.4409448818897638
          },
          {
            "duration": 0.5093749999999773,
            "durationTicks": 489,
            "midi": 68,
            "name": "G#4",
            "ticks": 449760,
            "time": 468.5,
            "velocity": 0.4881889763779528
          },
          {
            "duration": 0.5093749999999773,
            "durationTicks": 489,
            "midi": 67,
            "name": "G4",
            "ticks": 450240,
            "time": 469,
            "velocity": 0.5433070866141733
          },
          {
            "duration": 0.5093749999999773,
            "durationTicks": 489,
            "midi": 65,
            "name": "F4",
            "ticks": 450720,
            "time": 469.5,
            "velocity": 0.5118110236220472
          },
          {
            "duration": 0.47500000000002274,
            "durationTicks": 456,
            "midi": 67,
            "name": "G4",
            "ticks": 451200,
            "time": 470,
            "velocity": 0.5748031496062992
          },
          {
            "duration": 0.5093749999999773,
            "durationTicks": 489,
            "midi": 68,
            "name": "G#4",
            "ticks": 451680,
            "time": 470.5,
            "velocity": 0.5748031496062992
          },
          {
            "duration": 0.5093749999999773,
            "durationTicks": 489,
            "midi": 67,
            "name": "G4",
            "ticks": 452160,
            "time": 471,
            "velocity": 0.5826771653543307
          },
          {
            "duration": 0.5093749999999773,
            "durationTicks": 489,
            "midi": 66,
            "name": "F#4",
            "ticks": 452640,
            "time": 471.5,
            "velocity": 0.5433070866141733
          },
          {
            "duration": 0.47500000000002274,
            "durationTicks": 456,
            "midi": 67,
            "name": "G4",
            "ticks": 453120,
            "time": 472,
            "velocity": 0.5590551181102362
          },
          {
            "duration": 0.5093749999999773,
            "durationTicks": 489,
            "midi": 69,
            "name": "A4",
            "ticks": 453600,
            "time": 472.5,
            "velocity": 0.6614173228346457
          },
          {
            "duration": 0.5093749999999773,
            "durationTicks": 489,
            "midi": 67,
            "name": "G4",
            "ticks": 454080,
            "time": 473,
            "velocity": 0.6377952755905512
          },
          {
            "duration": 0.5093749999999773,
            "durationTicks": 489,
            "midi": 66,
            "name": "F#4",
            "ticks": 454560,
            "time": 473.5,
            "velocity": 0.6141732283464567
          },
          {
            "duration": 0.47500000000002274,
            "durationTicks": 456,
            "midi": 67,
            "name": "G4",
            "ticks": 455040,
            "time": 474,
            "velocity": 0.6456692913385826
          },
          {
            "duration": 0.5093749999999773,
            "durationTicks": 489,
            "midi": 69,
            "name": "A4",
            "ticks": 455520,
            "time": 474.5,
            "velocity": 0.7086614173228346
          },
          {
            "duration": 0.5093749999999773,
            "durationTicks": 489,
            "midi": 67,
            "name": "G4",
            "ticks": 456000,
            "time": 475,
            "velocity": 0.6220472440944882
          },
          {
            "duration": 0.5093749999999773,
            "durationTicks": 489,
            "midi": 66,
            "name": "F#4",
            "ticks": 456480,
            "time": 475.5,
            "velocity": 0.6456692913385826
          },
          {
            "duration": 0.5093749999999773,
            "durationTicks": 489,
            "midi": 67,
            "name": "G4",
            "ticks": 456960,
            "time": 476,
            "velocity": 0.6692913385826772
          },
          {
            "duration": 0.5093749999999773,
            "durationTicks": 489,
            "midi": 66,
            "name": "F#4",
            "ticks": 457440,
            "time": 476.5,
            "velocity": 0.6299212598425197
          },
          {
            "duration": 0.5093749999999773,
            "durationTicks": 489,
            "midi": 67,
            "name": "G4",
            "ticks": 457920,
            "time": 477,
            "velocity": 0.6456692913385826
          },
          {
            "duration": 0.5093749999999773,
            "durationTicks": 489,
            "midi": 66,
            "name": "F#4",
            "ticks": 458400,
            "time": 477.5,
            "velocity": 0.7480314960629921
          },
          {
            "duration": 0.47500000000002274,
            "durationTicks": 456,
            "midi": 67,
            "name": "G4",
            "ticks": 458880,
            "time": 478,
            "velocity": 0.7637795275590551
          },
          {
            "duration": 1.4510416666666401,
            "durationTicks": 1393,
            "midi": 62,
            "name": "D4",
            "ticks": 459360,
            "time": 478.5,
            "velocity": 0.7637795275590551
          },
          {
            "duration": 0.45104166666664014,
            "durationTicks": 433,
            "midi": 59,
            "name": "B3",
            "ticks": 460800,
            "time": 480,
            "velocity": 0.84251968503937
          },
          {
            "duration": 0.45104166666664014,
            "durationTicks": 433,
            "midi": 60,
            "name": "C4",
            "ticks": 461280,
            "time": 480.5,
            "velocity": 0.9448818897637795
          },
          {
            "duration": 0.45104166666664014,
            "durationTicks": 433,
            "midi": 62,
            "name": "D4",
            "ticks": 462240,
            "time": 481.5,
            "velocity": 0.8110236220472441
          },
          {
            "duration": 0.45104166666664014,
            "durationTicks": 433,
            "midi": 64,
            "name": "E4",
            "ticks": 463200,
            "time": 482.5,
            "velocity": 0.7716535433070866
          },
          {
            "duration": 0.45104166666664014,
            "durationTicks": 433,
            "midi": 65,
            "name": "F4",
            "ticks": 464160,
            "time": 483.5,
            "velocity": 0.8031496062992126
          },
          {
            "duration": 0.45104166666664014,
            "durationTicks": 433,
            "midi": 67,
            "name": "G4",
            "ticks": 465120,
            "time": 484.5,
            "velocity": 0.7874015748031497
          },
          {
            "duration": 0.45104166666664014,
            "durationTicks": 433,
            "midi": 55,
            "name": "G3",
            "ticks": 466080,
            "time": 485.5,
            "velocity": 0.84251968503937
          },
          {
            "duration": 0.45104166666664014,
            "durationTicks": 433,
            "midi": 47,
            "name": "B2",
            "ticks": 467040,
            "time": 486.5,
            "velocity": 0.7874015748031497
          },
          {
            "duration": 0.45104166666664014,
            "durationTicks": 433,
            "midi": 50,
            "name": "D3",
            "ticks": 467520,
            "time": 487,
            "velocity": 0.9212598425196851
          },
          {
            "duration": 0.45104166666664014,
            "durationTicks": 433,
            "midi": 47,
            "name": "B2",
            "ticks": 468000,
            "time": 487.5,
            "velocity": 0.8188976377952756
          },
          {
            "duration": 0.45104166666664014,
            "durationTicks": 433,
            "midi": 50,
            "name": "D3",
            "ticks": 468480,
            "time": 488,
            "velocity": 0.937007874015748
          },
          {
            "duration": 0.45104166666664014,
            "durationTicks": 433,
            "midi": 48,
            "name": "C3",
            "ticks": 468960,
            "time": 488.5,
            "velocity": 0.8976377952755905
          },
          {
            "duration": 0.45104166666664014,
            "durationTicks": 433,
            "midi": 52,
            "name": "E3",
            "ticks": 469440,
            "time": 489,
            "velocity": 0.937007874015748
          },
          {
            "duration": 0.45104166666664014,
            "durationTicks": 433,
            "midi": 50,
            "name": "D3",
            "ticks": 469920,
            "time": 489.5,
            "velocity": 0.8818897637795275
          },
          {
            "duration": 0.45104166666664014,
            "durationTicks": 433,
            "midi": 53,
            "name": "F3",
            "ticks": 470400,
            "time": 490,
            "velocity": 0.905511811023622
          },
          {
            "duration": 0.45104166666664014,
            "durationTicks": 433,
            "midi": 52,
            "name": "E3",
            "ticks": 470880,
            "time": 490.5,
            "velocity": 0.8661417322834646
          },
          {
            "duration": 0.45104166666664014,
            "durationTicks": 433,
            "midi": 55,
            "name": "G3",
            "ticks": 471360,
            "time": 491,
            "velocity": 0.9212598425196851
          },
          {
            "duration": 0.45104166666664014,
            "durationTicks": 433,
            "midi": 53,
            "name": "F3",
            "ticks": 471840,
            "time": 491.5,
            "velocity": 0.8582677165354331
          },
          {
            "duration": 0.45104166666664014,
            "durationTicks": 433,
            "midi": 57,
            "name": "A3",
            "ticks": 472320,
            "time": 492,
            "velocity": 0.9606299212598425
          },
          {
            "duration": 0.45104166666664014,
            "durationTicks": 433,
            "midi": 55,
            "name": "G3",
            "ticks": 472800,
            "time": 492.5,
            "velocity": 0.8582677165354331
          },
          {
            "duration": 0.45104166666664014,
            "durationTicks": 433,
            "midi": 43,
            "name": "G2",
            "ticks": 473280,
            "time": 493,
            "velocity": 0.7322834645669292
          },
          {
            "duration": 0.45104166666664014,
            "durationTicks": 433,
            "midi": 55,
            "name": "G3",
            "ticks": 473760,
            "time": 493.5,
            "velocity": 0.984251968503937
          },
          {
            "duration": 0.45104166666664014,
            "durationTicks": 433,
            "midi": 43,
            "name": "G2",
            "ticks": 474240,
            "time": 494,
            "velocity": 0.7559055118110236
          },
          {
            "duration": 3.2260416666666742,
            "durationTicks": 3097,
            "midi": 48,
            "name": "C3",
            "ticks": 474720,
            "time": 494.5,
            "velocity": 0.9448818897637795
          },
          {
            "duration": 0.22604166666667425,
            "durationTicks": 217,
            "midi": 43,
            "name": "G2",
            "ticks": 477840,
            "time": 497.75,
            "velocity": 0.8110236220472441
          },
          {
            "duration": 0.22604166666667425,
            "durationTicks": 217,
            "midi": 43,
            "name": "G2",
            "ticks": 478080,
            "time": 498,
            "velocity": 0.8740157480314961
          },
          {
            "duration": 0.22604166666667425,
            "durationTicks": 217,
            "midi": 43,
            "name": "G2",
            "ticks": 478320,
            "time": 498.25,
            "velocity": 0.8818897637795275
          },
          {
            "duration": 3.2260416666666742,
            "durationTicks": 3097,
            "midi": 48,
            "name": "C3",
            "ticks": 478560,
            "time": 498.5,
            "velocity": 0.9291338582677166
          },
          {
            "duration": 0.22604166666667425,
            "durationTicks": 217,
            "midi": 43,
            "name": "G2",
            "ticks": 481680,
            "time": 501.75,
            "velocity": 0.8346456692913385
          },
          {
            "duration": 0.22604166666667425,
            "durationTicks": 217,
            "midi": 43,
            "name": "G2",
            "ticks": 481920,
            "time": 502,
            "velocity": 0.905511811023622
          },
          {
            "duration": 0.22604166666667425,
            "durationTicks": 217,
            "midi": 43,
            "name": "G2",
            "ticks": 482160,
            "time": 502.25,
            "velocity": 0.8818897637795275
          },
          {
            "duration": 0.45104166666664014,
            "durationTicks": 433,
            "midi": 48,
            "name": "C3",
            "ticks": 482400,
            "time": 502.5,
            "velocity": 0.952755905511811
          },
          {
            "duration": 0.22604166666667425,
            "durationTicks": 217,
            "midi": 43,
            "name": "G2",
            "ticks": 483600,
            "time": 503.75,
            "velocity": 0.7716535433070866
          },
          {
            "duration": 0.22604166666667425,
            "durationTicks": 217,
            "midi": 43,
            "name": "G2",
            "ticks": 483840,
            "time": 504,
            "velocity": 0.905511811023622
          },
          {
            "duration": 0.22604166666667425,
            "durationTicks": 217,
            "midi": 43,
            "name": "G2",
            "ticks": 484080,
            "time": 504.25,
            "velocity": 0.889763779527559
          },
          {
            "duration": 0.45104166666664014,
            "durationTicks": 433,
            "midi": 48,
            "name": "C3",
            "ticks": 484320,
            "time": 504.5,
            "velocity": 0.952755905511811
          },
          {
            "duration": 0.22604166666667425,
            "durationTicks": 217,
            "midi": 43,
            "name": "G2",
            "ticks": 485520,
            "time": 505.75,
            "velocity": 0.7637795275590551
          },
          {
            "duration": 0.22604166666667425,
            "durationTicks": 217,
            "midi": 43,
            "name": "G2",
            "ticks": 485760,
            "time": 506,
            "velocity": 0.8582677165354331
          },
          {
            "duration": 0.22604166666667425,
            "durationTicks": 217,
            "midi": 43,
            "name": "G2",
            "ticks": 486000,
            "time": 506.25,
            "velocity": 0.8740157480314961
          },
          {
            "duration": 1.2260416666666742,
            "durationTicks": 1177,
            "midi": 48,
            "name": "C3",
            "ticks": 486240,
            "time": 506.5,
            "velocity": 1
          },
          {
            "duration": 0.22604166666667425,
            "durationTicks": 217,
            "midi": 48,
            "name": "C3",
            "ticks": 487440,
            "time": 507.75,
            "velocity": 0.8740157480314961
          },
          {
            "duration": 0.22604166666667425,
            "durationTicks": 217,
            "midi": 48,
            "name": "C3",
            "ticks": 487680,
            "time": 508,
            "velocity": 0.889763779527559
          },
          {
            "duration": 0.22604166666667425,
            "durationTicks": 217,
            "midi": 48,
            "name": "C3",
            "ticks": 487920,
            "time": 508.25,
            "velocity": 0.905511811023622
          },
          {
            "duration": 1.2260416666666742,
            "durationTicks": 1177,
            "midi": 44,
            "name": "G#2",
            "ticks": 488160,
            "time": 508.5,
            "velocity": 0.9448818897637795
          },
          {
            "duration": 0.22604166666667425,
            "durationTicks": 217,
            "midi": 44,
            "name": "G#2",
            "ticks": 489360,
            "time": 509.75,
            "velocity": 0.8818897637795275
          },
          {
            "duration": 0.22604166666667425,
            "durationTicks": 217,
            "midi": 44,
            "name": "G#2",
            "ticks": 489600,
            "time": 510,
            "velocity": 0.8976377952755905
          },
          {
            "duration": 0.22604166666667425,
            "durationTicks": 217,
            "midi": 44,
            "name": "G#2",
            "ticks": 489840,
            "time": 510.25,
            "velocity": 0.8740157480314961
          },
          {
            "duration": 1.2260416666666742,
            "durationTicks": 1177,
            "midi": 52,
            "name": "E3",
            "ticks": 490080,
            "time": 510.5,
            "velocity": 1
          },
          {
            "duration": 0.22604166666667425,
            "durationTicks": 217,
            "midi": 52,
            "name": "E3",
            "ticks": 491280,
            "time": 511.75,
            "velocity": 0.9291338582677166
          },
          {
            "duration": 0.22604166666667425,
            "durationTicks": 217,
            "midi": 52,
            "name": "E3",
            "ticks": 491520,
            "time": 512,
            "velocity": 0.8976377952755905
          },
          {
            "duration": 0.22604166666667425,
            "durationTicks": 217,
            "midi": 52,
            "name": "E3",
            "ticks": 491760,
            "time": 512.25,
            "velocity": 0.9291338582677166
          },
          {
            "duration": 1.2260416666666742,
            "durationTicks": 1177,
            "midi": 53,
            "name": "F3",
            "ticks": 492000,
            "time": 512.5,
            "velocity": 1
          },
          {
            "duration": 0.22604166666667425,
            "durationTicks": 217,
            "midi": 53,
            "name": "F3",
            "ticks": 493200,
            "time": 513.75,
            "velocity": 0.889763779527559
          },
          {
            "duration": 0.22604166666667425,
            "durationTicks": 217,
            "midi": 53,
            "name": "F3",
            "ticks": 493440,
            "time": 514,
            "velocity": 0.889763779527559
          },
          {
            "duration": 0.22604166666667425,
            "durationTicks": 217,
            "midi": 53,
            "name": "F3",
            "ticks": 493680,
            "time": 514.25,
            "velocity": 0.889763779527559
          },
          {
            "duration": 0.22604166666667425,
            "durationTicks": 217,
            "midi": 41,
            "name": "F2",
            "ticks": 493920,
            "time": 514.5,
            "velocity": 0.7480314960629921
          },
          {
            "duration": 0.22604166666667425,
            "durationTicks": 217,
            "midi": 53,
            "name": "F3",
            "ticks": 494160,
            "time": 514.75,
            "velocity": 0.9763779527559056
          },
          {
            "duration": 0.22604166666667425,
            "durationTicks": 217,
            "midi": 53,
            "name": "F3",
            "ticks": 494400,
            "time": 515,
            "velocity": 0.8818897637795275
          },
          {
            "duration": 0.22604166666667425,
            "durationTicks": 217,
            "midi": 53,
            "name": "F3",
            "ticks": 494640,
            "time": 515.25,
            "velocity": 0.8976377952755905
          },
          {
            "duration": 0.22604166666667425,
            "durationTicks": 217,
            "midi": 53,
            "name": "F3",
            "ticks": 494880,
            "time": 515.5,
            "velocity": 0.9291338582677166
          },
          {
            "duration": 0.22604166666667425,
            "durationTicks": 217,
            "midi": 53,
            "name": "F3",
            "ticks": 495120,
            "time": 515.75,
            "velocity": 0.9133858267716536
          },
          {
            "duration": 0.22604166666667425,
            "durationTicks": 217,
            "midi": 53,
            "name": "F3",
            "ticks": 495360,
            "time": 516,
            "velocity": 0.8740157480314961
          },
          {
            "duration": 0.22604166666667425,
            "durationTicks": 217,
            "midi": 53,
            "name": "F3",
            "ticks": 495600,
            "time": 516.25,
            "velocity": 0.9291338582677166
          },
          {
            "duration": 0.22604166666667425,
            "durationTicks": 217,
            "midi": 53,
            "name": "F3",
            "ticks": 495840,
            "time": 516.5,
            "velocity": 0.905511811023622
          },
          {
            "duration": 0.22604166666667425,
            "durationTicks": 217,
            "midi": 53,
            "name": "F3",
            "ticks": 496080,
            "time": 516.75,
            "velocity": 0.8976377952755905
          },
          {
            "duration": 0.22604166666667425,
            "durationTicks": 217,
            "midi": 53,
            "name": "F3",
            "ticks": 496320,
            "time": 517,
            "velocity": 0.8740157480314961
          },
          {
            "duration": 0.22604166666667425,
            "durationTicks": 217,
            "midi": 53,
            "name": "F3",
            "ticks": 496560,
            "time": 517.25,
            "velocity": 0.8740157480314961
          },
          {
            "duration": 0.22604166666667425,
            "durationTicks": 217,
            "midi": 53,
            "name": "F3",
            "ticks": 496800,
            "time": 517.5,
            "velocity": 0.8976377952755905
          },
          {
            "duration": 0.22604166666667425,
            "durationTicks": 217,
            "midi": 53,
            "name": "F3",
            "ticks": 497040,
            "time": 517.75,
            "velocity": 0.905511811023622
          },
          {
            "duration": 0.22604166666667425,
            "durationTicks": 217,
            "midi": 53,
            "name": "F3",
            "ticks": 497280,
            "time": 518,
            "velocity": 0.8818897637795275
          },
          {
            "duration": 0.22604166666667425,
            "durationTicks": 217,
            "midi": 53,
            "name": "F3",
            "ticks": 497520,
            "time": 518.25,
            "velocity": 0.9212598425196851
          },
          {
            "duration": 0.451041666666697,
            "durationTicks": 433,
            "midi": 53,
            "name": "F3",
            "ticks": 497760,
            "time": 518.5,
            "velocity": 0.9291338582677166
          },
          {
            "duration": 0.22604166666667425,
            "durationTicks": 217,
            "midi": 42,
            "name": "F#2",
            "ticks": 501840,
            "time": 522.75,
            "velocity": 0.7795275590551181
          },
          {
            "duration": 0.22604166666667425,
            "durationTicks": 217,
            "midi": 42,
            "name": "F#2",
            "ticks": 502080,
            "time": 523,
            "velocity": 0.9133858267716536
          },
          {
            "duration": 0.22604166666667425,
            "durationTicks": 217,
            "midi": 42,
            "name": "F#2",
            "ticks": 502320,
            "time": 523.25,
            "velocity": 0.8976377952755905
          },
          {
            "duration": 0.22604166666667425,
            "durationTicks": 217,
            "midi": 42,
            "name": "F#2",
            "ticks": 502560,
            "time": 523.5,
            "velocity": 0.9212598425196851
          },
          {
            "duration": 0.22604166666667425,
            "durationTicks": 217,
            "midi": 54,
            "name": "F#3",
            "ticks": 502800,
            "time": 523.75,
            "velocity": 1
          },
          {
            "duration": 0.22604166666667425,
            "durationTicks": 217,
            "midi": 54,
            "name": "F#3",
            "ticks": 503040,
            "time": 524,
            "velocity": 0.9212598425196851
          },
          {
            "duration": 0.22604166666667425,
            "durationTicks": 217,
            "midi": 54,
            "name": "F#3",
            "ticks": 503280,
            "time": 524.25,
            "velocity": 0.8818897637795275
          },
          {
            "duration": 0.22604166666667425,
            "durationTicks": 217,
            "midi": 54,
            "name": "F#3",
            "ticks": 503520,
            "time": 524.5,
            "velocity": 0.9212598425196851
          },
          {
            "duration": 0.22604166666667425,
            "durationTicks": 217,
            "midi": 54,
            "name": "F#3",
            "ticks": 503760,
            "time": 524.75,
            "velocity": 0.8976377952755905
          },
          {
            "duration": 0.22604166666667425,
            "durationTicks": 217,
            "midi": 54,
            "name": "F#3",
            "ticks": 504000,
            "time": 525,
            "velocity": 0.8818897637795275
          },
          {
            "duration": 0.22604166666667425,
            "durationTicks": 217,
            "midi": 54,
            "name": "F#3",
            "ticks": 504240,
            "time": 525.25,
            "velocity": 0.889763779527559
          },
          {
            "duration": 0.22604166666667425,
            "durationTicks": 217,
            "midi": 54,
            "name": "F#3",
            "ticks": 504480,
            "time": 525.5,
            "velocity": 0.8346456692913385
          },
          {
            "duration": 0.22604166666667425,
            "durationTicks": 217,
            "midi": 54,
            "name": "F#3",
            "ticks": 504720,
            "time": 525.75,
            "velocity": 0.889763779527559
          },
          {
            "duration": 0.22604166666667425,
            "durationTicks": 217,
            "midi": 54,
            "name": "F#3",
            "ticks": 504960,
            "time": 526,
            "velocity": 0.905511811023622
          },
          {
            "duration": 0.22604166666667425,
            "durationTicks": 217,
            "midi": 54,
            "name": "F#3",
            "ticks": 505200,
            "time": 526.25,
            "velocity": 0.9133858267716536
          },
          {
            "duration": 0.22604166666667425,
            "durationTicks": 217,
            "midi": 54,
            "name": "F#3",
            "ticks": 505440,
            "time": 526.5,
            "velocity": 0.8661417322834646
          },
          {
            "duration": 0.22604166666667425,
            "durationTicks": 217,
            "midi": 54,
            "name": "F#3",
            "ticks": 505680,
            "time": 526.75,
            "velocity": 0.8976377952755905
          },
          {
            "duration": 0.22604166666667425,
            "durationTicks": 217,
            "midi": 54,
            "name": "F#3",
            "ticks": 505920,
            "time": 527,
            "velocity": 0.8740157480314961
          },
          {
            "duration": 0.22604166666667425,
            "durationTicks": 217,
            "midi": 54,
            "name": "F#3",
            "ticks": 506160,
            "time": 527.25,
            "velocity": 0.8661417322834646
          },
          {
            "duration": 0.451041666666697,
            "durationTicks": 433,
            "midi": 54,
            "name": "F#3",
            "ticks": 506400,
            "time": 527.5,
            "velocity": 0.9133858267716536
          },
          {
            "duration": 0.22604166666667425,
            "durationTicks": 217,
            "midi": 67,
            "name": "G4",
            "ticks": 509520,
            "time": 530.75,
            "velocity": 0.6692913385826772
          },
          {
            "duration": 0.22604166666667425,
            "durationTicks": 217,
            "midi": 67,
            "name": "G4",
            "ticks": 509760,
            "time": 531,
            "velocity": 0.7795275590551181
          },
          {
            "duration": 0.22604166666667425,
            "durationTicks": 217,
            "midi": 67,
            "name": "G4",
            "ticks": 510000,
            "time": 531.25,
            "velocity": 0.7952755905511811
          },
          {
            "duration": 0.8999999999999773,
            "durationTicks": 864,
            "midi": 63,
            "name": "D#4",
            "ticks": 510240,
            "time": 531.5,
            "velocity": 0.6456692913385826
          },
          {
            "duration": 0.8999999999999773,
            "durationTicks": 864,
            "midi": 65,
            "name": "F4",
            "ticks": 511200,
            "time": 532.5,
            "velocity": 0.8188976377952756
          },
          {
            "duration": 1.2260416666666742,
            "durationTicks": 1177,
            "midi": 62,
            "name": "D4",
            "ticks": 512160,
            "time": 533.5,
            "velocity": 0.7401574803149606
          },
          {
            "duration": 0.22604166666667425,
            "durationTicks": 217,
            "midi": 67,
            "name": "G4",
            "ticks": 513360,
            "time": 534.75,
            "velocity": 0.8582677165354331
          },
          {
            "duration": 0.22604166666667425,
            "durationTicks": 217,
            "midi": 67,
            "name": "G4",
            "ticks": 513600,
            "time": 535,
            "velocity": 0.7874015748031497
          },
          {
            "duration": 0.22604166666667425,
            "durationTicks": 217,
            "midi": 67,
            "name": "G4",
            "ticks": 513840,
            "time": 535.25,
            "velocity": 0.7795275590551181
          },
          {
            "duration": 0.8999999999999773,
            "durationTicks": 864,
            "midi": 63,
            "name": "D#4",
            "ticks": 514080,
            "time": 535.5,
            "velocity": 0.6692913385826772
          },
          {
            "duration": 0.8999999999999773,
            "durationTicks": 864,
            "midi": 65,
            "name": "F4",
            "ticks": 515040,
            "time": 536.5,
            "velocity": 0.8110236220472441
          },
          {
            "duration": 1.2260416666666742,
            "durationTicks": 1177,
            "midi": 62,
            "name": "D4",
            "ticks": 516000,
            "time": 537.5,
            "velocity": 0.7086614173228346
          },
          {
            "duration": 0.22604166666667425,
            "durationTicks": 217,
            "midi": 67,
            "name": "G4",
            "ticks": 517200,
            "time": 538.75,
            "velocity": 0.8818897637795275
          },
          {
            "duration": 0.22604166666667425,
            "durationTicks": 217,
            "midi": 67,
            "name": "G4",
            "ticks": 517440,
            "time": 539,
            "velocity": 0.8188976377952756
          },
          {
            "duration": 0.22604166666667425,
            "durationTicks": 217,
            "midi": 67,
            "name": "G4",
            "ticks": 517680,
            "time": 539.25,
            "velocity": 0.7795275590551181
          },
          {
            "duration": 0.451041666666697,
            "durationTicks": 433,
            "midi": 63,
            "name": "D#4",
            "ticks": 517920,
            "time": 539.5,
            "velocity": 0.7244094488188977
          },
          {
            "duration": 0.451041666666697,
            "durationTicks": 433,
            "midi": 65,
            "name": "F4",
            "ticks": 518400,
            "time": 540,
            "velocity": 0.8031496062992126
          },
          {
            "duration": 0.451041666666697,
            "durationTicks": 433,
            "midi": 62,
            "name": "D4",
            "ticks": 518880,
            "time": 540.5,
            "velocity": 0.6929133858267716
          },
          {
            "duration": 0.451041666666697,
            "durationTicks": 433,
            "midi": 63,
            "name": "D#4",
            "ticks": 519360,
            "time": 541,
            "velocity": 0.8110236220472441
          },
          {
            "duration": 0.451041666666697,
            "durationTicks": 433,
            "midi": 60,
            "name": "C4",
            "ticks": 519840,
            "time": 541.5,
            "velocity": 0.6929133858267716
          },
          {
            "duration": 0.451041666666697,
            "durationTicks": 433,
            "midi": 62,
            "name": "D4",
            "ticks": 520320,
            "time": 542,
            "velocity": 0.8346456692913385
          },
          {
            "duration": 0.451041666666697,
            "durationTicks": 433,
            "midi": 58,
            "name": "A#3",
            "ticks": 520800,
            "time": 542.5,
            "velocity": 0.7244094488188977
          },
          {
            "duration": 0.451041666666697,
            "durationTicks": 433,
            "midi": 60,
            "name": "C4",
            "ticks": 521280,
            "time": 543,
            "velocity": 0.8346456692913385
          },
          {
            "duration": 0.451041666666697,
            "durationTicks": 433,
            "midi": 56,
            "name": "G#3",
            "ticks": 521760,
            "time": 543.5,
            "velocity": 0.7322834645669292
          },
          {
            "duration": 0.451041666666697,
            "durationTicks": 433,
            "midi": 58,
            "name": "A#3",
            "ticks": 522240,
            "time": 544,
            "velocity": 0.8188976377952756
          },
          {
            "duration": 0.451041666666697,
            "durationTicks": 433,
            "midi": 55,
            "name": "G3",
            "ticks": 522720,
            "time": 544.5,
            "velocity": 0.7165354330708661
          },
          {
            "duration": 0.451041666666697,
            "durationTicks": 433,
            "midi": 56,
            "name": "G#3",
            "ticks": 523200,
            "time": 545,
            "velocity": 0.7874015748031497
          },
          {
            "duration": 0.451041666666697,
            "durationTicks": 433,
            "midi": 53,
            "name": "F3",
            "ticks": 523680,
            "time": 545.5,
            "velocity": 0.6929133858267716
          },
          {
            "duration": 0.451041666666697,
            "durationTicks": 433,
            "midi": 55,
            "name": "G3",
            "ticks": 524160,
            "time": 546,
            "velocity": 0.8110236220472441
          },
          {
            "duration": 0.451041666666697,
            "durationTicks": 433,
            "midi": 51,
            "name": "D#3",
            "ticks": 524640,
            "time": 546.5,
            "velocity": 0.7401574803149606
          },
          {
            "duration": 0.451041666666697,
            "durationTicks": 433,
            "midi": 53,
            "name": "F3",
            "ticks": 525120,
            "time": 547,
            "velocity": 0.7637795275590551
          },
          {
            "duration": 0.451041666666697,
            "durationTicks": 433,
            "midi": 50,
            "name": "D3",
            "ticks": 525600,
            "time": 547.5,
            "velocity": 0.7007874015748031
          },
          {
            "duration": 0.451041666666697,
            "durationTicks": 433,
            "midi": 48,
            "name": "C3",
            "ticks": 526080,
            "time": 548,
            "velocity": 0.7559055118110236
          },
          {
            "duration": 0.451041666666697,
            "durationTicks": 433,
            "midi": 47,
            "name": "B2",
            "ticks": 526560,
            "time": 548.5,
            "velocity": 0.7637795275590551
          },
          {
            "duration": 0.451041666666697,
            "durationTicks": 433,
            "midi": 48,
            "name": "C3",
            "ticks": 527040,
            "time": 549,
            "velocity": 0.7716535433070866
          },
          {
            "duration": 0.451041666666697,
            "durationTicks": 433,
            "midi": 50,
            "name": "D3",
            "ticks": 527520,
            "time": 549.5,
            "velocity": 0.7795275590551181
          },
          {
            "duration": 0.451041666666697,
            "durationTicks": 433,
            "midi": 48,
            "name": "C3",
            "ticks": 528000,
            "time": 550,
            "velocity": 0.7007874015748031
          },
          {
            "duration": 0.451041666666697,
            "durationTicks": 433,
            "midi": 50,
            "name": "D3",
            "ticks": 528480,
            "time": 550.5,
            "velocity": 0.7795275590551181
          },
          {
            "duration": 0.451041666666697,
            "durationTicks": 433,
            "midi": 52,
            "name": "E3",
            "ticks": 528960,
            "time": 551,
            "velocity": 0.7952755905511811
          },
          {
            "duration": 0.451041666666697,
            "durationTicks": 433,
            "midi": 53,
            "name": "F3",
            "ticks": 529440,
            "time": 551.5,
            "velocity": 0.7874015748031497
          },
          {
            "duration": 0.451041666666697,
            "durationTicks": 433,
            "midi": 52,
            "name": "E3",
            "ticks": 529920,
            "time": 552,
            "velocity": 0.7401574803149606
          },
          {
            "duration": 0.451041666666697,
            "durationTicks": 433,
            "midi": 53,
            "name": "F3",
            "ticks": 530400,
            "time": 552.5,
            "velocity": 0.7716535433070866
          },
          {
            "duration": 0.451041666666697,
            "durationTicks": 433,
            "midi": 55,
            "name": "G3",
            "ticks": 530880,
            "time": 553,
            "velocity": 0.7637795275590551
          },
          {
            "duration": 0.451041666666697,
            "durationTicks": 433,
            "midi": 56,
            "name": "G#3",
            "ticks": 531360,
            "time": 553.5,
            "velocity": 0.8110236220472441
          },
          {
            "duration": 0.451041666666697,
            "durationTicks": 433,
            "midi": 55,
            "name": "G3",
            "ticks": 531840,
            "time": 554,
            "velocity": 0.7480314960629921
          },
          {
            "duration": 0.451041666666697,
            "durationTicks": 433,
            "midi": 57,
            "name": "A3",
            "ticks": 532320,
            "time": 554.5,
            "velocity": 0.8188976377952756
          },
          {
            "duration": 0.451041666666697,
            "durationTicks": 433,
            "midi": 59,
            "name": "B3",
            "ticks": 532800,
            "time": 555,
            "velocity": 0.8188976377952756
          },
          {
            "duration": 1.8999999999999773,
            "durationTicks": 1824,
            "midi": 60,
            "name": "C4",
            "ticks": 533280,
            "time": 555.5,
            "velocity": 0.8031496062992126
          },
          {
            "duration": 1.8999999999999773,
            "durationTicks": 1824,
            "midi": 56,
            "name": "G#3",
            "ticks": 535200,
            "time": 557.5,
            "velocity": 0.7007874015748031
          },
          {
            "duration": 1.8999999999999773,
            "durationTicks": 1824,
            "midi": 51,
            "name": "D#3",
            "ticks": 537120,
            "time": 559.5,
            "velocity": 0.7007874015748031
          },
          {
            "duration": 0.8999999999999773,
            "durationTicks": 864,
            "midi": 53,
            "name": "F3",
            "ticks": 539040,
            "time": 561.5,
            "velocity": 0.8188976377952756
          },
          {
            "duration": 0.8999999999999773,
            "durationTicks": 864,
            "midi": 51,
            "name": "D#3",
            "ticks": 540000,
            "time": 562.5,
            "velocity": 0.7401574803149606
          },
          {
            "duration": 0.8999999999999773,
            "durationTicks": 864,
            "midi": 50,
            "name": "D3",
            "ticks": 540960,
            "time": 563.5,
            "velocity": 0.7559055118110236
          },
          {
            "duration": 0.8999999999999773,
            "durationTicks": 864,
            "midi": 53,
            "name": "F3",
            "ticks": 541920,
            "time": 564.5,
            "velocity": 0.8346456692913385
          },
          {
            "duration": 0.22500000000002274,
            "durationTicks": 216,
            "midi": 51,
            "name": "D#3",
            "ticks": 542880,
            "time": 565.5,
            "velocity": 0.7322834645669292
          },
          {
            "duration": 0.22500000000002274,
            "durationTicks": 216,
            "midi": 48,
            "name": "C3",
            "ticks": 543840,
            "time": 566.5,
            "velocity": 0.7007874015748031
          },
          {
            "duration": 0.22500000000002274,
            "durationTicks": 216,
            "midi": 53,
            "name": "F3",
            "ticks": 544800,
            "time": 567.5,
            "velocity": 0.7007874015748031
          },
          {
            "duration": 0.22500000000002274,
            "durationTicks": 216,
            "midi": 50,
            "name": "D3",
            "ticks": 545760,
            "time": 568.5,
            "velocity": 0.6771653543307087
          },
          {
            "duration": 0.22500000000002274,
            "durationTicks": 216,
            "midi": 55,
            "name": "G3",
            "ticks": 546720,
            "time": 569.5,
            "velocity": 0.6535433070866141
          },
          {
            "duration": 0.22500000000002274,
            "durationTicks": 216,
            "midi": 43,
            "name": "G2",
            "ticks": 547680,
            "time": 570.5,
            "velocity": 0.6692913385826772
          },
          {
            "duration": 0.22500000000002274,
            "durationTicks": 216,
            "midi": 48,
            "name": "C3",
            "ticks": 548640,
            "time": 571.5,
            "velocity": 0.7007874015748031
          },
          {
            "duration": 0.22500000000002274,
            "durationTicks": 216,
            "midi": 39,
            "name": "D#2",
            "ticks": 551520,
            "time": 574.5,
            "velocity": 0.7007874015748031
          },
          {
            "duration": 0.22500000000002274,
            "durationTicks": 216,
            "midi": 41,
            "name": "F2",
            "ticks": 552000,
            "time": 575,
            "velocity": 0.7952755905511811
          },
          {
            "duration": 0.5093749999999773,
            "durationTicks": 489,
            "midi": 43,
            "name": "G2",
            "ticks": 552480,
            "time": 575.5,
            "velocity": 0.8031496062992126
          },
          {
            "duration": 0.47500000000002274,
            "durationTicks": 456,
            "midi": 39,
            "name": "D#2",
            "ticks": 552960,
            "time": 576,
            "velocity": 0.7559055118110236
          },
          {
            "duration": 0.22500000000002274,
            "durationTicks": 216,
            "midi": 43,
            "name": "G2",
            "ticks": 555360,
            "time": 578.5,
            "velocity": 0.7559055118110236
          },
          {
            "duration": 0.22500000000002274,
            "durationTicks": 216,
            "midi": 45,
            "name": "A2",
            "ticks": 555840,
            "time": 579,
            "velocity": 0.7952755905511811
          },
          {
            "duration": 0.5093749999999773,
            "durationTicks": 489,
            "midi": 47,
            "name": "B2",
            "ticks": 556320,
            "time": 579.5,
            "velocity": 0.7874015748031497
          },
          {
            "duration": 0.47500000000002274,
            "durationTicks": 456,
            "midi": 43,
            "name": "G2",
            "ticks": 556800,
            "time": 580,
            "velocity": 0.7559055118110236
          },
          {
            "duration": 0.22500000000002274,
            "durationTicks": 216,
            "midi": 43,
            "name": "G2",
            "ticks": 559200,
            "time": 582.5,
            "velocity": 0.7480314960629921
          },
          {
            "duration": 0.22500000000002274,
            "durationTicks": 216,
            "midi": 45,
            "name": "A2",
            "ticks": 559680,
            "time": 583,
            "velocity": 0.7716535433070866
          },
          {
            "duration": 0.5093749999999773,
            "durationTicks": 489,
            "midi": 47,
            "name": "B2",
            "ticks": 560160,
            "time": 583.5,
            "velocity": 0.7716535433070866
          },
          {
            "duration": 0.47500000000002274,
            "durationTicks": 456,
            "midi": 43,
            "name": "G2",
            "ticks": 560640,
            "time": 584,
            "velocity": 0.7322834645669292
          },
          {
            "duration": 0.5093749999999773,
            "durationTicks": 489,
            "midi": 53,
            "name": "F3",
            "ticks": 564960,
            "time": 588.5,
            "velocity": 0.9763779527559056
          },
          {
            "duration": 0.47500000000002274,
            "durationTicks": 456,
            "midi": 48,
            "name": "C3",
            "ticks": 565440,
            "time": 589,
            "velocity": 0.9606299212598425
          },
          {
            "duration": 0.5093749999999773,
            "durationTicks": 489,
            "midi": 53,
            "name": "F3",
            "ticks": 566880,
            "time": 590.5,
            "velocity": 0.8267716535433071
          },
          {
            "duration": 0.47500000000002274,
            "durationTicks": 456,
            "midi": 48,
            "name": "C3",
            "ticks": 567360,
            "time": 591,
            "velocity": 0.7874015748031497
          },
          {
            "duration": 0.451041666666697,
            "durationTicks": 433,
            "midi": 55,
            "name": "G3",
            "ticks": 567840,
            "time": 591.5,
            "velocity": 0.8188976377952756
          },
          {
            "duration": 0.451041666666697,
            "durationTicks": 433,
            "midi": 43,
            "name": "G2",
            "ticks": 568800,
            "time": 592.5,
            "velocity": 0.6535433070866141
          },
          {
            "duration": 0.5093749999999773,
            "durationTicks": 489,
            "midi": 60,
            "name": "C4",
            "ticks": 569760,
            "time": 593.5,
            "velocity": 0.6929133858267716
          },
          {
            "duration": 0.5093749999999773,
            "durationTicks": 489,
            "midi": 55,
            "name": "G3",
            "ticks": 570240,
            "time": 594,
            "velocity": 0.6220472440944882
          },
          {
            "duration": 0.5093749999999773,
            "durationTicks": 489,
            "midi": 56,
            "name": "G#3",
            "ticks": 570720,
            "time": 594.5,
            "velocity": 0.7795275590551181
          },
          {
            "duration": 0.5093749999999773,
            "durationTicks": 489,
            "midi": 51,
            "name": "D#3",
            "ticks": 571200,
            "time": 595,
            "velocity": 0.7244094488188977
          },
          {
            "duration": 0.5093749999999773,
            "durationTicks": 489,
            "midi": 53,
            "name": "F3",
            "ticks": 571680,
            "time": 595.5,
            "velocity": 0.7952755905511811
          },
          {
            "duration": 0.47500000000002274,
            "durationTicks": 456,
            "midi": 48,
            "name": "C3",
            "ticks": 572160,
            "time": 596,
            "velocity": 0.7559055118110236
          },
          {
            "duration": 0.5093749999999773,
            "durationTicks": 489,
            "midi": 53,
            "name": "F3",
            "ticks": 573600,
            "time": 597.5,
            "velocity": 0.8031496062992126
          },
          {
            "duration": 0.47500000000002274,
            "durationTicks": 456,
            "midi": 48,
            "name": "C3",
            "ticks": 574080,
            "time": 598,
            "velocity": 0.7952755905511811
          },
          {
            "duration": 0.5093749999999773,
            "durationTicks": 489,
            "midi": 53,
            "name": "F3",
            "ticks": 574560,
            "time": 598.5,
            "velocity": 0.7952755905511811
          },
          {
            "duration": 0.47500000000002274,
            "durationTicks": 456,
            "midi": 48,
            "name": "C3",
            "ticks": 575040,
            "time": 599,
            "velocity": 0.7401574803149606
          },
          {
            "duration": 0.451041666666697,
            "durationTicks": 433,
            "midi": 55,
            "name": "G3",
            "ticks": 575520,
            "time": 599.5,
            "velocity": 0.8267716535433071
          },
          {
            "duration": 0.451041666666697,
            "durationTicks": 433,
            "midi": 43,
            "name": "G2",
            "ticks": 576480,
            "time": 600.5,
            "velocity": 0.6929133858267716
          },
          {
            "duration": 0.451041666666697,
            "durationTicks": 433,
            "midi": 48,
            "name": "C3",
            "ticks": 577440,
            "time": 601.5,
            "velocity": 0.7007874015748031
          },
          {
            "duration": 0.22604166666667425,
            "durationTicks": 217,
            "midi": 43,
            "name": "G2",
            "ticks": 582480,
            "time": 606.75,
            "velocity": 0.6771653543307087
          },
          {
            "duration": 0.22604166666667425,
            "durationTicks": 217,
            "midi": 43,
            "name": "G2",
            "ticks": 582720,
            "time": 607,
            "velocity": 0.7559055118110236
          },
          {
            "duration": 0.22604166666667425,
            "durationTicks": 217,
            "midi": 43,
            "name": "G2",
            "ticks": 582960,
            "time": 607.25,
            "velocity": 0.7401574803149606
          },
          {
            "duration": 0.22604166666667425,
            "durationTicks": 217,
            "midi": 48,
            "name": "C3",
            "ticks": 583200,
            "time": 607.5,
            "velocity": 0.8110236220472441
          },
          {
            "duration": 0.22604166666667425,
            "durationTicks": 217,
            "midi": 43,
            "name": "G2",
            "ticks": 583440,
            "time": 607.75,
            "velocity": 0.7086614173228346
          },
          {
            "duration": 0.22604166666667425,
            "durationTicks": 217,
            "midi": 43,
            "name": "G2",
            "ticks": 583680,
            "time": 608,
            "velocity": 0.7716535433070866
          },
          {
            "duration": 0.22604166666667425,
            "durationTicks": 217,
            "midi": 43,
            "name": "G2",
            "ticks": 583920,
            "time": 608.25,
            "velocity": 0.7795275590551181
          },
          {
            "duration": 0.22604166666667425,
            "durationTicks": 217,
            "midi": 43,
            "name": "G2",
            "ticks": 584160,
            "time": 608.5,
            "velocity": 0.7874015748031497
          },
          {
            "duration": 0.22604166666667425,
            "durationTicks": 217,
            "midi": 43,
            "name": "G2",
            "ticks": 584400,
            "time": 608.75,
            "velocity": 0.8031496062992126
          },
          {
            "duration": 0.22604166666667425,
            "durationTicks": 217,
            "midi": 43,
            "name": "G2",
            "ticks": 584640,
            "time": 609,
            "velocity": 0.8110236220472441
          },
          {
            "duration": 0.22604166666667425,
            "durationTicks": 217,
            "midi": 43,
            "name": "G2",
            "ticks": 584880,
            "time": 609.25,
            "velocity": 0.7637795275590551
          },
          {
            "duration": 0.22604166666667425,
            "durationTicks": 217,
            "midi": 43,
            "name": "G2",
            "ticks": 585120,
            "time": 609.5,
            "velocity": 0.7716535433070866
          },
          {
            "duration": 0.22604166666667425,
            "durationTicks": 217,
            "midi": 43,
            "name": "G2",
            "ticks": 585360,
            "time": 609.75,
            "velocity": 0.7874015748031497
          },
          {
            "duration": 0.22604166666667425,
            "durationTicks": 217,
            "midi": 43,
            "name": "G2",
            "ticks": 585600,
            "time": 610,
            "velocity": 0.7637795275590551
          },
          {
            "duration": 0.22604166666667425,
            "durationTicks": 217,
            "midi": 43,
            "name": "G2",
            "ticks": 585840,
            "time": 610.25,
            "velocity": 0.8031496062992126
          },
          {
            "duration": 0.22604166666667425,
            "durationTicks": 217,
            "midi": 43,
            "name": "G2",
            "ticks": 586080,
            "time": 610.5,
            "velocity": 0.7637795275590551
          },
          {
            "duration": 0.22604166666667425,
            "durationTicks": 217,
            "midi": 43,
            "name": "G2",
            "ticks": 586320,
            "time": 610.75,
            "velocity": 0.7637795275590551
          },
          {
            "duration": 0.22604166666667425,
            "durationTicks": 217,
            "midi": 43,
            "name": "G2",
            "ticks": 586560,
            "time": 611,
            "velocity": 0.7874015748031497
          },
          {
            "duration": 0.22604166666667425,
            "durationTicks": 217,
            "midi": 43,
            "name": "G2",
            "ticks": 586800,
            "time": 611.25,
            "velocity": 0.7637795275590551
          },
          {
            "duration": 1.5,
            "durationTicks": 1440,
            "midi": 39,
            "name": "D#2",
            "ticks": 587040,
            "time": 611.5,
            "velocity": 0.8346456692913385
          },
          {
            "duration": 0.22604166666667425,
            "durationTicks": 217,
            "midi": 41,
            "name": "F2",
            "ticks": 588720,
            "time": 613.25,
            "velocity": 0.8267716535433071
          },
          {
            "duration": 0.22604166666667425,
            "durationTicks": 217,
            "midi": 41,
            "name": "F2",
            "ticks": 588960,
            "time": 613.5,
            "velocity": 0.8661417322834646
          },
          {
            "duration": 0.22604166666667425,
            "durationTicks": 217,
            "midi": 41,
            "name": "F2",
            "ticks": 589200,
            "time": 613.75,
            "velocity": 0.9133858267716536
          },
          {
            "duration": 2.5,
            "durationTicks": 2400,
            "midi": 38,
            "name": "D2",
            "ticks": 589440,
            "time": 614,
            "velocity": 0.8188976377952756
          },
          {
            "duration": 7.226041666666674,
            "durationTicks": 6937,
            "midi": 36,
            "name": "C2",
            "ticks": 592800,
            "time": 617.5,
            "velocity": 0.41732283464566927
          },
          {
            "duration": 7.226041666666674,
            "durationTicks": 6937,
            "midi": 43,
            "name": "G2",
            "ticks": 592800,
            "time": 617.5,
            "velocity": 0.41732283464566927
          },
          {
            "duration": 0.22604166666667425,
            "durationTicks": 217,
            "midi": 43,
            "name": "G2",
            "ticks": 599760,
            "time": 624.75,
            "velocity": 0.8818897637795275
          },
          {
            "duration": 0.22604166666667425,
            "durationTicks": 217,
            "midi": 43,
            "name": "G2",
            "ticks": 600000,
            "time": 625,
            "velocity": 0.8976377952755905
          },
          {
            "duration": 0.22604166666667425,
            "durationTicks": 217,
            "midi": 43,
            "name": "G2",
            "ticks": 600240,
            "time": 625.25,
            "velocity": 0.8740157480314961
          },
          {
            "duration": 0.451041666666697,
            "durationTicks": 433,
            "midi": 48,
            "name": "C3",
            "ticks": 600480,
            "time": 625.5,
            "velocity": 0.9291338582677166
          },
          {
            "duration": 0.22604166666667425,
            "durationTicks": 217,
            "midi": 43,
            "name": "G2",
            "ticks": 601680,
            "time": 626.75,
            "velocity": 0.7716535433070866
          },
          {
            "duration": 0.22604166666667425,
            "durationTicks": 217,
            "midi": 43,
            "name": "G2",
            "ticks": 601920,
            "time": 627,
            "velocity": 0.8976377952755905
          },
          {
            "duration": 0.22604166666667425,
            "durationTicks": 217,
            "midi": 43,
            "name": "G2",
            "ticks": 602160,
            "time": 627.25,
            "velocity": 0.8818897637795275
          },
          {
            "duration": 0.451041666666697,
            "durationTicks": 433,
            "midi": 48,
            "name": "C3",
            "ticks": 602400,
            "time": 627.5,
            "velocity": 0.9291338582677166
          },
          {
            "duration": 0.22604166666667425,
            "durationTicks": 217,
            "midi": 43,
            "name": "G2",
            "ticks": 603600,
            "time": 628.75,
            "velocity": 0.8031496062992126
          },
          {
            "duration": 0.22604166666667425,
            "durationTicks": 217,
            "midi": 43,
            "name": "G2",
            "ticks": 603840,
            "time": 629,
            "velocity": 0.8661417322834646
          },
          {
            "duration": 0.22604166666667425,
            "durationTicks": 217,
            "midi": 43,
            "name": "G2",
            "ticks": 604080,
            "time": 629.25,
            "velocity": 0.905511811023622
          },
          {
            "duration": 0.451041666666697,
            "durationTicks": 433,
            "midi": 48,
            "name": "C3",
            "ticks": 604320,
            "time": 629.5,
            "velocity": 0.9606299212598425
          },
          {
            "duration": 0.451041666666697,
            "durationTicks": 433,
            "midi": 43,
            "name": "G2",
            "ticks": 604800,
            "time": 630,
            "velocity": 0.84251968503937
          },
          {
            "duration": 0.451041666666697,
            "durationTicks": 433,
            "midi": 48,
            "name": "C3",
            "ticks": 605280,
            "time": 630.5,
            "velocity": 0.9606299212598425
          },
          {
            "duration": 0.451041666666697,
            "durationTicks": 433,
            "midi": 43,
            "name": "G2",
            "ticks": 605760,
            "time": 631,
            "velocity": 0.8582677165354331
          },
          {
            "duration": 0.451041666666697,
            "durationTicks": 433,
            "midi": 48,
            "name": "C3",
            "ticks": 606240,
            "time": 631.5,
            "velocity": 0.9448818897637795
          },
          {
            "duration": 0.451041666666697,
            "durationTicks": 433,
            "midi": 55,
            "name": "G3",
            "ticks": 606720,
            "time": 632,
            "velocity": 0.952755905511811
          },
          {
            "duration": 0.451041666666697,
            "durationTicks": 433,
            "midi": 60,
            "name": "C4",
            "ticks": 607200,
            "time": 632.5,
            "velocity": 1
          },
          {
            "duration": 0.451041666666697,
            "durationTicks": 433,
            "midi": 55,
            "name": "G3",
            "ticks": 607680,
            "time": 633,
            "velocity": 0.8582677165354331
          },
          {
            "duration": 0.451041666666697,
            "durationTicks": 433,
            "midi": 60,
            "name": "C4",
            "ticks": 608160,
            "time": 633.5,
            "velocity": 1
          },
          {
            "duration": 0.451041666666697,
            "durationTicks": 433,
            "midi": 43,
            "name": "G2",
            "ticks": 609120,
            "time": 634.5,
            "velocity": 0.7874015748031497
          },
          {
            "duration": 0.451041666666697,
            "durationTicks": 433,
            "midi": 36,
            "name": "C2",
            "ticks": 610080,
            "time": 635.5,
            "velocity": 0.8267716535433071
          },
          {
            "duration": 0.451041666666697,
            "durationTicks": 433,
            "midi": 48,
            "name": "C3",
            "ticks": 610080,
            "time": 635.5,
            "velocity": 0.8267716535433071
          }
        ]
      },
      {
        "channel": 11,
        "controlChanges": {
          "7": [
            {
              "number": 7,
              "ticks": 0,
              "time": 0,
              "value": 0.49606299212598426
            },
            {
              "number": 7,
              "ticks": 273600,
              "time": 285,
              "value": 0.49606299212598426
            },
            {
              "number": 7,
              "ticks": 380160,
              "time": 396,
              "value": 0.49606299212598426
            }
          ],
          "10": [
            {
              "number": 10,
              "ticks": 0,
              "time": 0,
              "value": 0.937007874015748
            },
            {
              "number": 10,
              "ticks": 273600,
              "time": 285,
              "value": 0.937007874015748
            },
            {
              "number": 10,
              "ticks": 380160,
              "time": 396,
              "value": 0.937007874015748
            }
          ],
          "64": [
            {
              "number": 64,
              "ticks": 0,
              "time": 0,
              "value": 0
            }
          ],
          "121": [
            {
              "number": 121,
              "ticks": 0,
              "time": 0,
              "value": 0
            }
          ]
        },
        "pitchBends": [],
        "instrument": {
          "family": "ensemble",
          "number": 48,
          "name": "string ensemble 1"
        },
        "name": "",
        "notes": [
          {
            "duration": 0.22604166666666664,
            "durationTicks": 217,
            "midi": 43,
            "name": "G2",
            "ticks": 240,
            "time": 0.25,
            "velocity": 0.7795275590551181
          },
          {
            "duration": 0.2260416666666667,
            "durationTicks": 217,
            "midi": 43,
            "name": "G2",
            "ticks": 480,
            "time": 0.5,
            "velocity": 0.8976377952755905
          },
          {
            "duration": 0.2260416666666667,
            "durationTicks": 217,
            "midi": 43,
            "name": "G2",
            "ticks": 720,
            "time": 0.75,
            "velocity": 0.889763779527559
          },
          {
            "duration": 1.5,
            "durationTicks": 1440,
            "midi": 39,
            "name": "D#2",
            "ticks": 960,
            "time": 1,
            "velocity": 0.8582677165354331
          },
          {
            "duration": 0.2260416666666667,
            "durationTicks": 217,
            "midi": 41,
            "name": "F2",
            "ticks": 2640,
            "time": 2.75,
            "velocity": 0.7716535433070866
          },
          {
            "duration": 0.2260416666666667,
            "durationTicks": 217,
            "midi": 41,
            "name": "F2",
            "ticks": 2880,
            "time": 3,
            "velocity": 0.9133858267716536
          },
          {
            "duration": 0.2260416666666667,
            "durationTicks": 217,
            "midi": 41,
            "name": "F2",
            "ticks": 3120,
            "time": 3.25,
            "velocity": 0.8818897637795275
          },
          {
            "duration": 2.5,
            "durationTicks": 2400,
            "midi": 38,
            "name": "D2",
            "ticks": 3360,
            "time": 3.5,
            "velocity": 0.84251968503937
          },
          {
            "duration": 0.22604166666666714,
            "durationTicks": 217,
            "midi": 35,
            "name": "B1",
            "ticks": 17520,
            "time": 18.25,
            "velocity": 0.4015748031496063
          },
          {
            "duration": 0.22604166666666714,
            "durationTicks": 217,
            "midi": 35,
            "name": "B1",
            "ticks": 17760,
            "time": 18.5,
            "velocity": 0.5590551181102362
          },
          {
            "duration": 0.22604166666666714,
            "durationTicks": 217,
            "midi": 35,
            "name": "B1",
            "ticks": 18000,
            "time": 18.75,
            "velocity": 0.6614173228346457
          },
          {
            "duration": 0.451041666666665,
            "durationTicks": 433,
            "midi": 36,
            "name": "C2",
            "ticks": 18240,
            "time": 19,
            "velocity": 0.7716535433070866
          },
          {
            "duration": 0.451041666666665,
            "durationTicks": 433,
            "midi": 32,
            "name": "G#1",
            "ticks": 19200,
            "time": 20,
            "velocity": 0.7086614173228346
          },
          {
            "duration": 0.451041666666665,
            "durationTicks": 433,
            "midi": 31,
            "name": "G1",
            "ticks": 20160,
            "time": 21,
            "velocity": 0.7007874015748031
          },
          {
            "duration": 0.22604166666666714,
            "durationTicks": 217,
            "midi": 32,
            "name": "G#1",
            "ticks": 21600,
            "time": 22.5,
            "velocity": 0.7086614173228346
          },
          {
            "duration": 0.22604166666666714,
            "durationTicks": 217,
            "midi": 32,
            "name": "G#1",
            "ticks": 21840,
            "time": 22.75,
            "velocity": 0.6850393700787402
          },
          {
            "duration": 0.22604166666666714,
            "durationTicks": 217,
            "midi": 32,
            "name": "G#1",
            "ticks": 22080,
            "time": 23,
            "velocity": 0.7559055118110236
          },
          {
            "duration": 2.5,
            "durationTicks": 2400,
            "midi": 29,
            "name": "F1",
            "ticks": 22320,
            "time": 23.25,
            "velocity": 0.7086614173228346
          },
          {
            "duration": 0.22604166666666714,
            "durationTicks": 217,
            "midi": 31,
            "name": "G1",
            "ticks": 27840,
            "time": 29,
            "velocity": 0.4330708661417323
          },
          {
            "duration": 0.22604166666666714,
            "durationTicks": 217,
            "midi": 31,
            "name": "G1",
            "ticks": 28080,
            "time": 29.25,
            "velocity": 0.4645669291338583
          },
          {
            "duration": 0.22604166666666714,
            "durationTicks": 217,
            "midi": 31,
            "name": "G1",
            "ticks": 28320,
            "time": 29.5,
            "velocity": 0.4881889763779528
          },
          {
            "duration": 0.451041666666665,
            "durationTicks": 433,
            "midi": 36,
            "name": "C2",
            "ticks": 28560,
            "time": 29.75,
            "velocity": 0.5039370078740157
          },
          {
            "duration": 0.22604166666666714,
            "durationTicks": 217,
            "midi": 31,
            "name": "G1",
            "ticks": 31680,
            "time": 33,
            "velocity": 0.4094488188976378
          },
          {
            "duration": 0.22604166666666714,
            "durationTicks": 217,
            "midi": 31,
            "name": "G1",
            "ticks": 31920,
            "time": 33.25,
            "velocity": 0.47244094488188976
          },
          {
            "duration": 0.22604166666666714,
            "durationTicks": 217,
            "midi": 31,
            "name": "G1",
            "ticks": 32160,
            "time": 33.5,
            "velocity": 0.49606299212598426
          },
          {
            "duration": 0.45104166666666856,
            "durationTicks": 433,
            "midi": 36,
            "name": "C2",
            "ticks": 32400,
            "time": 33.75,
            "velocity": 0.49606299212598426
          },
          {
            "duration": 0.22604166666666714,
            "durationTicks": 217,
            "midi": 36,
            "name": "C2",
            "ticks": 33600,
            "time": 35,
            "velocity": 0.4015748031496063
          },
          {
            "duration": 0.22604166666666714,
            "durationTicks": 217,
            "midi": 36,
            "name": "C2",
            "ticks": 33840,
            "time": 35.25,
            "velocity": 0.48031496062992124
          },
          {
            "duration": 0.22604166666666714,
            "durationTicks": 217,
            "midi": 36,
            "name": "C2",
            "ticks": 34080,
            "time": 35.5,
            "velocity": 0.4881889763779528
          },
          {
            "duration": 0.45104166666666856,
            "durationTicks": 433,
            "midi": 36,
            "name": "C2",
            "ticks": 34320,
            "time": 35.75,
            "velocity": 0.47244094488188976
          },
          {
            "duration": 0.22604166666666714,
            "durationTicks": 217,
            "midi": 36,
            "name": "C2",
            "ticks": 35520,
            "time": 37,
            "velocity": 0.4881889763779528
          },
          {
            "duration": 0.22604166666666714,
            "durationTicks": 217,
            "midi": 36,
            "name": "C2",
            "ticks": 35760,
            "time": 37.25,
            "velocity": 0.49606299212598426
          },
          {
            "duration": 0.22604166666666714,
            "durationTicks": 217,
            "midi": 36,
            "name": "C2",
            "ticks": 36000,
            "time": 37.5,
            "velocity": 0.5275590551181102
          },
          {
            "duration": 0.45104166666666856,
            "durationTicks": 433,
            "midi": 36,
            "name": "C2",
            "ticks": 36240,
            "time": 37.75,
            "velocity": 0.5354330708661418
          },
          {
            "duration": 0.45104166666666856,
            "durationTicks": 433,
            "midi": 36,
            "name": "C2",
            "ticks": 37200,
            "time": 38.75,
            "velocity": 0.6141732283464567
          },
          {
            "duration": 0.45104166666666856,
            "durationTicks": 433,
            "midi": 36,
            "name": "C2",
            "ticks": 38160,
            "time": 39.75,
            "velocity": 0.6929133858267716
          },
          {
            "duration": 0.45104166666666856,
            "durationTicks": 433,
            "midi": 36,
            "name": "C2",
            "ticks": 39120,
            "time": 40.75,
            "velocity": 0.6614173228346457
          },
          {
            "duration": 0.45104166666666856,
            "durationTicks": 433,
            "midi": 36,
            "name": "C2",
            "ticks": 40080,
            "time": 41.75,
            "velocity": 0.6377952755905512
          },
          {
            "duration": 0.45104166666666856,
            "durationTicks": 433,
            "midi": 36,
            "name": "C2",
            "ticks": 41040,
            "time": 42.75,
            "velocity": 0.6771653543307087
          },
          {
            "duration": 0.45104166666666856,
            "durationTicks": 433,
            "midi": 36,
            "name": "C2",
            "ticks": 42000,
            "time": 43.75,
            "velocity": 0.7086614173228346
          },
          {
            "duration": 3.226041666666667,
            "durationTicks": 3097,
            "midi": 36,
            "name": "C2",
            "ticks": 42960,
            "time": 44.75,
            "velocity": 0.6771653543307087
          },
          {
            "duration": 0.22604166666666714,
            "durationTicks": 217,
            "midi": 36,
            "name": "C2",
            "ticks": 46080,
            "time": 48,
            "velocity": 0.7716535433070866
          },
          {
            "duration": 0.22604166666666714,
            "durationTicks": 217,
            "midi": 36,
            "name": "C2",
            "ticks": 46320,
            "time": 48.25,
            "velocity": 0.7637795275590551
          },
          {
            "duration": 0.22604166666666714,
            "durationTicks": 217,
            "midi": 36,
            "name": "C2",
            "ticks": 46560,
            "time": 48.5,
            "velocity": 0.7874015748031497
          },
          {
            "duration": 3.226041666666667,
            "durationTicks": 3097,
            "midi": 31,
            "name": "G1",
            "ticks": 46800,
            "time": 48.75,
            "velocity": 0.7086614173228346
          },
          {
            "duration": 0.22604166666666714,
            "durationTicks": 217,
            "midi": 31,
            "name": "G1",
            "ticks": 49920,
            "time": 52,
            "velocity": 0.7480314960629921
          },
          {
            "duration": 0.22604166666666714,
            "durationTicks": 217,
            "midi": 36,
            "name": "C2",
            "ticks": 50160,
            "time": 52.25,
            "velocity": 0.7716535433070866
          },
          {
            "duration": 0.22604166666666714,
            "durationTicks": 217,
            "midi": 36,
            "name": "C2",
            "ticks": 50400,
            "time": 52.5,
            "velocity": 0.7637795275590551
          },
          {
            "duration": 0.22604166666666714,
            "durationTicks": 217,
            "midi": 36,
            "name": "C2",
            "ticks": 50640,
            "time": 52.75,
            "velocity": 0.905511811023622
          },
          {
            "duration": 0.22604166666666714,
            "durationTicks": 217,
            "midi": 36,
            "name": "C2",
            "ticks": 50880,
            "time": 53,
            "velocity": 0.8661417322834646
          },
          {
            "duration": 0.22604166666666714,
            "durationTicks": 217,
            "midi": 36,
            "name": "C2",
            "ticks": 51120,
            "time": 53.25,
            "velocity": 0.8503937007874016
          },
          {
            "duration": 0.22604166666666714,
            "durationTicks": 217,
            "midi": 36,
            "name": "C2",
            "ticks": 51360,
            "time": 53.5,
            "velocity": 0.937007874015748
          },
          {
            "duration": 0.22604166666666714,
            "durationTicks": 217,
            "midi": 36,
            "name": "C2",
            "ticks": 51600,
            "time": 53.75,
            "velocity": 0.8976377952755905
          },
          {
            "duration": 0.22604166666666714,
            "durationTicks": 217,
            "midi": 36,
            "name": "C2",
            "ticks": 51840,
            "time": 54,
            "velocity": 0.8818897637795275
          },
          {
            "duration": 0.22604166666666714,
            "durationTicks": 217,
            "midi": 36,
            "name": "C2",
            "ticks": 52080,
            "time": 54.25,
            "velocity": 0.8582677165354331
          },
          {
            "duration": 0.22604166666666714,
            "durationTicks": 217,
            "midi": 36,
            "name": "C2",
            "ticks": 52320,
            "time": 54.5,
            "velocity": 0.9291338582677166
          },
          {
            "duration": 0.22604166666666714,
            "durationTicks": 217,
            "midi": 36,
            "name": "C2",
            "ticks": 52560,
            "time": 54.75,
            "velocity": 0.8976377952755905
          },
          {
            "duration": 0.22604166666666714,
            "durationTicks": 217,
            "midi": 36,
            "name": "C2",
            "ticks": 52800,
            "time": 55,
            "velocity": 0.8976377952755905
          },
          {
            "duration": 0.22604166666666714,
            "durationTicks": 217,
            "midi": 36,
            "name": "C2",
            "ticks": 53040,
            "time": 55.25,
            "velocity": 0.905511811023622
          },
          {
            "duration": 0.22604166666666714,
            "durationTicks": 217,
            "midi": 36,
            "name": "C2",
            "ticks": 53280,
            "time": 55.5,
            "velocity": 0.9212598425196851
          },
          {
            "duration": 0.22604166666666714,
            "durationTicks": 217,
            "midi": 36,
            "name": "C2",
            "ticks": 53520,
            "time": 55.75,
            "velocity": 0.889763779527559
          },
          {
            "duration": 0.22604166666666714,
            "durationTicks": 217,
            "midi": 36,
            "name": "C2",
            "ticks": 53760,
            "time": 56,
            "velocity": 0.8818897637795275
          },
          {
            "duration": 0.22604166666666714,
            "durationTicks": 217,
            "midi": 36,
            "name": "C2",
            "ticks": 54000,
            "time": 56.25,
            "velocity": 0.905511811023622
          },
          {
            "duration": 0.22604166666666714,
            "durationTicks": 217,
            "midi": 36,
            "name": "C2",
            "ticks": 54240,
            "time": 56.5,
            "velocity": 0.8976377952755905
          },
          {
            "duration": 0.45104166666666856,
            "durationTicks": 433,
            "midi": 36,
            "name": "C2",
            "ticks": 54480,
            "time": 56.75,
            "velocity": 0.84251968503937
          },
          {
            "duration": 0.45104166666666856,
            "durationTicks": 433,
            "midi": 38,
            "name": "D2",
            "ticks": 56400,
            "time": 58.75,
            "velocity": 0.8188976377952756
          },
          {
            "duration": 0.22604166666666003,
            "durationTicks": 217,
            "midi": 34,
            "name": "A#1",
            "ticks": 63360,
            "time": 66,
            "velocity": 0.44881889763779526
          },
          {
            "duration": 0.22604166666666003,
            "durationTicks": 217,
            "midi": 34,
            "name": "A#1",
            "ticks": 63600,
            "time": 66.25,
            "velocity": 0.4645669291338583
          },
          {
            "duration": 0.22604166666666003,
            "durationTicks": 217,
            "midi": 34,
            "name": "A#1",
            "ticks": 63840,
            "time": 66.5,
            "velocity": 0.49606299212598426
          },
          {
            "duration": 0.45104166666666856,
            "durationTicks": 433,
            "midi": 39,
            "name": "D#2",
            "ticks": 64080,
            "time": 66.75,
            "velocity": 0.5275590551181102
          },
          {
            "duration": 0.22604166666666003,
            "durationTicks": 217,
            "midi": 34,
            "name": "A#1",
            "ticks": 67200,
            "time": 70,
            "velocity": 0.47244094488188976
          },
          {
            "duration": 0.22604166666666003,
            "durationTicks": 217,
            "midi": 34,
            "name": "A#1",
            "ticks": 67440,
            "time": 70.25,
            "velocity": 0.47244094488188976
          },
          {
            "duration": 0.22604166666666003,
            "durationTicks": 217,
            "midi": 34,
            "name": "A#1",
            "ticks": 67680,
            "time": 70.5,
            "velocity": 0.44881889763779526
          },
          {
            "duration": 0.45104166666666856,
            "durationTicks": 433,
            "midi": 39,
            "name": "D#2",
            "ticks": 67920,
            "time": 70.75,
            "velocity": 0.47244094488188976
          },
          {
            "duration": 0.22604166666666003,
            "durationTicks": 217,
            "midi": 34,
            "name": "A#1",
            "ticks": 71040,
            "time": 74,
            "velocity": 0.4094488188976378
          },
          {
            "duration": 0.22604166666666003,
            "durationTicks": 217,
            "midi": 34,
            "name": "A#1",
            "ticks": 71280,
            "time": 74.25,
            "velocity": 0.48031496062992124
          },
          {
            "duration": 0.22604166666666003,
            "durationTicks": 217,
            "midi": 34,
            "name": "A#1",
            "ticks": 71520,
            "time": 74.5,
            "velocity": 0.4566929133858268
          },
          {
            "duration": 0.45104166666666856,
            "durationTicks": 433,
            "midi": 39,
            "name": "D#2",
            "ticks": 71760,
            "time": 74.75,
            "velocity": 0.49606299212598426
          },
          {
            "duration": 0.22604166666666003,
            "durationTicks": 217,
            "midi": 36,
            "name": "C2",
            "ticks": 74880,
            "time": 78,
            "velocity": 0.4566929133858268
          },
          {
            "duration": 0.22604166666666003,
            "durationTicks": 217,
            "midi": 36,
            "name": "C2",
            "ticks": 75120,
            "time": 78.25,
            "velocity": 0.4881889763779528
          },
          {
            "duration": 0.22604166666666003,
            "durationTicks": 217,
            "midi": 36,
            "name": "C2",
            "ticks": 75360,
            "time": 78.5,
            "velocity": 0.49606299212598426
          },
          {
            "duration": 0.45104166666666856,
            "durationTicks": 433,
            "midi": 41,
            "name": "F2",
            "ticks": 75600,
            "time": 78.75,
            "velocity": 0.5275590551181102
          },
          {
            "duration": 0.22604166666666003,
            "durationTicks": 217,
            "midi": 39,
            "name": "D#2",
            "ticks": 78720,
            "time": 82,
            "velocity": 0.44881889763779526
          },
          {
            "duration": 0.22604166666666003,
            "durationTicks": 217,
            "midi": 39,
            "name": "D#2",
            "ticks": 78960,
            "time": 82.25,
            "velocity": 0.4566929133858268
          },
          {
            "duration": 0.22604166666666003,
            "durationTicks": 217,
            "midi": 39,
            "name": "D#2",
            "ticks": 79200,
            "time": 82.5,
            "velocity": 0.4645669291338583
          },
          {
            "duration": 0.45104166666666856,
            "durationTicks": 433,
            "midi": 44,
            "name": "G#2",
            "ticks": 79440,
            "time": 82.75,
            "velocity": 0.5196850393700787
          },
          {
            "duration": 0.22604166666666003,
            "durationTicks": 217,
            "midi": 45,
            "name": "A2",
            "ticks": 81600,
            "time": 85,
            "velocity": 0.41732283464566927
          },
          {
            "duration": 0.22604166666666003,
            "durationTicks": 217,
            "midi": 45,
            "name": "A2",
            "ticks": 81840,
            "time": 85.25,
            "velocity": 0.4645669291338583
          },
          {
            "duration": 0.22604166666666003,
            "durationTicks": 217,
            "midi": 45,
            "name": "A2",
            "ticks": 82080,
            "time": 85.5,
            "velocity": 0.49606299212598426
          },
          {
            "duration": 0.45104166666666856,
            "durationTicks": 433,
            "midi": 45,
            "name": "A2",
            "ticks": 82320,
            "time": 85.75,
            "velocity": 0.47244094488188976
          },
          {
            "duration": 0.22604166666666003,
            "durationTicks": 217,
            "midi": 46,
            "name": "A#2",
            "ticks": 83520,
            "time": 87,
            "velocity": 0.47244094488188976
          },
          {
            "duration": 0.22604166666666003,
            "durationTicks": 217,
            "midi": 46,
            "name": "A#2",
            "ticks": 83760,
            "time": 87.25,
            "velocity": 0.5196850393700787
          },
          {
            "duration": 0.22604166666666003,
            "durationTicks": 217,
            "midi": 46,
            "name": "A#2",
            "ticks": 84000,
            "time": 87.5,
            "velocity": 0.5590551181102362
          },
          {
            "duration": 0.45104166666666856,
            "durationTicks": 433,
            "midi": 46,
            "name": "A#2",
            "ticks": 84240,
            "time": 87.75,
            "velocity": 0.5748031496062992
          },
          {
            "duration": 0.22604166666666003,
            "durationTicks": 217,
            "midi": 47,
            "name": "B2",
            "ticks": 85440,
            "time": 89,
            "velocity": 0.5905511811023622
          },
          {
            "duration": 0.22604166666666003,
            "durationTicks": 217,
            "midi": 47,
            "name": "B2",
            "ticks": 85680,
            "time": 89.25,
            "velocity": 0.6220472440944882
          },
          {
            "duration": 0.22604166666666003,
            "durationTicks": 217,
            "midi": 47,
            "name": "B2",
            "ticks": 85920,
            "time": 89.5,
            "velocity": 0.6850393700787402
          },
          {
            "duration": 0.45104166666666856,
            "durationTicks": 433,
            "midi": 47,
            "name": "B2",
            "ticks": 86160,
            "time": 89.75,
            "velocity": 0.6771653543307087
          },
          {
            "duration": 0.22604166666666003,
            "durationTicks": 217,
            "midi": 48,
            "name": "C3",
            "ticks": 87360,
            "time": 91,
            "velocity": 0.5905511811023622
          },
          {
            "duration": 0.22604166666666003,
            "durationTicks": 217,
            "midi": 48,
            "name": "C3",
            "ticks": 87600,
            "time": 91.25,
            "velocity": 0.6456692913385826
          },
          {
            "duration": 0.22604166666666003,
            "durationTicks": 217,
            "midi": 48,
            "name": "C3",
            "ticks": 87840,
            "time": 91.5,
            "velocity": 0.6614173228346457
          },
          {
            "duration": 0.45104166666666856,
            "durationTicks": 433,
            "midi": 48,
            "name": "C3",
            "ticks": 88080,
            "time": 91.75,
            "velocity": 0.6614173228346457
          },
          {
            "duration": 0.22604166666666003,
            "durationTicks": 217,
            "midi": 48,
            "name": "C3",
            "ticks": 89280,
            "time": 93,
            "velocity": 0.5826771653543307
          },
          {
            "duration": 0.22604166666666003,
            "durationTicks": 217,
            "midi": 48,
            "name": "C3",
            "ticks": 89520,
            "time": 93.25,
            "velocity": 0.7716535433070866
          },
          {
            "duration": 0.22604166666666003,
            "durationTicks": 217,
            "midi": 48,
            "name": "C3",
            "ticks": 89760,
            "time": 93.5,
            "velocity": 0.7480314960629921
          },
          {
            "duration": 0.45104166666666856,
            "durationTicks": 433,
            "midi": 48,
            "name": "C3",
            "ticks": 90000,
            "time": 93.75,
            "velocity": 0.7637795275590551
          },
          {
            "duration": 0.22604166666666003,
            "durationTicks": 217,
            "midi": 48,
            "name": "C3",
            "ticks": 90480,
            "time": 94.25,
            "velocity": 0.7795275590551181
          },
          {
            "duration": 0.22604166666666003,
            "durationTicks": 217,
            "midi": 48,
            "name": "C3",
            "ticks": 90720,
            "time": 94.5,
            "velocity": 0.7952755905511811
          },
          {
            "duration": 1.4510416666666686,
            "durationTicks": 1393,
            "midi": 50,
            "name": "D3",
            "ticks": 90960,
            "time": 94.75,
            "velocity": 0.905511811023622
          },
          {
            "duration": 0.45104166666666856,
            "durationTicks": 433,
            "midi": 38,
            "name": "D2",
            "ticks": 92400,
            "time": 96.25,
            "velocity": 0.7874015748031497
          },
          {
            "duration": 0.45104166666666856,
            "durationTicks": 433,
            "midi": 39,
            "name": "D#2",
            "ticks": 92880,
            "time": 96.75,
            "velocity": 0.8976377952755905
          },
          {
            "duration": 0.45104166666666856,
            "durationTicks": 433,
            "midi": 41,
            "name": "F2",
            "ticks": 93840,
            "time": 97.75,
            "velocity": 0.8031496062992126
          },
          {
            "duration": 0.45104166666666856,
            "durationTicks": 433,
            "midi": 43,
            "name": "G2",
            "ticks": 94800,
            "time": 98.75,
            "velocity": 0.84251968503937
          },
          {
            "duration": 0.45104166666666856,
            "durationTicks": 433,
            "midi": 44,
            "name": "G#2",
            "ticks": 95760,
            "time": 99.75,
            "velocity": 0.8031496062992126
          },
          {
            "duration": 0.45104166666666856,
            "durationTicks": 433,
            "midi": 46,
            "name": "A#2",
            "ticks": 96720,
            "time": 100.75,
            "velocity": 0.8110236220472441
          },
          {
            "duration": 0.45104166666666856,
            "durationTicks": 433,
            "midi": 34,
            "name": "A#1",
            "ticks": 97680,
            "time": 101.75,
            "velocity": 0.8031496062992126
          },
          {
            "duration": 0.45104166666666856,
            "durationTicks": 433,
            "midi": 38,
            "name": "D2",
            "ticks": 98640,
            "time": 102.75,
            "velocity": 0.7874015748031497
          },
          {
            "duration": 0.45104166666666856,
            "durationTicks": 433,
            "midi": 41,
            "name": "F2",
            "ticks": 99120,
            "time": 103.25,
            "velocity": 0.9291338582677166
          },
          {
            "duration": 0.45104166666666856,
            "durationTicks": 433,
            "midi": 38,
            "name": "D2",
            "ticks": 99600,
            "time": 103.75,
            "velocity": 0.8267716535433071
          },
          {
            "duration": 0.45104166666666856,
            "durationTicks": 433,
            "midi": 41,
            "name": "F2",
            "ticks": 100080,
            "time": 104.25,
            "velocity": 0.937007874015748
          },
          {
            "duration": 0.45104166666666856,
            "durationTicks": 433,
            "midi": 39,
            "name": "D#2",
            "ticks": 100560,
            "time": 104.75,
            "velocity": 0.8661417322834646
          },
          {
            "duration": 0.45104166666666856,
            "durationTicks": 433,
            "midi": 43,
            "name": "G2",
            "ticks": 101040,
            "time": 105.25,
            "velocity": 0.9606299212598425
          },
          {
            "duration": 0.45104166666666856,
            "durationTicks": 433,
            "midi": 41,
            "name": "F2",
            "ticks": 101520,
            "time": 105.75,
            "velocity": 0.8818897637795275
          },
          {
            "duration": 0.45104166666666856,
            "durationTicks": 433,
            "midi": 44,
            "name": "G#2",
            "ticks": 102000,
            "time": 106.25,
            "velocity": 0.9212598425196851
          },
          {
            "duration": 0.45104166666666856,
            "durationTicks": 433,
            "midi": 43,
            "name": "G2",
            "ticks": 102480,
            "time": 106.75,
            "velocity": 0.8503937007874016
          },
          {
            "duration": 0.45104166666666856,
            "durationTicks": 433,
            "midi": 46,
            "name": "A#2",
            "ticks": 102960,
            "time": 107.25,
            "velocity": 0.9291338582677166
          },
          {
            "duration": 0.45104166666666856,
            "durationTicks": 433,
            "midi": 44,
            "name": "G#2",
            "ticks": 103440,
            "time": 107.75,
            "velocity": 0.8503937007874016
          },
          {
            "duration": 0.45104166666666856,
            "durationTicks": 433,
            "midi": 48,
            "name": "C3",
            "ticks": 103920,
            "time": 108.25,
            "velocity": 0.9921259842519685
          },
          {
            "duration": 0.45104166666666856,
            "durationTicks": 433,
            "midi": 46,
            "name": "A#2",
            "ticks": 104400,
            "time": 108.75,
            "velocity": 0.8740157480314961
          },
          {
            "duration": 0.45104166666666856,
            "durationTicks": 433,
            "midi": 34,
            "name": "A#1",
            "ticks": 104880,
            "time": 109.25,
            "velocity": 0.7716535433070866
          },
          {
            "duration": 0.45104166666666856,
            "durationTicks": 433,
            "midi": 46,
            "name": "A#2",
            "ticks": 105360,
            "time": 109.75,
            "velocity": 0.984251968503937
          },
          {
            "duration": 0.45104166666666856,
            "durationTicks": 433,
            "midi": 34,
            "name": "A#1",
            "ticks": 105840,
            "time": 110.25,
            "velocity": 0.7716535433070866
          },
          {
            "duration": 3.22604166666666,
            "durationTicks": 3097,
            "midi": 39,
            "name": "D#2",
            "ticks": 106320,
            "time": 110.75,
            "velocity": 0.9212598425196851
          },
          {
            "duration": 0.22604166666666003,
            "durationTicks": 217,
            "midi": 34,
            "name": "A#1",
            "ticks": 109440,
            "time": 114,
            "velocity": 0.8267716535433071
          },
          {
            "duration": 0.22604166666666003,
            "durationTicks": 217,
            "midi": 34,
            "name": "A#1",
            "ticks": 109680,
            "time": 114.25,
            "velocity": 0.8582677165354331
          },
          {
            "duration": 0.22604166666666003,
            "durationTicks": 217,
            "midi": 34,
            "name": "A#1",
            "ticks": 109920,
            "time": 114.5,
            "velocity": 0.9212598425196851
          },
          {
            "duration": 3.22604166666666,
            "durationTicks": 3097,
            "midi": 39,
            "name": "D#2",
            "ticks": 110160,
            "time": 114.75,
            "velocity": 0.9212598425196851
          },
          {
            "duration": 0.22604166666666003,
            "durationTicks": 217,
            "midi": 34,
            "name": "A#1",
            "ticks": 113280,
            "time": 118,
            "velocity": 0.8188976377952756
          },
          {
            "duration": 0.22604166666666003,
            "durationTicks": 217,
            "midi": 34,
            "name": "A#1",
            "ticks": 113520,
            "time": 118.25,
            "velocity": 0.889763779527559
          },
          {
            "duration": 0.22604166666666003,
            "durationTicks": 217,
            "midi": 34,
            "name": "A#1",
            "ticks": 113760,
            "time": 118.5,
            "velocity": 0.9133858267716536
          },
          {
            "duration": 0.45104166666666856,
            "durationTicks": 433,
            "midi": 39,
            "name": "D#2",
            "ticks": 114000,
            "time": 118.75,
            "velocity": 0.968503937007874
          },
          {
            "duration": 0.22604166666666003,
            "durationTicks": 217,
            "midi": 34,
            "name": "A#1",
            "ticks": 115200,
            "time": 120,
            "velocity": 0.7874015748031497
          },
          {
            "duration": 0.22604166666666003,
            "durationTicks": 217,
            "midi": 34,
            "name": "A#1",
            "ticks": 115440,
            "time": 120.25,
            "velocity": 0.8503937007874016
          },
          {
            "duration": 0.22604166666666003,
            "durationTicks": 217,
            "midi": 34,
            "name": "A#1",
            "ticks": 115680,
            "time": 120.5,
            "velocity": 0.905511811023622
          },
          {
            "duration": 0.45104166666666856,
            "durationTicks": 433,
            "midi": 39,
            "name": "D#2",
            "ticks": 115920,
            "time": 120.75,
            "velocity": 0.9448818897637795
          },
          {
            "duration": 0.22604166666666003,
            "durationTicks": 217,
            "midi": 34,
            "name": "A#1",
            "ticks": 117120,
            "time": 122,
            "velocity": 0.8110236220472441
          },
          {
            "duration": 0.22604166666666003,
            "durationTicks": 217,
            "midi": 34,
            "name": "A#1",
            "ticks": 117360,
            "time": 122.25,
            "velocity": 0.8661417322834646
          },
          {
            "duration": 0.22604166666666003,
            "durationTicks": 217,
            "midi": 34,
            "name": "A#1",
            "ticks": 117600,
            "time": 122.5,
            "velocity": 0.9448818897637795
          },
          {
            "duration": 0.45104166666666856,
            "durationTicks": 433,
            "midi": 39,
            "name": "D#2",
            "ticks": 117840,
            "time": 122.75,
            "velocity": 0.9133858267716536
          },
          {
            "duration": 0.22604166666666003,
            "durationTicks": 217,
            "midi": 43,
            "name": "G2",
            "ticks": 120960,
            "time": 126,
            "velocity": 0.7716535433070866
          },
          {
            "duration": 0.22604166666666003,
            "durationTicks": 217,
            "midi": 43,
            "name": "G2",
            "ticks": 121200,
            "time": 126.25,
            "velocity": 0.8346456692913385
          },
          {
            "duration": 0.22604166666666003,
            "durationTicks": 217,
            "midi": 43,
            "name": "G2",
            "ticks": 121440,
            "time": 126.5,
            "velocity": 0.8740157480314961
          },
          {
            "duration": 1.5,
            "durationTicks": 1440,
            "midi": 39,
            "name": "D#2",
            "ticks": 121680,
            "time": 126.75,
            "velocity": 0.8110236220472441
          },
          {
            "duration": 0.22604166666667425,
            "durationTicks": 217,
            "midi": 41,
            "name": "F2",
            "ticks": 123360,
            "time": 128.5,
            "velocity": 0.7952755905511811
          },
          {
            "duration": 0.22604166666667425,
            "durationTicks": 217,
            "midi": 41,
            "name": "F2",
            "ticks": 123600,
            "time": 128.75,
            "velocity": 0.889763779527559
          },
          {
            "duration": 0.22604166666667425,
            "durationTicks": 217,
            "midi": 41,
            "name": "F2",
            "ticks": 123840,
            "time": 129,
            "velocity": 0.8503937007874016
          },
          {
            "duration": 2.5,
            "durationTicks": 2400,
            "midi": 38,
            "name": "D2",
            "ticks": 124080,
            "time": 129.25,
            "velocity": 0.8661417322834646
          },
          {
            "duration": 0.22604166666667425,
            "durationTicks": 217,
            "midi": 35,
            "name": "B1",
            "ticks": 138240,
            "time": 144,
            "velocity": 0.41732283464566927
          },
          {
            "duration": 0.22604166666667425,
            "durationTicks": 217,
            "midi": 35,
            "name": "B1",
            "ticks": 138480,
            "time": 144.25,
            "velocity": 0.5196850393700787
          },
          {
            "duration": 0.22604166666667425,
            "durationTicks": 217,
            "midi": 35,
            "name": "B1",
            "ticks": 138720,
            "time": 144.5,
            "velocity": 0.6299212598425197
          },
          {
            "duration": 0.45104166666666856,
            "durationTicks": 433,
            "midi": 36,
            "name": "C2",
            "ticks": 138960,
            "time": 144.75,
            "velocity": 0.7559055118110236
          },
          {
            "duration": 0.45104166666666856,
            "durationTicks": 433,
            "midi": 32,
            "name": "G#1",
            "ticks": 139920,
            "time": 145.75,
            "velocity": 0.6771653543307087
          },
          {
            "duration": 0.45104166666666856,
            "durationTicks": 433,
            "midi": 31,
            "name": "G1",
            "ticks": 140880,
            "time": 146.75,
            "velocity": 0.7244094488188977
          },
          {
            "duration": 0.22604166666667425,
            "durationTicks": 217,
            "midi": 32,
            "name": "G#1",
            "ticks": 142320,
            "time": 148.25,
            "velocity": 0.7244094488188977
          },
          {
            "duration": 0.22604166666667425,
            "durationTicks": 217,
            "midi": 32,
            "name": "G#1",
            "ticks": 142560,
            "time": 148.5,
            "velocity": 0.7480314960629921
          },
          {
            "duration": 0.22604166666667425,
            "durationTicks": 217,
            "midi": 32,
            "name": "G#1",
            "ticks": 142800,
            "time": 148.75,
            "velocity": 0.7637795275590551
          },
          {
            "duration": 2.5,
            "durationTicks": 2400,
            "midi": 29,
            "name": "F1",
            "ticks": 143040,
            "time": 149,
            "velocity": 0.7322834645669292
          },
          {
            "duration": 0.22604166666667425,
            "durationTicks": 217,
            "midi": 31,
            "name": "G1",
            "ticks": 148560,
            "time": 154.75,
            "velocity": 0.4251968503937008
          },
          {
            "duration": 0.22604166666667425,
            "durationTicks": 217,
            "midi": 31,
            "name": "G1",
            "ticks": 148800,
            "time": 155,
            "velocity": 0.44881889763779526
          },
          {
            "duration": 0.22604166666667425,
            "durationTicks": 217,
            "midi": 31,
            "name": "G1",
            "ticks": 149040,
            "time": 155.25,
            "velocity": 0.4881889763779528
          },
          {
            "duration": 0.45104166666666856,
            "durationTicks": 433,
            "midi": 36,
            "name": "C2",
            "ticks": 149280,
            "time": 155.5,
            "velocity": 0.4881889763779528
          },
          {
            "duration": 0.22604166666667425,
            "durationTicks": 217,
            "midi": 31,
            "name": "G1",
            "ticks": 152400,
            "time": 158.75,
            "velocity": 0.4409448818897638
          },
          {
            "duration": 0.22604166666667425,
            "durationTicks": 217,
            "midi": 31,
            "name": "G1",
            "ticks": 152640,
            "time": 159,
            "velocity": 0.5118110236220472
          },
          {
            "duration": 0.22604166666667425,
            "durationTicks": 217,
            "midi": 31,
            "name": "G1",
            "ticks": 152880,
            "time": 159.25,
            "velocity": 0.47244094488188976
          },
          {
            "duration": 0.45104166666666856,
            "durationTicks": 433,
            "midi": 36,
            "name": "C2",
            "ticks": 153120,
            "time": 159.5,
            "velocity": 0.5511811023622047
          },
          {
            "duration": 0.22604166666667425,
            "durationTicks": 217,
            "midi": 36,
            "name": "C2",
            "ticks": 154320,
            "time": 160.75,
            "velocity": 0.4330708661417323
          },
          {
            "duration": 0.22604166666667425,
            "durationTicks": 217,
            "midi": 36,
            "name": "C2",
            "ticks": 154560,
            "time": 161,
            "velocity": 0.47244094488188976
          },
          {
            "duration": 0.22604166666667425,
            "durationTicks": 217,
            "midi": 36,
            "name": "C2",
            "ticks": 154800,
            "time": 161.25,
            "velocity": 0.5196850393700787
          },
          {
            "duration": 0.45104166666666856,
            "durationTicks": 433,
            "midi": 36,
            "name": "C2",
            "ticks": 155040,
            "time": 161.5,
            "velocity": 0.4881889763779528
          },
          {
            "duration": 0.22604166666667425,
            "durationTicks": 217,
            "midi": 36,
            "name": "C2",
            "ticks": 156240,
            "time": 162.75,
            "velocity": 0.5196850393700787
          },
          {
            "duration": 0.22604166666667425,
            "durationTicks": 217,
            "midi": 36,
            "name": "C2",
            "ticks": 156480,
            "time": 163,
            "velocity": 0.5039370078740157
          },
          {
            "duration": 0.22604166666667425,
            "durationTicks": 217,
            "midi": 36,
            "name": "C2",
            "ticks": 156720,
            "time": 163.25,
            "velocity": 0.5275590551181102
          },
          {
            "duration": 0.45104166666666856,
            "durationTicks": 433,
            "midi": 36,
            "name": "C2",
            "ticks": 156960,
            "time": 163.5,
            "velocity": 0.5354330708661418
          },
          {
            "duration": 0.45104166666666856,
            "durationTicks": 433,
            "midi": 36,
            "name": "C2",
            "ticks": 157920,
            "time": 164.5,
            "velocity": 0.5748031496062992
          },
          {
            "duration": 0.45104166666666856,
            "durationTicks": 433,
            "midi": 36,
            "name": "C2",
            "ticks": 158880,
            "time": 165.5,
            "velocity": 0.6299212598425197
          },
          {
            "duration": 0.45104166666666856,
            "durationTicks": 433,
            "midi": 36,
            "name": "C2",
            "ticks": 159840,
            "time": 166.5,
            "velocity": 0.6850393700787402
          },
          {
            "duration": 0.45104166666666856,
            "durationTicks": 433,
            "midi": 36,
            "name": "C2",
            "ticks": 160800,
            "time": 167.5,
            "velocity": 0.7007874015748031
          },
          {
            "duration": 0.45104166666666856,
            "durationTicks": 433,
            "midi": 36,
            "name": "C2",
            "ticks": 161760,
            "time": 168.5,
            "velocity": 0.7322834645669292
          },
          {
            "duration": 0.45104166666666856,
            "durationTicks": 433,
            "midi": 36,
            "name": "C2",
            "ticks": 162720,
            "time": 169.5,
            "velocity": 0.7244094488188977
          },
          {
            "duration": 3.2260416666666742,
            "durationTicks": 3097,
            "midi": 36,
            "name": "C2",
            "ticks": 163680,
            "time": 170.5,
            "velocity": 0.7007874015748031
          },
          {
            "duration": 0.22604166666667425,
            "durationTicks": 217,
            "midi": 36,
            "name": "C2",
            "ticks": 166800,
            "time": 173.75,
            "velocity": 0.7480314960629921
          },
          {
            "duration": 0.22604166666667425,
            "durationTicks": 217,
            "midi": 36,
            "name": "C2",
            "ticks": 167040,
            "time": 174,
            "velocity": 0.7559055118110236
          },
          {
            "duration": 0.22604166666667425,
            "durationTicks": 217,
            "midi": 36,
            "name": "C2",
            "ticks": 167280,
            "time": 174.25,
            "velocity": 0.7165354330708661
          },
          {
            "duration": 3.2260416666666742,
            "durationTicks": 3097,
            "midi": 31,
            "name": "G1",
            "ticks": 167520,
            "time": 174.5,
            "velocity": 0.7322834645669292
          },
          {
            "duration": 0.22604166666667425,
            "durationTicks": 217,
            "midi": 31,
            "name": "G1",
            "ticks": 170640,
            "time": 177.75,
            "velocity": 0.7795275590551181
          },
          {
            "duration": 0.22604166666667425,
            "durationTicks": 217,
            "midi": 36,
            "name": "C2",
            "ticks": 170880,
            "time": 178,
            "velocity": 0.8031496062992126
          },
          {
            "duration": 0.22604166666667425,
            "durationTicks": 217,
            "midi": 36,
            "name": "C2",
            "ticks": 171120,
            "time": 178.25,
            "velocity": 0.7795275590551181
          },
          {
            "duration": 0.22604166666667425,
            "durationTicks": 217,
            "midi": 36,
            "name": "C2",
            "ticks": 171360,
            "time": 178.5,
            "velocity": 0.9448818897637795
          },
          {
            "duration": 0.22604166666667425,
            "durationTicks": 217,
            "midi": 36,
            "name": "C2",
            "ticks": 171600,
            "time": 178.75,
            "velocity": 0.8818897637795275
          },
          {
            "duration": 0.22604166666667425,
            "durationTicks": 217,
            "midi": 36,
            "name": "C2",
            "ticks": 171840,
            "time": 179,
            "velocity": 0.905511811023622
          },
          {
            "duration": 0.22604166666667425,
            "durationTicks": 217,
            "midi": 36,
            "name": "C2",
            "ticks": 172080,
            "time": 179.25,
            "velocity": 0.84251968503937
          },
          {
            "duration": 0.22604166666667425,
            "durationTicks": 217,
            "midi": 36,
            "name": "C2",
            "ticks": 172320,
            "time": 179.5,
            "velocity": 0.8740157480314961
          },
          {
            "duration": 0.22604166666667425,
            "durationTicks": 217,
            "midi": 36,
            "name": "C2",
            "ticks": 172560,
            "time": 179.75,
            "velocity": 0.8818897637795275
          },
          {
            "duration": 0.22604166666667425,
            "durationTicks": 217,
            "midi": 36,
            "name": "C2",
            "ticks": 172800,
            "time": 180,
            "velocity": 0.8661417322834646
          },
          {
            "duration": 0.22604166666667425,
            "durationTicks": 217,
            "midi": 36,
            "name": "C2",
            "ticks": 173040,
            "time": 180.25,
            "velocity": 0.8818897637795275
          },
          {
            "duration": 0.22604166666667425,
            "durationTicks": 217,
            "midi": 36,
            "name": "C2",
            "ticks": 173280,
            "time": 180.5,
            "velocity": 0.8818897637795275
          },
          {
            "duration": 0.22604166666667425,
            "durationTicks": 217,
            "midi": 36,
            "name": "C2",
            "ticks": 173520,
            "time": 180.75,
            "velocity": 0.889763779527559
          },
          {
            "duration": 0.22604166666667425,
            "durationTicks": 217,
            "midi": 36,
            "name": "C2",
            "ticks": 173760,
            "time": 181,
            "velocity": 0.8818897637795275
          },
          {
            "duration": 0.22604166666667425,
            "durationTicks": 217,
            "midi": 36,
            "name": "C2",
            "ticks": 174000,
            "time": 181.25,
            "velocity": 0.889763779527559
          },
          {
            "duration": 0.22604166666667425,
            "durationTicks": 217,
            "midi": 36,
            "name": "C2",
            "ticks": 174240,
            "time": 181.5,
            "velocity": 0.9212598425196851
          },
          {
            "duration": 0.22604166666667425,
            "durationTicks": 217,
            "midi": 36,
            "name": "C2",
            "ticks": 174480,
            "time": 181.75,
            "velocity": 0.8740157480314961
          },
          {
            "duration": 0.22604166666667425,
            "durationTicks": 217,
            "midi": 36,
            "name": "C2",
            "ticks": 174720,
            "time": 182,
            "velocity": 0.8818897637795275
          },
          {
            "duration": 0.22604166666667425,
            "durationTicks": 217,
            "midi": 36,
            "name": "C2",
            "ticks": 174960,
            "time": 182.25,
            "velocity": 0.8976377952755905
          },
          {
            "duration": 0.45104166666666856,
            "durationTicks": 433,
            "midi": 36,
            "name": "C2",
            "ticks": 175200,
            "time": 182.5,
            "velocity": 0.9291338582677166
          },
          {
            "duration": 0.45104166666666856,
            "durationTicks": 433,
            "midi": 38,
            "name": "D2",
            "ticks": 177120,
            "time": 184.5,
            "velocity": 0.84251968503937
          },
          {
            "duration": 0.22604166666667425,
            "durationTicks": 217,
            "midi": 34,
            "name": "A#1",
            "ticks": 184080,
            "time": 191.75,
            "velocity": 0.4251968503937008
          },
          {
            "duration": 0.22604166666667425,
            "durationTicks": 217,
            "midi": 34,
            "name": "A#1",
            "ticks": 184320,
            "time": 192,
            "velocity": 0.4645669291338583
          },
          {
            "duration": 0.22604166666667425,
            "durationTicks": 217,
            "midi": 34,
            "name": "A#1",
            "ticks": 184560,
            "time": 192.25,
            "velocity": 0.5039370078740157
          },
          {
            "duration": 0.45104166666666856,
            "durationTicks": 433,
            "midi": 39,
            "name": "D#2",
            "ticks": 184800,
            "time": 192.5,
            "velocity": 0.49606299212598426
          },
          {
            "duration": 0.22604166666667425,
            "durationTicks": 217,
            "midi": 34,
            "name": "A#1",
            "ticks": 187920,
            "time": 195.75,
            "velocity": 0.3937007874015748
          },
          {
            "duration": 0.22604166666667425,
            "durationTicks": 217,
            "midi": 34,
            "name": "A#1",
            "ticks": 188160,
            "time": 196,
            "velocity": 0.5118110236220472
          },
          {
            "duration": 0.22604166666667425,
            "durationTicks": 217,
            "midi": 34,
            "name": "A#1",
            "ticks": 188400,
            "time": 196.25,
            "velocity": 0.4881889763779528
          },
          {
            "duration": 0.45104166666666856,
            "durationTicks": 433,
            "midi": 39,
            "name": "D#2",
            "ticks": 188640,
            "time": 196.5,
            "velocity": 0.5118110236220472
          },
          {
            "duration": 0.22604166666667425,
            "durationTicks": 217,
            "midi": 34,
            "name": "A#1",
            "ticks": 191760,
            "time": 199.75,
            "velocity": 0.41732283464566927
          },
          {
            "duration": 0.22604166666667425,
            "durationTicks": 217,
            "midi": 34,
            "name": "A#1",
            "ticks": 192000,
            "time": 200,
            "velocity": 0.4645669291338583
          },
          {
            "duration": 0.22604166666667425,
            "durationTicks": 217,
            "midi": 34,
            "name": "A#1",
            "ticks": 192240,
            "time": 200.25,
            "velocity": 0.4881889763779528
          },
          {
            "duration": 0.45104166666666856,
            "durationTicks": 433,
            "midi": 39,
            "name": "D#2",
            "ticks": 192480,
            "time": 200.5,
            "velocity": 0.5196850393700787
          },
          {
            "duration": 0.22604166666667425,
            "durationTicks": 217,
            "midi": 36,
            "name": "C2",
            "ticks": 195600,
            "time": 203.75,
            "velocity": 0.4409448818897638
          },
          {
            "duration": 0.22604166666667425,
            "durationTicks": 217,
            "midi": 36,
            "name": "C2",
            "ticks": 195840,
            "time": 204,
            "velocity": 0.47244094488188976
          },
          {
            "duration": 0.22604166666667425,
            "durationTicks": 217,
            "midi": 36,
            "name": "C2",
            "ticks": 196080,
            "time": 204.25,
            "velocity": 0.48031496062992124
          },
          {
            "duration": 0.45104166666666856,
            "durationTicks": 433,
            "midi": 41,
            "name": "F2",
            "ticks": 196320,
            "time": 204.5,
            "velocity": 0.5118110236220472
          },
          {
            "duration": 0.22604166666667425,
            "durationTicks": 217,
            "midi": 39,
            "name": "D#2",
            "ticks": 199440,
            "time": 207.75,
            "velocity": 0.4251968503937008
          },
          {
            "duration": 0.22604166666667425,
            "durationTicks": 217,
            "midi": 39,
            "name": "D#2",
            "ticks": 199680,
            "time": 208,
            "velocity": 0.48031496062992124
          },
          {
            "duration": 0.22604166666667425,
            "durationTicks": 217,
            "midi": 39,
            "name": "D#2",
            "ticks": 199920,
            "time": 208.25,
            "velocity": 0.47244094488188976
          },
          {
            "duration": 0.45104166666666856,
            "durationTicks": 433,
            "midi": 44,
            "name": "G#2",
            "ticks": 200160,
            "time": 208.5,
            "velocity": 0.5118110236220472
          },
          {
            "duration": 0.22604166666667425,
            "durationTicks": 217,
            "midi": 45,
            "name": "A2",
            "ticks": 202320,
            "time": 210.75,
            "velocity": 0.44881889763779526
          },
          {
            "duration": 0.22604166666667425,
            "durationTicks": 217,
            "midi": 45,
            "name": "A2",
            "ticks": 202560,
            "time": 211,
            "velocity": 0.4645669291338583
          },
          {
            "duration": 0.22604166666667425,
            "durationTicks": 217,
            "midi": 45,
            "name": "A2",
            "ticks": 202800,
            "time": 211.25,
            "velocity": 0.5039370078740157
          },
          {
            "duration": 0.45104166666666856,
            "durationTicks": 433,
            "midi": 45,
            "name": "A2",
            "ticks": 203040,
            "time": 211.5,
            "velocity": 0.4566929133858268
          },
          {
            "duration": 0.22604166666667425,
            "durationTicks": 217,
            "midi": 46,
            "name": "A#2",
            "ticks": 204240,
            "time": 212.75,
            "velocity": 0.5039370078740157
          },
          {
            "duration": 0.22604166666667425,
            "durationTicks": 217,
            "midi": 46,
            "name": "A#2",
            "ticks": 204480,
            "time": 213,
            "velocity": 0.5196850393700787
          },
          {
            "duration": 0.22604166666667425,
            "durationTicks": 217,
            "midi": 46,
            "name": "A#2",
            "ticks": 204720,
            "time": 213.25,
            "velocity": 0.5511811023622047
          },
          {
            "duration": 0.45104166666666856,
            "durationTicks": 433,
            "midi": 46,
            "name": "A#2",
            "ticks": 204960,
            "time": 213.5,
            "velocity": 0.5669291338582677
          },
          {
            "duration": 0.22604166666667425,
            "durationTicks": 217,
            "midi": 47,
            "name": "B2",
            "ticks": 206160,
            "time": 214.75,
            "velocity": 0.5984251968503937
          },
          {
            "duration": 0.22604166666667425,
            "durationTicks": 217,
            "midi": 47,
            "name": "B2",
            "ticks": 206400,
            "time": 215,
            "velocity": 0.6614173228346457
          },
          {
            "duration": 0.22604166666667425,
            "durationTicks": 217,
            "midi": 47,
            "name": "B2",
            "ticks": 206640,
            "time": 215.25,
            "velocity": 0.6535433070866141
          },
          {
            "duration": 0.45104166666666856,
            "durationTicks": 433,
            "midi": 47,
            "name": "B2",
            "ticks": 206880,
            "time": 215.5,
            "velocity": 0.6614173228346457
          },
          {
            "duration": 0.22604166666667425,
            "durationTicks": 217,
            "midi": 48,
            "name": "C3",
            "ticks": 208080,
            "time": 216.75,
            "velocity": 0.6062992125984252
          },
          {
            "duration": 0.22604166666667425,
            "durationTicks": 217,
            "midi": 48,
            "name": "C3",
            "ticks": 208320,
            "time": 217,
            "velocity": 0.6456692913385826
          },
          {
            "duration": 0.22604166666667425,
            "durationTicks": 217,
            "midi": 48,
            "name": "C3",
            "ticks": 208560,
            "time": 217.25,
            "velocity": 0.6614173228346457
          },
          {
            "duration": 0.45104166666666856,
            "durationTicks": 433,
            "midi": 48,
            "name": "C3",
            "ticks": 208800,
            "time": 217.5,
            "velocity": 0.6377952755905512
          },
          {
            "duration": 0.22604166666667425,
            "durationTicks": 217,
            "midi": 48,
            "name": "C3",
            "ticks": 210000,
            "time": 218.75,
            "velocity": 0.6220472440944882
          },
          {
            "duration": 0.22604166666667425,
            "durationTicks": 217,
            "midi": 48,
            "name": "C3",
            "ticks": 210240,
            "time": 219,
            "velocity": 0.7559055118110236
          },
          {
            "duration": 0.22604166666667425,
            "durationTicks": 217,
            "midi": 48,
            "name": "C3",
            "ticks": 210480,
            "time": 219.25,
            "velocity": 0.7716535433070866
          },
          {
            "duration": 0.45104166666666856,
            "durationTicks": 433,
            "midi": 48,
            "name": "C3",
            "ticks": 210720,
            "time": 219.5,
            "velocity": 0.7795275590551181
          },
          {
            "duration": 0.22604166666667425,
            "durationTicks": 217,
            "midi": 48,
            "name": "C3",
            "ticks": 211200,
            "time": 220,
            "velocity": 0.7795275590551181
          },
          {
            "duration": 0.22604166666667425,
            "durationTicks": 217,
            "midi": 48,
            "name": "C3",
            "ticks": 211440,
            "time": 220.25,
            "velocity": 0.7952755905511811
          },
          {
            "duration": 1.4510416666666686,
            "durationTicks": 1393,
            "midi": 50,
            "name": "D3",
            "ticks": 211680,
            "time": 220.5,
            "velocity": 0.952755905511811
          },
          {
            "duration": 0.45104166666666856,
            "durationTicks": 433,
            "midi": 38,
            "name": "D2",
            "ticks": 213120,
            "time": 222,
            "velocity": 0.7559055118110236
          },
          {
            "duration": 0.45104166666666856,
            "durationTicks": 433,
            "midi": 39,
            "name": "D#2",
            "ticks": 213600,
            "time": 222.5,
            "velocity": 0.8976377952755905
          },
          {
            "duration": 0.45104166666666856,
            "durationTicks": 433,
            "midi": 41,
            "name": "F2",
            "ticks": 214560,
            "time": 223.5,
            "velocity": 0.7795275590551181
          },
          {
            "duration": 0.45104166666666856,
            "durationTicks": 433,
            "midi": 43,
            "name": "G2",
            "ticks": 215520,
            "time": 224.5,
            "velocity": 0.8267716535433071
          },
          {
            "duration": 0.45104166666666856,
            "durationTicks": 433,
            "midi": 44,
            "name": "G#2",
            "ticks": 216480,
            "time": 225.5,
            "velocity": 0.8346456692913385
          },
          {
            "duration": 0.45104166666666856,
            "durationTicks": 433,
            "midi": 46,
            "name": "A#2",
            "ticks": 217440,
            "time": 226.5,
            "velocity": 0.7952755905511811
          },
          {
            "duration": 0.45104166666666856,
            "durationTicks": 433,
            "midi": 34,
            "name": "A#1",
            "ticks": 218400,
            "time": 227.5,
            "velocity": 0.7874015748031497
          },
          {
            "duration": 0.45104166666666856,
            "durationTicks": 433,
            "midi": 38,
            "name": "D2",
            "ticks": 219360,
            "time": 228.5,
            "velocity": 0.7637795275590551
          },
          {
            "duration": 0.45104166666666856,
            "durationTicks": 433,
            "midi": 41,
            "name": "F2",
            "ticks": 219840,
            "time": 229,
            "velocity": 0.905511811023622
          },
          {
            "duration": 0.45104166666666856,
            "durationTicks": 433,
            "midi": 38,
            "name": "D2",
            "ticks": 220320,
            "time": 229.5,
            "velocity": 0.8740157480314961
          },
          {
            "duration": 0.45104166666666856,
            "durationTicks": 433,
            "midi": 41,
            "name": "F2",
            "ticks": 220800,
            "time": 230,
            "velocity": 0.905511811023622
          },
          {
            "duration": 0.45104166666666856,
            "durationTicks": 433,
            "midi": 39,
            "name": "D#2",
            "ticks": 221280,
            "time": 230.5,
            "velocity": 0.8582677165354331
          },
          {
            "duration": 0.45104166666666856,
            "durationTicks": 433,
            "midi": 43,
            "name": "G2",
            "ticks": 221760,
            "time": 231,
            "velocity": 0.9448818897637795
          },
          {
            "duration": 0.45104166666666856,
            "durationTicks": 433,
            "midi": 41,
            "name": "F2",
            "ticks": 222240,
            "time": 231.5,
            "velocity": 0.8582677165354331
          },
          {
            "duration": 0.45104166666666856,
            "durationTicks": 433,
            "midi": 44,
            "name": "G#2",
            "ticks": 222720,
            "time": 232,
            "velocity": 0.952755905511811
          },
          {
            "duration": 0.45104166666666856,
            "durationTicks": 433,
            "midi": 43,
            "name": "G2",
            "ticks": 223200,
            "time": 232.5,
            "velocity": 0.8818897637795275
          },
          {
            "duration": 0.45104166666666856,
            "durationTicks": 433,
            "midi": 46,
            "name": "A#2",
            "ticks": 223680,
            "time": 233,
            "velocity": 0.952755905511811
          },
          {
            "duration": 0.45104166666666856,
            "durationTicks": 433,
            "midi": 44,
            "name": "G#2",
            "ticks": 224160,
            "time": 233.5,
            "velocity": 0.905511811023622
          },
          {
            "duration": 0.45104166666666856,
            "durationTicks": 433,
            "midi": 48,
            "name": "C3",
            "ticks": 224640,
            "time": 234,
            "velocity": 0.952755905511811
          },
          {
            "duration": 0.45104166666666856,
            "durationTicks": 433,
            "midi": 46,
            "name": "A#2",
            "ticks": 225120,
            "time": 234.5,
            "velocity": 0.8582677165354331
          },
          {
            "duration": 0.45104166666666856,
            "durationTicks": 433,
            "midi": 34,
            "name": "A#1",
            "ticks": 225600,
            "time": 235,
            "velocity": 0.7795275590551181
          },
          {
            "duration": 0.45104166666666856,
            "durationTicks": 433,
            "midi": 46,
            "name": "A#2",
            "ticks": 226080,
            "time": 235.5,
            "velocity": 0.984251968503937
          },
          {
            "duration": 0.45104166666666856,
            "durationTicks": 433,
            "midi": 34,
            "name": "A#1",
            "ticks": 226560,
            "time": 236,
            "velocity": 0.8031496062992126
          },
          {
            "duration": 3.2260416666666742,
            "durationTicks": 3097,
            "midi": 39,
            "name": "D#2",
            "ticks": 227040,
            "time": 236.5,
            "velocity": 0.9291338582677166
          },
          {
            "duration": 0.22604166666667425,
            "durationTicks": 217,
            "midi": 34,
            "name": "A#1",
            "ticks": 230160,
            "time": 239.75,
            "velocity": 0.8267716535433071
          },
          {
            "duration": 0.22604166666667425,
            "durationTicks": 217,
            "midi": 34,
            "name": "A#1",
            "ticks": 230400,
            "time": 240,
            "velocity": 0.8818897637795275
          },
          {
            "duration": 0.22604166666667425,
            "durationTicks": 217,
            "midi": 34,
            "name": "A#1",
            "ticks": 230640,
            "time": 240.25,
            "velocity": 0.889763779527559
          },
          {
            "duration": 3.2260416666666742,
            "durationTicks": 3097,
            "midi": 39,
            "name": "D#2",
            "ticks": 230880,
            "time": 240.5,
            "velocity": 0.937007874015748
          },
          {
            "duration": 0.22604166666667425,
            "durationTicks": 217,
            "midi": 34,
            "name": "A#1",
            "ticks": 234000,
            "time": 243.75,
            "velocity": 0.8188976377952756
          },
          {
            "duration": 0.22604166666667425,
            "durationTicks": 217,
            "midi": 34,
            "name": "A#1",
            "ticks": 234240,
            "time": 244,
            "velocity": 0.905511811023622
          },
          {
            "duration": 0.22604166666667425,
            "durationTicks": 217,
            "midi": 34,
            "name": "A#1",
            "ticks": 234480,
            "time": 244.25,
            "velocity": 0.9133858267716536
          },
          {
            "duration": 0.45104166666666856,
            "durationTicks": 433,
            "midi": 39,
            "name": "D#2",
            "ticks": 234720,
            "time": 244.5,
            "velocity": 0.968503937007874
          },
          {
            "duration": 0.22604166666667425,
            "durationTicks": 217,
            "midi": 34,
            "name": "A#1",
            "ticks": 235920,
            "time": 245.75,
            "velocity": 0.8267716535433071
          },
          {
            "duration": 0.22604166666667425,
            "durationTicks": 217,
            "midi": 34,
            "name": "A#1",
            "ticks": 236160,
            "time": 246,
            "velocity": 0.8661417322834646
          },
          {
            "duration": 0.22604166666667425,
            "durationTicks": 217,
            "midi": 34,
            "name": "A#1",
            "ticks": 236400,
            "time": 246.25,
            "velocity": 0.8976377952755905
          },
          {
            "duration": 0.45104166666666856,
            "durationTicks": 433,
            "midi": 39,
            "name": "D#2",
            "ticks": 236640,
            "time": 246.5,
            "velocity": 0.9448818897637795
          },
          {
            "duration": 0.22604166666667425,
            "durationTicks": 217,
            "midi": 34,
            "name": "A#1",
            "ticks": 237840,
            "time": 247.75,
            "velocity": 0.7874015748031497
          },
          {
            "duration": 0.22604166666667425,
            "durationTicks": 217,
            "midi": 34,
            "name": "A#1",
            "ticks": 238080,
            "time": 248,
            "velocity": 0.8661417322834646
          },
          {
            "duration": 0.22604166666667425,
            "durationTicks": 217,
            "midi": 34,
            "name": "A#1",
            "ticks": 238320,
            "time": 248.25,
            "velocity": 0.905511811023622
          },
          {
            "duration": 0.45104166666666856,
            "durationTicks": 433,
            "midi": 39,
            "name": "D#2",
            "ticks": 238560,
            "time": 248.5,
            "velocity": 0.9606299212598425
          },
          {
            "duration": 0.22604166666667425,
            "durationTicks": 217,
            "midi": 37,
            "name": "C#2",
            "ticks": 242640,
            "time": 252.75,
            "velocity": 0.7952755905511811
          },
          {
            "duration": 0.22604166666667425,
            "durationTicks": 217,
            "midi": 37,
            "name": "C#2",
            "ticks": 242880,
            "time": 253,
            "velocity": 0.8818897637795275
          },
          {
            "duration": 0.22604166666667425,
            "durationTicks": 217,
            "midi": 37,
            "name": "C#2",
            "ticks": 243120,
            "time": 253.25,
            "velocity": 0.8818897637795275
          },
          {
            "duration": 2.5,
            "durationTicks": 2400,
            "midi": 36,
            "name": "C2",
            "ticks": 243360,
            "time": 253.5,
            "velocity": 0.8976377952755905
          },
          {
            "duration": 1,
            "durationTicks": 960,
            "midi": 31,
            "name": "G1",
            "ticks": 273600,
            "time": 285,
            "velocity": 0.4409448818897638
          },
          {
            "duration": 0.23645833333335986,
            "durationTicks": 227,
            "midi": 31,
            "name": "G1",
            "ticks": 274560,
            "time": 286,
            "velocity": 0.48031496062992124
          },
          {
            "duration": 0.22604166666667425,
            "durationTicks": 217,
            "midi": 31,
            "name": "G1",
            "ticks": 274800,
            "time": 286.25,
            "velocity": 0.47244094488188976
          },
          {
            "duration": 0.22604166666667425,
            "durationTicks": 217,
            "midi": 31,
            "name": "G1",
            "ticks": 275040,
            "time": 286.5,
            "velocity": 0.4330708661417323
          },
          {
            "duration": 0.22604166666667425,
            "durationTicks": 217,
            "midi": 31,
            "name": "G1",
            "ticks": 275280,
            "time": 286.75,
            "velocity": 0.4566929133858268
          },
          {
            "duration": 1.2260416666666742,
            "durationTicks": 1177,
            "midi": 33,
            "name": "A1",
            "ticks": 275520,
            "time": 287,
            "velocity": 0.5118110236220472
          },
          {
            "duration": 0.22604166666667425,
            "durationTicks": 217,
            "midi": 33,
            "name": "A1",
            "ticks": 276720,
            "time": 288.25,
            "velocity": 0.49606299212598426
          },
          {
            "duration": 0.22604166666667425,
            "durationTicks": 217,
            "midi": 33,
            "name": "A1",
            "ticks": 276960,
            "time": 288.5,
            "velocity": 0.5275590551181102
          },
          {
            "duration": 0.22604166666667425,
            "durationTicks": 217,
            "midi": 33,
            "name": "A1",
            "ticks": 277200,
            "time": 288.75,
            "velocity": 0.4881889763779528
          },
          {
            "duration": 1.2260416666666742,
            "durationTicks": 1177,
            "midi": 33,
            "name": "A1",
            "ticks": 277440,
            "time": 289,
            "velocity": 0.4645669291338583
          },
          {
            "duration": 0.22604166666667425,
            "durationTicks": 217,
            "midi": 33,
            "name": "A1",
            "ticks": 278640,
            "time": 290.25,
            "velocity": 0.49606299212598426
          },
          {
            "duration": 0.22604166666667425,
            "durationTicks": 217,
            "midi": 33,
            "name": "A1",
            "ticks": 278880,
            "time": 290.5,
            "velocity": 0.4566929133858268
          },
          {
            "duration": 0.22604166666667425,
            "durationTicks": 217,
            "midi": 33,
            "name": "A1",
            "ticks": 279120,
            "time": 290.75,
            "velocity": 0.49606299212598426
          },
          {
            "duration": 1.2260416666666742,
            "durationTicks": 1177,
            "midi": 34,
            "name": "A#1",
            "ticks": 279360,
            "time": 291,
            "velocity": 0.48031496062992124
          },
          {
            "duration": 0.22604166666667425,
            "durationTicks": 217,
            "midi": 34,
            "name": "A#1",
            "ticks": 280560,
            "time": 292.25,
            "velocity": 0.47244094488188976
          },
          {
            "duration": 0.22604166666667425,
            "durationTicks": 217,
            "midi": 34,
            "name": "A#1",
            "ticks": 280800,
            "time": 292.5,
            "velocity": 0.4645669291338583
          },
          {
            "duration": 0.22604166666667425,
            "durationTicks": 217,
            "midi": 34,
            "name": "A#1",
            "ticks": 281040,
            "time": 292.75,
            "velocity": 0.4566929133858268
          },
          {
            "duration": 1.2260416666666742,
            "durationTicks": 1177,
            "midi": 34,
            "name": "A#1",
            "ticks": 281280,
            "time": 293,
            "velocity": 0.49606299212598426
          },
          {
            "duration": 0.22604166666667425,
            "durationTicks": 217,
            "midi": 34,
            "name": "A#1",
            "ticks": 282480,
            "time": 294.25,
            "velocity": 0.5669291338582677
          },
          {
            "duration": 0.22604166666667425,
            "durationTicks": 217,
            "midi": 34,
            "name": "A#1",
            "ticks": 282720,
            "time": 294.5,
            "velocity": 0.6850393700787402
          },
          {
            "duration": 0.22604166666667425,
            "durationTicks": 217,
            "midi": 34,
            "name": "A#1",
            "ticks": 282960,
            "time": 294.75,
            "velocity": 0.6535433070866141
          },
          {
            "duration": 0.22604166666667425,
            "durationTicks": 217,
            "midi": 36,
            "name": "C2",
            "ticks": 283200,
            "time": 295,
            "velocity": 0.8031496062992126
          },
          {
            "duration": 0.22604166666667425,
            "durationTicks": 217,
            "midi": 36,
            "name": "C2",
            "ticks": 283440,
            "time": 295.25,
            "velocity": 0.7795275590551181
          },
          {
            "duration": 0.22604166666667425,
            "durationTicks": 217,
            "midi": 36,
            "name": "C2",
            "ticks": 283680,
            "time": 295.5,
            "velocity": 0.8031496062992126
          },
          {
            "duration": 0.22604166666667425,
            "durationTicks": 217,
            "midi": 36,
            "name": "C2",
            "ticks": 283920,
            "time": 295.75,
            "velocity": 0.7480314960629921
          },
          {
            "duration": 0.22604166666667425,
            "durationTicks": 217,
            "midi": 36,
            "name": "C2",
            "ticks": 284160,
            "time": 296,
            "velocity": 0.7874015748031497
          },
          {
            "duration": 0.22604166666667425,
            "durationTicks": 217,
            "midi": 36,
            "name": "C2",
            "ticks": 284400,
            "time": 296.25,
            "velocity": 0.7716535433070866
          },
          {
            "duration": 0.22604166666667425,
            "durationTicks": 217,
            "midi": 36,
            "name": "C2",
            "ticks": 284640,
            "time": 296.5,
            "velocity": 0.7795275590551181
          },
          {
            "duration": 0.22604166666667425,
            "durationTicks": 217,
            "midi": 36,
            "name": "C2",
            "ticks": 284880,
            "time": 296.75,
            "velocity": 0.7795275590551181
          },
          {
            "duration": 0.45104166666664014,
            "durationTicks": 433,
            "midi": 36,
            "name": "C2",
            "ticks": 285120,
            "time": 297,
            "velocity": 0.7952755905511811
          },
          {
            "duration": 0.22604166666667425,
            "durationTicks": 217,
            "midi": 37,
            "name": "C#2",
            "ticks": 286320,
            "time": 298.25,
            "velocity": 0.6929133858267716
          },
          {
            "duration": 0.22604166666667425,
            "durationTicks": 217,
            "midi": 37,
            "name": "C#2",
            "ticks": 286560,
            "time": 298.5,
            "velocity": 0.7874015748031497
          },
          {
            "duration": 0.22604166666667425,
            "durationTicks": 217,
            "midi": 37,
            "name": "C#2",
            "ticks": 286800,
            "time": 298.75,
            "velocity": 0.7480314960629921
          },
          {
            "duration": 0.22604166666667425,
            "durationTicks": 217,
            "midi": 37,
            "name": "C#2",
            "ticks": 287040,
            "time": 299,
            "velocity": 0.7480314960629921
          },
          {
            "duration": 0.22604166666667425,
            "durationTicks": 217,
            "midi": 37,
            "name": "C#2",
            "ticks": 287280,
            "time": 299.25,
            "velocity": 0.7401574803149606
          },
          {
            "duration": 0.22604166666667425,
            "durationTicks": 217,
            "midi": 37,
            "name": "C#2",
            "ticks": 287520,
            "time": 299.5,
            "velocity": 0.7559055118110236
          },
          {
            "duration": 0.22604166666667425,
            "durationTicks": 217,
            "midi": 37,
            "name": "C#2",
            "ticks": 287760,
            "time": 299.75,
            "velocity": 0.7874015748031497
          },
          {
            "duration": 0.22604166666667425,
            "durationTicks": 217,
            "midi": 37,
            "name": "C#2",
            "ticks": 288000,
            "time": 300,
            "velocity": 0.7480314960629921
          },
          {
            "duration": 0.22604166666667425,
            "durationTicks": 217,
            "midi": 37,
            "name": "C#2",
            "ticks": 288240,
            "time": 300.25,
            "velocity": 0.7716535433070866
          },
          {
            "duration": 0.22604166666667425,
            "durationTicks": 217,
            "midi": 37,
            "name": "C#2",
            "ticks": 288480,
            "time": 300.5,
            "velocity": 0.8031496062992126
          },
          {
            "duration": 0.22604166666667425,
            "durationTicks": 217,
            "midi": 37,
            "name": "C#2",
            "ticks": 288720,
            "time": 300.75,
            "velocity": 0.7874015748031497
          },
          {
            "duration": 0.45104166666664014,
            "durationTicks": 433,
            "midi": 37,
            "name": "C#2",
            "ticks": 288960,
            "time": 301,
            "velocity": 0.7716535433070866
          },
          {
            "duration": 0.22604166666667425,
            "durationTicks": 217,
            "midi": 38,
            "name": "D2",
            "ticks": 290160,
            "time": 302.25,
            "velocity": 0.7480314960629921
          },
          {
            "duration": 0.22604166666667425,
            "durationTicks": 217,
            "midi": 38,
            "name": "D2",
            "ticks": 290400,
            "time": 302.5,
            "velocity": 0.7874015748031497
          },
          {
            "duration": 0.22604166666667425,
            "durationTicks": 217,
            "midi": 38,
            "name": "D2",
            "ticks": 290640,
            "time": 302.75,
            "velocity": 0.8267716535433071
          },
          {
            "duration": 0.45104166666664014,
            "durationTicks": 433,
            "midi": 38,
            "name": "D2",
            "ticks": 290880,
            "time": 303,
            "velocity": 0.84251968503937
          },
          {
            "duration": 0.22604166666667425,
            "durationTicks": 217,
            "midi": 40,
            "name": "E2",
            "ticks": 292320,
            "time": 304.5,
            "velocity": 0.7322834645669292
          },
          {
            "duration": 0.22604166666667425,
            "durationTicks": 217,
            "midi": 40,
            "name": "E2",
            "ticks": 292560,
            "time": 304.75,
            "velocity": 0.8188976377952756
          },
          {
            "duration": 0.45104166666664014,
            "durationTicks": 433,
            "midi": 40,
            "name": "E2",
            "ticks": 292800,
            "time": 305,
            "velocity": 0.7952755905511811
          },
          {
            "duration": 0.22604166666667425,
            "durationTicks": 217,
            "midi": 42,
            "name": "F#2",
            "ticks": 293280,
            "time": 305.5,
            "velocity": 0.8818897637795275
          },
          {
            "duration": 0.22604166666667425,
            "durationTicks": 217,
            "midi": 42,
            "name": "F#2",
            "ticks": 293520,
            "time": 305.75,
            "velocity": 0.8110236220472441
          },
          {
            "duration": 0.45104166666664014,
            "durationTicks": 433,
            "midi": 42,
            "name": "F#2",
            "ticks": 293760,
            "time": 306,
            "velocity": 0.84251968503937
          },
          {
            "duration": 0.9510416666666401,
            "durationTicks": 913,
            "midi": 48,
            "name": "C3",
            "ticks": 297120,
            "time": 309.5,
            "velocity": 0.7716535433070866
          },
          {
            "duration": 0.22500000000002274,
            "durationTicks": 216,
            "midi": 45,
            "name": "A2",
            "ticks": 298080,
            "time": 310.5,
            "velocity": 0.7952755905511811
          },
          {
            "duration": 0.22500000000002274,
            "durationTicks": 216,
            "midi": 42,
            "name": "F#2",
            "ticks": 298560,
            "time": 311,
            "velocity": 0.7716535433070866
          },
          {
            "duration": 0.22500000000002274,
            "durationTicks": 216,
            "midi": 38,
            "name": "D2",
            "ticks": 299040,
            "time": 311.5,
            "velocity": 0.7795275590551181
          },
          {
            "duration": 0.22500000000002274,
            "durationTicks": 216,
            "midi": 36,
            "name": "C2",
            "ticks": 299520,
            "time": 312,
            "velocity": 0.8110236220472441
          },
          {
            "duration": 0.22500000000002274,
            "durationTicks": 216,
            "midi": 33,
            "name": "A1",
            "ticks": 300000,
            "time": 312.5,
            "velocity": 0.8031496062992126
          },
          {
            "duration": 0.22500000000002274,
            "durationTicks": 216,
            "midi": 30,
            "name": "F#1",
            "ticks": 300480,
            "time": 313,
            "velocity": 0.7795275590551181
          },
          {
            "duration": 0.22500000000002274,
            "durationTicks": 216,
            "midi": 34,
            "name": "A#1",
            "ticks": 300960,
            "time": 313.5,
            "velocity": 0.8188976377952756
          },
          {
            "duration": 0.45104166666664014,
            "durationTicks": 433,
            "midi": 31,
            "name": "G1",
            "ticks": 301440,
            "time": 314,
            "velocity": 0.7874015748031497
          },
          {
            "duration": 0.9510416666666401,
            "durationTicks": 913,
            "midi": 53,
            "name": "F3",
            "ticks": 304800,
            "time": 317.5,
            "velocity": 0.7244094488188977
          },
          {
            "duration": 0.22500000000002274,
            "durationTicks": 216,
            "midi": 50,
            "name": "D3",
            "ticks": 305760,
            "time": 318.5,
            "velocity": 0.8031496062992126
          },
          {
            "duration": 0.22500000000002274,
            "durationTicks": 216,
            "midi": 47,
            "name": "B2",
            "ticks": 306240,
            "time": 319,
            "velocity": 0.84251968503937
          },
          {
            "duration": 0.22500000000002274,
            "durationTicks": 216,
            "midi": 43,
            "name": "G2",
            "ticks": 306720,
            "time": 319.5,
            "velocity": 0.7874015748031497
          },
          {
            "duration": 0.22500000000002274,
            "durationTicks": 216,
            "midi": 41,
            "name": "F2",
            "ticks": 307200,
            "time": 320,
            "velocity": 0.7637795275590551
          },
          {
            "duration": 0.22500000000002274,
            "durationTicks": 216,
            "midi": 38,
            "name": "D2",
            "ticks": 307680,
            "time": 320.5,
            "velocity": 0.8188976377952756
          },
          {
            "duration": 0.22500000000002274,
            "durationTicks": 216,
            "midi": 35,
            "name": "B1",
            "ticks": 308160,
            "time": 321,
            "velocity": 0.7716535433070866
          },
          {
            "duration": 0.22500000000002274,
            "durationTicks": 216,
            "midi": 31,
            "name": "G1",
            "ticks": 308640,
            "time": 321.5,
            "velocity": 0.7716535433070866
          },
          {
            "duration": 0.45104166666664014,
            "durationTicks": 433,
            "midi": 36,
            "name": "C2",
            "ticks": 309120,
            "time": 322,
            "velocity": 0.8976377952755905
          },
          {
            "duration": 1.0197916666666629,
            "durationTicks": 979,
            "midi": 31,
            "name": "G1",
            "ticks": 312000,
            "time": 325,
            "velocity": 0.7165354330708661
          },
          {
            "duration": 0.9489583333333371,
            "durationTicks": 911,
            "midi": 32,
            "name": "G#1",
            "ticks": 312960,
            "time": 326,
            "velocity": 0.7322834645669292
          },
          {
            "duration": 1.0197916666666629,
            "durationTicks": 979,
            "midi": 31,
            "name": "G1",
            "ticks": 315840,
            "time": 329,
            "velocity": 0.8188976377952756
          },
          {
            "duration": 0.9489583333333371,
            "durationTicks": 911,
            "midi": 32,
            "name": "G#1",
            "ticks": 316800,
            "time": 330,
            "velocity": 0.8267716535433071
          },
          {
            "duration": 1.0197916666666629,
            "durationTicks": 979,
            "midi": 34,
            "name": "A#1",
            "ticks": 319680,
            "time": 333,
            "velocity": 0.8582677165354331
          },
          {
            "duration": 0.9489583333333371,
            "durationTicks": 911,
            "midi": 36,
            "name": "C2",
            "ticks": 320640,
            "time": 334,
            "velocity": 0.8661417322834646
          },
          {
            "duration": 0.8999999999999773,
            "durationTicks": 864,
            "midi": 37,
            "name": "C#2",
            "ticks": 323520,
            "time": 337,
            "velocity": 0.8188976377952756
          },
          {
            "duration": 0.8999999999999773,
            "durationTicks": 864,
            "midi": 39,
            "name": "D#2",
            "ticks": 325440,
            "time": 339,
            "velocity": 0.7007874015748031
          },
          {
            "duration": 0.8999999999999773,
            "durationTicks": 864,
            "midi": 41,
            "name": "F2",
            "ticks": 327360,
            "time": 341,
            "velocity": 0.5354330708661418
          },
          {
            "duration": 0.8999999999999773,
            "durationTicks": 864,
            "midi": 30,
            "name": "F#1",
            "ticks": 329280,
            "time": 343,
            "velocity": 0.4251968503937008
          },
          {
            "duration": 0.8999999999999773,
            "durationTicks": 864,
            "midi": 30,
            "name": "F#1",
            "ticks": 331200,
            "time": 345,
            "velocity": 0.4330708661417323
          },
          {
            "duration": 0.8999999999999773,
            "durationTicks": 864,
            "midi": 30,
            "name": "F#1",
            "ticks": 333120,
            "time": 347,
            "velocity": 0.4409448818897638
          },
          {
            "duration": 0.8999999999999773,
            "durationTicks": 864,
            "midi": 30,
            "name": "F#1",
            "ticks": 335040,
            "time": 349,
            "velocity": 0.4015748031496063
          },
          {
            "duration": 0.8999999999999773,
            "durationTicks": 864,
            "midi": 30,
            "name": "F#1",
            "ticks": 336960,
            "time": 351,
            "velocity": 0.44881889763779526
          },
          {
            "duration": 0.8999999999999773,
            "durationTicks": 864,
            "midi": 30,
            "name": "F#1",
            "ticks": 338880,
            "time": 353,
            "velocity": 0.4409448818897638
          },
          {
            "duration": 0.22604166666667425,
            "durationTicks": 217,
            "midi": 30,
            "name": "F#1",
            "ticks": 340800,
            "time": 355,
            "velocity": 0.84251968503937
          },
          {
            "duration": 0.22604166666667425,
            "durationTicks": 217,
            "midi": 38,
            "name": "D2",
            "ticks": 341040,
            "time": 355.25,
            "velocity": 0.952755905511811
          },
          {
            "duration": 0.22604166666667425,
            "durationTicks": 217,
            "midi": 38,
            "name": "D2",
            "ticks": 341280,
            "time": 355.5,
            "velocity": 0.9133858267716536
          },
          {
            "duration": 0.22604166666667425,
            "durationTicks": 217,
            "midi": 38,
            "name": "D2",
            "ticks": 341520,
            "time": 355.75,
            "velocity": 0.9133858267716536
          },
          {
            "duration": 0.8999999999999773,
            "durationTicks": 864,
            "midi": 35,
            "name": "B1",
            "ticks": 341760,
            "time": 356,
            "velocity": 0.84251968503937
          },
          {
            "duration": 0.8999999999999773,
            "durationTicks": 864,
            "midi": 36,
            "name": "C2",
            "ticks": 342720,
            "time": 357,
            "velocity": 0.937007874015748
          },
          {
            "duration": 1.8999999999999773,
            "durationTicks": 1824,
            "midi": 33,
            "name": "A1",
            "ticks": 343680,
            "time": 358,
            "velocity": 0.8503937007874016
          },
          {
            "duration": 0.8999999999999773,
            "durationTicks": 864,
            "midi": 35,
            "name": "B1",
            "ticks": 346560,
            "time": 361,
            "velocity": 0.3858267716535433
          },
          {
            "duration": 0.8999999999999773,
            "durationTicks": 864,
            "midi": 35,
            "name": "B1",
            "ticks": 348480,
            "time": 363,
            "velocity": 0.4251968503937008
          },
          {
            "duration": 0.8999999999999773,
            "durationTicks": 864,
            "midi": 35,
            "name": "B1",
            "ticks": 350400,
            "time": 365,
            "velocity": 0.3858267716535433
          },
          {
            "duration": 0.22604166666667425,
            "durationTicks": 217,
            "midi": 35,
            "name": "B1",
            "ticks": 352320,
            "time": 367,
            "velocity": 0.7952755905511811
          },
          {
            "duration": 0.22604166666667425,
            "durationTicks": 217,
            "midi": 44,
            "name": "G#2",
            "ticks": 352560,
            "time": 367.25,
            "velocity": 0.9763779527559056
          },
          {
            "duration": 0.22604166666667425,
            "durationTicks": 217,
            "midi": 44,
            "name": "G#2",
            "ticks": 352800,
            "time": 367.5,
            "velocity": 0.905511811023622
          },
          {
            "duration": 0.22604166666667425,
            "durationTicks": 217,
            "midi": 44,
            "name": "G#2",
            "ticks": 353040,
            "time": 367.75,
            "velocity": 0.8740157480314961
          },
          {
            "duration": 1.2260416666666742,
            "durationTicks": 1177,
            "midi": 41,
            "name": "F2",
            "ticks": 353280,
            "time": 368,
            "velocity": 0.8661417322834646
          },
          {
            "duration": 0.22604166666667425,
            "durationTicks": 217,
            "midi": 44,
            "name": "G#2",
            "ticks": 354480,
            "time": 369.25,
            "velocity": 0.8976377952755905
          },
          {
            "duration": 0.22604166666667425,
            "durationTicks": 217,
            "midi": 44,
            "name": "G#2",
            "ticks": 354720,
            "time": 369.5,
            "velocity": 0.8582677165354331
          },
          {
            "duration": 0.22604166666667425,
            "durationTicks": 217,
            "midi": 44,
            "name": "G#2",
            "ticks": 354960,
            "time": 369.75,
            "velocity": 0.8740157480314961
          },
          {
            "duration": 1.2260416666666742,
            "durationTicks": 1177,
            "midi": 41,
            "name": "F2",
            "ticks": 355200,
            "time": 370,
            "velocity": 0.8188976377952756
          },
          {
            "duration": 0.22604166666667425,
            "durationTicks": 217,
            "midi": 44,
            "name": "G#2",
            "ticks": 356400,
            "time": 371.25,
            "velocity": 0.952755905511811
          },
          {
            "duration": 0.22604166666667425,
            "durationTicks": 217,
            "midi": 44,
            "name": "G#2",
            "ticks": 356640,
            "time": 371.5,
            "velocity": 0.8976377952755905
          },
          {
            "duration": 0.22604166666667425,
            "durationTicks": 217,
            "midi": 44,
            "name": "G#2",
            "ticks": 356880,
            "time": 371.75,
            "velocity": 0.8976377952755905
          },
          {
            "duration": 0.22604166666667425,
            "durationTicks": 217,
            "midi": 41,
            "name": "F2",
            "ticks": 357120,
            "time": 372,
            "velocity": 0.8503937007874016
          },
          {
            "duration": 0.22604166666667425,
            "durationTicks": 217,
            "midi": 44,
            "name": "G#2",
            "ticks": 357360,
            "time": 372.25,
            "velocity": 0.9133858267716536
          },
          {
            "duration": 0.22604166666667425,
            "durationTicks": 217,
            "midi": 44,
            "name": "G#2",
            "ticks": 357600,
            "time": 372.5,
            "velocity": 0.9212598425196851
          },
          {
            "duration": 0.22604166666667425,
            "durationTicks": 217,
            "midi": 44,
            "name": "G#2",
            "ticks": 357840,
            "time": 372.75,
            "velocity": 0.889763779527559
          },
          {
            "duration": 0.22604166666667425,
            "durationTicks": 217,
            "midi": 41,
            "name": "F2",
            "ticks": 358080,
            "time": 373,
            "velocity": 0.9133858267716536
          },
          {
            "duration": 0.22604166666667425,
            "durationTicks": 217,
            "midi": 44,
            "name": "G#2",
            "ticks": 358320,
            "time": 373.25,
            "velocity": 0.9448818897637795
          },
          {
            "duration": 0.22604166666667425,
            "durationTicks": 217,
            "midi": 44,
            "name": "G#2",
            "ticks": 358560,
            "time": 373.5,
            "velocity": 0.889763779527559
          },
          {
            "duration": 0.22604166666667425,
            "durationTicks": 217,
            "midi": 44,
            "name": "G#2",
            "ticks": 358800,
            "time": 373.75,
            "velocity": 0.8661417322834646
          },
          {
            "duration": 0.22604166666667425,
            "durationTicks": 217,
            "midi": 41,
            "name": "F2",
            "ticks": 359040,
            "time": 374,
            "velocity": 0.84251968503937
          },
          {
            "duration": 0.22604166666667425,
            "durationTicks": 217,
            "midi": 44,
            "name": "G#2",
            "ticks": 359280,
            "time": 374.25,
            "velocity": 0.9212598425196851
          },
          {
            "duration": 0.22604166666667425,
            "durationTicks": 217,
            "midi": 44,
            "name": "G#2",
            "ticks": 359520,
            "time": 374.5,
            "velocity": 0.8818897637795275
          },
          {
            "duration": 0.22604166666667425,
            "durationTicks": 217,
            "midi": 44,
            "name": "G#2",
            "ticks": 359760,
            "time": 374.75,
            "velocity": 0.8818897637795275
          },
          {
            "duration": 0.22604166666667425,
            "durationTicks": 217,
            "midi": 41,
            "name": "F2",
            "ticks": 360000,
            "time": 375,
            "velocity": 0.8661417322834646
          },
          {
            "duration": 0.22604166666667425,
            "durationTicks": 217,
            "midi": 43,
            "name": "G2",
            "ticks": 360240,
            "time": 375.25,
            "velocity": 0.9212598425196851
          },
          {
            "duration": 0.22604166666667425,
            "durationTicks": 217,
            "midi": 43,
            "name": "G2",
            "ticks": 360480,
            "time": 375.5,
            "velocity": 0.8976377952755905
          },
          {
            "duration": 0.22604166666667425,
            "durationTicks": 217,
            "midi": 43,
            "name": "G2",
            "ticks": 360720,
            "time": 375.75,
            "velocity": 0.8661417322834646
          },
          {
            "duration": 1.5,
            "durationTicks": 1440,
            "midi": 39,
            "name": "D#2",
            "ticks": 360960,
            "time": 376,
            "velocity": 0.8818897637795275
          },
          {
            "duration": 0.22604166666667425,
            "durationTicks": 217,
            "midi": 41,
            "name": "F2",
            "ticks": 362640,
            "time": 377.75,
            "velocity": 0.8188976377952756
          },
          {
            "duration": 0.22604166666667425,
            "durationTicks": 217,
            "midi": 41,
            "name": "F2",
            "ticks": 362880,
            "time": 378,
            "velocity": 0.8818897637795275
          },
          {
            "duration": 0.22604166666667425,
            "durationTicks": 217,
            "midi": 41,
            "name": "F2",
            "ticks": 363120,
            "time": 378.25,
            "velocity": 0.8740157480314961
          },
          {
            "duration": 2.5,
            "durationTicks": 2400,
            "midi": 38,
            "name": "D2",
            "ticks": 363360,
            "time": 378.5,
            "velocity": 0.8661417322834646
          },
          {
            "duration": 0.45104166666664014,
            "durationTicks": 433,
            "midi": 31,
            "name": "G1",
            "ticks": 380160,
            "time": 396,
            "velocity": 0.4566929133858268
          },
          {
            "duration": 0.22604166666667425,
            "durationTicks": 217,
            "midi": 31,
            "name": "G1",
            "ticks": 388560,
            "time": 404.75,
            "velocity": 0.4330708661417323
          },
          {
            "duration": 0.22604166666667425,
            "durationTicks": 217,
            "midi": 31,
            "name": "G1",
            "ticks": 388800,
            "time": 405,
            "velocity": 0.4251968503937008
          },
          {
            "duration": 0.22604166666667425,
            "durationTicks": 217,
            "midi": 31,
            "name": "G1",
            "ticks": 389040,
            "time": 405.25,
            "velocity": 0.49606299212598426
          },
          {
            "duration": 0.22604166666667425,
            "durationTicks": 217,
            "midi": 36,
            "name": "C2",
            "ticks": 389280,
            "time": 405.5,
            "velocity": 0.49606299212598426
          },
          {
            "duration": 0.22604166666667425,
            "durationTicks": 217,
            "midi": 44,
            "name": "G#2",
            "ticks": 389520,
            "time": 405.75,
            "velocity": 0.5275590551181102
          },
          {
            "duration": 0.22604166666667425,
            "durationTicks": 217,
            "midi": 44,
            "name": "G#2",
            "ticks": 389760,
            "time": 406,
            "velocity": 0.47244094488188976
          },
          {
            "duration": 0.22604166666667425,
            "durationTicks": 217,
            "midi": 44,
            "name": "G#2",
            "ticks": 390000,
            "time": 406.25,
            "velocity": 0.47244094488188976
          },
          {
            "duration": 0.22604166666667425,
            "durationTicks": 217,
            "midi": 41,
            "name": "F2",
            "ticks": 390240,
            "time": 406.5,
            "velocity": 0.5433070866141733
          },
          {
            "duration": 0.22604166666667425,
            "durationTicks": 217,
            "midi": 38,
            "name": "D2",
            "ticks": 390480,
            "time": 406.75,
            "velocity": 0.5275590551181102
          },
          {
            "duration": 0.22604166666667425,
            "durationTicks": 217,
            "midi": 38,
            "name": "D2",
            "ticks": 390720,
            "time": 407,
            "velocity": 0.5748031496062992
          },
          {
            "duration": 0.22604166666667425,
            "durationTicks": 217,
            "midi": 38,
            "name": "D2",
            "ticks": 390960,
            "time": 407.25,
            "velocity": 0.5354330708661418
          },
          {
            "duration": 0.22604166666667425,
            "durationTicks": 217,
            "midi": 35,
            "name": "B1",
            "ticks": 391200,
            "time": 407.5,
            "velocity": 0.5275590551181102
          },
          {
            "duration": 0.22604166666667425,
            "durationTicks": 217,
            "midi": 32,
            "name": "G#1",
            "ticks": 391440,
            "time": 407.75,
            "velocity": 0.5511811023622047
          },
          {
            "duration": 0.22604166666667425,
            "durationTicks": 217,
            "midi": 32,
            "name": "G#1",
            "ticks": 391680,
            "time": 408,
            "velocity": 0.5590551181102362
          },
          {
            "duration": 0.22604166666667425,
            "durationTicks": 217,
            "midi": 32,
            "name": "G#1",
            "ticks": 391920,
            "time": 408.25,
            "velocity": 0.5748031496062992
          },
          {
            "duration": 0.22604166666667425,
            "durationTicks": 217,
            "midi": 31,
            "name": "G1",
            "ticks": 392160,
            "time": 408.5,
            "velocity": 0.5354330708661418
          },
          {
            "duration": 0.22604166666667425,
            "durationTicks": 217,
            "midi": 43,
            "name": "G2",
            "ticks": 392400,
            "time": 408.75,
            "velocity": 0.7559055118110236
          },
          {
            "duration": 0.22604166666667425,
            "durationTicks": 217,
            "midi": 43,
            "name": "G2",
            "ticks": 392640,
            "time": 409,
            "velocity": 0.6456692913385826
          },
          {
            "duration": 0.22604166666667425,
            "durationTicks": 217,
            "midi": 43,
            "name": "G2",
            "ticks": 392880,
            "time": 409.25,
            "velocity": 0.6220472440944882
          },
          {
            "duration": 0.22604166666667425,
            "durationTicks": 217,
            "midi": 36,
            "name": "C2",
            "ticks": 393120,
            "time": 409.5,
            "velocity": 0.7165354330708661
          },
          {
            "duration": 0.22604166666667425,
            "durationTicks": 217,
            "midi": 36,
            "name": "C2",
            "ticks": 393360,
            "time": 409.75,
            "velocity": 0.7480314960629921
          },
          {
            "duration": 0.22604166666667425,
            "durationTicks": 217,
            "midi": 36,
            "name": "C2",
            "ticks": 393600,
            "time": 410,
            "velocity": 0.7874015748031497
          },
          {
            "duration": 0.22604166666667425,
            "durationTicks": 217,
            "midi": 36,
            "name": "C2",
            "ticks": 393840,
            "time": 410.25,
            "velocity": 0.7637795275590551
          },
          {
            "duration": 0.8999999999999773,
            "durationTicks": 864,
            "midi": 36,
            "name": "C2",
            "ticks": 394080,
            "time": 410.5,
            "velocity": 0.7559055118110236
          },
          {
            "duration": 0.22604166666667425,
            "durationTicks": 217,
            "midi": 36,
            "name": "C2",
            "ticks": 395040,
            "time": 411.5,
            "velocity": 0.7559055118110236
          },
          {
            "duration": 0.22604166666667425,
            "durationTicks": 217,
            "midi": 36,
            "name": "C2",
            "ticks": 395280,
            "time": 411.75,
            "velocity": 0.7401574803149606
          },
          {
            "duration": 0.22604166666667425,
            "durationTicks": 217,
            "midi": 36,
            "name": "C2",
            "ticks": 395520,
            "time": 412,
            "velocity": 0.7637795275590551
          },
          {
            "duration": 0.22604166666667425,
            "durationTicks": 217,
            "midi": 36,
            "name": "C2",
            "ticks": 395760,
            "time": 412.25,
            "velocity": 0.7874015748031497
          },
          {
            "duration": 0.8999999999999773,
            "durationTicks": 864,
            "midi": 36,
            "name": "C2",
            "ticks": 396000,
            "time": 412.5,
            "velocity": 0.7559055118110236
          },
          {
            "duration": 0.22604166666667425,
            "durationTicks": 217,
            "midi": 36,
            "name": "C2",
            "ticks": 396960,
            "time": 413.5,
            "velocity": 0.7480314960629921
          },
          {
            "duration": 0.22604166666667425,
            "durationTicks": 217,
            "midi": 36,
            "name": "C2",
            "ticks": 397200,
            "time": 413.75,
            "velocity": 0.7716535433070866
          },
          {
            "duration": 0.22604166666667425,
            "durationTicks": 217,
            "midi": 36,
            "name": "C2",
            "ticks": 397440,
            "time": 414,
            "velocity": 0.7559055118110236
          },
          {
            "duration": 0.22604166666667425,
            "durationTicks": 217,
            "midi": 36,
            "name": "C2",
            "ticks": 397680,
            "time": 414.25,
            "velocity": 0.7952755905511811
          },
          {
            "duration": 0.45104166666664014,
            "durationTicks": 433,
            "midi": 36,
            "name": "C2",
            "ticks": 397920,
            "time": 414.5,
            "velocity": 0.889763779527559
          },
          {
            "duration": 0.45104166666664014,
            "durationTicks": 433,
            "midi": 36,
            "name": "C2",
            "ticks": 398880,
            "time": 415.5,
            "velocity": 0.7952755905511811
          },
          {
            "duration": 0.45104166666664014,
            "durationTicks": 433,
            "midi": 36,
            "name": "C2",
            "ticks": 399840,
            "time": 416.5,
            "velocity": 0.7637795275590551
          },
          {
            "duration": 0.45104166666664014,
            "durationTicks": 433,
            "midi": 36,
            "name": "C2",
            "ticks": 400800,
            "time": 417.5,
            "velocity": 0.8110236220472441
          },
          {
            "duration": 0.45104166666664014,
            "durationTicks": 433,
            "midi": 36,
            "name": "C2",
            "ticks": 401760,
            "time": 418.5,
            "velocity": 0.7952755905511811
          },
          {
            "duration": 0.45104166666664014,
            "durationTicks": 433,
            "midi": 36,
            "name": "C2",
            "ticks": 402720,
            "time": 419.5,
            "velocity": 0.8031496062992126
          },
          {
            "duration": 3.2260416666666742,
            "durationTicks": 3097,
            "midi": 36,
            "name": "C2",
            "ticks": 403680,
            "time": 420.5,
            "velocity": 0.7007874015748031
          },
          {
            "duration": 0.22604166666667425,
            "durationTicks": 217,
            "midi": 36,
            "name": "C2",
            "ticks": 406800,
            "time": 423.75,
            "velocity": 0.7716535433070866
          },
          {
            "duration": 0.22604166666667425,
            "durationTicks": 217,
            "midi": 36,
            "name": "C2",
            "ticks": 407040,
            "time": 424,
            "velocity": 0.7637795275590551
          },
          {
            "duration": 0.22604166666667425,
            "durationTicks": 217,
            "midi": 36,
            "name": "C2",
            "ticks": 407280,
            "time": 424.25,
            "velocity": 0.7716535433070866
          },
          {
            "duration": 3.2260416666666742,
            "durationTicks": 3097,
            "midi": 31,
            "name": "G1",
            "ticks": 407520,
            "time": 424.5,
            "velocity": 0.6771653543307087
          },
          {
            "duration": 0.22604166666667425,
            "durationTicks": 217,
            "midi": 31,
            "name": "G1",
            "ticks": 410640,
            "time": 427.75,
            "velocity": 0.8031496062992126
          },
          {
            "duration": 0.22604166666667425,
            "durationTicks": 217,
            "midi": 36,
            "name": "C2",
            "ticks": 410880,
            "time": 428,
            "velocity": 0.8031496062992126
          },
          {
            "duration": 0.22604166666667425,
            "durationTicks": 217,
            "midi": 36,
            "name": "C2",
            "ticks": 411120,
            "time": 428.25,
            "velocity": 0.8110236220472441
          },
          {
            "duration": 0.22604166666667425,
            "durationTicks": 217,
            "midi": 36,
            "name": "C2",
            "ticks": 411360,
            "time": 428.5,
            "velocity": 0.8818897637795275
          },
          {
            "duration": 0.22604166666667425,
            "durationTicks": 217,
            "midi": 51,
            "name": "D#3",
            "ticks": 411600,
            "time": 428.75,
            "velocity": 0.9921259842519685
          },
          {
            "duration": 0.22604166666667425,
            "durationTicks": 217,
            "midi": 51,
            "name": "D#3",
            "ticks": 411840,
            "time": 429,
            "velocity": 0.905511811023622
          },
          {
            "duration": 0.22604166666667425,
            "durationTicks": 217,
            "midi": 51,
            "name": "D#3",
            "ticks": 412080,
            "time": 429.25,
            "velocity": 0.905511811023622
          },
          {
            "duration": 0.22604166666667425,
            "durationTicks": 217,
            "midi": 48,
            "name": "C3",
            "ticks": 412320,
            "time": 429.5,
            "velocity": 0.8582677165354331
          },
          {
            "duration": 0.22604166666667425,
            "durationTicks": 217,
            "midi": 45,
            "name": "A2",
            "ticks": 412560,
            "time": 429.75,
            "velocity": 0.8582677165354331
          },
          {
            "duration": 0.22604166666667425,
            "durationTicks": 217,
            "midi": 45,
            "name": "A2",
            "ticks": 412800,
            "time": 430,
            "velocity": 0.8661417322834646
          },
          {
            "duration": 0.22604166666667425,
            "durationTicks": 217,
            "midi": 45,
            "name": "A2",
            "ticks": 413040,
            "time": 430.25,
            "velocity": 0.8661417322834646
          },
          {
            "duration": 0.22604166666667425,
            "durationTicks": 217,
            "midi": 42,
            "name": "F#2",
            "ticks": 413280,
            "time": 430.5,
            "velocity": 0.8503937007874016
          },
          {
            "duration": 0.22604166666667425,
            "durationTicks": 217,
            "midi": 39,
            "name": "D#2",
            "ticks": 413520,
            "time": 430.75,
            "velocity": 0.8503937007874016
          },
          {
            "duration": 0.22604166666667425,
            "durationTicks": 217,
            "midi": 39,
            "name": "D#2",
            "ticks": 413760,
            "time": 431,
            "velocity": 0.905511811023622
          },
          {
            "duration": 0.22604166666667425,
            "durationTicks": 217,
            "midi": 39,
            "name": "D#2",
            "ticks": 414000,
            "time": 431.25,
            "velocity": 0.8818897637795275
          },
          {
            "duration": 0.22604166666667425,
            "durationTicks": 217,
            "midi": 36,
            "name": "C2",
            "ticks": 414240,
            "time": 431.5,
            "velocity": 0.8267716535433071
          },
          {
            "duration": 0.22604166666667425,
            "durationTicks": 217,
            "midi": 33,
            "name": "A1",
            "ticks": 414480,
            "time": 431.75,
            "velocity": 0.8582677165354331
          },
          {
            "duration": 0.22604166666667425,
            "durationTicks": 217,
            "midi": 33,
            "name": "A1",
            "ticks": 414720,
            "time": 432,
            "velocity": 0.8582677165354331
          },
          {
            "duration": 0.22604166666667425,
            "durationTicks": 217,
            "midi": 33,
            "name": "A1",
            "ticks": 414960,
            "time": 432.25,
            "velocity": 0.905511811023622
          },
          {
            "duration": 0.45104166666664014,
            "durationTicks": 433,
            "midi": 36,
            "name": "C2",
            "ticks": 415200,
            "time": 432.5,
            "velocity": 0.9133858267716536
          },
          {
            "duration": 0.45104166666664014,
            "durationTicks": 433,
            "midi": 35,
            "name": "B1",
            "ticks": 417120,
            "time": 434.5,
            "velocity": 0.7874015748031497
          },
          {
            "duration": 0.22604166666667425,
            "durationTicks": 217,
            "midi": 31,
            "name": "G1",
            "ticks": 424080,
            "time": 441.75,
            "velocity": 0.4409448818897638
          },
          {
            "duration": 0.22604166666667425,
            "durationTicks": 217,
            "midi": 31,
            "name": "G1",
            "ticks": 424320,
            "time": 442,
            "velocity": 0.4645669291338583
          },
          {
            "duration": 0.22604166666667425,
            "durationTicks": 217,
            "midi": 31,
            "name": "G1",
            "ticks": 424560,
            "time": 442.25,
            "velocity": 0.44881889763779526
          },
          {
            "duration": 0.45104166666664014,
            "durationTicks": 433,
            "midi": 36,
            "name": "C2",
            "ticks": 424800,
            "time": 442.5,
            "velocity": 0.5118110236220472
          },
          {
            "duration": 0.22604166666667425,
            "durationTicks": 217,
            "midi": 31,
            "name": "G1",
            "ticks": 431760,
            "time": 449.75,
            "velocity": 0.4330708661417323
          },
          {
            "duration": 0.22604166666667425,
            "durationTicks": 217,
            "midi": 31,
            "name": "G1",
            "ticks": 432000,
            "time": 450,
            "velocity": 0.4881889763779528
          },
          {
            "duration": 0.22604166666667425,
            "durationTicks": 217,
            "midi": 31,
            "name": "G1",
            "ticks": 432240,
            "time": 450.25,
            "velocity": 0.5118110236220472
          },
          {
            "duration": 0.45104166666664014,
            "durationTicks": 433,
            "midi": 36,
            "name": "C2",
            "ticks": 432480,
            "time": 450.5,
            "velocity": 0.5196850393700787
          },
          {
            "duration": 0.22604166666667425,
            "durationTicks": 217,
            "midi": 36,
            "name": "C2",
            "ticks": 439440,
            "time": 457.75,
            "velocity": 0.4094488188976378
          },
          {
            "duration": 0.22604166666667425,
            "durationTicks": 217,
            "midi": 36,
            "name": "C2",
            "ticks": 439680,
            "time": 458,
            "velocity": 0.47244094488188976
          },
          {
            "duration": 0.22604166666667425,
            "durationTicks": 217,
            "midi": 36,
            "name": "C2",
            "ticks": 439920,
            "time": 458.25,
            "velocity": 0.4566929133858268
          },
          {
            "duration": 0.45104166666664014,
            "durationTicks": 433,
            "midi": 41,
            "name": "F2",
            "ticks": 440160,
            "time": 458.5,
            "velocity": 0.4881889763779528
          },
          {
            "duration": 0.22604166666667425,
            "durationTicks": 217,
            "midi": 38,
            "name": "D2",
            "ticks": 443280,
            "time": 461.75,
            "velocity": 0.3858267716535433
          },
          {
            "duration": 0.22604166666667425,
            "durationTicks": 217,
            "midi": 38,
            "name": "D2",
            "ticks": 443520,
            "time": 462,
            "velocity": 0.48031496062992124
          },
          {
            "duration": 0.22604166666667425,
            "durationTicks": 217,
            "midi": 38,
            "name": "D2",
            "ticks": 443760,
            "time": 462.25,
            "velocity": 0.48031496062992124
          },
          {
            "duration": 0.45104166666664014,
            "durationTicks": 433,
            "midi": 43,
            "name": "G2",
            "ticks": 444000,
            "time": 462.5,
            "velocity": 0.5039370078740157
          },
          {
            "duration": 0.22604166666667425,
            "durationTicks": 217,
            "midi": 44,
            "name": "G#2",
            "ticks": 446160,
            "time": 464.75,
            "velocity": 0.4015748031496063
          },
          {
            "duration": 0.22604166666667425,
            "durationTicks": 217,
            "midi": 44,
            "name": "G#2",
            "ticks": 446400,
            "time": 465,
            "velocity": 0.4645669291338583
          },
          {
            "duration": 0.22604166666667425,
            "durationTicks": 217,
            "midi": 44,
            "name": "G#2",
            "ticks": 446640,
            "time": 465.25,
            "velocity": 0.48031496062992124
          },
          {
            "duration": 0.45104166666664014,
            "durationTicks": 433,
            "midi": 44,
            "name": "G#2",
            "ticks": 446880,
            "time": 465.5,
            "velocity": 0.47244094488188976
          },
          {
            "duration": 0.22604166666667425,
            "durationTicks": 217,
            "midi": 47,
            "name": "B2",
            "ticks": 448080,
            "time": 466.75,
            "velocity": 0.4566929133858268
          },
          {
            "duration": 0.22604166666667425,
            "durationTicks": 217,
            "midi": 47,
            "name": "B2",
            "ticks": 448320,
            "time": 467,
            "velocity": 0.4881889763779528
          },
          {
            "duration": 0.22604166666667425,
            "durationTicks": 217,
            "midi": 47,
            "name": "B2",
            "ticks": 448560,
            "time": 467.25,
            "velocity": 0.5118110236220472
          },
          {
            "duration": 0.45104166666664014,
            "durationTicks": 433,
            "midi": 47,
            "name": "B2",
            "ticks": 448800,
            "time": 467.5,
            "velocity": 0.5511811023622047
          },
          {
            "duration": 0.22604166666667425,
            "durationTicks": 217,
            "midi": 50,
            "name": "D3",
            "ticks": 450000,
            "time": 468.75,
            "velocity": 0.5039370078740157
          },
          {
            "duration": 0.22604166666667425,
            "durationTicks": 217,
            "midi": 50,
            "name": "D3",
            "ticks": 450240,
            "time": 469,
            "velocity": 0.5590551181102362
          },
          {
            "duration": 0.22604166666667425,
            "durationTicks": 217,
            "midi": 50,
            "name": "D3",
            "ticks": 450480,
            "time": 469.25,
            "velocity": 0.5354330708661418
          },
          {
            "duration": 0.45104166666664014,
            "durationTicks": 433,
            "midi": 50,
            "name": "D3",
            "ticks": 450720,
            "time": 469.5,
            "velocity": 0.5590551181102362
          },
          {
            "duration": 0.22604166666667425,
            "durationTicks": 217,
            "midi": 50,
            "name": "D3",
            "ticks": 451920,
            "time": 470.75,
            "velocity": 0.5275590551181102
          },
          {
            "duration": 0.22604166666667425,
            "durationTicks": 217,
            "midi": 50,
            "name": "D3",
            "ticks": 452160,
            "time": 471,
            "velocity": 0.5669291338582677
          },
          {
            "duration": 0.22604166666667425,
            "durationTicks": 217,
            "midi": 50,
            "name": "D3",
            "ticks": 452400,
            "time": 471.25,
            "velocity": 0.6771653543307087
          },
          {
            "duration": 0.45104166666664014,
            "durationTicks": 433,
            "midi": 50,
            "name": "D3",
            "ticks": 452640,
            "time": 471.5,
            "velocity": 0.6456692913385826
          },
          {
            "duration": 0.22604166666667425,
            "durationTicks": 217,
            "midi": 50,
            "name": "D3",
            "ticks": 453840,
            "time": 472.75,
            "velocity": 0.5748031496062992
          },
          {
            "duration": 0.22604166666667425,
            "durationTicks": 217,
            "midi": 50,
            "name": "D3",
            "ticks": 454080,
            "time": 473,
            "velocity": 0.6220472440944882
          },
          {
            "duration": 0.22604166666667425,
            "durationTicks": 217,
            "midi": 50,
            "name": "D3",
            "ticks": 454320,
            "time": 473.25,
            "velocity": 0.6929133858267716
          },
          {
            "duration": 0.45104166666664014,
            "durationTicks": 433,
            "midi": 50,
            "name": "D3",
            "ticks": 454560,
            "time": 473.5,
            "velocity": 0.6456692913385826
          },
          {
            "duration": 0.45104166666664014,
            "durationTicks": 433,
            "midi": 50,
            "name": "D3",
            "ticks": 456000,
            "time": 475,
            "velocity": 0.6062992125984252
          },
          {
            "duration": 0.45104166666664014,
            "durationTicks": 433,
            "midi": 50,
            "name": "D3",
            "ticks": 456960,
            "time": 476,
            "velocity": 0.6692913385826772
          },
          {
            "duration": 0.45104166666664014,
            "durationTicks": 433,
            "midi": 50,
            "name": "D3",
            "ticks": 457920,
            "time": 477,
            "velocity": 0.6535433070866141
          },
          {
            "duration": 0.45104166666664014,
            "durationTicks": 433,
            "midi": 50,
            "name": "D3",
            "ticks": 458880,
            "time": 478,
            "velocity": 0.6850393700787402
          },
          {
            "duration": 1.4510416666666401,
            "durationTicks": 1393,
            "midi": 50,
            "name": "D3",
            "ticks": 459360,
            "time": 478.5,
            "velocity": 0.8661417322834646
          },
          {
            "duration": 0.45104166666664014,
            "durationTicks": 433,
            "midi": 47,
            "name": "B2",
            "ticks": 460800,
            "time": 480,
            "velocity": 0.8503937007874016
          },
          {
            "duration": 0.45104166666664014,
            "durationTicks": 433,
            "midi": 48,
            "name": "C3",
            "ticks": 461280,
            "time": 480.5,
            "velocity": 0.9133858267716536
          },
          {
            "duration": 0.45104166666664014,
            "durationTicks": 433,
            "midi": 50,
            "name": "D3",
            "ticks": 462240,
            "time": 481.5,
            "velocity": 0.8188976377952756
          },
          {
            "duration": 0.45104166666664014,
            "durationTicks": 433,
            "midi": 52,
            "name": "E3",
            "ticks": 463200,
            "time": 482.5,
            "velocity": 0.8267716535433071
          },
          {
            "duration": 0.45104166666664014,
            "durationTicks": 433,
            "midi": 53,
            "name": "F3",
            "ticks": 464160,
            "time": 483.5,
            "velocity": 0.8110236220472441
          },
          {
            "duration": 0.45104166666664014,
            "durationTicks": 433,
            "midi": 55,
            "name": "G3",
            "ticks": 465120,
            "time": 484.5,
            "velocity": 0.7795275590551181
          },
          {
            "duration": 0.45104166666664014,
            "durationTicks": 433,
            "midi": 43,
            "name": "G2",
            "ticks": 466080,
            "time": 485.5,
            "velocity": 0.8031496062992126
          },
          {
            "duration": 0.45104166666664014,
            "durationTicks": 433,
            "midi": 35,
            "name": "B1",
            "ticks": 467040,
            "time": 486.5,
            "velocity": 0.7716535433070866
          },
          {
            "duration": 0.45104166666664014,
            "durationTicks": 433,
            "midi": 38,
            "name": "D2",
            "ticks": 467520,
            "time": 487,
            "velocity": 0.905511811023622
          },
          {
            "duration": 0.45104166666664014,
            "durationTicks": 433,
            "midi": 35,
            "name": "B1",
            "ticks": 468000,
            "time": 487.5,
            "velocity": 0.8582677165354331
          },
          {
            "duration": 0.45104166666664014,
            "durationTicks": 433,
            "midi": 38,
            "name": "D2",
            "ticks": 468480,
            "time": 488,
            "velocity": 0.9212598425196851
          },
          {
            "duration": 0.45104166666664014,
            "durationTicks": 433,
            "midi": 36,
            "name": "C2",
            "ticks": 468960,
            "time": 488.5,
            "velocity": 0.8582677165354331
          },
          {
            "duration": 0.45104166666664014,
            "durationTicks": 433,
            "midi": 40,
            "name": "E2",
            "ticks": 469440,
            "time": 489,
            "velocity": 0.968503937007874
          },
          {
            "duration": 0.45104166666664014,
            "durationTicks": 433,
            "midi": 38,
            "name": "D2",
            "ticks": 469920,
            "time": 489.5,
            "velocity": 0.8818897637795275
          },
          {
            "duration": 0.45104166666664014,
            "durationTicks": 433,
            "midi": 41,
            "name": "F2",
            "ticks": 470400,
            "time": 490,
            "velocity": 0.9291338582677166
          },
          {
            "duration": 0.45104166666664014,
            "durationTicks": 433,
            "midi": 40,
            "name": "E2",
            "ticks": 470880,
            "time": 490.5,
            "velocity": 0.8740157480314961
          },
          {
            "duration": 0.45104166666664014,
            "durationTicks": 433,
            "midi": 43,
            "name": "G2",
            "ticks": 471360,
            "time": 491,
            "velocity": 0.9291338582677166
          },
          {
            "duration": 0.45104166666664014,
            "durationTicks": 433,
            "midi": 41,
            "name": "F2",
            "ticks": 471840,
            "time": 491.5,
            "velocity": 0.8818897637795275
          },
          {
            "duration": 0.45104166666664014,
            "durationTicks": 433,
            "midi": 45,
            "name": "A2",
            "ticks": 472320,
            "time": 492,
            "velocity": 0.9448818897637795
          },
          {
            "duration": 0.45104166666664014,
            "durationTicks": 433,
            "midi": 43,
            "name": "G2",
            "ticks": 472800,
            "time": 492.5,
            "velocity": 0.889763779527559
          },
          {
            "duration": 0.45104166666664014,
            "durationTicks": 433,
            "midi": 31,
            "name": "G1",
            "ticks": 473280,
            "time": 493,
            "velocity": 0.7401574803149606
          },
          {
            "duration": 0.45104166666664014,
            "durationTicks": 433,
            "midi": 43,
            "name": "G2",
            "ticks": 473760,
            "time": 493.5,
            "velocity": 0.952755905511811
          },
          {
            "duration": 0.45104166666664014,
            "durationTicks": 433,
            "midi": 31,
            "name": "G1",
            "ticks": 474240,
            "time": 494,
            "velocity": 0.7795275590551181
          },
          {
            "duration": 3.2260416666666742,
            "durationTicks": 3097,
            "midi": 36,
            "name": "C2",
            "ticks": 474720,
            "time": 494.5,
            "velocity": 0.9133858267716536
          },
          {
            "duration": 0.22604166666667425,
            "durationTicks": 217,
            "midi": 31,
            "name": "G1",
            "ticks": 477840,
            "time": 497.75,
            "velocity": 0.8503937007874016
          },
          {
            "duration": 0.22604166666667425,
            "durationTicks": 217,
            "midi": 31,
            "name": "G1",
            "ticks": 478080,
            "time": 498,
            "velocity": 0.8740157480314961
          },
          {
            "duration": 0.22604166666667425,
            "durationTicks": 217,
            "midi": 31,
            "name": "G1",
            "ticks": 478320,
            "time": 498.25,
            "velocity": 0.9212598425196851
          },
          {
            "duration": 3.2260416666666742,
            "durationTicks": 3097,
            "midi": 36,
            "name": "C2",
            "ticks": 478560,
            "time": 498.5,
            "velocity": 0.9448818897637795
          },
          {
            "duration": 0.22604166666667425,
            "durationTicks": 217,
            "midi": 31,
            "name": "G1",
            "ticks": 481680,
            "time": 501.75,
            "velocity": 0.8188976377952756
          },
          {
            "duration": 0.22604166666667425,
            "durationTicks": 217,
            "midi": 31,
            "name": "G1",
            "ticks": 481920,
            "time": 502,
            "velocity": 0.8661417322834646
          },
          {
            "duration": 0.22604166666667425,
            "durationTicks": 217,
            "midi": 31,
            "name": "G1",
            "ticks": 482160,
            "time": 502.25,
            "velocity": 0.952755905511811
          },
          {
            "duration": 0.45104166666664014,
            "durationTicks": 433,
            "midi": 36,
            "name": "C2",
            "ticks": 482400,
            "time": 502.5,
            "velocity": 0.9606299212598425
          },
          {
            "duration": 0.22604166666667425,
            "durationTicks": 217,
            "midi": 31,
            "name": "G1",
            "ticks": 483600,
            "time": 503.75,
            "velocity": 0.8031496062992126
          },
          {
            "duration": 0.22604166666667425,
            "durationTicks": 217,
            "midi": 31,
            "name": "G1",
            "ticks": 483840,
            "time": 504,
            "velocity": 0.889763779527559
          },
          {
            "duration": 0.22604166666667425,
            "durationTicks": 217,
            "midi": 31,
            "name": "G1",
            "ticks": 484080,
            "time": 504.25,
            "velocity": 0.905511811023622
          },
          {
            "duration": 0.45104166666664014,
            "durationTicks": 433,
            "midi": 36,
            "name": "C2",
            "ticks": 484320,
            "time": 504.5,
            "velocity": 0.9606299212598425
          },
          {
            "duration": 0.22604166666667425,
            "durationTicks": 217,
            "midi": 31,
            "name": "G1",
            "ticks": 485520,
            "time": 505.75,
            "velocity": 0.7874015748031497
          },
          {
            "duration": 0.22604166666667425,
            "durationTicks": 217,
            "midi": 31,
            "name": "G1",
            "ticks": 485760,
            "time": 506,
            "velocity": 0.889763779527559
          },
          {
            "duration": 0.22604166666667425,
            "durationTicks": 217,
            "midi": 31,
            "name": "G1",
            "ticks": 486000,
            "time": 506.25,
            "velocity": 0.8661417322834646
          },
          {
            "duration": 1.2260416666666742,
            "durationTicks": 1177,
            "midi": 36,
            "name": "C2",
            "ticks": 486240,
            "time": 506.5,
            "velocity": 1
          },
          {
            "duration": 0.22604166666667425,
            "durationTicks": 217,
            "midi": 36,
            "name": "C2",
            "ticks": 487440,
            "time": 507.75,
            "velocity": 0.8818897637795275
          },
          {
            "duration": 0.22604166666667425,
            "durationTicks": 217,
            "midi": 36,
            "name": "C2",
            "ticks": 487680,
            "time": 508,
            "velocity": 0.8740157480314961
          },
          {
            "duration": 0.22604166666667425,
            "durationTicks": 217,
            "midi": 36,
            "name": "C2",
            "ticks": 487920,
            "time": 508.25,
            "velocity": 0.8976377952755905
          },
          {
            "duration": 1.2260416666666742,
            "durationTicks": 1177,
            "midi": 32,
            "name": "G#1",
            "ticks": 488160,
            "time": 508.5,
            "velocity": 0.9448818897637795
          },
          {
            "duration": 0.22604166666667425,
            "durationTicks": 217,
            "midi": 32,
            "name": "G#1",
            "ticks": 489360,
            "time": 509.75,
            "velocity": 0.8818897637795275
          },
          {
            "duration": 0.22604166666667425,
            "durationTicks": 217,
            "midi": 32,
            "name": "G#1",
            "ticks": 489600,
            "time": 510,
            "velocity": 0.8740157480314961
          },
          {
            "duration": 0.22604166666667425,
            "durationTicks": 217,
            "midi": 32,
            "name": "G#1",
            "ticks": 489840,
            "time": 510.25,
            "velocity": 0.8976377952755905
          },
          {
            "duration": 1.2260416666666742,
            "durationTicks": 1177,
            "midi": 40,
            "name": "E2",
            "ticks": 490080,
            "time": 510.5,
            "velocity": 1
          },
          {
            "duration": 0.22604166666667425,
            "durationTicks": 217,
            "midi": 40,
            "name": "E2",
            "ticks": 491280,
            "time": 511.75,
            "velocity": 0.905511811023622
          },
          {
            "duration": 0.22604166666667425,
            "durationTicks": 217,
            "midi": 40,
            "name": "E2",
            "ticks": 491520,
            "time": 512,
            "velocity": 0.8582677165354331
          },
          {
            "duration": 0.22604166666667425,
            "durationTicks": 217,
            "midi": 40,
            "name": "E2",
            "ticks": 491760,
            "time": 512.25,
            "velocity": 0.889763779527559
          },
          {
            "duration": 1.2260416666666742,
            "durationTicks": 1177,
            "midi": 41,
            "name": "F2",
            "ticks": 492000,
            "time": 512.5,
            "velocity": 1
          },
          {
            "duration": 0.22604166666667425,
            "durationTicks": 217,
            "midi": 41,
            "name": "F2",
            "ticks": 493200,
            "time": 513.75,
            "velocity": 0.8976377952755905
          },
          {
            "duration": 0.22604166666667425,
            "durationTicks": 217,
            "midi": 41,
            "name": "F2",
            "ticks": 493440,
            "time": 514,
            "velocity": 0.9133858267716536
          },
          {
            "duration": 0.22604166666667425,
            "durationTicks": 217,
            "midi": 41,
            "name": "F2",
            "ticks": 493680,
            "time": 514.25,
            "velocity": 0.8740157480314961
          },
          {
            "duration": 0.22604166666667425,
            "durationTicks": 217,
            "midi": 29,
            "name": "F1",
            "ticks": 493920,
            "time": 514.5,
            "velocity": 0.8110236220472441
          },
          {
            "duration": 0.22604166666667425,
            "durationTicks": 217,
            "midi": 41,
            "name": "F2",
            "ticks": 494160,
            "time": 514.75,
            "velocity": 0.9921259842519685
          },
          {
            "duration": 0.22604166666667425,
            "durationTicks": 217,
            "midi": 41,
            "name": "F2",
            "ticks": 494400,
            "time": 515,
            "velocity": 0.889763779527559
          },
          {
            "duration": 0.22604166666667425,
            "durationTicks": 217,
            "midi": 41,
            "name": "F2",
            "ticks": 494640,
            "time": 515.25,
            "velocity": 0.889763779527559
          },
          {
            "duration": 0.22604166666667425,
            "durationTicks": 217,
            "midi": 41,
            "name": "F2",
            "ticks": 494880,
            "time": 515.5,
            "velocity": 0.8582677165354331
          },
          {
            "duration": 0.22604166666667425,
            "durationTicks": 217,
            "midi": 41,
            "name": "F2",
            "ticks": 495120,
            "time": 515.75,
            "velocity": 0.905511811023622
          },
          {
            "duration": 0.22604166666667425,
            "durationTicks": 217,
            "midi": 41,
            "name": "F2",
            "ticks": 495360,
            "time": 516,
            "velocity": 0.9133858267716536
          },
          {
            "duration": 0.22604166666667425,
            "durationTicks": 217,
            "midi": 41,
            "name": "F2",
            "ticks": 495600,
            "time": 516.25,
            "velocity": 0.889763779527559
          },
          {
            "duration": 0.22604166666667425,
            "durationTicks": 217,
            "midi": 41,
            "name": "F2",
            "ticks": 495840,
            "time": 516.5,
            "velocity": 0.8740157480314961
          },
          {
            "duration": 0.22604166666667425,
            "durationTicks": 217,
            "midi": 41,
            "name": "F2",
            "ticks": 496080,
            "time": 516.75,
            "velocity": 0.889763779527559
          },
          {
            "duration": 0.22604166666667425,
            "durationTicks": 217,
            "midi": 41,
            "name": "F2",
            "ticks": 496320,
            "time": 517,
            "velocity": 0.8740157480314961
          },
          {
            "duration": 0.22604166666667425,
            "durationTicks": 217,
            "midi": 41,
            "name": "F2",
            "ticks": 496560,
            "time": 517.25,
            "velocity": 0.9133858267716536
          },
          {
            "duration": 0.22604166666667425,
            "durationTicks": 217,
            "midi": 41,
            "name": "F2",
            "ticks": 496800,
            "time": 517.5,
            "velocity": 0.905511811023622
          },
          {
            "duration": 0.22604166666667425,
            "durationTicks": 217,
            "midi": 41,
            "name": "F2",
            "ticks": 497040,
            "time": 517.75,
            "velocity": 0.8976377952755905
          },
          {
            "duration": 0.22604166666667425,
            "durationTicks": 217,
            "midi": 41,
            "name": "F2",
            "ticks": 497280,
            "time": 518,
            "velocity": 0.8661417322834646
          },
          {
            "duration": 0.22604166666667425,
            "durationTicks": 217,
            "midi": 41,
            "name": "F2",
            "ticks": 497520,
            "time": 518.25,
            "velocity": 0.8818897637795275
          },
          {
            "duration": 0.451041666666697,
            "durationTicks": 433,
            "midi": 41,
            "name": "F2",
            "ticks": 497760,
            "time": 518.5,
            "velocity": 0.8976377952755905
          },
          {
            "duration": 0.22604166666667425,
            "durationTicks": 217,
            "midi": 30,
            "name": "F#1",
            "ticks": 501840,
            "time": 522.75,
            "velocity": 0.8267716535433071
          },
          {
            "duration": 0.22604166666667425,
            "durationTicks": 217,
            "midi": 30,
            "name": "F#1",
            "ticks": 502080,
            "time": 523,
            "velocity": 0.8818897637795275
          },
          {
            "duration": 0.22604166666667425,
            "durationTicks": 217,
            "midi": 30,
            "name": "F#1",
            "ticks": 502320,
            "time": 523.25,
            "velocity": 0.8818897637795275
          },
          {
            "duration": 0.22604166666667425,
            "durationTicks": 217,
            "midi": 30,
            "name": "F#1",
            "ticks": 502560,
            "time": 523.5,
            "velocity": 0.8582677165354331
          },
          {
            "duration": 0.22604166666667425,
            "durationTicks": 217,
            "midi": 42,
            "name": "F#2",
            "ticks": 502800,
            "time": 523.75,
            "velocity": 1
          },
          {
            "duration": 0.22604166666667425,
            "durationTicks": 217,
            "midi": 42,
            "name": "F#2",
            "ticks": 503040,
            "time": 524,
            "velocity": 0.905511811023622
          },
          {
            "duration": 0.22604166666667425,
            "durationTicks": 217,
            "midi": 42,
            "name": "F#2",
            "ticks": 503280,
            "time": 524.25,
            "velocity": 0.8976377952755905
          },
          {
            "duration": 0.22604166666667425,
            "durationTicks": 217,
            "midi": 42,
            "name": "F#2",
            "ticks": 503520,
            "time": 524.5,
            "velocity": 0.8976377952755905
          },
          {
            "duration": 0.22604166666667425,
            "durationTicks": 217,
            "midi": 42,
            "name": "F#2",
            "ticks": 503760,
            "time": 524.75,
            "velocity": 0.889763779527559
          },
          {
            "duration": 0.22604166666667425,
            "durationTicks": 217,
            "midi": 42,
            "name": "F#2",
            "ticks": 504000,
            "time": 525,
            "velocity": 0.9133858267716536
          },
          {
            "duration": 0.22604166666667425,
            "durationTicks": 217,
            "midi": 42,
            "name": "F#2",
            "ticks": 504240,
            "time": 525.25,
            "velocity": 0.889763779527559
          },
          {
            "duration": 0.22604166666667425,
            "durationTicks": 217,
            "midi": 42,
            "name": "F#2",
            "ticks": 504480,
            "time": 525.5,
            "velocity": 0.889763779527559
          },
          {
            "duration": 0.22604166666667425,
            "durationTicks": 217,
            "midi": 42,
            "name": "F#2",
            "ticks": 504720,
            "time": 525.75,
            "velocity": 0.9133858267716536
          },
          {
            "duration": 0.22604166666667425,
            "durationTicks": 217,
            "midi": 42,
            "name": "F#2",
            "ticks": 504960,
            "time": 526,
            "velocity": 0.8503937007874016
          },
          {
            "duration": 0.22604166666667425,
            "durationTicks": 217,
            "midi": 42,
            "name": "F#2",
            "ticks": 505200,
            "time": 526.25,
            "velocity": 0.8740157480314961
          },
          {
            "duration": 0.22604166666667425,
            "durationTicks": 217,
            "midi": 42,
            "name": "F#2",
            "ticks": 505440,
            "time": 526.5,
            "velocity": 0.9212598425196851
          },
          {
            "duration": 0.22604166666667425,
            "durationTicks": 217,
            "midi": 42,
            "name": "F#2",
            "ticks": 505680,
            "time": 526.75,
            "velocity": 0.905511811023622
          },
          {
            "duration": 0.22604166666667425,
            "durationTicks": 217,
            "midi": 42,
            "name": "F#2",
            "ticks": 505920,
            "time": 527,
            "velocity": 0.8740157480314961
          },
          {
            "duration": 0.22604166666667425,
            "durationTicks": 217,
            "midi": 42,
            "name": "F#2",
            "ticks": 506160,
            "time": 527.25,
            "velocity": 0.8503937007874016
          },
          {
            "duration": 0.451041666666697,
            "durationTicks": 433,
            "midi": 42,
            "name": "F#2",
            "ticks": 506400,
            "time": 527.5,
            "velocity": 0.8582677165354331
          },
          {
            "duration": 0.451041666666697,
            "durationTicks": 433,
            "midi": 31,
            "name": "G1",
            "ticks": 510240,
            "time": 531.5,
            "velocity": 0.6929133858267716
          },
          {
            "duration": 0.451041666666697,
            "durationTicks": 433,
            "midi": 31,
            "name": "G1",
            "ticks": 514080,
            "time": 535.5,
            "velocity": 0.7007874015748031
          },
          {
            "duration": 0.451041666666697,
            "durationTicks": 433,
            "midi": 44,
            "name": "G#2",
            "ticks": 521760,
            "time": 543.5,
            "velocity": 0.7086614173228346
          },
          {
            "duration": 0.451041666666697,
            "durationTicks": 433,
            "midi": 46,
            "name": "A#2",
            "ticks": 522240,
            "time": 544,
            "velocity": 0.8031496062992126
          },
          {
            "duration": 0.451041666666697,
            "durationTicks": 433,
            "midi": 43,
            "name": "G2",
            "ticks": 522720,
            "time": 544.5,
            "velocity": 0.7401574803149606
          },
          {
            "duration": 0.451041666666697,
            "durationTicks": 433,
            "midi": 44,
            "name": "G#2",
            "ticks": 523200,
            "time": 545,
            "velocity": 0.7952755905511811
          },
          {
            "duration": 0.451041666666697,
            "durationTicks": 433,
            "midi": 41,
            "name": "F2",
            "ticks": 523680,
            "time": 545.5,
            "velocity": 0.7244094488188977
          },
          {
            "duration": 0.451041666666697,
            "durationTicks": 433,
            "midi": 43,
            "name": "G2",
            "ticks": 524160,
            "time": 546,
            "velocity": 0.7874015748031497
          },
          {
            "duration": 0.451041666666697,
            "durationTicks": 433,
            "midi": 39,
            "name": "D#2",
            "ticks": 524640,
            "time": 546.5,
            "velocity": 0.7244094488188977
          },
          {
            "duration": 0.451041666666697,
            "durationTicks": 433,
            "midi": 41,
            "name": "F2",
            "ticks": 525120,
            "time": 547,
            "velocity": 0.7952755905511811
          },
          {
            "duration": 0.451041666666697,
            "durationTicks": 433,
            "midi": 38,
            "name": "D2",
            "ticks": 525600,
            "time": 547.5,
            "velocity": 0.7322834645669292
          },
          {
            "duration": 0.451041666666697,
            "durationTicks": 433,
            "midi": 36,
            "name": "C2",
            "ticks": 526080,
            "time": 548,
            "velocity": 0.7244094488188977
          },
          {
            "duration": 0.451041666666697,
            "durationTicks": 433,
            "midi": 35,
            "name": "B1",
            "ticks": 526560,
            "time": 548.5,
            "velocity": 0.7559055118110236
          },
          {
            "duration": 0.451041666666697,
            "durationTicks": 433,
            "midi": 36,
            "name": "C2",
            "ticks": 527040,
            "time": 549,
            "velocity": 0.7952755905511811
          },
          {
            "duration": 0.451041666666697,
            "durationTicks": 433,
            "midi": 38,
            "name": "D2",
            "ticks": 527520,
            "time": 549.5,
            "velocity": 0.7952755905511811
          },
          {
            "duration": 0.451041666666697,
            "durationTicks": 433,
            "midi": 36,
            "name": "C2",
            "ticks": 528000,
            "time": 550,
            "velocity": 0.7637795275590551
          },
          {
            "duration": 0.451041666666697,
            "durationTicks": 433,
            "midi": 38,
            "name": "D2",
            "ticks": 528480,
            "time": 550.5,
            "velocity": 0.8110236220472441
          },
          {
            "duration": 0.451041666666697,
            "durationTicks": 433,
            "midi": 40,
            "name": "E2",
            "ticks": 528960,
            "time": 551,
            "velocity": 0.8031496062992126
          },
          {
            "duration": 0.451041666666697,
            "durationTicks": 433,
            "midi": 41,
            "name": "F2",
            "ticks": 529440,
            "time": 551.5,
            "velocity": 0.7637795275590551
          },
          {
            "duration": 0.451041666666697,
            "durationTicks": 433,
            "midi": 40,
            "name": "E2",
            "ticks": 529920,
            "time": 552,
            "velocity": 0.7480314960629921
          },
          {
            "duration": 0.451041666666697,
            "durationTicks": 433,
            "midi": 41,
            "name": "F2",
            "ticks": 530400,
            "time": 552.5,
            "velocity": 0.7952755905511811
          },
          {
            "duration": 0.451041666666697,
            "durationTicks": 433,
            "midi": 43,
            "name": "G2",
            "ticks": 530880,
            "time": 553,
            "velocity": 0.8110236220472441
          },
          {
            "duration": 0.451041666666697,
            "durationTicks": 433,
            "midi": 44,
            "name": "G#2",
            "ticks": 531360,
            "time": 553.5,
            "velocity": 0.7952755905511811
          },
          {
            "duration": 0.451041666666697,
            "durationTicks": 433,
            "midi": 43,
            "name": "G2",
            "ticks": 531840,
            "time": 554,
            "velocity": 0.7244094488188977
          },
          {
            "duration": 0.451041666666697,
            "durationTicks": 433,
            "midi": 45,
            "name": "A2",
            "ticks": 532320,
            "time": 554.5,
            "velocity": 0.7874015748031497
          },
          {
            "duration": 0.451041666666697,
            "durationTicks": 433,
            "midi": 47,
            "name": "B2",
            "ticks": 532800,
            "time": 555,
            "velocity": 0.8188976377952756
          },
          {
            "duration": 1.8999999999999773,
            "durationTicks": 1824,
            "midi": 48,
            "name": "C3",
            "ticks": 533280,
            "time": 555.5,
            "velocity": 0.7952755905511811
          },
          {
            "duration": 1.8999999999999773,
            "durationTicks": 1824,
            "midi": 44,
            "name": "G#2",
            "ticks": 535200,
            "time": 557.5,
            "velocity": 0.7401574803149606
          },
          {
            "duration": 1.8999999999999773,
            "durationTicks": 1824,
            "midi": 39,
            "name": "D#2",
            "ticks": 537120,
            "time": 559.5,
            "velocity": 0.7086614173228346
          },
          {
            "duration": 0.8999999999999773,
            "durationTicks": 864,
            "midi": 41,
            "name": "F2",
            "ticks": 539040,
            "time": 561.5,
            "velocity": 0.7795275590551181
          },
          {
            "duration": 0.8999999999999773,
            "durationTicks": 864,
            "midi": 39,
            "name": "D#2",
            "ticks": 540000,
            "time": 562.5,
            "velocity": 0.7244094488188977
          },
          {
            "duration": 0.8999999999999773,
            "durationTicks": 864,
            "midi": 38,
            "name": "D2",
            "ticks": 540960,
            "time": 563.5,
            "velocity": 0.7165354330708661
          },
          {
            "duration": 0.8999999999999773,
            "durationTicks": 864,
            "midi": 41,
            "name": "F2",
            "ticks": 541920,
            "time": 564.5,
            "velocity": 0.8188976377952756
          },
          {
            "duration": 0.22500000000002274,
            "durationTicks": 216,
            "midi": 39,
            "name": "D#2",
            "ticks": 542880,
            "time": 565.5,
            "velocity": 0.7244094488188977
          },
          {
            "duration": 0.22500000000002274,
            "durationTicks": 216,
            "midi": 36,
            "name": "C2",
            "ticks": 543840,
            "time": 566.5,
            "velocity": 0.6771653543307087
          },
          {
            "duration": 0.22500000000002274,
            "durationTicks": 216,
            "midi": 41,
            "name": "F2",
            "ticks": 544800,
            "time": 567.5,
            "velocity": 0.6929133858267716
          },
          {
            "duration": 0.22500000000002274,
            "durationTicks": 216,
            "midi": 38,
            "name": "D2",
            "ticks": 545760,
            "time": 568.5,
            "velocity": 0.6614173228346457
          },
          {
            "duration": 0.22500000000002274,
            "durationTicks": 216,
            "midi": 43,
            "name": "G2",
            "ticks": 546720,
            "time": 569.5,
            "velocity": 0.6929133858267716
          },
          {
            "duration": 0.22500000000002274,
            "durationTicks": 216,
            "midi": 31,
            "name": "G1",
            "ticks": 547680,
            "time": 570.5,
            "velocity": 0.6929133858267716
          },
          {
            "duration": 0.22500000000002274,
            "durationTicks": 216,
            "midi": 36,
            "name": "C2",
            "ticks": 548640,
            "time": 571.5,
            "velocity": 0.6850393700787402
          },
          {
            "duration": 0.22500000000002274,
            "durationTicks": 216,
            "midi": 39,
            "name": "D#2",
            "ticks": 551520,
            "time": 574.5,
            "velocity": 0.7244094488188977
          },
          {
            "duration": 0.22500000000002274,
            "durationTicks": 216,
            "midi": 41,
            "name": "F2",
            "ticks": 552000,
            "time": 575,
            "velocity": 0.7637795275590551
          },
          {
            "duration": 0.5093749999999773,
            "durationTicks": 489,
            "midi": 43,
            "name": "G2",
            "ticks": 552480,
            "time": 575.5,
            "velocity": 0.7874015748031497
          },
          {
            "duration": 0.47500000000002274,
            "durationTicks": 456,
            "midi": 39,
            "name": "D#2",
            "ticks": 552960,
            "time": 576,
            "velocity": 0.7559055118110236
          },
          {
            "duration": 0.22500000000002274,
            "durationTicks": 216,
            "midi": 31,
            "name": "G1",
            "ticks": 555360,
            "time": 578.5,
            "velocity": 0.7086614173228346
          },
          {
            "duration": 0.22500000000002274,
            "durationTicks": 216,
            "midi": 33,
            "name": "A1",
            "ticks": 555840,
            "time": 579,
            "velocity": 0.7795275590551181
          },
          {
            "duration": 0.5093749999999773,
            "durationTicks": 489,
            "midi": 35,
            "name": "B1",
            "ticks": 556320,
            "time": 579.5,
            "velocity": 0.7795275590551181
          },
          {
            "duration": 0.47500000000002274,
            "durationTicks": 456,
            "midi": 31,
            "name": "G1",
            "ticks": 556800,
            "time": 580,
            "velocity": 0.7165354330708661
          },
          {
            "duration": 0.22500000000002274,
            "durationTicks": 216,
            "midi": 31,
            "name": "G1",
            "ticks": 559200,
            "time": 582.5,
            "velocity": 0.7480314960629921
          },
          {
            "duration": 0.22500000000002274,
            "durationTicks": 216,
            "midi": 33,
            "name": "A1",
            "ticks": 559680,
            "time": 583,
            "velocity": 0.7952755905511811
          },
          {
            "duration": 0.5093749999999773,
            "durationTicks": 489,
            "midi": 35,
            "name": "B1",
            "ticks": 560160,
            "time": 583.5,
            "velocity": 0.8503937007874016
          },
          {
            "duration": 0.47500000000002274,
            "durationTicks": 456,
            "midi": 31,
            "name": "G1",
            "ticks": 560640,
            "time": 584,
            "velocity": 0.7874015748031497
          },
          {
            "duration": 0.5093749999999773,
            "durationTicks": 489,
            "midi": 41,
            "name": "F2",
            "ticks": 564960,
            "time": 588.5,
            "velocity": 0.984251968503937
          },
          {
            "duration": 0.47500000000002274,
            "durationTicks": 456,
            "midi": 36,
            "name": "C2",
            "ticks": 565440,
            "time": 589,
            "velocity": 0.9212598425196851
          },
          {
            "duration": 0.5093749999999773,
            "durationTicks": 489,
            "midi": 41,
            "name": "F2",
            "ticks": 566880,
            "time": 590.5,
            "velocity": 0.8110236220472441
          },
          {
            "duration": 0.47500000000002274,
            "durationTicks": 456,
            "midi": 36,
            "name": "C2",
            "ticks": 567360,
            "time": 591,
            "velocity": 0.7322834645669292
          },
          {
            "duration": 0.451041666666697,
            "durationTicks": 433,
            "midi": 43,
            "name": "G2",
            "ticks": 567840,
            "time": 591.5,
            "velocity": 0.8346456692913385
          },
          {
            "duration": 0.451041666666697,
            "durationTicks": 433,
            "midi": 31,
            "name": "G1",
            "ticks": 568800,
            "time": 592.5,
            "velocity": 0.6850393700787402
          },
          {
            "duration": 0.5093749999999773,
            "durationTicks": 489,
            "midi": 48,
            "name": "C3",
            "ticks": 569760,
            "time": 593.5,
            "velocity": 0.6771653543307087
          },
          {
            "duration": 0.5093749999999773,
            "durationTicks": 489,
            "midi": 43,
            "name": "G2",
            "ticks": 570240,
            "time": 594,
            "velocity": 0.6299212598425197
          },
          {
            "duration": 0.5093749999999773,
            "durationTicks": 489,
            "midi": 44,
            "name": "G#2",
            "ticks": 570720,
            "time": 594.5,
            "velocity": 0.8031496062992126
          },
          {
            "duration": 0.5093749999999773,
            "durationTicks": 489,
            "midi": 39,
            "name": "D#2",
            "ticks": 571200,
            "time": 595,
            "velocity": 0.7637795275590551
          },
          {
            "duration": 0.5093749999999773,
            "durationTicks": 489,
            "midi": 41,
            "name": "F2",
            "ticks": 571680,
            "time": 595.5,
            "velocity": 0.8110236220472441
          },
          {
            "duration": 0.47500000000002274,
            "durationTicks": 456,
            "midi": 36,
            "name": "C2",
            "ticks": 572160,
            "time": 596,
            "velocity": 0.7716535433070866
          },
          {
            "duration": 0.5093749999999773,
            "durationTicks": 489,
            "midi": 41,
            "name": "F2",
            "ticks": 573600,
            "time": 597.5,
            "velocity": 0.8267716535433071
          },
          {
            "duration": 0.47500000000002274,
            "durationTicks": 456,
            "midi": 36,
            "name": "C2",
            "ticks": 574080,
            "time": 598,
            "velocity": 0.8031496062992126
          },
          {
            "duration": 0.5093749999999773,
            "durationTicks": 489,
            "midi": 41,
            "name": "F2",
            "ticks": 574560,
            "time": 598.5,
            "velocity": 0.8582677165354331
          },
          {
            "duration": 0.47500000000002274,
            "durationTicks": 456,
            "midi": 36,
            "name": "C2",
            "ticks": 575040,
            "time": 599,
            "velocity": 0.8031496062992126
          },
          {
            "duration": 0.451041666666697,
            "durationTicks": 433,
            "midi": 43,
            "name": "G2",
            "ticks": 575520,
            "time": 599.5,
            "velocity": 0.84251968503937
          },
          {
            "duration": 0.451041666666697,
            "durationTicks": 433,
            "midi": 31,
            "name": "G1",
            "ticks": 576480,
            "time": 600.5,
            "velocity": 0.6929133858267716
          },
          {
            "duration": 0.451041666666697,
            "durationTicks": 433,
            "midi": 36,
            "name": "C2",
            "ticks": 577440,
            "time": 601.5,
            "velocity": 0.6771653543307087
          },
          {
            "duration": 0.22604166666667425,
            "durationTicks": 217,
            "midi": 31,
            "name": "G1",
            "ticks": 582480,
            "time": 606.75,
            "velocity": 0.7007874015748031
          },
          {
            "duration": 0.22604166666667425,
            "durationTicks": 217,
            "midi": 31,
            "name": "G1",
            "ticks": 582720,
            "time": 607,
            "velocity": 0.7716535433070866
          },
          {
            "duration": 0.22604166666667425,
            "durationTicks": 217,
            "midi": 31,
            "name": "G1",
            "ticks": 582960,
            "time": 607.25,
            "velocity": 0.7559055118110236
          },
          {
            "duration": 0.22604166666667425,
            "durationTicks": 217,
            "midi": 36,
            "name": "C2",
            "ticks": 583200,
            "time": 607.5,
            "velocity": 0.8110236220472441
          },
          {
            "duration": 0.22604166666667425,
            "durationTicks": 217,
            "midi": 31,
            "name": "G1",
            "ticks": 583440,
            "time": 607.75,
            "velocity": 0.7401574803149606
          },
          {
            "duration": 0.22604166666667425,
            "durationTicks": 217,
            "midi": 31,
            "name": "G1",
            "ticks": 583680,
            "time": 608,
            "velocity": 0.7795275590551181
          },
          {
            "duration": 0.22604166666667425,
            "durationTicks": 217,
            "midi": 31,
            "name": "G1",
            "ticks": 583920,
            "time": 608.25,
            "velocity": 0.7637795275590551
          },
          {
            "duration": 0.22604166666667425,
            "durationTicks": 217,
            "midi": 31,
            "name": "G1",
            "ticks": 584160,
            "time": 608.5,
            "velocity": 0.7874015748031497
          },
          {
            "duration": 0.22604166666667425,
            "durationTicks": 217,
            "midi": 31,
            "name": "G1",
            "ticks": 584400,
            "time": 608.75,
            "velocity": 0.7559055118110236
          },
          {
            "duration": 0.22604166666667425,
            "durationTicks": 217,
            "midi": 31,
            "name": "G1",
            "ticks": 584640,
            "time": 609,
            "velocity": 0.7952755905511811
          },
          {
            "duration": 0.22604166666667425,
            "durationTicks": 217,
            "midi": 31,
            "name": "G1",
            "ticks": 584880,
            "time": 609.25,
            "velocity": 0.7480314960629921
          },
          {
            "duration": 0.22604166666667425,
            "durationTicks": 217,
            "midi": 31,
            "name": "G1",
            "ticks": 585120,
            "time": 609.5,
            "velocity": 0.7401574803149606
          },
          {
            "duration": 0.22604166666667425,
            "durationTicks": 217,
            "midi": 31,
            "name": "G1",
            "ticks": 585360,
            "time": 609.75,
            "velocity": 0.7795275590551181
          },
          {
            "duration": 0.22604166666667425,
            "durationTicks": 217,
            "midi": 31,
            "name": "G1",
            "ticks": 585600,
            "time": 610,
            "velocity": 0.7716535433070866
          },
          {
            "duration": 0.22604166666667425,
            "durationTicks": 217,
            "midi": 31,
            "name": "G1",
            "ticks": 585840,
            "time": 610.25,
            "velocity": 0.7716535433070866
          },
          {
            "duration": 0.22604166666667425,
            "durationTicks": 217,
            "midi": 31,
            "name": "G1",
            "ticks": 586080,
            "time": 610.5,
            "velocity": 0.7559055118110236
          },
          {
            "duration": 0.22604166666667425,
            "durationTicks": 217,
            "midi": 31,
            "name": "G1",
            "ticks": 586320,
            "time": 610.75,
            "velocity": 0.7952755905511811
          },
          {
            "duration": 0.22604166666667425,
            "durationTicks": 217,
            "midi": 31,
            "name": "G1",
            "ticks": 586560,
            "time": 611,
            "velocity": 0.7874015748031497
          },
          {
            "duration": 0.22604166666667425,
            "durationTicks": 217,
            "midi": 31,
            "name": "G1",
            "ticks": 586800,
            "time": 611.25,
            "velocity": 0.7874015748031497
          },
          {
            "duration": 1.5,
            "durationTicks": 1440,
            "midi": 27,
            "name": "D#1",
            "ticks": 587040,
            "time": 611.5,
            "velocity": 0.8188976377952756
          },
          {
            "duration": 0.22604166666667425,
            "durationTicks": 217,
            "midi": 29,
            "name": "F1",
            "ticks": 588720,
            "time": 613.25,
            "velocity": 0.84251968503937
          },
          {
            "duration": 0.22604166666667425,
            "durationTicks": 217,
            "midi": 29,
            "name": "F1",
            "ticks": 588960,
            "time": 613.5,
            "velocity": 0.8661417322834646
          },
          {
            "duration": 0.22604166666667425,
            "durationTicks": 217,
            "midi": 29,
            "name": "F1",
            "ticks": 589200,
            "time": 613.75,
            "velocity": 0.8818897637795275
          },
          {
            "duration": 2.5,
            "durationTicks": 2400,
            "midi": 26,
            "name": "D1",
            "ticks": 589440,
            "time": 614,
            "velocity": 0.8267716535433071
          },
          {
            "duration": 0.22604166666667425,
            "durationTicks": 217,
            "midi": 31,
            "name": "G1",
            "ticks": 599760,
            "time": 624.75,
            "velocity": 0.8188976377952756
          },
          {
            "duration": 0.22604166666667425,
            "durationTicks": 217,
            "midi": 31,
            "name": "G1",
            "ticks": 600000,
            "time": 625,
            "velocity": 0.8661417322834646
          },
          {
            "duration": 0.22604166666667425,
            "durationTicks": 217,
            "midi": 31,
            "name": "G1",
            "ticks": 600240,
            "time": 625.25,
            "velocity": 0.889763779527559
          },
          {
            "duration": 0.451041666666697,
            "durationTicks": 433,
            "midi": 36,
            "name": "C2",
            "ticks": 600480,
            "time": 625.5,
            "velocity": 0.937007874015748
          },
          {
            "duration": 0.22604166666667425,
            "durationTicks": 217,
            "midi": 31,
            "name": "G1",
            "ticks": 601680,
            "time": 626.75,
            "velocity": 0.7795275590551181
          },
          {
            "duration": 0.22604166666667425,
            "durationTicks": 217,
            "midi": 31,
            "name": "G1",
            "ticks": 601920,
            "time": 627,
            "velocity": 0.9212598425196851
          },
          {
            "duration": 0.22604166666667425,
            "durationTicks": 217,
            "midi": 31,
            "name": "G1",
            "ticks": 602160,
            "time": 627.25,
            "velocity": 0.889763779527559
          },
          {
            "duration": 0.451041666666697,
            "durationTicks": 433,
            "midi": 36,
            "name": "C2",
            "ticks": 602400,
            "time": 627.5,
            "velocity": 0.9606299212598425
          },
          {
            "duration": 0.22604166666667425,
            "durationTicks": 217,
            "midi": 31,
            "name": "G1",
            "ticks": 603600,
            "time": 628.75,
            "velocity": 0.7952755905511811
          },
          {
            "duration": 0.22604166666667425,
            "durationTicks": 217,
            "midi": 31,
            "name": "G1",
            "ticks": 603840,
            "time": 629,
            "velocity": 0.8346456692913385
          },
          {
            "duration": 0.22604166666667425,
            "durationTicks": 217,
            "midi": 31,
            "name": "G1",
            "ticks": 604080,
            "time": 629.25,
            "velocity": 0.889763779527559
          },
          {
            "duration": 0.451041666666697,
            "durationTicks": 433,
            "midi": 36,
            "name": "C2",
            "ticks": 604320,
            "time": 629.5,
            "velocity": 0.968503937007874
          },
          {
            "duration": 0.451041666666697,
            "durationTicks": 433,
            "midi": 31,
            "name": "G1",
            "ticks": 604800,
            "time": 630,
            "velocity": 0.8503937007874016
          },
          {
            "duration": 0.451041666666697,
            "durationTicks": 433,
            "midi": 36,
            "name": "C2",
            "ticks": 605280,
            "time": 630.5,
            "velocity": 0.9133858267716536
          },
          {
            "duration": 0.451041666666697,
            "durationTicks": 433,
            "midi": 31,
            "name": "G1",
            "ticks": 605760,
            "time": 631,
            "velocity": 0.8346456692913385
          },
          {
            "duration": 0.451041666666697,
            "durationTicks": 433,
            "midi": 36,
            "name": "C2",
            "ticks": 606240,
            "time": 631.5,
            "velocity": 0.952755905511811
          },
          {
            "duration": 0.451041666666697,
            "durationTicks": 433,
            "midi": 43,
            "name": "G2",
            "ticks": 606720,
            "time": 632,
            "velocity": 0.9921259842519685
          },
          {
            "duration": 0.451041666666697,
            "durationTicks": 433,
            "midi": 48,
            "name": "C3",
            "ticks": 607200,
            "time": 632.5,
            "velocity": 0.9606299212598425
          },
          {
            "duration": 0.451041666666697,
            "durationTicks": 433,
            "midi": 43,
            "name": "G2",
            "ticks": 607680,
            "time": 633,
            "velocity": 0.8188976377952756
          },
          {
            "duration": 0.451041666666697,
            "durationTicks": 433,
            "midi": 48,
            "name": "C3",
            "ticks": 608160,
            "time": 633.5,
            "velocity": 0.9763779527559056
          },
          {
            "duration": 0.451041666666697,
            "durationTicks": 433,
            "midi": 31,
            "name": "G1",
            "ticks": 609120,
            "time": 634.5,
            "velocity": 0.8110236220472441
          },
          {
            "duration": 0.451041666666697,
            "durationTicks": 433,
            "midi": 36,
            "name": "C2",
            "ticks": 610080,
            "time": 635.5,
            "velocity": 0.8031496062992126
          }
        ]
      },
      {
        "channel": 11,
        "controlChanges": {
          "7": [
            {
              "number": 7,
              "ticks": 261600,
              "time": 272.5,
              "value": 0.49606299212598426
            },
            {
              "number": 7,
              "ticks": 366720,
              "time": 382,
              "value": 0.49606299212598426
            }
          ],
          "10": [
            {
              "number": 10,
              "ticks": 261600,
              "time": 272.5,
              "value": 0.937007874015748
            },
            {
              "number": 10,
              "ticks": 366720,
              "time": 382,
              "value": 0.937007874015748
            }
          ]
        },
        "pitchBends": [],
        "instrument": {
          "family": "strings",
          "number": 45,
          "name": "pizzicato strings"
        },
        "name": "",
        "notes": [
          {
            "duration": 0.45104166666664014,
            "durationTicks": 433,
            "midi": 31,
            "name": "G1",
            "ticks": 261600,
            "time": 272.5,
            "velocity": 0.4645669291338583
          },
          {
            "duration": 0.45104166666664014,
            "durationTicks": 433,
            "midi": 36,
            "name": "C2",
            "ticks": 262080,
            "time": 273,
            "velocity": 0.5118110236220472
          },
          {
            "duration": 0.45104166666664014,
            "durationTicks": 433,
            "midi": 31,
            "name": "G1",
            "ticks": 263040,
            "time": 274,
            "velocity": 0.4251968503937008
          },
          {
            "duration": 0.45104166666664014,
            "durationTicks": 433,
            "midi": 36,
            "name": "C2",
            "ticks": 264000,
            "time": 275,
            "velocity": 0.4330708661417323
          },
          {
            "duration": 0.45104166666664014,
            "durationTicks": 433,
            "midi": 31,
            "name": "G1",
            "ticks": 264960,
            "time": 276,
            "velocity": 0.4330708661417323
          },
          {
            "duration": 0.45104166666664014,
            "durationTicks": 433,
            "midi": 36,
            "name": "C2",
            "ticks": 265920,
            "time": 277,
            "velocity": 0.41732283464566927
          },
          {
            "duration": 0.45104166666664014,
            "durationTicks": 433,
            "midi": 33,
            "name": "A1",
            "ticks": 267840,
            "time": 279,
            "velocity": 0.4251968503937008
          },
          {
            "duration": 0.45104166666664014,
            "durationTicks": 433,
            "midi": 38,
            "name": "D2",
            "ticks": 268800,
            "time": 280,
            "velocity": 0.4251968503937008
          },
          {
            "duration": 0.45104166666664014,
            "durationTicks": 433,
            "midi": 43,
            "name": "G2",
            "ticks": 269760,
            "time": 281,
            "velocity": 0.4251968503937008
          },
          {
            "duration": 0.45104166666664014,
            "durationTicks": 433,
            "midi": 38,
            "name": "D2",
            "ticks": 270720,
            "time": 282,
            "velocity": 0.41732283464566927
          },
          {
            "duration": 0.45104166666664014,
            "durationTicks": 433,
            "midi": 43,
            "name": "G2",
            "ticks": 271680,
            "time": 283,
            "velocity": 0.44881889763779526
          },
          {
            "duration": 0.45104166666664014,
            "durationTicks": 433,
            "midi": 38,
            "name": "D2",
            "ticks": 272640,
            "time": 284,
            "velocity": 0.4094488188976378
          },
          {
            "duration": 0.45104166666664014,
            "durationTicks": 433,
            "midi": 36,
            "name": "C2",
            "ticks": 366720,
            "time": 382,
            "velocity": 0.4566929133858268
          },
          {
            "duration": 0.45104166666664014,
            "durationTicks": 433,
            "midi": 36,
            "name": "C2",
            "ticks": 368640,
            "time": 384,
            "velocity": 0.4566929133858268
          },
          {
            "duration": 0.45104166666664014,
            "durationTicks": 433,
            "midi": 35,
            "name": "B1",
            "ticks": 370560,
            "time": 386,
            "velocity": 0.4645669291338583
          },
          {
            "duration": 0.45104166666664014,
            "durationTicks": 433,
            "midi": 35,
            "name": "B1",
            "ticks": 372480,
            "time": 388,
            "velocity": 0.4409448818897638
          },
          {
            "duration": 0.45104166666664014,
            "durationTicks": 433,
            "midi": 36,
            "name": "C2",
            "ticks": 374400,
            "time": 390,
            "velocity": 0.44881889763779526
          },
          {
            "duration": 0.45104166666664014,
            "durationTicks": 433,
            "midi": 35,
            "name": "B1",
            "ticks": 375360,
            "time": 391,
            "velocity": 0.4409448818897638
          },
          {
            "duration": 0.45104166666664014,
            "durationTicks": 433,
            "midi": 36,
            "name": "C2",
            "ticks": 376320,
            "time": 392,
            "velocity": 0.4094488188976378
          },
          {
            "duration": 0.45104166666664014,
            "durationTicks": 433,
            "midi": 31,
            "name": "G1",
            "ticks": 377280,
            "time": 393,
            "velocity": 0.4409448818897638
          },
          {
            "duration": 0.45104166666664014,
            "durationTicks": 433,
            "midi": 36,
            "name": "C2",
            "ticks": 378240,
            "time": 394,
            "velocity": 0.48031496062992124
          },
          {
            "duration": 0.45104166666664014,
            "durationTicks": 433,
            "midi": 32,
            "name": "G#1",
            "ticks": 379200,
            "time": 395,
            "velocity": 0.5039370078740157
          }
        ]
      },
      {
        "channel": 8,
        "controlChanges": {
          "7": [
            {
              "number": 7,
              "ticks": 366720,
              "time": 382,
              "value": 0.5196850393700787
            }
          ],
          "10": [
            {
              "number": 10,
              "ticks": 366720,
              "time": 382,
              "value": 0.6771653543307087
            }
          ]
        },
        "pitchBends": [],
        "instrument": {
          "family": "strings",
          "number": 45,
          "name": "pizzicato strings"
        },
        "name": "",
        "notes": [
          {
            "duration": 0.45104166666664014,
            "durationTicks": 433,
            "midi": 60,
            "name": "C4",
            "ticks": 366720,
            "time": 382,
            "velocity": 0.5905511811023622
          },
          {
            "duration": 0.45104166666664014,
            "durationTicks": 433,
            "midi": 60,
            "name": "C4",
            "ticks": 368640,
            "time": 384,
            "velocity": 0.4566929133858268
          },
          {
            "duration": 0.45104166666664014,
            "durationTicks": 433,
            "midi": 59,
            "name": "B3",
            "ticks": 370560,
            "time": 386,
            "velocity": 0.4409448818897638
          },
          {
            "duration": 0.45104166666664014,
            "durationTicks": 433,
            "midi": 59,
            "name": "B3",
            "ticks": 372480,
            "time": 388,
            "velocity": 0.41732283464566927
          },
          {
            "duration": 0.45104166666664014,
            "durationTicks": 433,
            "midi": 60,
            "name": "C4",
            "ticks": 374400,
            "time": 390,
            "velocity": 0.4330708661417323
          },
          {
            "duration": 0.45104166666664014,
            "durationTicks": 433,
            "midi": 59,
            "name": "B3",
            "ticks": 375360,
            "time": 391,
            "velocity": 0.4015748031496063
          }
        ]
      },
      {
        "channel": 10,
        "controlChanges": {
          "7": [
            {
              "number": 7,
              "ticks": 366720,
              "time": 382,
              "value": 0.5905511811023622
            }
          ],
          "10": [
            {
              "number": 10,
              "ticks": 366720,
              "time": 382,
              "value": 0.7480314960629921
            }
          ]
        },
        "pitchBends": [],
        "instrument": {
          "family": "strings",
          "number": 45,
          "name": "pizzicato strings"
        },
        "name": "",
        "notes": [
          {
            "duration": 0.45104166666664014,
            "durationTicks": 433,
            "midi": 48,
            "name": "C3",
            "ticks": 366720,
            "time": 382,
            "velocity": 0.5669291338582677
          },
          {
            "duration": 0.45104166666664014,
            "durationTicks": 433,
            "midi": 48,
            "name": "C3",
            "ticks": 368640,
            "time": 384,
            "velocity": 0.4409448818897638
          },
          {
            "duration": 0.45104166666664014,
            "durationTicks": 433,
            "midi": 47,
            "name": "B2",
            "ticks": 370560,
            "time": 386,
            "velocity": 0.4251968503937008
          },
          {
            "duration": 0.45104166666664014,
            "durationTicks": 433,
            "midi": 47,
            "name": "B2",
            "ticks": 372480,
            "time": 388,
            "velocity": 0.4330708661417323
          },
          {
            "duration": 0.45104166666664014,
            "durationTicks": 433,
            "midi": 48,
            "name": "C3",
            "ticks": 374400,
            "time": 390,
            "velocity": 0.4251968503937008
          },
          {
            "duration": 0.45104166666664014,
            "durationTicks": 433,
            "midi": 47,
            "name": "B2",
            "ticks": 375360,
            "time": 391,
            "velocity": 0.4409448818897638
          },
          {
            "duration": 0.45104166666664014,
            "durationTicks": 433,
            "midi": 48,
            "name": "C3",
            "ticks": 376320,
            "time": 392,
            "velocity": 0.44881889763779526
          },
          {
            "duration": 0.45104166666664014,
            "durationTicks": 433,
            "midi": 43,
            "name": "G2",
            "ticks": 377280,
            "time": 393,
            "velocity": 0.4330708661417323
          },
          {
            "duration": 0.45104166666664014,
            "durationTicks": 433,
            "midi": 48,
            "name": "C3",
            "ticks": 378240,
            "time": 394,
            "velocity": 0.5354330708661418
          },
          {
            "duration": 0.45104166666664014,
            "durationTicks": 433,
            "midi": 44,
            "name": "G#2",
            "ticks": 379200,
            "time": 395,
            "velocity": 0.6299212598425197
          }
        ]
      }
    ]
  }